ISO-10303-21;
HEADER;
/* Generated by software containing ST-Developer
 * from STEP Tools, Inc. (www.steptools.com) 
 */

FILE_DESCRIPTION(
/* description */ (''),
/* implementation_level */ '2;1');

FILE_NAME(
/* name */ '2x_front_rails.stp',
/* time_stamp */ '2026-01-12T20:23:50+13:00',
/* author */ ('cloudy'),
/* organization */ (''),
/* preprocessor_version */ 'ST-DEVELOPER v20',
/* originating_system */ 'Autodesk Inventor 2025',
/* authorisation */ '');

FILE_SCHEMA (('AUTOMOTIVE_DESIGN { 1 0 10303 214 3 1 1 }'));
ENDSEC;

DATA;
#10=MECHANICAL_DESIGN_GEOMETRIC_PRESENTATION_REPRESENTATION('',(#13),#516);
#11=SHAPE_REPRESENTATION_RELATIONSHIP('SRR','None',#527,#12);
#12=ADVANCED_BREP_SHAPE_REPRESENTATION('',(#14),#515);
#13=STYLED_ITEM('',(#536),#14);
#14=MANIFOLD_SOLID_BREP('Solid1',#284);
#15=FACE_BOUND('',#41,.T.);
#16=FACE_BOUND('',#42,.T.);
#17=FACE_BOUND('',#56,.T.);
#18=FACE_BOUND('',#57,.T.);
#19=PLANE('',#309);
#20=PLANE('',#319);
#21=PLANE('',#332);
#22=PLANE('',#335);
#23=PLANE('',#340);
#24=FACE_OUTER_BOUND('',#39,.T.);
#25=FACE_OUTER_BOUND('',#40,.T.);
#26=FACE_OUTER_BOUND('',#43,.T.);
#27=FACE_OUTER_BOUND('',#44,.T.);
#28=FACE_OUTER_BOUND('',#45,.T.);
#29=FACE_OUTER_BOUND('',#46,.T.);
#30=FACE_OUTER_BOUND('',#47,.T.);
#31=FACE_OUTER_BOUND('',#48,.T.);
#32=FACE_OUTER_BOUND('',#49,.T.);
#33=FACE_OUTER_BOUND('',#50,.T.);
#34=FACE_OUTER_BOUND('',#51,.T.);
#35=FACE_OUTER_BOUND('',#52,.T.);
#36=FACE_OUTER_BOUND('',#53,.T.);
#37=FACE_OUTER_BOUND('',#54,.T.);
#38=FACE_OUTER_BOUND('',#55,.T.);
#39=EDGE_LOOP('',(#181,#182,#183,#184));
#40=EDGE_LOOP('',(#185,#186,#187,#188,#189,#190,#191,#192));
#41=EDGE_LOOP('',(#193));
#42=EDGE_LOOP('',(#194,#195,#196,#197));
#43=EDGE_LOOP('',(#198,#199,#200,#201));
#44=EDGE_LOOP('',(#202,#203,#204,#205));
#45=EDGE_LOOP('',(#206,#207,#208,#209));
#46=EDGE_LOOP('',(#210,#211,#212,#213));
#47=EDGE_LOOP('',(#214,#215,#216,#217));
#48=EDGE_LOOP('',(#218,#219,#220,#221));
#49=EDGE_LOOP('',(#222,#223,#224,#225));
#50=EDGE_LOOP('',(#226,#227,#228,#229));
#51=EDGE_LOOP('',(#230,#231,#232,#233));
#52=EDGE_LOOP('',(#234,#235,#236,#237));
#53=EDGE_LOOP('',(#238,#239,#240,#241));
#54=EDGE_LOOP('',(#242,#243,#244,#245));
#55=EDGE_LOOP('',(#246,#247,#248,#249,#250,#251,#252,#253));
#56=EDGE_LOOP('',(#254,#255,#256,#257));
#57=EDGE_LOOP('',(#258));
#58=LINE('',#438,#77);
#59=LINE('',#441,#78);
#60=LINE('',#444,#79);
#61=LINE('',#452,#80);
#62=LINE('',#455,#81);
#63=LINE('',#468,#82);
#64=LINE('',#469,#83);
#65=LINE('',#473,#84);
#66=LINE('',#476,#85);
#67=LINE('',#479,#86);
#68=LINE('',#483,#87);
#69=LINE('',#487,#88);
#70=LINE('',#492,#89);
#71=LINE('',#495,#90);
#72=LINE('',#498,#91);
#73=LINE('',#499,#92);
#74=LINE('',#503,#93);
#75=LINE('',#505,#94);
#76=LINE('',#509,#95);
#77=VECTOR('',#347,0.393700787401575);
#78=VECTOR('',#350,0.393700787401575);
#79=VECTOR('',#353,0.393700787401575);
#80=VECTOR('',#360,0.393700787401575);
#81=VECTOR('',#363,0.393700787401575);
#82=VECTOR('',#376,0.393700787401575);
#83=VECTOR('',#377,0.393700787401575);
#84=VECTOR('',#382,0.086);
#85=VECTOR('',#385,0.393700787401575);
#86=VECTOR('',#388,0.393700787401575);
#87=VECTOR('',#393,0.393700787401575);
#88=VECTOR('',#398,0.393700787401575);
#89=VECTOR('',#405,0.393700787401575);
#90=VECTOR('',#408,0.393700787401575);
#91=VECTOR('',#411,0.393700787401575);
#92=VECTOR('',#412,0.393700787401575);
#93=VECTOR('',#417,0.393700787401575);
#94=VECTOR('',#420,0.393700787401575);
#95=VECTOR('',#425,0.393700787401575);
#96=CIRCLE('',#307,0.0393700787401575);
#97=CIRCLE('',#308,0.0393700787401575);
#98=CIRCLE('',#310,3.70175991156448);
#99=CIRCLE('',#311,0.146093922951014);
#100=CIRCLE('',#312,3.9272234407732);
#101=CIRCLE('',#313,0.1875);
#102=CIRCLE('',#314,0.086);
#103=CIRCLE('',#315,0.0859999999999997);
#104=CIRCLE('',#316,3.93385383451549);
#105=CIRCLE('',#317,0.0859999999999996);
#106=CIRCLE('',#318,3.76185383451549);
#107=CIRCLE('',#321,0.086);
#108=CIRCLE('',#323,3.93385383451549);
#109=CIRCLE('',#325,0.0859999999999996);
#110=CIRCLE('',#327,3.76185383451549);
#111=CIRCLE('',#329,0.0859999999999997);
#112=CIRCLE('',#331,3.9272234407732);
#113=CIRCLE('',#334,0.1875);
#114=CIRCLE('',#337,3.70175991156448);
#115=CIRCLE('',#339,0.146093922951014);
#116=VERTEX_POINT('',#434);
#117=VERTEX_POINT('',#435);
#118=VERTEX_POINT('',#437);
#119=VERTEX_POINT('',#439);
#120=VERTEX_POINT('',#443);
#121=VERTEX_POINT('',#445);
#122=VERTEX_POINT('',#447);
#123=VERTEX_POINT('',#449);
#124=VERTEX_POINT('',#451);
#125=VERTEX_POINT('',#453);
#126=VERTEX_POINT('',#456);
#127=VERTEX_POINT('',#458);
#128=VERTEX_POINT('',#459);
#129=VERTEX_POINT('',#461);
#130=VERTEX_POINT('',#463);
#131=VERTEX_POINT('',#467);
#132=VERTEX_POINT('',#471);
#133=VERTEX_POINT('',#475);
#134=VERTEX_POINT('',#477);
#135=VERTEX_POINT('',#481);
#136=VERTEX_POINT('',#485);
#137=VERTEX_POINT('',#491);
#138=VERTEX_POINT('',#493);
#139=VERTEX_POINT('',#497);
#140=VERTEX_POINT('',#501);
#141=VERTEX_POINT('',#507);
#142=EDGE_CURVE('',#116,#117,#96,.T.);
#143=EDGE_CURVE('',#117,#118,#58,.T.);
#144=EDGE_CURVE('',#118,#119,#97,.T.);
#145=EDGE_CURVE('',#119,#116,#59,.T.);
#146=EDGE_CURVE('',#120,#118,#60,.T.);
#147=EDGE_CURVE('',#121,#120,#98,.T.);
#148=EDGE_CURVE('',#122,#121,#99,.T.);
#149=EDGE_CURVE('',#123,#122,#100,.T.);
#150=EDGE_CURVE('',#124,#123,#61,.T.);
#151=EDGE_CURVE('',#125,#124,#101,.T.);
#152=EDGE_CURVE('',#119,#125,#62,.T.);
#153=EDGE_CURVE('',#126,#126,#102,.T.);
#154=EDGE_CURVE('',#127,#128,#103,.T.);
#155=EDGE_CURVE('',#129,#127,#104,.T.);
#156=EDGE_CURVE('',#130,#129,#105,.T.);
#157=EDGE_CURVE('',#128,#130,#106,.T.);
#158=EDGE_CURVE('',#131,#117,#63,.T.);
#159=EDGE_CURVE('',#120,#131,#64,.T.);
#160=EDGE_CURVE('',#132,#132,#107,.T.);
#161=EDGE_CURVE('',#132,#126,#65,.T.);
#162=EDGE_CURVE('',#127,#133,#66,.T.);
#163=EDGE_CURVE('',#134,#133,#108,.T.);
#164=EDGE_CURVE('',#129,#134,#67,.T.);
#165=EDGE_CURVE('',#135,#134,#109,.T.);
#166=EDGE_CURVE('',#130,#135,#68,.T.);
#167=EDGE_CURVE('',#136,#135,#110,.T.);
#168=EDGE_CURVE('',#128,#136,#69,.T.);
#169=EDGE_CURVE('',#133,#136,#111,.T.);
#170=EDGE_CURVE('',#122,#137,#70,.T.);
#171=EDGE_CURVE('',#138,#137,#112,.T.);
#172=EDGE_CURVE('',#123,#138,#71,.T.);
#173=EDGE_CURVE('',#139,#138,#72,.T.);
#174=EDGE_CURVE('',#124,#139,#73,.T.);
#175=EDGE_CURVE('',#140,#139,#113,.T.);
#176=EDGE_CURVE('',#125,#140,#74,.T.);
#177=EDGE_CURVE('',#116,#140,#75,.T.);
#178=EDGE_CURVE('',#141,#131,#114,.T.);
#179=EDGE_CURVE('',#121,#141,#76,.T.);
#180=EDGE_CURVE('',#137,#141,#115,.T.);
#181=ORIENTED_EDGE('',*,*,#142,.T.);
#182=ORIENTED_EDGE('',*,*,#143,.T.);
#183=ORIENTED_EDGE('',*,*,#144,.T.);
#184=ORIENTED_EDGE('',*,*,#145,.T.);
#185=ORIENTED_EDGE('',*,*,#144,.F.);
#186=ORIENTED_EDGE('',*,*,#146,.F.);
#187=ORIENTED_EDGE('',*,*,#147,.F.);
#188=ORIENTED_EDGE('',*,*,#148,.F.);
#189=ORIENTED_EDGE('',*,*,#149,.F.);
#190=ORIENTED_EDGE('',*,*,#150,.F.);
#191=ORIENTED_EDGE('',*,*,#151,.F.);
#192=ORIENTED_EDGE('',*,*,#152,.F.);
#193=ORIENTED_EDGE('',*,*,#153,.F.);
#194=ORIENTED_EDGE('',*,*,#154,.F.);
#195=ORIENTED_EDGE('',*,*,#155,.F.);
#196=ORIENTED_EDGE('',*,*,#156,.F.);
#197=ORIENTED_EDGE('',*,*,#157,.F.);
#198=ORIENTED_EDGE('',*,*,#143,.F.);
#199=ORIENTED_EDGE('',*,*,#158,.F.);
#200=ORIENTED_EDGE('',*,*,#159,.F.);
#201=ORIENTED_EDGE('',*,*,#146,.T.);
#202=ORIENTED_EDGE('',*,*,#160,.F.);
#203=ORIENTED_EDGE('',*,*,#161,.T.);
#204=ORIENTED_EDGE('',*,*,#153,.T.);
#205=ORIENTED_EDGE('',*,*,#161,.F.);
#206=ORIENTED_EDGE('',*,*,#155,.T.);
#207=ORIENTED_EDGE('',*,*,#162,.T.);
#208=ORIENTED_EDGE('',*,*,#163,.F.);
#209=ORIENTED_EDGE('',*,*,#164,.F.);
#210=ORIENTED_EDGE('',*,*,#156,.T.);
#211=ORIENTED_EDGE('',*,*,#164,.T.);
#212=ORIENTED_EDGE('',*,*,#165,.F.);
#213=ORIENTED_EDGE('',*,*,#166,.F.);
#214=ORIENTED_EDGE('',*,*,#157,.T.);
#215=ORIENTED_EDGE('',*,*,#166,.T.);
#216=ORIENTED_EDGE('',*,*,#167,.F.);
#217=ORIENTED_EDGE('',*,*,#168,.F.);
#218=ORIENTED_EDGE('',*,*,#154,.T.);
#219=ORIENTED_EDGE('',*,*,#168,.T.);
#220=ORIENTED_EDGE('',*,*,#169,.F.);
#221=ORIENTED_EDGE('',*,*,#162,.F.);
#222=ORIENTED_EDGE('',*,*,#149,.T.);
#223=ORIENTED_EDGE('',*,*,#170,.T.);
#224=ORIENTED_EDGE('',*,*,#171,.F.);
#225=ORIENTED_EDGE('',*,*,#172,.F.);
#226=ORIENTED_EDGE('',*,*,#150,.T.);
#227=ORIENTED_EDGE('',*,*,#172,.T.);
#228=ORIENTED_EDGE('',*,*,#173,.F.);
#229=ORIENTED_EDGE('',*,*,#174,.F.);
#230=ORIENTED_EDGE('',*,*,#151,.T.);
#231=ORIENTED_EDGE('',*,*,#174,.T.);
#232=ORIENTED_EDGE('',*,*,#175,.F.);
#233=ORIENTED_EDGE('',*,*,#176,.F.);
#234=ORIENTED_EDGE('',*,*,#145,.F.);
#235=ORIENTED_EDGE('',*,*,#152,.T.);
#236=ORIENTED_EDGE('',*,*,#176,.T.);
#237=ORIENTED_EDGE('',*,*,#177,.F.);
#238=ORIENTED_EDGE('',*,*,#147,.T.);
#239=ORIENTED_EDGE('',*,*,#159,.T.);
#240=ORIENTED_EDGE('',*,*,#178,.F.);
#241=ORIENTED_EDGE('',*,*,#179,.F.);
#242=ORIENTED_EDGE('',*,*,#148,.T.);
#243=ORIENTED_EDGE('',*,*,#179,.T.);
#244=ORIENTED_EDGE('',*,*,#180,.F.);
#245=ORIENTED_EDGE('',*,*,#170,.F.);
#246=ORIENTED_EDGE('',*,*,#142,.F.);
#247=ORIENTED_EDGE('',*,*,#177,.T.);
#248=ORIENTED_EDGE('',*,*,#175,.T.);
#249=ORIENTED_EDGE('',*,*,#173,.T.);
#250=ORIENTED_EDGE('',*,*,#171,.T.);
#251=ORIENTED_EDGE('',*,*,#180,.T.);
#252=ORIENTED_EDGE('',*,*,#178,.T.);
#253=ORIENTED_EDGE('',*,*,#158,.T.);
#254=ORIENTED_EDGE('',*,*,#169,.T.);
#255=ORIENTED_EDGE('',*,*,#167,.T.);
#256=ORIENTED_EDGE('',*,*,#165,.T.);
#257=ORIENTED_EDGE('',*,*,#163,.T.);
#258=ORIENTED_EDGE('',*,*,#160,.T.);
#259=CYLINDRICAL_SURFACE('',#306,0.0393700787401575);
#260=CYLINDRICAL_SURFACE('',#320,0.086);
#261=CYLINDRICAL_SURFACE('',#322,3.93385383451549);
#262=CYLINDRICAL_SURFACE('',#324,0.0859999999999996);
#263=CYLINDRICAL_SURFACE('',#326,3.76185383451549);
#264=CYLINDRICAL_SURFACE('',#328,0.0859999999999997);
#265=CYLINDRICAL_SURFACE('',#330,3.9272234407732);
#266=CYLINDRICAL_SURFACE('',#333,0.1875);
#267=CYLINDRICAL_SURFACE('',#336,3.70175991156448);
#268=CYLINDRICAL_SURFACE('',#338,0.146093922951014);
#269=ADVANCED_FACE('',(#24),#259,.T.);
#270=ADVANCED_FACE('',(#25,#15,#16),#19,.F.);
#271=ADVANCED_FACE('',(#26),#20,.T.);
#272=ADVANCED_FACE('',(#27),#260,.F.);
#273=ADVANCED_FACE('',(#28),#261,.F.);
#274=ADVANCED_FACE('',(#29),#262,.F.);
#275=ADVANCED_FACE('',(#30),#263,.T.);
#276=ADVANCED_FACE('',(#31),#264,.F.);
#277=ADVANCED_FACE('',(#32),#265,.T.);
#278=ADVANCED_FACE('',(#33),#21,.T.);
#279=ADVANCED_FACE('',(#34),#266,.T.);
#280=ADVANCED_FACE('',(#35),#22,.T.);
#281=ADVANCED_FACE('',(#36),#267,.F.);
#282=ADVANCED_FACE('',(#37),#268,.T.);
#283=ADVANCED_FACE('',(#38,#17,#18),#23,.T.);
#284=CLOSED_SHELL('',(#269,#270,#271,#272,#273,#274,#275,#276,#277,#278,
#279,#280,#281,#282,#283));
#285=DERIVED_UNIT_ELEMENT(#287,1.);
#286=DERIVED_UNIT_ELEMENT(#521,-3.);
#287=(
CONVERSION_BASED_UNIT('gram',#289)
MASS_UNIT()
NAMED_UNIT(#518)
);
#288=(
MASS_UNIT()
NAMED_UNIT(*)
SI_UNIT(.KILO.,.GRAM.)
);
#289=MASS_MEASURE_WITH_UNIT(MASS_MEASURE(0.001),#288);
#290=DERIVED_UNIT((#285,#286));
#291=MEASURE_REPRESENTATION_ITEM('density measure',
POSITIVE_RATIO_MEASURE(1.425),#290);
#292=PROPERTY_DEFINITION_REPRESENTATION(#297,#294);
#293=PROPERTY_DEFINITION_REPRESENTATION(#298,#295);
#294=REPRESENTATION('material name',(#296),#515);
#295=REPRESENTATION('density',(#291),#515);
#296=DESCRIPTIVE_REPRESENTATION_ITEM('Acetal Resin, Black',
'Acetal Resin, Black');
#297=PROPERTY_DEFINITION('material property','material name',#529);
#298=PROPERTY_DEFINITION('material property','density of part',#529);
#299=DATE_TIME_ROLE('creation_date');
#300=APPLIED_DATE_AND_TIME_ASSIGNMENT(#301,#299,(#529));
#301=DATE_AND_TIME(#302,#303);
#302=CALENDAR_DATE(2026,4,1);
#303=LOCAL_TIME(0,0,0.,#304);
#304=COORDINATED_UNIVERSAL_TIME_OFFSET(0,0,.BEHIND.);
#305=AXIS2_PLACEMENT_3D('',#432,#341,#342);
#306=AXIS2_PLACEMENT_3D('',#433,#343,#344);
#307=AXIS2_PLACEMENT_3D('',#436,#345,#346);
#308=AXIS2_PLACEMENT_3D('',#440,#348,#349);
#309=AXIS2_PLACEMENT_3D('',#442,#351,#352);
#310=AXIS2_PLACEMENT_3D('',#446,#354,#355);
#311=AXIS2_PLACEMENT_3D('',#448,#356,#357);
#312=AXIS2_PLACEMENT_3D('',#450,#358,#359);
#313=AXIS2_PLACEMENT_3D('',#454,#361,#362);
#314=AXIS2_PLACEMENT_3D('',#457,#364,#365);
#315=AXIS2_PLACEMENT_3D('',#460,#366,#367);
#316=AXIS2_PLACEMENT_3D('',#462,#368,#369);
#317=AXIS2_PLACEMENT_3D('',#464,#370,#371);
#318=AXIS2_PLACEMENT_3D('',#465,#372,#373);
#319=AXIS2_PLACEMENT_3D('',#466,#374,#375);
#320=AXIS2_PLACEMENT_3D('',#470,#378,#379);
#321=AXIS2_PLACEMENT_3D('',#472,#380,#381);
#322=AXIS2_PLACEMENT_3D('',#474,#383,#384);
#323=AXIS2_PLACEMENT_3D('',#478,#386,#387);
#324=AXIS2_PLACEMENT_3D('',#480,#389,#390);
#325=AXIS2_PLACEMENT_3D('',#482,#391,#392);
#326=AXIS2_PLACEMENT_3D('',#484,#394,#395);
#327=AXIS2_PLACEMENT_3D('',#486,#396,#397);
#328=AXIS2_PLACEMENT_3D('',#488,#399,#400);
#329=AXIS2_PLACEMENT_3D('',#489,#401,#402);
#330=AXIS2_PLACEMENT_3D('',#490,#403,#404);
#331=AXIS2_PLACEMENT_3D('',#494,#406,#407);
#332=AXIS2_PLACEMENT_3D('',#496,#409,#410);
#333=AXIS2_PLACEMENT_3D('',#500,#413,#414);
#334=AXIS2_PLACEMENT_3D('',#502,#415,#416);
#335=AXIS2_PLACEMENT_3D('',#504,#418,#419);
#336=AXIS2_PLACEMENT_3D('',#506,#421,#422);
#337=AXIS2_PLACEMENT_3D('',#508,#423,#424);
#338=AXIS2_PLACEMENT_3D('',#510,#426,#427);
#339=AXIS2_PLACEMENT_3D('',#511,#428,#429);
#340=AXIS2_PLACEMENT_3D('',#512,#430,#431);
#341=DIRECTION('axis',(0.,0.,1.));
#342=DIRECTION('refdir',(1.,0.,0.));
#343=DIRECTION('center_axis',(0.,0.,1.));
#344=DIRECTION('ref_axis',(-0.668168889985192,-0.744009633308572,0.));
#345=DIRECTION('center_axis',(0.,0.,-1.));
#346=DIRECTION('ref_axis',(-0.668168889985192,-0.744009633308572,0.));
#347=DIRECTION('',(0.,0.,-1.));
#348=DIRECTION('center_axis',(0.,0.,1.));
#349=DIRECTION('ref_axis',(-0.668168889985192,-0.744009633308572,0.));
#350=DIRECTION('',(0.,0.,1.));
#351=DIRECTION('center_axis',(0.,0.,1.));
#352=DIRECTION('ref_axis',(1.,0.,0.));
#353=DIRECTION('',(-0.217871991623865,-0.975977353869367,0.));
#354=DIRECTION('center_axis',(0.,0.,-1.));
#355=DIRECTION('ref_axis',(-0.987659449886744,0.15661676490534,0.));
#356=DIRECTION('center_axis',(0.,0.,1.));
#357=DIRECTION('ref_axis',(-0.44864929934743,0.893707897578991,0.));
#358=DIRECTION('center_axis',(0.,0.,1.));
#359=DIRECTION('ref_axis',(0.975977353869367,-0.217871991623865,0.));
#360=DIRECTION('',(0.217871991623865,0.975977353869366,0.));
#361=DIRECTION('center_axis',(0.,0.,1.));
#362=DIRECTION('ref_axis',(-0.975977353869367,0.217871991623863,0.));
#363=DIRECTION('',(0.947029473378201,0.321146658947289,0.));
#364=DIRECTION('center_axis',(0.,0.,-1.));
#365=DIRECTION('ref_axis',(-1.,0.,0.));
#366=DIRECTION('center_axis',(0.,0.,-1.));
#367=DIRECTION('ref_axis',(-0.22488169609404,0.974386074798828,0.));
#368=DIRECTION('center_axis',(0.,0.,-1.));
#369=DIRECTION('ref_axis',(0.224881696094032,-0.97438607479883,0.));
#370=DIRECTION('center_axis',(0.,0.,-1.));
#371=DIRECTION('ref_axis',(-1.,0.,0.));
#372=DIRECTION('center_axis',(0.,0.,1.));
#373=DIRECTION('ref_axis',(-0.224881696094032,0.97438607479883,0.));
#374=DIRECTION('center_axis',(-0.975977353869367,0.217871991623865,0.));
#375=DIRECTION('ref_axis',(-0.217871991623865,-0.975977353869367,0.));
#376=DIRECTION('',(-0.217871991623865,-0.975977353869367,0.));
#377=DIRECTION('',(0.,0.,1.));
#378=DIRECTION('center_axis',(0.,0.,1.));
#379=DIRECTION('ref_axis',(-1.,0.,0.));
#380=DIRECTION('center_axis',(0.,0.,-1.));
#381=DIRECTION('ref_axis',(-1.,0.,0.));
#382=DIRECTION('',(0.,0.,-1.));
#383=DIRECTION('center_axis',(0.,0.,1.));
#384=DIRECTION('ref_axis',(0.224881696094032,-0.97438607479883,0.));
#385=DIRECTION('',(0.,0.,1.));
#386=DIRECTION('center_axis',(0.,0.,-1.));
#387=DIRECTION('ref_axis',(0.224881696094032,-0.97438607479883,0.));
#388=DIRECTION('',(0.,0.,1.));
#389=DIRECTION('center_axis',(0.,0.,1.));
#390=DIRECTION('ref_axis',(-1.,0.,0.));
#391=DIRECTION('center_axis',(0.,0.,-1.));
#392=DIRECTION('ref_axis',(-1.,0.,0.));
#393=DIRECTION('',(0.,0.,1.));
#394=DIRECTION('center_axis',(0.,0.,1.));
#395=DIRECTION('ref_axis',(-0.224881696094032,0.97438607479883,0.));
#396=DIRECTION('center_axis',(0.,0.,1.));
#397=DIRECTION('ref_axis',(-0.224881696094032,0.97438607479883,0.));
#398=DIRECTION('',(0.,0.,1.));
#399=DIRECTION('center_axis',(0.,0.,1.));
#400=DIRECTION('ref_axis',(-0.22488169609404,0.974386074798828,0.));
#401=DIRECTION('center_axis',(0.,0.,-1.));
#402=DIRECTION('ref_axis',(-0.22488169609404,0.974386074798828,0.));
#403=DIRECTION('center_axis',(0.,0.,1.));
#404=DIRECTION('ref_axis',(0.975977353869367,-0.217871991623865,0.));
#405=DIRECTION('',(0.,0.,1.));
#406=DIRECTION('center_axis',(0.,0.,1.));
#407=DIRECTION('ref_axis',(0.975977353869367,-0.217871991623865,0.));
#408=DIRECTION('',(0.,0.,1.));
#409=DIRECTION('center_axis',(0.975977353869367,-0.217871991623865,0.));
#410=DIRECTION('ref_axis',(0.217871991623865,0.975977353869366,0.));
#411=DIRECTION('',(0.217871991623865,0.975977353869366,0.));
#412=DIRECTION('',(0.,0.,1.));
#413=DIRECTION('center_axis',(0.,0.,1.));
#414=DIRECTION('ref_axis',(-0.975977353869367,0.217871991623863,0.));
#415=DIRECTION('center_axis',(0.,0.,1.));
#416=DIRECTION('ref_axis',(-0.975977353869367,0.217871991623863,0.));
#417=DIRECTION('',(0.,0.,1.));
#418=DIRECTION('center_axis',(0.321146658947289,-0.947029473378201,0.));
#419=DIRECTION('ref_axis',(0.947029473378201,0.321146658947289,0.));
#420=DIRECTION('',(0.947029473378201,0.321146658947289,0.));
#421=DIRECTION('center_axis',(0.,0.,1.));
#422=DIRECTION('ref_axis',(-0.987659449886744,0.15661676490534,0.));
#423=DIRECTION('center_axis',(0.,0.,-1.));
#424=DIRECTION('ref_axis',(-0.987659449886744,0.15661676490534,0.));
#425=DIRECTION('',(0.,0.,1.));
#426=DIRECTION('center_axis',(0.,0.,1.));
#427=DIRECTION('ref_axis',(-0.44864929934743,0.893707897578991,0.));
#428=DIRECTION('center_axis',(0.,0.,1.));
#429=DIRECTION('ref_axis',(-0.44864929934743,0.893707897578991,0.));
#430=DIRECTION('center_axis',(0.,0.,1.));
#431=DIRECTION('ref_axis',(1.,0.,0.));
#432=CARTESIAN_POINT('',(0.,0.,0.));
#433=CARTESIAN_POINT('Origin',(5.97760998750651,4.03932885527145,0.));
#434=CARTESIAN_POINT('',(5.99025355675641,4.0020442303353,0.3));
#435=CARTESIAN_POINT('',(5.93918568223607,4.04790649273696,0.3));
#436=CARTESIAN_POINT('Origin',(5.97760998750651,4.03932885527145,0.3));
#437=CARTESIAN_POINT('',(5.93918568223607,4.04790649273696,0.));
#438=CARTESIAN_POINT('',(5.93918568223607,4.04790649273696,0.));
#439=CARTESIAN_POINT('',(5.99025355675641,4.0020442303353,0.));
#440=CARTESIAN_POINT('Origin',(5.97760998750651,4.03932885527145,0.));
#441=CARTESIAN_POINT('',(5.99025355675641,4.0020442303353,0.));
#442=CARTESIAN_POINT('Origin',(4.32874822498008,8.18796550815236,0.));
#443=CARTESIAN_POINT('',(6.76155395884903,7.73177980078689,0.));
#444=CARTESIAN_POINT('',(6.76155395884903,7.73177980078689,0.));
#445=CARTESIAN_POINT('',(1.64752259761263,11.7140951622729,0.));
#446=CARTESIAN_POINT('Origin',(3.10547580098046,8.3115374625924,0.));
#447=CARTESIAN_POINT('',(1.52443797544169,11.9789460419367,0.));
#448=CARTESIAN_POINT('Origin',(1.58998291161258,11.848380749207,0.));
#449=CARTESIAN_POINT('',(7.11926516230497,7.61352344476712,0.));
#450=CARTESIAN_POINT('Origin',(3.28638402052539,8.4691554373603,0.));
#451=CARTESIAN_POINT('',(6.36103074431826,4.21694357525859,0.));
#452=CARTESIAN_POINT('',(6.36103074431826,4.21694357525859,0.));
#453=CARTESIAN_POINT('',(6.23980865700293,4.08667072710265,0.));
#454=CARTESIAN_POINT('Origin',(6.17959365845031,4.26423875336106,0.));
#455=CARTESIAN_POINT('',(5.92392661981381,3.97955213817122,0.));
#456=CARTESIAN_POINT('',(6.26559365845031,4.26423875336106,0.));
#457=CARTESIAN_POINT('Origin',(6.17959365845031,4.26423875336106,0.));
#458=CARTESIAN_POINT('',(2.2208240784886,12.1446298592383,0.));
#459=CARTESIAN_POINT('',(2.25950373021677,11.9770354543729,0.));
#460=CARTESIAN_POINT('Origin',(2.24016390435269,12.0608326568056,0.));
#461=CARTESIAN_POINT('',(1.55611146168469,11.9274296257315,0.));
#462=CARTESIAN_POINT('Origin',(3.10547580098046,8.3115374625924,0.));
#463=CARTESIAN_POINT('',(1.62385436154047,11.7693318726826,0.));
#464=CARTESIAN_POINT('Origin',(1.58998291161258,11.848380749207,0.));
#465=CARTESIAN_POINT('Origin',(3.10547580098046,8.3115374625924,0.));
#466=CARTESIAN_POINT('Origin',(6.76155395884903,7.73177980078689,0.));
#467=CARTESIAN_POINT('',(6.76155395884903,7.73177980078689,0.3));
#468=CARTESIAN_POINT('',(6.76155395884903,7.73177980078689,0.3));
#469=CARTESIAN_POINT('',(6.76155395884903,7.73177980078689,0.));
#470=CARTESIAN_POINT('Origin',(6.17959365845031,4.26423875336106,0.));
#471=CARTESIAN_POINT('',(6.26559365845031,4.26423875336106,0.3));
#472=CARTESIAN_POINT('Origin',(6.17959365845031,4.26423875336106,0.3));
#473=CARTESIAN_POINT('',(6.26559365845031,4.26423875336106,0.));
#474=CARTESIAN_POINT('Origin',(3.10547580098046,8.3115374625924,0.));
#475=CARTESIAN_POINT('',(2.2208240784886,12.1446298592383,0.3));
#476=CARTESIAN_POINT('',(2.2208240784886,12.1446298592383,0.));
#477=CARTESIAN_POINT('',(1.55611146168469,11.9274296257315,0.3));
#478=CARTESIAN_POINT('Origin',(3.10547580098046,8.3115374625924,0.3));
#479=CARTESIAN_POINT('',(1.55611146168469,11.9274296257315,0.));
#480=CARTESIAN_POINT('Origin',(1.58998291161258,11.848380749207,0.));
#481=CARTESIAN_POINT('',(1.62385436154047,11.7693318726826,0.3));
#482=CARTESIAN_POINT('Origin',(1.58998291161258,11.848380749207,0.3));
#483=CARTESIAN_POINT('',(1.62385436154047,11.7693318726826,0.));
#484=CARTESIAN_POINT('Origin',(3.10547580098046,8.3115374625924,0.));
#485=CARTESIAN_POINT('',(2.25950373021677,11.9770354543729,0.3));
#486=CARTESIAN_POINT('Origin',(3.10547580098046,8.3115374625924,0.3));
#487=CARTESIAN_POINT('',(2.25950373021677,11.9770354543729,0.));
#488=CARTESIAN_POINT('Origin',(2.24016390435269,12.0608326568056,0.));
#489=CARTESIAN_POINT('Origin',(2.24016390435269,12.0608326568056,0.3));
#490=CARTESIAN_POINT('Origin',(3.28638402052539,8.4691554373603,0.));
#491=CARTESIAN_POINT('',(1.52443797544169,11.9789460419367,0.3));
#492=CARTESIAN_POINT('',(1.52443797544169,11.9789460419367,0.));
#493=CARTESIAN_POINT('',(7.11926516230497,7.61352344476712,0.3));
#494=CARTESIAN_POINT('Origin',(3.28638402052539,8.4691554373603,0.3));
#495=CARTESIAN_POINT('',(7.11926516230497,7.61352344476712,0.));
#496=CARTESIAN_POINT('Origin',(6.36103074431826,4.21694357525859,0.));
#497=CARTESIAN_POINT('',(6.36103074431826,4.21694357525858,0.3));
#498=CARTESIAN_POINT('',(6.36103074431826,4.21694357525859,0.3));
#499=CARTESIAN_POINT('',(6.36103074431826,4.21694357525859,0.));
#500=CARTESIAN_POINT('Origin',(6.17959365845031,4.26423875336106,0.));
#501=CARTESIAN_POINT('',(6.23980865700293,4.08667072710265,0.3));
#502=CARTESIAN_POINT('Origin',(6.17959365845031,4.26423875336106,0.3));
#503=CARTESIAN_POINT('',(6.23980865700293,4.08667072710265,0.));
#504=CARTESIAN_POINT('Origin',(5.92392661981381,3.97955213817122,0.));
#505=CARTESIAN_POINT('',(5.92392661981381,3.97955213817122,0.3));
#506=CARTESIAN_POINT('Origin',(3.10547580098046,8.3115374625924,0.));
#507=CARTESIAN_POINT('',(1.64752259761263,11.7140951622729,0.3));
#508=CARTESIAN_POINT('Origin',(3.10547580098046,8.3115374625924,0.3));
#509=CARTESIAN_POINT('',(1.64752259761263,11.7140951622729,0.));
#510=CARTESIAN_POINT('Origin',(1.58998291161258,11.848380749207,0.));
#511=CARTESIAN_POINT('Origin',(1.58998291161258,11.848380749207,0.3));
#512=CARTESIAN_POINT('Origin',(4.32874822498008,8.18796550815236,0.3));
#513=UNCERTAINTY_MEASURE_WITH_UNIT(LENGTH_MEASURE(0.000393700787401575),
#519,'DISTANCE_ACCURACY_VALUE',
'Maximum model space distance between geometric entities at asserted c
onnectivities');
#514=UNCERTAINTY_MEASURE_WITH_UNIT(LENGTH_MEASURE(0.000393700787401575),
#519,'DISTANCE_ACCURACY_VALUE',
'Maximum model space distance between geometric entities at asserted c
onnectivities');
#515=(
GEOMETRIC_REPRESENTATION_CONTEXT(3)
GLOBAL_UNCERTAINTY_ASSIGNED_CONTEXT((#513))
GLOBAL_UNIT_ASSIGNED_CONTEXT((#519,#523,#524))
REPRESENTATION_CONTEXT('','3D')
);
#516=(
GEOMETRIC_REPRESENTATION_CONTEXT(3)
GLOBAL_UNCERTAINTY_ASSIGNED_CONTEXT((#514))
GLOBAL_UNIT_ASSIGNED_CONTEXT((#519,#523,#524))
REPRESENTATION_CONTEXT('','3D')
);
#517=DIMENSIONAL_EXPONENTS(1.,0.,0.,0.,0.,0.,0.);
#518=DIMENSIONAL_EXPONENTS(0.,1.,0.,0.,0.,0.,0.);
#519=(
CONVERSION_BASED_UNIT('inch',#522)
LENGTH_UNIT()
NAMED_UNIT(#517)
);
#520=(
LENGTH_UNIT()
NAMED_UNIT(*)
SI_UNIT(.MILLI.,.METRE.)
);
#521=(
LENGTH_UNIT()
NAMED_UNIT(*)
SI_UNIT(.CENTI.,.METRE.)
);
#522=LENGTH_MEASURE_WITH_UNIT(LENGTH_MEASURE(25.4),#520);
#523=(
NAMED_UNIT(*)
PLANE_ANGLE_UNIT()
SI_UNIT($,.RADIAN.)
);
#524=(
NAMED_UNIT(*)
SI_UNIT($,.STERADIAN.)
SOLID_ANGLE_UNIT()
);
#525=SHAPE_DEFINITION_REPRESENTATION(#526,#527);
#526=PRODUCT_DEFINITION_SHAPE('',$,#529);
#527=SHAPE_REPRESENTATION('',(#305),#515);
#528=PRODUCT_DEFINITION_CONTEXT('part definition',#533,'design');
#529=PRODUCT_DEFINITION('front rails','front rails',#530,#528);
#530=PRODUCT_DEFINITION_FORMATION('',$,#535);
#531=PRODUCT_RELATED_PRODUCT_CATEGORY('front rails','front rails',(#535));
#532=APPLICATION_PROTOCOL_DEFINITION('international standard',
'automotive_design',2009,#533);
#533=APPLICATION_CONTEXT(
'Core Data for Automotive Mechanical Design Process');
#534=PRODUCT_CONTEXT('part definition',#533,'mechanical');
#535=PRODUCT('front rails','front rails',$,(#534));
#536=PRESENTATION_STYLE_ASSIGNMENT((#537));
#537=SURFACE_STYLE_USAGE(.BOTH.,#540);
#538=SURFACE_STYLE_RENDERING_WITH_PROPERTIES($,#544,(#539));
#539=SURFACE_STYLE_TRANSPARENT(0.);
#540=SURFACE_SIDE_STYLE('',(#541,#538));
#541=SURFACE_STYLE_FILL_AREA(#542);
#542=FILL_AREA_STYLE('',(#543));
#543=FILL_AREA_STYLE_COLOUR('',#544);
#544=COLOUR_RGB('',0.0196078431372549,0.0196078431372549,0.0196078431372549);
ENDSEC;
END-ISO-10303-21;
