ISO-10303-21;
HEADER;
/* Generated by software containing ST-Developer
 * from STEP Tools, Inc. (www.steptools.com) 
 */

FILE_DESCRIPTION(
/* description */ (''),
/* implementation_level */ '2;1');

FILE_NAME(
/* name */ 'brace.stp',
/* time_stamp */ '2026-01-12T23:11:28+13:00',
/* author */ ('cloudy'),
/* organization */ (''),
/* preprocessor_version */ 'ST-DEVELOPER v20',
/* originating_system */ 'Autodesk Inventor 2025',
/* authorisation */ '');

FILE_SCHEMA (('AUTOMOTIVE_DESIGN { 1 0 10303 214 3 1 1 }'));
ENDSEC;

DATA;
#10=MECHANICAL_DESIGN_GEOMETRIC_PRESENTATION_REPRESENTATION('',(#13),#623);
#11=SHAPE_REPRESENTATION_RELATIONSHIP('SRR','None',#634,#12);
#12=ADVANCED_BREP_SHAPE_REPRESENTATION('',(#14),#622);
#13=STYLED_ITEM('',(#643),#14);
#14=MANIFOLD_SOLID_BREP('Solid1',#355);
#15=FACE_BOUND('',#66,.T.);
#16=FACE_BOUND('',#67,.T.);
#17=FACE_BOUND('',#68,.T.);
#18=FACE_BOUND('',#69,.T.);
#19=FACE_BOUND('',#71,.T.);
#20=FACE_BOUND('',#72,.T.);
#21=FACE_BOUND('',#73,.T.);
#22=FACE_BOUND('',#74,.T.);
#23=PLANE('',#392);
#24=PLANE('',#396);
#25=PLANE('',#400);
#26=PLANE('',#404);
#27=PLANE('',#408);
#28=PLANE('',#412);
#29=PLANE('',#413);
#30=PLANE('',#414);
#31=FACE_OUTER_BOUND('',#49,.T.);
#32=FACE_OUTER_BOUND('',#50,.T.);
#33=FACE_OUTER_BOUND('',#51,.T.);
#34=FACE_OUTER_BOUND('',#52,.T.);
#35=FACE_OUTER_BOUND('',#53,.T.);
#36=FACE_OUTER_BOUND('',#54,.T.);
#37=FACE_OUTER_BOUND('',#55,.T.);
#38=FACE_OUTER_BOUND('',#56,.T.);
#39=FACE_OUTER_BOUND('',#57,.T.);
#40=FACE_OUTER_BOUND('',#58,.T.);
#41=FACE_OUTER_BOUND('',#59,.T.);
#42=FACE_OUTER_BOUND('',#60,.T.);
#43=FACE_OUTER_BOUND('',#61,.T.);
#44=FACE_OUTER_BOUND('',#62,.T.);
#45=FACE_OUTER_BOUND('',#63,.T.);
#46=FACE_OUTER_BOUND('',#64,.T.);
#47=FACE_OUTER_BOUND('',#65,.T.);
#48=FACE_OUTER_BOUND('',#70,.T.);
#49=EDGE_LOOP('',(#231,#232,#233,#234));
#50=EDGE_LOOP('',(#235,#236,#237,#238));
#51=EDGE_LOOP('',(#239,#240,#241,#242));
#52=EDGE_LOOP('',(#243,#244,#245,#246));
#53=EDGE_LOOP('',(#247,#248,#249,#250));
#54=EDGE_LOOP('',(#251,#252,#253,#254));
#55=EDGE_LOOP('',(#255,#256,#257,#258));
#56=EDGE_LOOP('',(#259,#260,#261,#262));
#57=EDGE_LOOP('',(#263,#264,#265,#266));
#58=EDGE_LOOP('',(#267,#268,#269,#270));
#59=EDGE_LOOP('',(#271,#272,#273,#274));
#60=EDGE_LOOP('',(#275,#276,#277,#278));
#61=EDGE_LOOP('',(#279,#280,#281,#282));
#62=EDGE_LOOP('',(#283,#284,#285,#286));
#63=EDGE_LOOP('',(#287,#288,#289,#290));
#64=EDGE_LOOP('',(#291,#292,#293,#294));
#65=EDGE_LOOP('',(#295,#296,#297,#298,#299,#300,#301,#302,#303,#304,#305,
#306));
#66=EDGE_LOOP('',(#307));
#67=EDGE_LOOP('',(#308));
#68=EDGE_LOOP('',(#309));
#69=EDGE_LOOP('',(#310));
#70=EDGE_LOOP('',(#311,#312,#313,#314,#315,#316,#317,#318,#319,#320,#321,
#322));
#71=EDGE_LOOP('',(#323));
#72=EDGE_LOOP('',(#324));
#73=EDGE_LOOP('',(#325));
#74=EDGE_LOOP('',(#326));
#75=LINE('',#526,#103);
#76=LINE('',#532,#104);
#77=LINE('',#538,#105);
#78=LINE('',#544,#106);
#79=LINE('',#551,#107);
#80=LINE('',#554,#108);
#81=LINE('',#557,#109);
#82=LINE('',#559,#110);
#83=LINE('',#560,#111);
#84=LINE('',#566,#112);
#85=LINE('',#569,#113);
#86=LINE('',#571,#114);
#87=LINE('',#572,#115);
#88=LINE('',#578,#116);
#89=LINE('',#581,#117);
#90=LINE('',#583,#118);
#91=LINE('',#584,#119);
#92=LINE('',#590,#120);
#93=LINE('',#593,#121);
#94=LINE('',#595,#122);
#95=LINE('',#596,#123);
#96=LINE('',#602,#124);
#97=LINE('',#605,#125);
#98=LINE('',#607,#126);
#99=LINE('',#608,#127);
#100=LINE('',#614,#128);
#101=LINE('',#616,#129);
#102=LINE('',#617,#130);
#103=VECTOR('',#421,0.086);
#104=VECTOR('',#428,0.0859999999999997);
#105=VECTOR('',#435,0.0859999999999997);
#106=VECTOR('',#442,0.086);
#107=VECTOR('',#449,0.393700787401575);
#108=VECTOR('',#452,0.393700787401575);
#109=VECTOR('',#455,0.393700787401575);
#110=VECTOR('',#456,0.393700787401575);
#111=VECTOR('',#457,0.393700787401575);
#112=VECTOR('',#464,0.393700787401575);
#113=VECTOR('',#467,0.393700787401575);
#114=VECTOR('',#468,0.393700787401575);
#115=VECTOR('',#469,0.393700787401575);
#116=VECTOR('',#476,0.393700787401575);
#117=VECTOR('',#479,0.393700787401575);
#118=VECTOR('',#480,0.393700787401575);
#119=VECTOR('',#481,0.393700787401575);
#120=VECTOR('',#488,0.393700787401575);
#121=VECTOR('',#491,0.393700787401575);
#122=VECTOR('',#492,0.393700787401575);
#123=VECTOR('',#493,0.393700787401575);
#124=VECTOR('',#500,0.393700787401575);
#125=VECTOR('',#503,0.393700787401575);
#126=VECTOR('',#504,0.393700787401575);
#127=VECTOR('',#505,0.393700787401575);
#128=VECTOR('',#512,0.393700787401575);
#129=VECTOR('',#515,0.393700787401575);
#130=VECTOR('',#516,0.393700787401575);
#131=CIRCLE('',#378,0.086);
#132=CIRCLE('',#379,0.086);
#133=CIRCLE('',#381,0.0859999999999997);
#134=CIRCLE('',#382,0.0859999999999997);
#135=CIRCLE('',#384,0.0859999999999997);
#136=CIRCLE('',#385,0.0859999999999997);
#137=CIRCLE('',#387,0.086);
#138=CIRCLE('',#388,0.086);
#139=CIRCLE('',#390,0.175);
#140=CIRCLE('',#391,0.175);
#141=CIRCLE('',#394,0.175);
#142=CIRCLE('',#395,0.175);
#143=CIRCLE('',#398,0.125000000000002);
#144=CIRCLE('',#399,0.125000000000002);
#145=CIRCLE('',#402,0.124999999999998);
#146=CIRCLE('',#403,0.124999999999998);
#147=CIRCLE('',#406,0.175);
#148=CIRCLE('',#407,0.175);
#149=CIRCLE('',#410,0.175);
#150=CIRCLE('',#411,0.175);
#151=VERTEX_POINT('',#523);
#152=VERTEX_POINT('',#525);
#153=VERTEX_POINT('',#529);
#154=VERTEX_POINT('',#531);
#155=VERTEX_POINT('',#535);
#156=VERTEX_POINT('',#537);
#157=VERTEX_POINT('',#541);
#158=VERTEX_POINT('',#543);
#159=VERTEX_POINT('',#547);
#160=VERTEX_POINT('',#548);
#161=VERTEX_POINT('',#550);
#162=VERTEX_POINT('',#552);
#163=VERTEX_POINT('',#556);
#164=VERTEX_POINT('',#558);
#165=VERTEX_POINT('',#562);
#166=VERTEX_POINT('',#564);
#167=VERTEX_POINT('',#568);
#168=VERTEX_POINT('',#570);
#169=VERTEX_POINT('',#574);
#170=VERTEX_POINT('',#576);
#171=VERTEX_POINT('',#580);
#172=VERTEX_POINT('',#582);
#173=VERTEX_POINT('',#586);
#174=VERTEX_POINT('',#588);
#175=VERTEX_POINT('',#592);
#176=VERTEX_POINT('',#594);
#177=VERTEX_POINT('',#598);
#178=VERTEX_POINT('',#600);
#179=VERTEX_POINT('',#604);
#180=VERTEX_POINT('',#606);
#181=VERTEX_POINT('',#610);
#182=VERTEX_POINT('',#612);
#183=EDGE_CURVE('',#151,#151,#131,.T.);
#184=EDGE_CURVE('',#151,#152,#75,.T.);
#185=EDGE_CURVE('',#152,#152,#132,.T.);
#186=EDGE_CURVE('',#153,#153,#133,.T.);
#187=EDGE_CURVE('',#153,#154,#76,.T.);
#188=EDGE_CURVE('',#154,#154,#134,.T.);
#189=EDGE_CURVE('',#155,#155,#135,.T.);
#190=EDGE_CURVE('',#155,#156,#77,.T.);
#191=EDGE_CURVE('',#156,#156,#136,.T.);
#192=EDGE_CURVE('',#157,#157,#137,.T.);
#193=EDGE_CURVE('',#157,#158,#78,.T.);
#194=EDGE_CURVE('',#158,#158,#138,.T.);
#195=EDGE_CURVE('',#159,#160,#139,.T.);
#196=EDGE_CURVE('',#160,#161,#79,.T.);
#197=EDGE_CURVE('',#162,#161,#140,.T.);
#198=EDGE_CURVE('',#159,#162,#80,.T.);
#199=EDGE_CURVE('',#163,#159,#81,.T.);
#200=EDGE_CURVE('',#164,#162,#82,.T.);
#201=EDGE_CURVE('',#163,#164,#83,.T.);
#202=EDGE_CURVE('',#165,#163,#141,.T.);
#203=EDGE_CURVE('',#166,#164,#142,.T.);
#204=EDGE_CURVE('',#165,#166,#84,.T.);
#205=EDGE_CURVE('',#167,#165,#85,.T.);
#206=EDGE_CURVE('',#168,#166,#86,.T.);
#207=EDGE_CURVE('',#167,#168,#87,.T.);
#208=EDGE_CURVE('',#169,#167,#143,.T.);
#209=EDGE_CURVE('',#170,#168,#144,.T.);
#210=EDGE_CURVE('',#169,#170,#88,.T.);
#211=EDGE_CURVE('',#171,#169,#89,.T.);
#212=EDGE_CURVE('',#172,#170,#90,.T.);
#213=EDGE_CURVE('',#171,#172,#91,.T.);
#214=EDGE_CURVE('',#173,#171,#145,.T.);
#215=EDGE_CURVE('',#174,#172,#146,.T.);
#216=EDGE_CURVE('',#173,#174,#92,.T.);
#217=EDGE_CURVE('',#175,#173,#93,.T.);
#218=EDGE_CURVE('',#176,#174,#94,.T.);
#219=EDGE_CURVE('',#175,#176,#95,.T.);
#220=EDGE_CURVE('',#177,#175,#147,.T.);
#221=EDGE_CURVE('',#178,#176,#148,.T.);
#222=EDGE_CURVE('',#177,#178,#96,.T.);
#223=EDGE_CURVE('',#179,#177,#97,.T.);
#224=EDGE_CURVE('',#180,#178,#98,.T.);
#225=EDGE_CURVE('',#179,#180,#99,.T.);
#226=EDGE_CURVE('',#181,#179,#149,.T.);
#227=EDGE_CURVE('',#182,#180,#150,.T.);
#228=EDGE_CURVE('',#181,#182,#100,.T.);
#229=EDGE_CURVE('',#160,#181,#101,.T.);
#230=EDGE_CURVE('',#161,#182,#102,.T.);
#231=ORIENTED_EDGE('',*,*,#183,.F.);
#232=ORIENTED_EDGE('',*,*,#184,.T.);
#233=ORIENTED_EDGE('',*,*,#185,.T.);
#234=ORIENTED_EDGE('',*,*,#184,.F.);
#235=ORIENTED_EDGE('',*,*,#186,.F.);
#236=ORIENTED_EDGE('',*,*,#187,.T.);
#237=ORIENTED_EDGE('',*,*,#188,.T.);
#238=ORIENTED_EDGE('',*,*,#187,.F.);
#239=ORIENTED_EDGE('',*,*,#189,.F.);
#240=ORIENTED_EDGE('',*,*,#190,.T.);
#241=ORIENTED_EDGE('',*,*,#191,.T.);
#242=ORIENTED_EDGE('',*,*,#190,.F.);
#243=ORIENTED_EDGE('',*,*,#192,.F.);
#244=ORIENTED_EDGE('',*,*,#193,.T.);
#245=ORIENTED_EDGE('',*,*,#194,.T.);
#246=ORIENTED_EDGE('',*,*,#193,.F.);
#247=ORIENTED_EDGE('',*,*,#195,.T.);
#248=ORIENTED_EDGE('',*,*,#196,.T.);
#249=ORIENTED_EDGE('',*,*,#197,.F.);
#250=ORIENTED_EDGE('',*,*,#198,.F.);
#251=ORIENTED_EDGE('',*,*,#199,.T.);
#252=ORIENTED_EDGE('',*,*,#198,.T.);
#253=ORIENTED_EDGE('',*,*,#200,.F.);
#254=ORIENTED_EDGE('',*,*,#201,.F.);
#255=ORIENTED_EDGE('',*,*,#202,.T.);
#256=ORIENTED_EDGE('',*,*,#201,.T.);
#257=ORIENTED_EDGE('',*,*,#203,.F.);
#258=ORIENTED_EDGE('',*,*,#204,.F.);
#259=ORIENTED_EDGE('',*,*,#205,.T.);
#260=ORIENTED_EDGE('',*,*,#204,.T.);
#261=ORIENTED_EDGE('',*,*,#206,.F.);
#262=ORIENTED_EDGE('',*,*,#207,.F.);
#263=ORIENTED_EDGE('',*,*,#208,.T.);
#264=ORIENTED_EDGE('',*,*,#207,.T.);
#265=ORIENTED_EDGE('',*,*,#209,.F.);
#266=ORIENTED_EDGE('',*,*,#210,.F.);
#267=ORIENTED_EDGE('',*,*,#211,.T.);
#268=ORIENTED_EDGE('',*,*,#210,.T.);
#269=ORIENTED_EDGE('',*,*,#212,.F.);
#270=ORIENTED_EDGE('',*,*,#213,.F.);
#271=ORIENTED_EDGE('',*,*,#214,.T.);
#272=ORIENTED_EDGE('',*,*,#213,.T.);
#273=ORIENTED_EDGE('',*,*,#215,.F.);
#274=ORIENTED_EDGE('',*,*,#216,.F.);
#275=ORIENTED_EDGE('',*,*,#217,.T.);
#276=ORIENTED_EDGE('',*,*,#216,.T.);
#277=ORIENTED_EDGE('',*,*,#218,.F.);
#278=ORIENTED_EDGE('',*,*,#219,.F.);
#279=ORIENTED_EDGE('',*,*,#220,.T.);
#280=ORIENTED_EDGE('',*,*,#219,.T.);
#281=ORIENTED_EDGE('',*,*,#221,.F.);
#282=ORIENTED_EDGE('',*,*,#222,.F.);
#283=ORIENTED_EDGE('',*,*,#223,.T.);
#284=ORIENTED_EDGE('',*,*,#222,.T.);
#285=ORIENTED_EDGE('',*,*,#224,.F.);
#286=ORIENTED_EDGE('',*,*,#225,.F.);
#287=ORIENTED_EDGE('',*,*,#226,.T.);
#288=ORIENTED_EDGE('',*,*,#225,.T.);
#289=ORIENTED_EDGE('',*,*,#227,.F.);
#290=ORIENTED_EDGE('',*,*,#228,.F.);
#291=ORIENTED_EDGE('',*,*,#229,.T.);
#292=ORIENTED_EDGE('',*,*,#228,.T.);
#293=ORIENTED_EDGE('',*,*,#230,.F.);
#294=ORIENTED_EDGE('',*,*,#196,.F.);
#295=ORIENTED_EDGE('',*,*,#230,.T.);
#296=ORIENTED_EDGE('',*,*,#227,.T.);
#297=ORIENTED_EDGE('',*,*,#224,.T.);
#298=ORIENTED_EDGE('',*,*,#221,.T.);
#299=ORIENTED_EDGE('',*,*,#218,.T.);
#300=ORIENTED_EDGE('',*,*,#215,.T.);
#301=ORIENTED_EDGE('',*,*,#212,.T.);
#302=ORIENTED_EDGE('',*,*,#209,.T.);
#303=ORIENTED_EDGE('',*,*,#206,.T.);
#304=ORIENTED_EDGE('',*,*,#203,.T.);
#305=ORIENTED_EDGE('',*,*,#200,.T.);
#306=ORIENTED_EDGE('',*,*,#197,.T.);
#307=ORIENTED_EDGE('',*,*,#192,.T.);
#308=ORIENTED_EDGE('',*,*,#189,.T.);
#309=ORIENTED_EDGE('',*,*,#186,.T.);
#310=ORIENTED_EDGE('',*,*,#183,.T.);
#311=ORIENTED_EDGE('',*,*,#229,.F.);
#312=ORIENTED_EDGE('',*,*,#195,.F.);
#313=ORIENTED_EDGE('',*,*,#199,.F.);
#314=ORIENTED_EDGE('',*,*,#202,.F.);
#315=ORIENTED_EDGE('',*,*,#205,.F.);
#316=ORIENTED_EDGE('',*,*,#208,.F.);
#317=ORIENTED_EDGE('',*,*,#211,.F.);
#318=ORIENTED_EDGE('',*,*,#214,.F.);
#319=ORIENTED_EDGE('',*,*,#217,.F.);
#320=ORIENTED_EDGE('',*,*,#220,.F.);
#321=ORIENTED_EDGE('',*,*,#223,.F.);
#322=ORIENTED_EDGE('',*,*,#226,.F.);
#323=ORIENTED_EDGE('',*,*,#194,.F.);
#324=ORIENTED_EDGE('',*,*,#191,.F.);
#325=ORIENTED_EDGE('',*,*,#188,.F.);
#326=ORIENTED_EDGE('',*,*,#185,.F.);
#327=CYLINDRICAL_SURFACE('',#377,0.086);
#328=CYLINDRICAL_SURFACE('',#380,0.0859999999999997);
#329=CYLINDRICAL_SURFACE('',#383,0.0859999999999997);
#330=CYLINDRICAL_SURFACE('',#386,0.086);
#331=CYLINDRICAL_SURFACE('',#389,0.175);
#332=CYLINDRICAL_SURFACE('',#393,0.175);
#333=CYLINDRICAL_SURFACE('',#397,0.125000000000002);
#334=CYLINDRICAL_SURFACE('',#401,0.124999999999998);
#335=CYLINDRICAL_SURFACE('',#405,0.175);
#336=CYLINDRICAL_SURFACE('',#409,0.175);
#337=ADVANCED_FACE('',(#31),#327,.F.);
#338=ADVANCED_FACE('',(#32),#328,.F.);
#339=ADVANCED_FACE('',(#33),#329,.F.);
#340=ADVANCED_FACE('',(#34),#330,.F.);
#341=ADVANCED_FACE('',(#35),#331,.T.);
#342=ADVANCED_FACE('',(#36),#23,.T.);
#343=ADVANCED_FACE('',(#37),#332,.T.);
#344=ADVANCED_FACE('',(#38),#24,.T.);
#345=ADVANCED_FACE('',(#39),#333,.F.);
#346=ADVANCED_FACE('',(#40),#25,.T.);
#347=ADVANCED_FACE('',(#41),#334,.F.);
#348=ADVANCED_FACE('',(#42),#26,.T.);
#349=ADVANCED_FACE('',(#43),#335,.T.);
#350=ADVANCED_FACE('',(#44),#27,.T.);
#351=ADVANCED_FACE('',(#45),#336,.T.);
#352=ADVANCED_FACE('',(#46),#28,.T.);
#353=ADVANCED_FACE('',(#47,#15,#16,#17,#18),#29,.T.);
#354=ADVANCED_FACE('',(#48,#19,#20,#21,#22),#30,.F.);
#355=CLOSED_SHELL('',(#337,#338,#339,#340,#341,#342,#343,#344,#345,#346,
#347,#348,#349,#350,#351,#352,#353,#354));
#356=DERIVED_UNIT_ELEMENT(#358,1.);
#357=DERIVED_UNIT_ELEMENT(#628,-3.);
#358=(
CONVERSION_BASED_UNIT('gram',#360)
MASS_UNIT()
NAMED_UNIT(#625)
);
#359=(
MASS_UNIT()
NAMED_UNIT(*)
SI_UNIT(.KILO.,.GRAM.)
);
#360=MASS_MEASURE_WITH_UNIT(MASS_MEASURE(0.001),#359);
#361=DERIVED_UNIT((#356,#357));
#362=MEASURE_REPRESENTATION_ITEM('density measure',
POSITIVE_RATIO_MEASURE(1.425),#361);
#363=PROPERTY_DEFINITION_REPRESENTATION(#368,#365);
#364=PROPERTY_DEFINITION_REPRESENTATION(#369,#366);
#365=REPRESENTATION('material name',(#367),#622);
#366=REPRESENTATION('density',(#362),#622);
#367=DESCRIPTIVE_REPRESENTATION_ITEM('Acetal Resin, Black',
'Acetal Resin, Black');
#368=PROPERTY_DEFINITION('material property','material name',#636);
#369=PROPERTY_DEFINITION('material property','density of part',#636);
#370=DATE_TIME_ROLE('creation_date');
#371=APPLIED_DATE_AND_TIME_ASSIGNMENT(#372,#370,(#636));
#372=DATE_AND_TIME(#373,#374);
#373=CALENDAR_DATE(2026,12,1);
#374=LOCAL_TIME(0,0,0.,#375);
#375=COORDINATED_UNIVERSAL_TIME_OFFSET(0,0,.BEHIND.);
#376=AXIS2_PLACEMENT_3D('',#521,#415,#416);
#377=AXIS2_PLACEMENT_3D('',#522,#417,#418);
#378=AXIS2_PLACEMENT_3D('',#524,#419,#420);
#379=AXIS2_PLACEMENT_3D('',#527,#422,#423);
#380=AXIS2_PLACEMENT_3D('',#528,#424,#425);
#381=AXIS2_PLACEMENT_3D('',#530,#426,#427);
#382=AXIS2_PLACEMENT_3D('',#533,#429,#430);
#383=AXIS2_PLACEMENT_3D('',#534,#431,#432);
#384=AXIS2_PLACEMENT_3D('',#536,#433,#434);
#385=AXIS2_PLACEMENT_3D('',#539,#436,#437);
#386=AXIS2_PLACEMENT_3D('',#540,#438,#439);
#387=AXIS2_PLACEMENT_3D('',#542,#440,#441);
#388=AXIS2_PLACEMENT_3D('',#545,#443,#444);
#389=AXIS2_PLACEMENT_3D('',#546,#445,#446);
#390=AXIS2_PLACEMENT_3D('',#549,#447,#448);
#391=AXIS2_PLACEMENT_3D('',#553,#450,#451);
#392=AXIS2_PLACEMENT_3D('',#555,#453,#454);
#393=AXIS2_PLACEMENT_3D('',#561,#458,#459);
#394=AXIS2_PLACEMENT_3D('',#563,#460,#461);
#395=AXIS2_PLACEMENT_3D('',#565,#462,#463);
#396=AXIS2_PLACEMENT_3D('',#567,#465,#466);
#397=AXIS2_PLACEMENT_3D('',#573,#470,#471);
#398=AXIS2_PLACEMENT_3D('',#575,#472,#473);
#399=AXIS2_PLACEMENT_3D('',#577,#474,#475);
#400=AXIS2_PLACEMENT_3D('',#579,#477,#478);
#401=AXIS2_PLACEMENT_3D('',#585,#482,#483);
#402=AXIS2_PLACEMENT_3D('',#587,#484,#485);
#403=AXIS2_PLACEMENT_3D('',#589,#486,#487);
#404=AXIS2_PLACEMENT_3D('',#591,#489,#490);
#405=AXIS2_PLACEMENT_3D('',#597,#494,#495);
#406=AXIS2_PLACEMENT_3D('',#599,#496,#497);
#407=AXIS2_PLACEMENT_3D('',#601,#498,#499);
#408=AXIS2_PLACEMENT_3D('',#603,#501,#502);
#409=AXIS2_PLACEMENT_3D('',#609,#506,#507);
#410=AXIS2_PLACEMENT_3D('',#611,#508,#509);
#411=AXIS2_PLACEMENT_3D('',#613,#510,#511);
#412=AXIS2_PLACEMENT_3D('',#615,#513,#514);
#413=AXIS2_PLACEMENT_3D('',#618,#517,#518);
#414=AXIS2_PLACEMENT_3D('',#619,#519,#520);
#415=DIRECTION('axis',(0.,0.,1.));
#416=DIRECTION('refdir',(1.,0.,0.));
#417=DIRECTION('center_axis',(0.,0.,1.));
#418=DIRECTION('ref_axis',(-1.,0.,0.));
#419=DIRECTION('center_axis',(0.,0.,-1.));
#420=DIRECTION('ref_axis',(-1.,0.,0.));
#421=DIRECTION('',(0.,0.,-1.));
#422=DIRECTION('center_axis',(0.,0.,-1.));
#423=DIRECTION('ref_axis',(-1.,0.,0.));
#424=DIRECTION('center_axis',(0.,0.,1.));
#425=DIRECTION('ref_axis',(-1.,0.,0.));
#426=DIRECTION('center_axis',(0.,0.,-1.));
#427=DIRECTION('ref_axis',(-1.,0.,0.));
#428=DIRECTION('',(0.,0.,-1.));
#429=DIRECTION('center_axis',(0.,0.,-1.));
#430=DIRECTION('ref_axis',(-1.,0.,0.));
#431=DIRECTION('center_axis',(0.,0.,1.));
#432=DIRECTION('ref_axis',(-1.,0.,0.));
#433=DIRECTION('center_axis',(0.,0.,-1.));
#434=DIRECTION('ref_axis',(-1.,0.,0.));
#435=DIRECTION('',(0.,0.,-1.));
#436=DIRECTION('center_axis',(0.,0.,-1.));
#437=DIRECTION('ref_axis',(-1.,0.,0.));
#438=DIRECTION('center_axis',(0.,0.,1.));
#439=DIRECTION('ref_axis',(-1.,0.,0.));
#440=DIRECTION('center_axis',(0.,0.,-1.));
#441=DIRECTION('ref_axis',(-1.,0.,0.));
#442=DIRECTION('',(0.,0.,-1.));
#443=DIRECTION('center_axis',(0.,0.,-1.));
#444=DIRECTION('ref_axis',(-1.,0.,0.));
#445=DIRECTION('center_axis',(0.,0.,1.));
#446=DIRECTION('ref_axis',(-1.,0.,0.));
#447=DIRECTION('center_axis',(0.,0.,1.));
#448=DIRECTION('ref_axis',(-1.,0.,0.));
#449=DIRECTION('',(0.,0.,1.));
#450=DIRECTION('center_axis',(0.,0.,1.));
#451=DIRECTION('ref_axis',(-1.,0.,0.));
#452=DIRECTION('',(0.,0.,1.));
#453=DIRECTION('center_axis',(-1.,-4.37095678986282E-17,0.));
#454=DIRECTION('ref_axis',(4.37095678986282E-17,-1.,0.));
#455=DIRECTION('',(4.37095678986282E-17,-1.,0.));
#456=DIRECTION('',(4.37095678986282E-17,-1.,0.));
#457=DIRECTION('',(0.,0.,1.));
#458=DIRECTION('center_axis',(0.,0.,1.));
#459=DIRECTION('ref_axis',(1.,0.,0.));
#460=DIRECTION('center_axis',(0.,0.,1.));
#461=DIRECTION('ref_axis',(1.,0.,0.));
#462=DIRECTION('center_axis',(0.,0.,1.));
#463=DIRECTION('ref_axis',(1.,0.,0.));
#464=DIRECTION('',(0.,0.,1.));
#465=DIRECTION('center_axis',(0.82738717240846,0.561631967514255,0.));
#466=DIRECTION('ref_axis',(-0.561631967514254,0.82738717240846,0.));
#467=DIRECTION('',(-0.561631967514255,0.82738717240846,0.));
#468=DIRECTION('',(-0.561631967514255,0.82738717240846,0.));
#469=DIRECTION('',(0.,0.,1.));
#470=DIRECTION('center_axis',(0.,0.,1.));
#471=DIRECTION('ref_axis',(0.827387172408458,0.561631967514258,0.));
#472=DIRECTION('center_axis',(0.,0.,-1.));
#473=DIRECTION('ref_axis',(0.827387172408458,0.561631967514258,0.));
#474=DIRECTION('center_axis',(0.,0.,-1.));
#475=DIRECTION('ref_axis',(0.827387172408458,0.561631967514258,0.));
#476=DIRECTION('',(0.,0.,1.));
#477=DIRECTION('center_axis',(-8.03474353499018E-14,1.,0.));
#478=DIRECTION('ref_axis',(-1.,-8.03474353499018E-14,0.));
#479=DIRECTION('',(-1.,-8.03474353499018E-14,0.));
#480=DIRECTION('',(-1.,-8.03474353499018E-14,0.));
#481=DIRECTION('',(0.,0.,1.));
#482=DIRECTION('center_axis',(0.,0.,1.));
#483=DIRECTION('ref_axis',(-7.83275456743416E-14,1.,0.));
#484=DIRECTION('center_axis',(0.,0.,-1.));
#485=DIRECTION('ref_axis',(-7.83275456743416E-14,1.,0.));
#486=DIRECTION('center_axis',(0.,0.,-1.));
#487=DIRECTION('ref_axis',(-7.83275456743416E-14,1.,0.));
#488=DIRECTION('',(0.,0.,1.));
#489=DIRECTION('center_axis',(-0.827387172408508,0.561631967514184,0.));
#490=DIRECTION('ref_axis',(-0.561631967514184,-0.827387172408508,0.));
#491=DIRECTION('',(-0.561631967514184,-0.827387172408508,0.));
#492=DIRECTION('',(-0.561631967514184,-0.827387172408508,0.));
#493=DIRECTION('',(0.,0.,1.));
#494=DIRECTION('center_axis',(0.,0.,1.));
#495=DIRECTION('ref_axis',(1.,0.,0.));
#496=DIRECTION('center_axis',(0.,0.,1.));
#497=DIRECTION('ref_axis',(1.,0.,0.));
#498=DIRECTION('center_axis',(0.,0.,1.));
#499=DIRECTION('ref_axis',(1.,0.,0.));
#500=DIRECTION('',(0.,0.,1.));
#501=DIRECTION('center_axis',(1.,0.,0.));
#502=DIRECTION('ref_axis',(0.,1.,0.));
#503=DIRECTION('',(0.,1.,0.));
#504=DIRECTION('',(0.,1.,0.));
#505=DIRECTION('',(0.,0.,1.));
#506=DIRECTION('center_axis',(0.,0.,1.));
#507=DIRECTION('ref_axis',(7.99260670146345E-14,-1.,0.));
#508=DIRECTION('center_axis',(0.,0.,1.));
#509=DIRECTION('ref_axis',(7.99260670146345E-14,-1.,0.));
#510=DIRECTION('center_axis',(0.,0.,1.));
#511=DIRECTION('ref_axis',(7.99260670146345E-14,-1.,0.));
#512=DIRECTION('',(0.,0.,1.));
#513=DIRECTION('center_axis',(8.04256049337362E-14,-1.,0.));
#514=DIRECTION('ref_axis',(1.,8.04256049337362E-14,0.));
#515=DIRECTION('',(1.,8.04256049337362E-14,0.));
#516=DIRECTION('',(1.,8.04256049337362E-14,0.));
#517=DIRECTION('center_axis',(0.,0.,1.));
#518=DIRECTION('ref_axis',(1.,0.,0.));
#519=DIRECTION('center_axis',(0.,0.,1.));
#520=DIRECTION('ref_axis',(1.,0.,0.));
#521=CARTESIAN_POINT('',(0.,0.,0.));
#522=CARTESIAN_POINT('Origin',(-0.0305171420996655,4.49999999999998,0.));
#523=CARTESIAN_POINT('',(0.0554828579003345,4.49999999999998,0.25));
#524=CARTESIAN_POINT('Origin',(-0.0305171420996655,4.49999999999998,0.25));
#525=CARTESIAN_POINT('',(0.0554828579003345,4.49999999999998,0.));
#526=CARTESIAN_POINT('',(0.0554828579003345,4.49999999999998,0.));
#527=CARTESIAN_POINT('Origin',(-0.0305171420996655,4.49999999999998,0.));
#528=CARTESIAN_POINT('Origin',(7.96948285787443,5.50000000000059,0.));
#529=CARTESIAN_POINT('',(8.05548285787443,5.50000000000059,0.25));
#530=CARTESIAN_POINT('Origin',(7.96948285787443,5.50000000000059,0.25));
#531=CARTESIAN_POINT('',(8.05548285787443,5.50000000000059,0.));
#532=CARTESIAN_POINT('',(8.05548285787443,5.50000000000059,0.));
#533=CARTESIAN_POINT('Origin',(7.96948285787443,5.50000000000059,0.));
#534=CARTESIAN_POINT('Origin',(7.96948285787445,4.50000000000063,0.));
#535=CARTESIAN_POINT('',(8.05548285787444,4.50000000000063,0.25));
#536=CARTESIAN_POINT('Origin',(7.96948285787445,4.50000000000063,0.25));
#537=CARTESIAN_POINT('',(8.05548285787444,4.50000000000063,0.));
#538=CARTESIAN_POINT('',(8.05548285787444,4.50000000000063,0.));
#539=CARTESIAN_POINT('Origin',(7.96948285787445,4.50000000000063,0.));
#540=CARTESIAN_POINT('Origin',(-0.0305171420996746,5.49999999999998,0.));
#541=CARTESIAN_POINT('',(0.0554828579003254,5.49999999999998,0.25));
#542=CARTESIAN_POINT('Origin',(-0.0305171420996746,5.49999999999998,0.25));
#543=CARTESIAN_POINT('',(0.0554828579003254,5.49999999999998,0.));
#544=CARTESIAN_POINT('',(0.0554828579003254,5.49999999999998,0.));
#545=CARTESIAN_POINT('Origin',(-0.0305171420996746,5.49999999999998,0.));
#546=CARTESIAN_POINT('Origin',(-0.0305171420996655,4.49999999999998,0.));
#547=CARTESIAN_POINT('',(-0.205517142099674,4.49999999999998,0.));
#548=CARTESIAN_POINT('',(-0.0305171420996515,4.32499999999999,0.));
#549=CARTESIAN_POINT('Origin',(-0.0305171420996655,4.49999999999998,0.));
#550=CARTESIAN_POINT('',(-0.0305171420996515,4.32499999999999,0.25));
#551=CARTESIAN_POINT('',(-0.0305171420996515,4.32499999999999,0.));
#552=CARTESIAN_POINT('',(-0.205517142099674,4.49999999999998,0.25));
#553=CARTESIAN_POINT('Origin',(-0.0305171420996655,4.49999999999998,0.25));
#554=CARTESIAN_POINT('',(-0.205517142099674,4.49999999999998,0.));
#555=CARTESIAN_POINT('Origin',(-0.205517142099675,5.49999999999998,0.));
#556=CARTESIAN_POINT('',(-0.205517142099675,5.49999999999998,0.));
#557=CARTESIAN_POINT('',(-0.205517142099675,5.49999999999998,0.));
#558=CARTESIAN_POINT('',(-0.205517142099675,5.49999999999998,0.25));
#559=CARTESIAN_POINT('',(-0.205517142099675,5.49999999999998,0.25));
#560=CARTESIAN_POINT('',(-0.205517142099675,5.49999999999998,0.));
#561=CARTESIAN_POINT('Origin',(-0.0305171420996746,5.49999999999998,0.));
#562=CARTESIAN_POINT('',(0.114275613071806,5.59828559431498,0.));
#563=CARTESIAN_POINT('Origin',(-0.0305171420996746,5.49999999999998,0.));
#564=CARTESIAN_POINT('',(0.114275613071806,5.59828559431498,0.25));
#565=CARTESIAN_POINT('Origin',(-0.0305171420996746,5.49999999999998,0.25));
#566=CARTESIAN_POINT('',(0.114275613071806,5.59828559431498,0.));
#567=CARTESIAN_POINT('Origin',(0.432287227354527,5.12979600406075,0.));
#568=CARTESIAN_POINT('',(0.432287227354527,5.12979600406075,0.));
#569=CARTESIAN_POINT('',(0.432287227354527,5.12979600406075,0.));
#570=CARTESIAN_POINT('',(0.432287227354527,5.12979600406075,0.25));
#571=CARTESIAN_POINT('',(0.432287227354527,5.12979600406075,0.25));
#572=CARTESIAN_POINT('',(0.432287227354527,5.12979600406075,0.));
#573=CARTESIAN_POINT('Origin',(0.535710623905585,5.20000000000003,0.));
#574=CARTESIAN_POINT('',(0.535710623905595,5.07500000000003,0.));
#575=CARTESIAN_POINT('Origin',(0.535710623905585,5.20000000000003,0.));
#576=CARTESIAN_POINT('',(0.535710623905595,5.07500000000003,0.25));
#577=CARTESIAN_POINT('Origin',(0.535710623905585,5.20000000000003,0.25));
#578=CARTESIAN_POINT('',(0.535710623905595,5.07500000000003,0.));
#579=CARTESIAN_POINT('Origin',(7.40325509186921,5.07500000000058,0.));
#580=CARTESIAN_POINT('',(7.40325509186921,5.07500000000058,0.));
#581=CARTESIAN_POINT('',(7.40325509186921,5.07500000000058,0.));
#582=CARTESIAN_POINT('',(7.40325509186921,5.07500000000058,0.25));
#583=CARTESIAN_POINT('',(7.40325509186921,5.07500000000058,0.25));
#584=CARTESIAN_POINT('',(7.40325509186921,5.07500000000058,0.));
#585=CARTESIAN_POINT('Origin',(7.4032550918692,5.20000000000058,0.));
#586=CARTESIAN_POINT('',(7.50667848842026,5.12979600406131,0.));
#587=CARTESIAN_POINT('Origin',(7.4032550918692,5.20000000000058,0.));
#588=CARTESIAN_POINT('',(7.50667848842026,5.12979600406131,0.25));
#589=CARTESIAN_POINT('Origin',(7.4032550918692,5.20000000000058,0.25));
#590=CARTESIAN_POINT('',(7.50667848842026,5.12979600406131,0.));
#591=CARTESIAN_POINT('Origin',(7.82469010270295,5.59828559431557,0.));
#592=CARTESIAN_POINT('',(7.82469010270295,5.59828559431557,0.));
#593=CARTESIAN_POINT('',(7.82469010270295,5.59828559431557,0.));
#594=CARTESIAN_POINT('',(7.82469010270295,5.59828559431557,0.25));
#595=CARTESIAN_POINT('',(7.82469010270295,5.59828559431557,0.25));
#596=CARTESIAN_POINT('',(7.82469010270295,5.59828559431557,0.));
#597=CARTESIAN_POINT('Origin',(7.96948285787443,5.50000000000059,0.));
#598=CARTESIAN_POINT('',(8.14448285787443,5.50000000000059,0.));
#599=CARTESIAN_POINT('Origin',(7.96948285787443,5.50000000000059,0.));
#600=CARTESIAN_POINT('',(8.14448285787443,5.50000000000059,0.25));
#601=CARTESIAN_POINT('Origin',(7.96948285787443,5.50000000000059,0.25));
#602=CARTESIAN_POINT('',(8.14448285787443,5.50000000000059,0.));
#603=CARTESIAN_POINT('Origin',(8.14448285787445,4.50000000000063,0.));
#604=CARTESIAN_POINT('',(8.14448285787445,4.50000000000063,0.));
#605=CARTESIAN_POINT('',(8.14448285787445,4.50000000000063,0.));
#606=CARTESIAN_POINT('',(8.14448285787445,4.50000000000063,0.25));
#607=CARTESIAN_POINT('',(8.14448285787445,4.50000000000063,0.25));
#608=CARTESIAN_POINT('',(8.14448285787445,4.50000000000063,0.));
#609=CARTESIAN_POINT('Origin',(7.96948285787445,4.50000000000063,0.));
#610=CARTESIAN_POINT('',(7.96948285787446,4.32500000000063,0.));
#611=CARTESIAN_POINT('Origin',(7.96948285787445,4.50000000000063,0.));
#612=CARTESIAN_POINT('',(7.96948285787446,4.32500000000063,0.25));
#613=CARTESIAN_POINT('Origin',(7.96948285787445,4.50000000000063,0.25));
#614=CARTESIAN_POINT('',(7.96948285787446,4.32500000000063,0.));
#615=CARTESIAN_POINT('Origin',(-0.0305171420996515,4.32499999999999,0.));
#616=CARTESIAN_POINT('',(-0.0305171420996515,4.32499999999999,0.));
#617=CARTESIAN_POINT('',(-0.0305171420996515,4.32499999999999,0.25));
#618=CARTESIAN_POINT('Origin',(3.96948285788739,5.00000000000028,0.25));
#619=CARTESIAN_POINT('Origin',(3.96948285788739,5.00000000000028,0.));
#620=UNCERTAINTY_MEASURE_WITH_UNIT(LENGTH_MEASURE(0.000393700787401575),
#626,'DISTANCE_ACCURACY_VALUE',
'Maximum model space distance between geometric entities at asserted c
onnectivities');
#621=UNCERTAINTY_MEASURE_WITH_UNIT(LENGTH_MEASURE(0.000393700787401575),
#626,'DISTANCE_ACCURACY_VALUE',
'Maximum model space distance between geometric entities at asserted c
onnectivities');
#622=(
GEOMETRIC_REPRESENTATION_CONTEXT(3)
GLOBAL_UNCERTAINTY_ASSIGNED_CONTEXT((#620))
GLOBAL_UNIT_ASSIGNED_CONTEXT((#626,#630,#631))
REPRESENTATION_CONTEXT('','3D')
);
#623=(
GEOMETRIC_REPRESENTATION_CONTEXT(3)
GLOBAL_UNCERTAINTY_ASSIGNED_CONTEXT((#621))
GLOBAL_UNIT_ASSIGNED_CONTEXT((#626,#630,#631))
REPRESENTATION_CONTEXT('','3D')
);
#624=DIMENSIONAL_EXPONENTS(1.,0.,0.,0.,0.,0.,0.);
#625=DIMENSIONAL_EXPONENTS(0.,1.,0.,0.,0.,0.,0.);
#626=(
CONVERSION_BASED_UNIT('inch',#629)
LENGTH_UNIT()
NAMED_UNIT(#624)
);
#627=(
LENGTH_UNIT()
NAMED_UNIT(*)
SI_UNIT(.MILLI.,.METRE.)
);
#628=(
LENGTH_UNIT()
NAMED_UNIT(*)
SI_UNIT(.CENTI.,.METRE.)
);
#629=LENGTH_MEASURE_WITH_UNIT(LENGTH_MEASURE(25.4),#627);
#630=(
NAMED_UNIT(*)
PLANE_ANGLE_UNIT()
SI_UNIT($,.RADIAN.)
);
#631=(
NAMED_UNIT(*)
SI_UNIT($,.STERADIAN.)
SOLID_ANGLE_UNIT()
);
#632=SHAPE_DEFINITION_REPRESENTATION(#633,#634);
#633=PRODUCT_DEFINITION_SHAPE('',$,#636);
#634=SHAPE_REPRESENTATION('',(#376),#622);
#635=PRODUCT_DEFINITION_CONTEXT('part definition',#640,'design');
#636=PRODUCT_DEFINITION('brace','brace',#637,#635);
#637=PRODUCT_DEFINITION_FORMATION('',$,#642);
#638=PRODUCT_RELATED_PRODUCT_CATEGORY('brace','brace',(#642));
#639=APPLICATION_PROTOCOL_DEFINITION('international standard',
'automotive_design',2009,#640);
#640=APPLICATION_CONTEXT(
'Core Data for Automotive Mechanical Design Process');
#641=PRODUCT_CONTEXT('part definition',#640,'mechanical');
#642=PRODUCT('brace','brace',$,(#641));
#643=PRESENTATION_STYLE_ASSIGNMENT((#644));
#644=SURFACE_STYLE_USAGE(.BOTH.,#647);
#645=SURFACE_STYLE_RENDERING_WITH_PROPERTIES($,#651,(#646));
#646=SURFACE_STYLE_TRANSPARENT(0.);
#647=SURFACE_SIDE_STYLE('',(#648,#645));
#648=SURFACE_STYLE_FILL_AREA(#649);
#649=FILL_AREA_STYLE('',(#650));
#650=FILL_AREA_STYLE_COLOUR('',#651);
#651=COLOUR_RGB('',0.0196078431372549,0.0196078431372549,0.0196078431372549);
ENDSEC;
END-ISO-10303-21;
