ISO-10303-21;
HEADER;
/* Generated by software containing ST-Developer
 * from STEP Tools, Inc. (www.steptools.com) 
 */

FILE_DESCRIPTION(
/* description */ (''),
/* implementation_level */ '2;1');

FILE_NAME(
/* name */ 'wing.stp',
/* time_stamp */ '2026-01-12T20:28:30+13:00',
/* author */ ('cloudy'),
/* organization */ (''),
/* preprocessor_version */ 'ST-DEVELOPER v20',
/* originating_system */ 'Autodesk Inventor 2025',
/* authorisation */ '');

FILE_SCHEMA (('AUTOMOTIVE_DESIGN { 1 0 10303 214 3 1 1 }'));
ENDSEC;

DATA;
#10=MECHANICAL_DESIGN_GEOMETRIC_PRESENTATION_REPRESENTATION('',(#13),#872);
#11=SHAPE_REPRESENTATION_RELATIONSHIP('SRR','None',#883,#12);
#12=ADVANCED_BREP_SHAPE_REPRESENTATION('',(#14),#871);
#13=STYLED_ITEM('',(#892),#14);
#14=MANIFOLD_SOLID_BREP('Solid1',#412);
#15=FACE_BOUND('',#92,.T.);
#16=FACE_BOUND('',#93,.T.);
#17=FACE_BOUND('',#97,.T.);
#18=FACE_BOUND('',#98,.T.);
#19=CIRCLE('',#436,2.5);
#20=CIRCLE('',#437,2.5);
#21=CIRCLE('',#439,0.5);
#22=CIRCLE('',#440,0.5);
#23=CIRCLE('',#442,2.);
#24=CIRCLE('',#443,2.);
#25=CIRCLE('',#445,0.075);
#26=CIRCLE('',#447,0.075);
#27=CIRCLE('',#449,0.125);
#28=CIRCLE('',#450,0.125);
#29=CIRCLE('',#453,0.125);
#30=CIRCLE('',#454,0.086);
#31=CIRCLE('',#455,0.0860000000000001);
#32=CIRCLE('',#457,0.125);
#33=CIRCLE('',#460,0.086);
#34=CIRCLE('',#461,0.0860000000000001);
#35=CYLINDRICAL_SURFACE('',#435,2.5);
#36=CYLINDRICAL_SURFACE('',#438,0.5);
#37=CYLINDRICAL_SURFACE('',#441,2.);
#38=CYLINDRICAL_SURFACE('',#446,0.075);
#39=CYLINDRICAL_SURFACE('',#448,0.125);
#40=CYLINDRICAL_SURFACE('',#456,0.125);
#41=CYLINDRICAL_SURFACE('',#462,0.0860000000000001);
#42=CYLINDRICAL_SURFACE('',#463,0.086);
#43=B_SPLINE_CURVE_WITH_KNOTS('',3,(#630,#631,#632,#633,#634,#635,#636,
#637,#638,#639,#640,#641,#642),.UNSPECIFIED.,.F.,.F.,(4,3,3,3,4),(3.7861601342466,
3.80443160380367,3.83183880813927,3.96616153729008,4.1676456310163),
 .UNSPECIFIED.);
#44=B_SPLINE_CURVE_WITH_KNOTS('',3,(#644,#645,#646,#647,#648,#649,#650),
 .UNSPECIFIED.,.F.,.F.,(4,3,4),(0.,0.593578723512934,0.989297872521558),
 .UNSPECIFIED.);
#45=B_SPLINE_CURVE_WITH_KNOTS('',3,(#678,#679,#680,#681,#682,#683,#684,
#685),.UNSPECIFIED.,.F.,.F.,(4,2,2,4),(0.860389019963112,1.00770500832252,
1.40720443446494,1.80560880475073),.UNSPECIFIED.);
#46=B_SPLINE_CURVE_WITH_KNOTS('',3,(#686,#687,#688,#689),.UNSPECIFIED.,
 .F.,.F.,(4,4),(-0.869009436108384,5.12446752692294E-7),.UNSPECIFIED.);
#47=B_SPLINE_CURVE_WITH_KNOTS('',3,(#691,#692,#693,#694,#695,#696,#697,
#698,#699,#700,#701,#702,#703,#704,#705,#706,#707,#708,#709),
 .UNSPECIFIED.,.F.,.F.,(4,3,3,3,3,3,4),(1.00772492581842,1.09702814423528,
1.2993412568939,1.45647935918108,1.65882413940994,1.85848740328057,1.92356467055186),
 .UNSPECIFIED.);
#48=B_SPLINE_CURVE_WITH_KNOTS('',3,(#711,#712,#713,#714),.UNSPECIFIED.,
 .F.,.F.,(4,4),(-0.51894836366627,0.753787225683041),.UNSPECIFIED.);
#49=B_SPLINE_CURVE_WITH_KNOTS('',3,(#715,#716,#717,#718,#719,#720,#721,
#722,#723,#724,#725,#726,#727,#728,#729,#730,#731,#732,#733),
 .UNSPECIFIED.,.F.,.F.,(4,3,3,3,3,3,4),(0.,0.19953914959397,0.401943269864954,
0.497268386812989,0.699799470348713,0.773047378309248,0.851465468480568),
 .UNSPECIFIED.);
#50=B_SPLINE_CURVE_WITH_KNOTS('',3,(#762,#763,#764,#765),.UNSPECIFIED.,
 .F.,.F.,(4,4),(0.494929936687582,0.850828175309028),.UNSPECIFIED.);
#51=B_SPLINE_SURFACE_WITH_KNOTS('',3,3,((#576,#577,#578,#579),(#580,#581,
#582,#583),(#584,#585,#586,#587),(#588,#589,#590,#591)),.UNSPECIFIED.,.F.,
 .F.,.F.,(4,4),(4,4),(0.,1.),(0.,1.),.UNSPECIFIED.);
#52=B_SPLINE_SURFACE_WITH_KNOTS('',3,3,((#597,#598,#599,#600),(#601,#602,
#603,#604),(#605,#606,#607,#608),(#609,#610,#611,#612),(#613,#614,#615,
#616),(#617,#618,#619,#620),(#621,#622,#623,#624),(#625,#626,#627,#628)),
 .UNSPECIFIED.,.F.,.F.,.F.,(4,1,2,1,4),(4,4),(0.,0.528156628318298,0.880261047197164,
0.952104418878866,1.),(0.,1.),.UNSPECIFIED.);
#53=B_SPLINE_SURFACE_WITH_KNOTS('',3,3,((#652,#653,#654,#655),(#656,#657,
#658,#659),(#660,#661,#662,#663),(#664,#665,#666,#667),(#668,#669,#670,
#671),(#672,#673,#674,#675)),.UNSPECIFIED.,.F.,.F.,.F.,(4,1,1,4),(4,4),
(0.,0.285714285714286,0.571428571428571,1.),(-0.51894836366627,0.869009436108384),
 .UNSPECIFIED.);
#54=B_SPLINE_SURFACE_WITH_KNOTS('',3,3,((#818,#819,#820,#821),(#822,#823,
#824,#825),(#826,#827,#828,#829),(#830,#831,#832,#833)),.UNSPECIFIED.,.F.,
 .F.,.F.,(4,4),(4,4),(0.,1.),(0.,0.879145548942814),.UNSPECIFIED.);
#55=B_SPLINE_SURFACE_WITH_KNOTS('',3,3,((#835,#836,#837,#838),(#839,#840,
#841,#842),(#843,#844,#845,#846),(#847,#848,#849,#850)),.UNSPECIFIED.,.F.,
 .F.,.F.,(4,4),(4,4),(-0.280234833560298,1.),(0.,1.),.UNSPECIFIED.);
#56=B_SPLINE_SURFACE_WITH_KNOTS('',3,3,((#852,#853,#854,#855),(#856,#857,
#858,#859),(#860,#861,#862,#863),(#864,#865,#866,#867)),.UNSPECIFIED.,.F.,
 .F.,.F.,(4,4),(4,4),(0.,1.),(0.,1.),.UNSPECIFIED.);
#57=FACE_OUTER_BOUND('',#80,.T.);
#58=FACE_OUTER_BOUND('',#81,.T.);
#59=FACE_OUTER_BOUND('',#82,.T.);
#60=FACE_OUTER_BOUND('',#83,.T.);
#61=FACE_OUTER_BOUND('',#84,.T.);
#62=FACE_OUTER_BOUND('',#85,.T.);
#63=FACE_OUTER_BOUND('',#86,.T.);
#64=FACE_OUTER_BOUND('',#87,.T.);
#65=FACE_OUTER_BOUND('',#88,.T.);
#66=FACE_OUTER_BOUND('',#89,.T.);
#67=FACE_OUTER_BOUND('',#90,.T.);
#68=FACE_OUTER_BOUND('',#91,.T.);
#69=FACE_OUTER_BOUND('',#94,.T.);
#70=FACE_OUTER_BOUND('',#95,.T.);
#71=FACE_OUTER_BOUND('',#96,.T.);
#72=FACE_OUTER_BOUND('',#99,.T.);
#73=FACE_OUTER_BOUND('',#100,.T.);
#74=FACE_OUTER_BOUND('',#101,.T.);
#75=FACE_OUTER_BOUND('',#102,.T.);
#76=FACE_OUTER_BOUND('',#103,.T.);
#77=FACE_OUTER_BOUND('',#104,.T.);
#78=FACE_OUTER_BOUND('',#105,.T.);
#79=FACE_OUTER_BOUND('',#106,.T.);
#80=EDGE_LOOP('',(#266,#267,#268));
#81=EDGE_LOOP('',(#269,#270,#271,#272));
#82=EDGE_LOOP('',(#273,#274,#275,#276));
#83=EDGE_LOOP('',(#277,#278,#279,#280,#281,#282,#283));
#84=EDGE_LOOP('',(#284,#285,#286,#287));
#85=EDGE_LOOP('',(#288,#289,#290,#291));
#86=EDGE_LOOP('',(#292,#293,#294,#295));
#87=EDGE_LOOP('',(#296,#297,#298,#299,#300,#301,#302,#303,#304));
#88=EDGE_LOOP('',(#305,#306,#307,#308));
#89=EDGE_LOOP('',(#309,#310,#311,#312));
#90=EDGE_LOOP('',(#313,#314,#315,#316));
#91=EDGE_LOOP('',(#317,#318,#319,#320,#321,#322));
#92=EDGE_LOOP('',(#323));
#93=EDGE_LOOP('',(#324));
#94=EDGE_LOOP('',(#325,#326,#327,#328));
#95=EDGE_LOOP('',(#329,#330,#331,#332));
#96=EDGE_LOOP('',(#333,#334,#335,#336,#337,#338));
#97=EDGE_LOOP('',(#339));
#98=EDGE_LOOP('',(#340));
#99=EDGE_LOOP('',(#341,#342,#343,#344));
#100=EDGE_LOOP('',(#345,#346,#347,#348));
#101=EDGE_LOOP('',(#349,#350,#351,#352,#353));
#102=EDGE_LOOP('',(#354,#355,#356,#357,#358,#359,#360));
#103=EDGE_LOOP('',(#361,#362,#363,#364));
#104=EDGE_LOOP('',(#365,#366,#367,#368,#369,#370,#371));
#105=EDGE_LOOP('',(#372,#373,#374,#375));
#106=EDGE_LOOP('',(#376,#377,#378,#379));
#107=LINE('',#572,#140);
#108=LINE('',#574,#141);
#109=LINE('',#575,#142);
#110=LINE('',#593,#143);
#111=LINE('',#595,#144);
#112=LINE('',#596,#145);
#113=LINE('',#651,#146);
#114=LINE('',#738,#147);
#115=LINE('',#745,#148);
#116=LINE('',#748,#149);
#117=LINE('',#753,#150);
#118=LINE('',#757,#151);
#119=LINE('',#759,#152);
#120=LINE('',#761,#153);
#121=LINE('',#774,#154);
#122=LINE('',#777,#155);
#123=LINE('',#779,#156);
#124=LINE('',#781,#157);
#125=LINE('',#782,#158);
#126=LINE('',#785,#159);
#127=LINE('',#788,#160);
#128=LINE('',#797,#161);
#129=LINE('',#798,#162);
#130=LINE('',#801,#163);
#131=LINE('',#802,#164);
#132=LINE('',#804,#165);
#133=LINE('',#805,#166);
#134=LINE('',#811,#167);
#135=LINE('',#813,#168);
#136=LINE('',#815,#169);
#137=LINE('',#816,#170);
#138=LINE('',#834,#171);
#139=LINE('',#851,#172);
#140=VECTOR('',#471,0.393700787401575);
#141=VECTOR('',#472,3.30635181610235);
#142=VECTOR('',#473,3.30791206865685);
#143=VECTOR('',#474,0.393700787401575);
#144=VECTOR('',#475,3.22596332260297);
#145=VECTOR('',#476,0.393700787401575);
#146=VECTOR('',#477,3.27591502779663);
#147=VECTOR('',#482,0.393700787401575);
#148=VECTOR('',#489,0.393700787401575);
#149=VECTOR('',#492,0.393700787401575);
#150=VECTOR('',#497,0.393700787401575);
#151=VECTOR('',#502,0.393700787401575);
#152=VECTOR('',#503,0.393700787401575);
#153=VECTOR('',#504,0.393700787401575);
#154=VECTOR('',#515,0.393700787401575);
#155=VECTOR('',#518,0.393700787401575);
#156=VECTOR('',#521,0.393700787401575);
#157=VECTOR('',#522,0.393700787401575);
#158=VECTOR('',#523,0.393700787401575);
#159=VECTOR('',#526,0.393700787401575);
#160=VECTOR('',#529,0.393700787401575);
#161=VECTOR('',#538,0.393700787401575);
#162=VECTOR('',#539,0.393700787401575);
#163=VECTOR('',#542,0.393700787401575);
#164=VECTOR('',#543,0.393700787401575);
#165=VECTOR('',#546,0.393700787401575);
#166=VECTOR('',#547,0.393700787401575);
#167=VECTOR('',#554,0.0860000000000001);
#168=VECTOR('',#557,0.086);
#169=VECTOR('',#560,0.393700787401575);
#170=VECTOR('',#561,0.393700787401575);
#171=VECTOR('',#564,3.20085852787212);
#172=VECTOR('',#565,3.23359835169328);
#173=VERTEX_POINT('',#570);
#174=VERTEX_POINT('',#571);
#175=VERTEX_POINT('',#573);
#176=VERTEX_POINT('',#592);
#177=VERTEX_POINT('',#594);
#178=VERTEX_POINT('',#629);
#179=VERTEX_POINT('',#643);
#180=VERTEX_POINT('',#676);
#181=VERTEX_POINT('',#677);
#182=VERTEX_POINT('',#690);
#183=VERTEX_POINT('',#710);
#184=VERTEX_POINT('',#735);
#185=VERTEX_POINT('',#737);
#186=VERTEX_POINT('',#741);
#187=VERTEX_POINT('',#742);
#188=VERTEX_POINT('',#744);
#189=VERTEX_POINT('',#746);
#190=VERTEX_POINT('',#750);
#191=VERTEX_POINT('',#752);
#192=VERTEX_POINT('',#756);
#193=VERTEX_POINT('',#758);
#194=VERTEX_POINT('',#760);
#195=VERTEX_POINT('',#770);
#196=VERTEX_POINT('',#771);
#197=VERTEX_POINT('',#773);
#198=VERTEX_POINT('',#775);
#199=VERTEX_POINT('',#780);
#200=VERTEX_POINT('',#784);
#201=VERTEX_POINT('',#786);
#202=VERTEX_POINT('',#789);
#203=VERTEX_POINT('',#791);
#204=VERTEX_POINT('',#794);
#205=VERTEX_POINT('',#795);
#206=VERTEX_POINT('',#800);
#207=VERTEX_POINT('',#806);
#208=VERTEX_POINT('',#808);
#209=EDGE_CURVE('',#173,#174,#107,.T.);
#210=EDGE_CURVE('',#174,#175,#108,.T.);
#211=EDGE_CURVE('',#175,#173,#109,.T.);
#212=EDGE_CURVE('',#176,#174,#110,.T.);
#213=EDGE_CURVE('',#176,#177,#111,.T.);
#214=EDGE_CURVE('',#177,#175,#112,.T.);
#215=EDGE_CURVE('',#178,#176,#43,.T.);
#216=EDGE_CURVE('',#178,#179,#44,.F.);
#217=EDGE_CURVE('',#177,#179,#113,.T.);
#218=EDGE_CURVE('',#180,#181,#45,.F.);
#219=EDGE_CURVE('',#180,#179,#46,.T.);
#220=EDGE_CURVE('',#182,#176,#47,.F.);
#221=EDGE_CURVE('',#182,#183,#48,.T.);
#222=EDGE_CURVE('',#181,#183,#49,.F.);
#223=EDGE_CURVE('',#184,#182,#19,.T.);
#224=EDGE_CURVE('',#185,#184,#114,.T.);
#225=EDGE_CURVE('',#183,#185,#20,.T.);
#226=EDGE_CURVE('',#186,#187,#21,.T.);
#227=EDGE_CURVE('',#187,#188,#115,.T.);
#228=EDGE_CURVE('',#188,#189,#22,.T.);
#229=EDGE_CURVE('',#189,#186,#116,.T.);
#230=EDGE_CURVE('',#190,#189,#23,.T.);
#231=EDGE_CURVE('',#191,#190,#117,.T.);
#232=EDGE_CURVE('',#186,#191,#24,.T.);
#233=EDGE_CURVE('',#188,#192,#118,.T.);
#234=EDGE_CURVE('',#193,#192,#119,.T.);
#235=EDGE_CURVE('',#194,#193,#120,.T.);
#236=EDGE_CURVE('',#181,#194,#50,.F.);
#237=EDGE_CURVE('',#190,#185,#25,.T.);
#238=EDGE_CURVE('',#184,#191,#26,.T.);
#239=EDGE_CURVE('',#195,#196,#27,.T.);
#240=EDGE_CURVE('',#196,#197,#121,.T.);
#241=EDGE_CURVE('',#197,#198,#28,.T.);
#242=EDGE_CURVE('',#198,#195,#122,.T.);
#243=EDGE_CURVE('',#196,#177,#123,.T.);
#244=EDGE_CURVE('',#199,#177,#124,.T.);
#245=EDGE_CURVE('',#197,#199,#125,.T.);
#246=EDGE_CURVE('',#195,#200,#126,.T.);
#247=EDGE_CURVE('',#201,#200,#29,.T.);
#248=EDGE_CURVE('',#201,#175,#127,.T.);
#249=EDGE_CURVE('',#202,#202,#30,.T.);
#250=EDGE_CURVE('',#203,#203,#31,.T.);
#251=EDGE_CURVE('',#204,#205,#32,.T.);
#252=EDGE_CURVE('',#205,#201,#128,.T.);
#253=EDGE_CURVE('',#200,#204,#129,.T.);
#254=EDGE_CURVE('',#205,#206,#130,.T.);
#255=EDGE_CURVE('',#175,#206,#131,.T.);
#256=EDGE_CURVE('',#206,#199,#132,.T.);
#257=EDGE_CURVE('',#204,#198,#133,.T.);
#258=EDGE_CURVE('',#207,#207,#33,.T.);
#259=EDGE_CURVE('',#208,#208,#34,.T.);
#260=EDGE_CURVE('',#208,#203,#134,.T.);
#261=EDGE_CURVE('',#207,#202,#135,.T.);
#262=EDGE_CURVE('',#174,#187,#136,.T.);
#263=EDGE_CURVE('',#192,#173,#137,.T.);
#264=EDGE_CURVE('',#199,#180,#138,.T.);
#265=EDGE_CURVE('',#206,#192,#139,.T.);
#266=ORIENTED_EDGE('',*,*,#209,.T.);
#267=ORIENTED_EDGE('',*,*,#210,.T.);
#268=ORIENTED_EDGE('',*,*,#211,.T.);
#269=ORIENTED_EDGE('',*,*,#212,.F.);
#270=ORIENTED_EDGE('',*,*,#213,.T.);
#271=ORIENTED_EDGE('',*,*,#214,.T.);
#272=ORIENTED_EDGE('',*,*,#210,.F.);
#273=ORIENTED_EDGE('',*,*,#215,.F.);
#274=ORIENTED_EDGE('',*,*,#216,.T.);
#275=ORIENTED_EDGE('',*,*,#217,.F.);
#276=ORIENTED_EDGE('',*,*,#213,.F.);
#277=ORIENTED_EDGE('',*,*,#218,.F.);
#278=ORIENTED_EDGE('',*,*,#219,.T.);
#279=ORIENTED_EDGE('',*,*,#216,.F.);
#280=ORIENTED_EDGE('',*,*,#215,.T.);
#281=ORIENTED_EDGE('',*,*,#220,.F.);
#282=ORIENTED_EDGE('',*,*,#221,.T.);
#283=ORIENTED_EDGE('',*,*,#222,.F.);
#284=ORIENTED_EDGE('',*,*,#221,.F.);
#285=ORIENTED_EDGE('',*,*,#223,.F.);
#286=ORIENTED_EDGE('',*,*,#224,.F.);
#287=ORIENTED_EDGE('',*,*,#225,.F.);
#288=ORIENTED_EDGE('',*,*,#226,.T.);
#289=ORIENTED_EDGE('',*,*,#227,.T.);
#290=ORIENTED_EDGE('',*,*,#228,.T.);
#291=ORIENTED_EDGE('',*,*,#229,.T.);
#292=ORIENTED_EDGE('',*,*,#229,.F.);
#293=ORIENTED_EDGE('',*,*,#230,.F.);
#294=ORIENTED_EDGE('',*,*,#231,.F.);
#295=ORIENTED_EDGE('',*,*,#232,.F.);
#296=ORIENTED_EDGE('',*,*,#228,.F.);
#297=ORIENTED_EDGE('',*,*,#233,.T.);
#298=ORIENTED_EDGE('',*,*,#234,.F.);
#299=ORIENTED_EDGE('',*,*,#235,.F.);
#300=ORIENTED_EDGE('',*,*,#236,.F.);
#301=ORIENTED_EDGE('',*,*,#222,.T.);
#302=ORIENTED_EDGE('',*,*,#225,.T.);
#303=ORIENTED_EDGE('',*,*,#237,.F.);
#304=ORIENTED_EDGE('',*,*,#230,.T.);
#305=ORIENTED_EDGE('',*,*,#238,.T.);
#306=ORIENTED_EDGE('',*,*,#231,.T.);
#307=ORIENTED_EDGE('',*,*,#237,.T.);
#308=ORIENTED_EDGE('',*,*,#224,.T.);
#309=ORIENTED_EDGE('',*,*,#239,.T.);
#310=ORIENTED_EDGE('',*,*,#240,.T.);
#311=ORIENTED_EDGE('',*,*,#241,.T.);
#312=ORIENTED_EDGE('',*,*,#242,.T.);
#313=ORIENTED_EDGE('',*,*,#240,.F.);
#314=ORIENTED_EDGE('',*,*,#243,.T.);
#315=ORIENTED_EDGE('',*,*,#244,.F.);
#316=ORIENTED_EDGE('',*,*,#245,.F.);
#317=ORIENTED_EDGE('',*,*,#239,.F.);
#318=ORIENTED_EDGE('',*,*,#246,.T.);
#319=ORIENTED_EDGE('',*,*,#247,.F.);
#320=ORIENTED_EDGE('',*,*,#248,.T.);
#321=ORIENTED_EDGE('',*,*,#214,.F.);
#322=ORIENTED_EDGE('',*,*,#243,.F.);
#323=ORIENTED_EDGE('',*,*,#249,.T.);
#324=ORIENTED_EDGE('',*,*,#250,.T.);
#325=ORIENTED_EDGE('',*,*,#251,.T.);
#326=ORIENTED_EDGE('',*,*,#252,.T.);
#327=ORIENTED_EDGE('',*,*,#247,.T.);
#328=ORIENTED_EDGE('',*,*,#253,.T.);
#329=ORIENTED_EDGE('',*,*,#252,.F.);
#330=ORIENTED_EDGE('',*,*,#254,.T.);
#331=ORIENTED_EDGE('',*,*,#255,.F.);
#332=ORIENTED_EDGE('',*,*,#248,.F.);
#333=ORIENTED_EDGE('',*,*,#241,.F.);
#334=ORIENTED_EDGE('',*,*,#245,.T.);
#335=ORIENTED_EDGE('',*,*,#256,.F.);
#336=ORIENTED_EDGE('',*,*,#254,.F.);
#337=ORIENTED_EDGE('',*,*,#251,.F.);
#338=ORIENTED_EDGE('',*,*,#257,.T.);
#339=ORIENTED_EDGE('',*,*,#258,.T.);
#340=ORIENTED_EDGE('',*,*,#259,.T.);
#341=ORIENTED_EDGE('',*,*,#259,.F.);
#342=ORIENTED_EDGE('',*,*,#260,.T.);
#343=ORIENTED_EDGE('',*,*,#250,.F.);
#344=ORIENTED_EDGE('',*,*,#260,.F.);
#345=ORIENTED_EDGE('',*,*,#258,.F.);
#346=ORIENTED_EDGE('',*,*,#261,.T.);
#347=ORIENTED_EDGE('',*,*,#249,.F.);
#348=ORIENTED_EDGE('',*,*,#261,.F.);
#349=ORIENTED_EDGE('',*,*,#227,.F.);
#350=ORIENTED_EDGE('',*,*,#262,.F.);
#351=ORIENTED_EDGE('',*,*,#209,.F.);
#352=ORIENTED_EDGE('',*,*,#263,.F.);
#353=ORIENTED_EDGE('',*,*,#233,.F.);
#354=ORIENTED_EDGE('',*,*,#226,.F.);
#355=ORIENTED_EDGE('',*,*,#232,.T.);
#356=ORIENTED_EDGE('',*,*,#238,.F.);
#357=ORIENTED_EDGE('',*,*,#223,.T.);
#358=ORIENTED_EDGE('',*,*,#220,.T.);
#359=ORIENTED_EDGE('',*,*,#212,.T.);
#360=ORIENTED_EDGE('',*,*,#262,.T.);
#361=ORIENTED_EDGE('',*,*,#219,.F.);
#362=ORIENTED_EDGE('',*,*,#264,.F.);
#363=ORIENTED_EDGE('',*,*,#244,.T.);
#364=ORIENTED_EDGE('',*,*,#217,.T.);
#365=ORIENTED_EDGE('',*,*,#256,.T.);
#366=ORIENTED_EDGE('',*,*,#264,.T.);
#367=ORIENTED_EDGE('',*,*,#218,.T.);
#368=ORIENTED_EDGE('',*,*,#236,.T.);
#369=ORIENTED_EDGE('',*,*,#235,.T.);
#370=ORIENTED_EDGE('',*,*,#234,.T.);
#371=ORIENTED_EDGE('',*,*,#265,.F.);
#372=ORIENTED_EDGE('',*,*,#255,.T.);
#373=ORIENTED_EDGE('',*,*,#265,.T.);
#374=ORIENTED_EDGE('',*,*,#263,.T.);
#375=ORIENTED_EDGE('',*,*,#211,.F.);
#376=ORIENTED_EDGE('',*,*,#242,.F.);
#377=ORIENTED_EDGE('',*,*,#257,.F.);
#378=ORIENTED_EDGE('',*,*,#253,.F.);
#379=ORIENTED_EDGE('',*,*,#246,.F.);
#380=PLANE('',#434);
#381=PLANE('',#444);
#382=PLANE('',#451);
#383=PLANE('',#452);
#384=PLANE('',#458);
#385=PLANE('',#459);
#386=PLANE('',#464);
#387=PLANE('',#465);
#388=PLANE('',#466);
#389=ADVANCED_FACE('',(#57),#380,.T.);
#390=ADVANCED_FACE('',(#58),#51,.T.);
#391=ADVANCED_FACE('',(#59),#52,.T.);
#392=ADVANCED_FACE('',(#60),#53,.T.);
#393=ADVANCED_FACE('',(#61),#35,.F.);
#394=ADVANCED_FACE('',(#62),#36,.T.);
#395=ADVANCED_FACE('',(#63),#37,.T.);
#396=ADVANCED_FACE('',(#64),#381,.T.);
#397=ADVANCED_FACE('',(#65),#38,.T.);
#398=ADVANCED_FACE('',(#66),#39,.T.);
#399=ADVANCED_FACE('',(#67),#382,.T.);
#400=ADVANCED_FACE('',(#68,#15,#16),#383,.T.);
#401=ADVANCED_FACE('',(#69),#40,.T.);
#402=ADVANCED_FACE('',(#70),#384,.T.);
#403=ADVANCED_FACE('',(#71,#17,#18),#385,.T.);
#404=ADVANCED_FACE('',(#72),#41,.F.);
#405=ADVANCED_FACE('',(#73),#42,.F.);
#406=ADVANCED_FACE('',(#74),#386,.T.);
#407=ADVANCED_FACE('',(#75),#387,.F.);
#408=ADVANCED_FACE('',(#76),#54,.F.);
#409=ADVANCED_FACE('',(#77),#55,.F.);
#410=ADVANCED_FACE('',(#78),#56,.F.);
#411=ADVANCED_FACE('',(#79),#388,.F.);
#412=CLOSED_SHELL('',(#389,#390,#391,#392,#393,#394,#395,#396,#397,#398,
#399,#400,#401,#402,#403,#404,#405,#406,#407,#408,#409,#410,#411));
#413=DERIVED_UNIT_ELEMENT(#415,1.);
#414=DERIVED_UNIT_ELEMENT(#877,-3.);
#415=(
CONVERSION_BASED_UNIT('gram',#417)
MASS_UNIT()
NAMED_UNIT(#874)
);
#416=(
MASS_UNIT()
NAMED_UNIT(*)
SI_UNIT(.KILO.,.GRAM.)
);
#417=MASS_MEASURE_WITH_UNIT(MASS_MEASURE(0.001),#416);
#418=DERIVED_UNIT((#413,#414));
#419=MEASURE_REPRESENTATION_ITEM('density measure',
POSITIVE_RATIO_MEASURE(1.425),#418);
#420=PROPERTY_DEFINITION_REPRESENTATION(#425,#422);
#421=PROPERTY_DEFINITION_REPRESENTATION(#426,#423);
#422=REPRESENTATION('material name',(#424),#871);
#423=REPRESENTATION('density',(#419),#871);
#424=DESCRIPTIVE_REPRESENTATION_ITEM('Acetal Resin, Black',
'Acetal Resin, Black');
#425=PROPERTY_DEFINITION('material property','material name',#885);
#426=PROPERTY_DEFINITION('material property','density of part',#885);
#427=DATE_TIME_ROLE('creation_date');
#428=APPLIED_DATE_AND_TIME_ASSIGNMENT(#429,#427,(#885));
#429=DATE_AND_TIME(#430,#431);
#430=CALENDAR_DATE(2026,5,1);
#431=LOCAL_TIME(0,0,0.,#432);
#432=COORDINATED_UNIVERSAL_TIME_OFFSET(0,0,.BEHIND.);
#433=AXIS2_PLACEMENT_3D('',#568,#467,#468);
#434=AXIS2_PLACEMENT_3D('',#569,#469,#470);
#435=AXIS2_PLACEMENT_3D('',#734,#478,#479);
#436=AXIS2_PLACEMENT_3D('',#736,#480,#481);
#437=AXIS2_PLACEMENT_3D('',#739,#483,#484);
#438=AXIS2_PLACEMENT_3D('',#740,#485,#486);
#439=AXIS2_PLACEMENT_3D('',#743,#487,#488);
#440=AXIS2_PLACEMENT_3D('',#747,#490,#491);
#441=AXIS2_PLACEMENT_3D('',#749,#493,#494);
#442=AXIS2_PLACEMENT_3D('',#751,#495,#496);
#443=AXIS2_PLACEMENT_3D('',#754,#498,#499);
#444=AXIS2_PLACEMENT_3D('',#755,#500,#501);
#445=AXIS2_PLACEMENT_3D('',#766,#505,#506);
#446=AXIS2_PLACEMENT_3D('',#767,#507,#508);
#447=AXIS2_PLACEMENT_3D('',#768,#509,#510);
#448=AXIS2_PLACEMENT_3D('',#769,#511,#512);
#449=AXIS2_PLACEMENT_3D('',#772,#513,#514);
#450=AXIS2_PLACEMENT_3D('',#776,#516,#517);
#451=AXIS2_PLACEMENT_3D('',#778,#519,#520);
#452=AXIS2_PLACEMENT_3D('',#783,#524,#525);
#453=AXIS2_PLACEMENT_3D('',#787,#527,#528);
#454=AXIS2_PLACEMENT_3D('',#790,#530,#531);
#455=AXIS2_PLACEMENT_3D('',#792,#532,#533);
#456=AXIS2_PLACEMENT_3D('',#793,#534,#535);
#457=AXIS2_PLACEMENT_3D('',#796,#536,#537);
#458=AXIS2_PLACEMENT_3D('',#799,#540,#541);
#459=AXIS2_PLACEMENT_3D('',#803,#544,#545);
#460=AXIS2_PLACEMENT_3D('',#807,#548,#549);
#461=AXIS2_PLACEMENT_3D('',#809,#550,#551);
#462=AXIS2_PLACEMENT_3D('',#810,#552,#553);
#463=AXIS2_PLACEMENT_3D('',#812,#555,#556);
#464=AXIS2_PLACEMENT_3D('',#814,#558,#559);
#465=AXIS2_PLACEMENT_3D('',#817,#562,#563);
#466=AXIS2_PLACEMENT_3D('',#868,#566,#567);
#467=DIRECTION('axis',(0.,0.,1.));
#468=DIRECTION('refdir',(1.,0.,0.));
#469=DIRECTION('center_axis',(-0.907412873964328,-0.420240260046321,0.));
#470=DIRECTION('ref_axis',(0.,0.,1.));
#471=DIRECTION('',(0.,0.,-1.));
#472=DIRECTION('',(0.420208575789319,-0.907344459046864,0.0122794735256017));
#473=DIRECTION('',(-0.4200103747821,0.906916489233683,0.0330721428312533));
#474=DIRECTION('',(-1.,0.,0.));
#475=DIRECTION('',(0.354180006130087,-0.929954776292793,0.0986946670692635));
#476=DIRECTION('',(-0.831469612302546,0.,-0.555570233019602));
#477=DIRECTION('',(-0.398390123913521,0.915774668922895,-0.0514010206837417));
#478=DIRECTION('center_axis',(0.,0.,-1.));
#479=DIRECTION('ref_axis',(-0.382869467761991,-0.923802452181011,0.));
#480=DIRECTION('center_axis',(0.,0.,1.));
#481=DIRECTION('ref_axis',(-0.382869467761991,-0.923802452181011,0.));
#482=DIRECTION('',(0.,0.,-1.));
#483=DIRECTION('center_axis',(0.,0.,-1.));
#484=DIRECTION('ref_axis',(-0.382869467761991,-0.923802452181011,0.));
#485=DIRECTION('center_axis',(0.,0.,-1.));
#486=DIRECTION('ref_axis',(-0.925844902364467,0.377903713617278,0.));
#487=DIRECTION('center_axis',(0.,0.,1.));
#488=DIRECTION('ref_axis',(-0.925844902364467,0.377903713617278,0.));
#489=DIRECTION('',(0.,0.,1.));
#490=DIRECTION('center_axis',(0.,0.,-1.));
#491=DIRECTION('ref_axis',(-0.925844902364467,0.377903713617278,0.));
#492=DIRECTION('',(0.,0.,-1.));
#493=DIRECTION('center_axis',(0.,0.,-1.));
#494=DIRECTION('ref_axis',(0.741948300404544,0.670457097454274,0.));
#495=DIRECTION('center_axis',(0.,0.,1.));
#496=DIRECTION('ref_axis',(0.741948300404544,0.670457097454274,0.));
#497=DIRECTION('',(0.,0.,1.));
#498=DIRECTION('center_axis',(0.,0.,-1.));
#499=DIRECTION('ref_axis',(0.741948300404544,0.670457097454274,0.));
#500=DIRECTION('center_axis',(0.,0.,1.));
#501=DIRECTION('ref_axis',(1.,0.,0.));
#502=DIRECTION('',(3.08645052177709E-16,-1.,0.));
#503=DIRECTION('',(-1.,0.,1.31128703695885E-16));
#504=DIRECTION('',(-1.,0.,1.31128703695885E-16));
#505=DIRECTION('center_axis',(0.,0.,-1.));
#506=DIRECTION('ref_axis',(0.897425684129482,-0.441165662155081,0.));
#507=DIRECTION('center_axis',(0.,0.,-1.));
#508=DIRECTION('ref_axis',(0.897425684129482,-0.441165662155081,0.));
#509=DIRECTION('center_axis',(0.,0.,1.));
#510=DIRECTION('ref_axis',(0.897425684129482,-0.441165662155081,0.));
#511=DIRECTION('center_axis',(0.555570233019602,0.,-0.831469612302545));
#512=DIRECTION('ref_axis',(0.587937801209679,-0.707106781186548,0.392847479193551));
#513=DIRECTION('center_axis',(-0.555570233019602,0.,0.831469612302546));
#514=DIRECTION('ref_axis',(0.587937801209679,-0.707106781186548,0.392847479193551));
#515=DIRECTION('',(-0.555570233019602,0.,0.831469612302545));
#516=DIRECTION('center_axis',(0.555570233019602,0.,-0.831469612302545));
#517=DIRECTION('ref_axis',(0.587937801209679,-0.707106781186548,0.392847479193551));
#518=DIRECTION('',(0.555570233019602,0.,-0.831469612302545));
#519=DIRECTION('center_axis',(0.831469612302545,0.,0.555570233019602));
#520=DIRECTION('ref_axis',(0.555570233019602,0.,-0.831469612302545));
#521=DIRECTION('',(0.,1.,0.));
#522=DIRECTION('',(0.555570233019602,0.,-0.831469612302545));
#523=DIRECTION('',(0.,1.,0.));
#524=DIRECTION('center_axis',(0.555570233019602,0.,-0.831469612302546));
#525=DIRECTION('ref_axis',(-0.831469612302546,0.,-0.555570233019602));
#526=DIRECTION('',(-0.831469612302546,0.,-0.555570233019602));
#527=DIRECTION('center_axis',(-0.555570233019602,0.,0.831469612302546));
#528=DIRECTION('ref_axis',(-0.58793780120968,-0.707106781186548,-0.392847479193551));
#529=DIRECTION('',(0.,1.,0.));
#530=DIRECTION('center_axis',(-0.555570233019602,0.,0.831469612302546));
#531=DIRECTION('ref_axis',(0.831469612302545,0.,0.555570233019602));
#532=DIRECTION('center_axis',(-0.555570233019602,0.,0.831469612302546));
#533=DIRECTION('ref_axis',(0.831469612302545,0.,0.555570233019602));
#534=DIRECTION('center_axis',(-0.555570233019602,0.,0.831469612302545));
#535=DIRECTION('ref_axis',(-0.58793780120968,-0.707106781186548,-0.392847479193551));
#536=DIRECTION('center_axis',(0.555570233019602,0.,-0.831469612302545));
#537=DIRECTION('ref_axis',(-0.58793780120968,-0.707106781186548,-0.392847479193551));
#538=DIRECTION('',(0.555570233019602,0.,-0.831469612302545));
#539=DIRECTION('',(-0.555570233019602,0.,0.831469612302545));
#540=DIRECTION('center_axis',(-0.831469612302545,0.,-0.555570233019602));
#541=DIRECTION('ref_axis',(-0.555570233019602,0.,0.831469612302545));
#542=DIRECTION('',(0.,1.,0.));
#543=DIRECTION('',(-0.555570233019602,0.,0.831469612302545));
#544=DIRECTION('center_axis',(-0.555570233019602,0.,0.831469612302545));
#545=DIRECTION('ref_axis',(0.831469612302545,0.,0.555570233019602));
#546=DIRECTION('',(0.831469612302545,0.,0.555570233019602));
#547=DIRECTION('',(0.831469612302545,0.,0.555570233019602));
#548=DIRECTION('center_axis',(0.555570233019602,0.,-0.831469612302545));
#549=DIRECTION('ref_axis',(0.831469612302545,0.,0.555570233019602));
#550=DIRECTION('center_axis',(0.555570233019602,0.,-0.831469612302545));
#551=DIRECTION('ref_axis',(0.831469612302545,0.,0.555570233019602));
#552=DIRECTION('center_axis',(0.555570233019602,0.,-0.831469612302545));
#553=DIRECTION('ref_axis',(0.831469612302545,0.,0.555570233019602));
#554=DIRECTION('',(0.555570233019602,0.,-0.831469612302546));
#555=DIRECTION('center_axis',(0.555570233019602,0.,-0.831469612302545));
#556=DIRECTION('ref_axis',(0.831469612302545,0.,0.555570233019602));
#557=DIRECTION('',(0.555570233019602,0.,-0.831469612302545));
#558=DIRECTION('center_axis',(-1.,-3.08645052177709E-16,0.));
#559=DIRECTION('ref_axis',(-3.08645052177709E-16,1.,0.));
#560=DIRECTION('',(-3.08645052177709E-16,1.,0.));
#561=DIRECTION('',(0.,0.,-1.));
#562=DIRECTION('center_axis',(0.,0.,1.));
#563=DIRECTION('ref_axis',(1.,0.,0.));
#564=DIRECTION('',(-0.346982724361624,0.93724854562515,-0.0341782491963408));
#565=DIRECTION('',(-0.36952882707904,0.92775900829769,0.0520736831813945));
#566=DIRECTION('center_axis',(0.,1.,0.));
#567=DIRECTION('ref_axis',(0.,0.,1.));
#568=CARTESIAN_POINT('',(0.,0.,0.));
#569=CARTESIAN_POINT('Origin',(-1.5,6.,-0.175));
#570=CARTESIAN_POINT('',(-1.5,6.,-0.175));
#571=CARTESIAN_POINT('',(-1.5,6.,-0.325));
#572=CARTESIAN_POINT('',(-1.5,6.,0.175));
#573=CARTESIAN_POINT('',(-0.110642612297206,3.,-0.284399740407846));
#574=CARTESIAN_POINT('',(-1.5,6.,-0.325));
#575=CARTESIAN_POINT('',(-0.110642612297206,3.,-0.284399740407846));
#576=CARTESIAN_POINT('Ctrl Pts',(-1.5,6.,-0.325));
#577=CARTESIAN_POINT('Ctrl Pts',(-1.03688087076574,5.,-0.311466580135949));
#578=CARTESIAN_POINT('Ctrl Pts',(-0.573761741531471,4.,-0.297933160271897));
#579=CARTESIAN_POINT('Ctrl Pts',(-0.110642612297206,3.,-0.284399740407846));
#580=CARTESIAN_POINT('Ctrl Pts',(-1.27915983850696,6.,-0.325));
#581=CARTESIAN_POINT('Ctrl Pts',(-0.843461340198014,5.,-0.280601567190415));
#582=CARTESIAN_POINT('Ctrl Pts',(-0.407762841889064,4.,-0.23620313438083));
#583=CARTESIAN_POINT('Ctrl Pts',(0.027935656419885,3.,-0.191804701571246));
#584=CARTESIAN_POINT('Ctrl Pts',(-1.05831967701392,6.,-0.325));
#585=CARTESIAN_POINT('Ctrl Pts',(-0.65004180963029,5.,-0.249736554244882));
#586=CARTESIAN_POINT('Ctrl Pts',(-0.241763942246658,4.,-0.174473108489764));
#587=CARTESIAN_POINT('Ctrl Pts',(0.166513925136976,3.,-0.0992096627346453));
#588=CARTESIAN_POINT('Ctrl Pts',(-0.837479515520887,6.,-0.325));
#589=CARTESIAN_POINT('Ctrl Pts',(-0.456622279062569,5.,-0.218871541299348));
#590=CARTESIAN_POINT('Ctrl Pts',(-0.0757650426042509,4.,-0.112743082598697));
#591=CARTESIAN_POINT('Ctrl Pts',(0.305092193854067,3.,-0.00661462389804501));
#592=CARTESIAN_POINT('',(-0.837479515520887,6.,-0.325));
#593=CARTESIAN_POINT('',(-0.486134262372025,6.,-0.325));
#594=CARTESIAN_POINT('',(0.305092193854067,3.,-0.00661462389804501));
#595=CARTESIAN_POINT('',(-0.837479515520887,6.,-0.325));
#596=CARTESIAN_POINT('',(0.305092193854067,3.,-0.006614623898045));
#597=CARTESIAN_POINT('Ctrl Pts',(-0.837479515520887,6.,-0.325));
#598=CARTESIAN_POINT('Ctrl Pts',(-0.456622279062569,5.,-0.218871541299348));
#599=CARTESIAN_POINT('Ctrl Pts',(-0.0757650426042509,4.,-0.112743082598697));
#600=CARTESIAN_POINT('Ctrl Pts',(0.305092193854067,3.,-0.00661462389804501));
#601=CARTESIAN_POINT('Ctrl Pts',(-0.838698509549974,6.,-0.298579673364174));
#602=CARTESIAN_POINT('Ctrl Pts',(-0.533481000943725,5.17482138044029,-0.211070617320387));
#603=CARTESIAN_POINT('Ctrl Pts',(-0.228268734135175,4.34960920107119,-0.123559160177558));
#604=CARTESIAN_POINT('Ctrl Pts',(0.0769487744710735,3.52443058151148,-0.0360501041337708));
#605=CARTESIAN_POINT('Ctrl Pts',(-0.840720963325811,6.,-0.254555116074056));
#606=CARTESIAN_POINT('Ctrl Pts',(-0.661580820512685,5.46613855540721,-0.198071585753578));
#607=CARTESIAN_POINT('Ctrl Pts',(-0.482488575338612,4.93203301167398,-0.141573626947248));
#608=CARTESIAN_POINT('Ctrl Pts',(-0.303348432525486,4.39817156708119,-0.0850900966267698));
#609=CARTESIAN_POINT('Ctrl Pts',(-0.842727476894022,6.,-0.210550525755517));
#610=CARTESIAN_POINT('Ctrl Pts',(-0.78965824307446,5.75753122103014,-0.185091264953795));
#611=CARTESIAN_POINT('Ctrl Pts',(-0.736522366849877,5.51547054121264,-0.159664678820145));
#612=CARTESIAN_POINT('Ctrl Pts',(-0.683453133030315,5.27300176224278,-0.134205418018423));
#613=CARTESIAN_POINT('Ctrl Pts',(-0.843690698876576,6.,-0.189361627620933));
#614=CARTESIAN_POINT('Ctrl Pts',(-0.851351478786913,5.89779817331768,-0.178837506918245));
#615=CARTESIAN_POINT('Ctrl Pts',(-0.859073654245339,5.79535310986044,-0.168307739501846));
#616=CARTESIAN_POINT('Ctrl Pts',(-0.866734434155676,5.69315128317813,-0.157783618799159));
#617=CARTESIAN_POINT('Ctrl Pts',(-0.843962567976869,6.,-0.183377332757163));
#618=CARTESIAN_POINT('Ctrl Pts',(-0.859306313486552,5.94127369978515,-0.176505362722037));
#619=CARTESIAN_POINT('Ctrl Pts',(-0.874621902961305,5.88270031112159,-0.169648688294483));
#620=CARTESIAN_POINT('Ctrl Pts',(-0.889965648470988,5.82397401090675,-0.162776718259357));
#621=CARTESIAN_POINT('Ctrl Pts',(-0.844234133331783,6.,-0.177393473193168));
#622=CARTESIAN_POINT('Ctrl Pts',(-0.850388260424918,5.98396583790374,-0.175227076370209));
#623=CARTESIAN_POINT('Ctrl Pts',(-0.856617371706942,5.96764672043722,-0.173055658916946));
#624=CARTESIAN_POINT('Ctrl Pts',(-0.862771498800076,5.95161255834096,-0.170889262093987));
#625=CARTESIAN_POINT('Ctrl Pts',(-0.844342710716036,6.,-0.175000000205792));
#626=CARTESIAN_POINT('Ctrl Pts',(-0.844342710574188,6.00000000038061,-0.17500000016953));
#627=CARTESIAN_POINT('Ctrl Pts',(-0.84434271043234,6.00000000076122,-0.175000000133267));
#628=CARTESIAN_POINT('Ctrl Pts',(-0.844342710290492,6.00000000114184,-0.175000000097005));
#629=CARTESIAN_POINT('',(-0.844342709957134,6.00000000100856,-0.175000000171364));
#630=CARTESIAN_POINT('Ctrl Pts',(-0.844342710716036,6.,-0.175000000205792));
#631=CARTESIAN_POINT('Ctrl Pts',(-0.844234133331783,6.,-0.177393473193168));
#632=CARTESIAN_POINT('Ctrl Pts',(-0.844125507189818,6.,-0.179787017018766));
#633=CARTESIAN_POINT('Ctrl Pts',(-0.844016832448592,6.,-0.182180630492328));
#634=CARTESIAN_POINT('Ctrl Pts',(-0.843853820336752,6.,-0.185771050702671));
#635=CARTESIAN_POINT('Ctrl Pts',(-0.843690698876576,6.,-0.189361627620933));
#636=CARTESIAN_POINT('Ctrl Pts',(-0.843527468600478,6.,-0.192952357229868));
#637=CARTESIAN_POINT('Ctrl Pts',(-0.842727476894022,6.,-0.210550525755517));
#638=CARTESIAN_POINT('Ctrl Pts',(-0.841924871466737,6.,-0.228152361882932));
#639=CARTESIAN_POINT('Ctrl Pts',(-0.841119715606233,6.,-0.245757392725801));
#640=CARTESIAN_POINT('Ctrl Pts',(-0.839911981815476,6.,-0.272164938990103));
#641=CARTESIAN_POINT('Ctrl Pts',(-0.838698509549974,6.,-0.298579673364174));
#642=CARTESIAN_POINT('Ctrl Pts',(-0.837479515520887,6.,-0.325));
#643=CARTESIAN_POINT('',(-0.835624903060901,5.6221529075574,-0.153792025076674));
#644=CARTESIAN_POINT('Ctrl Pts',(-0.835675075120818,5.62195157683095,-0.153787991318623));
#645=CARTESIAN_POINT('Ctrl Pts',(-0.866734434155676,5.69315128317813,-0.157783618799158));
#646=CARTESIAN_POINT('Ctrl Pts',(-0.880673162744863,5.7716449198153,-0.160779478475277));
#647=CARTESIAN_POINT('Ctrl Pts',(-0.87645876029901,5.84899225154648,-0.164898338126192));
#648=CARTESIAN_POINT('Ctrl Pts',(-0.873649158668441,5.90055713936727,-0.167644244560135));
#649=CARTESIAN_POINT('Ctrl Pts',(-0.862771498800076,5.95161255834096,-0.170889262093987));
#650=CARTESIAN_POINT('Ctrl Pts',(-0.844342710290492,6.00000000114184,-0.175000000097005));
#651=CARTESIAN_POINT('',(0.305092193854067,3.,-0.006614623898045));
#652=CARTESIAN_POINT('Ctrl Pts',(-0.817046853799806,5.61382373746087,-0.357896568152447));
#653=CARTESIAN_POINT('Ctrl Pts',(-0.833771975735379,5.62098127236442,-0.175976720663992));
#654=CARTESIAN_POINT('Ctrl Pts',(-0.850092445166919,5.62886145082314,0.00605744614800886));
#655=CARTESIAN_POINT('Ctrl Pts',(-0.865773896770102,5.63743664682844,0.188221445572789));
#656=CARTESIAN_POINT('Ctrl Pts',(-0.848186719821247,5.67883088667589,-0.357625518411422));
#657=CARTESIAN_POINT('Ctrl Pts',(-0.862329002139496,5.68538970966575,-0.175547661580148));
#658=CARTESIAN_POINT('Ctrl Pts',(-0.876076030813374,5.69251368827776,0.00663465934935906));
#659=CARTESIAN_POINT('Ctrl Pts',(-0.889203466805208,5.70016777448043,0.188933829484309));
#660=CARTESIAN_POINT('Ctrl Pts',(-0.881743580518374,5.82226445485126,-0.354994269686223));
#661=CARTESIAN_POINT('Ctrl Pts',(-0.891680577202803,5.82617670763301,-0.172709604478728));
#662=CARTESIAN_POINT('Ctrl Pts',(-0.901295704887853,5.83044367629303,0.00965678983565785));
#663=CARTESIAN_POINT('Ctrl Pts',(-0.91039593143075,5.83496856529947,0.192110379440763));
#664=CARTESIAN_POINT('Ctrl Pts',(-0.830567160108661,6.07539213090042,-0.343965171613863));
#665=CARTESIAN_POINT('Ctrl Pts',(-0.838229149177359,6.07249626919446,-0.161722914420574));
#666=CARTESIAN_POINT('Ctrl Pts',(-0.84565414215782,6.06969934358666,0.0205622563976075));
#667=CARTESIAN_POINT('Ctrl Pts',(-0.852809865639651,6.06701385844336,0.202888402135162));
#668=CARTESIAN_POINT('Ctrl Pts',(-0.702856491061232,6.2150813294139,-0.332125277960512));
#669=CARTESIAN_POINT('Ctrl Pts',(-0.713489973003353,6.20843474314513,-0.150187725447855));
#670=CARTESIAN_POINT('Ctrl Pts',(-0.724027314046095,6.20187490623752,0.031765499738215));
#671=CARTESIAN_POINT('Ctrl Pts',(-0.734259256975933,6.19527039931583,0.21374095869144));
#672=CARTESIAN_POINT('Ctrl Pts',(-0.608368655905032,6.26715427162399,-0.325));
#673=CARTESIAN_POINT('Ctrl Pts',(-0.621509643773034,6.25991217637752,-0.143249257173476));
#674=CARTESIAN_POINT('Ctrl Pts',(-0.634523719576994,6.25258530083396,0.0385052069565693));
#675=CARTESIAN_POINT('Ctrl Pts',(-0.647348967917302,6.24521503077034,0.22026708604016));
#676=CARTESIAN_POINT('',(-0.865773896770102,5.63743664682844,0.188221445572789));
#677=CARTESIAN_POINT('',(-0.859882583219903,6.,0.175));
#678=CARTESIAN_POINT('Ctrl Pts',(-0.859882583219903,6.,0.175));
#679=CARTESIAN_POINT('Ctrl Pts',(-0.867136406948425,5.98220221601055,0.176110847538548));
#680=CARTESIAN_POINT('Ctrl Pts',(-0.873379295135178,5.96396003573081,0.177113279148656));
#681=CARTESIAN_POINT('Ctrl Pts',(-0.892622699133628,5.89489525792747,0.180479353776537));
#682=CARTESIAN_POINT('Ctrl Pts',(-0.898674596421163,5.84255104972401,0.182177028977705));
#683=CARTESIAN_POINT('Ctrl Pts',(-0.894283889902334,5.73797464711406,0.185153613807587));
#684=CARTESIAN_POINT('Ctrl Pts',(-0.88391481069512,5.68643777569967,0.186434541980054));
#685=CARTESIAN_POINT('Ctrl Pts',(-0.865773896770102,5.63743664682844,0.188221445572789));
#686=CARTESIAN_POINT('Ctrl Pts',(-0.865773896770102,5.63743664682844,0.188221445572789));
#687=CARTESIAN_POINT('Ctrl Pts',(-0.855955631796077,5.63206765748264,0.0741673094928391));
#688=CARTESIAN_POINT('Ctrl Pts',(-0.845886865542781,5.62697112185691,-0.0398359309248162));
#689=CARTESIAN_POINT('Ctrl Pts',(-0.835625120650965,5.62215382048065,-0.153792083262915));
#690=CARTESIAN_POINT('',(-0.608368655905031,6.26715427162399,-0.325));
#691=CARTESIAN_POINT('Ctrl Pts',(-0.837428059088101,5.99996050527007,-0.324998279134654));
#692=CARTESIAN_POINT('Ctrl Pts',(-0.833415568037585,6.01096229698642,-0.324998717672371));
#693=CARTESIAN_POINT('Ctrl Pts',(-0.829019599051831,6.02180343447689,-0.324999063813515));
#694=CARTESIAN_POINT('Ctrl Pts',(-0.824245167684421,6.03246238175956,-0.324999076512891));
#695=CARTESIAN_POINT('Ctrl Pts',(-0.813428871382459,6.05660982952964,-0.324999105282855));
#696=CARTESIAN_POINT('Ctrl Pts',(-0.800673442159327,6.07982393698777,-0.324997556855623));
#697=CARTESIAN_POINT('Ctrl Pts',(-0.78616436376498,6.10193348566582,-0.324996443315679));
#698=CARTESIAN_POINT('Ctrl Pts',(-0.774895054451003,6.11910613688966,-0.324995578420906));
#699=CARTESIAN_POINT('Ctrl Pts',(-0.762566592038247,6.13561225645538,-0.324994910755395));
#700=CARTESIAN_POINT('Ctrl Pts',(-0.749248478383641,6.15135876055708,-0.324994782459982));
#701=CARTESIAN_POINT('Ctrl Pts',(-0.732098911387345,6.17163533530729,-0.324994617255597));
#702=CARTESIAN_POINT('Ctrl Pts',(-0.713432539615289,6.19050827168907,-0.324995300831392));
#703=CARTESIAN_POINT('Ctrl Pts',(-0.693429384074735,6.20780676295288,-0.324996431590023));
#704=CARTESIAN_POINT('Ctrl Pts',(-0.673691314634932,6.22487601090611,-0.324997547363597));
#705=CARTESIAN_POINT('Ctrl Pts',(-0.652650691973325,6.24041314984987,-0.324999014490186));
#706=CARTESIAN_POINT('Ctrl Pts',(-0.630446804163266,6.25421755830703,-0.324999664258173));
#707=CARTESIAN_POINT('Ctrl Pts',(-0.62320977761434,6.25871689965442,-0.324999876040371));
#708=CARTESIAN_POINT('Ctrl Pts',(-0.615848964040302,6.26303181869026,-0.325));
#709=CARTESIAN_POINT('Ctrl Pts',(-0.608368655905032,6.26715427162399,-0.325));
#710=CARTESIAN_POINT('',(-0.644151003137927,6.24704966585101,0.175000000002671));
#711=CARTESIAN_POINT('Ctrl Pts',(-0.608368655905032,6.26715427162399,-0.325));
#712=CARTESIAN_POINT('Ctrl Pts',(-0.620418736203964,6.26051338357744,-0.158337412114728));
#713=CARTESIAN_POINT('Ctrl Pts',(-0.632362101185463,6.25380120714405,0.00832830486697269));
#714=CARTESIAN_POINT('Ctrl Pts',(-0.644151010624684,6.24704965306514,0.174999998955191));
#715=CARTESIAN_POINT('Ctrl Pts',(-0.644151010668,6.24704965304034,0.17499999956759));
#716=CARTESIAN_POINT('Ctrl Pts',(-0.66687568851814,6.23403698561589,0.174999966222969));
#717=CARTESIAN_POINT('Ctrl Pts',(-0.688451363218199,6.21924640235472,0.175000877292469));
#718=CARTESIAN_POINT('Ctrl Pts',(-0.708746803827421,6.20289291361118,0.175001788253087));
#719=CARTESIAN_POINT('Ctrl Pts',(-0.729333645108344,6.18630462249521,0.17500271229322));
#720=CARTESIAN_POINT('Ctrl Pts',(-0.748604202559417,6.16810733023442,0.175003551898666));
#721=CARTESIAN_POINT('Ctrl Pts',(-0.766391051447982,6.14848255463388,0.175003643207558));
#722=CARTESIAN_POINT('Ctrl Pts',(-0.77476802247095,6.13923998572424,0.175003686210787));
#723=CARTESIAN_POINT('Ctrl Pts',(-0.782815369778731,6.12968026274058,0.17500357574855));
#724=CARTESIAN_POINT('Ctrl Pts',(-0.790512337542292,6.11981999727389,0.175003350309891));
#725=CARTESIAN_POINT('Ctrl Pts',(-0.806865649670456,6.09887044885473,0.175002871333121));
#726=CARTESIAN_POINT('Ctrl Pts',(-0.821515123726068,6.07672614408638,0.175001667882378));
#727=CARTESIAN_POINT('Ctrl Pts',(-0.834306845979214,6.05358044055746,0.17500099663188));
#728=CARTESIAN_POINT('Ctrl Pts',(-0.838933132857741,6.04520950641654,0.175000753865713));
#729=CARTESIAN_POINT('Ctrl Pts',(-0.843316063515272,6.03670725543406,0.17500059041911));
#730=CARTESIAN_POINT('Ctrl Pts',(-0.847446995101201,6.02808184365738,0.175000610763981));
#731=CARTESIAN_POINT('Ctrl Pts',(-0.85186950728778,6.01884760970721,0.175000632544889));
#732=CARTESIAN_POINT('Ctrl Pts',(-0.856003205950682,6.00947220950311,0.175000863905189));
#733=CARTESIAN_POINT('Ctrl Pts',(-0.859845190665133,5.99997034778671,0.175001150064998));
#734=CARTESIAN_POINT('Origin',(0.598289281106921,4.07763911455244,0.175));
#735=CARTESIAN_POINT('',(1.23020490491277,6.49645755428496,-0.325));
#736=CARTESIAN_POINT('Origin',(0.598289281106921,4.07763911455244,-0.325));
#737=CARTESIAN_POINT('',(1.23020490491277,6.49645755428496,0.175));
#738=CARTESIAN_POINT('',(1.23020490491277,6.49645755428496,0.175));
#739=CARTESIAN_POINT('Origin',(0.598289281106921,4.07763911455244,0.175));
#740=CARTESIAN_POINT('Origin',(-1.,6.0958717306079,0.175));
#741=CARTESIAN_POINT('',(-1.35718878323427,6.44575195744506,-0.325));
#742=CARTESIAN_POINT('',(-1.5,6.0958717306079,-0.325));
#743=CARTESIAN_POINT('Origin',(-1.,6.0958717306079,-0.325));
#744=CARTESIAN_POINT('',(-1.5,6.0958717306079,0.175));
#745=CARTESIAN_POINT('',(-1.5,6.0958717306079,0.175));
#746=CARTESIAN_POINT('',(-1.35718878323427,6.44575195744506,0.175));
#747=CARTESIAN_POINT('Origin',(-1.,6.0958717306079,0.175));
#748=CARTESIAN_POINT('',(-1.35718878323427,6.44575195744506,0.175));
#749=CARTESIAN_POINT('Origin',(0.0715663497028114,5.04623105009642,0.175));
#750=CARTESIAN_POINT('',(1.29504273819542,6.62835162919306,0.175));
#751=CARTESIAN_POINT('Origin',(0.0715663497028114,5.04623105009642,0.175));
#752=CARTESIAN_POINT('',(1.29504273819542,6.62835162919306,-0.325));
#753=CARTESIAN_POINT('',(1.29504273819542,6.62835162919306,0.175));
#754=CARTESIAN_POINT('Origin',(0.0715663497028114,5.04623105009642,-0.325));
#755=CARTESIAN_POINT('Origin',(0.0277314752559494,6.52311552504821,0.175));
#756=CARTESIAN_POINT('',(-1.5,6.,0.175));
#757=CARTESIAN_POINT('',(-1.5,6.28323517639584,0.175));
#758=CARTESIAN_POINT('',(-1.19691433036872,6.,0.175));
#759=CARTESIAN_POINT('',(-1.5,6.,0.175));
#760=CARTESIAN_POINT('',(-1.,6.,0.175));
#761=CARTESIAN_POINT('',(-1.5,6.,0.175));
#762=CARTESIAN_POINT('Ctrl Pts',(-1.,6.,0.175));
#763=CARTESIAN_POINT('Ctrl Pts',(-0.953294194406634,5.99999999999999,0.175));
#764=CARTESIAN_POINT('Ctrl Pts',(-0.906588388813269,5.99999999999999,0.175));
#765=CARTESIAN_POINT('Ctrl Pts',(-0.859882583219903,5.99999999999999,0.175));
#766=CARTESIAN_POINT('Origin',(1.24916237362695,6.56902210747694,0.175));
#767=CARTESIAN_POINT('Origin',(1.24916237362695,6.56902210747694,0.175));
#768=CARTESIAN_POINT('Origin',(1.24916237362695,6.56902210747694,-0.325));
#769=CARTESIAN_POINT('Origin',(0.0553213061486031,0.125,0.142199870203923));
#770=CARTESIAN_POINT('',(0.201158492316249,0.,-0.0760609030254952));
#771=CARTESIAN_POINT('',(0.305092193854067,0.125,-0.006614623898045));
#772=CARTESIAN_POINT('Origin',(0.201158492316249,0.125,-0.0760609030254952));
#773=CARTESIAN_POINT('',(0.110642612297206,0.125,0.284399740407846));
#774=CARTESIAN_POINT('',(0.159255007686421,0.125,0.211646149331373));
#775=CARTESIAN_POINT('',(0.00670891075938787,0.,0.214953461280396));
#776=CARTESIAN_POINT('Origin',(0.00670891075938785,0.125,0.214953461280396));
#777=CARTESIAN_POINT('',(0.0553213061486031,0.,0.142199870203923));
#778=CARTESIAN_POINT('Origin',(0.110642612297206,0.,0.284399740407846));
#779=CARTESIAN_POINT('',(0.305092193854067,0.,-0.006614623898045));
#780=CARTESIAN_POINT('',(0.110642612297206,3.,0.284399740407846));
#781=CARTESIAN_POINT('',(0.110642612297206,3.,0.284399740407846));
#782=CARTESIAN_POINT('',(0.110642612297206,0.,0.284399740407846));
#783=CARTESIAN_POINT('Origin',(0.305092193854067,0.,-0.006614623898045));
#784=CARTESIAN_POINT('',(-0.00670891075938787,0.,-0.214953461280396));
#785=CARTESIAN_POINT('',(0.305092193854067,0.,-0.006614623898045));
#786=CARTESIAN_POINT('',(-0.110642612297206,0.125,-0.284399740407846));
#787=CARTESIAN_POINT('Origin',(-0.00670891075938784,0.125,-0.214953461280396));
#788=CARTESIAN_POINT('',(-0.110642612297206,0.,-0.284399740407846));
#789=CARTESIAN_POINT('',(0.0257184041204115,0.25,-0.193286222192631));
#790=CARTESIAN_POINT('Origin',(0.0972247907784304,0.25,-0.145507182152946));
#791=CARTESIAN_POINT('',(0.0257184041204114,2.75,-0.193286222192631));
#792=CARTESIAN_POINT('Origin',(0.0972247907784304,2.75,-0.145507182152946));
#793=CARTESIAN_POINT('Origin',(-0.055321306148603,0.125,-0.142199870203923));
#794=CARTESIAN_POINT('',(-0.201158492316248,0.,0.0760609030254952));
#795=CARTESIAN_POINT('',(-0.305092193854067,0.125,0.006614623898045));
#796=CARTESIAN_POINT('Origin',(-0.201158492316249,0.125,0.0760609030254952));
#797=CARTESIAN_POINT('',(-0.159255007686421,0.125,-0.211646149331373));
#798=CARTESIAN_POINT('',(-0.055321306148603,0.,-0.142199870203923));
#799=CARTESIAN_POINT('Origin',(-0.110642612297206,0.,-0.284399740407846));
#800=CARTESIAN_POINT('',(-0.305092193854067,3.,0.00661462389804501));
#801=CARTESIAN_POINT('',(-0.305092193854067,0.,0.006614623898045));
#802=CARTESIAN_POINT('',(-0.110642612297206,3.,-0.284399740407846));
#803=CARTESIAN_POINT('Origin',(-0.305092193854067,0.,0.006614623898045));
#804=CARTESIAN_POINT('',(-0.305092193854067,3.,0.006614623898045));
#805=CARTESIAN_POINT('',(-0.305092193854067,0.,0.006614623898045));
#806=CARTESIAN_POINT('',(-0.168731177436449,0.25,0.0977281421132597));
#807=CARTESIAN_POINT('Origin',(-0.0972247907784304,0.25,0.145507182152945));
#808=CARTESIAN_POINT('',(-0.168731177436449,2.75,0.0977281421132597));
#809=CARTESIAN_POINT('Origin',(-0.0972247907784304,2.75,0.145507182152945));
#810=CARTESIAN_POINT('Origin',(-0.0972247907784304,2.75,0.145507182152945));
#811=CARTESIAN_POINT('',(-0.168731177436449,2.75,0.0977281421132597));
#812=CARTESIAN_POINT('Origin',(-0.0972247907784304,0.25,0.145507182152945));
#813=CARTESIAN_POINT('',(-0.168731177436449,0.25,0.0977281421132597));
#814=CARTESIAN_POINT('Origin',(-1.5,6.,0.175));
#815=CARTESIAN_POINT('',(-1.5,6.28323517639584,-0.325));
#816=CARTESIAN_POINT('',(-1.5,6.,-0.175));
#817=CARTESIAN_POINT('Origin',(0.0277314752559494,6.52311552504821,-0.325));
#818=CARTESIAN_POINT('Ctrl Pts',(0.305092193854067,3.,-0.00661462389804497));
#819=CARTESIAN_POINT('Ctrl Pts',(-0.0773631372082049,3.87914554894281,-0.0559597085337435));
#820=CARTESIAN_POINT('Ctrl Pts',(-0.459818468270477,4.75829109788563,-0.105304793169442));
#821=CARTESIAN_POINT('Ctrl Pts',(-0.842273799332748,5.63743664682844,-0.15464987780514));
#822=CARTESIAN_POINT('Ctrl Pts',(0.240275666668447,3.,0.0903901642039187));
#823=CARTESIAN_POINT('Ctrl Pts',(-0.123185277269435,3.87914554894281,0.0468069639095578));
#824=CARTESIAN_POINT('Ctrl Pts',(-0.486646221207318,4.75829109788563,0.00322376361519685));
#825=CARTESIAN_POINT('Ctrl Pts',(-0.8501071651452,5.63743664682844,-0.040359436679164));
#826=CARTESIAN_POINT('Ctrl Pts',(0.175459139482826,3.,0.187394952305882));
#827=CARTESIAN_POINT('Ctrl Pts',(-0.169007417330667,3.87914554894282,0.149573636352859));
#828=CARTESIAN_POINT('Ctrl Pts',(-0.513473974144158,4.75829109788563,0.111752320399836));
#829=CARTESIAN_POINT('Ctrl Pts',(-0.857940530957651,5.63743664682844,0.0739310044468124));
#830=CARTESIAN_POINT('Ctrl Pts',(0.110642612297206,3.,0.284399740407846));
#831=CARTESIAN_POINT('Ctrl Pts',(-0.214829557391897,3.87914554894281,0.25234030879616));
#832=CARTESIAN_POINT('Ctrl Pts',(-0.540301727081,4.75829109788563,0.220280877184474));
#833=CARTESIAN_POINT('Ctrl Pts',(-0.865773896770102,5.63743664682844,0.188221445572789));
#834=CARTESIAN_POINT('',(0.110642612297206,3.,0.284399740407846));
#835=CARTESIAN_POINT('Ctrl Pts',(0.227145986504231,3.,0.362244806298498));
#836=CARTESIAN_POINT('Ctrl Pts',(-0.135196870070463,4.,0.299829870865665));
#837=CARTESIAN_POINT('Ctrl Pts',(-0.497539726645157,5.,0.237414935432833));
#838=CARTESIAN_POINT('Ctrl Pts',(-0.859882583219851,6.,0.175));
#839=CARTESIAN_POINT('Ctrl Pts',(0.0497332597181316,3.,0.243701412165014));
#840=CARTESIAN_POINT('Ctrl Pts',(-0.324596178681212,4.,0.220800941443343));
#841=CARTESIAN_POINT('Ctrl Pts',(-0.698925617080557,5.,0.197900470721671));
#842=CARTESIAN_POINT('Ctrl Pts',(-1.0732550554799,6.,0.175));
#843=CARTESIAN_POINT('Ctrl Pts',(-0.127679467067968,3.,0.125158018031529));
#844=CARTESIAN_POINT('Ctrl Pts',(-0.513995487291962,4.,0.141772012021019));
#845=CARTESIAN_POINT('Ctrl Pts',(-0.900311507515956,5.,0.15838600601051));
#846=CARTESIAN_POINT('Ctrl Pts',(-1.28662752773995,6.,0.175));
#847=CARTESIAN_POINT('Ctrl Pts',(-0.305092193854067,3.,0.0066146238980449));
#848=CARTESIAN_POINT('Ctrl Pts',(-0.703394795902711,4.,0.0627430825986966));
#849=CARTESIAN_POINT('Ctrl Pts',(-1.10169739795136,5.,0.118871541299348));
#850=CARTESIAN_POINT('Ctrl Pts',(-1.5,6.,0.175));
#851=CARTESIAN_POINT('',(-0.305092193854067,3.,0.00661462389804497));
#852=CARTESIAN_POINT('Ctrl Pts',(-0.305092193854067,3.,0.00661462389804497));
#853=CARTESIAN_POINT('Ctrl Pts',(-0.703394795902711,4.,0.0627430825986967));
#854=CARTESIAN_POINT('Ctrl Pts',(-1.10169739795136,5.,0.118871541299348));
#855=CARTESIAN_POINT('Ctrl Pts',(-1.5,6.,0.175));
#856=CARTESIAN_POINT('Ctrl Pts',(-0.240275666668446,3.,-0.0903901642039187));
#857=CARTESIAN_POINT('Ctrl Pts',(-0.660183777778964,4.,-0.0408156650248347));
#858=CARTESIAN_POINT('Ctrl Pts',(-1.08009188888948,5.,0.00875883415424939));
#859=CARTESIAN_POINT('Ctrl Pts',(-1.5,6.,0.0583333333333334));
#860=CARTESIAN_POINT('Ctrl Pts',(-0.175459139482826,3.,-0.187394952305882));
#861=CARTESIAN_POINT('Ctrl Pts',(-0.616972759655218,4.,-0.144374412648366));
#862=CARTESIAN_POINT('Ctrl Pts',(-1.05848637982761,5.,-0.10135387299085));
#863=CARTESIAN_POINT('Ctrl Pts',(-1.5,6.,-0.0583333333333333));
#864=CARTESIAN_POINT('Ctrl Pts',(-0.110642612297206,3.,-0.284399740407846));
#865=CARTESIAN_POINT('Ctrl Pts',(-0.573761741531471,4.,-0.247933160271897));
#866=CARTESIAN_POINT('Ctrl Pts',(-1.03688087076574,5.,-0.211466580135949));
#867=CARTESIAN_POINT('Ctrl Pts',(-1.5,6.,-0.175));
#868=CARTESIAN_POINT('Origin',(4.37095678986282E-17,0.,0.));
#869=UNCERTAINTY_MEASURE_WITH_UNIT(LENGTH_MEASURE(0.000393700787401575),
#875,'DISTANCE_ACCURACY_VALUE',
'Maximum model space distance between geometric entities at asserted c
onnectivities');
#870=UNCERTAINTY_MEASURE_WITH_UNIT(LENGTH_MEASURE(0.000393700787401575),
#875,'DISTANCE_ACCURACY_VALUE',
'Maximum model space distance between geometric entities at asserted c
onnectivities');
#871=(
GEOMETRIC_REPRESENTATION_CONTEXT(3)
GLOBAL_UNCERTAINTY_ASSIGNED_CONTEXT((#869))
GLOBAL_UNIT_ASSIGNED_CONTEXT((#875,#879,#880))
REPRESENTATION_CONTEXT('','3D')
);
#872=(
GEOMETRIC_REPRESENTATION_CONTEXT(3)
GLOBAL_UNCERTAINTY_ASSIGNED_CONTEXT((#870))
GLOBAL_UNIT_ASSIGNED_CONTEXT((#875,#879,#880))
REPRESENTATION_CONTEXT('','3D')
);
#873=DIMENSIONAL_EXPONENTS(1.,0.,0.,0.,0.,0.,0.);
#874=DIMENSIONAL_EXPONENTS(0.,1.,0.,0.,0.,0.,0.);
#875=(
CONVERSION_BASED_UNIT('inch',#878)
LENGTH_UNIT()
NAMED_UNIT(#873)
);
#876=(
LENGTH_UNIT()
NAMED_UNIT(*)
SI_UNIT(.MILLI.,.METRE.)
);
#877=(
LENGTH_UNIT()
NAMED_UNIT(*)
SI_UNIT(.CENTI.,.METRE.)
);
#878=LENGTH_MEASURE_WITH_UNIT(LENGTH_MEASURE(25.4),#876);
#879=(
NAMED_UNIT(*)
PLANE_ANGLE_UNIT()
SI_UNIT($,.RADIAN.)
);
#880=(
NAMED_UNIT(*)
SI_UNIT($,.STERADIAN.)
SOLID_ANGLE_UNIT()
);
#881=SHAPE_DEFINITION_REPRESENTATION(#882,#883);
#882=PRODUCT_DEFINITION_SHAPE('',$,#885);
#883=SHAPE_REPRESENTATION('',(#433),#871);
#884=PRODUCT_DEFINITION_CONTEXT('part definition',#889,'design');
#885=PRODUCT_DEFINITION('wing','wing',#886,#884);
#886=PRODUCT_DEFINITION_FORMATION('',$,#891);
#887=PRODUCT_RELATED_PRODUCT_CATEGORY('wing','wing',(#891));
#888=APPLICATION_PROTOCOL_DEFINITION('international standard',
'automotive_design',2009,#889);
#889=APPLICATION_CONTEXT(
'Core Data for Automotive Mechanical Design Process');
#890=PRODUCT_CONTEXT('part definition',#889,'mechanical');
#891=PRODUCT('wing','wing',$,(#890));
#892=PRESENTATION_STYLE_ASSIGNMENT((#893));
#893=SURFACE_STYLE_USAGE(.BOTH.,#896);
#894=SURFACE_STYLE_RENDERING_WITH_PROPERTIES($,#900,(#895));
#895=SURFACE_STYLE_TRANSPARENT(0.);
#896=SURFACE_SIDE_STYLE('',(#897,#894));
#897=SURFACE_STYLE_FILL_AREA(#898);
#898=FILL_AREA_STYLE('',(#899));
#899=FILL_AREA_STYLE_COLOUR('',#900);
#900=COLOUR_RGB('',0.0196078431372549,0.0196078431372549,0.0196078431372549);
ENDSEC;
END-ISO-10303-21;
