ISO-10303-21;
HEADER;
/* Generated by software containing ST-Developer
 * from STEP Tools, Inc. (www.steptools.com) 
 */

FILE_DESCRIPTION(
/* description */ (''),
/* implementation_level */ '2;1');

FILE_NAME(
/* name */ '3in flex outside mold.stp',
/* time_stamp */ '2026-01-16T13:14:13+13:00',
/* author */ ('cloudy'),
/* organization */ (''),
/* preprocessor_version */ 'ST-DEVELOPER v20',
/* originating_system */ 'Autodesk Inventor 2025',
/* authorisation */ '');

FILE_SCHEMA (('AUTOMOTIVE_DESIGN { 1 0 10303 214 3 1 1 }'));
ENDSEC;

DATA;
#10=MECHANICAL_DESIGN_GEOMETRIC_PRESENTATION_REPRESENTATION('',(#13),#373);
#11=SHAPE_REPRESENTATION_RELATIONSHIP('SRR','None',#384,#12);
#12=ADVANCED_BREP_SHAPE_REPRESENTATION('',(#14),#372);
#13=STYLED_ITEM('',(#393),#14);
#14=MANIFOLD_SOLID_BREP('Solid1',#205);
#15=LINE('',#336,#23);
#16=LINE('',#340,#24);
#17=LINE('',#344,#25);
#18=LINE('',#348,#26);
#19=LINE('',#352,#27);
#20=LINE('',#356,#28);
#21=LINE('',#362,#29);
#22=LINE('',#369,#30);
#23=VECTOR('',#274,0.0885);
#24=VECTOR('',#279,0.0885);
#25=VECTOR('',#284,0.0885);
#26=VECTOR('',#289,0.0885);
#27=VECTOR('',#294,0.0885);
#28=VECTOR('',#299,0.0885);
#29=VECTOR('',#306,1.53937007874016);
#30=VECTOR('',#317,1.5);
#31=CYLINDRICAL_SURFACE('',#235,0.0885);
#32=CYLINDRICAL_SURFACE('',#237,0.0885);
#33=CYLINDRICAL_SURFACE('',#239,0.0885);
#34=CYLINDRICAL_SURFACE('',#241,0.0885);
#35=CYLINDRICAL_SURFACE('',#243,0.0885);
#36=CYLINDRICAL_SURFACE('',#245,0.0885);
#37=CYLINDRICAL_SURFACE('',#247,1.53937007874016);
#38=CYLINDRICAL_SURFACE('',#253,1.5);
#39=FACE_BOUND('',#64,.T.);
#40=FACE_BOUND('',#65,.T.);
#41=FACE_BOUND('',#66,.T.);
#42=FACE_BOUND('',#67,.T.);
#43=FACE_BOUND('',#68,.T.);
#44=FACE_BOUND('',#69,.T.);
#45=FACE_BOUND('',#78,.T.);
#46=FACE_BOUND('',#79,.T.);
#47=FACE_BOUND('',#80,.T.);
#48=FACE_BOUND('',#81,.T.);
#49=FACE_BOUND('',#82,.T.);
#50=FACE_BOUND('',#83,.T.);
#51=FACE_BOUND('',#85,.T.);
#52=FACE_OUTER_BOUND('',#63,.T.);
#53=FACE_OUTER_BOUND('',#70,.T.);
#54=FACE_OUTER_BOUND('',#71,.T.);
#55=FACE_OUTER_BOUND('',#72,.T.);
#56=FACE_OUTER_BOUND('',#73,.T.);
#57=FACE_OUTER_BOUND('',#74,.T.);
#58=FACE_OUTER_BOUND('',#75,.T.);
#59=FACE_OUTER_BOUND('',#76,.T.);
#60=FACE_OUTER_BOUND('',#77,.T.);
#61=FACE_OUTER_BOUND('',#84,.T.);
#62=FACE_OUTER_BOUND('',#86,.T.);
#63=EDGE_LOOP('',(#143));
#64=EDGE_LOOP('',(#144));
#65=EDGE_LOOP('',(#145));
#66=EDGE_LOOP('',(#146));
#67=EDGE_LOOP('',(#147));
#68=EDGE_LOOP('',(#148));
#69=EDGE_LOOP('',(#149));
#70=EDGE_LOOP('',(#150,#151,#152,#153));
#71=EDGE_LOOP('',(#154,#155,#156,#157));
#72=EDGE_LOOP('',(#158,#159,#160,#161));
#73=EDGE_LOOP('',(#162,#163,#164,#165));
#74=EDGE_LOOP('',(#166,#167,#168,#169));
#75=EDGE_LOOP('',(#170,#171,#172,#173));
#76=EDGE_LOOP('',(#174,#175,#176,#177));
#77=EDGE_LOOP('',(#178));
#78=EDGE_LOOP('',(#179));
#79=EDGE_LOOP('',(#180));
#80=EDGE_LOOP('',(#181));
#81=EDGE_LOOP('',(#182));
#82=EDGE_LOOP('',(#183));
#83=EDGE_LOOP('',(#184));
#84=EDGE_LOOP('',(#185));
#85=EDGE_LOOP('',(#186));
#86=EDGE_LOOP('',(#187,#188,#189,#190));
#87=CIRCLE('',#228,1.5);
#88=CIRCLE('',#229,0.0885);
#89=CIRCLE('',#230,0.0885);
#90=CIRCLE('',#231,0.0885);
#91=CIRCLE('',#232,0.0885);
#92=CIRCLE('',#233,0.0885);
#93=CIRCLE('',#234,0.0885);
#94=CIRCLE('',#236,0.0885);
#95=CIRCLE('',#238,0.0885);
#96=CIRCLE('',#240,0.0885);
#97=CIRCLE('',#242,0.0885);
#98=CIRCLE('',#244,0.0885);
#99=CIRCLE('',#246,0.0885);
#100=CIRCLE('',#248,1.53937007874016);
#101=CIRCLE('',#249,1.53937007874016);
#102=CIRCLE('',#252,1.5);
#103=VERTEX_POINT('',#320);
#104=VERTEX_POINT('',#322);
#105=VERTEX_POINT('',#324);
#106=VERTEX_POINT('',#326);
#107=VERTEX_POINT('',#328);
#108=VERTEX_POINT('',#330);
#109=VERTEX_POINT('',#332);
#110=VERTEX_POINT('',#335);
#111=VERTEX_POINT('',#339);
#112=VERTEX_POINT('',#343);
#113=VERTEX_POINT('',#347);
#114=VERTEX_POINT('',#351);
#115=VERTEX_POINT('',#355);
#116=VERTEX_POINT('',#359);
#117=VERTEX_POINT('',#361);
#118=VERTEX_POINT('',#366);
#119=EDGE_CURVE('',#103,#103,#87,.T.);
#120=EDGE_CURVE('',#104,#104,#88,.T.);
#121=EDGE_CURVE('',#105,#105,#89,.T.);
#122=EDGE_CURVE('',#106,#106,#90,.T.);
#123=EDGE_CURVE('',#107,#107,#91,.T.);
#124=EDGE_CURVE('',#108,#108,#92,.T.);
#125=EDGE_CURVE('',#109,#109,#93,.T.);
#126=EDGE_CURVE('',#104,#110,#15,.T.);
#127=EDGE_CURVE('',#110,#110,#94,.T.);
#128=EDGE_CURVE('',#105,#111,#16,.T.);
#129=EDGE_CURVE('',#111,#111,#95,.T.);
#130=EDGE_CURVE('',#106,#112,#17,.T.);
#131=EDGE_CURVE('',#112,#112,#96,.T.);
#132=EDGE_CURVE('',#107,#113,#18,.T.);
#133=EDGE_CURVE('',#113,#113,#97,.T.);
#134=EDGE_CURVE('',#108,#114,#19,.T.);
#135=EDGE_CURVE('',#114,#114,#98,.T.);
#136=EDGE_CURVE('',#109,#115,#20,.T.);
#137=EDGE_CURVE('',#115,#115,#99,.T.);
#138=EDGE_CURVE('',#116,#116,#100,.T.);
#139=EDGE_CURVE('',#116,#117,#21,.T.);
#140=EDGE_CURVE('',#117,#117,#101,.T.);
#141=EDGE_CURVE('',#118,#118,#102,.T.);
#142=EDGE_CURVE('',#118,#103,#22,.T.);
#143=ORIENTED_EDGE('',*,*,#119,.F.);
#144=ORIENTED_EDGE('',*,*,#120,.F.);
#145=ORIENTED_EDGE('',*,*,#121,.F.);
#146=ORIENTED_EDGE('',*,*,#122,.F.);
#147=ORIENTED_EDGE('',*,*,#123,.F.);
#148=ORIENTED_EDGE('',*,*,#124,.F.);
#149=ORIENTED_EDGE('',*,*,#125,.F.);
#150=ORIENTED_EDGE('',*,*,#120,.T.);
#151=ORIENTED_EDGE('',*,*,#126,.T.);
#152=ORIENTED_EDGE('',*,*,#127,.F.);
#153=ORIENTED_EDGE('',*,*,#126,.F.);
#154=ORIENTED_EDGE('',*,*,#121,.T.);
#155=ORIENTED_EDGE('',*,*,#128,.T.);
#156=ORIENTED_EDGE('',*,*,#129,.F.);
#157=ORIENTED_EDGE('',*,*,#128,.F.);
#158=ORIENTED_EDGE('',*,*,#122,.T.);
#159=ORIENTED_EDGE('',*,*,#130,.T.);
#160=ORIENTED_EDGE('',*,*,#131,.F.);
#161=ORIENTED_EDGE('',*,*,#130,.F.);
#162=ORIENTED_EDGE('',*,*,#123,.T.);
#163=ORIENTED_EDGE('',*,*,#132,.T.);
#164=ORIENTED_EDGE('',*,*,#133,.F.);
#165=ORIENTED_EDGE('',*,*,#132,.F.);
#166=ORIENTED_EDGE('',*,*,#124,.T.);
#167=ORIENTED_EDGE('',*,*,#134,.T.);
#168=ORIENTED_EDGE('',*,*,#135,.F.);
#169=ORIENTED_EDGE('',*,*,#134,.F.);
#170=ORIENTED_EDGE('',*,*,#125,.T.);
#171=ORIENTED_EDGE('',*,*,#136,.T.);
#172=ORIENTED_EDGE('',*,*,#137,.F.);
#173=ORIENTED_EDGE('',*,*,#136,.F.);
#174=ORIENTED_EDGE('',*,*,#138,.F.);
#175=ORIENTED_EDGE('',*,*,#139,.T.);
#176=ORIENTED_EDGE('',*,*,#140,.T.);
#177=ORIENTED_EDGE('',*,*,#139,.F.);
#178=ORIENTED_EDGE('',*,*,#138,.T.);
#179=ORIENTED_EDGE('',*,*,#127,.T.);
#180=ORIENTED_EDGE('',*,*,#129,.T.);
#181=ORIENTED_EDGE('',*,*,#131,.T.);
#182=ORIENTED_EDGE('',*,*,#133,.T.);
#183=ORIENTED_EDGE('',*,*,#135,.T.);
#184=ORIENTED_EDGE('',*,*,#137,.T.);
#185=ORIENTED_EDGE('',*,*,#140,.F.);
#186=ORIENTED_EDGE('',*,*,#141,.T.);
#187=ORIENTED_EDGE('',*,*,#141,.F.);
#188=ORIENTED_EDGE('',*,*,#142,.T.);
#189=ORIENTED_EDGE('',*,*,#119,.T.);
#190=ORIENTED_EDGE('',*,*,#142,.F.);
#191=PLANE('',#227);
#192=PLANE('',#250);
#193=PLANE('',#251);
#194=ADVANCED_FACE('',(#52,#39,#40,#41,#42,#43,#44),#191,.T.);
#195=ADVANCED_FACE('',(#53),#31,.F.);
#196=ADVANCED_FACE('',(#54),#32,.F.);
#197=ADVANCED_FACE('',(#55),#33,.F.);
#198=ADVANCED_FACE('',(#56),#34,.F.);
#199=ADVANCED_FACE('',(#57),#35,.F.);
#200=ADVANCED_FACE('',(#58),#36,.F.);
#201=ADVANCED_FACE('',(#59),#37,.T.);
#202=ADVANCED_FACE('',(#60,#45,#46,#47,#48,#49,#50),#192,.T.);
#203=ADVANCED_FACE('',(#61,#51),#193,.F.);
#204=ADVANCED_FACE('',(#62),#38,.F.);
#205=CLOSED_SHELL('',(#194,#195,#196,#197,#198,#199,#200,#201,#202,#203,
#204));
#206=DERIVED_UNIT_ELEMENT(#208,1.);
#207=DERIVED_UNIT_ELEMENT(#378,-3.);
#208=(
CONVERSION_BASED_UNIT('gram',#210)
MASS_UNIT()
NAMED_UNIT(#375)
);
#209=(
MASS_UNIT()
NAMED_UNIT(*)
SI_UNIT(.KILO.,.GRAM.)
);
#210=MASS_MEASURE_WITH_UNIT(MASS_MEASURE(0.001),#209);
#211=DERIVED_UNIT((#206,#207));
#212=MEASURE_REPRESENTATION_ITEM('density measure',
POSITIVE_RATIO_MEASURE(1.),#211);
#213=PROPERTY_DEFINITION_REPRESENTATION(#218,#215);
#214=PROPERTY_DEFINITION_REPRESENTATION(#219,#216);
#215=REPRESENTATION('material name',(#217),#372);
#216=REPRESENTATION('density',(#212),#372);
#217=DESCRIPTIVE_REPRESENTATION_ITEM('Generic','Generic');
#218=PROPERTY_DEFINITION('material property','material name',#386);
#219=PROPERTY_DEFINITION('material property','density of part',#386);
#220=DATE_TIME_ROLE('creation_date');
#221=APPLIED_DATE_AND_TIME_ASSIGNMENT(#222,#220,(#386));
#222=DATE_AND_TIME(#223,#224);
#223=CALENDAR_DATE(2026,16,1);
#224=LOCAL_TIME(0,0,0.,#225);
#225=COORDINATED_UNIVERSAL_TIME_OFFSET(0,0,.BEHIND.);
#226=AXIS2_PLACEMENT_3D('',#318,#254,#255);
#227=AXIS2_PLACEMENT_3D('',#319,#256,#257);
#228=AXIS2_PLACEMENT_3D('',#321,#258,#259);
#229=AXIS2_PLACEMENT_3D('',#323,#260,#261);
#230=AXIS2_PLACEMENT_3D('',#325,#262,#263);
#231=AXIS2_PLACEMENT_3D('',#327,#264,#265);
#232=AXIS2_PLACEMENT_3D('',#329,#266,#267);
#233=AXIS2_PLACEMENT_3D('',#331,#268,#269);
#234=AXIS2_PLACEMENT_3D('',#333,#270,#271);
#235=AXIS2_PLACEMENT_3D('',#334,#272,#273);
#236=AXIS2_PLACEMENT_3D('',#337,#275,#276);
#237=AXIS2_PLACEMENT_3D('',#338,#277,#278);
#238=AXIS2_PLACEMENT_3D('',#341,#280,#281);
#239=AXIS2_PLACEMENT_3D('',#342,#282,#283);
#240=AXIS2_PLACEMENT_3D('',#345,#285,#286);
#241=AXIS2_PLACEMENT_3D('',#346,#287,#288);
#242=AXIS2_PLACEMENT_3D('',#349,#290,#291);
#243=AXIS2_PLACEMENT_3D('',#350,#292,#293);
#244=AXIS2_PLACEMENT_3D('',#353,#295,#296);
#245=AXIS2_PLACEMENT_3D('',#354,#297,#298);
#246=AXIS2_PLACEMENT_3D('',#357,#300,#301);
#247=AXIS2_PLACEMENT_3D('',#358,#302,#303);
#248=AXIS2_PLACEMENT_3D('',#360,#304,#305);
#249=AXIS2_PLACEMENT_3D('',#363,#307,#308);
#250=AXIS2_PLACEMENT_3D('',#364,#309,#310);
#251=AXIS2_PLACEMENT_3D('',#365,#311,#312);
#252=AXIS2_PLACEMENT_3D('',#367,#313,#314);
#253=AXIS2_PLACEMENT_3D('',#368,#315,#316);
#254=DIRECTION('axis',(0.,0.,1.));
#255=DIRECTION('refdir',(1.,0.,0.));
#256=DIRECTION('center_axis',(0.,-1.,0.));
#257=DIRECTION('ref_axis',(0.,0.,-1.));
#258=DIRECTION('center_axis',(0.,1.,0.));
#259=DIRECTION('ref_axis',(1.,0.,0.));
#260=DIRECTION('center_axis',(0.,-1.,0.));
#261=DIRECTION('ref_axis',(0.499999999999999,0.,0.866025403784439));
#262=DIRECTION('center_axis',(0.,-1.,0.));
#263=DIRECTION('ref_axis',(-0.5,0.,0.866025403784438));
#264=DIRECTION('center_axis',(0.,-1.,0.));
#265=DIRECTION('ref_axis',(-1.,0.,-1.85210033468764E-16));
#266=DIRECTION('center_axis',(0.,-1.,0.));
#267=DIRECTION('ref_axis',(-0.5,0.,-0.866025403784439));
#268=DIRECTION('center_axis',(0.,-1.,0.));
#269=DIRECTION('ref_axis',(0.5,0.,-0.866025403784439));
#270=DIRECTION('center_axis',(0.,-1.,0.));
#271=DIRECTION('ref_axis',(1.,0.,0.));
#272=DIRECTION('center_axis',(0.,1.,0.));
#273=DIRECTION('ref_axis',(0.499999999999999,0.,0.866025403784439));
#274=DIRECTION('',(0.,1.,0.));
#275=DIRECTION('center_axis',(0.,-1.,0.));
#276=DIRECTION('ref_axis',(0.499999999999999,0.,0.866025403784439));
#277=DIRECTION('center_axis',(0.,1.,0.));
#278=DIRECTION('ref_axis',(-0.5,0.,0.866025403784438));
#279=DIRECTION('',(0.,1.,0.));
#280=DIRECTION('center_axis',(0.,-1.,0.));
#281=DIRECTION('ref_axis',(-0.5,0.,0.866025403784438));
#282=DIRECTION('center_axis',(0.,1.,0.));
#283=DIRECTION('ref_axis',(-1.,0.,-1.85210033468764E-16));
#284=DIRECTION('',(0.,1.,0.));
#285=DIRECTION('center_axis',(0.,-1.,0.));
#286=DIRECTION('ref_axis',(-1.,0.,-1.85210033468764E-16));
#287=DIRECTION('center_axis',(0.,1.,0.));
#288=DIRECTION('ref_axis',(-0.5,0.,-0.866025403784439));
#289=DIRECTION('',(0.,1.,0.));
#290=DIRECTION('center_axis',(0.,-1.,0.));
#291=DIRECTION('ref_axis',(-0.5,0.,-0.866025403784439));
#292=DIRECTION('center_axis',(0.,1.,0.));
#293=DIRECTION('ref_axis',(0.5,0.,-0.866025403784439));
#294=DIRECTION('',(0.,1.,0.));
#295=DIRECTION('center_axis',(0.,-1.,0.));
#296=DIRECTION('ref_axis',(0.5,0.,-0.866025403784439));
#297=DIRECTION('center_axis',(0.,1.,0.));
#298=DIRECTION('ref_axis',(1.,0.,0.));
#299=DIRECTION('',(0.,1.,0.));
#300=DIRECTION('center_axis',(0.,-1.,0.));
#301=DIRECTION('ref_axis',(1.,0.,0.));
#302=DIRECTION('center_axis',(0.,1.,0.));
#303=DIRECTION('ref_axis',(-1.,0.,0.));
#304=DIRECTION('center_axis',(0.,1.,0.));
#305=DIRECTION('ref_axis',(-1.,0.,0.));
#306=DIRECTION('',(0.,-1.,0.));
#307=DIRECTION('center_axis',(0.,1.,0.));
#308=DIRECTION('ref_axis',(-1.,0.,0.));
#309=DIRECTION('center_axis',(0.,1.,0.));
#310=DIRECTION('ref_axis',(0.,0.,1.));
#311=DIRECTION('center_axis',(0.,1.,0.));
#312=DIRECTION('ref_axis',(0.,0.,1.));
#313=DIRECTION('center_axis',(0.,1.,0.));
#314=DIRECTION('ref_axis',(1.,0.,0.));
#315=DIRECTION('center_axis',(0.,1.,0.));
#316=DIRECTION('ref_axis',(-1.,0.,0.));
#317=DIRECTION('',(0.,1.,0.));
#318=CARTESIAN_POINT('',(0.,0.,0.));
#319=CARTESIAN_POINT('Origin',(0.,0.578740157480315,0.));
#320=CARTESIAN_POINT('',(1.5,0.578740157480315,0.));
#321=CARTESIAN_POINT('Origin',(0.,0.578740157480315,0.));
#322=CARTESIAN_POINT('',(-0.852540376865476,0.578740157480315,0.390023418431743));
#323=CARTESIAN_POINT('Origin',(-0.808290376865476,0.578740157480315,0.466666666666666));
#324=CARTESIAN_POINT('',(-0.764040376865475,0.578740157480315,-0.54330991490159));
#325=CARTESIAN_POINT('Origin',(-0.808290376865475,0.578740157480315,-0.466666666666667));
#326=CARTESIAN_POINT('',(0.0885000000000001,0.578740157480315,-0.933333333333333));
#327=CARTESIAN_POINT('Origin',(8.74191357972564E-17,0.578740157480315,-0.933333333333333));
#328=CARTESIAN_POINT('',(0.852540376865475,0.578740157480315,-0.390023418431743));
#329=CARTESIAN_POINT('Origin',(0.808290376865475,0.578740157480315,-0.466666666666666));
#330=CARTESIAN_POINT('',(0.764040376865475,0.578740157480315,0.543309914901589));
#331=CARTESIAN_POINT('Origin',(0.808290376865475,0.578740157480315,0.466666666666666));
#332=CARTESIAN_POINT('',(-0.0884999999999999,0.578740157480315,0.933333333333333));
#333=CARTESIAN_POINT('Origin',(5.1905111879621E-17,0.578740157480315,0.933333333333333));
#334=CARTESIAN_POINT('Origin',(-0.808290376865476,0.0393700787401575,0.466666666666666));
#335=CARTESIAN_POINT('',(-0.852540376865476,0.65748031496063,0.390023418431743));
#336=CARTESIAN_POINT('',(-0.852540376865476,0.0393700787401575,0.390023418431743));
#337=CARTESIAN_POINT('Origin',(-0.808290376865476,0.65748031496063,0.466666666666666));
#338=CARTESIAN_POINT('Origin',(-0.808290376865475,0.0393700787401575,-0.466666666666667));
#339=CARTESIAN_POINT('',(-0.764040376865475,0.65748031496063,-0.54330991490159));
#340=CARTESIAN_POINT('',(-0.764040376865475,0.0393700787401575,-0.54330991490159));
#341=CARTESIAN_POINT('Origin',(-0.808290376865475,0.65748031496063,-0.466666666666667));
#342=CARTESIAN_POINT('Origin',(8.74191357972564E-17,0.0393700787401575,
-0.933333333333333));
#343=CARTESIAN_POINT('',(0.0885000000000001,0.65748031496063,-0.933333333333333));
#344=CARTESIAN_POINT('',(0.0885000000000001,0.0393700787401575,-0.933333333333333));
#345=CARTESIAN_POINT('Origin',(8.74191357972564E-17,0.65748031496063,-0.933333333333333));
#346=CARTESIAN_POINT('Origin',(0.808290376865475,0.0393700787401575,-0.466666666666666));
#347=CARTESIAN_POINT('',(0.852540376865476,0.65748031496063,-0.390023418431743));
#348=CARTESIAN_POINT('',(0.852540376865475,0.0393700787401575,-0.390023418431743));
#349=CARTESIAN_POINT('Origin',(0.808290376865475,0.65748031496063,-0.466666666666666));
#350=CARTESIAN_POINT('Origin',(0.808290376865475,0.0393700787401575,0.466666666666666));
#351=CARTESIAN_POINT('',(0.764040376865475,0.65748031496063,0.543309914901589));
#352=CARTESIAN_POINT('',(0.764040376865475,0.0393700787401575,0.543309914901589));
#353=CARTESIAN_POINT('Origin',(0.808290376865475,0.65748031496063,0.466666666666666));
#354=CARTESIAN_POINT('Origin',(5.1905111879621E-17,0.0393700787401575,0.933333333333333));
#355=CARTESIAN_POINT('',(-0.0884999999999999,0.65748031496063,0.933333333333333));
#356=CARTESIAN_POINT('',(-0.0884999999999999,0.0393700787401575,0.933333333333333));
#357=CARTESIAN_POINT('Origin',(5.1905111879621E-17,0.65748031496063,0.933333333333333));
#358=CARTESIAN_POINT('Origin',(0.,0.,0.));
#359=CARTESIAN_POINT('',(1.53937007874016,0.65748031496063,-1.88518463963234E-16));
#360=CARTESIAN_POINT('Origin',(0.,0.65748031496063,0.));
#361=CARTESIAN_POINT('',(1.53937007874016,0.,-1.88518463963234E-16));
#362=CARTESIAN_POINT('',(1.53937007874016,0.,-1.88518463963234E-16));
#363=CARTESIAN_POINT('Origin',(0.,0.,0.));
#364=CARTESIAN_POINT('Origin',(0.,0.65748031496063,0.));
#365=CARTESIAN_POINT('Origin',(0.,0.,0.));
#366=CARTESIAN_POINT('',(1.5,0.,0.));
#367=CARTESIAN_POINT('Origin',(0.,0.,0.));
#368=CARTESIAN_POINT('Origin',(0.,0.0393700787401575,0.));
#369=CARTESIAN_POINT('',(1.5,0.0393700787401575,-1.83697019872103E-16));
#370=UNCERTAINTY_MEASURE_WITH_UNIT(LENGTH_MEASURE(0.000393700787401575),
#376,'DISTANCE_ACCURACY_VALUE',
'Maximum model space distance between geometric entities at asserted c
onnectivities');
#371=UNCERTAINTY_MEASURE_WITH_UNIT(LENGTH_MEASURE(0.000393700787401575),
#376,'DISTANCE_ACCURACY_VALUE',
'Maximum model space distance between geometric entities at asserted c
onnectivities');
#372=(
GEOMETRIC_REPRESENTATION_CONTEXT(3)
GLOBAL_UNCERTAINTY_ASSIGNED_CONTEXT((#370))
GLOBAL_UNIT_ASSIGNED_CONTEXT((#376,#380,#381))
REPRESENTATION_CONTEXT('','3D')
);
#373=(
GEOMETRIC_REPRESENTATION_CONTEXT(3)
GLOBAL_UNCERTAINTY_ASSIGNED_CONTEXT((#371))
GLOBAL_UNIT_ASSIGNED_CONTEXT((#376,#380,#381))
REPRESENTATION_CONTEXT('','3D')
);
#374=DIMENSIONAL_EXPONENTS(1.,0.,0.,0.,0.,0.,0.);
#375=DIMENSIONAL_EXPONENTS(0.,1.,0.,0.,0.,0.,0.);
#376=(
CONVERSION_BASED_UNIT('inch',#379)
LENGTH_UNIT()
NAMED_UNIT(#374)
);
#377=(
LENGTH_UNIT()
NAMED_UNIT(*)
SI_UNIT(.MILLI.,.METRE.)
);
#378=(
LENGTH_UNIT()
NAMED_UNIT(*)
SI_UNIT(.CENTI.,.METRE.)
);
#379=LENGTH_MEASURE_WITH_UNIT(LENGTH_MEASURE(25.4),#377);
#380=(
NAMED_UNIT(*)
PLANE_ANGLE_UNIT()
SI_UNIT($,.RADIAN.)
);
#381=(
NAMED_UNIT(*)
SI_UNIT($,.STERADIAN.)
SOLID_ANGLE_UNIT()
);
#382=SHAPE_DEFINITION_REPRESENTATION(#383,#384);
#383=PRODUCT_DEFINITION_SHAPE('',$,#386);
#384=SHAPE_REPRESENTATION('',(#226),#372);
#385=PRODUCT_DEFINITION_CONTEXT('part definition',#390,'design');
#386=PRODUCT_DEFINITION('3in flex outside mold','3in flex outside mold',
#387,#385);
#387=PRODUCT_DEFINITION_FORMATION('',$,#392);
#388=PRODUCT_RELATED_PRODUCT_CATEGORY('3in flex outside mold',
'3in flex outside mold',(#392));
#389=APPLICATION_PROTOCOL_DEFINITION('international standard',
'automotive_design',2009,#390);
#390=APPLICATION_CONTEXT(
'Core Data for Automotive Mechanical Design Process');
#391=PRODUCT_CONTEXT('part definition',#390,'mechanical');
#392=PRODUCT('3in flex outside mold','3in flex outside mold',$,(#391));
#393=PRESENTATION_STYLE_ASSIGNMENT((#394));
#394=SURFACE_STYLE_USAGE(.BOTH.,#397);
#395=SURFACE_STYLE_RENDERING_WITH_PROPERTIES($,#401,(#396));
#396=SURFACE_STYLE_TRANSPARENT(0.);
#397=SURFACE_SIDE_STYLE('',(#398,#395));
#398=SURFACE_STYLE_FILL_AREA(#399);
#399=FILL_AREA_STYLE('',(#400));
#400=FILL_AREA_STYLE_COLOUR('',#401);
#401=COLOUR_RGB('',0.749019607843137,0.749019607843137,0.749019607843137);
ENDSEC;
END-ISO-10303-21;
