ISO-10303-21;
HEADER;
/* Generated by software containing ST-Developer
 * from STEP Tools, Inc. (www.steptools.com) 
 */

FILE_DESCRIPTION(
/* description */ (''),
/* implementation_level */ '2;1');

FILE_NAME(
/* name */ 'aligner.stp',
/* time_stamp */ '2026-01-19T13:11:27+13:00',
/* author */ ('cloudy'),
/* organization */ (''),
/* preprocessor_version */ 'ST-DEVELOPER v20',
/* originating_system */ 'Autodesk Inventor 2025',
/* authorisation */ '');

FILE_SCHEMA (('AUTOMOTIVE_DESIGN { 1 0 10303 214 3 1 1 }'));
ENDSEC;

DATA;
#10=MECHANICAL_DESIGN_GEOMETRIC_PRESENTATION_REPRESENTATION('',(#20,#21,
#22,#23,#24,#25),#700);
#11=GEOMETRICALLY_BOUNDED_WIREFRAME_SHAPE_REPRESENTATION('',(#12),#699);
#12=GEOMETRIC_CURVE_SET('Sketch2',(#16,#17,#18,#19,#93,#695,#696));
#13=SHAPE_REPRESENTATION_RELATIONSHIP('SRR','None',#711,#15);
#14=SHAPE_REPRESENTATION_RELATIONSHIP('SRR','None',#711,#11);
#15=ADVANCED_BREP_SHAPE_REPRESENTATION('',(#26),#699);
#16=POLYLINE('',(#686,#687));
#17=POLYLINE('',(#688,#689));
#18=POLYLINE('',(#690,#691));
#19=POLYLINE('',(#692,#693));
#20=STYLED_ITEM('',(#720),#26);
#21=STYLED_ITEM('',(#721),#16);
#22=STYLED_ITEM('',(#722),#17);
#23=STYLED_ITEM('',(#721),#18);
#24=STYLED_ITEM('',(#722),#19);
#25=STYLED_ITEM('',(#721),#93);
#26=MANIFOLD_SOLID_BREP('Solid1',#410);
#27=FACE_BOUND('',#62,.T.);
#28=FACE_BOUND('',#63,.T.);
#29=FACE_BOUND('',#71,.T.);
#30=FACE_BOUND('',#72,.T.);
#31=CYLINDRICAL_SURFACE('',#437,0.15);
#32=CYLINDRICAL_SURFACE('',#448,0.15);
#33=CYLINDRICAL_SURFACE('',#451,0.25);
#34=CYLINDRICAL_SURFACE('',#459,0.086);
#35=CYLINDRICAL_SURFACE('',#460,0.0860000000000002);
#36=CYLINDRICAL_SURFACE('',#463,0.25);
#37=FACE_OUTER_BOUND('',#57,.T.);
#38=FACE_OUTER_BOUND('',#58,.T.);
#39=FACE_OUTER_BOUND('',#59,.T.);
#40=FACE_OUTER_BOUND('',#60,.T.);
#41=FACE_OUTER_BOUND('',#61,.T.);
#42=FACE_OUTER_BOUND('',#64,.T.);
#43=FACE_OUTER_BOUND('',#65,.T.);
#44=FACE_OUTER_BOUND('',#66,.T.);
#45=FACE_OUTER_BOUND('',#67,.T.);
#46=FACE_OUTER_BOUND('',#68,.T.);
#47=FACE_OUTER_BOUND('',#69,.T.);
#48=FACE_OUTER_BOUND('',#70,.T.);
#49=FACE_OUTER_BOUND('',#73,.T.);
#50=FACE_OUTER_BOUND('',#74,.T.);
#51=FACE_OUTER_BOUND('',#75,.T.);
#52=FACE_OUTER_BOUND('',#76,.T.);
#53=FACE_OUTER_BOUND('',#77,.T.);
#54=FACE_OUTER_BOUND('',#78,.T.);
#55=FACE_OUTER_BOUND('',#79,.T.);
#56=FACE_OUTER_BOUND('',#80,.T.);
#57=EDGE_LOOP('',(#268,#269,#270,#271,#272,#273,#274,#275,#276,#277,#278,
#279));
#58=EDGE_LOOP('',(#280,#281,#282,#283));
#59=EDGE_LOOP('',(#284,#285,#286,#287,#288,#289));
#60=EDGE_LOOP('',(#290,#291,#292,#293,#294,#295));
#61=EDGE_LOOP('',(#296,#297,#298,#299));
#62=EDGE_LOOP('',(#300));
#63=EDGE_LOOP('',(#301));
#64=EDGE_LOOP('',(#302,#303,#304,#305,#306,#307,#308,#309,#310,#311,#312,
#313));
#65=EDGE_LOOP('',(#314,#315,#316,#317));
#66=EDGE_LOOP('',(#318,#319,#320,#321,#322,#323));
#67=EDGE_LOOP('',(#324,#325,#326,#327,#328,#329));
#68=EDGE_LOOP('',(#330,#331,#332,#333));
#69=EDGE_LOOP('',(#334,#335,#336,#337));
#70=EDGE_LOOP('',(#338,#339,#340,#341));
#71=EDGE_LOOP('',(#342));
#72=EDGE_LOOP('',(#343));
#73=EDGE_LOOP('',(#344,#345,#346,#347));
#74=EDGE_LOOP('',(#348,#349,#350,#351));
#75=EDGE_LOOP('',(#352,#353,#354,#355));
#76=EDGE_LOOP('',(#356,#357,#358,#359));
#77=EDGE_LOOP('',(#360,#361,#362,#363));
#78=EDGE_LOOP('',(#364,#365,#366,#367));
#79=EDGE_LOOP('',(#368,#369,#370,#371));
#80=EDGE_LOOP('',(#372,#373,#374,#375));
#81=CIRCLE('',#433,0.15);
#82=CIRCLE('',#434,0.15);
#83=CIRCLE('',#435,0.25);
#84=CIRCLE('',#436,0.25);
#85=CIRCLE('',#438,0.15);
#86=CIRCLE('',#442,0.0860000000000002);
#87=CIRCLE('',#443,0.086);
#88=CIRCLE('',#445,0.25);
#89=CIRCLE('',#446,0.25);
#90=CIRCLE('',#447,0.15);
#91=CIRCLE('',#454,0.0860000000000002);
#92=CIRCLE('',#455,0.086);
#93=CIRCLE('',#464,0.0860000000000002);
#94=LINE('',#579,#136);
#95=LINE('',#581,#137);
#96=LINE('',#583,#138);
#97=LINE('',#587,#139);
#98=LINE('',#591,#140);
#99=LINE('',#593,#141);
#100=LINE('',#595,#142);
#101=LINE('',#599,#143);
#102=LINE('',#603,#144);
#103=LINE('',#606,#145);
#104=LINE('',#609,#146);
#105=LINE('',#611,#147);
#106=LINE('',#613,#148);
#107=LINE('',#615,#149);
#108=LINE('',#616,#150);
#109=LINE('',#619,#151);
#110=LINE('',#621,#152);
#111=LINE('',#623,#153);
#112=LINE('',#624,#154);
#113=LINE('',#627,#155);
#114=LINE('',#629,#156);
#115=LINE('',#630,#157);
#116=LINE('',#636,#158);
#117=LINE('',#641,#159);
#118=LINE('',#643,#160);
#119=LINE('',#645,#161);
#120=LINE('',#648,#162);
#121=LINE('',#650,#163);
#122=LINE('',#651,#164);
#123=LINE('',#653,#165);
#124=LINE('',#655,#166);
#125=LINE('',#657,#167);
#126=LINE('',#658,#168);
#127=LINE('',#661,#169);
#128=LINE('',#663,#170);
#129=LINE('',#664,#171);
#130=LINE('',#667,#172);
#131=LINE('',#674,#173);
#132=LINE('',#676,#174);
#133=LINE('',#678,#175);
#134=LINE('',#680,#176);
#135=LINE('',#682,#177);
#136=VECTOR('',#469,0.393700787401575);
#137=VECTOR('',#470,0.393700787401575);
#138=VECTOR('',#471,0.393700787401575);
#139=VECTOR('',#474,0.393700787401575);
#140=VECTOR('',#477,0.393700787401575);
#141=VECTOR('',#478,0.393700787401575);
#142=VECTOR('',#479,0.393700787401575);
#143=VECTOR('',#482,0.393700787401575);
#144=VECTOR('',#487,0.393700787401575);
#145=VECTOR('',#490,0.393700787401575);
#146=VECTOR('',#493,0.393700787401575);
#147=VECTOR('',#494,0.393700787401575);
#148=VECTOR('',#495,0.393700787401575);
#149=VECTOR('',#496,0.393700787401575);
#150=VECTOR('',#497,0.393700787401575);
#151=VECTOR('',#500,0.393700787401575);
#152=VECTOR('',#501,0.393700787401575);
#153=VECTOR('',#502,0.393700787401575);
#154=VECTOR('',#503,0.393700787401575);
#155=VECTOR('',#506,0.393700787401575);
#156=VECTOR('',#507,0.393700787401575);
#157=VECTOR('',#508,0.393700787401575);
#158=VECTOR('',#515,0.393700787401575);
#159=VECTOR('',#520,0.393700787401575);
#160=VECTOR('',#521,0.393700787401575);
#161=VECTOR('',#522,0.393700787401575);
#162=VECTOR('',#525,0.393700787401575);
#163=VECTOR('',#528,0.393700787401575);
#164=VECTOR('',#529,0.393700787401575);
#165=VECTOR('',#532,0.393700787401575);
#166=VECTOR('',#533,0.393700787401575);
#167=VECTOR('',#534,0.393700787401575);
#168=VECTOR('',#535,0.393700787401575);
#169=VECTOR('',#538,0.393700787401575);
#170=VECTOR('',#539,0.393700787401575);
#171=VECTOR('',#540,0.393700787401575);
#172=VECTOR('',#545,0.393700787401575);
#173=VECTOR('',#554,0.393700787401575);
#174=VECTOR('',#557,0.393700787401575);
#175=VECTOR('',#560,0.393700787401575);
#176=VECTOR('',#563,0.086);
#177=VECTOR('',#566,0.0860000000000002);
#178=VERTEX_POINT('',#577);
#179=VERTEX_POINT('',#578);
#180=VERTEX_POINT('',#580);
#181=VERTEX_POINT('',#582);
#182=VERTEX_POINT('',#584);
#183=VERTEX_POINT('',#586);
#184=VERTEX_POINT('',#588);
#185=VERTEX_POINT('',#590);
#186=VERTEX_POINT('',#592);
#187=VERTEX_POINT('',#594);
#188=VERTEX_POINT('',#596);
#189=VERTEX_POINT('',#598);
#190=VERTEX_POINT('',#602);
#191=VERTEX_POINT('',#604);
#192=VERTEX_POINT('',#608);
#193=VERTEX_POINT('',#610);
#194=VERTEX_POINT('',#612);
#195=VERTEX_POINT('',#614);
#196=VERTEX_POINT('',#618);
#197=VERTEX_POINT('',#620);
#198=VERTEX_POINT('',#622);
#199=VERTEX_POINT('',#626);
#200=VERTEX_POINT('',#628);
#201=VERTEX_POINT('',#631);
#202=VERTEX_POINT('',#633);
#203=VERTEX_POINT('',#638);
#204=VERTEX_POINT('',#640);
#205=VERTEX_POINT('',#642);
#206=VERTEX_POINT('',#644);
#207=VERTEX_POINT('',#646);
#208=VERTEX_POINT('',#654);
#209=VERTEX_POINT('',#656);
#210=VERTEX_POINT('',#660);
#211=VERTEX_POINT('',#662);
#212=VERTEX_POINT('',#669);
#213=VERTEX_POINT('',#671);
#214=EDGE_CURVE('',#178,#179,#94,.T.);
#215=EDGE_CURVE('',#180,#178,#95,.T.);
#216=EDGE_CURVE('',#180,#181,#96,.T.);
#217=EDGE_CURVE('',#181,#182,#81,.T.);
#218=EDGE_CURVE('',#182,#183,#97,.T.);
#219=EDGE_CURVE('',#183,#184,#82,.T.);
#220=EDGE_CURVE('',#184,#185,#98,.T.);
#221=EDGE_CURVE('',#186,#185,#99,.T.);
#222=EDGE_CURVE('',#187,#186,#100,.T.);
#223=EDGE_CURVE('',#188,#187,#83,.T.);
#224=EDGE_CURVE('',#189,#188,#101,.T.);
#225=EDGE_CURVE('',#179,#189,#84,.T.);
#226=EDGE_CURVE('',#190,#181,#102,.T.);
#227=EDGE_CURVE('',#191,#190,#85,.T.);
#228=EDGE_CURVE('',#191,#182,#103,.T.);
#229=EDGE_CURVE('',#179,#192,#104,.T.);
#230=EDGE_CURVE('',#192,#193,#105,.T.);
#231=EDGE_CURVE('',#194,#193,#106,.T.);
#232=EDGE_CURVE('',#194,#195,#107,.T.);
#233=EDGE_CURVE('',#178,#195,#108,.T.);
#234=EDGE_CURVE('',#196,#180,#109,.T.);
#235=EDGE_CURVE('',#197,#196,#110,.T.);
#236=EDGE_CURVE('',#198,#197,#111,.T.);
#237=EDGE_CURVE('',#190,#198,#112,.T.);
#238=EDGE_CURVE('',#189,#199,#113,.T.);
#239=EDGE_CURVE('',#200,#188,#114,.T.);
#240=EDGE_CURVE('',#200,#199,#115,.T.);
#241=EDGE_CURVE('',#201,#201,#86,.T.);
#242=EDGE_CURVE('',#202,#202,#87,.T.);
#243=EDGE_CURVE('',#193,#198,#116,.T.);
#244=EDGE_CURVE('',#199,#192,#88,.T.);
#245=EDGE_CURVE('',#203,#200,#89,.T.);
#246=EDGE_CURVE('',#204,#203,#117,.T.);
#247=EDGE_CURVE('',#205,#204,#118,.T.);
#248=EDGE_CURVE('',#205,#206,#119,.T.);
#249=EDGE_CURVE('',#206,#207,#90,.T.);
#250=EDGE_CURVE('',#207,#191,#120,.T.);
#251=EDGE_CURVE('',#184,#206,#121,.T.);
#252=EDGE_CURVE('',#183,#207,#122,.T.);
#253=EDGE_CURVE('',#203,#187,#123,.T.);
#254=EDGE_CURVE('',#208,#186,#124,.T.);
#255=EDGE_CURVE('',#208,#209,#125,.T.);
#256=EDGE_CURVE('',#204,#209,#126,.T.);
#257=EDGE_CURVE('',#210,#205,#127,.T.);
#258=EDGE_CURVE('',#211,#210,#128,.T.);
#259=EDGE_CURVE('',#185,#211,#129,.T.);
#260=EDGE_CURVE('',#195,#196,#130,.T.);
#261=EDGE_CURVE('',#212,#212,#91,.T.);
#262=EDGE_CURVE('',#213,#213,#92,.T.);
#263=EDGE_CURVE('',#197,#194,#131,.T.);
#264=EDGE_CURVE('',#209,#210,#132,.T.);
#265=EDGE_CURVE('',#211,#208,#133,.T.);
#266=EDGE_CURVE('',#202,#213,#134,.T.);
#267=EDGE_CURVE('',#201,#212,#135,.T.);
#268=ORIENTED_EDGE('',*,*,#214,.F.);
#269=ORIENTED_EDGE('',*,*,#215,.F.);
#270=ORIENTED_EDGE('',*,*,#216,.T.);
#271=ORIENTED_EDGE('',*,*,#217,.T.);
#272=ORIENTED_EDGE('',*,*,#218,.T.);
#273=ORIENTED_EDGE('',*,*,#219,.T.);
#274=ORIENTED_EDGE('',*,*,#220,.T.);
#275=ORIENTED_EDGE('',*,*,#221,.F.);
#276=ORIENTED_EDGE('',*,*,#222,.F.);
#277=ORIENTED_EDGE('',*,*,#223,.F.);
#278=ORIENTED_EDGE('',*,*,#224,.F.);
#279=ORIENTED_EDGE('',*,*,#225,.F.);
#280=ORIENTED_EDGE('',*,*,#226,.F.);
#281=ORIENTED_EDGE('',*,*,#227,.F.);
#282=ORIENTED_EDGE('',*,*,#228,.T.);
#283=ORIENTED_EDGE('',*,*,#217,.F.);
#284=ORIENTED_EDGE('',*,*,#229,.T.);
#285=ORIENTED_EDGE('',*,*,#230,.T.);
#286=ORIENTED_EDGE('',*,*,#231,.F.);
#287=ORIENTED_EDGE('',*,*,#232,.T.);
#288=ORIENTED_EDGE('',*,*,#233,.F.);
#289=ORIENTED_EDGE('',*,*,#214,.T.);
#290=ORIENTED_EDGE('',*,*,#226,.T.);
#291=ORIENTED_EDGE('',*,*,#216,.F.);
#292=ORIENTED_EDGE('',*,*,#234,.F.);
#293=ORIENTED_EDGE('',*,*,#235,.F.);
#294=ORIENTED_EDGE('',*,*,#236,.F.);
#295=ORIENTED_EDGE('',*,*,#237,.F.);
#296=ORIENTED_EDGE('',*,*,#238,.F.);
#297=ORIENTED_EDGE('',*,*,#224,.T.);
#298=ORIENTED_EDGE('',*,*,#239,.F.);
#299=ORIENTED_EDGE('',*,*,#240,.T.);
#300=ORIENTED_EDGE('',*,*,#241,.T.);
#301=ORIENTED_EDGE('',*,*,#242,.T.);
#302=ORIENTED_EDGE('',*,*,#237,.T.);
#303=ORIENTED_EDGE('',*,*,#243,.F.);
#304=ORIENTED_EDGE('',*,*,#230,.F.);
#305=ORIENTED_EDGE('',*,*,#244,.F.);
#306=ORIENTED_EDGE('',*,*,#240,.F.);
#307=ORIENTED_EDGE('',*,*,#245,.F.);
#308=ORIENTED_EDGE('',*,*,#246,.F.);
#309=ORIENTED_EDGE('',*,*,#247,.F.);
#310=ORIENTED_EDGE('',*,*,#248,.T.);
#311=ORIENTED_EDGE('',*,*,#249,.T.);
#312=ORIENTED_EDGE('',*,*,#250,.T.);
#313=ORIENTED_EDGE('',*,*,#227,.T.);
#314=ORIENTED_EDGE('',*,*,#251,.F.);
#315=ORIENTED_EDGE('',*,*,#219,.F.);
#316=ORIENTED_EDGE('',*,*,#252,.T.);
#317=ORIENTED_EDGE('',*,*,#249,.F.);
#318=ORIENTED_EDGE('',*,*,#253,.T.);
#319=ORIENTED_EDGE('',*,*,#222,.T.);
#320=ORIENTED_EDGE('',*,*,#254,.F.);
#321=ORIENTED_EDGE('',*,*,#255,.T.);
#322=ORIENTED_EDGE('',*,*,#256,.F.);
#323=ORIENTED_EDGE('',*,*,#246,.T.);
#324=ORIENTED_EDGE('',*,*,#251,.T.);
#325=ORIENTED_EDGE('',*,*,#248,.F.);
#326=ORIENTED_EDGE('',*,*,#257,.F.);
#327=ORIENTED_EDGE('',*,*,#258,.F.);
#328=ORIENTED_EDGE('',*,*,#259,.F.);
#329=ORIENTED_EDGE('',*,*,#220,.F.);
#330=ORIENTED_EDGE('',*,*,#229,.F.);
#331=ORIENTED_EDGE('',*,*,#225,.T.);
#332=ORIENTED_EDGE('',*,*,#238,.T.);
#333=ORIENTED_EDGE('',*,*,#244,.T.);
#334=ORIENTED_EDGE('',*,*,#233,.T.);
#335=ORIENTED_EDGE('',*,*,#260,.T.);
#336=ORIENTED_EDGE('',*,*,#234,.T.);
#337=ORIENTED_EDGE('',*,*,#215,.T.);
#338=ORIENTED_EDGE('',*,*,#228,.F.);
#339=ORIENTED_EDGE('',*,*,#250,.F.);
#340=ORIENTED_EDGE('',*,*,#252,.F.);
#341=ORIENTED_EDGE('',*,*,#218,.F.);
#342=ORIENTED_EDGE('',*,*,#261,.F.);
#343=ORIENTED_EDGE('',*,*,#262,.F.);
#344=ORIENTED_EDGE('',*,*,#231,.T.);
#345=ORIENTED_EDGE('',*,*,#243,.T.);
#346=ORIENTED_EDGE('',*,*,#236,.T.);
#347=ORIENTED_EDGE('',*,*,#263,.T.);
#348=ORIENTED_EDGE('',*,*,#256,.T.);
#349=ORIENTED_EDGE('',*,*,#264,.T.);
#350=ORIENTED_EDGE('',*,*,#257,.T.);
#351=ORIENTED_EDGE('',*,*,#247,.T.);
#352=ORIENTED_EDGE('',*,*,#254,.T.);
#353=ORIENTED_EDGE('',*,*,#221,.T.);
#354=ORIENTED_EDGE('',*,*,#259,.T.);
#355=ORIENTED_EDGE('',*,*,#265,.T.);
#356=ORIENTED_EDGE('',*,*,#242,.F.);
#357=ORIENTED_EDGE('',*,*,#266,.T.);
#358=ORIENTED_EDGE('',*,*,#262,.T.);
#359=ORIENTED_EDGE('',*,*,#266,.F.);
#360=ORIENTED_EDGE('',*,*,#241,.F.);
#361=ORIENTED_EDGE('',*,*,#267,.T.);
#362=ORIENTED_EDGE('',*,*,#261,.T.);
#363=ORIENTED_EDGE('',*,*,#267,.F.);
#364=ORIENTED_EDGE('',*,*,#264,.F.);
#365=ORIENTED_EDGE('',*,*,#255,.F.);
#366=ORIENTED_EDGE('',*,*,#265,.F.);
#367=ORIENTED_EDGE('',*,*,#258,.T.);
#368=ORIENTED_EDGE('',*,*,#260,.F.);
#369=ORIENTED_EDGE('',*,*,#232,.F.);
#370=ORIENTED_EDGE('',*,*,#263,.F.);
#371=ORIENTED_EDGE('',*,*,#235,.T.);
#372=ORIENTED_EDGE('',*,*,#253,.F.);
#373=ORIENTED_EDGE('',*,*,#245,.T.);
#374=ORIENTED_EDGE('',*,*,#239,.T.);
#375=ORIENTED_EDGE('',*,*,#223,.T.);
#376=PLANE('',#432);
#377=PLANE('',#439);
#378=PLANE('',#440);
#379=PLANE('',#441);
#380=PLANE('',#444);
#381=PLANE('',#449);
#382=PLANE('',#450);
#383=PLANE('',#452);
#384=PLANE('',#453);
#385=PLANE('',#456);
#386=PLANE('',#457);
#387=PLANE('',#458);
#388=PLANE('',#461);
#389=PLANE('',#462);
#390=ADVANCED_FACE('',(#37),#376,.T.);
#391=ADVANCED_FACE('',(#38),#31,.F.);
#392=ADVANCED_FACE('',(#39),#377,.T.);
#393=ADVANCED_FACE('',(#40),#378,.F.);
#394=ADVANCED_FACE('',(#41,#27,#28),#379,.T.);
#395=ADVANCED_FACE('',(#42),#380,.T.);
#396=ADVANCED_FACE('',(#43),#32,.F.);
#397=ADVANCED_FACE('',(#44),#381,.T.);
#398=ADVANCED_FACE('',(#45),#382,.F.);
#399=ADVANCED_FACE('',(#46),#33,.T.);
#400=ADVANCED_FACE('',(#47),#383,.T.);
#401=ADVANCED_FACE('',(#48,#29,#30),#384,.F.);
#402=ADVANCED_FACE('',(#49),#385,.T.);
#403=ADVANCED_FACE('',(#50),#386,.T.);
#404=ADVANCED_FACE('',(#51),#387,.T.);
#405=ADVANCED_FACE('',(#52),#34,.F.);
#406=ADVANCED_FACE('',(#53),#35,.F.);
#407=ADVANCED_FACE('',(#54),#388,.T.);
#408=ADVANCED_FACE('',(#55),#389,.T.);
#409=ADVANCED_FACE('',(#56),#36,.T.);
#410=CLOSED_SHELL('',(#390,#391,#392,#393,#394,#395,#396,#397,#398,#399,
#400,#401,#402,#403,#404,#405,#406,#407,#408,#409));
#411=DERIVED_UNIT_ELEMENT(#413,1.);
#412=DERIVED_UNIT_ELEMENT(#705,-3.);
#413=(
CONVERSION_BASED_UNIT('gram',#415)
MASS_UNIT()
NAMED_UNIT(#702)
);
#414=(
MASS_UNIT()
NAMED_UNIT(*)
SI_UNIT(.KILO.,.GRAM.)
);
#415=MASS_MEASURE_WITH_UNIT(MASS_MEASURE(0.001),#414);
#416=DERIVED_UNIT((#411,#412));
#417=MEASURE_REPRESENTATION_ITEM('density measure',
POSITIVE_RATIO_MEASURE(1.425),#416);
#418=PROPERTY_DEFINITION_REPRESENTATION(#423,#420);
#419=PROPERTY_DEFINITION_REPRESENTATION(#424,#421);
#420=REPRESENTATION('material name',(#422),#699);
#421=REPRESENTATION('density',(#417),#699);
#422=DESCRIPTIVE_REPRESENTATION_ITEM('Acetal Resin, Black',
'Acetal Resin, Black');
#423=PROPERTY_DEFINITION('material property','material name',#713);
#424=PROPERTY_DEFINITION('material property','density of part',#713);
#425=DATE_TIME_ROLE('creation_date');
#426=APPLIED_DATE_AND_TIME_ASSIGNMENT(#427,#425,(#713));
#427=DATE_AND_TIME(#428,#429);
#428=CALENDAR_DATE(2026,5,1);
#429=LOCAL_TIME(0,0,0.,#430);
#430=COORDINATED_UNIVERSAL_TIME_OFFSET(0,0,.BEHIND.);
#431=AXIS2_PLACEMENT_3D('',#575,#465,#466);
#432=AXIS2_PLACEMENT_3D('',#576,#467,#468);
#433=AXIS2_PLACEMENT_3D('',#585,#472,#473);
#434=AXIS2_PLACEMENT_3D('',#589,#475,#476);
#435=AXIS2_PLACEMENT_3D('',#597,#480,#481);
#436=AXIS2_PLACEMENT_3D('',#600,#483,#484);
#437=AXIS2_PLACEMENT_3D('',#601,#485,#486);
#438=AXIS2_PLACEMENT_3D('',#605,#488,#489);
#439=AXIS2_PLACEMENT_3D('',#607,#491,#492);
#440=AXIS2_PLACEMENT_3D('',#617,#498,#499);
#441=AXIS2_PLACEMENT_3D('',#625,#504,#505);
#442=AXIS2_PLACEMENT_3D('',#632,#509,#510);
#443=AXIS2_PLACEMENT_3D('',#634,#511,#512);
#444=AXIS2_PLACEMENT_3D('',#635,#513,#514);
#445=AXIS2_PLACEMENT_3D('',#637,#516,#517);
#446=AXIS2_PLACEMENT_3D('',#639,#518,#519);
#447=AXIS2_PLACEMENT_3D('',#647,#523,#524);
#448=AXIS2_PLACEMENT_3D('',#649,#526,#527);
#449=AXIS2_PLACEMENT_3D('',#652,#530,#531);
#450=AXIS2_PLACEMENT_3D('',#659,#536,#537);
#451=AXIS2_PLACEMENT_3D('',#665,#541,#542);
#452=AXIS2_PLACEMENT_3D('',#666,#543,#544);
#453=AXIS2_PLACEMENT_3D('',#668,#546,#547);
#454=AXIS2_PLACEMENT_3D('',#670,#548,#549);
#455=AXIS2_PLACEMENT_3D('',#672,#550,#551);
#456=AXIS2_PLACEMENT_3D('',#673,#552,#553);
#457=AXIS2_PLACEMENT_3D('',#675,#555,#556);
#458=AXIS2_PLACEMENT_3D('',#677,#558,#559);
#459=AXIS2_PLACEMENT_3D('',#679,#561,#562);
#460=AXIS2_PLACEMENT_3D('',#681,#564,#565);
#461=AXIS2_PLACEMENT_3D('',#683,#567,#568);
#462=AXIS2_PLACEMENT_3D('',#684,#569,#570);
#463=AXIS2_PLACEMENT_3D('',#685,#571,#572);
#464=AXIS2_PLACEMENT_3D('',#694,#573,#574);
#465=DIRECTION('axis',(0.,0.,1.));
#466=DIRECTION('refdir',(1.,0.,0.));
#467=DIRECTION('center_axis',(0.390957745612586,-0.920408627265914,-5.38372852073007E-17));
#468=DIRECTION('ref_axis',(0.920408627265914,0.390957745612586,-1.38777878078145E-15));
#469=DIRECTION('',(0.864901195149467,0.367380108591242,0.342020143325669));
#470=DIRECTION('',(-0.31479829061567,-0.133715424188697,0.939692620785908));
#471=DIRECTION('',(0.864901195149467,0.367380108591242,0.342020143325669));
#472=DIRECTION('center_axis',(-0.390957745612586,0.920408627265914,0.));
#473=DIRECTION('ref_axis',(-0.314798290615672,-0.133715424188699,0.939692620785907));
#474=DIRECTION('',(0.920408627265914,0.390957745612586,0.));
#475=DIRECTION('center_axis',(-0.390957745612586,0.920408627265914,0.));
#476=DIRECTION('ref_axis',(0.,-2.3311769545935E-15,1.));
#477=DIRECTION('',(0.864901195149467,0.367380108591241,-0.34202014332567));
#478=DIRECTION('',(-0.314798290615671,-0.133715424188698,-0.939692620785908));
#479=DIRECTION('',(0.864901195149467,0.367380108591241,-0.34202014332567));
#480=DIRECTION('center_axis',(-0.390957745612586,0.920408627265914,0.));
#481=DIRECTION('ref_axis',(0.,-1.3987061727561E-15,1.));
#482=DIRECTION('',(0.920408627265914,0.390957745612586,0.));
#483=DIRECTION('center_axis',(-0.390957745612586,0.920408627265914,0.));
#484=DIRECTION('ref_axis',(-0.314798290615672,-0.133715424188698,0.939692620785908));
#485=DIRECTION('center_axis',(0.390957745612586,-0.920408627265914,0.));
#486=DIRECTION('ref_axis',(0.,0.,1.));
#487=DIRECTION('',(0.390957745612586,-0.920408627265914,0.));
#488=DIRECTION('center_axis',(0.390957745612586,-0.920408627265914,0.));
#489=DIRECTION('ref_axis',(-9.32470781837402E-15,-2.3311769545935E-15,1.));
#490=DIRECTION('',(0.390957745612586,-0.920408627265914,0.));
#491=DIRECTION('center_axis',(-0.31479829061567,-0.133715424188697,0.939692620785909));
#492=DIRECTION('ref_axis',(0.948910480602645,-0.0217010605249897,0.31479829061567));
#493=DIRECTION('',(-0.390957745612586,0.920408627265914,0.));
#494=DIRECTION('',(-0.864901195149467,-0.367380108591242,-0.342020143325669));
#495=DIRECTION('',(0.335128627066473,0.910604147860246,0.241844762647975));
#496=DIRECTION('',(0.390957745612587,-0.920408627265914,1.11022302462516E-16));
#497=DIRECTION('',(-0.888026373226602,0.391050215744413,-0.241844762647975));
#498=DIRECTION('center_axis',(-0.31479829061567,-0.133715424188697,0.939692620785909));
#499=DIRECTION('ref_axis',(0.948910480602645,-0.0217010605249897,0.31479829061567));
#500=DIRECTION('',(0.888026373226602,-0.391050215744413,0.241844762647975));
#501=DIRECTION('',(0.390957745612587,-0.920408627265914,1.11022302462516E-16));
#502=DIRECTION('',(-0.335128627066473,-0.910604147860246,-0.241844762647975));
#503=DIRECTION('',(-0.864901195149467,-0.367380108591242,-0.342020143325669));
#504=DIRECTION('center_axis',(0.,0.,1.));
#505=DIRECTION('ref_axis',(1.,0.,0.));
#506=DIRECTION('',(-0.390957745612586,0.920408627265914,0.));
#507=DIRECTION('',(0.390957745612586,-0.920408627265914,0.));
#508=DIRECTION('',(-0.920408627265914,-0.390957745612586,0.));
#509=DIRECTION('center_axis',(0.,0.,-1.));
#510=DIRECTION('ref_axis',(-1.,0.,0.));
#511=DIRECTION('center_axis',(0.,0.,-1.));
#512=DIRECTION('ref_axis',(-1.,0.,0.));
#513=DIRECTION('center_axis',(-0.390957745612586,0.920408627265914,6.77150730151152E-17));
#514=DIRECTION('ref_axis',(-0.920408627265914,-0.390957745612586,1.38777878078145E-15));
#515=DIRECTION('',(0.31479829061567,0.133715424188697,-0.939692620785908));
#516=DIRECTION('center_axis',(0.390957745612586,-0.920408627265914,0.));
#517=DIRECTION('ref_axis',(-6.99353086378051E-15,-2.79741234551221E-15,
1.));
#518=DIRECTION('center_axis',(0.390957745612586,-0.920408627265914,0.));
#519=DIRECTION('ref_axis',(0.314798290615666,0.133715424188695,0.93969262078591));
#520=DIRECTION('',(-0.864901195149467,-0.367380108591241,0.34202014332567));
#521=DIRECTION('',(0.314798290615671,0.133715424188698,0.939692620785908));
#522=DIRECTION('',(-0.864901195149467,-0.367380108591241,0.34202014332567));
#523=DIRECTION('center_axis',(0.390957745612586,-0.920408627265914,0.));
#524=DIRECTION('ref_axis',(0.314798290615667,0.133715424188692,0.93969262078591));
#525=DIRECTION('',(-0.920408627265914,-0.390957745612586,0.));
#526=DIRECTION('center_axis',(-0.390957745612586,0.920408627265914,0.));
#527=DIRECTION('ref_axis',(0.,0.,1.));
#528=DIRECTION('',(-0.390957745612586,0.920408627265914,-2.77555756156289E-17));
#529=DIRECTION('',(-0.390957745612586,0.920408627265914,0.));
#530=DIRECTION('center_axis',(0.314798290615671,0.133715424188698,0.939692620785908));
#531=DIRECTION('ref_axis',(0.948910480602645,-0.0217010605249899,-0.314798290615671));
#532=DIRECTION('',(0.390957745612586,-0.920408627265914,2.77555756156289E-17));
#533=DIRECTION('',(-0.335128627066473,-0.910604147860246,0.241844762647976));
#534=DIRECTION('',(-0.390957745612586,0.920408627265914,-1.38777878078145E-17));
#535=DIRECTION('',(0.888026373226602,-0.391050215744412,-0.241844762647976));
#536=DIRECTION('center_axis',(0.314798290615671,0.133715424188698,0.939692620785908));
#537=DIRECTION('ref_axis',(0.948910480602645,-0.0217010605249899,-0.314798290615671));
#538=DIRECTION('',(-0.888026373226602,0.391050215744412,0.241844762647976));
#539=DIRECTION('',(-0.390957745612586,0.920408627265914,-1.38777878078145E-17));
#540=DIRECTION('',(0.335128627066473,0.910604147860246,-0.241844762647976));
#541=DIRECTION('center_axis',(0.390957745612586,-0.920408627265914,0.));
#542=DIRECTION('ref_axis',(0.,0.,1.));
#543=DIRECTION('center_axis',(-0.335128627066473,-0.910604147860246,-0.241844762647975));
#544=DIRECTION('ref_axis',(0.31479829061567,0.133715424188697,-0.939692620785908));
#545=DIRECTION('',(0.31479829061567,0.133715424188697,-0.939692620785908));
#546=DIRECTION('center_axis',(0.,0.,1.));
#547=DIRECTION('ref_axis',(1.,0.,0.));
#548=DIRECTION('center_axis',(0.,0.,-1.));
#549=DIRECTION('ref_axis',(-1.,0.,0.));
#550=DIRECTION('center_axis',(0.,0.,-1.));
#551=DIRECTION('ref_axis',(-1.,0.,0.));
#552=DIRECTION('center_axis',(-0.888026373226602,0.391050215744413,-0.241844762647975));
#553=DIRECTION('ref_axis',(-0.31479829061567,-0.133715424188697,0.939692620785908));
#554=DIRECTION('',(-0.31479829061567,-0.133715424188697,0.939692620785908));
#555=DIRECTION('center_axis',(0.335128627066472,0.910604147860247,-0.241844762647976));
#556=DIRECTION('ref_axis',(0.314798290615671,0.133715424188698,0.939692620785908));
#557=DIRECTION('',(-0.314798290615671,-0.133715424188698,-0.939692620785908));
#558=DIRECTION('center_axis',(0.888026373226602,-0.391050215744413,-0.241844762647976));
#559=DIRECTION('ref_axis',(-0.314798290615671,-0.133715424188698,-0.939692620785908));
#560=DIRECTION('',(0.314798290615671,0.133715424188698,0.939692620785908));
#561=DIRECTION('center_axis',(0.,0.,1.));
#562=DIRECTION('ref_axis',(-1.,0.,0.));
#563=DIRECTION('',(0.,0.,-1.));
#564=DIRECTION('center_axis',(0.,0.,1.));
#565=DIRECTION('ref_axis',(-1.,0.,0.));
#566=DIRECTION('',(0.,0.,-1.));
#567=DIRECTION('center_axis',(0.864901195149467,0.367380108591241,-0.34202014332567));
#568=DIRECTION('ref_axis',(-0.390957745612586,0.920408627265914,-1.38777878078145E-17));
#569=DIRECTION('center_axis',(-0.864901195149467,-0.367380108591242,-0.342020143325669));
#570=DIRECTION('ref_axis',(0.390957745612587,-0.920408627265914,1.11022302462516E-16));
#571=DIRECTION('center_axis',(-0.390957745612586,0.920408627265914,0.));
#572=DIRECTION('ref_axis',(0.,0.,1.));
#573=DIRECTION('center_axis',(0.,0.,1.));
#574=DIRECTION('ref_axis',(1.,0.,0.));
#575=CARTESIAN_POINT('',(0.,0.,0.));
#576=CARTESIAN_POINT('Origin',(-1.82162946573034,-1.3657968083786,1.03690619895533));
#577=CARTESIAN_POINT('',(-1.13931606435161,-1.07597367841002,-0.236750659617095));
#578=CARTESIAN_POINT('',(-0.3258667038102,-0.730448529311884,0.0849231551964768));
#579=CARTESIAN_POINT('',(-1.57176666192634,-1.25966373270564,-0.407760731279929));
#580=CARTESIAN_POINT('',(-1.10783623529004,-1.06260213599115,-0.330719921695686));
#581=CARTESIAN_POINT('',(-1.10783623529004,-1.06260213599115,-0.330719921695686));
#582=CARTESIAN_POINT('',(-0.294386874748633,-0.717076986893014,-0.00904610688211401));
#583=CARTESIAN_POINT('',(-1.54028683286477,-1.24629219028677,-0.50172999335852));
#584=CARTESIAN_POINT('',(-0.247167131156282,-0.697019673264709,0.));
#585=CARTESIAN_POINT('Origin',(-0.247167131156282,-0.697019673264709,-0.15));
#586=CARTESIAN_POINT('',(2.46292493803195,0.454133688823748,0.));
#587=CARTESIAN_POINT('',(-1.65334697835991,-1.29431622905824,0.));
#588=CARTESIAN_POINT('',(2.5101446816243,0.474191002452053,-0.0090461068821137));
#589=CARTESIAN_POINT('Origin',(2.46292493803195,0.454133688823749,-0.15));
#590=CARTESIAN_POINT('',(3.32359404216571,0.819716151550194,-0.330719921695687));
#591=CARTESIAN_POINT('',(-1.43336253115636,-1.20087444570163,1.5503908665955));
#592=CARTESIAN_POINT('',(3.35507387122727,0.833087693969063,-0.236750659617096));
#593=CARTESIAN_POINT('',(3.32359404216571,0.819716151550194,-0.330719921695687));
#594=CARTESIAN_POINT('',(2.54162451068586,0.487562544870923,0.0849231551964771));
#595=CARTESIAN_POINT('',(-1.40188270209479,-1.18750290328276,1.64436012867409));
#596=CARTESIAN_POINT('',(2.46292493803195,0.454133688823748,0.1));
#597=CARTESIAN_POINT('Origin',(2.46292493803195,0.454133688823749,-0.15));
#598=CARTESIAN_POINT('',(-0.247167131156282,-0.697019673264709,0.1));
#599=CARTESIAN_POINT('',(-1.65334697835991,-1.29431622905824,0.1));
#600=CARTESIAN_POINT('Origin',(-0.247167131156282,-0.697019673264709,-0.15));
#601=CARTESIAN_POINT('Origin',(-0.991650064789567,1.05567233158261,-0.15));
#602=CARTESIAN_POINT('',(-1.85821785719898,2.96455752217064,-0.00904610688211396));
#603=CARTESIAN_POINT('',(-0.791863211599556,0.454102040602109,-0.00904610688211396));
#604=CARTESIAN_POINT('',(-1.81099811360663,2.98461483579895,0.));
#605=CARTESIAN_POINT('Origin',(-1.81099811360663,2.98461483579895,-0.15));
#606=CARTESIAN_POINT('',(-0.744643468007206,0.474159354230413,0.));
#607=CARTESIAN_POINT('Origin',(0.241021432296884,1.68329384759991,0.618299698697076));
#608=CARTESIAN_POINT('',(-1.88969768626055,2.95118597975177,0.0849231551964769));
#609=CARTESIAN_POINT('',(-0.823343040661123,0.440730498183239,0.0849231551964769));
#610=CARTESIAN_POINT('',(-2.70314704680195,2.60566083065363,-0.236750659617095));
#611=CARTESIAN_POINT('',(2.05380952652011,4.62625142790546,1.64436012867408));
#612=CARTESIAN_POINT('',(-2.9401187715704,1.96176646272506,-0.407760731279929));
#613=CARTESIAN_POINT('',(-2.70314704680195,2.60566083065363,-0.236750659617095));
#614=CARTESIAN_POINT('',(-1.76724553473264,-0.799459419072687,-0.407760731279929));
#615=CARTESIAN_POINT('',(-3.13559764437669,2.42197077635801,-0.407760731279929));
#616=CARTESIAN_POINT('',(-1.13931606435161,-1.07597367841002,-0.236750659617095));
#617=CARTESIAN_POINT('Origin',(0.272501261358451,1.69666539001878,0.524330436618486));
#618=CARTESIAN_POINT('',(-1.73576570567107,-0.786087876653817,-0.50172999335852));
#619=CARTESIAN_POINT('',(-1.10783623529004,-1.06260213599115,-0.330719921695686));
#620=CARTESIAN_POINT('',(-2.90863894250883,1.97513800514393,-0.50172999335852));
#621=CARTESIAN_POINT('',(-3.10411781531512,2.43534231877688,-0.50172999335852));
#622=CARTESIAN_POINT('',(-2.67166721774039,2.6190323730725,-0.330719921695686));
#623=CARTESIAN_POINT('',(-2.67166721774039,2.6190323730725,-0.330719921695686));
#624=CARTESIAN_POINT('',(2.08528935558168,4.63962297032433,1.55039086659549));
#625=CARTESIAN_POINT('Origin',(0.325963412212659,1.71937426231135,0.1));
#626=CARTESIAN_POINT('',(-1.81099811360663,2.98461483579895,0.1));
#627=CARTESIAN_POINT('',(-0.744643468007206,0.474159354230413,0.1));
#628=CARTESIAN_POINT('',(0.899093955581602,4.13576819788741,0.1));
#629=CARTESIAN_POINT('',(1.96544860118102,1.62531271631887,0.1));
#630=CARTESIAN_POINT('',(2.30527380278523,4.73306475368094,0.1));
#631=CARTESIAN_POINT('',(0.737926824425321,3.43874852462269,0.1));
#632=CARTESIAN_POINT('Origin',(0.651926824425321,3.43874852462269,0.1));
#633=CARTESIAN_POINT('',(0.0860000000000001,1.3987061727561E-15,0.1));
#634=CARTESIAN_POINT('Origin',(1.74838271594513E-16,1.3987061727561E-15,
0.1));
#635=CARTESIAN_POINT('Origin',(2.1369913154148,4.66158417436058,1.03690619895532));
#636=CARTESIAN_POINT('',(-2.67166721774039,2.6190323730725,-0.330719921695686));
#637=CARTESIAN_POINT('Origin',(-1.81099811360663,2.98461483579895,-0.15));
#638=CARTESIAN_POINT('',(0.977793528235519,4.16919705393458,0.0849231551964769));
#639=CARTESIAN_POINT('Origin',(0.899093955581602,4.13576819788741,-0.15));
#640=CARTESIAN_POINT('',(1.79124288877693,4.51472220303272,-0.236750659617096));
#641=CARTESIAN_POINT('',(2.22369348635166,4.69841225732834,-0.407760731279931));
#642=CARTESIAN_POINT('',(1.75976305971536,4.50135066061385,-0.330719921695687));
#643=CARTESIAN_POINT('',(1.75976305971536,4.50135066061385,-0.330719921695687));
#644=CARTESIAN_POINT('',(0.946313699173952,4.15582551151571,-0.00904610688211387));
#645=CARTESIAN_POINT('',(2.19221365729009,4.68504071490947,-0.501729993358522));
#646=CARTESIAN_POINT('',(0.899093955581602,4.13576819788741,0.));
#647=CARTESIAN_POINT('Origin',(0.899093955581602,4.13576819788741,-0.15));
#648=CARTESIAN_POINT('',(2.30527380278523,4.73306475368094,0.));
#649=CARTESIAN_POINT('Origin',(1.68100944680677,2.29495094335558,-0.15));
#650=CARTESIAN_POINT('',(2.01266834477337,1.64537002994718,-0.00904610688211387));
#651=CARTESIAN_POINT('',(1.96544860118102,1.62531271631887,0.));
#652=CARTESIAN_POINT('Origin',(0.410905392128434,1.75545467702279,0.618299698697079));
#653=CARTESIAN_POINT('',(2.04414817383494,1.65874157236605,0.0849231551964769));
#654=CARTESIAN_POINT('',(3.59204559599571,1.47698206189764,-0.407760731279931));
#655=CARTESIAN_POINT('',(3.35507387122727,0.833087693969063,-0.236750659617096));
#656=CARTESIAN_POINT('',(2.41917235915795,4.23820794369539,-0.407760731279931));
#657=CARTESIAN_POINT('',(3.78752446880201,1.01677774826468,-0.407760731279931));
#658=CARTESIAN_POINT('',(1.79124288877693,4.51472220303272,-0.236750659617096));
#659=CARTESIAN_POINT('Origin',(0.379425563066867,1.74208313460392,0.524330436618488));
#660=CARTESIAN_POINT('',(2.38769253009639,4.22483640127652,-0.501729993358522));
#661=CARTESIAN_POINT('',(1.75976305971536,4.50135066061385,-0.330719921695687));
#662=CARTESIAN_POINT('',(3.56056576693415,1.46361051947877,-0.501729993358522));
#663=CARTESIAN_POINT('',(3.75604463974044,1.00340620584581,-0.501729993358522));
#664=CARTESIAN_POINT('',(3.32359404216571,0.819716151550193,-0.330719921695687));
#665=CARTESIAN_POINT('Origin',(-0.991650064789567,1.05567233158261,-0.15));
#666=CARTESIAN_POINT('Origin',(-1.42180097048055,-0.924345006322486,-0.416224957527103));
#667=CARTESIAN_POINT('',(-1.73576570567107,-0.786087876653817,-0.50172999335852));
#668=CARTESIAN_POINT('Origin',(0.325963412212659,1.71937426231135,0.));
#669=CARTESIAN_POINT('',(0.737926824425321,3.43874852462269,0.));
#670=CARTESIAN_POINT('Origin',(0.651926824425321,3.43874852462269,0.));
#671=CARTESIAN_POINT('',(0.0860000000000002,1.40923813522877E-15,0.));
#672=CARTESIAN_POINT('Origin',(1.74838271594513E-16,1.3987061727561E-15,
0.));
#673=CARTESIAN_POINT('Origin',(-2.79015308012461,2.29708518910821,-0.416224957527103));
#674=CARTESIAN_POINT('',(-2.90863894250883,1.97513800514393,-0.50172999335852));
#675=CARTESIAN_POINT('Origin',(2.07372779490587,4.36309353094518,-0.416224957527105));
#676=CARTESIAN_POINT('',(2.38769253009639,4.22483640127652,-0.501729993358522));
#677=CARTESIAN_POINT('Origin',(3.44207990454993,1.14166333551448,-0.416224957527104));
#678=CARTESIAN_POINT('',(3.56056576693415,1.46361051947877,-0.501729993358522));
#679=CARTESIAN_POINT('Origin',(1.74838271594513E-16,1.3987061727561E-15,
0.));
#680=CARTESIAN_POINT('',(0.0860000000000002,1.40923813522877E-15,0.));
#681=CARTESIAN_POINT('Origin',(0.651926824425321,3.43874852462269,0.));
#682=CARTESIAN_POINT('',(0.737926824425321,3.43874852462269,0.));
#683=CARTESIAN_POINT('Origin',(3.75604463974044,1.00340620584581,-0.501729993358522));
#684=CARTESIAN_POINT('Origin',(-3.10411781531512,2.43534231877688,-0.50172999335852));
#685=CARTESIAN_POINT('Origin',(1.68100944680677,2.29495094335558,-0.15));
#686=CARTESIAN_POINT('polyline point',(-1.19314266472695,-1.09883735625195,
0.1));
#687=CARTESIAN_POINT('polyline point',(3.40890047160262,0.855951371810985,
0.1));
#688=CARTESIAN_POINT('polyline point',(2.46292493803195,0.454133688823748,
0.1));
#689=CARTESIAN_POINT('polyline point',(0.899093955581602,4.13576819788741,
0.1));
#690=CARTESIAN_POINT('polyline point',(1.84506948915227,4.53758588087464,
0.1));
#691=CARTESIAN_POINT('polyline point',(-2.7569736471773,2.58279715281171,
0.1));
#692=CARTESIAN_POINT('polyline point',(-1.85580079388273,3.09009112809276,
0.1));
#693=CARTESIAN_POINT('polyline point',(-0.127499335696402,-0.978746464927535,
0.1));
#694=CARTESIAN_POINT('Origin',(0.651926824425321,3.43874852462269,0.1));
#695=CARTESIAN_POINT('',(0.,0.,0.1));
#696=CARTESIAN_POINT('',(1.74838271594513E-16,1.3987061727561E-15,0.1));
#697=UNCERTAINTY_MEASURE_WITH_UNIT(LENGTH_MEASURE(0.000393700787401575),
#703,'DISTANCE_ACCURACY_VALUE',
'Maximum model space distance between geometric entities at asserted c
onnectivities');
#698=UNCERTAINTY_MEASURE_WITH_UNIT(LENGTH_MEASURE(0.000393700787401575),
#703,'DISTANCE_ACCURACY_VALUE',
'Maximum model space distance between geometric entities at asserted c
onnectivities');
#699=(
GEOMETRIC_REPRESENTATION_CONTEXT(3)
GLOBAL_UNCERTAINTY_ASSIGNED_CONTEXT((#697))
GLOBAL_UNIT_ASSIGNED_CONTEXT((#703,#707,#708))
REPRESENTATION_CONTEXT('','3D')
);
#700=(
GEOMETRIC_REPRESENTATION_CONTEXT(3)
GLOBAL_UNCERTAINTY_ASSIGNED_CONTEXT((#698))
GLOBAL_UNIT_ASSIGNED_CONTEXT((#703,#707,#708))
REPRESENTATION_CONTEXT('','3D')
);
#701=DIMENSIONAL_EXPONENTS(1.,0.,0.,0.,0.,0.,0.);
#702=DIMENSIONAL_EXPONENTS(0.,1.,0.,0.,0.,0.,0.);
#703=(
CONVERSION_BASED_UNIT('inch',#706)
LENGTH_UNIT()
NAMED_UNIT(#701)
);
#704=(
LENGTH_UNIT()
NAMED_UNIT(*)
SI_UNIT(.MILLI.,.METRE.)
);
#705=(
LENGTH_UNIT()
NAMED_UNIT(*)
SI_UNIT(.CENTI.,.METRE.)
);
#706=LENGTH_MEASURE_WITH_UNIT(LENGTH_MEASURE(25.4),#704);
#707=(
NAMED_UNIT(*)
PLANE_ANGLE_UNIT()
SI_UNIT($,.RADIAN.)
);
#708=(
NAMED_UNIT(*)
SI_UNIT($,.STERADIAN.)
SOLID_ANGLE_UNIT()
);
#709=SHAPE_DEFINITION_REPRESENTATION(#710,#711);
#710=PRODUCT_DEFINITION_SHAPE('',$,#713);
#711=SHAPE_REPRESENTATION('',(#431),#699);
#712=PRODUCT_DEFINITION_CONTEXT('part definition',#717,'design');
#713=PRODUCT_DEFINITION('aligner','aligner',#714,#712);
#714=PRODUCT_DEFINITION_FORMATION('',$,#719);
#715=PRODUCT_RELATED_PRODUCT_CATEGORY('aligner','aligner',(#719));
#716=APPLICATION_PROTOCOL_DEFINITION('international standard',
'automotive_design',2009,#717);
#717=APPLICATION_CONTEXT(
'Core Data for Automotive Mechanical Design Process');
#718=PRODUCT_CONTEXT('part definition',#717,'mechanical');
#719=PRODUCT('aligner','aligner',$,(#718));
#720=PRESENTATION_STYLE_ASSIGNMENT((#723));
#721=PRESENTATION_STYLE_ASSIGNMENT((#724));
#722=PRESENTATION_STYLE_ASSIGNMENT((#725));
#723=SURFACE_STYLE_USAGE(.BOTH.,#728);
#724=SURFACE_STYLE_USAGE(.BOTH.,#729);
#725=SURFACE_STYLE_USAGE(.BOTH.,#730);
#726=SURFACE_STYLE_RENDERING_WITH_PROPERTIES($,#740,(#727));
#727=SURFACE_STYLE_TRANSPARENT(0.);
#728=SURFACE_SIDE_STYLE('',(#731,#726));
#729=SURFACE_SIDE_STYLE('',(#732));
#730=SURFACE_SIDE_STYLE('',(#733));
#731=SURFACE_STYLE_FILL_AREA(#734);
#732=SURFACE_STYLE_FILL_AREA(#735);
#733=SURFACE_STYLE_FILL_AREA(#736);
#734=FILL_AREA_STYLE('',(#737));
#735=FILL_AREA_STYLE('',(#738));
#736=FILL_AREA_STYLE('',(#739));
#737=FILL_AREA_STYLE_COLOUR('',#740);
#738=FILL_AREA_STYLE_COLOUR('',#741);
#739=FILL_AREA_STYLE_COLOUR('',#742);
#740=COLOUR_RGB('',0.0196078431372549,0.0196078431372549,0.0196078431372549);
#741=COLOUR_RGB('',0.913725490196078,0.913725490196078,0.);
#742=COLOUR_RGB('',1.,1.,1.);
ENDSEC;
END-ISO-10303-21;
