ISO-10303-21;
HEADER;
/* Generated by software containing ST-Developer
 * from STEP Tools, Inc. (www.steptools.com) 
 */

FILE_DESCRIPTION(
/* description */ (''),
/* implementation_level */ '2;1');

FILE_NAME(
/* name */ 'bottom rails.stp',
/* time_stamp */ '2026-01-16T10:15:01+13:00',
/* author */ ('cloudy'),
/* organization */ (''),
/* preprocessor_version */ 'ST-DEVELOPER v20',
/* originating_system */ 'Autodesk Inventor 2025',
/* authorisation */ '');

FILE_SCHEMA (('AUTOMOTIVE_DESIGN { 1 0 10303 214 3 1 1 }'));
ENDSEC;

DATA;
#10=MECHANICAL_DESIGN_GEOMETRIC_PRESENTATION_REPRESENTATION('',(#13),#1113);
#11=SHAPE_REPRESENTATION_RELATIONSHIP('SRR','None',#1124,#12);
#12=ADVANCED_BREP_SHAPE_REPRESENTATION('',(#14),#1112);
#13=STYLED_ITEM('',(#1133),#14);
#14=MANIFOLD_SOLID_BREP('Solid1',#653);
#15=CYLINDRICAL_SURFACE('',#690,0.225);
#16=CYLINDRICAL_SURFACE('',#692,0.225);
#17=CYLINDRICAL_SURFACE('',#717,0.1875);
#18=CYLINDRICAL_SURFACE('',#719,0.1875);
#19=CYLINDRICAL_SURFACE('',#721,0.0885000000000001);
#20=CYLINDRICAL_SURFACE('',#723,0.0885000000000001);
#21=CYLINDRICAL_SURFACE('',#726,0.225);
#22=CYLINDRICAL_SURFACE('',#728,0.225);
#23=CYLINDRICAL_SURFACE('',#730,0.225);
#24=CYLINDRICAL_SURFACE('',#731,0.225);
#25=CYLINDRICAL_SURFACE('',#732,0.0865000000000136);
#26=CYLINDRICAL_SURFACE('',#733,0.0865000000000021);
#27=CYLINDRICAL_SURFACE('',#734,0.0865000000000104);
#28=CYLINDRICAL_SURFACE('',#735,0.0865000000000019);
#29=CYLINDRICAL_SURFACE('',#736,0.0859999999999992);
#30=CYLINDRICAL_SURFACE('',#737,0.0860000000000065);
#31=FACE_BOUND('',#113,.T.);
#32=FACE_BOUND('',#114,.T.);
#33=FACE_BOUND('',#115,.T.);
#34=FACE_BOUND('',#116,.T.);
#35=FACE_BOUND('',#117,.T.);
#36=FACE_BOUND('',#118,.T.);
#37=FACE_BOUND('',#124,.T.);
#38=FACE_BOUND('',#125,.T.);
#39=FACE_BOUND('',#126,.T.);
#40=FACE_BOUND('',#127,.T.);
#41=FACE_BOUND('',#128,.T.);
#42=FACE_BOUND('',#129,.T.);
#43=FACE_BOUND('',#132,.T.);
#44=FACE_BOUND('',#135,.T.);
#45=FACE_BOUND('',#148,.T.);
#46=FACE_BOUND('',#158,.T.);
#47=CIRCLE('',#677,0.225);
#48=CIRCLE('',#678,0.225);
#49=CIRCLE('',#679,0.225);
#50=CIRCLE('',#680,0.225);
#51=CIRCLE('',#681,0.225);
#52=CIRCLE('',#682,0.225);
#53=CIRCLE('',#683,0.0860000000000065);
#54=CIRCLE('',#684,0.0859999999999992);
#55=CIRCLE('',#685,0.0865000000000019);
#56=CIRCLE('',#686,0.0865000000000104);
#57=CIRCLE('',#687,0.0865000000000021);
#58=CIRCLE('',#688,0.0865000000000136);
#59=CIRCLE('',#691,0.225);
#60=CIRCLE('',#693,0.225);
#61=CIRCLE('',#696,0.225);
#62=CIRCLE('',#697,0.225);
#63=CIRCLE('',#698,0.225);
#64=CIRCLE('',#699,0.225);
#65=CIRCLE('',#700,0.0865000000000136);
#66=CIRCLE('',#701,0.0865000000000021);
#67=CIRCLE('',#702,0.0865000000000104);
#68=CIRCLE('',#703,0.0865000000000019);
#69=CIRCLE('',#704,0.0859999999999992);
#70=CIRCLE('',#705,0.0860000000000065);
#71=CIRCLE('',#708,0.1875);
#72=CIRCLE('',#709,0.0885000000000001);
#73=CIRCLE('',#712,0.1875);
#74=CIRCLE('',#713,0.0885000000000001);
#75=CIRCLE('',#718,0.1875);
#76=CIRCLE('',#720,0.1875);
#77=CIRCLE('',#722,0.0885000000000001);
#78=CIRCLE('',#724,0.0885000000000001);
#79=FACE_OUTER_BOUND('',#111,.T.);
#80=FACE_OUTER_BOUND('',#112,.T.);
#81=FACE_OUTER_BOUND('',#119,.T.);
#82=FACE_OUTER_BOUND('',#120,.T.);
#83=FACE_OUTER_BOUND('',#121,.T.);
#84=FACE_OUTER_BOUND('',#122,.T.);
#85=FACE_OUTER_BOUND('',#123,.T.);
#86=FACE_OUTER_BOUND('',#130,.T.);
#87=FACE_OUTER_BOUND('',#131,.T.);
#88=FACE_OUTER_BOUND('',#133,.T.);
#89=FACE_OUTER_BOUND('',#134,.T.);
#90=FACE_OUTER_BOUND('',#136,.T.);
#91=FACE_OUTER_BOUND('',#137,.T.);
#92=FACE_OUTER_BOUND('',#138,.T.);
#93=FACE_OUTER_BOUND('',#139,.T.);
#94=FACE_OUTER_BOUND('',#140,.T.);
#95=FACE_OUTER_BOUND('',#141,.T.);
#96=FACE_OUTER_BOUND('',#142,.T.);
#97=FACE_OUTER_BOUND('',#143,.T.);
#98=FACE_OUTER_BOUND('',#144,.T.);
#99=FACE_OUTER_BOUND('',#145,.T.);
#100=FACE_OUTER_BOUND('',#146,.T.);
#101=FACE_OUTER_BOUND('',#147,.T.);
#102=FACE_OUTER_BOUND('',#149,.T.);
#103=FACE_OUTER_BOUND('',#150,.T.);
#104=FACE_OUTER_BOUND('',#151,.T.);
#105=FACE_OUTER_BOUND('',#152,.T.);
#106=FACE_OUTER_BOUND('',#153,.T.);
#107=FACE_OUTER_BOUND('',#154,.T.);
#108=FACE_OUTER_BOUND('',#155,.T.);
#109=FACE_OUTER_BOUND('',#156,.T.);
#110=FACE_OUTER_BOUND('',#157,.T.);
#111=EDGE_LOOP('',(#425,#426,#427,#428));
#112=EDGE_LOOP('',(#429,#430,#431,#432,#433,#434,#435,#436,#437,#438,#439,
#440,#441,#442,#443,#444,#445,#446,#447,#448));
#113=EDGE_LOOP('',(#449));
#114=EDGE_LOOP('',(#450));
#115=EDGE_LOOP('',(#451));
#116=EDGE_LOOP('',(#452));
#117=EDGE_LOOP('',(#453));
#118=EDGE_LOOP('',(#454));
#119=EDGE_LOOP('',(#455,#456,#457,#458));
#120=EDGE_LOOP('',(#459,#460,#461,#462));
#121=EDGE_LOOP('',(#463,#464,#465,#466));
#122=EDGE_LOOP('',(#467,#468,#469,#470));
#123=EDGE_LOOP('',(#471,#472,#473,#474,#475,#476,#477,#478,#479,#480,#481,
#482));
#124=EDGE_LOOP('',(#483));
#125=EDGE_LOOP('',(#484));
#126=EDGE_LOOP('',(#485));
#127=EDGE_LOOP('',(#486));
#128=EDGE_LOOP('',(#487));
#129=EDGE_LOOP('',(#488));
#130=EDGE_LOOP('',(#489,#490,#491,#492));
#131=EDGE_LOOP('',(#493,#494,#495,#496));
#132=EDGE_LOOP('',(#497));
#133=EDGE_LOOP('',(#498,#499,#500,#501));
#134=EDGE_LOOP('',(#502,#503,#504,#505));
#135=EDGE_LOOP('',(#506));
#136=EDGE_LOOP('',(#507,#508,#509,#510,#511));
#137=EDGE_LOOP('',(#512,#513,#514,#515,#516));
#138=EDGE_LOOP('',(#517,#518,#519,#520,#521));
#139=EDGE_LOOP('',(#522,#523,#524,#525));
#140=EDGE_LOOP('',(#526,#527,#528,#529));
#141=EDGE_LOOP('',(#530,#531,#532,#533));
#142=EDGE_LOOP('',(#534,#535,#536,#537));
#143=EDGE_LOOP('',(#538,#539,#540,#541,#542));
#144=EDGE_LOOP('',(#543,#544,#545,#546));
#145=EDGE_LOOP('',(#547,#548,#549,#550));
#146=EDGE_LOOP('',(#551,#552,#553,#554));
#147=EDGE_LOOP('',(#555,#556,#557,#558,#559,#560,#561,#562));
#148=EDGE_LOOP('',(#563));
#149=EDGE_LOOP('',(#564,#565,#566,#567));
#150=EDGE_LOOP('',(#568,#569,#570,#571));
#151=EDGE_LOOP('',(#572,#573,#574,#575));
#152=EDGE_LOOP('',(#576,#577,#578,#579));
#153=EDGE_LOOP('',(#580,#581,#582,#583));
#154=EDGE_LOOP('',(#584,#585,#586,#587));
#155=EDGE_LOOP('',(#588,#589,#590,#591));
#156=EDGE_LOOP('',(#592,#593,#594,#595));
#157=EDGE_LOOP('',(#596,#597,#598,#599,#600,#601,#602,#603));
#158=EDGE_LOOP('',(#604));
#159=LINE('',#931,#217);
#160=LINE('',#933,#218);
#161=LINE('',#935,#219);
#162=LINE('',#936,#220);
#163=LINE('',#941,#221);
#164=LINE('',#943,#222);
#165=LINE('',#945,#223);
#166=LINE('',#947,#224);
#167=LINE('',#949,#225);
#168=LINE('',#953,#226);
#169=LINE('',#957,#227);
#170=LINE('',#959,#228);
#171=LINE('',#961,#229);
#172=LINE('',#963,#230);
#173=LINE('',#965,#231);
#174=LINE('',#969,#232);
#175=LINE('',#973,#233);
#176=LINE('',#989,#234);
#177=LINE('',#991,#235);
#178=LINE('',#992,#236);
#179=LINE('',#996,#237);
#180=LINE('',#999,#238);
#181=LINE('',#1002,#239);
#182=LINE('',#1009,#240);
#183=LINE('',#1013,#241);
#184=LINE('',#1016,#242);
#185=LINE('',#1031,#243);
#186=LINE('',#1033,#244);
#187=LINE('',#1034,#245);
#188=LINE('',#1037,#246);
#189=LINE('',#1040,#247);
#190=LINE('',#1045,#248);
#191=LINE('',#1047,#249);
#192=LINE('',#1048,#250);
#193=LINE('',#1051,#251);
#194=LINE('',#1054,#252);
#195=LINE('',#1059,#253);
#196=LINE('',#1060,#254);
#197=LINE('',#1063,#255);
#198=LINE('',#1064,#256);
#199=LINE('',#1067,#257);
#200=LINE('',#1068,#258);
#201=LINE('',#1074,#259);
#202=LINE('',#1078,#260);
#203=LINE('',#1081,#261);
#204=LINE('',#1084,#262);
#205=LINE('',#1086,#263);
#206=LINE('',#1087,#264);
#207=LINE('',#1089,#265);
#208=LINE('',#1091,#266);
#209=LINE('',#1093,#267);
#210=LINE('',#1096,#268);
#211=LINE('',#1098,#269);
#212=LINE('',#1100,#270);
#213=LINE('',#1102,#271);
#214=LINE('',#1104,#272);
#215=LINE('',#1106,#273);
#216=LINE('',#1108,#274);
#217=VECTOR('',#743,0.393700787401575);
#218=VECTOR('',#744,0.393700787401575);
#219=VECTOR('',#745,0.393700787401575);
#220=VECTOR('',#746,0.393700787401575);
#221=VECTOR('',#751,0.393700787401575);
#222=VECTOR('',#752,0.393700787401575);
#223=VECTOR('',#753,0.393700787401575);
#224=VECTOR('',#754,0.393700787401575);
#225=VECTOR('',#755,0.393700787401575);
#226=VECTOR('',#758,0.393700787401575);
#227=VECTOR('',#761,0.393700787401575);
#228=VECTOR('',#762,0.393700787401575);
#229=VECTOR('',#763,0.393700787401575);
#230=VECTOR('',#764,0.393700787401575);
#231=VECTOR('',#765,0.393700787401575);
#232=VECTOR('',#768,0.393700787401575);
#233=VECTOR('',#771,0.393700787401575);
#234=VECTOR('',#788,0.393700787401575);
#235=VECTOR('',#789,0.393700787401575);
#236=VECTOR('',#790,0.393700787401575);
#237=VECTOR('',#795,0.393700787401575);
#238=VECTOR('',#798,0.393700787401575);
#239=VECTOR('',#803,0.393700787401575);
#240=VECTOR('',#810,0.393700787401575);
#241=VECTOR('',#813,0.393700787401575);
#242=VECTOR('',#816,0.393700787401575);
#243=VECTOR('',#831,0.393700787401575);
#244=VECTOR('',#832,0.393700787401575);
#245=VECTOR('',#833,0.393700787401575);
#246=VECTOR('',#836,0.393700787401575);
#247=VECTOR('',#839,0.393700787401575);
#248=VECTOR('',#844,0.393700787401575);
#249=VECTOR('',#845,0.393700787401575);
#250=VECTOR('',#846,0.393700787401575);
#251=VECTOR('',#849,0.393700787401575);
#252=VECTOR('',#852,0.393700787401575);
#253=VECTOR('',#857,0.393700787401575);
#254=VECTOR('',#858,0.393700787401575);
#255=VECTOR('',#861,0.393700787401575);
#256=VECTOR('',#862,0.393700787401575);
#257=VECTOR('',#865,0.393700787401575);
#258=VECTOR('',#866,0.393700787401575);
#259=VECTOR('',#875,0.393700787401575);
#260=VECTOR('',#880,0.0885000000000001);
#261=VECTOR('',#883,0.0885000000000001);
#262=VECTOR('',#888,0.393700787401575);
#263=VECTOR('',#891,0.393700787401575);
#264=VECTOR('',#892,0.393700787401575);
#265=VECTOR('',#895,0.393700787401575);
#266=VECTOR('',#898,0.393700787401575);
#267=VECTOR('',#901,0.393700787401575);
#268=VECTOR('',#906,0.393700787401575);
#269=VECTOR('',#909,0.0865000000000136);
#270=VECTOR('',#912,0.0865000000000021);
#271=VECTOR('',#915,0.0865000000000104);
#272=VECTOR('',#918,0.0865000000000019);
#273=VECTOR('',#921,0.0859999999999992);
#274=VECTOR('',#924,0.0860000000000065);
#275=VERTEX_POINT('',#929);
#276=VERTEX_POINT('',#930);
#277=VERTEX_POINT('',#932);
#278=VERTEX_POINT('',#934);
#279=VERTEX_POINT('',#938);
#280=VERTEX_POINT('',#940);
#281=VERTEX_POINT('',#942);
#282=VERTEX_POINT('',#944);
#283=VERTEX_POINT('',#946);
#284=VERTEX_POINT('',#948);
#285=VERTEX_POINT('',#950);
#286=VERTEX_POINT('',#952);
#287=VERTEX_POINT('',#954);
#288=VERTEX_POINT('',#956);
#289=VERTEX_POINT('',#958);
#290=VERTEX_POINT('',#960);
#291=VERTEX_POINT('',#962);
#292=VERTEX_POINT('',#964);
#293=VERTEX_POINT('',#966);
#294=VERTEX_POINT('',#968);
#295=VERTEX_POINT('',#970);
#296=VERTEX_POINT('',#972);
#297=VERTEX_POINT('',#975);
#298=VERTEX_POINT('',#977);
#299=VERTEX_POINT('',#979);
#300=VERTEX_POINT('',#981);
#301=VERTEX_POINT('',#983);
#302=VERTEX_POINT('',#985);
#303=VERTEX_POINT('',#988);
#304=VERTEX_POINT('',#990);
#305=VERTEX_POINT('',#994);
#306=VERTEX_POINT('',#998);
#307=VERTEX_POINT('',#1004);
#308=VERTEX_POINT('',#1006);
#309=VERTEX_POINT('',#1008);
#310=VERTEX_POINT('',#1010);
#311=VERTEX_POINT('',#1012);
#312=VERTEX_POINT('',#1014);
#313=VERTEX_POINT('',#1017);
#314=VERTEX_POINT('',#1019);
#315=VERTEX_POINT('',#1021);
#316=VERTEX_POINT('',#1023);
#317=VERTEX_POINT('',#1025);
#318=VERTEX_POINT('',#1027);
#319=VERTEX_POINT('',#1030);
#320=VERTEX_POINT('',#1032);
#321=VERTEX_POINT('',#1036);
#322=VERTEX_POINT('',#1038);
#323=VERTEX_POINT('',#1041);
#324=VERTEX_POINT('',#1044);
#325=VERTEX_POINT('',#1046);
#326=VERTEX_POINT('',#1050);
#327=VERTEX_POINT('',#1052);
#328=VERTEX_POINT('',#1055);
#329=VERTEX_POINT('',#1058);
#330=VERTEX_POINT('',#1062);
#331=VERTEX_POINT('',#1066);
#332=VERTEX_POINT('',#1072);
#333=VERTEX_POINT('',#1076);
#334=VERTEX_POINT('',#1080);
#335=EDGE_CURVE('',#275,#276,#159,.T.);
#336=EDGE_CURVE('',#277,#275,#160,.T.);
#337=EDGE_CURVE('',#278,#277,#161,.T.);
#338=EDGE_CURVE('',#276,#278,#162,.T.);
#339=EDGE_CURVE('',#279,#275,#47,.T.);
#340=EDGE_CURVE('',#279,#280,#163,.T.);
#341=EDGE_CURVE('',#280,#281,#164,.T.);
#342=EDGE_CURVE('',#282,#281,#165,.T.);
#343=EDGE_CURVE('',#282,#283,#166,.T.);
#344=EDGE_CURVE('',#283,#284,#167,.T.);
#345=EDGE_CURVE('',#285,#284,#48,.T.);
#346=EDGE_CURVE('',#285,#286,#168,.T.);
#347=EDGE_CURVE('',#287,#286,#49,.T.);
#348=EDGE_CURVE('',#287,#288,#169,.T.);
#349=EDGE_CURVE('',#288,#289,#170,.T.);
#350=EDGE_CURVE('',#290,#289,#171,.T.);
#351=EDGE_CURVE('',#290,#291,#172,.T.);
#352=EDGE_CURVE('',#291,#292,#173,.T.);
#353=EDGE_CURVE('',#293,#292,#50,.T.);
#354=EDGE_CURVE('',#293,#294,#174,.T.);
#355=EDGE_CURVE('',#295,#294,#51,.T.);
#356=EDGE_CURVE('',#295,#296,#175,.T.);
#357=EDGE_CURVE('',#277,#296,#52,.T.);
#358=EDGE_CURVE('',#297,#297,#53,.T.);
#359=EDGE_CURVE('',#298,#298,#54,.T.);
#360=EDGE_CURVE('',#299,#299,#55,.T.);
#361=EDGE_CURVE('',#300,#300,#56,.T.);
#362=EDGE_CURVE('',#301,#301,#57,.T.);
#363=EDGE_CURVE('',#302,#302,#58,.T.);
#364=EDGE_CURVE('',#303,#293,#176,.T.);
#365=EDGE_CURVE('',#304,#303,#177,.T.);
#366=EDGE_CURVE('',#294,#304,#178,.T.);
#367=EDGE_CURVE('',#304,#305,#59,.T.);
#368=EDGE_CURVE('',#305,#295,#179,.T.);
#369=EDGE_CURVE('',#296,#306,#180,.T.);
#370=EDGE_CURVE('',#306,#278,#60,.T.);
#371=EDGE_CURVE('',#306,#305,#181,.T.);
#372=EDGE_CURVE('',#276,#307,#61,.T.);
#373=EDGE_CURVE('',#308,#303,#62,.T.);
#374=EDGE_CURVE('',#309,#308,#182,.T.);
#375=EDGE_CURVE('',#310,#309,#63,.T.);
#376=EDGE_CURVE('',#311,#310,#183,.T.);
#377=EDGE_CURVE('',#312,#311,#64,.T.);
#378=EDGE_CURVE('',#307,#312,#184,.T.);
#379=EDGE_CURVE('',#313,#313,#65,.T.);
#380=EDGE_CURVE('',#314,#314,#66,.T.);
#381=EDGE_CURVE('',#315,#315,#67,.T.);
#382=EDGE_CURVE('',#316,#316,#68,.T.);
#383=EDGE_CURVE('',#317,#317,#69,.T.);
#384=EDGE_CURVE('',#318,#318,#70,.T.);
#385=EDGE_CURVE('',#281,#319,#185,.T.);
#386=EDGE_CURVE('',#319,#320,#186,.T.);
#387=EDGE_CURVE('',#320,#282,#187,.T.);
#388=EDGE_CURVE('',#321,#319,#188,.T.);
#389=EDGE_CURVE('',#322,#321,#71,.T.);
#390=EDGE_CURVE('',#320,#322,#189,.T.);
#391=EDGE_CURVE('',#323,#323,#72,.T.);
#392=EDGE_CURVE('',#289,#324,#190,.T.);
#393=EDGE_CURVE('',#324,#325,#191,.T.);
#394=EDGE_CURVE('',#325,#290,#192,.T.);
#395=EDGE_CURVE('',#326,#324,#193,.T.);
#396=EDGE_CURVE('',#327,#326,#73,.T.);
#397=EDGE_CURVE('',#325,#327,#194,.T.);
#398=EDGE_CURVE('',#328,#328,#74,.T.);
#399=EDGE_CURVE('',#280,#329,#195,.T.);
#400=EDGE_CURVE('',#321,#329,#196,.T.);
#401=EDGE_CURVE('',#322,#330,#197,.T.);
#402=EDGE_CURVE('',#330,#283,#198,.T.);
#403=EDGE_CURVE('',#331,#288,#199,.T.);
#404=EDGE_CURVE('',#331,#326,#200,.T.);
#405=EDGE_CURVE('',#329,#330,#75,.T.);
#406=EDGE_CURVE('',#332,#331,#76,.T.);
#407=EDGE_CURVE('',#332,#327,#201,.T.);
#408=EDGE_CURVE('',#333,#333,#77,.T.);
#409=EDGE_CURVE('',#333,#323,#202,.T.);
#410=EDGE_CURVE('',#328,#334,#203,.T.);
#411=EDGE_CURVE('',#334,#334,#78,.T.);
#412=EDGE_CURVE('',#291,#332,#204,.T.);
#413=EDGE_CURVE('',#284,#312,#205,.T.);
#414=EDGE_CURVE('',#311,#285,#206,.T.);
#415=EDGE_CURVE('',#286,#310,#207,.T.);
#416=EDGE_CURVE('',#309,#287,#208,.T.);
#417=EDGE_CURVE('',#292,#308,#209,.T.);
#418=EDGE_CURVE('',#307,#279,#210,.T.);
#419=EDGE_CURVE('',#302,#313,#211,.T.);
#420=EDGE_CURVE('',#301,#314,#212,.T.);
#421=EDGE_CURVE('',#300,#315,#213,.T.);
#422=EDGE_CURVE('',#299,#316,#214,.T.);
#423=EDGE_CURVE('',#298,#317,#215,.T.);
#424=EDGE_CURVE('',#297,#318,#216,.T.);
#425=ORIENTED_EDGE('',*,*,#335,.F.);
#426=ORIENTED_EDGE('',*,*,#336,.F.);
#427=ORIENTED_EDGE('',*,*,#337,.F.);
#428=ORIENTED_EDGE('',*,*,#338,.F.);
#429=ORIENTED_EDGE('',*,*,#339,.F.);
#430=ORIENTED_EDGE('',*,*,#340,.T.);
#431=ORIENTED_EDGE('',*,*,#341,.T.);
#432=ORIENTED_EDGE('',*,*,#342,.F.);
#433=ORIENTED_EDGE('',*,*,#343,.T.);
#434=ORIENTED_EDGE('',*,*,#344,.T.);
#435=ORIENTED_EDGE('',*,*,#345,.F.);
#436=ORIENTED_EDGE('',*,*,#346,.T.);
#437=ORIENTED_EDGE('',*,*,#347,.F.);
#438=ORIENTED_EDGE('',*,*,#348,.T.);
#439=ORIENTED_EDGE('',*,*,#349,.T.);
#440=ORIENTED_EDGE('',*,*,#350,.F.);
#441=ORIENTED_EDGE('',*,*,#351,.T.);
#442=ORIENTED_EDGE('',*,*,#352,.T.);
#443=ORIENTED_EDGE('',*,*,#353,.F.);
#444=ORIENTED_EDGE('',*,*,#354,.T.);
#445=ORIENTED_EDGE('',*,*,#355,.F.);
#446=ORIENTED_EDGE('',*,*,#356,.T.);
#447=ORIENTED_EDGE('',*,*,#357,.F.);
#448=ORIENTED_EDGE('',*,*,#336,.T.);
#449=ORIENTED_EDGE('',*,*,#358,.T.);
#450=ORIENTED_EDGE('',*,*,#359,.T.);
#451=ORIENTED_EDGE('',*,*,#360,.T.);
#452=ORIENTED_EDGE('',*,*,#361,.T.);
#453=ORIENTED_EDGE('',*,*,#362,.T.);
#454=ORIENTED_EDGE('',*,*,#363,.T.);
#455=ORIENTED_EDGE('',*,*,#364,.F.);
#456=ORIENTED_EDGE('',*,*,#365,.F.);
#457=ORIENTED_EDGE('',*,*,#366,.F.);
#458=ORIENTED_EDGE('',*,*,#354,.F.);
#459=ORIENTED_EDGE('',*,*,#355,.T.);
#460=ORIENTED_EDGE('',*,*,#366,.T.);
#461=ORIENTED_EDGE('',*,*,#367,.T.);
#462=ORIENTED_EDGE('',*,*,#368,.T.);
#463=ORIENTED_EDGE('',*,*,#357,.T.);
#464=ORIENTED_EDGE('',*,*,#369,.T.);
#465=ORIENTED_EDGE('',*,*,#370,.T.);
#466=ORIENTED_EDGE('',*,*,#337,.T.);
#467=ORIENTED_EDGE('',*,*,#368,.F.);
#468=ORIENTED_EDGE('',*,*,#371,.F.);
#469=ORIENTED_EDGE('',*,*,#369,.F.);
#470=ORIENTED_EDGE('',*,*,#356,.F.);
#471=ORIENTED_EDGE('',*,*,#372,.F.);
#472=ORIENTED_EDGE('',*,*,#338,.T.);
#473=ORIENTED_EDGE('',*,*,#370,.F.);
#474=ORIENTED_EDGE('',*,*,#371,.T.);
#475=ORIENTED_EDGE('',*,*,#367,.F.);
#476=ORIENTED_EDGE('',*,*,#365,.T.);
#477=ORIENTED_EDGE('',*,*,#373,.F.);
#478=ORIENTED_EDGE('',*,*,#374,.F.);
#479=ORIENTED_EDGE('',*,*,#375,.F.);
#480=ORIENTED_EDGE('',*,*,#376,.F.);
#481=ORIENTED_EDGE('',*,*,#377,.F.);
#482=ORIENTED_EDGE('',*,*,#378,.F.);
#483=ORIENTED_EDGE('',*,*,#379,.F.);
#484=ORIENTED_EDGE('',*,*,#380,.F.);
#485=ORIENTED_EDGE('',*,*,#381,.F.);
#486=ORIENTED_EDGE('',*,*,#382,.F.);
#487=ORIENTED_EDGE('',*,*,#383,.F.);
#488=ORIENTED_EDGE('',*,*,#384,.F.);
#489=ORIENTED_EDGE('',*,*,#385,.T.);
#490=ORIENTED_EDGE('',*,*,#386,.T.);
#491=ORIENTED_EDGE('',*,*,#387,.T.);
#492=ORIENTED_EDGE('',*,*,#342,.T.);
#493=ORIENTED_EDGE('',*,*,#386,.F.);
#494=ORIENTED_EDGE('',*,*,#388,.F.);
#495=ORIENTED_EDGE('',*,*,#389,.F.);
#496=ORIENTED_EDGE('',*,*,#390,.F.);
#497=ORIENTED_EDGE('',*,*,#391,.F.);
#498=ORIENTED_EDGE('',*,*,#392,.T.);
#499=ORIENTED_EDGE('',*,*,#393,.T.);
#500=ORIENTED_EDGE('',*,*,#394,.T.);
#501=ORIENTED_EDGE('',*,*,#350,.T.);
#502=ORIENTED_EDGE('',*,*,#393,.F.);
#503=ORIENTED_EDGE('',*,*,#395,.F.);
#504=ORIENTED_EDGE('',*,*,#396,.F.);
#505=ORIENTED_EDGE('',*,*,#397,.F.);
#506=ORIENTED_EDGE('',*,*,#398,.F.);
#507=ORIENTED_EDGE('',*,*,#388,.T.);
#508=ORIENTED_EDGE('',*,*,#385,.F.);
#509=ORIENTED_EDGE('',*,*,#341,.F.);
#510=ORIENTED_EDGE('',*,*,#399,.T.);
#511=ORIENTED_EDGE('',*,*,#400,.F.);
#512=ORIENTED_EDGE('',*,*,#390,.T.);
#513=ORIENTED_EDGE('',*,*,#401,.T.);
#514=ORIENTED_EDGE('',*,*,#402,.T.);
#515=ORIENTED_EDGE('',*,*,#343,.F.);
#516=ORIENTED_EDGE('',*,*,#387,.F.);
#517=ORIENTED_EDGE('',*,*,#395,.T.);
#518=ORIENTED_EDGE('',*,*,#392,.F.);
#519=ORIENTED_EDGE('',*,*,#349,.F.);
#520=ORIENTED_EDGE('',*,*,#403,.F.);
#521=ORIENTED_EDGE('',*,*,#404,.T.);
#522=ORIENTED_EDGE('',*,*,#389,.T.);
#523=ORIENTED_EDGE('',*,*,#400,.T.);
#524=ORIENTED_EDGE('',*,*,#405,.T.);
#525=ORIENTED_EDGE('',*,*,#401,.F.);
#526=ORIENTED_EDGE('',*,*,#396,.T.);
#527=ORIENTED_EDGE('',*,*,#404,.F.);
#528=ORIENTED_EDGE('',*,*,#406,.F.);
#529=ORIENTED_EDGE('',*,*,#407,.T.);
#530=ORIENTED_EDGE('',*,*,#408,.T.);
#531=ORIENTED_EDGE('',*,*,#409,.T.);
#532=ORIENTED_EDGE('',*,*,#391,.T.);
#533=ORIENTED_EDGE('',*,*,#409,.F.);
#534=ORIENTED_EDGE('',*,*,#398,.T.);
#535=ORIENTED_EDGE('',*,*,#410,.T.);
#536=ORIENTED_EDGE('',*,*,#411,.F.);
#537=ORIENTED_EDGE('',*,*,#410,.F.);
#538=ORIENTED_EDGE('',*,*,#397,.T.);
#539=ORIENTED_EDGE('',*,*,#407,.F.);
#540=ORIENTED_EDGE('',*,*,#412,.F.);
#541=ORIENTED_EDGE('',*,*,#351,.F.);
#542=ORIENTED_EDGE('',*,*,#394,.F.);
#543=ORIENTED_EDGE('',*,*,#345,.T.);
#544=ORIENTED_EDGE('',*,*,#413,.T.);
#545=ORIENTED_EDGE('',*,*,#377,.T.);
#546=ORIENTED_EDGE('',*,*,#414,.T.);
#547=ORIENTED_EDGE('',*,*,#414,.F.);
#548=ORIENTED_EDGE('',*,*,#376,.T.);
#549=ORIENTED_EDGE('',*,*,#415,.F.);
#550=ORIENTED_EDGE('',*,*,#346,.F.);
#551=ORIENTED_EDGE('',*,*,#347,.T.);
#552=ORIENTED_EDGE('',*,*,#415,.T.);
#553=ORIENTED_EDGE('',*,*,#375,.T.);
#554=ORIENTED_EDGE('',*,*,#416,.T.);
#555=ORIENTED_EDGE('',*,*,#416,.F.);
#556=ORIENTED_EDGE('',*,*,#374,.T.);
#557=ORIENTED_EDGE('',*,*,#417,.F.);
#558=ORIENTED_EDGE('',*,*,#352,.F.);
#559=ORIENTED_EDGE('',*,*,#412,.T.);
#560=ORIENTED_EDGE('',*,*,#406,.T.);
#561=ORIENTED_EDGE('',*,*,#403,.T.);
#562=ORIENTED_EDGE('',*,*,#348,.F.);
#563=ORIENTED_EDGE('',*,*,#411,.T.);
#564=ORIENTED_EDGE('',*,*,#353,.T.);
#565=ORIENTED_EDGE('',*,*,#417,.T.);
#566=ORIENTED_EDGE('',*,*,#373,.T.);
#567=ORIENTED_EDGE('',*,*,#364,.T.);
#568=ORIENTED_EDGE('',*,*,#339,.T.);
#569=ORIENTED_EDGE('',*,*,#335,.T.);
#570=ORIENTED_EDGE('',*,*,#372,.T.);
#571=ORIENTED_EDGE('',*,*,#418,.T.);
#572=ORIENTED_EDGE('',*,*,#363,.F.);
#573=ORIENTED_EDGE('',*,*,#419,.T.);
#574=ORIENTED_EDGE('',*,*,#379,.T.);
#575=ORIENTED_EDGE('',*,*,#419,.F.);
#576=ORIENTED_EDGE('',*,*,#362,.F.);
#577=ORIENTED_EDGE('',*,*,#420,.T.);
#578=ORIENTED_EDGE('',*,*,#380,.T.);
#579=ORIENTED_EDGE('',*,*,#420,.F.);
#580=ORIENTED_EDGE('',*,*,#361,.F.);
#581=ORIENTED_EDGE('',*,*,#421,.T.);
#582=ORIENTED_EDGE('',*,*,#381,.T.);
#583=ORIENTED_EDGE('',*,*,#421,.F.);
#584=ORIENTED_EDGE('',*,*,#360,.F.);
#585=ORIENTED_EDGE('',*,*,#422,.T.);
#586=ORIENTED_EDGE('',*,*,#382,.T.);
#587=ORIENTED_EDGE('',*,*,#422,.F.);
#588=ORIENTED_EDGE('',*,*,#359,.F.);
#589=ORIENTED_EDGE('',*,*,#423,.T.);
#590=ORIENTED_EDGE('',*,*,#383,.T.);
#591=ORIENTED_EDGE('',*,*,#423,.F.);
#592=ORIENTED_EDGE('',*,*,#358,.F.);
#593=ORIENTED_EDGE('',*,*,#424,.T.);
#594=ORIENTED_EDGE('',*,*,#384,.T.);
#595=ORIENTED_EDGE('',*,*,#424,.F.);
#596=ORIENTED_EDGE('',*,*,#413,.F.);
#597=ORIENTED_EDGE('',*,*,#344,.F.);
#598=ORIENTED_EDGE('',*,*,#402,.F.);
#599=ORIENTED_EDGE('',*,*,#405,.F.);
#600=ORIENTED_EDGE('',*,*,#399,.F.);
#601=ORIENTED_EDGE('',*,*,#340,.F.);
#602=ORIENTED_EDGE('',*,*,#418,.F.);
#603=ORIENTED_EDGE('',*,*,#378,.T.);
#604=ORIENTED_EDGE('',*,*,#408,.F.);
#605=PLANE('',#675);
#606=PLANE('',#676);
#607=PLANE('',#689);
#608=PLANE('',#694);
#609=PLANE('',#695);
#610=PLANE('',#706);
#611=PLANE('',#707);
#612=PLANE('',#710);
#613=PLANE('',#711);
#614=PLANE('',#714);
#615=PLANE('',#715);
#616=PLANE('',#716);
#617=PLANE('',#725);
#618=PLANE('',#727);
#619=PLANE('',#729);
#620=PLANE('',#738);
#621=ADVANCED_FACE('',(#79),#605,.F.);
#622=ADVANCED_FACE('',(#80,#31,#32,#33,#34,#35,#36),#606,.T.);
#623=ADVANCED_FACE('',(#81),#607,.F.);
#624=ADVANCED_FACE('',(#82),#15,.F.);
#625=ADVANCED_FACE('',(#83),#16,.F.);
#626=ADVANCED_FACE('',(#84),#608,.F.);
#627=ADVANCED_FACE('',(#85,#37,#38,#39,#40,#41,#42),#609,.F.);
#628=ADVANCED_FACE('',(#86),#610,.T.);
#629=ADVANCED_FACE('',(#87,#43),#611,.F.);
#630=ADVANCED_FACE('',(#88),#612,.T.);
#631=ADVANCED_FACE('',(#89,#44),#613,.F.);
#632=ADVANCED_FACE('',(#90),#614,.T.);
#633=ADVANCED_FACE('',(#91),#615,.T.);
#634=ADVANCED_FACE('',(#92),#616,.T.);
#635=ADVANCED_FACE('',(#93),#17,.T.);
#636=ADVANCED_FACE('',(#94),#18,.T.);
#637=ADVANCED_FACE('',(#95),#19,.F.);
#638=ADVANCED_FACE('',(#96),#20,.F.);
#639=ADVANCED_FACE('',(#97),#617,.T.);
#640=ADVANCED_FACE('',(#98),#21,.T.);
#641=ADVANCED_FACE('',(#99),#618,.T.);
#642=ADVANCED_FACE('',(#100),#22,.T.);
#643=ADVANCED_FACE('',(#101,#45),#619,.T.);
#644=ADVANCED_FACE('',(#102),#23,.T.);
#645=ADVANCED_FACE('',(#103),#24,.T.);
#646=ADVANCED_FACE('',(#104),#25,.F.);
#647=ADVANCED_FACE('',(#105),#26,.F.);
#648=ADVANCED_FACE('',(#106),#27,.F.);
#649=ADVANCED_FACE('',(#107),#28,.F.);
#650=ADVANCED_FACE('',(#108),#29,.F.);
#651=ADVANCED_FACE('',(#109),#30,.F.);
#652=ADVANCED_FACE('',(#110,#46),#620,.T.);
#653=CLOSED_SHELL('',(#621,#622,#623,#624,#625,#626,#627,#628,#629,#630,
#631,#632,#633,#634,#635,#636,#637,#638,#639,#640,#641,#642,#643,#644,#645,
#646,#647,#648,#649,#650,#651,#652));
#654=DERIVED_UNIT_ELEMENT(#656,1.);
#655=DERIVED_UNIT_ELEMENT(#1118,-3.);
#656=(
CONVERSION_BASED_UNIT('gram',#658)
MASS_UNIT()
NAMED_UNIT(#1115)
);
#657=(
MASS_UNIT()
NAMED_UNIT(*)
SI_UNIT(.KILO.,.GRAM.)
);
#658=MASS_MEASURE_WITH_UNIT(MASS_MEASURE(0.001),#657);
#659=DERIVED_UNIT((#654,#655));
#660=MEASURE_REPRESENTATION_ITEM('density measure',
POSITIVE_RATIO_MEASURE(1.425),#659);
#661=PROPERTY_DEFINITION_REPRESENTATION(#666,#663);
#662=PROPERTY_DEFINITION_REPRESENTATION(#667,#664);
#663=REPRESENTATION('material name',(#665),#1112);
#664=REPRESENTATION('density',(#660),#1112);
#665=DESCRIPTIVE_REPRESENTATION_ITEM('Acetal Resin, Black',
'Acetal Resin, Black');
#666=PROPERTY_DEFINITION('material property','material name',#1126);
#667=PROPERTY_DEFINITION('material property','density of part',#1126);
#668=DATE_TIME_ROLE('creation_date');
#669=APPLIED_DATE_AND_TIME_ASSIGNMENT(#670,#668,(#1126));
#670=DATE_AND_TIME(#671,#672);
#671=CALENDAR_DATE(2026,16,1);
#672=LOCAL_TIME(0,0,0.,#673);
#673=COORDINATED_UNIVERSAL_TIME_OFFSET(0,0,.BEHIND.);
#674=AXIS2_PLACEMENT_3D('',#927,#739,#740);
#675=AXIS2_PLACEMENT_3D('',#928,#741,#742);
#676=AXIS2_PLACEMENT_3D('',#937,#747,#748);
#677=AXIS2_PLACEMENT_3D('',#939,#749,#750);
#678=AXIS2_PLACEMENT_3D('',#951,#756,#757);
#679=AXIS2_PLACEMENT_3D('',#955,#759,#760);
#680=AXIS2_PLACEMENT_3D('',#967,#766,#767);
#681=AXIS2_PLACEMENT_3D('',#971,#769,#770);
#682=AXIS2_PLACEMENT_3D('',#974,#772,#773);
#683=AXIS2_PLACEMENT_3D('',#976,#774,#775);
#684=AXIS2_PLACEMENT_3D('',#978,#776,#777);
#685=AXIS2_PLACEMENT_3D('',#980,#778,#779);
#686=AXIS2_PLACEMENT_3D('',#982,#780,#781);
#687=AXIS2_PLACEMENT_3D('',#984,#782,#783);
#688=AXIS2_PLACEMENT_3D('',#986,#784,#785);
#689=AXIS2_PLACEMENT_3D('',#987,#786,#787);
#690=AXIS2_PLACEMENT_3D('',#993,#791,#792);
#691=AXIS2_PLACEMENT_3D('',#995,#793,#794);
#692=AXIS2_PLACEMENT_3D('',#997,#796,#797);
#693=AXIS2_PLACEMENT_3D('',#1000,#799,#800);
#694=AXIS2_PLACEMENT_3D('',#1001,#801,#802);
#695=AXIS2_PLACEMENT_3D('',#1003,#804,#805);
#696=AXIS2_PLACEMENT_3D('',#1005,#806,#807);
#697=AXIS2_PLACEMENT_3D('',#1007,#808,#809);
#698=AXIS2_PLACEMENT_3D('',#1011,#811,#812);
#699=AXIS2_PLACEMENT_3D('',#1015,#814,#815);
#700=AXIS2_PLACEMENT_3D('',#1018,#817,#818);
#701=AXIS2_PLACEMENT_3D('',#1020,#819,#820);
#702=AXIS2_PLACEMENT_3D('',#1022,#821,#822);
#703=AXIS2_PLACEMENT_3D('',#1024,#823,#824);
#704=AXIS2_PLACEMENT_3D('',#1026,#825,#826);
#705=AXIS2_PLACEMENT_3D('',#1028,#827,#828);
#706=AXIS2_PLACEMENT_3D('',#1029,#829,#830);
#707=AXIS2_PLACEMENT_3D('',#1035,#834,#835);
#708=AXIS2_PLACEMENT_3D('',#1039,#837,#838);
#709=AXIS2_PLACEMENT_3D('',#1042,#840,#841);
#710=AXIS2_PLACEMENT_3D('',#1043,#842,#843);
#711=AXIS2_PLACEMENT_3D('',#1049,#847,#848);
#712=AXIS2_PLACEMENT_3D('',#1053,#850,#851);
#713=AXIS2_PLACEMENT_3D('',#1056,#853,#854);
#714=AXIS2_PLACEMENT_3D('',#1057,#855,#856);
#715=AXIS2_PLACEMENT_3D('',#1061,#859,#860);
#716=AXIS2_PLACEMENT_3D('',#1065,#863,#864);
#717=AXIS2_PLACEMENT_3D('',#1069,#867,#868);
#718=AXIS2_PLACEMENT_3D('',#1070,#869,#870);
#719=AXIS2_PLACEMENT_3D('',#1071,#871,#872);
#720=AXIS2_PLACEMENT_3D('',#1073,#873,#874);
#721=AXIS2_PLACEMENT_3D('',#1075,#876,#877);
#722=AXIS2_PLACEMENT_3D('',#1077,#878,#879);
#723=AXIS2_PLACEMENT_3D('',#1079,#881,#882);
#724=AXIS2_PLACEMENT_3D('',#1082,#884,#885);
#725=AXIS2_PLACEMENT_3D('',#1083,#886,#887);
#726=AXIS2_PLACEMENT_3D('',#1085,#889,#890);
#727=AXIS2_PLACEMENT_3D('',#1088,#893,#894);
#728=AXIS2_PLACEMENT_3D('',#1090,#896,#897);
#729=AXIS2_PLACEMENT_3D('',#1092,#899,#900);
#730=AXIS2_PLACEMENT_3D('',#1094,#902,#903);
#731=AXIS2_PLACEMENT_3D('',#1095,#904,#905);
#732=AXIS2_PLACEMENT_3D('',#1097,#907,#908);
#733=AXIS2_PLACEMENT_3D('',#1099,#910,#911);
#734=AXIS2_PLACEMENT_3D('',#1101,#913,#914);
#735=AXIS2_PLACEMENT_3D('',#1103,#916,#917);
#736=AXIS2_PLACEMENT_3D('',#1105,#919,#920);
#737=AXIS2_PLACEMENT_3D('',#1107,#922,#923);
#738=AXIS2_PLACEMENT_3D('',#1109,#925,#926);
#739=DIRECTION('axis',(0.,0.,1.));
#740=DIRECTION('refdir',(1.,0.,0.));
#741=DIRECTION('center_axis',(1.,2.03977983526917E-16,-7.8949192862144E-15));
#742=DIRECTION('ref_axis',(-2.03977983526943E-16,1.,-3.33066907383302E-15));
#743=DIRECTION('',(7.8949192862144E-15,2.96059473233375E-15,1.));
#744=DIRECTION('',(-2.03977983526943E-16,1.,-3.33066907383302E-15));
#745=DIRECTION('',(-7.8949192862144E-15,0.,-1.));
#746=DIRECTION('',(2.03977983526943E-16,-1.,3.33066907383302E-15));
#747=DIRECTION('center_axis',(-4.55543375165612E-15,-3.33066907383302E-15,
-1.));
#748=DIRECTION('ref_axis',(-1.,0.,4.55543375165612E-15));
#749=DIRECTION('center_axis',(4.55543375165612E-15,3.33066907383302E-15,
1.));
#750=DIRECTION('ref_axis',(-0.707106781186545,0.70710678118655,3.46848946472136E-15));
#751=DIRECTION('',(-1.49861375650582E-16,-1.,3.33066907383302E-15));
#752=DIRECTION('',(-1.,4.20745288301904E-15,4.5554337516561E-15));
#753=DIRECTION('',(1.74838271594501E-16,1.,-3.33066907383302E-15));
#754=DIRECTION('',(1.,3.32578292535992E-15,-4.55543375165613E-15));
#755=DIRECTION('',(-1.49861375650582E-16,-1.,3.33066907383302E-15));
#756=DIRECTION('center_axis',(4.55543375165612E-15,3.33066907383302E-15,
1.));
#757=DIRECTION('ref_axis',(0.707106781186548,-0.707106781186547,2.09345661157837E-15));
#758=DIRECTION('',(-1.,1.29509830810754E-16,4.55543375165612E-15));
#759=DIRECTION('center_axis',(4.55543375165612E-15,3.33066907383302E-15,
1.));
#760=DIRECTION('ref_axis',(-0.707106781186548,-0.707106781186547,2.09345661157837E-15));
#761=DIRECTION('',(-1.33210111689429E-16,1.,-3.33066907383302E-15));
#762=DIRECTION('',(1.,3.32578292535992E-15,-4.55543375165613E-15));
#763=DIRECTION('',(1.18989392660693E-29,-1.,3.33066907383302E-15));
#764=DIRECTION('',(-1.,4.20745288301904E-15,4.5554337516561E-15));
#765=DIRECTION('',(-1.33210111689429E-16,1.,-3.33066907383302E-15));
#766=DIRECTION('center_axis',(4.55543375165612E-15,3.33066907383302E-15,
1.));
#767=DIRECTION('ref_axis',(0.707106781186547,0.707106781186547,-7.69249148611473E-15));
#768=DIRECTION('',(-4.66235390918689E-16,-1.,3.33066907383302E-15));
#769=DIRECTION('center_axis',(-4.55543375165612E-15,-3.33066907383302E-15,
-1.));
#770=DIRECTION('ref_axis',(-0.707106781186547,-0.707106781186547,5.63200269519114E-15));
#771=DIRECTION('',(1.,-1.55411796972904E-16,-4.55543375165612E-15));
#772=DIRECTION('center_axis',(-4.55543375165612E-15,-3.33066907383302E-15,
-1.));
#773=DIRECTION('ref_axis',(0.707106781186547,-0.707106781186547,-5.63200269519114E-15));
#774=DIRECTION('center_axis',(4.55543375165612E-15,3.33066907383302E-15,
1.));
#775=DIRECTION('ref_axis',(1.,-3.27370304846683E-30,-4.55543375165612E-15));
#776=DIRECTION('center_axis',(4.55543375165612E-15,3.33066907383302E-15,
1.));
#777=DIRECTION('ref_axis',(1.,-3.27370304846683E-30,-4.55543375165612E-15));
#778=DIRECTION('center_axis',(4.55543375165612E-15,3.33066907383302E-15,
1.));
#779=DIRECTION('ref_axis',(1.,-3.27370304846683E-30,-4.55543375165612E-15));
#780=DIRECTION('center_axis',(4.55543375165612E-15,3.33066907383302E-15,
1.));
#781=DIRECTION('ref_axis',(1.,-3.27370304846683E-30,-4.55543375165612E-15));
#782=DIRECTION('center_axis',(4.55543375165612E-15,3.33066907383302E-15,
1.));
#783=DIRECTION('ref_axis',(1.,-3.27370304846683E-30,-4.55543375165612E-15));
#784=DIRECTION('center_axis',(4.55543375165612E-15,3.33066907383302E-15,
1.));
#785=DIRECTION('ref_axis',(1.,-3.27370304846683E-30,-4.55543375165612E-15));
#786=DIRECTION('center_axis',(-1.,4.66235390918715E-16,7.8949192862144E-15));
#787=DIRECTION('ref_axis',(-4.66235390918689E-16,-1.,3.33066907383302E-15));
#788=DIRECTION('',(-7.8949192862144E-15,-2.96059473233375E-15,-1.));
#789=DIRECTION('',(4.66235390918689E-16,1.,-3.33066907383302E-15));
#790=DIRECTION('',(7.8949192862144E-15,0.,1.));
#791=DIRECTION('center_axis',(7.8949192862144E-15,0.,1.));
#792=DIRECTION('ref_axis',(-0.707106781186547,-0.707106781186547,5.63200269519114E-15));
#793=DIRECTION('center_axis',(4.55543375165612E-15,3.33066907383302E-15,
1.));
#794=DIRECTION('ref_axis',(-0.707106781186547,-0.707106781186547,5.63200269519114E-15));
#795=DIRECTION('',(-7.8949192862144E-15,0.,-1.));
#796=DIRECTION('center_axis',(7.8949192862144E-15,0.,1.));
#797=DIRECTION('ref_axis',(0.707106781186547,-0.707106781186547,-5.63200269519114E-15));
#798=DIRECTION('',(7.8949192862144E-15,0.,1.));
#799=DIRECTION('center_axis',(4.55543375165612E-15,3.33066907383302E-15,
1.));
#800=DIRECTION('ref_axis',(0.707106781186547,-0.707106781186547,-5.63200269519114E-15));
#801=DIRECTION('center_axis',(-1.55411796972904E-16,-1.,1.22696359322661E-30));
#802=DIRECTION('ref_axis',(1.,-1.55411796972904E-16,-4.55543375165612E-15));
#803=DIRECTION('',(-1.,1.55411796972904E-16,4.55543375165612E-15));
#804=DIRECTION('center_axis',(-4.55543375165612E-15,-3.33066907383302E-15,
-1.));
#805=DIRECTION('ref_axis',(-1.,0.,4.55543375165612E-15));
#806=DIRECTION('center_axis',(-4.55543375165612E-15,-3.33066907383302E-15,
-1.));
#807=DIRECTION('ref_axis',(0.707106781186547,0.707106781186547,-2.09345661157837E-15));
#808=DIRECTION('center_axis',(-4.55543375165612E-15,-3.33066907383302E-15,
-1.));
#809=DIRECTION('ref_axis',(0.707106781186547,0.707106781186547,-7.69249148611473E-15));
#810=DIRECTION('',(-1.33210111689429E-16,1.,-3.33066907383302E-15));
#811=DIRECTION('center_axis',(-4.55543375165612E-15,-3.33066907383302E-15,
-1.));
#812=DIRECTION('ref_axis',(-0.707106781186548,-0.707106781186547,2.09345661157837E-15));
#813=DIRECTION('',(-1.,1.29509830810754E-16,4.55543375165612E-15));
#814=DIRECTION('center_axis',(-4.55543375165612E-15,-3.33066907383302E-15,
-1.));
#815=DIRECTION('ref_axis',(0.707106781186548,-0.707106781186547,2.09345661157837E-15));
#816=DIRECTION('',(-1.49861375650582E-16,-1.,3.33066907383302E-15));
#817=DIRECTION('center_axis',(4.55543375165612E-15,3.33066907383302E-15,
1.));
#818=DIRECTION('ref_axis',(1.,-3.27370304846683E-30,-4.55543375165612E-15));
#819=DIRECTION('center_axis',(4.55543375165612E-15,3.33066907383302E-15,
1.));
#820=DIRECTION('ref_axis',(1.,-3.27370304846683E-30,-4.55543375165612E-15));
#821=DIRECTION('center_axis',(4.55543375165612E-15,3.33066907383302E-15,
1.));
#822=DIRECTION('ref_axis',(1.,-3.27370304846683E-30,-4.55543375165612E-15));
#823=DIRECTION('center_axis',(4.55543375165612E-15,3.33066907383302E-15,
1.));
#824=DIRECTION('ref_axis',(1.,-3.27370304846683E-30,-4.55543375165612E-15));
#825=DIRECTION('center_axis',(4.55543375165612E-15,3.33066907383302E-15,
1.));
#826=DIRECTION('ref_axis',(1.,-3.27370304846683E-30,-4.55543375165612E-15));
#827=DIRECTION('center_axis',(4.55543375165612E-15,3.33066907383302E-15,
1.));
#828=DIRECTION('ref_axis',(1.,-3.27370304846683E-30,-4.55543375165612E-15));
#829=DIRECTION('center_axis',(-0.707106781186554,-2.23150936054022E-15,
-0.707106781186541));
#830=DIRECTION('ref_axis',(-0.707106781186541,0.,0.707106781186554));
#831=DIRECTION('',(0.584753594684258,-0.562251249004986,-0.584753594684267));
#832=DIRECTION('',(-1.74838271594501E-16,-1.,3.33066907383302E-15));
#833=DIRECTION('',(-0.635117200193426,-0.4396046906448,0.635117200193439));
#834=DIRECTION('center_axis',(1.,-1.74838271594516E-16,-4.69027370587056E-15));
#835=DIRECTION('ref_axis',(-1.74838271594501E-16,-1.,3.33066907383302E-15));
#836=DIRECTION('',(3.50211912878438E-15,0.693101143418911,0.72084034639537));
#837=DIRECTION('center_axis',(1.,-1.74838271594516E-16,-4.69027370587056E-15));
#838=DIRECTION('ref_axis',(-1.24474548404304E-16,0.720840346395372,-0.693101143418909));
#839=DIRECTION('',(-3.75706173193488E-15,0.569129606423964,-0.822247828268159));
#840=DIRECTION('center_axis',(-1.,1.74838271594516E-16,4.69027370587056E-15));
#841=DIRECTION('ref_axis',(5.75139184318286E-31,-3.33066907383302E-15,-1.));
#842=DIRECTION('center_axis',(0.707106781186543,-2.35513868799565E-15,-0.707106781186552));
#843=DIRECTION('ref_axis',(-0.707106781186552,0.,-0.707106781186543));
#844=DIRECTION('',(-0.635117200193438,0.439604690644794,-0.635117200193431));
#845=DIRECTION('',(-1.18989392660693E-29,1.,-3.33066907383302E-15));
#846=DIRECTION('',(0.58475359468427,0.56225124900498,0.584753594684261));
#847=DIRECTION('center_axis',(-1.,3.72281031388594E-30,4.69027370587056E-15));
#848=DIRECTION('ref_axis',(-1.18989392660693E-29,1.,-3.33066907383302E-15));
#849=DIRECTION('',(3.85656736863531E-15,-0.569129606423964,0.822247828268159));
#850=DIRECTION('center_axis',(-1.,3.72281031388594E-30,4.69027370587056E-15));
#851=DIRECTION('ref_axis',(-1.24474548404304E-16,0.720840346395372,-0.693101143418909));
#852=DIRECTION('',(-3.38093852282884E-15,-0.693101143418911,-0.72084034639537));
#853=DIRECTION('center_axis',(1.,-3.72281031388594E-30,-4.69027370587056E-15));
#854=DIRECTION('ref_axis',(5.75139184318286E-31,-3.33066907383302E-15,-1.));
#855=DIRECTION('center_axis',(-1.24474548404303E-16,0.720840346395371,-0.693101143418911));
#856=DIRECTION('ref_axis',(-9.23280807269038E-17,0.693101143418911,0.72084034639537));
#857=DIRECTION('',(-1.03869090817749E-16,-0.693101143418911,-0.72084034639537));
#858=DIRECTION('',(1.,1.72679774414335E-16,0.));
#859=DIRECTION('center_axis',(1.41985569498022E-16,-0.822247828268159,-0.569129606423964));
#860=DIRECTION('ref_axis',(-7.58138184374974E-17,0.569129606423964,-0.822247828268159));
#861=DIRECTION('',(1.,1.72679774414335E-16,0.));
#862=DIRECTION('',(-8.52905457421701E-17,-0.569129606423964,0.822247828268159));
#863=DIRECTION('center_axis',(1.41985569498022E-16,-0.822247828268159,-0.569129606423964));
#864=DIRECTION('ref_axis',(-7.58138184374974E-17,0.569129606423964,-0.822247828268159));
#865=DIRECTION('',(7.58138184374974E-17,-0.569129606423964,0.822247828268159));
#866=DIRECTION('',(1.,1.72679774414335E-16,0.));
#867=DIRECTION('center_axis',(1.,1.72679774414335E-16,0.));
#868=DIRECTION('ref_axis',(-1.24474548404304E-16,0.720840346395372,-0.693101143418909));
#869=DIRECTION('center_axis',(-1.,1.49861375650582E-16,-4.43678799331403E-31));
#870=DIRECTION('ref_axis',(-1.24474548404304E-16,0.720840346395372,-0.693101143418909));
#871=DIRECTION('center_axis',(1.,1.72679774414335E-16,0.));
#872=DIRECTION('ref_axis',(-1.24474548404304E-16,0.720840346395372,-0.693101143418909));
#873=DIRECTION('center_axis',(-1.,-1.33210111689429E-16,3.94430452610506E-31));
#874=DIRECTION('ref_axis',(-9.60232230535745E-17,0.720840346395372,-0.693101143418909));
#875=DIRECTION('',(1.,1.72679774414335E-16,0.));
#876=DIRECTION('center_axis',(1.,1.72679774414335E-16,0.));
#877=DIRECTION('ref_axis',(5.75139184318286E-31,-3.33066907383302E-15,-1.));
#878=DIRECTION('center_axis',(1.,-1.49861375650582E-16,4.43678799331403E-31));
#879=DIRECTION('ref_axis',(5.75139184318286E-31,-3.33066907383302E-15,-1.));
#880=DIRECTION('',(-1.,-1.72679774414335E-16,0.));
#881=DIRECTION('center_axis',(1.,1.72679774414335E-16,0.));
#882=DIRECTION('ref_axis',(5.75139184318286E-31,-3.33066907383302E-15,-1.));
#883=DIRECTION('',(-1.,-1.72679774414335E-16,0.));
#884=DIRECTION('center_axis',(1.,1.33210111689429E-16,-3.94381154961314E-31));
#885=DIRECTION('ref_axis',(4.92976443645093E-32,-3.33066907383302E-15,-1.));
#886=DIRECTION('center_axis',(-1.24474548404303E-16,0.720840346395371,-0.693101143418911));
#887=DIRECTION('ref_axis',(-9.23280807269038E-17,0.693101143418911,0.72084034639537));
#888=DIRECTION('',(9.23280807269038E-17,-0.693101143418911,-0.720840346395371));
#889=DIRECTION('center_axis',(0.,-2.96059473233375E-15,-1.));
#890=DIRECTION('ref_axis',(0.707106781186548,-0.707106781186547,2.09345661157837E-15));
#891=DIRECTION('',(0.,2.96059473233375E-15,1.));
#892=DIRECTION('',(0.,-2.96059473233375E-15,-1.));
#893=DIRECTION('center_axis',(-1.29509830810741E-16,-1.,2.96059473233375E-15));
#894=DIRECTION('ref_axis',(-1.,1.29509830810754E-16,4.55543375165612E-15));
#895=DIRECTION('',(0.,2.96059473233375E-15,1.));
#896=DIRECTION('center_axis',(0.,-2.96059473233375E-15,-1.));
#897=DIRECTION('ref_axis',(-0.707106781186548,-0.707106781186547,2.09345661157837E-15));
#898=DIRECTION('',(0.,-2.96059473233375E-15,-1.));
#899=DIRECTION('center_axis',(-1.,-1.33210111689429E-16,3.94381154961314E-31));
#900=DIRECTION('ref_axis',(-1.33210111689429E-16,1.,-3.33066907383302E-15));
#901=DIRECTION('',(0.,2.96059473233375E-15,1.));
#902=DIRECTION('center_axis',(0.,-2.96059473233375E-15,-1.));
#903=DIRECTION('ref_axis',(-0.707106781186547,0.707106781186547,-2.09345661157837E-15));
#904=DIRECTION('center_axis',(0.,-2.96059473233375E-15,-1.));
#905=DIRECTION('ref_axis',(0.707106781186547,0.707106781186547,-2.09345661157837E-15));
#906=DIRECTION('',(0.,-2.96059473233375E-15,-1.));
#907=DIRECTION('center_axis',(0.,-2.96059473233375E-15,-1.));
#908=DIRECTION('ref_axis',(1.,1.02130901201816E-29,0.));
#909=DIRECTION('',(0.,2.96059473233375E-15,1.));
#910=DIRECTION('center_axis',(0.,-2.96059473233375E-15,-1.));
#911=DIRECTION('ref_axis',(1.,1.02130901201816E-29,0.));
#912=DIRECTION('',(0.,2.96059473233375E-15,1.));
#913=DIRECTION('center_axis',(0.,-2.96059473233375E-15,-1.));
#914=DIRECTION('ref_axis',(1.,1.02130901201816E-29,0.));
#915=DIRECTION('',(0.,2.96059473233375E-15,1.));
#916=DIRECTION('center_axis',(0.,-2.96059473233375E-15,-1.));
#917=DIRECTION('ref_axis',(1.,1.02130901201816E-29,0.));
#918=DIRECTION('',(0.,2.96059473233375E-15,1.));
#919=DIRECTION('center_axis',(0.,-2.96059473233375E-15,-1.));
#920=DIRECTION('ref_axis',(1.,1.02130901201816E-29,0.));
#921=DIRECTION('',(0.,2.96059473233375E-15,1.));
#922=DIRECTION('center_axis',(0.,-2.96059473233375E-15,-1.));
#923=DIRECTION('ref_axis',(1.,1.02130901201816E-29,0.));
#924=DIRECTION('',(0.,2.96059473233375E-15,1.));
#925=DIRECTION('center_axis',(1.,-1.49861375650582E-16,4.43678799331403E-31));
#926=DIRECTION('ref_axis',(-1.49861375650582E-16,-1.,3.33066907383302E-15));
#927=CARTESIAN_POINT('',(0.,0.,0.));
#928=CARTESIAN_POINT('Origin',(9.24999999973867,3.24999999999031,-0.0590551181102713));
#929=CARTESIAN_POINT('',(9.24999999973867,4.52499999999031,-0.0590551181102755));
#930=CARTESIAN_POINT('',(9.24999999973867,4.52499999999031,-3.93065938502555E-14));
#931=CARTESIAN_POINT('',(9.24999999973867,4.52499999999031,-0.0295275590551655));
#932=CARTESIAN_POINT('',(9.24999999973867,3.47499999999031,-0.059055118110272));
#933=CARTESIAN_POINT('',(9.24999999973867,2.68749999997415,-0.0590551181102694));
#934=CARTESIAN_POINT('',(9.24999999973867,3.47499999999031,-3.58093913227308E-14));
#935=CARTESIAN_POINT('',(9.24999999973867,3.47499999999031,-0.0590551181102788));
#936=CARTESIAN_POINT('',(9.24999999973867,2.68749999997415,-3.31864894270335E-14));
#937=CARTESIAN_POINT('Origin',(6.99999999973867,2.12499999995799,-0.0590551181102573));
#938=CARTESIAN_POINT('',(9.69999999973865,4.52499999999032,-0.0590551181102776));
#939=CARTESIAN_POINT('Origin',(9.47499999973867,4.52499999999031,-0.0590551181102839));
#940=CARTESIAN_POINT('',(9.69999999973865,4.31104585857999,-0.0590551181102523));
#941=CARTESIAN_POINT('',(9.69999999973865,4.74999999999032,-0.0590551181102783));
#942=CARTESIAN_POINT('',(9.37499999973865,4.31104585857996,-0.0590551181102754));
#943=CARTESIAN_POINT('',(5.64999999973868,4.31104585857998,-0.0590551181102585));
#944=CARTESIAN_POINT('',(9.37499999973865,3.31104585858,-0.0590551181102721));
#945=CARTESIAN_POINT('',(9.37499999973865,3.21802292926899,-0.0590551181102718));
#946=CARTESIAN_POINT('',(9.69999999973865,3.31104585857999,-0.0590551181102489));
#947=CARTESIAN_POINT('',(5.64999999973867,3.31104585857999,-0.0590551181102551));
#948=CARTESIAN_POINT('',(9.69999999973865,-0.275000000074335,-0.0590551181102616));
#949=CARTESIAN_POINT('',(9.69999999973865,4.74999999999032,-0.0590551181102783));
#950=CARTESIAN_POINT('',(9.47499999973865,-0.500000000074335,-0.0590551181102598));
#951=CARTESIAN_POINT('Origin',(9.47499999973865,-0.275000000074335,-0.0590551181102502));
#952=CARTESIAN_POINT('',(4.52499999973868,-0.500000000074334,-0.0590551181102373));
#953=CARTESIAN_POINT('',(9.69999999973865,-0.500000000074335,-0.0590551181102608));
#954=CARTESIAN_POINT('',(4.29999999973868,-0.275000000074335,-0.059055118110237));
#955=CARTESIAN_POINT('Origin',(4.52499999973868,-0.275000000074334,-0.0590551181102502));
#956=CARTESIAN_POINT('',(4.29999999973868,3.31104585857999,-0.0590551181102489));
#957=CARTESIAN_POINT('',(4.29999999973868,-0.500000000074334,-0.0590551181102362));
#958=CARTESIAN_POINT('',(4.62499999973868,3.31104585857999,-0.0590551181102504));
#959=CARTESIAN_POINT('',(5.64999999973867,3.31104585857999,-0.0590551181102551));
#960=CARTESIAN_POINT('',(4.62499999973868,4.31104585857998,-0.0590551181102538));
#961=CARTESIAN_POINT('',(4.62499999973868,2.71802292926899,-0.0590551181102484));
#962=CARTESIAN_POINT('',(4.29999999973868,4.31104585857999,-0.0590551181102523));
#963=CARTESIAN_POINT('',(5.64999999973868,4.31104585857998,-0.0590551181102585));
#964=CARTESIAN_POINT('',(4.29999999973868,4.52499999999031,-0.059055118110253));
#965=CARTESIAN_POINT('',(4.29999999973868,-0.500000000074334,-0.0590551181102362));
#966=CARTESIAN_POINT('',(4.74999999973867,4.52499999999031,-0.059055118110255));
#967=CARTESIAN_POINT('Origin',(4.52499999973867,4.52499999999031,-0.0590551181102449));
#968=CARTESIAN_POINT('',(4.74999999973867,3.47499999999031,-0.0590551181102515));
#969=CARTESIAN_POINT('',(4.74999999973867,3.43749999997415,-0.0590551181102514));
#970=CARTESIAN_POINT('',(4.97499999973867,3.24999999999031,-0.0590551181102518));
#971=CARTESIAN_POINT('Origin',(4.97499999973867,3.47499999999031,-0.0590551181102413));
#972=CARTESIAN_POINT('',(9.02499999973866,3.24999999999031,-0.0590551181102703));
#973=CARTESIAN_POINT('',(5.87499999973867,3.24999999999031,-0.0590551181102559));
#974=CARTESIAN_POINT('Origin',(9.02499999973866,3.47499999999031,-0.0590551181102733));
#975=CARTESIAN_POINT('',(9.41399999973864,4.50000000000037,-0.0590551181102762));
#976=CARTESIAN_POINT('Origin',(9.49999999973864,4.50000000000037,-0.0590551181102766));
#977=CARTESIAN_POINT('',(4.41399999973868,4.49999999999032,-0.0590551181102534));
#978=CARTESIAN_POINT('Origin',(4.49999999973868,4.49999999999032,-0.0590551181102538));
#979=CARTESIAN_POINT('',(4.41349999973868,2.99999999992557,-0.0590551181102484));
#980=CARTESIAN_POINT('Origin',(4.49999999973868,2.99999999992557,-0.0590551181102488));
#981=CARTESIAN_POINT('',(9.41349999973864,3.00000000000039,-0.0590551181102712));
#982=CARTESIAN_POINT('Origin',(9.49999999973865,3.00000000000039,-0.0590551181102716));
#983=CARTESIAN_POINT('',(4.41349999973868,-7.43344143893947E-11,-0.0590551181102384));
#984=CARTESIAN_POINT('Origin',(4.49999999973868,-7.43344143893947E-11,-0.0590551181102388));
#985=CARTESIAN_POINT('',(9.41349999973864,1.9564402591426E-13,-0.0590551181102612));
#986=CARTESIAN_POINT('Origin',(9.49999999973866,1.9564402591426E-13,-0.0590551181102616));
#987=CARTESIAN_POINT('Origin',(4.74999999973867,4.74999999999031,-0.0590551181102558));
#988=CARTESIAN_POINT('',(4.74999999973867,4.52499999999031,-1.88057137666332E-14));
#989=CARTESIAN_POINT('',(4.74999999973867,4.52499999999031,-0.0295275590551378));
#990=CARTESIAN_POINT('',(4.74999999973867,3.47499999999031,-1.53085112391085E-14));
#991=CARTESIAN_POINT('',(4.74999999973867,3.43749999997415,-1.5183611148786E-14));
#992=CARTESIAN_POINT('',(4.74999999973867,3.47499999999031,-0.0590551181102533));
#993=CARTESIAN_POINT('Origin',(4.97499999973867,3.47499999999031,-0.0590551181102551));
#994=CARTESIAN_POINT('',(4.97499999973867,3.24999999999031,-1.55858062658542E-14));
#995=CARTESIAN_POINT('Origin',(4.97499999973867,3.47499999999031,-5.08123726821553E-15));
#996=CARTESIAN_POINT('',(4.97499999973867,3.24999999999031,-0.0590551181102551));
#997=CARTESIAN_POINT('Origin',(9.02499999973866,3.47499999999031,-0.059055118110277));
#998=CARTESIAN_POINT('',(9.02499999973867,3.24999999999031,-3.40353129600614E-14));
#999=CARTESIAN_POINT('',(9.02499999973866,3.24999999999031,-0.059055118110277));
#1000=CARTESIAN_POINT('Origin',(9.02499999973866,3.47499999999031,-3.70547861860621E-14));
#1001=CARTESIAN_POINT('Origin',(4.74999999973867,3.24999999999031,-0.0590551181102508));
#1002=CARTESIAN_POINT('',(5.87499999973867,3.24999999999031,-1.96856966423447E-14));
#1003=CARTESIAN_POINT('Origin',(6.99999999973867,2.12499999995799,-2.10626044936895E-14));
#1004=CARTESIAN_POINT('',(9.69999999973865,4.52499999999032,-4.13558814004678E-14));
#1005=CARTESIAN_POINT('Origin',(9.47499999973865,4.52499999999032,-2.81680318513862E-14));
#1006=CARTESIAN_POINT('',(4.29999999973868,4.52499999999031,-1.6756539141525E-14));
#1007=CARTESIAN_POINT('Origin',(4.52499999973867,4.52499999999031,-8.62717596399174E-15));
#1008=CARTESIAN_POINT('',(4.29999999973868,-0.275000000074334,-7.69327586911148E-16));
#1009=CARTESIAN_POINT('',(4.29999999973868,-0.500000000074334,-1.99270452987201E-17));
#1010=CARTESIAN_POINT('',(4.52499999973868,-0.500000000074334,-1.04489963942135E-15));
#1011=CARTESIAN_POINT('Origin',(4.52499999973868,-0.275000000074334,-1.39571771359928E-14));
#1012=CARTESIAN_POINT('',(9.47499999973865,-0.500000000074335,-2.3594296710119E-14));
#1013=CARTESIAN_POINT('',(9.69999999973865,-0.500000000074335,-2.46192693042416E-14));
#1014=CARTESIAN_POINT('',(9.69999999973865,-0.275000000074335,-2.5368669845854E-14));
#1015=CARTESIAN_POINT('Origin',(9.47499999973865,-0.275000000074335,-1.39571771359928E-14));
#1016=CARTESIAN_POINT('',(9.69999999973865,4.74999999999032,-4.21052819420803E-14));
#1017=CARTESIAN_POINT('',(9.41349999973864,1.95829457380667E-13,-2.49794720715568E-14));
#1018=CARTESIAN_POINT('Origin',(9.49999999973866,1.95818864185854E-13,-2.53735170910751E-14));
#1019=CARTESIAN_POINT('',(4.41349999973868,-7.43342289579283E-11,-2.20230331302819E-15));
#1020=CARTESIAN_POINT('Origin',(4.49999999973868,-7.43342395511231E-11,
-2.59634833254645E-15));
#1021=CARTESIAN_POINT('',(9.41349999973864,3.00000000000039,-3.49714792930565E-14));
#1022=CARTESIAN_POINT('Origin',(9.49999999973865,3.00000000000039,-3.53655243125748E-14));
#1023=CARTESIAN_POINT('',(4.41349999973868,2.99999999992557,-1.21943105345269E-14));
#1024=CARTESIAN_POINT('Origin',(4.49999999973868,2.99999999992557,-1.25883555540452E-14));
#1025=CARTESIAN_POINT('',(4.41399999973868,4.49999999999032,-1.71925918623679E-14));
#1026=CARTESIAN_POINT('Origin',(4.49999999973868,4.49999999999032,-1.75843591650104E-14));
#1027=CARTESIAN_POINT('',(9.41399999973864,4.50000000000037,-3.99697606206818E-14));
#1028=CARTESIAN_POINT('Origin',(9.49999999973864,4.50000000000037,-4.03615279233242E-14));
#1029=CARTESIAN_POINT('Origin',(9.43749999973865,3.21802292926899,-0.121555118110272));
#1030=CARTESIAN_POINT('',(9.49999999973865,4.19085607819294,-0.184055118110276));
#1031=CARTESIAN_POINT('',(8.85299054130429,4.81296747593337,0.462954340324098));
#1032=CARTESIAN_POINT('',(9.49999999973865,3.39756624617754,-0.184055118110273));
#1033=CARTESIAN_POINT('',(9.49999999973865,3.21802292926899,-0.184055118110272));
#1034=CARTESIAN_POINT('',(8.36366367703218,2.61103617352372,0.952281204596217));
#1035=CARTESIAN_POINT('Origin',(9.49999999973865,4.31104585857999,-0.059055118110276));
#1036=CARTESIAN_POINT('',(9.49999999973865,3.8884777115655,-0.498535232032774));
#1037=CARTESIAN_POINT('',(9.49999999973865,4.09976178507273,-0.278795175071526));
#1038=CARTESIAN_POINT('',(9.49999999973865,3.59914867881609,-0.475290568846222));
#1039=CARTESIAN_POINT('Origin',(9.49999999973865,3.75332014661637,-0.368578767641728));
#1040=CARTESIAN_POINT('',(9.49999999973865,3.47300011303415,-0.293037909552874));
#1041=CARTESIAN_POINT('',(9.49999999973865,3.75332014661637,-0.280078767641728));
#1042=CARTESIAN_POINT('Origin',(9.49999999973865,3.75332014661637,-0.368578767641728));
#1043=CARTESIAN_POINT('Origin',(4.56249999973868,2.71802292926899,-0.121555118110248));
#1044=CARTESIAN_POINT('',(4.49999999973868,3.39756624617753,-0.18405511811025));
#1045=CARTESIAN_POINT('',(4.61702703097356,3.31656445336288,-0.0670280868753799));
#1046=CARTESIAN_POINT('',(4.49999999973868,4.19085607819296,-0.184055118110253));
#1047=CARTESIAN_POINT('',(4.49999999973868,2.71802292926899,-0.184055118110248));
#1048=CARTESIAN_POINT('',(4.14158557889056,3.84623407395875,-0.542469538958373));
#1049=CARTESIAN_POINT('Origin',(4.49999999973868,3.31104585857999,-0.0590551181102498));
#1050=CARTESIAN_POINT('',(4.49999999973868,3.59914867881609,-0.475290568846222));
#1051=CARTESIAN_POINT('',(4.49999999973868,3.31104585857999,-0.0590551181102496));
#1052=CARTESIAN_POINT('',(4.49999999973868,3.8884777115655,-0.498535232032774));
#1053=CARTESIAN_POINT('Origin',(4.49999999973868,3.75332014661637,-0.368578767641728));
#1054=CARTESIAN_POINT('',(4.49999999973868,3.85956718756844,-0.52860280922607));
#1055=CARTESIAN_POINT('',(4.49999999973868,3.75332014661637,-0.280078767641728));
#1056=CARTESIAN_POINT('Origin',(4.49999999973868,3.75332014661637,-0.368578767641728));
#1057=CARTESIAN_POINT('Origin',(4.29999999973868,3.8884777115655,-0.498535232032774));
#1058=CARTESIAN_POINT('',(9.69999999973865,3.8884777115655,-0.498535232032774));
#1059=CARTESIAN_POINT('',(9.69999999973865,3.91758433531643,-0.468263706806995));
#1060=CARTESIAN_POINT('',(4.29999999973868,3.8884777115655,-0.498535232032774));
#1061=CARTESIAN_POINT('Origin',(4.29999999973868,3.31104585857999,-0.0590551181102489));
#1062=CARTESIAN_POINT('',(9.69999999973865,3.59914867881609,-0.475290568846222));
#1063=CARTESIAN_POINT('',(4.29999999973868,3.59914867881609,-0.475290568846222));
#1064=CARTESIAN_POINT('',(9.69999999973865,3.45017047627224,-0.260054878911447));
#1065=CARTESIAN_POINT('Origin',(4.29999999973868,3.31104585857999,-0.0590551181102489));
#1066=CARTESIAN_POINT('',(4.29999999973868,3.59914867881609,-0.475290568846222));
#1067=CARTESIAN_POINT('',(4.29999999973868,3.59914867881609,-0.475290568846222));
#1068=CARTESIAN_POINT('',(4.29999999973868,3.59914867881609,-0.475290568846222));
#1069=CARTESIAN_POINT('Origin',(4.29999999973868,3.75332014661637,-0.368578767641728));
#1070=CARTESIAN_POINT('Origin',(9.69999999973865,3.75332014661637,-0.368578767641728));
#1071=CARTESIAN_POINT('Origin',(4.29999999973868,3.75332014661637,-0.368578767641728));
#1072=CARTESIAN_POINT('',(4.29999999973868,3.8884777115655,-0.498535232032774));
#1073=CARTESIAN_POINT('Origin',(4.29999999973868,3.75332014661637,-0.368578767641728));
#1074=CARTESIAN_POINT('',(4.29999999973868,3.8884777115655,-0.498535232032774));
#1075=CARTESIAN_POINT('Origin',(4.29999999973868,3.75332014661637,-0.368578767641728));
#1076=CARTESIAN_POINT('',(9.69999999973865,3.75332014661637,-0.280078767641728));
#1077=CARTESIAN_POINT('Origin',(9.69999999973865,3.75332014661637,-0.368578767641728));
#1078=CARTESIAN_POINT('',(4.29999999973868,3.75332014661637,-0.280078767641728));
#1079=CARTESIAN_POINT('Origin',(4.29999999973868,3.75332014661637,-0.368578767641728));
#1080=CARTESIAN_POINT('',(4.29999999973868,3.75332014661637,-0.280078767641728));
#1081=CARTESIAN_POINT('',(4.29999999973868,3.75332014661637,-0.280078767641728));
#1082=CARTESIAN_POINT('Origin',(4.29999999973868,3.75332014661637,-0.368578767641728));
#1083=CARTESIAN_POINT('Origin',(4.29999999973868,3.8884777115655,-0.498535232032774));
#1084=CARTESIAN_POINT('',(4.29999999973868,4.31104585857999,-0.0590551181102524));
#1085=CARTESIAN_POINT('Origin',(9.47499999973865,-0.275000000074335,-2.62568482654642E-14));
#1086=CARTESIAN_POINT('',(9.69999999973865,-0.275000000074335,-2.62568482654642E-14));
#1087=CARTESIAN_POINT('',(9.47499999973865,-0.500000000074335,-2.55907144506891E-14));
#1088=CARTESIAN_POINT('Origin',(9.69999999973865,-0.500000000074335,-2.46192693042416E-14));
#1089=CARTESIAN_POINT('',(4.52499999973868,-0.500000000074334,-1.23195981747702E-14));
#1090=CARTESIAN_POINT('Origin',(4.52499999973868,-0.275000000074334,-1.29857319895452E-14));
#1091=CARTESIAN_POINT('',(4.29999999973868,-0.275000000074334,-1.29857319895452E-14));
#1092=CARTESIAN_POINT('Origin',(4.29999999973868,-0.500000000074334,-1.99270452987195E-17));
#1093=CARTESIAN_POINT('',(4.29999999973868,4.52499999999031,-1.58683607219148E-14));
#1094=CARTESIAN_POINT('Origin',(4.52499999973868,4.52499999999031,-1.58683607219148E-14));
#1095=CARTESIAN_POINT('Origin',(9.47499999973865,4.52499999999032,-2.91394769978337E-14));
#1096=CARTESIAN_POINT('',(9.69999999973865,4.52499999999032,-2.91394769978337E-14));
#1097=CARTESIAN_POINT('Origin',(9.49999999973866,1.95818864185854E-13,-2.53735170910751E-14));
#1098=CARTESIAN_POINT('',(9.41349999973864,1.95829457380667E-13,-2.53735170910751E-14));
#1099=CARTESIAN_POINT('Origin',(4.49999999973868,-7.43342395511231E-11,
-2.59634833254645E-15));
#1100=CARTESIAN_POINT('',(4.41349999973868,-7.43342289579283E-11,-2.59634833254645E-15));
#1101=CARTESIAN_POINT('Origin',(9.49999999973865,3.00000000000039,-3.53655243125748E-14));
#1102=CARTESIAN_POINT('',(9.41349999973864,3.00000000000039,-3.53655243125748E-14));
#1103=CARTESIAN_POINT('Origin',(4.49999999973868,2.99999999992557,-1.25883555540452E-14));
#1104=CARTESIAN_POINT('',(4.41349999973868,2.99999999992557,-1.25883555540452E-14));
#1105=CARTESIAN_POINT('Origin',(4.49999999973868,4.49999999999032,-1.75843591650104E-14));
#1106=CARTESIAN_POINT('',(4.41399999973868,4.49999999999032,-1.75843591650104E-14));
#1107=CARTESIAN_POINT('Origin',(9.49999999973864,4.50000000000037,-4.03615279233242E-14));
#1108=CARTESIAN_POINT('',(9.41399999973864,4.50000000000037,-4.03615279233242E-14));
#1109=CARTESIAN_POINT('Origin',(9.69999999973865,4.74999999999032,-4.21052819420803E-14));
#1110=UNCERTAINTY_MEASURE_WITH_UNIT(LENGTH_MEASURE(0.000393700787401575),
#1116,'DISTANCE_ACCURACY_VALUE',
'Maximum model space distance between geometric entities at asserted c
onnectivities');
#1111=UNCERTAINTY_MEASURE_WITH_UNIT(LENGTH_MEASURE(0.000393700787401575),
#1116,'DISTANCE_ACCURACY_VALUE',
'Maximum model space distance between geometric entities at asserted c
onnectivities');
#1112=(
GEOMETRIC_REPRESENTATION_CONTEXT(3)
GLOBAL_UNCERTAINTY_ASSIGNED_CONTEXT((#1110))
GLOBAL_UNIT_ASSIGNED_CONTEXT((#1116,#1120,#1121))
REPRESENTATION_CONTEXT('','3D')
);
#1113=(
GEOMETRIC_REPRESENTATION_CONTEXT(3)
GLOBAL_UNCERTAINTY_ASSIGNED_CONTEXT((#1111))
GLOBAL_UNIT_ASSIGNED_CONTEXT((#1116,#1120,#1121))
REPRESENTATION_CONTEXT('','3D')
);
#1114=DIMENSIONAL_EXPONENTS(1.,0.,0.,0.,0.,0.,0.);
#1115=DIMENSIONAL_EXPONENTS(0.,1.,0.,0.,0.,0.,0.);
#1116=(
CONVERSION_BASED_UNIT('inch',#1119)
LENGTH_UNIT()
NAMED_UNIT(#1114)
);
#1117=(
LENGTH_UNIT()
NAMED_UNIT(*)
SI_UNIT(.MILLI.,.METRE.)
);
#1118=(
LENGTH_UNIT()
NAMED_UNIT(*)
SI_UNIT(.CENTI.,.METRE.)
);
#1119=LENGTH_MEASURE_WITH_UNIT(LENGTH_MEASURE(25.4),#1117);
#1120=(
NAMED_UNIT(*)
PLANE_ANGLE_UNIT()
SI_UNIT($,.RADIAN.)
);
#1121=(
NAMED_UNIT(*)
SI_UNIT($,.STERADIAN.)
SOLID_ANGLE_UNIT()
);
#1122=SHAPE_DEFINITION_REPRESENTATION(#1123,#1124);
#1123=PRODUCT_DEFINITION_SHAPE('',$,#1126);
#1124=SHAPE_REPRESENTATION('',(#674),#1112);
#1125=PRODUCT_DEFINITION_CONTEXT('part definition',#1130,'design');
#1126=PRODUCT_DEFINITION('bottom rails','bottom rails',#1127,#1125);
#1127=PRODUCT_DEFINITION_FORMATION('',$,#1132);
#1128=PRODUCT_RELATED_PRODUCT_CATEGORY('bottom rails','bottom rails',(#1132));
#1129=APPLICATION_PROTOCOL_DEFINITION('international standard',
'automotive_design',2009,#1130);
#1130=APPLICATION_CONTEXT(
'Core Data for Automotive Mechanical Design Process');
#1131=PRODUCT_CONTEXT('part definition',#1130,'mechanical');
#1132=PRODUCT('bottom rails','bottom rails',$,(#1131));
#1133=PRESENTATION_STYLE_ASSIGNMENT((#1134));
#1134=SURFACE_STYLE_USAGE(.BOTH.,#1137);
#1135=SURFACE_STYLE_RENDERING_WITH_PROPERTIES($,#1141,(#1136));
#1136=SURFACE_STYLE_TRANSPARENT(0.);
#1137=SURFACE_SIDE_STYLE('',(#1138,#1135));
#1138=SURFACE_STYLE_FILL_AREA(#1139);
#1139=FILL_AREA_STYLE('',(#1140));
#1140=FILL_AREA_STYLE_COLOUR('',#1141);
#1141=COLOUR_RGB('',0.0196078431372549,0.0196078431372549,0.0196078431372549);
ENDSEC;
END-ISO-10303-21;
