ISO-10303-21;
HEADER;
/* Generated by software containing ST-Developer
 * from STEP Tools, Inc. (www.steptools.com) 
 */

FILE_DESCRIPTION(
/* description */ (''),
/* implementation_level */ '2;1');

FILE_NAME(
/* name */ 'hood.stp',
/* time_stamp */ '2026-01-16T11:27:07+13:00',
/* author */ ('cloudy'),
/* organization */ (''),
/* preprocessor_version */ 'ST-DEVELOPER v20',
/* originating_system */ 'Autodesk Inventor 2025',
/* authorisation */ '');

FILE_SCHEMA (('AUTOMOTIVE_DESIGN { 1 0 10303 214 3 1 1 }'));
ENDSEC;

DATA;
#10=MECHANICAL_DESIGN_GEOMETRIC_PRESENTATION_REPRESENTATION('',(#13),#983);
#11=SHAPE_REPRESENTATION_RELATIONSHIP('SRR','None',#994,#12);
#12=ADVANCED_BREP_SHAPE_REPRESENTATION('',(#14),#982);
#13=STYLED_ITEM('',(#1003),#14);
#14=MANIFOLD_SOLID_BREP('Solid1',#563);
#15=FACE_BOUND('',#102,.T.);
#16=FACE_BOUND('',#103,.T.);
#17=FACE_BOUND('',#104,.T.);
#18=FACE_BOUND('',#105,.T.);
#19=FACE_BOUND('',#106,.T.);
#20=FACE_BOUND('',#107,.T.);
#21=FACE_BOUND('',#131,.T.);
#22=FACE_BOUND('',#132,.T.);
#23=FACE_BOUND('',#133,.T.);
#24=FACE_BOUND('',#134,.T.);
#25=FACE_BOUND('',#135,.T.);
#26=FACE_BOUND('',#136,.T.);
#27=CIRCLE('',#591,0.1875);
#28=CIRCLE('',#592,0.1875);
#29=CIRCLE('',#593,0.1875);
#30=CIRCLE('',#594,0.1875);
#31=CIRCLE('',#595,0.086);
#32=CIRCLE('',#596,0.086);
#33=CIRCLE('',#597,0.086);
#34=CIRCLE('',#598,0.086);
#35=CIRCLE('',#599,0.086);
#36=CIRCLE('',#600,0.086);
#37=CIRCLE('',#602,0.086);
#38=CIRCLE('',#604,0.086);
#39=CIRCLE('',#606,0.086);
#40=CIRCLE('',#608,0.086);
#41=CIRCLE('',#610,0.086);
#42=CIRCLE('',#612,0.086);
#43=CIRCLE('',#619,0.1875);
#44=CIRCLE('',#622,0.1875);
#45=CIRCLE('',#627,0.1875);
#46=CIRCLE('',#630,0.1875);
#47=B_SPLINE_SURFACE_WITH_KNOTS('',3,3,((#807,#808,#809,#810),(#811,#812,
#813,#814),(#815,#816,#817,#818),(#819,#820,#821,#822)),.UNSPECIFIED.,.F.,
 .F.,.F.,(4,4),(4,4),(1.38265835884995,2.10078041046072),(0.,0.3175),
 .UNSPECIFIED.);
#48=B_SPLINE_SURFACE_WITH_KNOTS('',3,3,((#884,#885,#886,#887),(#888,#889,
#890,#891),(#892,#893,#894,#895),(#896,#897,#898,#899)),.UNSPECIFIED.,.F.,
 .F.,.F.,(4,4),(4,4),(3.72125544999454,4.43937750157904),(0.,0.3175),
 .UNSPECIFIED.);
#49=B_SPLINE_CURVE_WITH_KNOTS('',3,(#797,#798,#799,#800),.UNSPECIFIED.,
 .F.,.F.,(4,4),(0.,0.698131700797733),.UNSPECIFIED.);
#50=B_SPLINE_CURVE_WITH_KNOTS('',3,(#803,#804,#805,#806),.UNSPECIFIED.,
 .F.,.F.,(4,4),(0.,0.698131700797732),.UNSPECIFIED.);
#51=B_SPLINE_CURVE_WITH_KNOTS('',3,(#826,#827,#828,#829),.UNSPECIFIED.,
 .F.,.F.,(4,4),(0.,0.698131700797733),.UNSPECIFIED.);
#52=B_SPLINE_CURVE_WITH_KNOTS('',3,(#901,#902,#903,#904),.UNSPECIFIED.,
 .F.,.F.,(4,4),(0.,0.698131700797732),.UNSPECIFIED.);
#53=CYLINDRICAL_SURFACE('',#586,0.375);
#54=CYLINDRICAL_SURFACE('',#601,0.086);
#55=CYLINDRICAL_SURFACE('',#603,0.086);
#56=CYLINDRICAL_SURFACE('',#605,0.086);
#57=CYLINDRICAL_SURFACE('',#607,0.086);
#58=CYLINDRICAL_SURFACE('',#609,0.086);
#59=CYLINDRICAL_SURFACE('',#611,0.086);
#60=CYLINDRICAL_SURFACE('',#618,0.1875);
#61=CYLINDRICAL_SURFACE('',#621,0.1875);
#62=CYLINDRICAL_SURFACE('',#626,0.1875);
#63=CYLINDRICAL_SURFACE('',#629,0.1875);
#64=CYLINDRICAL_SURFACE('',#631,0.25);
#65=FACE_OUTER_BOUND('',#95,.T.);
#66=FACE_OUTER_BOUND('',#96,.T.);
#67=FACE_OUTER_BOUND('',#97,.T.);
#68=FACE_OUTER_BOUND('',#98,.T.);
#69=FACE_OUTER_BOUND('',#99,.T.);
#70=FACE_OUTER_BOUND('',#100,.T.);
#71=FACE_OUTER_BOUND('',#101,.T.);
#72=FACE_OUTER_BOUND('',#108,.T.);
#73=FACE_OUTER_BOUND('',#109,.T.);
#74=FACE_OUTER_BOUND('',#110,.T.);
#75=FACE_OUTER_BOUND('',#111,.T.);
#76=FACE_OUTER_BOUND('',#112,.T.);
#77=FACE_OUTER_BOUND('',#113,.T.);
#78=FACE_OUTER_BOUND('',#114,.T.);
#79=FACE_OUTER_BOUND('',#115,.T.);
#80=FACE_OUTER_BOUND('',#116,.T.);
#81=FACE_OUTER_BOUND('',#117,.T.);
#82=FACE_OUTER_BOUND('',#118,.T.);
#83=FACE_OUTER_BOUND('',#119,.T.);
#84=FACE_OUTER_BOUND('',#120,.T.);
#85=FACE_OUTER_BOUND('',#121,.T.);
#86=FACE_OUTER_BOUND('',#122,.T.);
#87=FACE_OUTER_BOUND('',#123,.T.);
#88=FACE_OUTER_BOUND('',#124,.T.);
#89=FACE_OUTER_BOUND('',#125,.T.);
#90=FACE_OUTER_BOUND('',#126,.T.);
#91=FACE_OUTER_BOUND('',#127,.T.);
#92=FACE_OUTER_BOUND('',#128,.T.);
#93=FACE_OUTER_BOUND('',#129,.T.);
#94=FACE_OUTER_BOUND('',#130,.T.);
#95=EDGE_LOOP('',(#365,#366,#367,#368));
#96=EDGE_LOOP('',(#369,#370,#371,#372));
#97=EDGE_LOOP('',(#373,#374,#375,#376));
#98=EDGE_LOOP('',(#377,#378,#379,#380));
#99=EDGE_LOOP('',(#381,#382,#383,#384));
#100=EDGE_LOOP('',(#385,#386,#387,#388));
#101=EDGE_LOOP('',(#389,#390,#391,#392,#393,#394,#395,#396,#397,#398,#399,
#400,#401,#402));
#102=EDGE_LOOP('',(#403));
#103=EDGE_LOOP('',(#404));
#104=EDGE_LOOP('',(#405));
#105=EDGE_LOOP('',(#406));
#106=EDGE_LOOP('',(#407));
#107=EDGE_LOOP('',(#408));
#108=EDGE_LOOP('',(#409,#410,#411,#412));
#109=EDGE_LOOP('',(#413,#414,#415,#416));
#110=EDGE_LOOP('',(#417,#418,#419,#420));
#111=EDGE_LOOP('',(#421,#422,#423,#424));
#112=EDGE_LOOP('',(#425,#426,#427,#428));
#113=EDGE_LOOP('',(#429,#430,#431,#432));
#114=EDGE_LOOP('',(#433,#434,#435,#436));
#115=EDGE_LOOP('',(#437,#438,#439,#440));
#116=EDGE_LOOP('',(#441,#442,#443,#444));
#117=EDGE_LOOP('',(#445,#446,#447,#448));
#118=EDGE_LOOP('',(#449,#450,#451,#452));
#119=EDGE_LOOP('',(#453,#454,#455,#456));
#120=EDGE_LOOP('',(#457,#458,#459,#460));
#121=EDGE_LOOP('',(#461,#462,#463,#464));
#122=EDGE_LOOP('',(#465,#466,#467,#468));
#123=EDGE_LOOP('',(#469,#470,#471,#472));
#124=EDGE_LOOP('',(#473,#474,#475,#476));
#125=EDGE_LOOP('',(#477,#478,#479,#480));
#126=EDGE_LOOP('',(#481,#482,#483,#484));
#127=EDGE_LOOP('',(#485,#486,#487,#488));
#128=EDGE_LOOP('',(#489,#490,#491,#492));
#129=EDGE_LOOP('',(#493,#494,#495,#496));
#130=EDGE_LOOP('',(#497,#498,#499,#500,#501,#502,#503,#504,#505,#506,#507,
#508,#509,#510));
#131=EDGE_LOOP('',(#511));
#132=EDGE_LOOP('',(#512));
#133=EDGE_LOOP('',(#513));
#134=EDGE_LOOP('',(#514));
#135=EDGE_LOOP('',(#515));
#136=EDGE_LOOP('',(#516));
#137=LINE('',#787,#189);
#138=LINE('',#789,#190);
#139=LINE('',#791,#191);
#140=LINE('',#792,#192);
#141=LINE('',#795,#193);
#142=LINE('',#802,#194);
#143=LINE('',#824,#195);
#144=LINE('',#830,#196);
#145=LINE('',#832,#197);
#146=LINE('',#834,#198);
#147=LINE('',#835,#199);
#148=LINE('',#838,#200);
#149=LINE('',#839,#201);
#150=LINE('',#842,#202);
#151=LINE('',#844,#203);
#152=LINE('',#845,#204);
#153=LINE('',#848,#205);
#154=LINE('',#850,#206);
#155=LINE('',#854,#207);
#156=LINE('',#858,#208);
#157=LINE('',#860,#209);
#158=LINE('',#862,#210);
#159=LINE('',#864,#211);
#160=LINE('',#866,#212);
#161=LINE('',#870,#213);
#162=LINE('',#900,#214);
#163=LINE('',#907,#215);
#164=LINE('',#911,#216);
#165=LINE('',#915,#217);
#166=LINE('',#919,#218);
#167=LINE('',#923,#219);
#168=LINE('',#927,#220);
#169=LINE('',#932,#221);
#170=LINE('',#933,#222);
#171=LINE('',#934,#223);
#172=LINE('',#937,#224);
#173=LINE('',#938,#225);
#174=LINE('',#941,#226);
#175=LINE('',#942,#227);
#176=LINE('',#945,#228);
#177=LINE('',#946,#229);
#178=LINE('',#949,#230);
#179=LINE('',#950,#231);
#180=LINE('',#954,#232);
#181=LINE('',#957,#233);
#182=LINE('',#958,#234);
#183=LINE('',#962,#235);
#184=LINE('',#964,#236);
#185=LINE('',#966,#237);
#186=LINE('',#971,#238);
#187=LINE('',#974,#239);
#188=LINE('',#975,#240);
#189=VECTOR('',#637,0.393700787401575);
#190=VECTOR('',#638,0.393700787401575);
#191=VECTOR('',#639,0.393700787401575);
#192=VECTOR('',#640,0.393700787401575);
#193=VECTOR('',#643,0.393700787401575);
#194=VECTOR('',#644,0.393700787401575);
#195=VECTOR('',#645,0.393700787401575);
#196=VECTOR('',#646,0.393700787401575);
#197=VECTOR('',#649,0.393700787401575);
#198=VECTOR('',#650,0.393700787401575);
#199=VECTOR('',#651,0.393700787401575);
#200=VECTOR('',#654,0.393700787401575);
#201=VECTOR('',#655,0.393700787401575);
#202=VECTOR('',#658,0.393700787401575);
#203=VECTOR('',#659,0.393700787401575);
#204=VECTOR('',#660,0.393700787401575);
#205=VECTOR('',#663,0.393700787401575);
#206=VECTOR('',#664,0.393700787401575);
#207=VECTOR('',#667,0.393700787401575);
#208=VECTOR('',#670,0.393700787401575);
#209=VECTOR('',#671,0.393700787401575);
#210=VECTOR('',#672,0.393700787401575);
#211=VECTOR('',#673,0.393700787401575);
#212=VECTOR('',#674,0.393700787401575);
#213=VECTOR('',#677,0.393700787401575);
#214=VECTOR('',#692,0.393700787401575);
#215=VECTOR('',#695,0.086);
#216=VECTOR('',#700,0.086);
#217=VECTOR('',#705,0.086);
#218=VECTOR('',#710,0.086);
#219=VECTOR('',#715,0.086);
#220=VECTOR('',#720,0.086);
#221=VECTOR('',#725,0.393700787401575);
#222=VECTOR('',#726,0.393700787401575);
#223=VECTOR('',#727,0.393700787401575);
#224=VECTOR('',#730,0.393700787401575);
#225=VECTOR('',#731,0.393700787401575);
#226=VECTOR('',#734,0.393700787401575);
#227=VECTOR('',#735,0.393700787401575);
#228=VECTOR('',#738,0.393700787401575);
#229=VECTOR('',#739,0.393700787401575);
#230=VECTOR('',#742,0.393700787401575);
#231=VECTOR('',#743,0.393700787401575);
#232=VECTOR('',#748,0.393700787401575);
#233=VECTOR('',#751,0.393700787401575);
#234=VECTOR('',#752,0.393700787401575);
#235=VECTOR('',#757,0.393700787401575);
#236=VECTOR('',#760,0.393700787401575);
#237=VECTOR('',#763,0.393700787401575);
#238=VECTOR('',#770,0.393700787401575);
#239=VECTOR('',#773,0.393700787401575);
#240=VECTOR('',#774,0.393700787401575);
#241=VERTEX_POINT('',#785);
#242=VERTEX_POINT('',#786);
#243=VERTEX_POINT('',#788);
#244=VERTEX_POINT('',#790);
#245=VERTEX_POINT('',#794);
#246=VERTEX_POINT('',#796);
#247=VERTEX_POINT('',#801);
#248=VERTEX_POINT('',#823);
#249=VERTEX_POINT('',#825);
#250=VERTEX_POINT('',#833);
#251=VERTEX_POINT('',#837);
#252=VERTEX_POINT('',#841);
#253=VERTEX_POINT('',#843);
#254=VERTEX_POINT('',#847);
#255=VERTEX_POINT('',#849);
#256=VERTEX_POINT('',#851);
#257=VERTEX_POINT('',#853);
#258=VERTEX_POINT('',#855);
#259=VERTEX_POINT('',#857);
#260=VERTEX_POINT('',#859);
#261=VERTEX_POINT('',#861);
#262=VERTEX_POINT('',#863);
#263=VERTEX_POINT('',#865);
#264=VERTEX_POINT('',#867);
#265=VERTEX_POINT('',#869);
#266=VERTEX_POINT('',#872);
#267=VERTEX_POINT('',#874);
#268=VERTEX_POINT('',#876);
#269=VERTEX_POINT('',#878);
#270=VERTEX_POINT('',#880);
#271=VERTEX_POINT('',#882);
#272=VERTEX_POINT('',#906);
#273=VERTEX_POINT('',#910);
#274=VERTEX_POINT('',#914);
#275=VERTEX_POINT('',#918);
#276=VERTEX_POINT('',#922);
#277=VERTEX_POINT('',#926);
#278=VERTEX_POINT('',#930);
#279=VERTEX_POINT('',#931);
#280=VERTEX_POINT('',#936);
#281=VERTEX_POINT('',#940);
#282=VERTEX_POINT('',#944);
#283=VERTEX_POINT('',#948);
#284=VERTEX_POINT('',#952);
#285=VERTEX_POINT('',#956);
#286=VERTEX_POINT('',#960);
#287=VERTEX_POINT('',#969);
#288=VERTEX_POINT('',#973);
#289=EDGE_CURVE('',#241,#242,#137,.T.);
#290=EDGE_CURVE('',#243,#242,#138,.T.);
#291=EDGE_CURVE('',#244,#243,#139,.T.);
#292=EDGE_CURVE('',#244,#241,#140,.T.);
#293=EDGE_CURVE('',#245,#241,#141,.T.);
#294=EDGE_CURVE('',#246,#245,#49,.T.);
#295=EDGE_CURVE('',#246,#247,#142,.T.);
#296=EDGE_CURVE('',#241,#247,#50,.T.);
#297=EDGE_CURVE('',#248,#245,#143,.T.);
#298=EDGE_CURVE('',#249,#248,#51,.T.);
#299=EDGE_CURVE('',#249,#246,#144,.T.);
#300=EDGE_CURVE('',#242,#248,#145,.T.);
#301=EDGE_CURVE('',#248,#250,#146,.T.);
#302=EDGE_CURVE('',#250,#243,#147,.T.);
#303=EDGE_CURVE('',#251,#244,#148,.T.);
#304=EDGE_CURVE('',#245,#251,#149,.T.);
#305=EDGE_CURVE('',#252,#249,#150,.T.);
#306=EDGE_CURVE('',#253,#252,#151,.T.);
#307=EDGE_CURVE('',#253,#246,#152,.T.);
#308=EDGE_CURVE('',#254,#249,#153,.T.);
#309=EDGE_CURVE('',#254,#255,#154,.T.);
#310=EDGE_CURVE('',#255,#256,#27,.T.);
#311=EDGE_CURVE('',#256,#257,#155,.T.);
#312=EDGE_CURVE('',#257,#258,#28,.T.);
#313=EDGE_CURVE('',#258,#259,#156,.T.);
#314=EDGE_CURVE('',#259,#260,#157,.T.);
#315=EDGE_CURVE('',#260,#261,#158,.T.);
#316=EDGE_CURVE('',#261,#262,#159,.T.);
#317=EDGE_CURVE('',#262,#263,#160,.T.);
#318=EDGE_CURVE('',#263,#264,#29,.T.);
#319=EDGE_CURVE('',#264,#265,#161,.T.);
#320=EDGE_CURVE('',#265,#252,#30,.T.);
#321=EDGE_CURVE('',#266,#266,#31,.T.);
#322=EDGE_CURVE('',#267,#267,#32,.T.);
#323=EDGE_CURVE('',#268,#268,#33,.T.);
#324=EDGE_CURVE('',#269,#269,#34,.T.);
#325=EDGE_CURVE('',#270,#270,#35,.T.);
#326=EDGE_CURVE('',#271,#271,#36,.T.);
#327=EDGE_CURVE('',#247,#254,#162,.T.);
#328=EDGE_CURVE('',#242,#254,#52,.T.);
#329=EDGE_CURVE('',#266,#272,#163,.T.);
#330=EDGE_CURVE('',#272,#272,#37,.T.);
#331=EDGE_CURVE('',#267,#273,#164,.T.);
#332=EDGE_CURVE('',#273,#273,#38,.T.);
#333=EDGE_CURVE('',#268,#274,#165,.T.);
#334=EDGE_CURVE('',#274,#274,#39,.T.);
#335=EDGE_CURVE('',#269,#275,#166,.T.);
#336=EDGE_CURVE('',#275,#275,#40,.T.);
#337=EDGE_CURVE('',#270,#276,#167,.T.);
#338=EDGE_CURVE('',#276,#276,#41,.T.);
#339=EDGE_CURVE('',#271,#277,#168,.T.);
#340=EDGE_CURVE('',#277,#277,#42,.T.);
#341=EDGE_CURVE('',#278,#279,#169,.T.);
#342=EDGE_CURVE('',#279,#263,#170,.T.);
#343=EDGE_CURVE('',#278,#262,#171,.T.);
#344=EDGE_CURVE('',#280,#278,#172,.T.);
#345=EDGE_CURVE('',#280,#261,#173,.T.);
#346=EDGE_CURVE('',#281,#280,#174,.T.);
#347=EDGE_CURVE('',#281,#260,#175,.T.);
#348=EDGE_CURVE('',#282,#281,#176,.T.);
#349=EDGE_CURVE('',#282,#259,#177,.T.);
#350=EDGE_CURVE('',#283,#282,#178,.T.);
#351=EDGE_CURVE('',#283,#258,#179,.T.);
#352=EDGE_CURVE('',#284,#283,#43,.T.);
#353=EDGE_CURVE('',#284,#257,#180,.T.);
#354=EDGE_CURVE('',#285,#284,#181,.T.);
#355=EDGE_CURVE('',#285,#256,#182,.T.);
#356=EDGE_CURVE('',#286,#285,#44,.T.);
#357=EDGE_CURVE('',#286,#255,#183,.T.);
#358=EDGE_CURVE('',#247,#286,#184,.T.);
#359=EDGE_CURVE('',#251,#250,#185,.T.);
#360=EDGE_CURVE('',#287,#253,#45,.T.);
#361=EDGE_CURVE('',#287,#265,#186,.T.);
#362=EDGE_CURVE('',#288,#287,#187,.T.);
#363=EDGE_CURVE('',#288,#264,#188,.T.);
#364=EDGE_CURVE('',#279,#288,#46,.T.);
#365=ORIENTED_EDGE('',*,*,#289,.T.);
#366=ORIENTED_EDGE('',*,*,#290,.F.);
#367=ORIENTED_EDGE('',*,*,#291,.F.);
#368=ORIENTED_EDGE('',*,*,#292,.T.);
#369=ORIENTED_EDGE('',*,*,#293,.F.);
#370=ORIENTED_EDGE('',*,*,#294,.F.);
#371=ORIENTED_EDGE('',*,*,#295,.T.);
#372=ORIENTED_EDGE('',*,*,#296,.F.);
#373=ORIENTED_EDGE('',*,*,#297,.F.);
#374=ORIENTED_EDGE('',*,*,#298,.F.);
#375=ORIENTED_EDGE('',*,*,#299,.T.);
#376=ORIENTED_EDGE('',*,*,#294,.T.);
#377=ORIENTED_EDGE('',*,*,#300,.T.);
#378=ORIENTED_EDGE('',*,*,#301,.T.);
#379=ORIENTED_EDGE('',*,*,#302,.T.);
#380=ORIENTED_EDGE('',*,*,#290,.T.);
#381=ORIENTED_EDGE('',*,*,#293,.T.);
#382=ORIENTED_EDGE('',*,*,#292,.F.);
#383=ORIENTED_EDGE('',*,*,#303,.F.);
#384=ORIENTED_EDGE('',*,*,#304,.F.);
#385=ORIENTED_EDGE('',*,*,#299,.F.);
#386=ORIENTED_EDGE('',*,*,#305,.F.);
#387=ORIENTED_EDGE('',*,*,#306,.F.);
#388=ORIENTED_EDGE('',*,*,#307,.T.);
#389=ORIENTED_EDGE('',*,*,#308,.F.);
#390=ORIENTED_EDGE('',*,*,#309,.T.);
#391=ORIENTED_EDGE('',*,*,#310,.T.);
#392=ORIENTED_EDGE('',*,*,#311,.T.);
#393=ORIENTED_EDGE('',*,*,#312,.T.);
#394=ORIENTED_EDGE('',*,*,#313,.T.);
#395=ORIENTED_EDGE('',*,*,#314,.T.);
#396=ORIENTED_EDGE('',*,*,#315,.T.);
#397=ORIENTED_EDGE('',*,*,#316,.T.);
#398=ORIENTED_EDGE('',*,*,#317,.T.);
#399=ORIENTED_EDGE('',*,*,#318,.T.);
#400=ORIENTED_EDGE('',*,*,#319,.T.);
#401=ORIENTED_EDGE('',*,*,#320,.T.);
#402=ORIENTED_EDGE('',*,*,#305,.T.);
#403=ORIENTED_EDGE('',*,*,#321,.T.);
#404=ORIENTED_EDGE('',*,*,#322,.T.);
#405=ORIENTED_EDGE('',*,*,#323,.T.);
#406=ORIENTED_EDGE('',*,*,#324,.T.);
#407=ORIENTED_EDGE('',*,*,#325,.T.);
#408=ORIENTED_EDGE('',*,*,#326,.T.);
#409=ORIENTED_EDGE('',*,*,#289,.F.);
#410=ORIENTED_EDGE('',*,*,#296,.T.);
#411=ORIENTED_EDGE('',*,*,#327,.T.);
#412=ORIENTED_EDGE('',*,*,#328,.F.);
#413=ORIENTED_EDGE('',*,*,#321,.F.);
#414=ORIENTED_EDGE('',*,*,#329,.T.);
#415=ORIENTED_EDGE('',*,*,#330,.T.);
#416=ORIENTED_EDGE('',*,*,#329,.F.);
#417=ORIENTED_EDGE('',*,*,#322,.F.);
#418=ORIENTED_EDGE('',*,*,#331,.T.);
#419=ORIENTED_EDGE('',*,*,#332,.T.);
#420=ORIENTED_EDGE('',*,*,#331,.F.);
#421=ORIENTED_EDGE('',*,*,#323,.F.);
#422=ORIENTED_EDGE('',*,*,#333,.T.);
#423=ORIENTED_EDGE('',*,*,#334,.T.);
#424=ORIENTED_EDGE('',*,*,#333,.F.);
#425=ORIENTED_EDGE('',*,*,#324,.F.);
#426=ORIENTED_EDGE('',*,*,#335,.T.);
#427=ORIENTED_EDGE('',*,*,#336,.T.);
#428=ORIENTED_EDGE('',*,*,#335,.F.);
#429=ORIENTED_EDGE('',*,*,#325,.F.);
#430=ORIENTED_EDGE('',*,*,#337,.T.);
#431=ORIENTED_EDGE('',*,*,#338,.T.);
#432=ORIENTED_EDGE('',*,*,#337,.F.);
#433=ORIENTED_EDGE('',*,*,#326,.F.);
#434=ORIENTED_EDGE('',*,*,#339,.T.);
#435=ORIENTED_EDGE('',*,*,#340,.T.);
#436=ORIENTED_EDGE('',*,*,#339,.F.);
#437=ORIENTED_EDGE('',*,*,#341,.T.);
#438=ORIENTED_EDGE('',*,*,#342,.T.);
#439=ORIENTED_EDGE('',*,*,#317,.F.);
#440=ORIENTED_EDGE('',*,*,#343,.F.);
#441=ORIENTED_EDGE('',*,*,#344,.T.);
#442=ORIENTED_EDGE('',*,*,#343,.T.);
#443=ORIENTED_EDGE('',*,*,#316,.F.);
#444=ORIENTED_EDGE('',*,*,#345,.F.);
#445=ORIENTED_EDGE('',*,*,#346,.T.);
#446=ORIENTED_EDGE('',*,*,#345,.T.);
#447=ORIENTED_EDGE('',*,*,#315,.F.);
#448=ORIENTED_EDGE('',*,*,#347,.F.);
#449=ORIENTED_EDGE('',*,*,#348,.T.);
#450=ORIENTED_EDGE('',*,*,#347,.T.);
#451=ORIENTED_EDGE('',*,*,#314,.F.);
#452=ORIENTED_EDGE('',*,*,#349,.F.);
#453=ORIENTED_EDGE('',*,*,#350,.T.);
#454=ORIENTED_EDGE('',*,*,#349,.T.);
#455=ORIENTED_EDGE('',*,*,#313,.F.);
#456=ORIENTED_EDGE('',*,*,#351,.F.);
#457=ORIENTED_EDGE('',*,*,#352,.T.);
#458=ORIENTED_EDGE('',*,*,#351,.T.);
#459=ORIENTED_EDGE('',*,*,#312,.F.);
#460=ORIENTED_EDGE('',*,*,#353,.F.);
#461=ORIENTED_EDGE('',*,*,#354,.T.);
#462=ORIENTED_EDGE('',*,*,#353,.T.);
#463=ORIENTED_EDGE('',*,*,#311,.F.);
#464=ORIENTED_EDGE('',*,*,#355,.F.);
#465=ORIENTED_EDGE('',*,*,#356,.T.);
#466=ORIENTED_EDGE('',*,*,#355,.T.);
#467=ORIENTED_EDGE('',*,*,#310,.F.);
#468=ORIENTED_EDGE('',*,*,#357,.F.);
#469=ORIENTED_EDGE('',*,*,#327,.F.);
#470=ORIENTED_EDGE('',*,*,#358,.T.);
#471=ORIENTED_EDGE('',*,*,#357,.T.);
#472=ORIENTED_EDGE('',*,*,#309,.F.);
#473=ORIENTED_EDGE('',*,*,#303,.T.);
#474=ORIENTED_EDGE('',*,*,#291,.T.);
#475=ORIENTED_EDGE('',*,*,#302,.F.);
#476=ORIENTED_EDGE('',*,*,#359,.F.);
#477=ORIENTED_EDGE('',*,*,#297,.T.);
#478=ORIENTED_EDGE('',*,*,#304,.T.);
#479=ORIENTED_EDGE('',*,*,#359,.T.);
#480=ORIENTED_EDGE('',*,*,#301,.F.);
#481=ORIENTED_EDGE('',*,*,#360,.T.);
#482=ORIENTED_EDGE('',*,*,#306,.T.);
#483=ORIENTED_EDGE('',*,*,#320,.F.);
#484=ORIENTED_EDGE('',*,*,#361,.F.);
#485=ORIENTED_EDGE('',*,*,#362,.T.);
#486=ORIENTED_EDGE('',*,*,#361,.T.);
#487=ORIENTED_EDGE('',*,*,#319,.F.);
#488=ORIENTED_EDGE('',*,*,#363,.F.);
#489=ORIENTED_EDGE('',*,*,#364,.T.);
#490=ORIENTED_EDGE('',*,*,#363,.T.);
#491=ORIENTED_EDGE('',*,*,#318,.F.);
#492=ORIENTED_EDGE('',*,*,#342,.F.);
#493=ORIENTED_EDGE('',*,*,#300,.F.);
#494=ORIENTED_EDGE('',*,*,#328,.T.);
#495=ORIENTED_EDGE('',*,*,#308,.T.);
#496=ORIENTED_EDGE('',*,*,#298,.T.);
#497=ORIENTED_EDGE('',*,*,#295,.F.);
#498=ORIENTED_EDGE('',*,*,#307,.F.);
#499=ORIENTED_EDGE('',*,*,#360,.F.);
#500=ORIENTED_EDGE('',*,*,#362,.F.);
#501=ORIENTED_EDGE('',*,*,#364,.F.);
#502=ORIENTED_EDGE('',*,*,#341,.F.);
#503=ORIENTED_EDGE('',*,*,#344,.F.);
#504=ORIENTED_EDGE('',*,*,#346,.F.);
#505=ORIENTED_EDGE('',*,*,#348,.F.);
#506=ORIENTED_EDGE('',*,*,#350,.F.);
#507=ORIENTED_EDGE('',*,*,#352,.F.);
#508=ORIENTED_EDGE('',*,*,#354,.F.);
#509=ORIENTED_EDGE('',*,*,#356,.F.);
#510=ORIENTED_EDGE('',*,*,#358,.F.);
#511=ORIENTED_EDGE('',*,*,#340,.F.);
#512=ORIENTED_EDGE('',*,*,#338,.F.);
#513=ORIENTED_EDGE('',*,*,#336,.F.);
#514=ORIENTED_EDGE('',*,*,#334,.F.);
#515=ORIENTED_EDGE('',*,*,#332,.F.);
#516=ORIENTED_EDGE('',*,*,#330,.F.);
#517=PLANE('',#585);
#518=PLANE('',#587);
#519=PLANE('',#588);
#520=PLANE('',#589);
#521=PLANE('',#590);
#522=PLANE('',#613);
#523=PLANE('',#614);
#524=PLANE('',#615);
#525=PLANE('',#616);
#526=PLANE('',#617);
#527=PLANE('',#620);
#528=PLANE('',#623);
#529=PLANE('',#624);
#530=PLANE('',#625);
#531=PLANE('',#628);
#532=PLANE('',#632);
#533=ADVANCED_FACE('',(#65),#517,.T.);
#534=ADVANCED_FACE('',(#66),#53,.T.);
#535=ADVANCED_FACE('',(#67),#47,.T.);
#536=ADVANCED_FACE('',(#68),#518,.T.);
#537=ADVANCED_FACE('',(#69),#519,.F.);
#538=ADVANCED_FACE('',(#70),#520,.T.);
#539=ADVANCED_FACE('',(#71,#15,#16,#17,#18,#19,#20),#521,.T.);
#540=ADVANCED_FACE('',(#72),#48,.T.);
#541=ADVANCED_FACE('',(#73),#54,.F.);
#542=ADVANCED_FACE('',(#74),#55,.F.);
#543=ADVANCED_FACE('',(#75),#56,.F.);
#544=ADVANCED_FACE('',(#76),#57,.F.);
#545=ADVANCED_FACE('',(#77),#58,.F.);
#546=ADVANCED_FACE('',(#78),#59,.F.);
#547=ADVANCED_FACE('',(#79),#522,.T.);
#548=ADVANCED_FACE('',(#80),#523,.T.);
#549=ADVANCED_FACE('',(#81),#524,.T.);
#550=ADVANCED_FACE('',(#82),#525,.T.);
#551=ADVANCED_FACE('',(#83),#526,.T.);
#552=ADVANCED_FACE('',(#84),#60,.T.);
#553=ADVANCED_FACE('',(#85),#527,.T.);
#554=ADVANCED_FACE('',(#86),#61,.T.);
#555=ADVANCED_FACE('',(#87),#528,.T.);
#556=ADVANCED_FACE('',(#88),#529,.T.);
#557=ADVANCED_FACE('',(#89),#530,.T.);
#558=ADVANCED_FACE('',(#90),#62,.T.);
#559=ADVANCED_FACE('',(#91),#531,.T.);
#560=ADVANCED_FACE('',(#92),#63,.T.);
#561=ADVANCED_FACE('',(#93),#64,.F.);
#562=ADVANCED_FACE('',(#94,#21,#22,#23,#24,#25,#26),#532,.F.);
#563=CLOSED_SHELL('',(#533,#534,#535,#536,#537,#538,#539,#540,#541,#542,
#543,#544,#545,#546,#547,#548,#549,#550,#551,#552,#553,#554,#555,#556,#557,
#558,#559,#560,#561,#562));
#564=DERIVED_UNIT_ELEMENT(#566,1.);
#565=DERIVED_UNIT_ELEMENT(#988,-3.);
#566=(
CONVERSION_BASED_UNIT('gram',#568)
MASS_UNIT()
NAMED_UNIT(#985)
);
#567=(
MASS_UNIT()
NAMED_UNIT(*)
SI_UNIT(.KILO.,.GRAM.)
);
#568=MASS_MEASURE_WITH_UNIT(MASS_MEASURE(0.001),#567);
#569=DERIVED_UNIT((#564,#565));
#570=MEASURE_REPRESENTATION_ITEM('density measure',
POSITIVE_RATIO_MEASURE(1.),#569);
#571=PROPERTY_DEFINITION_REPRESENTATION(#576,#573);
#572=PROPERTY_DEFINITION_REPRESENTATION(#577,#574);
#573=REPRESENTATION('material name',(#575),#982);
#574=REPRESENTATION('density',(#570),#982);
#575=DESCRIPTIVE_REPRESENTATION_ITEM('Generic','Generic');
#576=PROPERTY_DEFINITION('material property','material name',#996);
#577=PROPERTY_DEFINITION('material property','density of part',#996);
#578=DATE_TIME_ROLE('creation_date');
#579=APPLIED_DATE_AND_TIME_ASSIGNMENT(#580,#578,(#996));
#580=DATE_AND_TIME(#581,#582);
#581=CALENDAR_DATE(2026,4,1);
#582=LOCAL_TIME(0,0,0.,#583);
#583=COORDINATED_UNIVERSAL_TIME_OFFSET(0,0,.BEHIND.);
#584=AXIS2_PLACEMENT_3D('',#783,#633,#634);
#585=AXIS2_PLACEMENT_3D('',#784,#635,#636);
#586=AXIS2_PLACEMENT_3D('',#793,#641,#642);
#587=AXIS2_PLACEMENT_3D('',#831,#647,#648);
#588=AXIS2_PLACEMENT_3D('',#836,#652,#653);
#589=AXIS2_PLACEMENT_3D('',#840,#656,#657);
#590=AXIS2_PLACEMENT_3D('',#846,#661,#662);
#591=AXIS2_PLACEMENT_3D('',#852,#665,#666);
#592=AXIS2_PLACEMENT_3D('',#856,#668,#669);
#593=AXIS2_PLACEMENT_3D('',#868,#675,#676);
#594=AXIS2_PLACEMENT_3D('',#871,#678,#679);
#595=AXIS2_PLACEMENT_3D('',#873,#680,#681);
#596=AXIS2_PLACEMENT_3D('',#875,#682,#683);
#597=AXIS2_PLACEMENT_3D('',#877,#684,#685);
#598=AXIS2_PLACEMENT_3D('',#879,#686,#687);
#599=AXIS2_PLACEMENT_3D('',#881,#688,#689);
#600=AXIS2_PLACEMENT_3D('',#883,#690,#691);
#601=AXIS2_PLACEMENT_3D('',#905,#693,#694);
#602=AXIS2_PLACEMENT_3D('',#908,#696,#697);
#603=AXIS2_PLACEMENT_3D('',#909,#698,#699);
#604=AXIS2_PLACEMENT_3D('',#912,#701,#702);
#605=AXIS2_PLACEMENT_3D('',#913,#703,#704);
#606=AXIS2_PLACEMENT_3D('',#916,#706,#707);
#607=AXIS2_PLACEMENT_3D('',#917,#708,#709);
#608=AXIS2_PLACEMENT_3D('',#920,#711,#712);
#609=AXIS2_PLACEMENT_3D('',#921,#713,#714);
#610=AXIS2_PLACEMENT_3D('',#924,#716,#717);
#611=AXIS2_PLACEMENT_3D('',#925,#718,#719);
#612=AXIS2_PLACEMENT_3D('',#928,#721,#722);
#613=AXIS2_PLACEMENT_3D('',#929,#723,#724);
#614=AXIS2_PLACEMENT_3D('',#935,#728,#729);
#615=AXIS2_PLACEMENT_3D('',#939,#732,#733);
#616=AXIS2_PLACEMENT_3D('',#943,#736,#737);
#617=AXIS2_PLACEMENT_3D('',#947,#740,#741);
#618=AXIS2_PLACEMENT_3D('',#951,#744,#745);
#619=AXIS2_PLACEMENT_3D('',#953,#746,#747);
#620=AXIS2_PLACEMENT_3D('',#955,#749,#750);
#621=AXIS2_PLACEMENT_3D('',#959,#753,#754);
#622=AXIS2_PLACEMENT_3D('',#961,#755,#756);
#623=AXIS2_PLACEMENT_3D('',#963,#758,#759);
#624=AXIS2_PLACEMENT_3D('',#965,#761,#762);
#625=AXIS2_PLACEMENT_3D('',#967,#764,#765);
#626=AXIS2_PLACEMENT_3D('',#968,#766,#767);
#627=AXIS2_PLACEMENT_3D('',#970,#768,#769);
#628=AXIS2_PLACEMENT_3D('',#972,#771,#772);
#629=AXIS2_PLACEMENT_3D('',#976,#775,#776);
#630=AXIS2_PLACEMENT_3D('',#977,#777,#778);
#631=AXIS2_PLACEMENT_3D('',#978,#779,#780);
#632=AXIS2_PLACEMENT_3D('',#979,#781,#782);
#633=DIRECTION('axis',(0.,0.,1.));
#634=DIRECTION('refdir',(1.,0.,0.));
#635=DIRECTION('center_axis',(-0.617323516285857,0.60265436236553,0.505687053188295));
#636=DIRECTION('ref_axis',(-0.786709397579859,-0.472897249257449,-0.396807907436675));
#637=DIRECTION('',(0.,-0.642787609686539,0.766044443118978));
#638=DIRECTION('',(-0.786709397579859,-0.472897249257449,-0.396807907436675));
#639=DIRECTION('',(0.,-0.642787609686539,0.766044443118978));
#640=DIRECTION('',(-0.786709397579859,-0.472897249257449,-0.396807907436675));
#641=DIRECTION('center_axis',(1.,0.,0.));
#642=DIRECTION('ref_axis',(0.,0.,-1.));
#643=DIRECTION('',(-1.,0.,0.));
#644=DIRECTION('',(-1.,0.,0.));
#645=DIRECTION('',(0.,0.642787609686539,-0.766044443118978));
#646=DIRECTION('',(0.,0.,-1.));
#647=DIRECTION('center_axis',(0.,-0.642787609686539,0.766044443118979));
#648=DIRECTION('ref_axis',(1.,0.,0.));
#649=DIRECTION('',(1.,0.,0.));
#650=DIRECTION('',(-0.786709397597572,0.472897249240157,0.396807907422165));
#651=DIRECTION('',(-1.,0.,0.));
#652=DIRECTION('center_axis',(0.,-0.642787609686539,0.766044443118979));
#653=DIRECTION('ref_axis',(1.,0.,0.));
#654=DIRECTION('',(-1.,0.,0.));
#655=DIRECTION('',(-0.786709397597572,0.472897249240157,0.396807907422165));
#656=DIRECTION('center_axis',(0.617323516263284,0.786709397597572,0.));
#657=DIRECTION('ref_axis',(-0.786709397597572,0.617323516263284,0.));
#658=DIRECTION('',(-0.786709397597572,0.617323516263284,0.));
#659=DIRECTION('',(0.,0.,1.));
#660=DIRECTION('',(-0.786709397597572,0.617323516263284,0.));
#661=DIRECTION('center_axis',(0.,0.,1.));
#662=DIRECTION('ref_axis',(1.,0.,0.));
#663=DIRECTION('',(1.,0.,0.));
#664=DIRECTION('',(-0.786709397579859,-0.617323516285857,0.));
#665=DIRECTION('center_axis',(0.,0.,1.));
#666=DIRECTION('ref_axis',(-0.617323516285857,0.786709397579859,0.));
#667=DIRECTION('',(2.62257407391769E-15,-1.,0.));
#668=DIRECTION('center_axis',(0.,0.,1.));
#669=DIRECTION('ref_axis',(-1.,-2.56429465005285E-15,0.));
#670=DIRECTION('',(-3.33537625810167E-15,1.,0.));
#671=DIRECTION('',(0.707106781182397,0.707106781190698,0.));
#672=DIRECTION('',(1.,-2.93435839533574E-12,0.));
#673=DIRECTION('',(0.707106781186548,-0.707106781186547,0.));
#674=DIRECTION('',(3.44296904083558E-15,-1.,0.));
#675=DIRECTION('center_axis',(0.,0.,1.));
#676=DIRECTION('ref_axis',(-1.,-1.30545909457236E-14,0.));
#677=DIRECTION('',(-2.7974123455122E-15,1.,0.));
#678=DIRECTION('center_axis',(0.,0.,1.));
#679=DIRECTION('ref_axis',(1.,5.59482469102441E-15,0.));
#680=DIRECTION('center_axis',(0.,0.,-1.));
#681=DIRECTION('ref_axis',(-1.,0.,0.));
#682=DIRECTION('center_axis',(0.,0.,-1.));
#683=DIRECTION('ref_axis',(-1.,0.,0.));
#684=DIRECTION('center_axis',(0.,0.,-1.));
#685=DIRECTION('ref_axis',(-1.,0.,0.));
#686=DIRECTION('center_axis',(0.,0.,-1.));
#687=DIRECTION('ref_axis',(-1.,0.,0.));
#688=DIRECTION('center_axis',(0.,0.,-1.));
#689=DIRECTION('ref_axis',(-1.,0.,0.));
#690=DIRECTION('center_axis',(0.,0.,-1.));
#691=DIRECTION('ref_axis',(-1.,0.,0.));
#692=DIRECTION('',(0.,0.,1.));
#693=DIRECTION('center_axis',(0.,0.,1.));
#694=DIRECTION('ref_axis',(-1.,0.,0.));
#695=DIRECTION('',(0.,0.,-1.));
#696=DIRECTION('center_axis',(0.,0.,-1.));
#697=DIRECTION('ref_axis',(-1.,0.,0.));
#698=DIRECTION('center_axis',(0.,0.,1.));
#699=DIRECTION('ref_axis',(-1.,0.,0.));
#700=DIRECTION('',(0.,0.,-1.));
#701=DIRECTION('center_axis',(0.,0.,-1.));
#702=DIRECTION('ref_axis',(-1.,0.,0.));
#703=DIRECTION('center_axis',(0.,0.,1.));
#704=DIRECTION('ref_axis',(-1.,0.,0.));
#705=DIRECTION('',(0.,0.,-1.));
#706=DIRECTION('center_axis',(0.,0.,-1.));
#707=DIRECTION('ref_axis',(-1.,0.,0.));
#708=DIRECTION('center_axis',(0.,0.,1.));
#709=DIRECTION('ref_axis',(-1.,0.,0.));
#710=DIRECTION('',(0.,0.,-1.));
#711=DIRECTION('center_axis',(0.,0.,-1.));
#712=DIRECTION('ref_axis',(-1.,0.,0.));
#713=DIRECTION('center_axis',(0.,0.,1.));
#714=DIRECTION('ref_axis',(-1.,0.,0.));
#715=DIRECTION('',(0.,0.,-1.));
#716=DIRECTION('center_axis',(0.,0.,-1.));
#717=DIRECTION('ref_axis',(-1.,0.,0.));
#718=DIRECTION('center_axis',(0.,0.,1.));
#719=DIRECTION('ref_axis',(-1.,0.,0.));
#720=DIRECTION('',(0.,0.,-1.));
#721=DIRECTION('center_axis',(0.,0.,-1.));
#722=DIRECTION('ref_axis',(-1.,0.,0.));
#723=DIRECTION('center_axis',(-1.,-3.44296904083558E-15,0.));
#724=DIRECTION('ref_axis',(3.44296904083558E-15,-1.,0.));
#725=DIRECTION('',(3.44296904083558E-15,-1.,0.));
#726=DIRECTION('',(0.,0.,1.));
#727=DIRECTION('',(0.,0.,1.));
#728=DIRECTION('center_axis',(-0.707106781186547,-0.707106781186548,0.));
#729=DIRECTION('ref_axis',(0.707106781186548,-0.707106781186547,0.));
#730=DIRECTION('',(0.707106781186548,-0.707106781186547,0.));
#731=DIRECTION('',(0.,0.,1.));
#732=DIRECTION('center_axis',(-2.93435839533574E-12,-1.,0.));
#733=DIRECTION('ref_axis',(1.,-2.93435839533574E-12,0.));
#734=DIRECTION('',(1.,-2.93435839533574E-12,0.));
#735=DIRECTION('',(0.,0.,1.));
#736=DIRECTION('center_axis',(0.707106781190698,-0.707106781182397,0.));
#737=DIRECTION('ref_axis',(0.707106781182397,0.707106781190698,0.));
#738=DIRECTION('',(0.707106781182397,0.707106781190698,0.));
#739=DIRECTION('',(0.,0.,1.));
#740=DIRECTION('center_axis',(1.,3.33537625810167E-15,0.));
#741=DIRECTION('ref_axis',(-3.33537625810167E-15,1.,0.));
#742=DIRECTION('',(-3.33537625810167E-15,1.,0.));
#743=DIRECTION('',(0.,0.,1.));
#744=DIRECTION('center_axis',(0.,0.,1.));
#745=DIRECTION('ref_axis',(-1.,-2.56429465005285E-15,0.));
#746=DIRECTION('center_axis',(0.,0.,1.));
#747=DIRECTION('ref_axis',(-1.,-2.56429465005285E-15,0.));
#748=DIRECTION('',(0.,0.,1.));
#749=DIRECTION('center_axis',(-1.,-2.62257407391769E-15,0.));
#750=DIRECTION('ref_axis',(2.62257407391769E-15,-1.,0.));
#751=DIRECTION('',(2.62257407391769E-15,-1.,0.));
#752=DIRECTION('',(0.,0.,1.));
#753=DIRECTION('center_axis',(0.,0.,1.));
#754=DIRECTION('ref_axis',(-0.617323516285857,0.786709397579859,0.));
#755=DIRECTION('center_axis',(0.,0.,1.));
#756=DIRECTION('ref_axis',(-0.617323516285857,0.786709397579859,0.));
#757=DIRECTION('',(0.,0.,1.));
#758=DIRECTION('center_axis',(-0.617323516285857,0.786709397579859,0.));
#759=DIRECTION('ref_axis',(-0.786709397579859,-0.617323516285857,0.));
#760=DIRECTION('',(-0.786709397579859,-0.617323516285857,0.));
#761=DIRECTION('center_axis',(0.,0.766044443118979,0.642787609686539));
#762=DIRECTION('ref_axis',(-1.,0.,0.));
#763=DIRECTION('',(0.,-0.642787609686539,0.766044443118978));
#764=DIRECTION('center_axis',(0.617323516263284,0.602654362379099,0.50568705319968));
#765=DIRECTION('ref_axis',(-0.786709397597572,0.472897249240157,0.396807907422165));
#766=DIRECTION('center_axis',(0.,0.,1.));
#767=DIRECTION('ref_axis',(1.,5.59482469102441E-15,0.));
#768=DIRECTION('center_axis',(0.,0.,1.));
#769=DIRECTION('ref_axis',(1.,5.59482469102441E-15,0.));
#770=DIRECTION('',(0.,0.,1.));
#771=DIRECTION('center_axis',(1.,2.7974123455122E-15,0.));
#772=DIRECTION('ref_axis',(-2.7974123455122E-15,1.,0.));
#773=DIRECTION('',(-2.7974123455122E-15,1.,0.));
#774=DIRECTION('',(0.,0.,1.));
#775=DIRECTION('center_axis',(0.,0.,1.));
#776=DIRECTION('ref_axis',(-1.,-1.30545909457236E-14,0.));
#777=DIRECTION('center_axis',(0.,0.,1.));
#778=DIRECTION('ref_axis',(-1.,-1.30545909457236E-14,0.));
#779=DIRECTION('center_axis',(1.,0.,0.));
#780=DIRECTION('ref_axis',(0.,0.,-1.));
#781=DIRECTION('center_axis',(0.,0.,1.));
#782=DIRECTION('ref_axis',(1.,0.,0.));
#783=CARTESIAN_POINT('',(0.,0.,0.));
#784=CARTESIAN_POINT('Origin',(2.18749999997756,3.66741910823533,0.669081203180641));
#785=CARTESIAN_POINT('',(1.03492258529017,2.97459569639017,0.0877333338303832));
#786=CARTESIAN_POINT('',(1.03492258529017,2.89424724517936,0.183488889220255));
#787=CARTESIAN_POINT('',(1.03492258529017,2.97459569639017,0.0877333338303828));
#788=CARTESIAN_POINT('',(2.18749999997756,3.58707065702452,0.764836758570513));
#789=CARTESIAN_POINT('',(2.18749999997756,3.58707065702452,0.764836758570513));
#790=CARTESIAN_POINT('',(2.18749999997756,3.66741910823533,0.669081203180641));
#791=CARTESIAN_POINT('',(2.18749999997756,3.66741910823533,0.669081203180641));
#792=CARTESIAN_POINT('',(2.18749999997756,3.66741910823533,0.669081203180641));
#793=CARTESIAN_POINT('Origin',(2.56250000001817,2.73355034275772,0.375));
#794=CARTESIAN_POINT('',(4.09007741473304,2.97459569639017,0.0877333338303832));
#795=CARTESIAN_POINT('',(1.28124999999999,2.97459569639017,0.0877333338303835));
#796=CARTESIAN_POINT('',(4.31250000001817,2.73355034275772,0.));
#797=CARTESIAN_POINT('Ctrl Pts',(4.31250000001817,2.73355034275772,-5.59090388000308E-31));
#798=CARTESIAN_POINT('Ctrl Pts',(4.23835913825646,2.82081680535744,2.10776112461446E-17));
#799=CARTESIAN_POINT('Ctrl Pts',(4.16421827649475,2.90774570764501,0.0316395329301118));
#800=CARTESIAN_POINT('Ctrl Pts',(4.09007741473304,2.97459569639017,0.0877333338303834));
#801=CARTESIAN_POINT('',(0.812500000018175,2.73355034275772,0.));
#802=CARTESIAN_POINT('',(1.28124999999999,2.73355034275772,0.));
#803=CARTESIAN_POINT('Ctrl Pts',(1.03492258529017,2.97459569639017,0.0877333338303831));
#804=CARTESIAN_POINT('Ctrl Pts',(0.960781723532836,2.90774570764501,0.0316395329301116));
#805=CARTESIAN_POINT('Ctrl Pts',(0.886640861775505,2.82081680535744,-9.47040637803609E-17));
#806=CARTESIAN_POINT('Ctrl Pts',(0.812500000018175,2.73355034275772,-2.18547839493141E-17));
#807=CARTESIAN_POINT('Ctrl Pts',(4.31250000001818,2.73355034275772,0.));
#808=CARTESIAN_POINT('Ctrl Pts',(4.31250000001818,2.73355034275772,0.0416666666666667));
#809=CARTESIAN_POINT('Ctrl Pts',(4.31250000001818,2.73355034275772,0.0833333333333333));
#810=CARTESIAN_POINT('Ctrl Pts',(4.31250000001818,2.73355034275772,0.125));
#811=CARTESIAN_POINT('Ctrl Pts',(4.23835913825646,2.82081680535744,-1.55016377689273E-16));
#812=CARTESIAN_POINT('Ctrl Pts',(4.23835913825646,2.8111120007481,0.0416950575725982));
#813=CARTESIAN_POINT('Ctrl Pts',(4.23835913825646,2.80143278910021,0.0833049424274015));
#814=CARTESIAN_POINT('Ctrl Pts',(4.23835913825646,2.79172798449087,0.125));
#815=CARTESIAN_POINT('Ctrl Pts',(4.16421827649475,2.90774570764501,0.0316395329301116));
#816=CARTESIAN_POINT('Ctrl Pts',(4.16421827649475,2.88837895289472,0.0698179282464391));
#817=CARTESIAN_POINT('Ctrl Pts',(4.16421827649475,2.86904734076621,0.10791462663708));
#818=CARTESIAN_POINT('Ctrl Pts',(4.16421827649475,2.84968058601592,0.146093021953408));
#819=CARTESIAN_POINT('Ctrl Pts',(4.09007741473304,2.97459569639017,0.0877333338303834));
#820=CARTESIAN_POINT('Ctrl Pts',(4.09007741473304,2.9478128793199,0.119651852293674));
#821=CARTESIAN_POINT('Ctrl Pts',(4.09007741473304,2.92103006224963,0.151570370756965));
#822=CARTESIAN_POINT('Ctrl Pts',(4.09007741473304,2.89424724517936,0.183488889220256));
#823=CARTESIAN_POINT('',(4.09007741473304,2.89424724517936,0.183488889220255));
#824=CARTESIAN_POINT('',(4.09007741473304,2.97459569639017,0.0877333338303835));
#825=CARTESIAN_POINT('',(4.31250000001817,2.73355034275772,0.125));
#826=CARTESIAN_POINT('Ctrl Pts',(4.31250000001817,2.73355034275772,0.125));
#827=CARTESIAN_POINT('Ctrl Pts',(4.23835913825646,2.79172798449087,0.125));
#828=CARTESIAN_POINT('Ctrl Pts',(4.16421827649475,2.84968058601592,0.146093021953408));
#829=CARTESIAN_POINT('Ctrl Pts',(4.09007741473304,2.89424724517936,0.183488889220255));
#830=CARTESIAN_POINT('',(4.31250000001818,2.73355034275772,0.));
#831=CARTESIAN_POINT('Origin',(2.56249999999998,2.15073732617643,-0.440390009591747));
#832=CARTESIAN_POINT('',(1.28124999999999,2.89424724517936,0.183488889220256));
#833=CARTESIAN_POINT('',(2.93749999997756,3.58707065702452,0.764836758570513));
#834=CARTESIAN_POINT('',(4.74074815929931,2.50312390763429,-0.14470255905864));
#835=CARTESIAN_POINT('',(2.93749999997756,3.58707065702452,0.764836758570513));
#836=CARTESIAN_POINT('Origin',(2.56249999999998,2.23108577738725,-0.536145564981619));
#837=CARTESIAN_POINT('',(2.93749999997756,3.66741910823533,0.669081203180641));
#838=CARTESIAN_POINT('',(2.93749999997756,3.66741910823533,0.669081203180641));
#839=CARTESIAN_POINT('',(4.74074815929931,2.5834723588451,-0.240458114448512));
#840=CARTESIAN_POINT('Origin',(4.74074815929931,2.39750801209785,0.));
#841=CARTESIAN_POINT('',(4.74074815929931,2.39750801209785,0.125));
#842=CARTESIAN_POINT('',(4.74074815929931,2.39750801209785,0.125));
#843=CARTESIAN_POINT('',(4.74074815929931,2.39750801209785,0.));
#844=CARTESIAN_POINT('',(4.74074815929931,2.39750801209785,0.));
#845=CARTESIAN_POINT('',(4.74074815929931,2.39750801209785,0.));
#846=CARTESIAN_POINT('Origin',(2.56249999999998,1.93749999999989,0.125));
#847=CARTESIAN_POINT('',(0.812500000018175,2.73355034275772,0.125));
#848=CARTESIAN_POINT('',(1.28124999999999,2.73355034275772,0.125));
#849=CARTESIAN_POINT('',(0.384251840696399,2.39750801204611,0.125));
#850=CARTESIAN_POINT('',(2.18749999997756,3.81249999999989,0.125));
#851=CARTESIAN_POINT('',(0.312499999999998,2.24999999999989,0.125));
#852=CARTESIAN_POINT('Origin',(0.499999999999998,2.24999999999989,0.125));
#853=CARTESIAN_POINT('',(0.312500000000003,0.249999999999885,0.125));
#854=CARTESIAN_POINT('',(0.312499999999998,2.24999999999989,0.125));
#855=CARTESIAN_POINT('',(0.687500000000003,0.249999999999886,0.125));
#856=CARTESIAN_POINT('Origin',(0.500000000000003,0.249999999999886,0.125));
#857=CARTESIAN_POINT('',(0.6875,1.06250000000209,0.125));
#858=CARTESIAN_POINT('',(0.687500000000003,0.249999999999886,0.125));
#859=CARTESIAN_POINT('',(1.1875,1.56250000000796,0.125));
#860=CARTESIAN_POINT('',(0.6875,1.06250000000209,0.125));
#861=CARTESIAN_POINT('',(3.93749999999995,1.56249999999989,0.125));
#862=CARTESIAN_POINT('',(1.1875,1.56250000000796,0.125));
#863=CARTESIAN_POINT('',(4.43749999999995,1.06249999999989,0.125));
#864=CARTESIAN_POINT('',(3.93749999999995,1.56249999999989,0.125));
#865=CARTESIAN_POINT('',(4.43749999999995,0.250000000048305,0.125));
#866=CARTESIAN_POINT('',(4.43749999999995,1.06249999999989,0.125));
#867=CARTESIAN_POINT('',(4.81249999999995,0.250000000048305,0.125));
#868=CARTESIAN_POINT('Origin',(4.62499999999995,0.250000000048307,0.125));
#869=CARTESIAN_POINT('',(4.81249999999995,2.25000000004831,0.125));
#870=CARTESIAN_POINT('',(4.81249999999995,0.250000000048305,0.125));
#871=CARTESIAN_POINT('Origin',(4.62499999999995,2.25000000004831,0.125));
#872=CARTESIAN_POINT('',(0.586000000000003,0.249999999999886,0.125));
#873=CARTESIAN_POINT('Origin',(0.500000000000003,0.249999999999886,0.125));
#874=CARTESIAN_POINT('',(4.71099999999995,0.250000000048307,0.125));
#875=CARTESIAN_POINT('Origin',(4.62499999999995,0.250000000048307,0.125));
#876=CARTESIAN_POINT('',(0.585999999999999,1.74999999999989,0.125));
#877=CARTESIAN_POINT('Origin',(0.499999999999999,1.74999999999989,0.125));
#878=CARTESIAN_POINT('',(0.585999999999997,2.24999999999989,0.125));
#879=CARTESIAN_POINT('Origin',(0.499999999999998,2.24999999999989,0.125));
#880=CARTESIAN_POINT('',(4.71099999999995,1.75000000004831,0.125));
#881=CARTESIAN_POINT('Origin',(4.62499999999995,1.75000000004831,0.125));
#882=CARTESIAN_POINT('',(4.71099999999995,2.25000000004831,0.125));
#883=CARTESIAN_POINT('Origin',(4.62499999999995,2.25000000004831,0.125));
#884=CARTESIAN_POINT('Ctrl Pts',(1.03492258529017,2.97459569639017,0.0877333338303831));
#885=CARTESIAN_POINT('Ctrl Pts',(1.03492258529017,2.9478128793199,0.119651852293674));
#886=CARTESIAN_POINT('Ctrl Pts',(1.03492258529017,2.92103006224963,0.151570370756965));
#887=CARTESIAN_POINT('Ctrl Pts',(1.03492258529017,2.89424724517936,0.183488889220255));
#888=CARTESIAN_POINT('Ctrl Pts',(0.960781723532836,2.90774570764501,0.0316395329301114));
#889=CARTESIAN_POINT('Ctrl Pts',(0.960781723532836,2.88837895289472,0.0698179282464389));
#890=CARTESIAN_POINT('Ctrl Pts',(0.960781723532836,2.86904734076621,0.10791462663708));
#891=CARTESIAN_POINT('Ctrl Pts',(0.960781723532836,2.84968058601591,0.146093021953408));
#892=CARTESIAN_POINT('Ctrl Pts',(0.886640861775505,2.82081680535744,-3.10032755378546E-16));
#893=CARTESIAN_POINT('Ctrl Pts',(0.886640861775505,2.8111120007481,0.041695057572598));
#894=CARTESIAN_POINT('Ctrl Pts',(0.886640861775505,2.80143278910021,0.0833049424274015));
#895=CARTESIAN_POINT('Ctrl Pts',(0.886640861775505,2.79172798449087,0.125));
#896=CARTESIAN_POINT('Ctrl Pts',(0.812500000018174,2.73355034275772,0.));
#897=CARTESIAN_POINT('Ctrl Pts',(0.812500000018174,2.73355034275772,0.0416666666666667));
#898=CARTESIAN_POINT('Ctrl Pts',(0.812500000018174,2.73355034275772,0.0833333333333333));
#899=CARTESIAN_POINT('Ctrl Pts',(0.812500000018174,2.73355034275772,0.125));
#900=CARTESIAN_POINT('',(0.812500000018175,2.73355034275772,0.));
#901=CARTESIAN_POINT('Ctrl Pts',(1.03492258529017,2.89424724517936,0.183488889220255));
#902=CARTESIAN_POINT('Ctrl Pts',(0.960781723532836,2.84968058601591,0.146093021953408));
#903=CARTESIAN_POINT('Ctrl Pts',(0.886640861775505,2.79172798449087,0.125));
#904=CARTESIAN_POINT('Ctrl Pts',(0.812500000018175,2.73355034275772,0.125));
#905=CARTESIAN_POINT('Origin',(0.500000000000003,0.249999999999886,0.));
#906=CARTESIAN_POINT('',(0.586000000000003,0.249999999999886,0.));
#907=CARTESIAN_POINT('',(0.586000000000003,0.249999999999886,0.));
#908=CARTESIAN_POINT('Origin',(0.500000000000003,0.249999999999886,0.));
#909=CARTESIAN_POINT('Origin',(4.62499999999995,0.250000000048307,0.));
#910=CARTESIAN_POINT('',(4.71099999999995,0.250000000048307,0.));
#911=CARTESIAN_POINT('',(4.71099999999995,0.250000000048307,0.));
#912=CARTESIAN_POINT('Origin',(4.62499999999995,0.250000000048307,0.));
#913=CARTESIAN_POINT('Origin',(0.499999999999999,1.74999999999989,0.));
#914=CARTESIAN_POINT('',(0.585999999999999,1.74999999999989,0.));
#915=CARTESIAN_POINT('',(0.585999999999999,1.74999999999989,0.));
#916=CARTESIAN_POINT('Origin',(0.499999999999999,1.74999999999989,0.));
#917=CARTESIAN_POINT('Origin',(0.499999999999998,2.24999999999989,0.));
#918=CARTESIAN_POINT('',(0.585999999999998,2.24999999999989,0.));
#919=CARTESIAN_POINT('',(0.585999999999998,2.24999999999989,0.));
#920=CARTESIAN_POINT('Origin',(0.499999999999998,2.24999999999989,0.));
#921=CARTESIAN_POINT('Origin',(4.62499999999995,1.75000000004831,0.));
#922=CARTESIAN_POINT('',(4.71099999999995,1.75000000004831,0.));
#923=CARTESIAN_POINT('',(4.71099999999995,1.75000000004831,0.));
#924=CARTESIAN_POINT('Origin',(4.62499999999995,1.75000000004831,0.));
#925=CARTESIAN_POINT('Origin',(4.62499999999995,2.25000000004831,0.));
#926=CARTESIAN_POINT('',(4.71099999999995,2.25000000004831,0.));
#927=CARTESIAN_POINT('',(4.71099999999995,2.25000000004831,0.));
#928=CARTESIAN_POINT('Origin',(4.62499999999995,2.25000000004831,0.));
#929=CARTESIAN_POINT('Origin',(4.43749999999995,1.06249999999989,0.));
#930=CARTESIAN_POINT('',(4.43749999999995,1.06249999999989,0.));
#931=CARTESIAN_POINT('',(4.43749999999995,0.250000000048305,0.));
#932=CARTESIAN_POINT('',(4.43749999999995,1.06249999999989,0.));
#933=CARTESIAN_POINT('',(4.43749999999995,0.250000000048305,0.));
#934=CARTESIAN_POINT('',(4.43749999999995,1.06249999999989,0.));
#935=CARTESIAN_POINT('Origin',(3.93749999999995,1.56249999999989,0.));
#936=CARTESIAN_POINT('',(3.93749999999995,1.56249999999989,0.));
#937=CARTESIAN_POINT('',(3.93749999999995,1.56249999999989,0.));
#938=CARTESIAN_POINT('',(3.93749999999995,1.56249999999989,0.));
#939=CARTESIAN_POINT('Origin',(1.1875,1.56250000000796,0.));
#940=CARTESIAN_POINT('',(1.1875,1.56250000000796,0.));
#941=CARTESIAN_POINT('',(1.1875,1.56250000000796,0.));
#942=CARTESIAN_POINT('',(1.1875,1.56250000000796,0.));
#943=CARTESIAN_POINT('Origin',(0.6875,1.06250000000209,0.));
#944=CARTESIAN_POINT('',(0.6875,1.06250000000209,0.));
#945=CARTESIAN_POINT('',(0.6875,1.06250000000209,0.));
#946=CARTESIAN_POINT('',(0.6875,1.06250000000209,0.));
#947=CARTESIAN_POINT('Origin',(0.687500000000003,0.249999999999886,0.));
#948=CARTESIAN_POINT('',(0.687500000000003,0.249999999999886,0.));
#949=CARTESIAN_POINT('',(0.687500000000003,0.249999999999886,0.));
#950=CARTESIAN_POINT('',(0.687500000000003,0.249999999999886,0.));
#951=CARTESIAN_POINT('Origin',(0.500000000000003,0.249999999999886,0.));
#952=CARTESIAN_POINT('',(0.312500000000003,0.249999999999885,0.));
#953=CARTESIAN_POINT('Origin',(0.500000000000003,0.249999999999886,0.));
#954=CARTESIAN_POINT('',(0.312500000000003,0.249999999999885,0.));
#955=CARTESIAN_POINT('Origin',(0.312499999999998,2.24999999999989,0.));
#956=CARTESIAN_POINT('',(0.312499999999998,2.24999999999989,0.));
#957=CARTESIAN_POINT('',(0.312499999999998,2.24999999999989,0.));
#958=CARTESIAN_POINT('',(0.312499999999998,2.24999999999989,0.));
#959=CARTESIAN_POINT('Origin',(0.499999999999998,2.24999999999989,0.));
#960=CARTESIAN_POINT('',(0.3842518406964,2.39750801204611,0.));
#961=CARTESIAN_POINT('Origin',(0.499999999999998,2.24999999999989,0.));
#962=CARTESIAN_POINT('',(0.3842518406964,2.39750801204611,0.));
#963=CARTESIAN_POINT('Origin',(2.18749999997756,3.81249999999989,0.));
#964=CARTESIAN_POINT('',(2.18749999997756,3.81249999999989,0.));
#965=CARTESIAN_POINT('Origin',(2.93749999997756,3.66741910823533,0.669081203180641));
#966=CARTESIAN_POINT('',(2.93749999997756,3.66741910823533,0.669081203180641));
#967=CARTESIAN_POINT('Origin',(4.74074815929931,2.5834723588451,-0.240458114448512));
#968=CARTESIAN_POINT('Origin',(4.62499999999995,2.25000000004831,0.));
#969=CARTESIAN_POINT('',(4.81249999999995,2.25000000004831,0.));
#970=CARTESIAN_POINT('Origin',(4.62499999999995,2.25000000004831,0.));
#971=CARTESIAN_POINT('',(4.81249999999995,2.25000000004831,0.));
#972=CARTESIAN_POINT('Origin',(4.81249999999995,0.250000000048305,0.));
#973=CARTESIAN_POINT('',(4.81249999999995,0.250000000048305,0.));
#974=CARTESIAN_POINT('',(4.81249999999995,0.250000000048305,0.));
#975=CARTESIAN_POINT('',(4.81249999999995,0.250000000048305,0.));
#976=CARTESIAN_POINT('Origin',(4.62499999999995,0.250000000048307,0.));
#977=CARTESIAN_POINT('Origin',(4.62499999999995,0.250000000048307,0.));
#978=CARTESIAN_POINT('Origin',(2.56250000001817,2.73355034275772,0.375));
#979=CARTESIAN_POINT('Origin',(2.56249999999998,1.93749999999989,0.));
#980=UNCERTAINTY_MEASURE_WITH_UNIT(LENGTH_MEASURE(0.000393700787401575),
#986,'DISTANCE_ACCURACY_VALUE',
'Maximum model space distance between geometric entities at asserted c
onnectivities');
#981=UNCERTAINTY_MEASURE_WITH_UNIT(LENGTH_MEASURE(0.000393700787401575),
#986,'DISTANCE_ACCURACY_VALUE',
'Maximum model space distance between geometric entities at asserted c
onnectivities');
#982=(
GEOMETRIC_REPRESENTATION_CONTEXT(3)
GLOBAL_UNCERTAINTY_ASSIGNED_CONTEXT((#980))
GLOBAL_UNIT_ASSIGNED_CONTEXT((#986,#990,#991))
REPRESENTATION_CONTEXT('','3D')
);
#983=(
GEOMETRIC_REPRESENTATION_CONTEXT(3)
GLOBAL_UNCERTAINTY_ASSIGNED_CONTEXT((#981))
GLOBAL_UNIT_ASSIGNED_CONTEXT((#986,#990,#991))
REPRESENTATION_CONTEXT('','3D')
);
#984=DIMENSIONAL_EXPONENTS(1.,0.,0.,0.,0.,0.,0.);
#985=DIMENSIONAL_EXPONENTS(0.,1.,0.,0.,0.,0.,0.);
#986=(
CONVERSION_BASED_UNIT('inch',#989)
LENGTH_UNIT()
NAMED_UNIT(#984)
);
#987=(
LENGTH_UNIT()
NAMED_UNIT(*)
SI_UNIT(.MILLI.,.METRE.)
);
#988=(
LENGTH_UNIT()
NAMED_UNIT(*)
SI_UNIT(.CENTI.,.METRE.)
);
#989=LENGTH_MEASURE_WITH_UNIT(LENGTH_MEASURE(25.4),#987);
#990=(
NAMED_UNIT(*)
PLANE_ANGLE_UNIT()
SI_UNIT($,.RADIAN.)
);
#991=(
NAMED_UNIT(*)
SI_UNIT($,.STERADIAN.)
SOLID_ANGLE_UNIT()
);
#992=SHAPE_DEFINITION_REPRESENTATION(#993,#994);
#993=PRODUCT_DEFINITION_SHAPE('',$,#996);
#994=SHAPE_REPRESENTATION('',(#584),#982);
#995=PRODUCT_DEFINITION_CONTEXT('part definition',#1000,'design');
#996=PRODUCT_DEFINITION('hood','hood',#997,#995);
#997=PRODUCT_DEFINITION_FORMATION('',$,#1002);
#998=PRODUCT_RELATED_PRODUCT_CATEGORY('hood','hood',(#1002));
#999=APPLICATION_PROTOCOL_DEFINITION('international standard',
'automotive_design',2009,#1000);
#1000=APPLICATION_CONTEXT(
'Core Data for Automotive Mechanical Design Process');
#1001=PRODUCT_CONTEXT('part definition',#1000,'mechanical');
#1002=PRODUCT('hood','hood',$,(#1001));
#1003=PRESENTATION_STYLE_ASSIGNMENT((#1004));
#1004=SURFACE_STYLE_USAGE(.BOTH.,#1007);
#1005=SURFACE_STYLE_RENDERING_WITH_PROPERTIES($,#1011,(#1006));
#1006=SURFACE_STYLE_TRANSPARENT(0.);
#1007=SURFACE_SIDE_STYLE('',(#1008,#1005));
#1008=SURFACE_STYLE_FILL_AREA(#1009);
#1009=FILL_AREA_STYLE('',(#1010));
#1010=FILL_AREA_STYLE_COLOUR('',#1011);
#1011=COLOUR_RGB('',0.749019607843137,0.749019607843137,0.749019607843137);
ENDSEC;
END-ISO-10303-21;
