ISO-10303-21;
HEADER;
/* Generated by software containing ST-Developer
 * from STEP Tools, Inc. (www.steptools.com) 
 */

FILE_DESCRIPTION(
/* description */ (''),
/* implementation_level */ '2;1');

FILE_NAME(
/* name */ 'insert.stp',
/* time_stamp */ '2026-01-16T10:37:17+13:00',
/* author */ ('cloudy'),
/* organization */ (''),
/* preprocessor_version */ 'ST-DEVELOPER v20',
/* originating_system */ 'Autodesk Inventor 2025',
/* authorisation */ '');

FILE_SCHEMA (('AUTOMOTIVE_DESIGN { 1 0 10303 214 3 1 1 }'));
ENDSEC;

DATA;
#10=MECHANICAL_DESIGN_GEOMETRIC_PRESENTATION_REPRESENTATION('',(#13),#1082);
#11=SHAPE_REPRESENTATION_RELATIONSHIP('SRR','None',#1093,#12);
#12=ADVANCED_BREP_SHAPE_REPRESENTATION('',(#14),#1081);
#13=STYLED_ITEM('',(#1102),#14);
#14=MANIFOLD_SOLID_BREP('Solid1',#626);
#15=FACE_BOUND('',#118,.T.);
#16=FACE_BOUND('',#130,.T.);
#17=FACE_BOUND('',#137,.T.);
#18=CYLINDRICAL_SURFACE('',#672,0.02);
#19=CYLINDRICAL_SURFACE('',#675,0.02);
#20=CYLINDRICAL_SURFACE('',#678,0.02);
#21=CYLINDRICAL_SURFACE('',#684,0.0200000000000001);
#22=CYLINDRICAL_SURFACE('',#688,0.02);
#23=CYLINDRICAL_SURFACE('',#692,0.0200000000000001);
#24=CYLINDRICAL_SURFACE('',#696,0.02);
#25=CYLINDRICAL_SURFACE('',#699,0.02);
#26=CYLINDRICAL_SURFACE('',#705,0.02);
#27=CYLINDRICAL_SURFACE('',#707,0.02);
#28=CYLINDRICAL_SURFACE('',#709,0.375);
#29=CIRCLE('',#650,0.02);
#30=CIRCLE('',#651,0.035625);
#31=CIRCLE('',#654,0.02);
#32=CIRCLE('',#655,0.035625);
#33=CIRCLE('',#658,0.02);
#34=CIRCLE('',#659,0.035625);
#35=CIRCLE('',#662,0.02);
#36=CIRCLE('',#663,0.035625);
#37=CIRCLE('',#666,0.02);
#38=CIRCLE('',#667,0.035625);
#39=CIRCLE('',#670,0.02);
#40=CIRCLE('',#671,0.035625);
#41=CIRCLE('',#673,0.02);
#42=CIRCLE('',#676,0.02);
#43=CIRCLE('',#679,0.02);
#44=CIRCLE('',#682,0.375);
#45=CIRCLE('',#685,0.0200000000000001);
#46=CIRCLE('',#686,0.0200000000000001);
#47=CIRCLE('',#689,0.02);
#48=CIRCLE('',#690,0.02);
#49=CIRCLE('',#693,0.0200000000000001);
#50=CIRCLE('',#694,0.0200000000000001);
#51=CIRCLE('',#697,0.02);
#52=CIRCLE('',#698,0.02);
#53=CIRCLE('',#700,0.02);
#54=CIRCLE('',#703,0.02);
#55=CIRCLE('',#704,0.02);
#56=CIRCLE('',#710,0.375);
#57=CONICAL_SURFACE('',#649,0.0278125,0.785398163397449);
#58=CONICAL_SURFACE('',#653,0.0278125,0.785398163397449);
#59=CONICAL_SURFACE('',#657,0.0278125,0.785398163397448);
#60=CONICAL_SURFACE('',#661,0.0278125,0.785398163397449);
#61=CONICAL_SURFACE('',#665,0.0278125,0.785398163397449);
#62=CONICAL_SURFACE('',#669,0.0278125,0.785398163397448);
#63=FACE_OUTER_BOUND('',#99,.T.);
#64=FACE_OUTER_BOUND('',#100,.T.);
#65=FACE_OUTER_BOUND('',#101,.T.);
#66=FACE_OUTER_BOUND('',#102,.T.);
#67=FACE_OUTER_BOUND('',#103,.T.);
#68=FACE_OUTER_BOUND('',#104,.T.);
#69=FACE_OUTER_BOUND('',#105,.T.);
#70=FACE_OUTER_BOUND('',#106,.T.);
#71=FACE_OUTER_BOUND('',#107,.T.);
#72=FACE_OUTER_BOUND('',#108,.T.);
#73=FACE_OUTER_BOUND('',#109,.T.);
#74=FACE_OUTER_BOUND('',#110,.T.);
#75=FACE_OUTER_BOUND('',#111,.T.);
#76=FACE_OUTER_BOUND('',#112,.T.);
#77=FACE_OUTER_BOUND('',#113,.T.);
#78=FACE_OUTER_BOUND('',#114,.T.);
#79=FACE_OUTER_BOUND('',#115,.T.);
#80=FACE_OUTER_BOUND('',#116,.T.);
#81=FACE_OUTER_BOUND('',#117,.T.);
#82=FACE_OUTER_BOUND('',#119,.T.);
#83=FACE_OUTER_BOUND('',#120,.T.);
#84=FACE_OUTER_BOUND('',#121,.T.);
#85=FACE_OUTER_BOUND('',#122,.T.);
#86=FACE_OUTER_BOUND('',#123,.T.);
#87=FACE_OUTER_BOUND('',#124,.T.);
#88=FACE_OUTER_BOUND('',#125,.T.);
#89=FACE_OUTER_BOUND('',#126,.T.);
#90=FACE_OUTER_BOUND('',#127,.T.);
#91=FACE_OUTER_BOUND('',#128,.T.);
#92=FACE_OUTER_BOUND('',#129,.T.);
#93=FACE_OUTER_BOUND('',#131,.T.);
#94=FACE_OUTER_BOUND('',#132,.T.);
#95=FACE_OUTER_BOUND('',#133,.T.);
#96=FACE_OUTER_BOUND('',#134,.T.);
#97=FACE_OUTER_BOUND('',#135,.T.);
#98=FACE_OUTER_BOUND('',#136,.T.);
#99=EDGE_LOOP('',(#397,#398,#399,#400));
#100=EDGE_LOOP('',(#401,#402,#403,#404));
#101=EDGE_LOOP('',(#405,#406,#407,#408));
#102=EDGE_LOOP('',(#409,#410,#411,#412));
#103=EDGE_LOOP('',(#413,#414,#415,#416));
#104=EDGE_LOOP('',(#417,#418,#419,#420));
#105=EDGE_LOOP('',(#421,#422,#423,#424));
#106=EDGE_LOOP('',(#425,#426,#427,#428));
#107=EDGE_LOOP('',(#429,#430,#431,#432));
#108=EDGE_LOOP('',(#433,#434,#435,#436));
#109=EDGE_LOOP('',(#437,#438,#439,#440));
#110=EDGE_LOOP('',(#441,#442,#443,#444));
#111=EDGE_LOOP('',(#445,#446,#447,#448));
#112=EDGE_LOOP('',(#449,#450,#451,#452));
#113=EDGE_LOOP('',(#453,#454,#455,#456));
#114=EDGE_LOOP('',(#457,#458,#459,#460));
#115=EDGE_LOOP('',(#461,#462,#463,#464));
#116=EDGE_LOOP('',(#465,#466,#467,#468));
#117=EDGE_LOOP('',(#469));
#118=EDGE_LOOP('',(#470,#471,#472,#473,#474,#475,#476,#477,#478,#479,#480,
#481));
#119=EDGE_LOOP('',(#482,#483,#484,#485));
#120=EDGE_LOOP('',(#486,#487,#488,#489));
#121=EDGE_LOOP('',(#490,#491,#492,#493));
#122=EDGE_LOOP('',(#494,#495,#496,#497));
#123=EDGE_LOOP('',(#498,#499,#500,#501));
#124=EDGE_LOOP('',(#502,#503,#504,#505));
#125=EDGE_LOOP('',(#506,#507,#508,#509));
#126=EDGE_LOOP('',(#510,#511,#512,#513));
#127=EDGE_LOOP('',(#514,#515,#516,#517));
#128=EDGE_LOOP('',(#518,#519,#520,#521));
#129=EDGE_LOOP('',(#522,#523,#524,#525,#526,#527,#528,#529,#530,#531,#532,
#533));
#130=EDGE_LOOP('',(#534,#535,#536,#537,#538,#539,#540,#541));
#131=EDGE_LOOP('',(#542,#543,#544,#545));
#132=EDGE_LOOP('',(#546,#547,#548,#549));
#133=EDGE_LOOP('',(#550,#551,#552,#553));
#134=EDGE_LOOP('',(#554,#555,#556,#557));
#135=EDGE_LOOP('',(#558,#559,#560,#561));
#136=EDGE_LOOP('',(#562));
#137=EDGE_LOOP('',(#563,#564,#565,#566,#567,#568,#569,#570));
#138=LINE('',#905,#197);
#139=LINE('',#907,#198);
#140=LINE('',#909,#199);
#141=LINE('',#910,#200);
#142=LINE('',#915,#201);
#143=LINE('',#920,#202);
#144=LINE('',#921,#203);
#145=LINE('',#922,#204);
#146=LINE('',#927,#205);
#147=LINE('',#932,#206);
#148=LINE('',#933,#207);
#149=LINE('',#934,#208);
#150=LINE('',#939,#209);
#151=LINE('',#944,#210);
#152=LINE('',#945,#211);
#153=LINE('',#946,#212);
#154=LINE('',#951,#213);
#155=LINE('',#956,#214);
#156=LINE('',#957,#215);
#157=LINE('',#958,#216);
#158=LINE('',#963,#217);
#159=LINE('',#968,#218);
#160=LINE('',#969,#219);
#161=LINE('',#970,#220);
#162=LINE('',#976,#221);
#163=LINE('',#979,#222);
#164=LINE('',#982,#223);
#165=LINE('',#983,#224);
#166=LINE('',#986,#225);
#167=LINE('',#990,#226);
#168=LINE('',#991,#227);
#169=LINE('',#994,#228);
#170=LINE('',#998,#229);
#171=LINE('',#999,#230);
#172=LINE('',#1006,#231);
#173=LINE('',#1008,#232);
#174=LINE('',#1010,#233);
#175=LINE('',#1011,#234);
#176=LINE('',#1017,#235);
#177=LINE('',#1020,#236);
#178=LINE('',#1022,#237);
#179=LINE('',#1023,#238);
#180=LINE('',#1029,#239);
#181=LINE('',#1032,#240);
#182=LINE('',#1034,#241);
#183=LINE('',#1035,#242);
#184=LINE('',#1041,#243);
#185=LINE('',#1044,#244);
#186=LINE('',#1046,#245);
#187=LINE('',#1047,#246);
#188=LINE('',#1053,#247);
#189=LINE('',#1056,#248);
#190=LINE('',#1059,#249);
#191=LINE('',#1060,#250);
#192=LINE('',#1063,#251);
#193=LINE('',#1066,#252);
#194=LINE('',#1069,#253);
#195=LINE('',#1070,#254);
#196=LINE('',#1076,#255);
#197=VECTOR('',#716,0.393700787401575);
#198=VECTOR('',#717,0.393700787401575);
#199=VECTOR('',#718,0.393700787401575);
#200=VECTOR('',#719,0.393700787401575);
#201=VECTOR('',#724,0.393700787401575);
#202=VECTOR('',#729,0.393700787401575);
#203=VECTOR('',#730,0.393700787401575);
#204=VECTOR('',#731,0.393700787401575);
#205=VECTOR('',#736,0.393700787401575);
#206=VECTOR('',#741,0.393700787401575);
#207=VECTOR('',#742,0.393700787401575);
#208=VECTOR('',#743,0.393700787401575);
#209=VECTOR('',#748,0.393700787401575);
#210=VECTOR('',#753,0.393700787401575);
#211=VECTOR('',#754,0.393700787401575);
#212=VECTOR('',#755,0.393700787401575);
#213=VECTOR('',#760,0.393700787401575);
#214=VECTOR('',#765,0.393700787401575);
#215=VECTOR('',#766,0.393700787401575);
#216=VECTOR('',#767,0.393700787401575);
#217=VECTOR('',#772,0.393700787401575);
#218=VECTOR('',#777,0.393700787401575);
#219=VECTOR('',#778,0.393700787401575);
#220=VECTOR('',#779,0.393700787401575);
#221=VECTOR('',#788,0.393700787401575);
#222=VECTOR('',#791,0.393700787401575);
#223=VECTOR('',#794,0.393700787401575);
#224=VECTOR('',#795,0.393700787401575);
#225=VECTOR('',#798,0.393700787401575);
#226=VECTOR('',#803,0.393700787401575);
#227=VECTOR('',#804,0.393700787401575);
#228=VECTOR('',#807,0.393700787401575);
#229=VECTOR('',#812,0.393700787401575);
#230=VECTOR('',#813,0.393700787401575);
#231=VECTOR('',#820,0.393700787401575);
#232=VECTOR('',#821,0.393700787401575);
#233=VECTOR('',#822,0.393700787401575);
#234=VECTOR('',#823,0.393700787401575);
#235=VECTOR('',#830,0.393700787401575);
#236=VECTOR('',#833,0.393700787401575);
#237=VECTOR('',#834,0.393700787401575);
#238=VECTOR('',#835,0.393700787401575);
#239=VECTOR('',#842,0.393700787401575);
#240=VECTOR('',#845,0.393700787401575);
#241=VECTOR('',#846,0.393700787401575);
#242=VECTOR('',#847,0.393700787401575);
#243=VECTOR('',#854,0.393700787401575);
#244=VECTOR('',#857,0.393700787401575);
#245=VECTOR('',#858,0.393700787401575);
#246=VECTOR('',#859,0.393700787401575);
#247=VECTOR('',#868,0.393700787401575);
#248=VECTOR('',#871,0.393700787401575);
#249=VECTOR('',#874,0.393700787401575);
#250=VECTOR('',#875,0.393700787401575);
#251=VECTOR('',#878,0.393700787401575);
#252=VECTOR('',#881,0.393700787401575);
#253=VECTOR('',#886,0.393700787401575);
#254=VECTOR('',#887,0.393700787401575);
#255=VECTOR('',#896,0.375);
#256=VERTEX_POINT('',#903);
#257=VERTEX_POINT('',#904);
#258=VERTEX_POINT('',#906);
#259=VERTEX_POINT('',#908);
#260=VERTEX_POINT('',#912);
#261=VERTEX_POINT('',#914);
#262=VERTEX_POINT('',#918);
#263=VERTEX_POINT('',#919);
#264=VERTEX_POINT('',#924);
#265=VERTEX_POINT('',#926);
#266=VERTEX_POINT('',#930);
#267=VERTEX_POINT('',#931);
#268=VERTEX_POINT('',#936);
#269=VERTEX_POINT('',#938);
#270=VERTEX_POINT('',#942);
#271=VERTEX_POINT('',#943);
#272=VERTEX_POINT('',#948);
#273=VERTEX_POINT('',#950);
#274=VERTEX_POINT('',#954);
#275=VERTEX_POINT('',#955);
#276=VERTEX_POINT('',#960);
#277=VERTEX_POINT('',#962);
#278=VERTEX_POINT('',#966);
#279=VERTEX_POINT('',#967);
#280=VERTEX_POINT('',#975);
#281=VERTEX_POINT('',#977);
#282=VERTEX_POINT('',#981);
#283=VERTEX_POINT('',#985);
#284=VERTEX_POINT('',#989);
#285=VERTEX_POINT('',#993);
#286=VERTEX_POINT('',#997);
#287=VERTEX_POINT('',#1001);
#288=VERTEX_POINT('',#1004);
#289=VERTEX_POINT('',#1005);
#290=VERTEX_POINT('',#1007);
#291=VERTEX_POINT('',#1009);
#292=VERTEX_POINT('',#1013);
#293=VERTEX_POINT('',#1015);
#294=VERTEX_POINT('',#1019);
#295=VERTEX_POINT('',#1021);
#296=VERTEX_POINT('',#1025);
#297=VERTEX_POINT('',#1027);
#298=VERTEX_POINT('',#1031);
#299=VERTEX_POINT('',#1033);
#300=VERTEX_POINT('',#1037);
#301=VERTEX_POINT('',#1039);
#302=VERTEX_POINT('',#1043);
#303=VERTEX_POINT('',#1045);
#304=VERTEX_POINT('',#1052);
#305=VERTEX_POINT('',#1054);
#306=VERTEX_POINT('',#1058);
#307=VERTEX_POINT('',#1062);
#308=VERTEX_POINT('',#1064);
#309=VERTEX_POINT('',#1075);
#310=EDGE_CURVE('',#256,#257,#138,.T.);
#311=EDGE_CURVE('',#257,#258,#139,.T.);
#312=EDGE_CURVE('',#258,#259,#140,.T.);
#313=EDGE_CURVE('',#259,#256,#141,.T.);
#314=EDGE_CURVE('',#256,#260,#29,.T.);
#315=EDGE_CURVE('',#260,#261,#142,.T.);
#316=EDGE_CURVE('',#261,#257,#30,.T.);
#317=EDGE_CURVE('',#262,#263,#143,.T.);
#318=EDGE_CURVE('',#263,#261,#144,.T.);
#319=EDGE_CURVE('',#260,#262,#145,.T.);
#320=EDGE_CURVE('',#262,#264,#31,.T.);
#321=EDGE_CURVE('',#264,#265,#146,.T.);
#322=EDGE_CURVE('',#265,#263,#32,.T.);
#323=EDGE_CURVE('',#266,#267,#147,.T.);
#324=EDGE_CURVE('',#267,#265,#148,.T.);
#325=EDGE_CURVE('',#264,#266,#149,.T.);
#326=EDGE_CURVE('',#266,#268,#33,.T.);
#327=EDGE_CURVE('',#268,#269,#150,.T.);
#328=EDGE_CURVE('',#269,#267,#34,.T.);
#329=EDGE_CURVE('',#270,#271,#151,.T.);
#330=EDGE_CURVE('',#271,#269,#152,.T.);
#331=EDGE_CURVE('',#268,#270,#153,.T.);
#332=EDGE_CURVE('',#270,#272,#35,.T.);
#333=EDGE_CURVE('',#272,#273,#154,.T.);
#334=EDGE_CURVE('',#273,#271,#36,.T.);
#335=EDGE_CURVE('',#274,#275,#155,.T.);
#336=EDGE_CURVE('',#275,#273,#156,.T.);
#337=EDGE_CURVE('',#272,#274,#157,.T.);
#338=EDGE_CURVE('',#274,#276,#37,.T.);
#339=EDGE_CURVE('',#276,#277,#158,.T.);
#340=EDGE_CURVE('',#277,#275,#38,.T.);
#341=EDGE_CURVE('',#278,#279,#159,.T.);
#342=EDGE_CURVE('',#279,#277,#160,.T.);
#343=EDGE_CURVE('',#276,#278,#161,.T.);
#344=EDGE_CURVE('',#278,#259,#39,.T.);
#345=EDGE_CURVE('',#258,#279,#40,.T.);
#346=EDGE_CURVE('',#266,#280,#162,.T.);
#347=EDGE_CURVE('',#280,#281,#41,.T.);
#348=EDGE_CURVE('',#281,#268,#163,.T.);
#349=EDGE_CURVE('',#282,#264,#164,.T.);
#350=EDGE_CURVE('',#280,#282,#165,.T.);
#351=EDGE_CURVE('',#262,#283,#166,.T.);
#352=EDGE_CURVE('',#283,#282,#42,.T.);
#353=EDGE_CURVE('',#284,#260,#167,.T.);
#354=EDGE_CURVE('',#283,#284,#168,.T.);
#355=EDGE_CURVE('',#256,#285,#169,.T.);
#356=EDGE_CURVE('',#285,#284,#43,.T.);
#357=EDGE_CURVE('',#286,#259,#170,.T.);
#358=EDGE_CURVE('',#285,#286,#171,.T.);
#359=EDGE_CURVE('',#287,#287,#44,.T.);
#360=EDGE_CURVE('',#288,#289,#172,.T.);
#361=EDGE_CURVE('',#290,#288,#173,.T.);
#362=EDGE_CURVE('',#291,#290,#174,.T.);
#363=EDGE_CURVE('',#291,#289,#175,.T.);
#364=EDGE_CURVE('',#289,#292,#45,.T.);
#365=EDGE_CURVE('',#293,#291,#46,.T.);
#366=EDGE_CURVE('',#293,#292,#176,.T.);
#367=EDGE_CURVE('',#292,#294,#177,.T.);
#368=EDGE_CURVE('',#295,#293,#178,.T.);
#369=EDGE_CURVE('',#295,#294,#179,.T.);
#370=EDGE_CURVE('',#294,#296,#47,.T.);
#371=EDGE_CURVE('',#297,#295,#48,.T.);
#372=EDGE_CURVE('',#297,#296,#180,.T.);
#373=EDGE_CURVE('',#296,#298,#181,.T.);
#374=EDGE_CURVE('',#299,#297,#182,.T.);
#375=EDGE_CURVE('',#299,#298,#183,.T.);
#376=EDGE_CURVE('',#298,#300,#49,.T.);
#377=EDGE_CURVE('',#301,#299,#50,.T.);
#378=EDGE_CURVE('',#301,#300,#184,.T.);
#379=EDGE_CURVE('',#300,#302,#185,.T.);
#380=EDGE_CURVE('',#303,#301,#186,.T.);
#381=EDGE_CURVE('',#303,#302,#187,.T.);
#382=EDGE_CURVE('',#302,#288,#51,.T.);
#383=EDGE_CURVE('',#290,#303,#52,.T.);
#384=EDGE_CURVE('',#274,#304,#188,.T.);
#385=EDGE_CURVE('',#304,#305,#53,.T.);
#386=EDGE_CURVE('',#305,#276,#189,.T.);
#387=EDGE_CURVE('',#306,#305,#190,.T.);
#388=EDGE_CURVE('',#278,#306,#191,.T.);
#389=EDGE_CURVE('',#304,#307,#192,.T.);
#390=EDGE_CURVE('',#308,#307,#54,.T.);
#391=EDGE_CURVE('',#308,#281,#193,.T.);
#392=EDGE_CURVE('',#306,#286,#55,.T.);
#393=EDGE_CURVE('',#270,#308,#194,.T.);
#394=EDGE_CURVE('',#307,#272,#195,.T.);
#395=EDGE_CURVE('',#287,#309,#196,.T.);
#396=EDGE_CURVE('',#309,#309,#56,.T.);
#397=ORIENTED_EDGE('',*,*,#310,.T.);
#398=ORIENTED_EDGE('',*,*,#311,.T.);
#399=ORIENTED_EDGE('',*,*,#312,.T.);
#400=ORIENTED_EDGE('',*,*,#313,.T.);
#401=ORIENTED_EDGE('',*,*,#310,.F.);
#402=ORIENTED_EDGE('',*,*,#314,.T.);
#403=ORIENTED_EDGE('',*,*,#315,.T.);
#404=ORIENTED_EDGE('',*,*,#316,.T.);
#405=ORIENTED_EDGE('',*,*,#317,.T.);
#406=ORIENTED_EDGE('',*,*,#318,.T.);
#407=ORIENTED_EDGE('',*,*,#315,.F.);
#408=ORIENTED_EDGE('',*,*,#319,.T.);
#409=ORIENTED_EDGE('',*,*,#317,.F.);
#410=ORIENTED_EDGE('',*,*,#320,.T.);
#411=ORIENTED_EDGE('',*,*,#321,.T.);
#412=ORIENTED_EDGE('',*,*,#322,.T.);
#413=ORIENTED_EDGE('',*,*,#323,.T.);
#414=ORIENTED_EDGE('',*,*,#324,.T.);
#415=ORIENTED_EDGE('',*,*,#321,.F.);
#416=ORIENTED_EDGE('',*,*,#325,.T.);
#417=ORIENTED_EDGE('',*,*,#323,.F.);
#418=ORIENTED_EDGE('',*,*,#326,.T.);
#419=ORIENTED_EDGE('',*,*,#327,.T.);
#420=ORIENTED_EDGE('',*,*,#328,.T.);
#421=ORIENTED_EDGE('',*,*,#329,.T.);
#422=ORIENTED_EDGE('',*,*,#330,.T.);
#423=ORIENTED_EDGE('',*,*,#327,.F.);
#424=ORIENTED_EDGE('',*,*,#331,.T.);
#425=ORIENTED_EDGE('',*,*,#329,.F.);
#426=ORIENTED_EDGE('',*,*,#332,.T.);
#427=ORIENTED_EDGE('',*,*,#333,.T.);
#428=ORIENTED_EDGE('',*,*,#334,.T.);
#429=ORIENTED_EDGE('',*,*,#335,.T.);
#430=ORIENTED_EDGE('',*,*,#336,.T.);
#431=ORIENTED_EDGE('',*,*,#333,.F.);
#432=ORIENTED_EDGE('',*,*,#337,.T.);
#433=ORIENTED_EDGE('',*,*,#335,.F.);
#434=ORIENTED_EDGE('',*,*,#338,.T.);
#435=ORIENTED_EDGE('',*,*,#339,.T.);
#436=ORIENTED_EDGE('',*,*,#340,.T.);
#437=ORIENTED_EDGE('',*,*,#341,.T.);
#438=ORIENTED_EDGE('',*,*,#342,.T.);
#439=ORIENTED_EDGE('',*,*,#339,.F.);
#440=ORIENTED_EDGE('',*,*,#343,.T.);
#441=ORIENTED_EDGE('',*,*,#341,.F.);
#442=ORIENTED_EDGE('',*,*,#344,.T.);
#443=ORIENTED_EDGE('',*,*,#312,.F.);
#444=ORIENTED_EDGE('',*,*,#345,.T.);
#445=ORIENTED_EDGE('',*,*,#326,.F.);
#446=ORIENTED_EDGE('',*,*,#346,.T.);
#447=ORIENTED_EDGE('',*,*,#347,.T.);
#448=ORIENTED_EDGE('',*,*,#348,.T.);
#449=ORIENTED_EDGE('',*,*,#325,.F.);
#450=ORIENTED_EDGE('',*,*,#349,.F.);
#451=ORIENTED_EDGE('',*,*,#350,.F.);
#452=ORIENTED_EDGE('',*,*,#346,.F.);
#453=ORIENTED_EDGE('',*,*,#320,.F.);
#454=ORIENTED_EDGE('',*,*,#351,.T.);
#455=ORIENTED_EDGE('',*,*,#352,.T.);
#456=ORIENTED_EDGE('',*,*,#349,.T.);
#457=ORIENTED_EDGE('',*,*,#319,.F.);
#458=ORIENTED_EDGE('',*,*,#353,.F.);
#459=ORIENTED_EDGE('',*,*,#354,.F.);
#460=ORIENTED_EDGE('',*,*,#351,.F.);
#461=ORIENTED_EDGE('',*,*,#314,.F.);
#462=ORIENTED_EDGE('',*,*,#355,.T.);
#463=ORIENTED_EDGE('',*,*,#356,.T.);
#464=ORIENTED_EDGE('',*,*,#353,.T.);
#465=ORIENTED_EDGE('',*,*,#313,.F.);
#466=ORIENTED_EDGE('',*,*,#357,.F.);
#467=ORIENTED_EDGE('',*,*,#358,.F.);
#468=ORIENTED_EDGE('',*,*,#355,.F.);
#469=ORIENTED_EDGE('',*,*,#359,.T.);
#470=ORIENTED_EDGE('',*,*,#311,.F.);
#471=ORIENTED_EDGE('',*,*,#316,.F.);
#472=ORIENTED_EDGE('',*,*,#318,.F.);
#473=ORIENTED_EDGE('',*,*,#322,.F.);
#474=ORIENTED_EDGE('',*,*,#324,.F.);
#475=ORIENTED_EDGE('',*,*,#328,.F.);
#476=ORIENTED_EDGE('',*,*,#330,.F.);
#477=ORIENTED_EDGE('',*,*,#334,.F.);
#478=ORIENTED_EDGE('',*,*,#336,.F.);
#479=ORIENTED_EDGE('',*,*,#340,.F.);
#480=ORIENTED_EDGE('',*,*,#342,.F.);
#481=ORIENTED_EDGE('',*,*,#345,.F.);
#482=ORIENTED_EDGE('',*,*,#360,.F.);
#483=ORIENTED_EDGE('',*,*,#361,.F.);
#484=ORIENTED_EDGE('',*,*,#362,.F.);
#485=ORIENTED_EDGE('',*,*,#363,.T.);
#486=ORIENTED_EDGE('',*,*,#364,.F.);
#487=ORIENTED_EDGE('',*,*,#363,.F.);
#488=ORIENTED_EDGE('',*,*,#365,.F.);
#489=ORIENTED_EDGE('',*,*,#366,.T.);
#490=ORIENTED_EDGE('',*,*,#367,.F.);
#491=ORIENTED_EDGE('',*,*,#366,.F.);
#492=ORIENTED_EDGE('',*,*,#368,.F.);
#493=ORIENTED_EDGE('',*,*,#369,.T.);
#494=ORIENTED_EDGE('',*,*,#370,.F.);
#495=ORIENTED_EDGE('',*,*,#369,.F.);
#496=ORIENTED_EDGE('',*,*,#371,.F.);
#497=ORIENTED_EDGE('',*,*,#372,.T.);
#498=ORIENTED_EDGE('',*,*,#373,.F.);
#499=ORIENTED_EDGE('',*,*,#372,.F.);
#500=ORIENTED_EDGE('',*,*,#374,.F.);
#501=ORIENTED_EDGE('',*,*,#375,.T.);
#502=ORIENTED_EDGE('',*,*,#376,.F.);
#503=ORIENTED_EDGE('',*,*,#375,.F.);
#504=ORIENTED_EDGE('',*,*,#377,.F.);
#505=ORIENTED_EDGE('',*,*,#378,.T.);
#506=ORIENTED_EDGE('',*,*,#379,.F.);
#507=ORIENTED_EDGE('',*,*,#378,.F.);
#508=ORIENTED_EDGE('',*,*,#380,.F.);
#509=ORIENTED_EDGE('',*,*,#381,.T.);
#510=ORIENTED_EDGE('',*,*,#382,.F.);
#511=ORIENTED_EDGE('',*,*,#381,.F.);
#512=ORIENTED_EDGE('',*,*,#383,.F.);
#513=ORIENTED_EDGE('',*,*,#361,.T.);
#514=ORIENTED_EDGE('',*,*,#338,.F.);
#515=ORIENTED_EDGE('',*,*,#384,.T.);
#516=ORIENTED_EDGE('',*,*,#385,.T.);
#517=ORIENTED_EDGE('',*,*,#386,.T.);
#518=ORIENTED_EDGE('',*,*,#343,.F.);
#519=ORIENTED_EDGE('',*,*,#386,.F.);
#520=ORIENTED_EDGE('',*,*,#387,.F.);
#521=ORIENTED_EDGE('',*,*,#388,.F.);
#522=ORIENTED_EDGE('',*,*,#385,.F.);
#523=ORIENTED_EDGE('',*,*,#389,.T.);
#524=ORIENTED_EDGE('',*,*,#390,.F.);
#525=ORIENTED_EDGE('',*,*,#391,.T.);
#526=ORIENTED_EDGE('',*,*,#347,.F.);
#527=ORIENTED_EDGE('',*,*,#350,.T.);
#528=ORIENTED_EDGE('',*,*,#352,.F.);
#529=ORIENTED_EDGE('',*,*,#354,.T.);
#530=ORIENTED_EDGE('',*,*,#356,.F.);
#531=ORIENTED_EDGE('',*,*,#358,.T.);
#532=ORIENTED_EDGE('',*,*,#392,.F.);
#533=ORIENTED_EDGE('',*,*,#387,.T.);
#534=ORIENTED_EDGE('',*,*,#374,.T.);
#535=ORIENTED_EDGE('',*,*,#371,.T.);
#536=ORIENTED_EDGE('',*,*,#368,.T.);
#537=ORIENTED_EDGE('',*,*,#365,.T.);
#538=ORIENTED_EDGE('',*,*,#362,.T.);
#539=ORIENTED_EDGE('',*,*,#383,.T.);
#540=ORIENTED_EDGE('',*,*,#380,.T.);
#541=ORIENTED_EDGE('',*,*,#377,.T.);
#542=ORIENTED_EDGE('',*,*,#332,.F.);
#543=ORIENTED_EDGE('',*,*,#393,.T.);
#544=ORIENTED_EDGE('',*,*,#390,.T.);
#545=ORIENTED_EDGE('',*,*,#394,.T.);
#546=ORIENTED_EDGE('',*,*,#331,.F.);
#547=ORIENTED_EDGE('',*,*,#348,.F.);
#548=ORIENTED_EDGE('',*,*,#391,.F.);
#549=ORIENTED_EDGE('',*,*,#393,.F.);
#550=ORIENTED_EDGE('',*,*,#344,.F.);
#551=ORIENTED_EDGE('',*,*,#388,.T.);
#552=ORIENTED_EDGE('',*,*,#392,.T.);
#553=ORIENTED_EDGE('',*,*,#357,.T.);
#554=ORIENTED_EDGE('',*,*,#337,.F.);
#555=ORIENTED_EDGE('',*,*,#394,.F.);
#556=ORIENTED_EDGE('',*,*,#389,.F.);
#557=ORIENTED_EDGE('',*,*,#384,.F.);
#558=ORIENTED_EDGE('',*,*,#359,.F.);
#559=ORIENTED_EDGE('',*,*,#395,.T.);
#560=ORIENTED_EDGE('',*,*,#396,.T.);
#561=ORIENTED_EDGE('',*,*,#395,.F.);
#562=ORIENTED_EDGE('',*,*,#396,.F.);
#563=ORIENTED_EDGE('',*,*,#373,.T.);
#564=ORIENTED_EDGE('',*,*,#376,.T.);
#565=ORIENTED_EDGE('',*,*,#379,.T.);
#566=ORIENTED_EDGE('',*,*,#382,.T.);
#567=ORIENTED_EDGE('',*,*,#360,.T.);
#568=ORIENTED_EDGE('',*,*,#364,.T.);
#569=ORIENTED_EDGE('',*,*,#367,.T.);
#570=ORIENTED_EDGE('',*,*,#370,.T.);
#571=PLANE('',#648);
#572=PLANE('',#652);
#573=PLANE('',#656);
#574=PLANE('',#660);
#575=PLANE('',#664);
#576=PLANE('',#668);
#577=PLANE('',#674);
#578=PLANE('',#677);
#579=PLANE('',#680);
#580=PLANE('',#681);
#581=PLANE('',#683);
#582=PLANE('',#687);
#583=PLANE('',#691);
#584=PLANE('',#695);
#585=PLANE('',#701);
#586=PLANE('',#702);
#587=PLANE('',#706);
#588=PLANE('',#708);
#589=PLANE('',#711);
#590=ADVANCED_FACE('',(#63),#571,.T.);
#591=ADVANCED_FACE('',(#64),#57,.T.);
#592=ADVANCED_FACE('',(#65),#572,.T.);
#593=ADVANCED_FACE('',(#66),#58,.T.);
#594=ADVANCED_FACE('',(#67),#573,.T.);
#595=ADVANCED_FACE('',(#68),#59,.T.);
#596=ADVANCED_FACE('',(#69),#574,.T.);
#597=ADVANCED_FACE('',(#70),#60,.T.);
#598=ADVANCED_FACE('',(#71),#575,.T.);
#599=ADVANCED_FACE('',(#72),#61,.T.);
#600=ADVANCED_FACE('',(#73),#576,.T.);
#601=ADVANCED_FACE('',(#74),#62,.T.);
#602=ADVANCED_FACE('',(#75),#18,.T.);
#603=ADVANCED_FACE('',(#76),#577,.T.);
#604=ADVANCED_FACE('',(#77),#19,.T.);
#605=ADVANCED_FACE('',(#78),#578,.T.);
#606=ADVANCED_FACE('',(#79),#20,.T.);
#607=ADVANCED_FACE('',(#80),#579,.T.);
#608=ADVANCED_FACE('',(#81,#15),#580,.T.);
#609=ADVANCED_FACE('',(#82),#581,.F.);
#610=ADVANCED_FACE('',(#83),#21,.F.);
#611=ADVANCED_FACE('',(#84),#582,.F.);
#612=ADVANCED_FACE('',(#85),#22,.F.);
#613=ADVANCED_FACE('',(#86),#583,.F.);
#614=ADVANCED_FACE('',(#87),#23,.F.);
#615=ADVANCED_FACE('',(#88),#584,.F.);
#616=ADVANCED_FACE('',(#89),#24,.F.);
#617=ADVANCED_FACE('',(#90),#25,.T.);
#618=ADVANCED_FACE('',(#91),#585,.T.);
#619=ADVANCED_FACE('',(#92,#16),#586,.T.);
#620=ADVANCED_FACE('',(#93),#26,.T.);
#621=ADVANCED_FACE('',(#94),#587,.T.);
#622=ADVANCED_FACE('',(#95),#27,.T.);
#623=ADVANCED_FACE('',(#96),#588,.T.);
#624=ADVANCED_FACE('',(#97),#28,.T.);
#625=ADVANCED_FACE('',(#98,#17),#589,.F.);
#626=CLOSED_SHELL('',(#590,#591,#592,#593,#594,#595,#596,#597,#598,#599,
#600,#601,#602,#603,#604,#605,#606,#607,#608,#609,#610,#611,#612,#613,#614,
#615,#616,#617,#618,#619,#620,#621,#622,#623,#624,#625));
#627=DERIVED_UNIT_ELEMENT(#629,1.);
#628=DERIVED_UNIT_ELEMENT(#1087,-3.);
#629=(
CONVERSION_BASED_UNIT('gram',#631)
MASS_UNIT()
NAMED_UNIT(#1084)
);
#630=(
MASS_UNIT()
NAMED_UNIT(*)
SI_UNIT(.KILO.,.GRAM.)
);
#631=MASS_MEASURE_WITH_UNIT(MASS_MEASURE(0.001),#630);
#632=DERIVED_UNIT((#627,#628));
#633=MEASURE_REPRESENTATION_ITEM('density measure',
POSITIVE_RATIO_MEASURE(1.425),#632);
#634=PROPERTY_DEFINITION_REPRESENTATION(#639,#636);
#635=PROPERTY_DEFINITION_REPRESENTATION(#640,#637);
#636=REPRESENTATION('material name',(#638),#1081);
#637=REPRESENTATION('density',(#633),#1081);
#638=DESCRIPTIVE_REPRESENTATION_ITEM('Acetal Resin, Black',
'Acetal Resin, Black');
#639=PROPERTY_DEFINITION('material property','material name',#1095);
#640=PROPERTY_DEFINITION('material property','density of part',#1095);
#641=DATE_TIME_ROLE('creation_date');
#642=APPLIED_DATE_AND_TIME_ASSIGNMENT(#643,#641,(#1095));
#643=DATE_AND_TIME(#644,#645);
#644=CALENDAR_DATE(2026,16,1);
#645=LOCAL_TIME(0,0,0.,#646);
#646=COORDINATED_UNIVERSAL_TIME_OFFSET(0,0,.BEHIND.);
#647=AXIS2_PLACEMENT_3D('',#901,#712,#713);
#648=AXIS2_PLACEMENT_3D('',#902,#714,#715);
#649=AXIS2_PLACEMENT_3D('',#911,#720,#721);
#650=AXIS2_PLACEMENT_3D('',#913,#722,#723);
#651=AXIS2_PLACEMENT_3D('',#916,#725,#726);
#652=AXIS2_PLACEMENT_3D('',#917,#727,#728);
#653=AXIS2_PLACEMENT_3D('',#923,#732,#733);
#654=AXIS2_PLACEMENT_3D('',#925,#734,#735);
#655=AXIS2_PLACEMENT_3D('',#928,#737,#738);
#656=AXIS2_PLACEMENT_3D('',#929,#739,#740);
#657=AXIS2_PLACEMENT_3D('',#935,#744,#745);
#658=AXIS2_PLACEMENT_3D('',#937,#746,#747);
#659=AXIS2_PLACEMENT_3D('',#940,#749,#750);
#660=AXIS2_PLACEMENT_3D('',#941,#751,#752);
#661=AXIS2_PLACEMENT_3D('',#947,#756,#757);
#662=AXIS2_PLACEMENT_3D('',#949,#758,#759);
#663=AXIS2_PLACEMENT_3D('',#952,#761,#762);
#664=AXIS2_PLACEMENT_3D('',#953,#763,#764);
#665=AXIS2_PLACEMENT_3D('',#959,#768,#769);
#666=AXIS2_PLACEMENT_3D('',#961,#770,#771);
#667=AXIS2_PLACEMENT_3D('',#964,#773,#774);
#668=AXIS2_PLACEMENT_3D('',#965,#775,#776);
#669=AXIS2_PLACEMENT_3D('',#971,#780,#781);
#670=AXIS2_PLACEMENT_3D('',#972,#782,#783);
#671=AXIS2_PLACEMENT_3D('',#973,#784,#785);
#672=AXIS2_PLACEMENT_3D('',#974,#786,#787);
#673=AXIS2_PLACEMENT_3D('',#978,#789,#790);
#674=AXIS2_PLACEMENT_3D('',#980,#792,#793);
#675=AXIS2_PLACEMENT_3D('',#984,#796,#797);
#676=AXIS2_PLACEMENT_3D('',#987,#799,#800);
#677=AXIS2_PLACEMENT_3D('',#988,#801,#802);
#678=AXIS2_PLACEMENT_3D('',#992,#805,#806);
#679=AXIS2_PLACEMENT_3D('',#995,#808,#809);
#680=AXIS2_PLACEMENT_3D('',#996,#810,#811);
#681=AXIS2_PLACEMENT_3D('',#1000,#814,#815);
#682=AXIS2_PLACEMENT_3D('',#1002,#816,#817);
#683=AXIS2_PLACEMENT_3D('',#1003,#818,#819);
#684=AXIS2_PLACEMENT_3D('',#1012,#824,#825);
#685=AXIS2_PLACEMENT_3D('',#1014,#826,#827);
#686=AXIS2_PLACEMENT_3D('',#1016,#828,#829);
#687=AXIS2_PLACEMENT_3D('',#1018,#831,#832);
#688=AXIS2_PLACEMENT_3D('',#1024,#836,#837);
#689=AXIS2_PLACEMENT_3D('',#1026,#838,#839);
#690=AXIS2_PLACEMENT_3D('',#1028,#840,#841);
#691=AXIS2_PLACEMENT_3D('',#1030,#843,#844);
#692=AXIS2_PLACEMENT_3D('',#1036,#848,#849);
#693=AXIS2_PLACEMENT_3D('',#1038,#850,#851);
#694=AXIS2_PLACEMENT_3D('',#1040,#852,#853);
#695=AXIS2_PLACEMENT_3D('',#1042,#855,#856);
#696=AXIS2_PLACEMENT_3D('',#1048,#860,#861);
#697=AXIS2_PLACEMENT_3D('',#1049,#862,#863);
#698=AXIS2_PLACEMENT_3D('',#1050,#864,#865);
#699=AXIS2_PLACEMENT_3D('',#1051,#866,#867);
#700=AXIS2_PLACEMENT_3D('',#1055,#869,#870);
#701=AXIS2_PLACEMENT_3D('',#1057,#872,#873);
#702=AXIS2_PLACEMENT_3D('',#1061,#876,#877);
#703=AXIS2_PLACEMENT_3D('',#1065,#879,#880);
#704=AXIS2_PLACEMENT_3D('',#1067,#882,#883);
#705=AXIS2_PLACEMENT_3D('',#1068,#884,#885);
#706=AXIS2_PLACEMENT_3D('',#1071,#888,#889);
#707=AXIS2_PLACEMENT_3D('',#1072,#890,#891);
#708=AXIS2_PLACEMENT_3D('',#1073,#892,#893);
#709=AXIS2_PLACEMENT_3D('',#1074,#894,#895);
#710=AXIS2_PLACEMENT_3D('',#1077,#897,#898);
#711=AXIS2_PLACEMENT_3D('',#1078,#899,#900);
#712=DIRECTION('axis',(0.,0.,1.));
#713=DIRECTION('refdir',(1.,0.,0.));
#714=DIRECTION('center_axis',(0.353553390593273,0.707106781186548,-0.612372435695794));
#715=DIRECTION('ref_axis',(-0.866025403784439,0.,-0.5));
#716=DIRECTION('',(0.353553390593274,-0.707106781186547,-0.612372435695795));
#717=DIRECTION('',(-0.866025403784439,0.,-0.5));
#718=DIRECTION('',(-0.353553390593275,0.707106781186547,0.612372435695795));
#719=DIRECTION('',(0.866025403784439,0.,0.5));
#720=DIRECTION('center_axis',(0.,-1.,0.));
#721=DIRECTION('ref_axis',(0.866025403784439,0.,-0.499999999999999));
#722=DIRECTION('center_axis',(0.,-1.,0.));
#723=DIRECTION('ref_axis',(0.866025403784439,0.,-0.499999999999999));
#724=DIRECTION('',(0.707106781186547,-0.707106781186549,0.));
#725=DIRECTION('center_axis',(0.,1.,0.));
#726=DIRECTION('ref_axis',(0.866025403784439,0.,-0.499999999999999));
#727=DIRECTION('center_axis',(0.707106781186547,0.707106781186549,3.21198414687524E-16));
#728=DIRECTION('ref_axis',(4.54243154263834E-16,0.,-1.));
#729=DIRECTION('',(0.707106781186548,-0.707106781186547,9.89034619643322E-16));
#730=DIRECTION('',(4.54243154263834E-16,0.,-1.));
#731=DIRECTION('',(-4.54243154263834E-16,0.,1.));
#732=DIRECTION('center_axis',(0.,-1.,0.));
#733=DIRECTION('ref_axis',(0.866025403784439,0.,0.499999999999999));
#734=DIRECTION('center_axis',(0.,-1.,0.));
#735=DIRECTION('ref_axis',(0.866025403784439,0.,0.5));
#736=DIRECTION('',(0.353553390593274,-0.707106781186547,0.612372435695795));
#737=DIRECTION('center_axis',(0.,1.,0.));
#738=DIRECTION('ref_axis',(0.866025403784439,0.,0.499999999999999));
#739=DIRECTION('center_axis',(0.353553390593274,0.707106781186548,0.612372435695795));
#740=DIRECTION('ref_axis',(0.866025403784439,0.,-0.5));
#741=DIRECTION('',(0.353553390593273,-0.707106781186547,0.612372435695795));
#742=DIRECTION('',(0.866025403784439,0.,-0.5));
#743=DIRECTION('',(-0.866025403784439,0.,0.5));
#744=DIRECTION('center_axis',(0.,-1.,0.));
#745=DIRECTION('ref_axis',(-3.1544663490544E-16,0.,1.));
#746=DIRECTION('center_axis',(0.,-1.,0.));
#747=DIRECTION('ref_axis',(-3.1544663490544E-16,0.,1.));
#748=DIRECTION('',(-0.353553390593274,-0.707106781186548,0.612372435695794));
#749=DIRECTION('center_axis',(0.,1.,0.));
#750=DIRECTION('ref_axis',(-3.1544663490544E-16,0.,1.));
#751=DIRECTION('center_axis',(-0.353553390593274,0.707106781186548,0.612372435695794));
#752=DIRECTION('ref_axis',(0.866025403784439,0.,0.5));
#753=DIRECTION('',(-0.353553390593274,-0.707106781186547,0.612372435695795));
#754=DIRECTION('',(0.866025403784439,0.,0.5));
#755=DIRECTION('',(-0.866025403784439,0.,-0.5));
#756=DIRECTION('center_axis',(0.,-1.,0.));
#757=DIRECTION('ref_axis',(-0.866025403784439,0.,0.499999999999999));
#758=DIRECTION('center_axis',(0.,-1.,0.));
#759=DIRECTION('ref_axis',(-0.866025403784439,0.,0.5));
#760=DIRECTION('',(-0.707106781186548,-0.707106781186548,0.));
#761=DIRECTION('center_axis',(0.,1.,0.));
#762=DIRECTION('ref_axis',(-0.866025403784439,0.,0.499999999999999));
#763=DIRECTION('center_axis',(-0.707106781186548,0.707106781186548,0.));
#764=DIRECTION('ref_axis',(0.,0.,1.));
#765=DIRECTION('',(-0.707106781186548,-0.707106781186548,0.));
#766=DIRECTION('',(0.,0.,1.));
#767=DIRECTION('',(0.,0.,-1.));
#768=DIRECTION('center_axis',(0.,-1.,0.));
#769=DIRECTION('ref_axis',(-0.866025403784438,0.,-0.5));
#770=DIRECTION('center_axis',(0.,-1.,0.));
#771=DIRECTION('ref_axis',(-0.866025403784438,0.,-0.5));
#772=DIRECTION('',(-0.353553390593275,-0.707106781186547,-0.612372435695795));
#773=DIRECTION('center_axis',(0.,1.,0.));
#774=DIRECTION('ref_axis',(-0.866025403784438,0.,-0.5));
#775=DIRECTION('center_axis',(-0.353553390593274,0.707106781186548,-0.612372435695794));
#776=DIRECTION('ref_axis',(-0.866025403784438,0.,0.5));
#777=DIRECTION('',(-0.353553390593274,-0.707106781186546,-0.612372435695796));
#778=DIRECTION('',(-0.866025403784438,0.,0.5));
#779=DIRECTION('',(0.866025403784438,0.,-0.5));
#780=DIRECTION('center_axis',(0.,-1.,0.));
#781=DIRECTION('ref_axis',(1.5772331745272E-16,0.,-1.));
#782=DIRECTION('center_axis',(0.,-1.,0.));
#783=DIRECTION('ref_axis',(1.5772331745272E-16,0.,-1.));
#784=DIRECTION('center_axis',(0.,1.,0.));
#785=DIRECTION('ref_axis',(1.5772331745272E-16,0.,-1.));
#786=DIRECTION('center_axis',(0.,1.,0.));
#787=DIRECTION('ref_axis',(-3.1544663490544E-16,0.,1.));
#788=DIRECTION('',(0.,1.,0.));
#789=DIRECTION('center_axis',(0.,-1.,0.));
#790=DIRECTION('ref_axis',(-3.1544663490544E-16,0.,1.));
#791=DIRECTION('',(0.,-1.,0.));
#792=DIRECTION('center_axis',(0.5,0.,0.866025403784439));
#793=DIRECTION('ref_axis',(0.866025403784439,0.,-0.5));
#794=DIRECTION('',(0.,-1.,0.));
#795=DIRECTION('',(0.866025403784439,0.,-0.5));
#796=DIRECTION('center_axis',(0.,1.,0.));
#797=DIRECTION('ref_axis',(0.866025403784439,0.,0.5));
#798=DIRECTION('',(0.,1.,0.));
#799=DIRECTION('center_axis',(0.,-1.,0.));
#800=DIRECTION('ref_axis',(0.866025403784439,0.,0.5));
#801=DIRECTION('center_axis',(1.,0.,4.54243154263834E-16));
#802=DIRECTION('ref_axis',(4.54243154263834E-16,0.,-1.));
#803=DIRECTION('',(0.,-1.,0.));
#804=DIRECTION('',(4.54243154263834E-16,0.,-1.));
#805=DIRECTION('center_axis',(0.,1.,0.));
#806=DIRECTION('ref_axis',(0.866025403784439,0.,-0.5));
#807=DIRECTION('',(0.,1.,0.));
#808=DIRECTION('center_axis',(0.,-1.,0.));
#809=DIRECTION('ref_axis',(0.866025403784439,0.,-0.5));
#810=DIRECTION('center_axis',(0.5,0.,-0.866025403784439));
#811=DIRECTION('ref_axis',(-0.866025403784439,0.,-0.5));
#812=DIRECTION('',(0.,-1.,0.));
#813=DIRECTION('',(-0.866025403784439,0.,-0.5));
#814=DIRECTION('center_axis',(0.,1.,0.));
#815=DIRECTION('ref_axis',(0.,0.,1.));
#816=DIRECTION('center_axis',(0.,1.,0.));
#817=DIRECTION('ref_axis',(-1.,0.,0.));
#818=DIRECTION('center_axis',(-1.,0.,2.04250317283309E-16));
#819=DIRECTION('ref_axis',(-2.04250317283309E-16,0.,-1.));
#820=DIRECTION('',(2.04250317283309E-16,0.,1.));
#821=DIRECTION('',(0.,-1.,0.));
#822=DIRECTION('',(-2.04250317283309E-16,0.,-1.));
#823=DIRECTION('',(0.,-1.,0.));
#824=DIRECTION('center_axis',(0.,-1.,0.));
#825=DIRECTION('ref_axis',(-1.,0.,1.09273919746571E-15));
#826=DIRECTION('center_axis',(0.,1.,0.));
#827=DIRECTION('ref_axis',(-1.,0.,1.09273919746571E-15));
#828=DIRECTION('center_axis',(0.,-1.,0.));
#829=DIRECTION('ref_axis',(-1.,0.,1.09273919746571E-15));
#830=DIRECTION('',(0.,-1.,0.));
#831=DIRECTION('center_axis',(0.,0.,1.));
#832=DIRECTION('ref_axis',(-1.,0.,0.));
#833=DIRECTION('',(1.,0.,0.));
#834=DIRECTION('',(-1.,0.,0.));
#835=DIRECTION('',(0.,-1.,0.));
#836=DIRECTION('center_axis',(0.,-1.,0.));
#837=DIRECTION('ref_axis',(0.,0.,1.));
#838=DIRECTION('center_axis',(0.,1.,0.));
#839=DIRECTION('ref_axis',(0.,0.,1.));
#840=DIRECTION('center_axis',(0.,-1.,0.));
#841=DIRECTION('ref_axis',(0.,0.,1.));
#842=DIRECTION('',(0.,-1.,0.));
#843=DIRECTION('center_axis',(1.,0.,-2.04250317283309E-16));
#844=DIRECTION('ref_axis',(2.04250317283309E-16,0.,1.));
#845=DIRECTION('',(-2.04250317283309E-16,0.,-1.));
#846=DIRECTION('',(2.04250317283309E-16,0.,1.));
#847=DIRECTION('',(0.,-1.,0.));
#848=DIRECTION('center_axis',(0.,-1.,0.));
#849=DIRECTION('ref_axis',(1.,0.,0.));
#850=DIRECTION('center_axis',(0.,1.,0.));
#851=DIRECTION('ref_axis',(1.,0.,0.));
#852=DIRECTION('center_axis',(0.,-1.,0.));
#853=DIRECTION('ref_axis',(1.,0.,0.));
#854=DIRECTION('',(0.,-1.,0.));
#855=DIRECTION('center_axis',(-2.04250317283309E-16,0.,-1.));
#856=DIRECTION('ref_axis',(1.,0.,-2.04250317283309E-16));
#857=DIRECTION('',(-1.,0.,2.04250317283309E-16));
#858=DIRECTION('',(1.,0.,-2.04250317283309E-16));
#859=DIRECTION('',(0.,-1.,0.));
#860=DIRECTION('center_axis',(0.,-1.,0.));
#861=DIRECTION('ref_axis',(0.,0.,-1.));
#862=DIRECTION('center_axis',(0.,1.,0.));
#863=DIRECTION('ref_axis',(0.,0.,-1.));
#864=DIRECTION('center_axis',(0.,-1.,0.));
#865=DIRECTION('ref_axis',(0.,0.,-1.));
#866=DIRECTION('center_axis',(0.,1.,0.));
#867=DIRECTION('ref_axis',(-0.866025403784438,0.,-0.5));
#868=DIRECTION('',(0.,1.,0.));
#869=DIRECTION('center_axis',(0.,-1.,0.));
#870=DIRECTION('ref_axis',(-0.866025403784438,0.,-0.5));
#871=DIRECTION('',(0.,-1.,0.));
#872=DIRECTION('center_axis',(-0.5,0.,-0.866025403784439));
#873=DIRECTION('ref_axis',(-0.866025403784438,0.,0.5));
#874=DIRECTION('',(-0.866025403784438,0.,0.5));
#875=DIRECTION('',(0.,1.,0.));
#876=DIRECTION('center_axis',(0.,1.,0.));
#877=DIRECTION('ref_axis',(0.,0.,1.));
#878=DIRECTION('',(0.,0.,1.));
#879=DIRECTION('center_axis',(0.,-1.,0.));
#880=DIRECTION('ref_axis',(-0.866025403784439,0.,0.5));
#881=DIRECTION('',(0.866025403784439,0.,0.5));
#882=DIRECTION('center_axis',(0.,-1.,0.));
#883=DIRECTION('ref_axis',(1.5772331745272E-16,0.,-1.));
#884=DIRECTION('center_axis',(0.,1.,0.));
#885=DIRECTION('ref_axis',(-0.866025403784439,0.,0.5));
#886=DIRECTION('',(0.,1.,0.));
#887=DIRECTION('',(0.,-1.,0.));
#888=DIRECTION('center_axis',(-0.5,0.,0.866025403784439));
#889=DIRECTION('ref_axis',(0.866025403784439,0.,0.5));
#890=DIRECTION('center_axis',(0.,1.,0.));
#891=DIRECTION('ref_axis',(1.5772331745272E-16,0.,-1.));
#892=DIRECTION('center_axis',(-1.,0.,0.));
#893=DIRECTION('ref_axis',(0.,0.,1.));
#894=DIRECTION('center_axis',(0.,1.,0.));
#895=DIRECTION('ref_axis',(-1.,0.,0.));
#896=DIRECTION('',(0.,-1.,0.));
#897=DIRECTION('center_axis',(0.,1.,0.));
#898=DIRECTION('ref_axis',(-1.,0.,0.));
#899=DIRECTION('center_axis',(0.,1.,0.));
#900=DIRECTION('ref_axis',(0.,0.,1.));
#901=CARTESIAN_POINT('',(0.,0.,0.));
#902=CARTESIAN_POINT('Origin',(0.19140625,0.0578125,-0.187187782588824));
#903=CARTESIAN_POINT('',(0.24,0.065625,-0.150111069989303));
#904=CARTESIAN_POINT('',(0.2478125,0.05,-0.163642716923434));
#905=CARTESIAN_POINT('',(0.24,0.065625,-0.150111069989303));
#906=CARTESIAN_POINT('',(0.0178124999999999,0.05,-0.296433278837048));
#907=CARTESIAN_POINT('',(0.1953125,0.05,-0.19395360605589));
#908=CARTESIAN_POINT('',(0.0099999999999999,0.065625,-0.282901631902916));
#909=CARTESIAN_POINT('',(0.0178124999999999,0.05,-0.296433278837048));
#910=CARTESIAN_POINT('',(0.1875,0.065625,-0.180421959121758));
#911=CARTESIAN_POINT('Origin',(0.23,0.0578125,-0.132790561913614));
#912=CARTESIAN_POINT('',(0.25,0.065625,-0.132790561913614));
#913=CARTESIAN_POINT('Origin',(0.23,0.065625,-0.132790561913614));
#914=CARTESIAN_POINT('',(0.265625,0.05,-0.132790561913614));
#915=CARTESIAN_POINT('',(0.25,0.065625,-0.132790561913614));
#916=CARTESIAN_POINT('Origin',(0.23,0.05,-0.132790561913614));
#917=CARTESIAN_POINT('Origin',(0.2578125,0.0578125,0.0721687836487033));
#918=CARTESIAN_POINT('',(0.25,0.065625,0.132790561913614));
#919=CARTESIAN_POINT('',(0.265625,0.05,0.132790561913614));
#920=CARTESIAN_POINT('',(0.25,0.065625,0.132790561913614));
#921=CARTESIAN_POINT('',(0.265625,0.05,0.0721687836487033));
#922=CARTESIAN_POINT('',(0.25,0.065625,0.0721687836487033));
#923=CARTESIAN_POINT('Origin',(0.23,0.0578125,0.132790561913614));
#924=CARTESIAN_POINT('',(0.24,0.065625,0.150111069989303));
#925=CARTESIAN_POINT('Origin',(0.23,0.065625,0.132790561913614));
#926=CARTESIAN_POINT('',(0.2478125,0.05,0.163642716923435));
#927=CARTESIAN_POINT('',(0.24,0.065625,0.150111069989303));
#928=CARTESIAN_POINT('Origin',(0.23,0.05,0.132790561913614));
#929=CARTESIAN_POINT('Origin',(0.0664062499999999,0.0578125,0.259356566237527));
#930=CARTESIAN_POINT('',(0.00999999999999992,0.065625,0.282901631902916));
#931=CARTESIAN_POINT('',(0.0178124999999999,0.05,0.296433278837048));
#932=CARTESIAN_POINT('',(0.00999999999999992,0.065625,0.282901631902916));
#933=CARTESIAN_POINT('',(0.0703124999999999,0.05,0.266122389704593));
#934=CARTESIAN_POINT('',(0.0624999999999999,0.065625,0.252590742770461));
#935=CARTESIAN_POINT('Origin',(-8.74191357972564E-17,0.0578125,0.265581123827228));
#936=CARTESIAN_POINT('',(-0.0100000000000001,0.065625,0.282901631902916));
#937=CARTESIAN_POINT('Origin',(-8.74191357972564E-17,0.065625,0.265581123827228));
#938=CARTESIAN_POINT('',(-0.0178125000000001,0.05,0.296433278837048));
#939=CARTESIAN_POINT('',(-0.0100000000000001,0.065625,0.282901631902916));
#940=CARTESIAN_POINT('Origin',(-8.74191357972564E-17,0.05,0.265581123827228));
#941=CARTESIAN_POINT('Origin',(-0.19140625,0.0578125,0.187187782588824));
#942=CARTESIAN_POINT('',(-0.24,0.065625,0.150111069989303));
#943=CARTESIAN_POINT('',(-0.2478125,0.05,0.163642716923434));
#944=CARTESIAN_POINT('',(-0.24,0.065625,0.150111069989303));
#945=CARTESIAN_POINT('',(-0.1953125,0.05,0.19395360605589));
#946=CARTESIAN_POINT('',(-0.1875,0.065625,0.180421959121758));
#947=CARTESIAN_POINT('Origin',(-0.23,0.0578125,0.132790561913614));
#948=CARTESIAN_POINT('',(-0.25,0.065625,0.132790561913614));
#949=CARTESIAN_POINT('Origin',(-0.23,0.065625,0.132790561913614));
#950=CARTESIAN_POINT('',(-0.265625,0.05,0.132790561913614));
#951=CARTESIAN_POINT('',(-0.25,0.065625,0.132790561913614));
#952=CARTESIAN_POINT('Origin',(-0.23,0.05,0.132790561913614));
#953=CARTESIAN_POINT('Origin',(-0.2578125,0.0578125,-0.0721687836487031));
#954=CARTESIAN_POINT('',(-0.25,0.065625,-0.132790561913614));
#955=CARTESIAN_POINT('',(-0.265625,0.05,-0.132790561913614));
#956=CARTESIAN_POINT('',(-0.25,0.065625,-0.132790561913614));
#957=CARTESIAN_POINT('',(-0.265625,0.05,-0.0721687836487031));
#958=CARTESIAN_POINT('',(-0.25,0.065625,-0.0721687836487031));
#959=CARTESIAN_POINT('Origin',(-0.23,0.0578125,-0.132790561913614));
#960=CARTESIAN_POINT('',(-0.24,0.065625,-0.150111069989303));
#961=CARTESIAN_POINT('Origin',(-0.23,0.065625,-0.132790561913614));
#962=CARTESIAN_POINT('',(-0.2478125,0.05,-0.163642716923434));
#963=CARTESIAN_POINT('',(-0.24,0.065625,-0.150111069989303));
#964=CARTESIAN_POINT('Origin',(-0.23,0.05,-0.132790561913614));
#965=CARTESIAN_POINT('Origin',(-0.0664062500000001,0.0578125,-0.259356566237527));
#966=CARTESIAN_POINT('',(-0.0100000000000001,0.065625,-0.282901631902916));
#967=CARTESIAN_POINT('',(-0.0178125000000001,0.05,-0.296433278837048));
#968=CARTESIAN_POINT('',(-0.0100000000000001,0.065625,-0.282901631902916));
#969=CARTESIAN_POINT('',(-0.0703125000000001,0.05,-0.266122389704593));
#970=CARTESIAN_POINT('',(-0.0625,0.065625,-0.252590742770461));
#971=CARTESIAN_POINT('Origin',(-1.09273919746571E-16,0.0578125,-0.265581123827228));
#972=CARTESIAN_POINT('Origin',(-1.09273919746571E-16,0.065625,-0.265581123827228));
#973=CARTESIAN_POINT('Origin',(-1.09273919746571E-16,0.05,-0.265581123827228));
#974=CARTESIAN_POINT('Origin',(-8.74191357972564E-17,0.05,0.265581123827228));
#975=CARTESIAN_POINT('',(0.00999999999999991,0.2375,0.282901631902916));
#976=CARTESIAN_POINT('',(0.00999999999999992,0.05,0.282901631902916));
#977=CARTESIAN_POINT('',(-0.0100000000000001,0.2375,0.282901631902916));
#978=CARTESIAN_POINT('Origin',(-8.74191357972564E-17,0.2375,0.265581123827228));
#979=CARTESIAN_POINT('',(-0.0100000000000001,0.05,0.282901631902916));
#980=CARTESIAN_POINT('Origin',(-7.2047210058571E-17,0.05,0.288675134594813));
#981=CARTESIAN_POINT('',(0.24,0.2375,0.150111069989303));
#982=CARTESIAN_POINT('',(0.24,0.05,0.150111069989303));
#983=CARTESIAN_POINT('',(-8.74191357972564E-17,0.2375,0.288675134594813));
#984=CARTESIAN_POINT('Origin',(0.23,0.05,0.132790561913614));
#985=CARTESIAN_POINT('',(0.25,0.2375,0.132790561913614));
#986=CARTESIAN_POINT('',(0.25,0.05,0.132790561913614));
#987=CARTESIAN_POINT('Origin',(0.23,0.2375,0.132790561913614));
#988=CARTESIAN_POINT('Origin',(0.25,0.05,0.144337567297406));
#989=CARTESIAN_POINT('',(0.25,0.2375,-0.132790561913614));
#990=CARTESIAN_POINT('',(0.25,0.05,-0.132790561913614));
#991=CARTESIAN_POINT('',(0.25,0.2375,0.144337567297406));
#992=CARTESIAN_POINT('Origin',(0.23,0.05,-0.132790561913614));
#993=CARTESIAN_POINT('',(0.24,0.2375,-0.150111069989303));
#994=CARTESIAN_POINT('',(0.24,0.05,-0.150111069989303));
#995=CARTESIAN_POINT('Origin',(0.23,0.2375,-0.132790561913614));
#996=CARTESIAN_POINT('Origin',(0.25,0.05,-0.144337567297406));
#997=CARTESIAN_POINT('',(0.0099999999999999,0.2375,-0.282901631902916));
#998=CARTESIAN_POINT('',(0.0099999999999999,0.05,-0.282901631902916));
#999=CARTESIAN_POINT('',(0.25,0.2375,-0.144337567297406));
#1000=CARTESIAN_POINT('Origin',(0.,0.05,0.));
#1001=CARTESIAN_POINT('',(0.375,0.05,-4.59242549680257E-17));
#1002=CARTESIAN_POINT('Origin',(0.,0.05,0.));
#1003=CARTESIAN_POINT('Origin',(-0.127,0.2375,0.107));
#1004=CARTESIAN_POINT('',(-0.127,0.,-0.107));
#1005=CARTESIAN_POINT('',(-0.127,0.,0.107));
#1006=CARTESIAN_POINT('',(-0.127,0.,0.0535));
#1007=CARTESIAN_POINT('',(-0.127,0.2375,-0.107));
#1008=CARTESIAN_POINT('',(-0.127,0.2375,-0.107));
#1009=CARTESIAN_POINT('',(-0.127,0.2375,0.107));
#1010=CARTESIAN_POINT('',(-0.127,0.2375,0.0535));
#1011=CARTESIAN_POINT('',(-0.127,0.2375,0.107));
#1012=CARTESIAN_POINT('Origin',(-0.107,0.2375,0.107));
#1013=CARTESIAN_POINT('',(-0.107,0.,0.127));
#1014=CARTESIAN_POINT('Origin',(-0.107,0.,0.107));
#1015=CARTESIAN_POINT('',(-0.107,0.2375,0.127));
#1016=CARTESIAN_POINT('Origin',(-0.107,0.2375,0.107));
#1017=CARTESIAN_POINT('',(-0.107,0.2375,0.127));
#1018=CARTESIAN_POINT('Origin',(0.107,0.2375,0.127));
#1019=CARTESIAN_POINT('',(0.107,0.,0.127));
#1020=CARTESIAN_POINT('',(0.0535,0.,0.127));
#1021=CARTESIAN_POINT('',(0.107,0.2375,0.127));
#1022=CARTESIAN_POINT('',(0.0535,0.2375,0.127));
#1023=CARTESIAN_POINT('',(0.107,0.2375,0.127));
#1024=CARTESIAN_POINT('Origin',(0.107,0.2375,0.107));
#1025=CARTESIAN_POINT('',(0.127,0.,0.107));
#1026=CARTESIAN_POINT('Origin',(0.107,0.,0.107));
#1027=CARTESIAN_POINT('',(0.127,0.2375,0.107));
#1028=CARTESIAN_POINT('Origin',(0.107,0.2375,0.107));
#1029=CARTESIAN_POINT('',(0.127,0.2375,0.107));
#1030=CARTESIAN_POINT('Origin',(0.127,0.2375,-0.107));
#1031=CARTESIAN_POINT('',(0.127,0.,-0.107));
#1032=CARTESIAN_POINT('',(0.127,0.,-0.0535));
#1033=CARTESIAN_POINT('',(0.127,0.2375,-0.107));
#1034=CARTESIAN_POINT('',(0.127,0.2375,-0.0535));
#1035=CARTESIAN_POINT('',(0.127,0.2375,-0.107));
#1036=CARTESIAN_POINT('Origin',(0.107,0.2375,-0.107));
#1037=CARTESIAN_POINT('',(0.107,0.,-0.127));
#1038=CARTESIAN_POINT('Origin',(0.107,0.,-0.107));
#1039=CARTESIAN_POINT('',(0.107,0.2375,-0.127));
#1040=CARTESIAN_POINT('Origin',(0.107,0.2375,-0.107));
#1041=CARTESIAN_POINT('',(0.107,0.2375,-0.127));
#1042=CARTESIAN_POINT('Origin',(-0.107,0.2375,-0.127));
#1043=CARTESIAN_POINT('',(-0.107,0.,-0.127));
#1044=CARTESIAN_POINT('',(-0.0535,0.,-0.127));
#1045=CARTESIAN_POINT('',(-0.107,0.2375,-0.127));
#1046=CARTESIAN_POINT('',(-0.0535,0.2375,-0.127));
#1047=CARTESIAN_POINT('',(-0.107,0.2375,-0.127));
#1048=CARTESIAN_POINT('Origin',(-0.107,0.2375,-0.107));
#1049=CARTESIAN_POINT('Origin',(-0.107,0.,-0.107));
#1050=CARTESIAN_POINT('Origin',(-0.107,0.2375,-0.107));
#1051=CARTESIAN_POINT('Origin',(-0.23,0.05,-0.132790561913614));
#1052=CARTESIAN_POINT('',(-0.25,0.2375,-0.132790561913614));
#1053=CARTESIAN_POINT('',(-0.25,0.05,-0.132790561913614));
#1054=CARTESIAN_POINT('',(-0.24,0.2375,-0.150111069989303));
#1055=CARTESIAN_POINT('Origin',(-0.23,0.2375,-0.132790561913614));
#1056=CARTESIAN_POINT('',(-0.24,0.05,-0.150111069989303));
#1057=CARTESIAN_POINT('Origin',(-9.86932895454454E-17,0.05,-0.288675134594813));
#1058=CARTESIAN_POINT('',(-0.0100000000000001,0.2375,-0.282901631902916));
#1059=CARTESIAN_POINT('',(-8.74191357972564E-17,0.2375,-0.288675134594813));
#1060=CARTESIAN_POINT('',(-0.0100000000000001,0.05,-0.282901631902916));
#1061=CARTESIAN_POINT('Origin',(0.,0.2375,0.));
#1062=CARTESIAN_POINT('',(-0.25,0.2375,0.132790561913614));
#1063=CARTESIAN_POINT('',(-0.25,0.2375,-0.144337567297406));
#1064=CARTESIAN_POINT('',(-0.24,0.2375,0.150111069989303));
#1065=CARTESIAN_POINT('Origin',(-0.23,0.2375,0.132790561913614));
#1066=CARTESIAN_POINT('',(-0.25,0.2375,0.144337567297406));
#1067=CARTESIAN_POINT('Origin',(-1.09273919746571E-16,0.2375,-0.265581123827228));
#1068=CARTESIAN_POINT('Origin',(-0.23,0.05,0.132790561913614));
#1069=CARTESIAN_POINT('',(-0.24,0.05,0.150111069989303));
#1070=CARTESIAN_POINT('',(-0.25,0.05,0.132790561913614));
#1071=CARTESIAN_POINT('Origin',(-0.25,0.05,0.144337567297406));
#1072=CARTESIAN_POINT('Origin',(-1.09273919746571E-16,0.05,-0.265581123827228));
#1073=CARTESIAN_POINT('Origin',(-0.25,0.05,-0.144337567297406));
#1074=CARTESIAN_POINT('Origin',(0.,0.,0.));
#1075=CARTESIAN_POINT('',(0.375,0.,-4.59242549680257E-17));
#1076=CARTESIAN_POINT('',(0.375,0.,-4.59242549680257E-17));
#1077=CARTESIAN_POINT('Origin',(0.,0.,0.));
#1078=CARTESIAN_POINT('Origin',(0.,0.,0.));
#1079=UNCERTAINTY_MEASURE_WITH_UNIT(LENGTH_MEASURE(0.000393700787401575),
#1085,'DISTANCE_ACCURACY_VALUE',
'Maximum model space distance between geometric entities at asserted c
onnectivities');
#1080=UNCERTAINTY_MEASURE_WITH_UNIT(LENGTH_MEASURE(0.000393700787401575),
#1085,'DISTANCE_ACCURACY_VALUE',
'Maximum model space distance between geometric entities at asserted c
onnectivities');
#1081=(
GEOMETRIC_REPRESENTATION_CONTEXT(3)
GLOBAL_UNCERTAINTY_ASSIGNED_CONTEXT((#1079))
GLOBAL_UNIT_ASSIGNED_CONTEXT((#1085,#1089,#1090))
REPRESENTATION_CONTEXT('','3D')
);
#1082=(
GEOMETRIC_REPRESENTATION_CONTEXT(3)
GLOBAL_UNCERTAINTY_ASSIGNED_CONTEXT((#1080))
GLOBAL_UNIT_ASSIGNED_CONTEXT((#1085,#1089,#1090))
REPRESENTATION_CONTEXT('','3D')
);
#1083=DIMENSIONAL_EXPONENTS(1.,0.,0.,0.,0.,0.,0.);
#1084=DIMENSIONAL_EXPONENTS(0.,1.,0.,0.,0.,0.,0.);
#1085=(
CONVERSION_BASED_UNIT('inch',#1088)
LENGTH_UNIT()
NAMED_UNIT(#1083)
);
#1086=(
LENGTH_UNIT()
NAMED_UNIT(*)
SI_UNIT(.MILLI.,.METRE.)
);
#1087=(
LENGTH_UNIT()
NAMED_UNIT(*)
SI_UNIT(.CENTI.,.METRE.)
);
#1088=LENGTH_MEASURE_WITH_UNIT(LENGTH_MEASURE(25.4),#1086);
#1089=(
NAMED_UNIT(*)
PLANE_ANGLE_UNIT()
SI_UNIT($,.RADIAN.)
);
#1090=(
NAMED_UNIT(*)
SI_UNIT($,.STERADIAN.)
SOLID_ANGLE_UNIT()
);
#1091=SHAPE_DEFINITION_REPRESENTATION(#1092,#1093);
#1092=PRODUCT_DEFINITION_SHAPE('',$,#1095);
#1093=SHAPE_REPRESENTATION('',(#647),#1081);
#1094=PRODUCT_DEFINITION_CONTEXT('part definition',#1099,'design');
#1095=PRODUCT_DEFINITION('insert','insert',#1096,#1094);
#1096=PRODUCT_DEFINITION_FORMATION('',$,#1101);
#1097=PRODUCT_RELATED_PRODUCT_CATEGORY('insert','insert',(#1101));
#1098=APPLICATION_PROTOCOL_DEFINITION('international standard',
'automotive_design',2009,#1099);
#1099=APPLICATION_CONTEXT(
'Core Data for Automotive Mechanical Design Process');
#1100=PRODUCT_CONTEXT('part definition',#1099,'mechanical');
#1101=PRODUCT('insert','insert',$,(#1100));
#1102=PRESENTATION_STYLE_ASSIGNMENT((#1103));
#1103=SURFACE_STYLE_USAGE(.BOTH.,#1106);
#1104=SURFACE_STYLE_RENDERING_WITH_PROPERTIES($,#1110,(#1105));
#1105=SURFACE_STYLE_TRANSPARENT(0.);
#1106=SURFACE_SIDE_STYLE('',(#1107,#1104));
#1107=SURFACE_STYLE_FILL_AREA(#1108);
#1108=FILL_AREA_STYLE('',(#1109));
#1109=FILL_AREA_STYLE_COLOUR('',#1110);
#1110=COLOUR_RGB('',0.0196078431372549,0.0196078431372549,0.0196078431372549);
ENDSEC;
END-ISO-10303-21;
