ISO-10303-21;
HEADER;
/* Generated by software containing ST-Developer
 * from STEP Tools, Inc. (www.steptools.com) 
 */

FILE_DESCRIPTION(
/* description */ (''),
/* implementation_level */ '2;1');

FILE_NAME(
/* name */ 'matchloaderbar.stp',
/* time_stamp */ '2026-01-24T00:19:48+13:00',
/* author */ ('cloudy'),
/* organization */ (''),
/* preprocessor_version */ 'ST-DEVELOPER v20',
/* originating_system */ 'Autodesk Inventor 2025',
/* authorisation */ '');

FILE_SCHEMA (('AUTOMOTIVE_DESIGN { 1 0 10303 214 3 1 1 }'));
ENDSEC;

DATA;
#10=MECHANICAL_DESIGN_GEOMETRIC_PRESENTATION_REPRESENTATION('',(#13),#419);
#11=SHAPE_REPRESENTATION_RELATIONSHIP('SRR','None',#430,#12);
#12=ADVANCED_BREP_SHAPE_REPRESENTATION('',(#14),#418);
#13=STYLED_ITEM('',(#439),#14);
#14=MANIFOLD_SOLID_BREP('Solid1',#235);
#15=FACE_BOUND('',#51,.T.);
#16=FACE_BOUND('',#52,.T.);
#17=FACE_BOUND('',#53,.T.);
#18=FACE_BOUND('',#54,.T.);
#19=FACE_BOUND('',#56,.T.);
#20=FACE_BOUND('',#57,.T.);
#21=FACE_BOUND('',#58,.T.);
#22=FACE_BOUND('',#59,.T.);
#23=PLANE('',#269);
#24=PLANE('',#273);
#25=PLANE('',#277);
#26=PLANE('',#281);
#27=PLANE('',#282);
#28=FACE_OUTER_BOUND('',#40,.T.);
#29=FACE_OUTER_BOUND('',#41,.T.);
#30=FACE_OUTER_BOUND('',#42,.T.);
#31=FACE_OUTER_BOUND('',#43,.T.);
#32=FACE_OUTER_BOUND('',#44,.T.);
#33=FACE_OUTER_BOUND('',#45,.T.);
#34=FACE_OUTER_BOUND('',#46,.T.);
#35=FACE_OUTER_BOUND('',#47,.T.);
#36=FACE_OUTER_BOUND('',#48,.T.);
#37=FACE_OUTER_BOUND('',#49,.T.);
#38=FACE_OUTER_BOUND('',#50,.T.);
#39=FACE_OUTER_BOUND('',#55,.T.);
#40=EDGE_LOOP('',(#156,#157,#158,#159));
#41=EDGE_LOOP('',(#160,#161,#162,#163));
#42=EDGE_LOOP('',(#164,#165,#166,#167));
#43=EDGE_LOOP('',(#168,#169,#170,#171));
#44=EDGE_LOOP('',(#172,#173,#174,#175));
#45=EDGE_LOOP('',(#176,#177,#178,#179));
#46=EDGE_LOOP('',(#180,#181,#182,#183));
#47=EDGE_LOOP('',(#184,#185,#186,#187));
#48=EDGE_LOOP('',(#188,#189,#190,#191));
#49=EDGE_LOOP('',(#192,#193,#194,#195));
#50=EDGE_LOOP('',(#196,#197,#198,#199,#200,#201));
#51=EDGE_LOOP('',(#202));
#52=EDGE_LOOP('',(#203));
#53=EDGE_LOOP('',(#204));
#54=EDGE_LOOP('',(#205));
#55=EDGE_LOOP('',(#206,#207,#208,#209,#210,#211));
#56=EDGE_LOOP('',(#212));
#57=EDGE_LOOP('',(#213));
#58=EDGE_LOOP('',(#214));
#59=EDGE_LOOP('',(#215));
#60=LINE('',#358,#76);
#61=LINE('',#364,#77);
#62=LINE('',#370,#78);
#63=LINE('',#376,#79);
#64=LINE('',#381,#80);
#65=LINE('',#383,#81);
#66=LINE('',#385,#82);
#67=LINE('',#386,#83);
#68=LINE('',#392,#84);
#69=LINE('',#395,#85);
#70=LINE('',#397,#86);
#71=LINE('',#398,#87);
#72=LINE('',#404,#88);
#73=LINE('',#407,#89);
#74=LINE('',#409,#90);
#75=LINE('',#410,#91);
#76=VECTOR('',#289,0.0884999999999999);
#77=VECTOR('',#296,0.0885);
#78=VECTOR('',#303,0.0885);
#79=VECTOR('',#310,0.08885);
#80=VECTOR('',#315,0.393700787401575);
#81=VECTOR('',#316,0.393700787401575);
#82=VECTOR('',#317,0.393700787401575);
#83=VECTOR('',#318,0.393700787401575);
#84=VECTOR('',#325,0.393700787401575);
#85=VECTOR('',#328,0.393700787401575);
#86=VECTOR('',#329,0.393700787401575);
#87=VECTOR('',#330,0.393700787401575);
#88=VECTOR('',#337,0.393700787401575);
#89=VECTOR('',#340,0.393700787401575);
#90=VECTOR('',#341,0.393700787401575);
#91=VECTOR('',#342,0.393700787401575);
#92=CIRCLE('',#258,0.0884999999999999);
#93=CIRCLE('',#259,0.0884999999999999);
#94=CIRCLE('',#261,0.0885);
#95=CIRCLE('',#262,0.0885);
#96=CIRCLE('',#264,0.0885);
#97=CIRCLE('',#265,0.0885);
#98=CIRCLE('',#267,0.08885);
#99=CIRCLE('',#268,0.08885);
#100=CIRCLE('',#271,1.);
#101=CIRCLE('',#272,1.);
#102=CIRCLE('',#275,0.25);
#103=CIRCLE('',#276,0.25);
#104=CIRCLE('',#279,0.1875);
#105=CIRCLE('',#280,0.1875);
#106=VERTEX_POINT('',#355);
#107=VERTEX_POINT('',#357);
#108=VERTEX_POINT('',#361);
#109=VERTEX_POINT('',#363);
#110=VERTEX_POINT('',#367);
#111=VERTEX_POINT('',#369);
#112=VERTEX_POINT('',#373);
#113=VERTEX_POINT('',#375);
#114=VERTEX_POINT('',#379);
#115=VERTEX_POINT('',#380);
#116=VERTEX_POINT('',#382);
#117=VERTEX_POINT('',#384);
#118=VERTEX_POINT('',#388);
#119=VERTEX_POINT('',#390);
#120=VERTEX_POINT('',#394);
#121=VERTEX_POINT('',#396);
#122=VERTEX_POINT('',#400);
#123=VERTEX_POINT('',#402);
#124=VERTEX_POINT('',#406);
#125=VERTEX_POINT('',#408);
#126=EDGE_CURVE('',#106,#106,#92,.T.);
#127=EDGE_CURVE('',#106,#107,#60,.T.);
#128=EDGE_CURVE('',#107,#107,#93,.T.);
#129=EDGE_CURVE('',#108,#108,#94,.T.);
#130=EDGE_CURVE('',#108,#109,#61,.T.);
#131=EDGE_CURVE('',#109,#109,#95,.T.);
#132=EDGE_CURVE('',#110,#110,#96,.T.);
#133=EDGE_CURVE('',#110,#111,#62,.T.);
#134=EDGE_CURVE('',#111,#111,#97,.T.);
#135=EDGE_CURVE('',#112,#112,#98,.T.);
#136=EDGE_CURVE('',#112,#113,#63,.T.);
#137=EDGE_CURVE('',#113,#113,#99,.T.);
#138=EDGE_CURVE('',#114,#115,#64,.T.);
#139=EDGE_CURVE('',#115,#116,#65,.T.);
#140=EDGE_CURVE('',#117,#116,#66,.T.);
#141=EDGE_CURVE('',#114,#117,#67,.T.);
#142=EDGE_CURVE('',#118,#114,#100,.T.);
#143=EDGE_CURVE('',#119,#117,#101,.T.);
#144=EDGE_CURVE('',#118,#119,#68,.T.);
#145=EDGE_CURVE('',#120,#118,#69,.T.);
#146=EDGE_CURVE('',#121,#119,#70,.T.);
#147=EDGE_CURVE('',#120,#121,#71,.T.);
#148=EDGE_CURVE('',#122,#120,#102,.T.);
#149=EDGE_CURVE('',#123,#121,#103,.T.);
#150=EDGE_CURVE('',#122,#123,#72,.T.);
#151=EDGE_CURVE('',#124,#122,#73,.T.);
#152=EDGE_CURVE('',#125,#123,#74,.T.);
#153=EDGE_CURVE('',#124,#125,#75,.T.);
#154=EDGE_CURVE('',#115,#124,#104,.T.);
#155=EDGE_CURVE('',#116,#125,#105,.T.);
#156=ORIENTED_EDGE('',*,*,#126,.F.);
#157=ORIENTED_EDGE('',*,*,#127,.T.);
#158=ORIENTED_EDGE('',*,*,#128,.T.);
#159=ORIENTED_EDGE('',*,*,#127,.F.);
#160=ORIENTED_EDGE('',*,*,#129,.F.);
#161=ORIENTED_EDGE('',*,*,#130,.T.);
#162=ORIENTED_EDGE('',*,*,#131,.T.);
#163=ORIENTED_EDGE('',*,*,#130,.F.);
#164=ORIENTED_EDGE('',*,*,#132,.F.);
#165=ORIENTED_EDGE('',*,*,#133,.T.);
#166=ORIENTED_EDGE('',*,*,#134,.T.);
#167=ORIENTED_EDGE('',*,*,#133,.F.);
#168=ORIENTED_EDGE('',*,*,#135,.F.);
#169=ORIENTED_EDGE('',*,*,#136,.T.);
#170=ORIENTED_EDGE('',*,*,#137,.T.);
#171=ORIENTED_EDGE('',*,*,#136,.F.);
#172=ORIENTED_EDGE('',*,*,#138,.T.);
#173=ORIENTED_EDGE('',*,*,#139,.T.);
#174=ORIENTED_EDGE('',*,*,#140,.F.);
#175=ORIENTED_EDGE('',*,*,#141,.F.);
#176=ORIENTED_EDGE('',*,*,#142,.T.);
#177=ORIENTED_EDGE('',*,*,#141,.T.);
#178=ORIENTED_EDGE('',*,*,#143,.F.);
#179=ORIENTED_EDGE('',*,*,#144,.F.);
#180=ORIENTED_EDGE('',*,*,#145,.T.);
#181=ORIENTED_EDGE('',*,*,#144,.T.);
#182=ORIENTED_EDGE('',*,*,#146,.F.);
#183=ORIENTED_EDGE('',*,*,#147,.F.);
#184=ORIENTED_EDGE('',*,*,#148,.T.);
#185=ORIENTED_EDGE('',*,*,#147,.T.);
#186=ORIENTED_EDGE('',*,*,#149,.F.);
#187=ORIENTED_EDGE('',*,*,#150,.F.);
#188=ORIENTED_EDGE('',*,*,#151,.T.);
#189=ORIENTED_EDGE('',*,*,#150,.T.);
#190=ORIENTED_EDGE('',*,*,#152,.F.);
#191=ORIENTED_EDGE('',*,*,#153,.F.);
#192=ORIENTED_EDGE('',*,*,#154,.T.);
#193=ORIENTED_EDGE('',*,*,#153,.T.);
#194=ORIENTED_EDGE('',*,*,#155,.F.);
#195=ORIENTED_EDGE('',*,*,#139,.F.);
#196=ORIENTED_EDGE('',*,*,#155,.T.);
#197=ORIENTED_EDGE('',*,*,#152,.T.);
#198=ORIENTED_EDGE('',*,*,#149,.T.);
#199=ORIENTED_EDGE('',*,*,#146,.T.);
#200=ORIENTED_EDGE('',*,*,#143,.T.);
#201=ORIENTED_EDGE('',*,*,#140,.T.);
#202=ORIENTED_EDGE('',*,*,#135,.T.);
#203=ORIENTED_EDGE('',*,*,#132,.T.);
#204=ORIENTED_EDGE('',*,*,#129,.T.);
#205=ORIENTED_EDGE('',*,*,#126,.T.);
#206=ORIENTED_EDGE('',*,*,#154,.F.);
#207=ORIENTED_EDGE('',*,*,#138,.F.);
#208=ORIENTED_EDGE('',*,*,#142,.F.);
#209=ORIENTED_EDGE('',*,*,#145,.F.);
#210=ORIENTED_EDGE('',*,*,#148,.F.);
#211=ORIENTED_EDGE('',*,*,#151,.F.);
#212=ORIENTED_EDGE('',*,*,#137,.F.);
#213=ORIENTED_EDGE('',*,*,#134,.F.);
#214=ORIENTED_EDGE('',*,*,#131,.F.);
#215=ORIENTED_EDGE('',*,*,#128,.F.);
#216=CYLINDRICAL_SURFACE('',#257,0.0884999999999999);
#217=CYLINDRICAL_SURFACE('',#260,0.0885);
#218=CYLINDRICAL_SURFACE('',#263,0.0885);
#219=CYLINDRICAL_SURFACE('',#266,0.08885);
#220=CYLINDRICAL_SURFACE('',#270,1.);
#221=CYLINDRICAL_SURFACE('',#274,0.25);
#222=CYLINDRICAL_SURFACE('',#278,0.1875);
#223=ADVANCED_FACE('',(#28),#216,.F.);
#224=ADVANCED_FACE('',(#29),#217,.F.);
#225=ADVANCED_FACE('',(#30),#218,.F.);
#226=ADVANCED_FACE('',(#31),#219,.F.);
#227=ADVANCED_FACE('',(#32),#23,.T.);
#228=ADVANCED_FACE('',(#33),#220,.T.);
#229=ADVANCED_FACE('',(#34),#24,.T.);
#230=ADVANCED_FACE('',(#35),#221,.T.);
#231=ADVANCED_FACE('',(#36),#25,.T.);
#232=ADVANCED_FACE('',(#37),#222,.T.);
#233=ADVANCED_FACE('',(#38,#15,#16,#17,#18),#26,.T.);
#234=ADVANCED_FACE('',(#39,#19,#20,#21,#22),#27,.F.);
#235=CLOSED_SHELL('',(#223,#224,#225,#226,#227,#228,#229,#230,#231,#232,
#233,#234));
#236=DERIVED_UNIT_ELEMENT(#238,1.);
#237=DERIVED_UNIT_ELEMENT(#424,-3.);
#238=(
CONVERSION_BASED_UNIT('gram',#240)
MASS_UNIT()
NAMED_UNIT(#421)
);
#239=(
MASS_UNIT()
NAMED_UNIT(*)
SI_UNIT(.KILO.,.GRAM.)
);
#240=MASS_MEASURE_WITH_UNIT(MASS_MEASURE(0.001),#239);
#241=DERIVED_UNIT((#236,#237));
#242=MEASURE_REPRESENTATION_ITEM('density measure',
POSITIVE_RATIO_MEASURE(1.),#241);
#243=PROPERTY_DEFINITION_REPRESENTATION(#248,#245);
#244=PROPERTY_DEFINITION_REPRESENTATION(#249,#246);
#245=REPRESENTATION('material name',(#247),#418);
#246=REPRESENTATION('density',(#242),#418);
#247=DESCRIPTIVE_REPRESENTATION_ITEM('Generic','Generic');
#248=PROPERTY_DEFINITION('material property','material name',#432);
#249=PROPERTY_DEFINITION('material property','density of part',#432);
#250=DATE_TIME_ROLE('creation_date');
#251=APPLIED_DATE_AND_TIME_ASSIGNMENT(#252,#250,(#432));
#252=DATE_AND_TIME(#253,#254);
#253=CALENDAR_DATE(2026,23,1);
#254=LOCAL_TIME(0,0,0.,#255);
#255=COORDINATED_UNIVERSAL_TIME_OFFSET(0,0,.BEHIND.);
#256=AXIS2_PLACEMENT_3D('',#353,#283,#284);
#257=AXIS2_PLACEMENT_3D('',#354,#285,#286);
#258=AXIS2_PLACEMENT_3D('',#356,#287,#288);
#259=AXIS2_PLACEMENT_3D('',#359,#290,#291);
#260=AXIS2_PLACEMENT_3D('',#360,#292,#293);
#261=AXIS2_PLACEMENT_3D('',#362,#294,#295);
#262=AXIS2_PLACEMENT_3D('',#365,#297,#298);
#263=AXIS2_PLACEMENT_3D('',#366,#299,#300);
#264=AXIS2_PLACEMENT_3D('',#368,#301,#302);
#265=AXIS2_PLACEMENT_3D('',#371,#304,#305);
#266=AXIS2_PLACEMENT_3D('',#372,#306,#307);
#267=AXIS2_PLACEMENT_3D('',#374,#308,#309);
#268=AXIS2_PLACEMENT_3D('',#377,#311,#312);
#269=AXIS2_PLACEMENT_3D('',#378,#313,#314);
#270=AXIS2_PLACEMENT_3D('',#387,#319,#320);
#271=AXIS2_PLACEMENT_3D('',#389,#321,#322);
#272=AXIS2_PLACEMENT_3D('',#391,#323,#324);
#273=AXIS2_PLACEMENT_3D('',#393,#326,#327);
#274=AXIS2_PLACEMENT_3D('',#399,#331,#332);
#275=AXIS2_PLACEMENT_3D('',#401,#333,#334);
#276=AXIS2_PLACEMENT_3D('',#403,#335,#336);
#277=AXIS2_PLACEMENT_3D('',#405,#338,#339);
#278=AXIS2_PLACEMENT_3D('',#411,#343,#344);
#279=AXIS2_PLACEMENT_3D('',#412,#345,#346);
#280=AXIS2_PLACEMENT_3D('',#413,#347,#348);
#281=AXIS2_PLACEMENT_3D('',#414,#349,#350);
#282=AXIS2_PLACEMENT_3D('',#415,#351,#352);
#283=DIRECTION('axis',(0.,0.,1.));
#284=DIRECTION('refdir',(1.,0.,0.));
#285=DIRECTION('center_axis',(0.,0.,1.));
#286=DIRECTION('ref_axis',(-1.,0.,0.));
#287=DIRECTION('center_axis',(0.,0.,-1.));
#288=DIRECTION('ref_axis',(-1.,0.,0.));
#289=DIRECTION('',(0.,0.,-1.));
#290=DIRECTION('center_axis',(0.,0.,-1.));
#291=DIRECTION('ref_axis',(-1.,0.,0.));
#292=DIRECTION('center_axis',(0.,0.,1.));
#293=DIRECTION('ref_axis',(-1.,0.,0.));
#294=DIRECTION('center_axis',(0.,0.,-1.));
#295=DIRECTION('ref_axis',(-1.,0.,0.));
#296=DIRECTION('',(0.,0.,-1.));
#297=DIRECTION('center_axis',(0.,0.,-1.));
#298=DIRECTION('ref_axis',(-1.,0.,0.));
#299=DIRECTION('center_axis',(0.,0.,1.));
#300=DIRECTION('ref_axis',(-1.,0.,0.));
#301=DIRECTION('center_axis',(0.,0.,-1.));
#302=DIRECTION('ref_axis',(-1.,0.,0.));
#303=DIRECTION('',(0.,0.,-1.));
#304=DIRECTION('center_axis',(0.,0.,-1.));
#305=DIRECTION('ref_axis',(-1.,0.,0.));
#306=DIRECTION('center_axis',(0.,0.,1.));
#307=DIRECTION('ref_axis',(-1.,0.,0.));
#308=DIRECTION('center_axis',(0.,0.,-1.));
#309=DIRECTION('ref_axis',(-1.,0.,0.));
#310=DIRECTION('',(0.,0.,-1.));
#311=DIRECTION('center_axis',(0.,0.,-1.));
#312=DIRECTION('ref_axis',(-1.,0.,0.));
#313=DIRECTION('center_axis',(-0.989735577928084,0.142910761607944,0.));
#314=DIRECTION('ref_axis',(-0.142910761607944,-0.989735577928084,0.));
#315=DIRECTION('',(-0.142910761607944,-0.989735577928084,0.));
#316=DIRECTION('',(0.,0.,1.));
#317=DIRECTION('',(-0.142910761607944,-0.989735577928084,0.));
#318=DIRECTION('',(0.,0.,1.));
#319=DIRECTION('center_axis',(0.,0.,1.));
#320=DIRECTION('ref_axis',(0.252521807687659,0.96759120326828,0.));
#321=DIRECTION('center_axis',(0.,0.,1.));
#322=DIRECTION('ref_axis',(0.933347144393402,-0.358975079988406,0.));
#323=DIRECTION('center_axis',(0.,0.,1.));
#324=DIRECTION('ref_axis',(0.933347144393402,-0.358975079988406,0.));
#325=DIRECTION('',(0.,0.,1.));
#326=DIRECTION('center_axis',(0.933347144393402,-0.358975079988405,0.));
#327=DIRECTION('ref_axis',(0.358975079988405,0.933347144393402,0.));
#328=DIRECTION('',(0.358975079988405,0.933347144393402,0.));
#329=DIRECTION('',(0.358975079988405,0.933347144393402,0.));
#330=DIRECTION('',(0.,0.,1.));
#331=DIRECTION('center_axis',(0.,0.,1.));
#332=DIRECTION('ref_axis',(-0.99358884007603,0.113054044051372,0.));
#333=DIRECTION('center_axis',(0.,0.,1.));
#334=DIRECTION('ref_axis',(-0.99358884007603,0.113054044051372,0.));
#335=DIRECTION('center_axis',(0.,0.,1.));
#336=DIRECTION('ref_axis',(-0.99358884007603,0.113054044051372,0.));
#337=DIRECTION('',(0.,0.,1.));
#338=DIRECTION('center_axis',(-0.99358884007603,0.113054044051373,0.));
#339=DIRECTION('ref_axis',(-0.113054044051373,-0.99358884007603,0.));
#340=DIRECTION('',(-0.113054044051373,-0.99358884007603,0.));
#341=DIRECTION('',(-0.113054044051373,-0.99358884007603,0.));
#342=DIRECTION('',(0.,0.,1.));
#343=DIRECTION('center_axis',(0.,0.,1.));
#344=DIRECTION('ref_axis',(-0.989735577928083,0.142910761607944,0.));
#345=DIRECTION('center_axis',(0.,0.,1.));
#346=DIRECTION('ref_axis',(-0.989735577928083,0.142910761607944,0.));
#347=DIRECTION('center_axis',(0.,0.,1.));
#348=DIRECTION('ref_axis',(-0.989735577928083,0.142910761607944,0.));
#349=DIRECTION('center_axis',(0.,0.,1.));
#350=DIRECTION('ref_axis',(1.,0.,0.));
#351=DIRECTION('center_axis',(0.,0.,1.));
#352=DIRECTION('ref_axis',(1.,0.,0.));
#353=CARTESIAN_POINT('',(0.,0.,0.));
#354=CARTESIAN_POINT('Origin',(0.979372670084204,5.56700467412748,0.));
#355=CARTESIAN_POINT('',(1.0678726700842,5.56700467412748,0.2));
#356=CARTESIAN_POINT('Origin',(0.979372670084204,5.56700467412748,0.2));
#357=CARTESIAN_POINT('',(1.0678726700842,5.56700467412748,0.));
#358=CARTESIAN_POINT('',(1.0678726700842,5.56700467412748,0.));
#359=CARTESIAN_POINT('Origin',(0.979372670084204,5.56700467412748,0.));
#360=CARTESIAN_POINT('Origin',(1.39819569511077,6.67464512998251,0.));
#361=CARTESIAN_POINT('',(1.48669569511077,6.67464512998251,0.2));
#362=CARTESIAN_POINT('Origin',(1.39819569511077,6.67464512998251,0.2));
#363=CARTESIAN_POINT('',(1.48669569511077,6.67464512998251,0.));
#364=CARTESIAN_POINT('',(1.48669569511077,6.67464512998251,0.));
#365=CARTESIAN_POINT('Origin',(1.39819569511077,6.67464512998251,0.));
#366=CARTESIAN_POINT('Origin',(-0.25,0.300000000000092,0.));
#367=CARTESIAN_POINT('',(-0.1615,0.300000000000092,0.2));
#368=CARTESIAN_POINT('Origin',(-0.25,0.300000000000092,0.2));
#369=CARTESIAN_POINT('',(-0.1615,0.300000000000092,0.));
#370=CARTESIAN_POINT('',(-0.1615,0.300000000000092,0.));
#371=CARTESIAN_POINT('Origin',(-0.25,0.300000000000092,0.));
#372=CARTESIAN_POINT('Origin',(-0.200341529919669,1.28926228270309,0.));
#373=CARTESIAN_POINT('',(-0.111491529919669,1.28926228270309,0.2));
#374=CARTESIAN_POINT('Origin',(-0.200341529919669,1.28926228270309,0.2));
#375=CARTESIAN_POINT('',(-0.111491529919669,1.28926228270309,0.));
#376=CARTESIAN_POINT('',(-0.111491529919669,1.28926228270309,0.));
#377=CARTESIAN_POINT('Origin',(-0.200341529919669,1.28926228270309,0.));
#378=CARTESIAN_POINT('Origin',(0.408460117182687,6.81755589159045,0.));
#379=CARTESIAN_POINT('',(0.408460117182687,6.81755589159045,0.));
#380=CARTESIAN_POINT('',(-0.385916950781184,1.31605805050458,0.));
#381=CARTESIAN_POINT('',(0.408460117182687,6.81755589159045,0.));
#382=CARTESIAN_POINT('',(-0.385916950781184,1.31605805050458,0.2));
#383=CARTESIAN_POINT('',(-0.385916950781184,1.31605805050458,0.));
#384=CARTESIAN_POINT('',(0.408460117182687,6.81755589159045,0.2));
#385=CARTESIAN_POINT('',(0.408460117182687,6.81755589159045,0.2));
#386=CARTESIAN_POINT('',(0.408460117182687,6.81755589159045,0.));
#387=CARTESIAN_POINT('Origin',(1.39819569511077,6.67464512998251,0.));
#388=CARTESIAN_POINT('',(2.33154283950417,6.3156700499941,0.));
#389=CARTESIAN_POINT('Origin',(1.39819569511077,6.67464512998251,0.));
#390=CARTESIAN_POINT('',(2.33154283950417,6.3156700499941,0.2));
#391=CARTESIAN_POINT('Origin',(1.39819569511077,6.67464512998251,0.2));
#392=CARTESIAN_POINT('',(2.33154283950417,6.3156700499941,0.));
#393=CARTESIAN_POINT('Origin',(-0.016663213901649,0.210256230002991,0.));
#394=CARTESIAN_POINT('',(-0.016663213901649,0.210256230002991,0.));
#395=CARTESIAN_POINT('',(-0.016663213901649,0.210256230002991,0.));
#396=CARTESIAN_POINT('',(-0.016663213901649,0.210256230002991,0.2));
#397=CARTESIAN_POINT('',(-0.016663213901649,0.210256230002991,0.2));
#398=CARTESIAN_POINT('',(-0.016663213901649,0.210256230002991,0.));
#399=CARTESIAN_POINT('Origin',(-0.25,0.300000000000092,0.));
#400=CARTESIAN_POINT('',(-0.498397210019007,0.328263511012936,0.));
#401=CARTESIAN_POINT('Origin',(-0.25,0.300000000000092,0.));
#402=CARTESIAN_POINT('',(-0.498397210019007,0.328263511012936,0.2));
#403=CARTESIAN_POINT('Origin',(-0.25,0.300000000000092,0.2));
#404=CARTESIAN_POINT('',(-0.498397210019007,0.328263511012936,0.));
#405=CARTESIAN_POINT('Origin',(-0.386639437433924,1.31045991596272,0.));
#406=CARTESIAN_POINT('',(-0.386639437433924,1.31045991596272,0.));
#407=CARTESIAN_POINT('',(-0.386639437433924,1.31045991596272,0.));
#408=CARTESIAN_POINT('',(-0.386639437433924,1.31045991596272,0.2));
#409=CARTESIAN_POINT('',(-0.386639437433924,1.31045991596272,0.2));
#410=CARTESIAN_POINT('',(-0.386639437433924,1.31045991596272,0.));
#411=CARTESIAN_POINT('Origin',(-0.200341529919669,1.28926228270309,0.));
#412=CARTESIAN_POINT('Origin',(-0.200341529919669,1.28926228270309,0.));
#413=CARTESIAN_POINT('Origin',(-0.200341529919669,1.28926228270309,0.2));
#414=CARTESIAN_POINT('Origin',(0.949097847555386,3.8623225649913,0.2));
#415=CARTESIAN_POINT('Origin',(0.949097847555386,3.8623225649913,0.));
#416=UNCERTAINTY_MEASURE_WITH_UNIT(LENGTH_MEASURE(0.000393700787401575),
#422,'DISTANCE_ACCURACY_VALUE',
'Maximum model space distance between geometric entities at asserted c
onnectivities');
#417=UNCERTAINTY_MEASURE_WITH_UNIT(LENGTH_MEASURE(0.000393700787401575),
#422,'DISTANCE_ACCURACY_VALUE',
'Maximum model space distance between geometric entities at asserted c
onnectivities');
#418=(
GEOMETRIC_REPRESENTATION_CONTEXT(3)
GLOBAL_UNCERTAINTY_ASSIGNED_CONTEXT((#416))
GLOBAL_UNIT_ASSIGNED_CONTEXT((#422,#426,#427))
REPRESENTATION_CONTEXT('','3D')
);
#419=(
GEOMETRIC_REPRESENTATION_CONTEXT(3)
GLOBAL_UNCERTAINTY_ASSIGNED_CONTEXT((#417))
GLOBAL_UNIT_ASSIGNED_CONTEXT((#422,#426,#427))
REPRESENTATION_CONTEXT('','3D')
);
#420=DIMENSIONAL_EXPONENTS(1.,0.,0.,0.,0.,0.,0.);
#421=DIMENSIONAL_EXPONENTS(0.,1.,0.,0.,0.,0.,0.);
#422=(
CONVERSION_BASED_UNIT('inch',#425)
LENGTH_UNIT()
NAMED_UNIT(#420)
);
#423=(
LENGTH_UNIT()
NAMED_UNIT(*)
SI_UNIT(.MILLI.,.METRE.)
);
#424=(
LENGTH_UNIT()
NAMED_UNIT(*)
SI_UNIT(.CENTI.,.METRE.)
);
#425=LENGTH_MEASURE_WITH_UNIT(LENGTH_MEASURE(25.4),#423);
#426=(
NAMED_UNIT(*)
PLANE_ANGLE_UNIT()
SI_UNIT($,.RADIAN.)
);
#427=(
NAMED_UNIT(*)
SI_UNIT($,.STERADIAN.)
SOLID_ANGLE_UNIT()
);
#428=SHAPE_DEFINITION_REPRESENTATION(#429,#430);
#429=PRODUCT_DEFINITION_SHAPE('',$,#432);
#430=SHAPE_REPRESENTATION('',(#256),#418);
#431=PRODUCT_DEFINITION_CONTEXT('part definition',#436,'design');
#432=PRODUCT_DEFINITION('matchloaderbar','matchloaderbar',#433,#431);
#433=PRODUCT_DEFINITION_FORMATION('',$,#438);
#434=PRODUCT_RELATED_PRODUCT_CATEGORY('matchloaderbar','matchloaderbar',
(#438));
#435=APPLICATION_PROTOCOL_DEFINITION('international standard',
'automotive_design',2009,#436);
#436=APPLICATION_CONTEXT(
'Core Data for Automotive Mechanical Design Process');
#437=PRODUCT_CONTEXT('part definition',#436,'mechanical');
#438=PRODUCT('matchloaderbar','matchloaderbar',$,(#437));
#439=PRESENTATION_STYLE_ASSIGNMENT((#440));
#440=SURFACE_STYLE_USAGE(.BOTH.,#443);
#441=SURFACE_STYLE_RENDERING_WITH_PROPERTIES($,#447,(#442));
#442=SURFACE_STYLE_TRANSPARENT(0.);
#443=SURFACE_SIDE_STYLE('',(#444,#441));
#444=SURFACE_STYLE_FILL_AREA(#445);
#445=FILL_AREA_STYLE('',(#446));
#446=FILL_AREA_STYLE_COLOUR('',#447);
#447=COLOUR_RGB('',0.749019607843137,0.749019607843137,0.749019607843137);
ENDSEC;
END-ISO-10303-21;
