ISO-10303-21;
HEADER;
/* Generated by software containing ST-Developer
 * from STEP Tools, Inc. (www.steptools.com) 
 */

FILE_DESCRIPTION(
/* description */ (''),
/* implementation_level */ '2;1');

FILE_NAME(
/* name */ 'parkbrake.stp',
/* time_stamp */ '2026-01-12T23:11:49+13:00',
/* author */ ('cloudy'),
/* organization */ (''),
/* preprocessor_version */ 'ST-DEVELOPER v20',
/* originating_system */ 'Autodesk Inventor 2025',
/* authorisation */ '');

FILE_SCHEMA (('AUTOMOTIVE_DESIGN { 1 0 10303 214 3 1 1 }'));
ENDSEC;

DATA;
#10=MECHANICAL_DESIGN_GEOMETRIC_PRESENTATION_REPRESENTATION('',(#13),#837);
#11=SHAPE_REPRESENTATION_RELATIONSHIP('SRR','None',#848,#12);
#12=ADVANCED_BREP_SHAPE_REPRESENTATION('',(#14),#836);
#13=STYLED_ITEM('',(#857),#14);
#14=MANIFOLD_SOLID_BREP('Solid1',#481);
#15=FACE_BOUND('',#84,.T.);
#16=FACE_BOUND('',#85,.T.);
#17=FACE_BOUND('',#86,.T.);
#18=FACE_BOUND('',#87,.T.);
#19=FACE_BOUND('',#88,.T.);
#20=FACE_BOUND('',#89,.T.);
#21=FACE_BOUND('',#91,.T.);
#22=FACE_BOUND('',#92,.T.);
#23=FACE_BOUND('',#93,.T.);
#24=FACE_BOUND('',#94,.T.);
#25=FACE_BOUND('',#95,.T.);
#26=FACE_BOUND('',#96,.T.);
#27=PLANE('',#506);
#28=PLANE('',#510);
#29=PLANE('',#529);
#30=PLANE('',#533);
#31=PLANE('',#537);
#32=PLANE('',#541);
#33=PLANE('',#545);
#34=PLANE('',#549);
#35=PLANE('',#553);
#36=PLANE('',#554);
#37=FACE_OUTER_BOUND('',#61,.T.);
#38=FACE_OUTER_BOUND('',#62,.T.);
#39=FACE_OUTER_BOUND('',#63,.T.);
#40=FACE_OUTER_BOUND('',#64,.T.);
#41=FACE_OUTER_BOUND('',#65,.T.);
#42=FACE_OUTER_BOUND('',#66,.T.);
#43=FACE_OUTER_BOUND('',#67,.T.);
#44=FACE_OUTER_BOUND('',#68,.T.);
#45=FACE_OUTER_BOUND('',#69,.T.);
#46=FACE_OUTER_BOUND('',#70,.T.);
#47=FACE_OUTER_BOUND('',#71,.T.);
#48=FACE_OUTER_BOUND('',#72,.T.);
#49=FACE_OUTER_BOUND('',#73,.T.);
#50=FACE_OUTER_BOUND('',#74,.T.);
#51=FACE_OUTER_BOUND('',#75,.T.);
#52=FACE_OUTER_BOUND('',#76,.T.);
#53=FACE_OUTER_BOUND('',#77,.T.);
#54=FACE_OUTER_BOUND('',#78,.T.);
#55=FACE_OUTER_BOUND('',#79,.T.);
#56=FACE_OUTER_BOUND('',#80,.T.);
#57=FACE_OUTER_BOUND('',#81,.T.);
#58=FACE_OUTER_BOUND('',#82,.T.);
#59=FACE_OUTER_BOUND('',#83,.T.);
#60=FACE_OUTER_BOUND('',#90,.T.);
#61=EDGE_LOOP('',(#311,#312,#313,#314));
#62=EDGE_LOOP('',(#315,#316,#317,#318));
#63=EDGE_LOOP('',(#319,#320,#321,#322));
#64=EDGE_LOOP('',(#323,#324,#325,#326));
#65=EDGE_LOOP('',(#327,#328,#329,#330));
#66=EDGE_LOOP('',(#331,#332,#333,#334));
#67=EDGE_LOOP('',(#335,#336,#337,#338));
#68=EDGE_LOOP('',(#339,#340,#341,#342));
#69=EDGE_LOOP('',(#343,#344,#345,#346));
#70=EDGE_LOOP('',(#347,#348,#349,#350));
#71=EDGE_LOOP('',(#351,#352,#353,#354));
#72=EDGE_LOOP('',(#355,#356,#357,#358));
#73=EDGE_LOOP('',(#359,#360,#361,#362));
#74=EDGE_LOOP('',(#363,#364,#365,#366));
#75=EDGE_LOOP('',(#367,#368,#369,#370));
#76=EDGE_LOOP('',(#371,#372,#373,#374));
#77=EDGE_LOOP('',(#375,#376,#377,#378));
#78=EDGE_LOOP('',(#379,#380,#381,#382));
#79=EDGE_LOOP('',(#383,#384,#385,#386));
#80=EDGE_LOOP('',(#387,#388,#389,#390));
#81=EDGE_LOOP('',(#391,#392,#393,#394));
#82=EDGE_LOOP('',(#395,#396,#397,#398));
#83=EDGE_LOOP('',(#399,#400,#401,#402,#403,#404,#405,#406,#407,#408,#409,
#410,#411,#412,#413,#414));
#84=EDGE_LOOP('',(#415));
#85=EDGE_LOOP('',(#416));
#86=EDGE_LOOP('',(#417));
#87=EDGE_LOOP('',(#418));
#88=EDGE_LOOP('',(#419));
#89=EDGE_LOOP('',(#420));
#90=EDGE_LOOP('',(#421,#422,#423,#424,#425,#426,#427,#428,#429,#430,#431,
#432,#433,#434,#435,#436));
#91=EDGE_LOOP('',(#437));
#92=EDGE_LOOP('',(#438));
#93=EDGE_LOOP('',(#439));
#94=EDGE_LOOP('',(#440));
#95=EDGE_LOOP('',(#441));
#96=EDGE_LOOP('',(#442));
#97=LINE('',#705,#135);
#98=LINE('',#708,#136);
#99=LINE('',#711,#137);
#100=LINE('',#713,#138);
#101=LINE('',#714,#139);
#102=LINE('',#720,#140);
#103=LINE('',#723,#141);
#104=LINE('',#725,#142);
#105=LINE('',#726,#143);
#106=LINE('',#731,#144);
#107=LINE('',#737,#145);
#108=LINE('',#743,#146);
#109=LINE('',#749,#147);
#110=LINE('',#755,#148);
#111=LINE('',#761,#149);
#112=LINE('',#766,#150);
#113=LINE('',#768,#151);
#114=LINE('',#770,#152);
#115=LINE('',#771,#153);
#116=LINE('',#777,#154);
#117=LINE('',#780,#155);
#118=LINE('',#782,#156);
#119=LINE('',#783,#157);
#120=LINE('',#789,#158);
#121=LINE('',#792,#159);
#122=LINE('',#794,#160);
#123=LINE('',#795,#161);
#124=LINE('',#801,#162);
#125=LINE('',#804,#163);
#126=LINE('',#806,#164);
#127=LINE('',#807,#165);
#128=LINE('',#813,#166);
#129=LINE('',#815,#167);
#130=LINE('',#816,#168);
#131=LINE('',#822,#169);
#132=LINE('',#825,#170);
#133=LINE('',#827,#171);
#134=LINE('',#828,#172);
#135=VECTOR('',#561,0.393700787401575);
#136=VECTOR('',#564,0.393700787401575);
#137=VECTOR('',#567,0.393700787401575);
#138=VECTOR('',#568,0.393700787401575);
#139=VECTOR('',#569,0.393700787401575);
#140=VECTOR('',#574,0.393700787401575);
#141=VECTOR('',#577,0.393700787401575);
#142=VECTOR('',#580,0.393700787401575);
#143=VECTOR('',#581,0.393700787401575);
#144=VECTOR('',#586,0.086);
#145=VECTOR('',#593,0.0860000000000022);
#146=VECTOR('',#600,0.086);
#147=VECTOR('',#607,0.0860000000000022);
#148=VECTOR('',#614,0.0860000000000022);
#149=VECTOR('',#621,0.086);
#150=VECTOR('',#626,0.393700787401575);
#151=VECTOR('',#627,0.393700787401575);
#152=VECTOR('',#628,0.393700787401575);
#153=VECTOR('',#629,0.393700787401575);
#154=VECTOR('',#636,0.393700787401575);
#155=VECTOR('',#639,0.393700787401575);
#156=VECTOR('',#640,0.393700787401575);
#157=VECTOR('',#641,0.393700787401575);
#158=VECTOR('',#648,0.393700787401575);
#159=VECTOR('',#651,0.393700787401575);
#160=VECTOR('',#652,0.393700787401575);
#161=VECTOR('',#653,0.393700787401575);
#162=VECTOR('',#660,0.393700787401575);
#163=VECTOR('',#663,0.393700787401575);
#164=VECTOR('',#664,0.393700787401575);
#165=VECTOR('',#665,0.393700787401575);
#166=VECTOR('',#674,0.393700787401575);
#167=VECTOR('',#675,0.393700787401575);
#168=VECTOR('',#676,0.393700787401575);
#169=VECTOR('',#683,0.393700787401575);
#170=VECTOR('',#686,0.393700787401575);
#171=VECTOR('',#687,0.393700787401575);
#172=VECTOR('',#688,0.393700787401575);
#173=CIRCLE('',#504,0.125);
#174=CIRCLE('',#505,0.125);
#175=CIRCLE('',#508,0.125);
#176=CIRCLE('',#509,0.125);
#177=CIRCLE('',#512,0.086);
#178=CIRCLE('',#513,0.086);
#179=CIRCLE('',#515,0.0860000000000022);
#180=CIRCLE('',#516,0.0860000000000022);
#181=CIRCLE('',#518,0.086);
#182=CIRCLE('',#519,0.086);
#183=CIRCLE('',#521,0.0860000000000022);
#184=CIRCLE('',#522,0.0860000000000022);
#185=CIRCLE('',#524,0.0860000000000022);
#186=CIRCLE('',#525,0.0860000000000022);
#187=CIRCLE('',#527,0.086);
#188=CIRCLE('',#528,0.086);
#189=CIRCLE('',#531,0.1);
#190=CIRCLE('',#532,0.1);
#191=CIRCLE('',#535,0.1);
#192=CIRCLE('',#536,0.1);
#193=CIRCLE('',#539,0.1);
#194=CIRCLE('',#540,0.1);
#195=CIRCLE('',#543,0.1);
#196=CIRCLE('',#544,0.1);
#197=CIRCLE('',#547,0.1);
#198=CIRCLE('',#548,0.1);
#199=CIRCLE('',#551,0.1);
#200=CIRCLE('',#552,0.1);
#201=VERTEX_POINT('',#701);
#202=VERTEX_POINT('',#702);
#203=VERTEX_POINT('',#704);
#204=VERTEX_POINT('',#706);
#205=VERTEX_POINT('',#710);
#206=VERTEX_POINT('',#712);
#207=VERTEX_POINT('',#716);
#208=VERTEX_POINT('',#717);
#209=VERTEX_POINT('',#719);
#210=VERTEX_POINT('',#721);
#211=VERTEX_POINT('',#728);
#212=VERTEX_POINT('',#730);
#213=VERTEX_POINT('',#734);
#214=VERTEX_POINT('',#736);
#215=VERTEX_POINT('',#740);
#216=VERTEX_POINT('',#742);
#217=VERTEX_POINT('',#746);
#218=VERTEX_POINT('',#748);
#219=VERTEX_POINT('',#752);
#220=VERTEX_POINT('',#754);
#221=VERTEX_POINT('',#758);
#222=VERTEX_POINT('',#760);
#223=VERTEX_POINT('',#764);
#224=VERTEX_POINT('',#765);
#225=VERTEX_POINT('',#767);
#226=VERTEX_POINT('',#769);
#227=VERTEX_POINT('',#773);
#228=VERTEX_POINT('',#775);
#229=VERTEX_POINT('',#779);
#230=VERTEX_POINT('',#781);
#231=VERTEX_POINT('',#785);
#232=VERTEX_POINT('',#787);
#233=VERTEX_POINT('',#791);
#234=VERTEX_POINT('',#793);
#235=VERTEX_POINT('',#797);
#236=VERTEX_POINT('',#799);
#237=VERTEX_POINT('',#803);
#238=VERTEX_POINT('',#805);
#239=VERTEX_POINT('',#812);
#240=VERTEX_POINT('',#814);
#241=VERTEX_POINT('',#818);
#242=VERTEX_POINT('',#820);
#243=VERTEX_POINT('',#824);
#244=VERTEX_POINT('',#826);
#245=EDGE_CURVE('',#201,#202,#173,.T.);
#246=EDGE_CURVE('',#202,#203,#97,.T.);
#247=EDGE_CURVE('',#203,#204,#174,.T.);
#248=EDGE_CURVE('',#204,#201,#98,.T.);
#249=EDGE_CURVE('',#202,#205,#99,.T.);
#250=EDGE_CURVE('',#205,#206,#100,.T.);
#251=EDGE_CURVE('',#203,#206,#101,.T.);
#252=EDGE_CURVE('',#207,#208,#175,.T.);
#253=EDGE_CURVE('',#208,#209,#102,.T.);
#254=EDGE_CURVE('',#209,#210,#176,.T.);
#255=EDGE_CURVE('',#210,#207,#103,.T.);
#256=EDGE_CURVE('',#209,#204,#104,.T.);
#257=EDGE_CURVE('',#208,#201,#105,.T.);
#258=EDGE_CURVE('',#211,#211,#177,.T.);
#259=EDGE_CURVE('',#211,#212,#106,.T.);
#260=EDGE_CURVE('',#212,#212,#178,.T.);
#261=EDGE_CURVE('',#213,#213,#179,.T.);
#262=EDGE_CURVE('',#213,#214,#107,.T.);
#263=EDGE_CURVE('',#214,#214,#180,.T.);
#264=EDGE_CURVE('',#215,#215,#181,.T.);
#265=EDGE_CURVE('',#215,#216,#108,.T.);
#266=EDGE_CURVE('',#216,#216,#182,.T.);
#267=EDGE_CURVE('',#217,#217,#183,.T.);
#268=EDGE_CURVE('',#217,#218,#109,.T.);
#269=EDGE_CURVE('',#218,#218,#184,.T.);
#270=EDGE_CURVE('',#219,#219,#185,.T.);
#271=EDGE_CURVE('',#219,#220,#110,.T.);
#272=EDGE_CURVE('',#220,#220,#186,.T.);
#273=EDGE_CURVE('',#221,#221,#187,.T.);
#274=EDGE_CURVE('',#221,#222,#111,.T.);
#275=EDGE_CURVE('',#222,#222,#188,.T.);
#276=EDGE_CURVE('',#223,#224,#112,.T.);
#277=EDGE_CURVE('',#224,#225,#113,.T.);
#278=EDGE_CURVE('',#226,#225,#114,.T.);
#279=EDGE_CURVE('',#223,#226,#115,.T.);
#280=EDGE_CURVE('',#227,#223,#189,.T.);
#281=EDGE_CURVE('',#228,#226,#190,.T.);
#282=EDGE_CURVE('',#227,#228,#116,.T.);
#283=EDGE_CURVE('',#229,#227,#117,.T.);
#284=EDGE_CURVE('',#230,#228,#118,.T.);
#285=EDGE_CURVE('',#229,#230,#119,.T.);
#286=EDGE_CURVE('',#231,#229,#191,.T.);
#287=EDGE_CURVE('',#232,#230,#192,.T.);
#288=EDGE_CURVE('',#231,#232,#120,.T.);
#289=EDGE_CURVE('',#233,#231,#121,.T.);
#290=EDGE_CURVE('',#234,#232,#122,.T.);
#291=EDGE_CURVE('',#233,#234,#123,.T.);
#292=EDGE_CURVE('',#235,#233,#193,.T.);
#293=EDGE_CURVE('',#236,#234,#194,.T.);
#294=EDGE_CURVE('',#235,#236,#124,.T.);
#295=EDGE_CURVE('',#237,#235,#125,.T.);
#296=EDGE_CURVE('',#238,#236,#126,.T.);
#297=EDGE_CURVE('',#237,#238,#127,.T.);
#298=EDGE_CURVE('',#205,#237,#195,.T.);
#299=EDGE_CURVE('',#206,#238,#196,.T.);
#300=EDGE_CURVE('',#239,#210,#128,.T.);
#301=EDGE_CURVE('',#240,#239,#129,.T.);
#302=EDGE_CURVE('',#240,#207,#130,.T.);
#303=EDGE_CURVE('',#241,#240,#197,.T.);
#304=EDGE_CURVE('',#242,#239,#198,.T.);
#305=EDGE_CURVE('',#241,#242,#131,.T.);
#306=EDGE_CURVE('',#243,#241,#132,.T.);
#307=EDGE_CURVE('',#244,#242,#133,.T.);
#308=EDGE_CURVE('',#243,#244,#134,.T.);
#309=EDGE_CURVE('',#224,#243,#199,.T.);
#310=EDGE_CURVE('',#225,#244,#200,.T.);
#311=ORIENTED_EDGE('',*,*,#245,.T.);
#312=ORIENTED_EDGE('',*,*,#246,.T.);
#313=ORIENTED_EDGE('',*,*,#247,.T.);
#314=ORIENTED_EDGE('',*,*,#248,.T.);
#315=ORIENTED_EDGE('',*,*,#246,.F.);
#316=ORIENTED_EDGE('',*,*,#249,.T.);
#317=ORIENTED_EDGE('',*,*,#250,.T.);
#318=ORIENTED_EDGE('',*,*,#251,.F.);
#319=ORIENTED_EDGE('',*,*,#252,.T.);
#320=ORIENTED_EDGE('',*,*,#253,.T.);
#321=ORIENTED_EDGE('',*,*,#254,.T.);
#322=ORIENTED_EDGE('',*,*,#255,.T.);
#323=ORIENTED_EDGE('',*,*,#248,.F.);
#324=ORIENTED_EDGE('',*,*,#256,.F.);
#325=ORIENTED_EDGE('',*,*,#253,.F.);
#326=ORIENTED_EDGE('',*,*,#257,.T.);
#327=ORIENTED_EDGE('',*,*,#258,.F.);
#328=ORIENTED_EDGE('',*,*,#259,.T.);
#329=ORIENTED_EDGE('',*,*,#260,.T.);
#330=ORIENTED_EDGE('',*,*,#259,.F.);
#331=ORIENTED_EDGE('',*,*,#261,.F.);
#332=ORIENTED_EDGE('',*,*,#262,.T.);
#333=ORIENTED_EDGE('',*,*,#263,.T.);
#334=ORIENTED_EDGE('',*,*,#262,.F.);
#335=ORIENTED_EDGE('',*,*,#264,.F.);
#336=ORIENTED_EDGE('',*,*,#265,.T.);
#337=ORIENTED_EDGE('',*,*,#266,.T.);
#338=ORIENTED_EDGE('',*,*,#265,.F.);
#339=ORIENTED_EDGE('',*,*,#267,.F.);
#340=ORIENTED_EDGE('',*,*,#268,.T.);
#341=ORIENTED_EDGE('',*,*,#269,.T.);
#342=ORIENTED_EDGE('',*,*,#268,.F.);
#343=ORIENTED_EDGE('',*,*,#270,.F.);
#344=ORIENTED_EDGE('',*,*,#271,.T.);
#345=ORIENTED_EDGE('',*,*,#272,.T.);
#346=ORIENTED_EDGE('',*,*,#271,.F.);
#347=ORIENTED_EDGE('',*,*,#273,.F.);
#348=ORIENTED_EDGE('',*,*,#274,.T.);
#349=ORIENTED_EDGE('',*,*,#275,.T.);
#350=ORIENTED_EDGE('',*,*,#274,.F.);
#351=ORIENTED_EDGE('',*,*,#276,.T.);
#352=ORIENTED_EDGE('',*,*,#277,.T.);
#353=ORIENTED_EDGE('',*,*,#278,.F.);
#354=ORIENTED_EDGE('',*,*,#279,.F.);
#355=ORIENTED_EDGE('',*,*,#280,.T.);
#356=ORIENTED_EDGE('',*,*,#279,.T.);
#357=ORIENTED_EDGE('',*,*,#281,.F.);
#358=ORIENTED_EDGE('',*,*,#282,.F.);
#359=ORIENTED_EDGE('',*,*,#283,.T.);
#360=ORIENTED_EDGE('',*,*,#282,.T.);
#361=ORIENTED_EDGE('',*,*,#284,.F.);
#362=ORIENTED_EDGE('',*,*,#285,.F.);
#363=ORIENTED_EDGE('',*,*,#286,.T.);
#364=ORIENTED_EDGE('',*,*,#285,.T.);
#365=ORIENTED_EDGE('',*,*,#287,.F.);
#366=ORIENTED_EDGE('',*,*,#288,.F.);
#367=ORIENTED_EDGE('',*,*,#289,.T.);
#368=ORIENTED_EDGE('',*,*,#288,.T.);
#369=ORIENTED_EDGE('',*,*,#290,.F.);
#370=ORIENTED_EDGE('',*,*,#291,.F.);
#371=ORIENTED_EDGE('',*,*,#292,.T.);
#372=ORIENTED_EDGE('',*,*,#291,.T.);
#373=ORIENTED_EDGE('',*,*,#293,.F.);
#374=ORIENTED_EDGE('',*,*,#294,.F.);
#375=ORIENTED_EDGE('',*,*,#295,.T.);
#376=ORIENTED_EDGE('',*,*,#294,.T.);
#377=ORIENTED_EDGE('',*,*,#296,.F.);
#378=ORIENTED_EDGE('',*,*,#297,.F.);
#379=ORIENTED_EDGE('',*,*,#298,.T.);
#380=ORIENTED_EDGE('',*,*,#297,.T.);
#381=ORIENTED_EDGE('',*,*,#299,.F.);
#382=ORIENTED_EDGE('',*,*,#250,.F.);
#383=ORIENTED_EDGE('',*,*,#255,.F.);
#384=ORIENTED_EDGE('',*,*,#300,.F.);
#385=ORIENTED_EDGE('',*,*,#301,.F.);
#386=ORIENTED_EDGE('',*,*,#302,.T.);
#387=ORIENTED_EDGE('',*,*,#303,.T.);
#388=ORIENTED_EDGE('',*,*,#301,.T.);
#389=ORIENTED_EDGE('',*,*,#304,.F.);
#390=ORIENTED_EDGE('',*,*,#305,.F.);
#391=ORIENTED_EDGE('',*,*,#306,.T.);
#392=ORIENTED_EDGE('',*,*,#305,.T.);
#393=ORIENTED_EDGE('',*,*,#307,.F.);
#394=ORIENTED_EDGE('',*,*,#308,.F.);
#395=ORIENTED_EDGE('',*,*,#309,.T.);
#396=ORIENTED_EDGE('',*,*,#308,.T.);
#397=ORIENTED_EDGE('',*,*,#310,.F.);
#398=ORIENTED_EDGE('',*,*,#277,.F.);
#399=ORIENTED_EDGE('',*,*,#310,.T.);
#400=ORIENTED_EDGE('',*,*,#307,.T.);
#401=ORIENTED_EDGE('',*,*,#304,.T.);
#402=ORIENTED_EDGE('',*,*,#300,.T.);
#403=ORIENTED_EDGE('',*,*,#254,.F.);
#404=ORIENTED_EDGE('',*,*,#256,.T.);
#405=ORIENTED_EDGE('',*,*,#247,.F.);
#406=ORIENTED_EDGE('',*,*,#251,.T.);
#407=ORIENTED_EDGE('',*,*,#299,.T.);
#408=ORIENTED_EDGE('',*,*,#296,.T.);
#409=ORIENTED_EDGE('',*,*,#293,.T.);
#410=ORIENTED_EDGE('',*,*,#290,.T.);
#411=ORIENTED_EDGE('',*,*,#287,.T.);
#412=ORIENTED_EDGE('',*,*,#284,.T.);
#413=ORIENTED_EDGE('',*,*,#281,.T.);
#414=ORIENTED_EDGE('',*,*,#278,.T.);
#415=ORIENTED_EDGE('',*,*,#273,.T.);
#416=ORIENTED_EDGE('',*,*,#270,.T.);
#417=ORIENTED_EDGE('',*,*,#267,.T.);
#418=ORIENTED_EDGE('',*,*,#264,.T.);
#419=ORIENTED_EDGE('',*,*,#261,.T.);
#420=ORIENTED_EDGE('',*,*,#258,.T.);
#421=ORIENTED_EDGE('',*,*,#309,.F.);
#422=ORIENTED_EDGE('',*,*,#276,.F.);
#423=ORIENTED_EDGE('',*,*,#280,.F.);
#424=ORIENTED_EDGE('',*,*,#283,.F.);
#425=ORIENTED_EDGE('',*,*,#286,.F.);
#426=ORIENTED_EDGE('',*,*,#289,.F.);
#427=ORIENTED_EDGE('',*,*,#292,.F.);
#428=ORIENTED_EDGE('',*,*,#295,.F.);
#429=ORIENTED_EDGE('',*,*,#298,.F.);
#430=ORIENTED_EDGE('',*,*,#249,.F.);
#431=ORIENTED_EDGE('',*,*,#245,.F.);
#432=ORIENTED_EDGE('',*,*,#257,.F.);
#433=ORIENTED_EDGE('',*,*,#252,.F.);
#434=ORIENTED_EDGE('',*,*,#302,.F.);
#435=ORIENTED_EDGE('',*,*,#303,.F.);
#436=ORIENTED_EDGE('',*,*,#306,.F.);
#437=ORIENTED_EDGE('',*,*,#275,.F.);
#438=ORIENTED_EDGE('',*,*,#272,.F.);
#439=ORIENTED_EDGE('',*,*,#269,.F.);
#440=ORIENTED_EDGE('',*,*,#266,.F.);
#441=ORIENTED_EDGE('',*,*,#263,.F.);
#442=ORIENTED_EDGE('',*,*,#260,.F.);
#443=CYLINDRICAL_SURFACE('',#503,0.125);
#444=CYLINDRICAL_SURFACE('',#507,0.125);
#445=CYLINDRICAL_SURFACE('',#511,0.086);
#446=CYLINDRICAL_SURFACE('',#514,0.0860000000000022);
#447=CYLINDRICAL_SURFACE('',#517,0.086);
#448=CYLINDRICAL_SURFACE('',#520,0.0860000000000022);
#449=CYLINDRICAL_SURFACE('',#523,0.0860000000000022);
#450=CYLINDRICAL_SURFACE('',#526,0.086);
#451=CYLINDRICAL_SURFACE('',#530,0.1);
#452=CYLINDRICAL_SURFACE('',#534,0.1);
#453=CYLINDRICAL_SURFACE('',#538,0.1);
#454=CYLINDRICAL_SURFACE('',#542,0.1);
#455=CYLINDRICAL_SURFACE('',#546,0.1);
#456=CYLINDRICAL_SURFACE('',#550,0.1);
#457=ADVANCED_FACE('',(#37),#443,.F.);
#458=ADVANCED_FACE('',(#38),#27,.T.);
#459=ADVANCED_FACE('',(#39),#444,.F.);
#460=ADVANCED_FACE('',(#40),#28,.T.);
#461=ADVANCED_FACE('',(#41),#445,.F.);
#462=ADVANCED_FACE('',(#42),#446,.F.);
#463=ADVANCED_FACE('',(#43),#447,.F.);
#464=ADVANCED_FACE('',(#44),#448,.F.);
#465=ADVANCED_FACE('',(#45),#449,.F.);
#466=ADVANCED_FACE('',(#46),#450,.F.);
#467=ADVANCED_FACE('',(#47),#29,.T.);
#468=ADVANCED_FACE('',(#48),#451,.T.);
#469=ADVANCED_FACE('',(#49),#30,.T.);
#470=ADVANCED_FACE('',(#50),#452,.T.);
#471=ADVANCED_FACE('',(#51),#31,.T.);
#472=ADVANCED_FACE('',(#52),#453,.T.);
#473=ADVANCED_FACE('',(#53),#32,.T.);
#474=ADVANCED_FACE('',(#54),#454,.T.);
#475=ADVANCED_FACE('',(#55),#33,.T.);
#476=ADVANCED_FACE('',(#56),#455,.T.);
#477=ADVANCED_FACE('',(#57),#34,.T.);
#478=ADVANCED_FACE('',(#58),#456,.T.);
#479=ADVANCED_FACE('',(#59,#15,#16,#17,#18,#19,#20),#35,.T.);
#480=ADVANCED_FACE('',(#60,#21,#22,#23,#24,#25,#26),#36,.F.);
#481=CLOSED_SHELL('',(#457,#458,#459,#460,#461,#462,#463,#464,#465,#466,
#467,#468,#469,#470,#471,#472,#473,#474,#475,#476,#477,#478,#479,#480));
#482=DERIVED_UNIT_ELEMENT(#484,1.);
#483=DERIVED_UNIT_ELEMENT(#842,-3.);
#484=(
CONVERSION_BASED_UNIT('gram',#486)
MASS_UNIT()
NAMED_UNIT(#839)
);
#485=(
MASS_UNIT()
NAMED_UNIT(*)
SI_UNIT(.KILO.,.GRAM.)
);
#486=MASS_MEASURE_WITH_UNIT(MASS_MEASURE(0.001),#485);
#487=DERIVED_UNIT((#482,#483));
#488=MEASURE_REPRESENTATION_ITEM('density measure',
POSITIVE_RATIO_MEASURE(1.425),#487);
#489=PROPERTY_DEFINITION_REPRESENTATION(#494,#491);
#490=PROPERTY_DEFINITION_REPRESENTATION(#495,#492);
#491=REPRESENTATION('material name',(#493),#836);
#492=REPRESENTATION('density',(#488),#836);
#493=DESCRIPTIVE_REPRESENTATION_ITEM('Acetal Resin, Black',
'Acetal Resin, Black');
#494=PROPERTY_DEFINITION('material property','material name',#850);
#495=PROPERTY_DEFINITION('material property','density of part',#850);
#496=DATE_TIME_ROLE('creation_date');
#497=APPLIED_DATE_AND_TIME_ASSIGNMENT(#498,#496,(#850));
#498=DATE_AND_TIME(#499,#500);
#499=CALENDAR_DATE(2026,5,1);
#500=LOCAL_TIME(0,0,0.,#501);
#501=COORDINATED_UNIVERSAL_TIME_OFFSET(0,0,.BEHIND.);
#502=AXIS2_PLACEMENT_3D('',#699,#555,#556);
#503=AXIS2_PLACEMENT_3D('',#700,#557,#558);
#504=AXIS2_PLACEMENT_3D('',#703,#559,#560);
#505=AXIS2_PLACEMENT_3D('',#707,#562,#563);
#506=AXIS2_PLACEMENT_3D('',#709,#565,#566);
#507=AXIS2_PLACEMENT_3D('',#715,#570,#571);
#508=AXIS2_PLACEMENT_3D('',#718,#572,#573);
#509=AXIS2_PLACEMENT_3D('',#722,#575,#576);
#510=AXIS2_PLACEMENT_3D('',#724,#578,#579);
#511=AXIS2_PLACEMENT_3D('',#727,#582,#583);
#512=AXIS2_PLACEMENT_3D('',#729,#584,#585);
#513=AXIS2_PLACEMENT_3D('',#732,#587,#588);
#514=AXIS2_PLACEMENT_3D('',#733,#589,#590);
#515=AXIS2_PLACEMENT_3D('',#735,#591,#592);
#516=AXIS2_PLACEMENT_3D('',#738,#594,#595);
#517=AXIS2_PLACEMENT_3D('',#739,#596,#597);
#518=AXIS2_PLACEMENT_3D('',#741,#598,#599);
#519=AXIS2_PLACEMENT_3D('',#744,#601,#602);
#520=AXIS2_PLACEMENT_3D('',#745,#603,#604);
#521=AXIS2_PLACEMENT_3D('',#747,#605,#606);
#522=AXIS2_PLACEMENT_3D('',#750,#608,#609);
#523=AXIS2_PLACEMENT_3D('',#751,#610,#611);
#524=AXIS2_PLACEMENT_3D('',#753,#612,#613);
#525=AXIS2_PLACEMENT_3D('',#756,#615,#616);
#526=AXIS2_PLACEMENT_3D('',#757,#617,#618);
#527=AXIS2_PLACEMENT_3D('',#759,#619,#620);
#528=AXIS2_PLACEMENT_3D('',#762,#622,#623);
#529=AXIS2_PLACEMENT_3D('',#763,#624,#625);
#530=AXIS2_PLACEMENT_3D('',#772,#630,#631);
#531=AXIS2_PLACEMENT_3D('',#774,#632,#633);
#532=AXIS2_PLACEMENT_3D('',#776,#634,#635);
#533=AXIS2_PLACEMENT_3D('',#778,#637,#638);
#534=AXIS2_PLACEMENT_3D('',#784,#642,#643);
#535=AXIS2_PLACEMENT_3D('',#786,#644,#645);
#536=AXIS2_PLACEMENT_3D('',#788,#646,#647);
#537=AXIS2_PLACEMENT_3D('',#790,#649,#650);
#538=AXIS2_PLACEMENT_3D('',#796,#654,#655);
#539=AXIS2_PLACEMENT_3D('',#798,#656,#657);
#540=AXIS2_PLACEMENT_3D('',#800,#658,#659);
#541=AXIS2_PLACEMENT_3D('',#802,#661,#662);
#542=AXIS2_PLACEMENT_3D('',#808,#666,#667);
#543=AXIS2_PLACEMENT_3D('',#809,#668,#669);
#544=AXIS2_PLACEMENT_3D('',#810,#670,#671);
#545=AXIS2_PLACEMENT_3D('',#811,#672,#673);
#546=AXIS2_PLACEMENT_3D('',#817,#677,#678);
#547=AXIS2_PLACEMENT_3D('',#819,#679,#680);
#548=AXIS2_PLACEMENT_3D('',#821,#681,#682);
#549=AXIS2_PLACEMENT_3D('',#823,#684,#685);
#550=AXIS2_PLACEMENT_3D('',#829,#689,#690);
#551=AXIS2_PLACEMENT_3D('',#830,#691,#692);
#552=AXIS2_PLACEMENT_3D('',#831,#693,#694);
#553=AXIS2_PLACEMENT_3D('',#832,#695,#696);
#554=AXIS2_PLACEMENT_3D('',#833,#697,#698);
#555=DIRECTION('axis',(0.,0.,1.));
#556=DIRECTION('refdir',(1.,0.,0.));
#557=DIRECTION('center_axis',(0.,0.,1.));
#558=DIRECTION('ref_axis',(0.647921264752151,0.761707315628499,0.));
#559=DIRECTION('center_axis',(0.,0.,-1.));
#560=DIRECTION('ref_axis',(0.647921264752151,0.761707315628499,0.));
#561=DIRECTION('',(0.,0.,1.));
#562=DIRECTION('center_axis',(0.,0.,1.));
#563=DIRECTION('ref_axis',(0.647921264752151,0.761707315628499,0.));
#564=DIRECTION('',(0.,0.,-1.));
#565=DIRECTION('center_axis',(-0.987052734625965,-0.160396069363949,0.));
#566=DIRECTION('ref_axis',(0.160396069363949,-0.987052734625965,0.));
#567=DIRECTION('',(0.160396069363949,-0.987052734625965,0.));
#568=DIRECTION('',(0.,0.,1.));
#569=DIRECTION('',(0.160396069363949,-0.987052734625965,0.));
#570=DIRECTION('center_axis',(0.,0.,1.));
#571=DIRECTION('ref_axis',(-0.647921264752151,0.761707315628498,0.));
#572=DIRECTION('center_axis',(0.,0.,-1.));
#573=DIRECTION('ref_axis',(-0.647921264752151,0.761707315628498,0.));
#574=DIRECTION('',(0.,0.,1.));
#575=DIRECTION('center_axis',(0.,0.,1.));
#576=DIRECTION('ref_axis',(-0.647921264752151,0.761707315628498,0.));
#577=DIRECTION('',(0.,0.,-1.));
#578=DIRECTION('center_axis',(0.,-1.,0.));
#579=DIRECTION('ref_axis',(1.,0.,0.));
#580=DIRECTION('',(1.,0.,0.));
#581=DIRECTION('',(1.,0.,0.));
#582=DIRECTION('center_axis',(0.,0.,1.));
#583=DIRECTION('ref_axis',(-1.,0.,0.));
#584=DIRECTION('center_axis',(0.,0.,-1.));
#585=DIRECTION('ref_axis',(-1.,0.,0.));
#586=DIRECTION('',(0.,0.,-1.));
#587=DIRECTION('center_axis',(0.,0.,-1.));
#588=DIRECTION('ref_axis',(-1.,0.,0.));
#589=DIRECTION('center_axis',(0.,0.,1.));
#590=DIRECTION('ref_axis',(-1.,0.,0.));
#591=DIRECTION('center_axis',(0.,0.,-1.));
#592=DIRECTION('ref_axis',(-1.,0.,0.));
#593=DIRECTION('',(0.,0.,-1.));
#594=DIRECTION('center_axis',(0.,0.,-1.));
#595=DIRECTION('ref_axis',(-1.,0.,0.));
#596=DIRECTION('center_axis',(0.,0.,1.));
#597=DIRECTION('ref_axis',(-1.,0.,0.));
#598=DIRECTION('center_axis',(0.,0.,-1.));
#599=DIRECTION('ref_axis',(-1.,0.,0.));
#600=DIRECTION('',(0.,0.,-1.));
#601=DIRECTION('center_axis',(0.,0.,-1.));
#602=DIRECTION('ref_axis',(-1.,0.,0.));
#603=DIRECTION('center_axis',(0.,0.,1.));
#604=DIRECTION('ref_axis',(-1.,0.,0.));
#605=DIRECTION('center_axis',(0.,0.,-1.));
#606=DIRECTION('ref_axis',(-1.,0.,0.));
#607=DIRECTION('',(0.,0.,-1.));
#608=DIRECTION('center_axis',(0.,0.,-1.));
#609=DIRECTION('ref_axis',(-1.,0.,0.));
#610=DIRECTION('center_axis',(0.,0.,1.));
#611=DIRECTION('ref_axis',(-1.,0.,0.));
#612=DIRECTION('center_axis',(0.,0.,-1.));
#613=DIRECTION('ref_axis',(-1.,0.,0.));
#614=DIRECTION('',(0.,0.,-1.));
#615=DIRECTION('center_axis',(0.,0.,-1.));
#616=DIRECTION('ref_axis',(-1.,0.,0.));
#617=DIRECTION('center_axis',(0.,0.,1.));
#618=DIRECTION('ref_axis',(-1.,0.,0.));
#619=DIRECTION('center_axis',(0.,0.,-1.));
#620=DIRECTION('ref_axis',(-1.,0.,0.));
#621=DIRECTION('',(0.,0.,-1.));
#622=DIRECTION('center_axis',(0.,0.,-1.));
#623=DIRECTION('ref_axis',(-1.,0.,0.));
#624=DIRECTION('center_axis',(-1.,0.,0.));
#625=DIRECTION('ref_axis',(0.,-1.,0.));
#626=DIRECTION('',(0.,-1.,0.));
#627=DIRECTION('',(0.,0.,1.));
#628=DIRECTION('',(0.,-1.,0.));
#629=DIRECTION('',(0.,0.,1.));
#630=DIRECTION('center_axis',(0.,0.,1.));
#631=DIRECTION('ref_axis',(0.,1.,0.));
#632=DIRECTION('center_axis',(0.,0.,1.));
#633=DIRECTION('ref_axis',(0.,1.,0.));
#634=DIRECTION('center_axis',(0.,0.,1.));
#635=DIRECTION('ref_axis',(0.,1.,0.));
#636=DIRECTION('',(0.,0.,1.));
#637=DIRECTION('center_axis',(0.,1.,0.));
#638=DIRECTION('ref_axis',(-1.,0.,0.));
#639=DIRECTION('',(-1.,0.,0.));
#640=DIRECTION('',(-1.,0.,0.));
#641=DIRECTION('',(0.,0.,1.));
#642=DIRECTION('center_axis',(0.,0.,1.));
#643=DIRECTION('ref_axis',(1.,0.,0.));
#644=DIRECTION('center_axis',(0.,0.,1.));
#645=DIRECTION('ref_axis',(1.,0.,0.));
#646=DIRECTION('center_axis',(0.,0.,1.));
#647=DIRECTION('ref_axis',(1.,0.,0.));
#648=DIRECTION('',(0.,0.,1.));
#649=DIRECTION('center_axis',(1.,0.,0.));
#650=DIRECTION('ref_axis',(0.,1.,0.));
#651=DIRECTION('',(0.,1.,0.));
#652=DIRECTION('',(0.,1.,0.));
#653=DIRECTION('',(0.,0.,1.));
#654=DIRECTION('center_axis',(0.,0.,1.));
#655=DIRECTION('ref_axis',(0.,-1.,0.));
#656=DIRECTION('center_axis',(0.,0.,1.));
#657=DIRECTION('ref_axis',(0.,-1.,0.));
#658=DIRECTION('center_axis',(0.,0.,1.));
#659=DIRECTION('ref_axis',(0.,-1.,0.));
#660=DIRECTION('',(0.,0.,1.));
#661=DIRECTION('center_axis',(-1.62686947273744E-15,-1.,0.));
#662=DIRECTION('ref_axis',(1.,-1.62686947273744E-15,0.));
#663=DIRECTION('',(1.,-1.62686947273744E-15,0.));
#664=DIRECTION('',(1.,-1.62686947273744E-15,0.));
#665=DIRECTION('',(0.,0.,1.));
#666=DIRECTION('center_axis',(0.,0.,1.));
#667=DIRECTION('ref_axis',(-0.987052734625965,-0.160396069363949,0.));
#668=DIRECTION('center_axis',(0.,0.,1.));
#669=DIRECTION('ref_axis',(-0.987052734625965,-0.160396069363949,0.));
#670=DIRECTION('center_axis',(0.,0.,1.));
#671=DIRECTION('ref_axis',(-0.987052734625965,-0.160396069363949,0.));
#672=DIRECTION('center_axis',(0.987052734625965,-0.160396069363948,0.));
#673=DIRECTION('ref_axis',(0.160396069363948,0.987052734625965,0.));
#674=DIRECTION('',(0.160396069363948,0.987052734625965,0.));
#675=DIRECTION('',(0.,0.,1.));
#676=DIRECTION('',(0.160396069363948,0.987052734625965,0.));
#677=DIRECTION('center_axis',(0.,0.,1.));
#678=DIRECTION('ref_axis',(0.,-1.,0.));
#679=DIRECTION('center_axis',(0.,0.,1.));
#680=DIRECTION('ref_axis',(0.,-1.,0.));
#681=DIRECTION('center_axis',(0.,0.,1.));
#682=DIRECTION('ref_axis',(0.,-1.,0.));
#683=DIRECTION('',(0.,0.,1.));
#684=DIRECTION('center_axis',(4.06717368184358E-16,-1.,0.));
#685=DIRECTION('ref_axis',(1.,4.06717368184358E-16,0.));
#686=DIRECTION('',(1.,4.06717368184358E-16,0.));
#687=DIRECTION('',(1.,4.06717368184358E-16,0.));
#688=DIRECTION('',(0.,0.,1.));
#689=DIRECTION('center_axis',(0.,0.,1.));
#690=DIRECTION('ref_axis',(-1.,0.,0.));
#691=DIRECTION('center_axis',(0.,0.,1.));
#692=DIRECTION('ref_axis',(-1.,0.,0.));
#693=DIRECTION('center_axis',(0.,0.,1.));
#694=DIRECTION('ref_axis',(-1.,0.,0.));
#695=DIRECTION('center_axis',(0.,0.,1.));
#696=DIRECTION('ref_axis',(1.,0.,0.));
#697=DIRECTION('center_axis',(0.,0.,1.));
#698=DIRECTION('ref_axis',(1.,0.,0.));
#699=CARTESIAN_POINT('',(0.,0.,0.));
#700=CARTESIAN_POINT('Origin',(0.0811728630243768,1.125,0.));
#701=CARTESIAN_POINT('',(0.0811728630243764,1.25,0.));
#702=CARTESIAN_POINT('',(0.204554454852622,1.14504950867049,0.));
#703=CARTESIAN_POINT('Origin',(0.0811728630243768,1.125,0.));
#704=CARTESIAN_POINT('',(0.204554454852622,1.14504950867049,0.25));
#705=CARTESIAN_POINT('',(0.204554454852622,1.14504950867049,0.));
#706=CARTESIAN_POINT('',(0.0811728630243764,1.25,0.25));
#707=CARTESIAN_POINT('Origin',(0.0811728630243768,1.125,0.25));
#708=CARTESIAN_POINT('',(0.0811728630243768,1.25,0.));
#709=CARTESIAN_POINT('Origin',(0.187500000012935,1.25,0.));
#710=CARTESIAN_POINT('',(0.336356436128247,0.333960393063608,0.));
#711=CARTESIAN_POINT('',(0.187500000012935,1.25,0.));
#712=CARTESIAN_POINT('',(0.336356436128248,0.333960393063608,0.25));
#713=CARTESIAN_POINT('',(0.336356436128247,0.333960393063608,0.));
#714=CARTESIAN_POINT('',(0.187500000012935,1.25,0.25));
#715=CARTESIAN_POINT('Origin',(-3.95617286299851,1.125,0.));
#716=CARTESIAN_POINT('',(-4.07955445482675,1.14504950867049,0.));
#717=CARTESIAN_POINT('',(-3.95617286299851,1.25,0.));
#718=CARTESIAN_POINT('Origin',(-3.95617286299851,1.125,0.));
#719=CARTESIAN_POINT('',(-3.95617286299851,1.25,0.25));
#720=CARTESIAN_POINT('',(-3.95617286299851,1.25,0.));
#721=CARTESIAN_POINT('',(-4.07955445482675,1.14504950867049,0.25));
#722=CARTESIAN_POINT('Origin',(-3.95617286299851,1.125,0.25));
#723=CARTESIAN_POINT('',(-4.07955445482675,1.14504950867049,0.));
#724=CARTESIAN_POINT('Origin',(-4.06249999998706,1.25,0.));
#725=CARTESIAN_POINT('',(-4.06249999998706,1.25,0.25));
#726=CARTESIAN_POINT('',(-4.06249999998706,1.25,0.));
#727=CARTESIAN_POINT('Origin',(0.499999999999999,0.500000000000003,0.));
#728=CARTESIAN_POINT('',(0.585999999999999,0.500000000000003,0.25));
#729=CARTESIAN_POINT('Origin',(0.499999999999999,0.500000000000003,0.25));
#730=CARTESIAN_POINT('',(0.585999999999999,0.500000000000003,0.));
#731=CARTESIAN_POINT('',(0.585999999999999,0.500000000000003,0.));
#732=CARTESIAN_POINT('Origin',(0.499999999999999,0.500000000000003,0.));
#733=CARTESIAN_POINT('Origin',(-4.37499999997412,0.500000000000698,0.));
#734=CARTESIAN_POINT('',(-4.28899999997412,0.500000000000698,0.25));
#735=CARTESIAN_POINT('Origin',(-4.37499999997412,0.500000000000698,0.25));
#736=CARTESIAN_POINT('',(-4.28899999997412,0.500000000000698,0.));
#737=CARTESIAN_POINT('',(-4.28899999997412,0.500000000000698,0.));
#738=CARTESIAN_POINT('Origin',(-4.37499999997412,0.500000000000698,0.));
#739=CARTESIAN_POINT('Origin',(0.499999999999998,1.,0.));
#740=CARTESIAN_POINT('',(0.585999999999998,1.,0.25));
#741=CARTESIAN_POINT('Origin',(0.499999999999998,1.,0.25));
#742=CARTESIAN_POINT('',(0.585999999999998,1.,0.));
#743=CARTESIAN_POINT('',(0.585999999999998,1.,0.));
#744=CARTESIAN_POINT('Origin',(0.499999999999998,1.,0.));
#745=CARTESIAN_POINT('Origin',(-4.37499999997413,1.00000000000071,0.));
#746=CARTESIAN_POINT('',(-4.28899999997412,1.00000000000071,0.25));
#747=CARTESIAN_POINT('Origin',(-4.37499999997413,1.00000000000071,0.25));
#748=CARTESIAN_POINT('',(-4.28899999997412,1.00000000000071,0.));
#749=CARTESIAN_POINT('',(-4.28899999997412,1.00000000000071,0.));
#750=CARTESIAN_POINT('Origin',(-4.37499999997413,1.00000000000071,0.));
#751=CARTESIAN_POINT('Origin',(-4.37499999997413,1.50000000000072,0.));
#752=CARTESIAN_POINT('',(-4.28899999997412,1.50000000000072,0.25));
#753=CARTESIAN_POINT('Origin',(-4.37499999997413,1.50000000000072,0.25));
#754=CARTESIAN_POINT('',(-4.28899999997412,1.50000000000072,0.));
#755=CARTESIAN_POINT('',(-4.28899999997412,1.50000000000072,0.));
#756=CARTESIAN_POINT('Origin',(-4.37499999997413,1.50000000000072,0.));
#757=CARTESIAN_POINT('Origin',(0.499999999999997,1.5,0.));
#758=CARTESIAN_POINT('',(0.585999999999997,1.5,0.25));
#759=CARTESIAN_POINT('Origin',(0.499999999999997,1.5,0.25));
#760=CARTESIAN_POINT('',(0.585999999999997,1.5,0.));
#761=CARTESIAN_POINT('',(0.585999999999997,1.5,0.));
#762=CARTESIAN_POINT('Origin',(0.499999999999997,1.5,0.));
#763=CARTESIAN_POINT('Origin',(-4.62499999997413,1.775,0.));
#764=CARTESIAN_POINT('',(-4.62499999997413,1.775,0.));
#765=CARTESIAN_POINT('',(-4.62499999997413,0.350000000000002,0.));
#766=CARTESIAN_POINT('',(-4.62499999997413,1.775,0.));
#767=CARTESIAN_POINT('',(-4.62499999997413,0.350000000000002,0.25));
#768=CARTESIAN_POINT('',(-4.62499999997413,0.350000000000002,0.));
#769=CARTESIAN_POINT('',(-4.62499999997413,1.775,0.25));
#770=CARTESIAN_POINT('',(-4.62499999997413,1.775,0.25));
#771=CARTESIAN_POINT('',(-4.62499999997413,1.775,0.));
#772=CARTESIAN_POINT('Origin',(-4.52499999997413,1.775,0.));
#773=CARTESIAN_POINT('',(-4.52499999997413,1.875,0.));
#774=CARTESIAN_POINT('Origin',(-4.52499999997413,1.775,0.));
#775=CARTESIAN_POINT('',(-4.52499999997413,1.875,0.25));
#776=CARTESIAN_POINT('Origin',(-4.52499999997413,1.775,0.25));
#777=CARTESIAN_POINT('',(-4.52499999997413,1.875,0.));
#778=CARTESIAN_POINT('Origin',(0.649999999999997,1.875,0.));
#779=CARTESIAN_POINT('',(0.649999999999997,1.875,0.));
#780=CARTESIAN_POINT('',(0.649999999999997,1.875,0.));
#781=CARTESIAN_POINT('',(0.649999999999997,1.875,0.25));
#782=CARTESIAN_POINT('',(0.649999999999997,1.875,0.25));
#783=CARTESIAN_POINT('',(0.649999999999997,1.875,0.));
#784=CARTESIAN_POINT('Origin',(0.649999999999997,1.775,0.));
#785=CARTESIAN_POINT('',(0.749999999999996,1.775,0.));
#786=CARTESIAN_POINT('Origin',(0.649999999999997,1.775,0.));
#787=CARTESIAN_POINT('',(0.749999999999996,1.775,0.25));
#788=CARTESIAN_POINT('Origin',(0.649999999999997,1.775,0.25));
#789=CARTESIAN_POINT('',(0.749999999999996,1.775,0.));
#790=CARTESIAN_POINT('Origin',(0.749999999999996,0.350000000000002,0.));
#791=CARTESIAN_POINT('',(0.749999999999996,0.350000000000002,0.));
#792=CARTESIAN_POINT('',(0.749999999999996,0.350000000000002,0.));
#793=CARTESIAN_POINT('',(0.749999999999996,0.350000000000002,0.25));
#794=CARTESIAN_POINT('',(0.749999999999996,0.350000000000002,0.25));
#795=CARTESIAN_POINT('',(0.749999999999996,0.350000000000002,0.));
#796=CARTESIAN_POINT('Origin',(0.649999999999997,0.350000000000002,0.));
#797=CARTESIAN_POINT('',(0.649999999999997,0.250000000000002,0.));
#798=CARTESIAN_POINT('Origin',(0.649999999999997,0.350000000000002,0.));
#799=CARTESIAN_POINT('',(0.649999999999997,0.250000000000002,0.25));
#800=CARTESIAN_POINT('Origin',(0.649999999999997,0.350000000000002,0.25));
#801=CARTESIAN_POINT('',(0.649999999999997,0.250000000000002,0.));
#802=CARTESIAN_POINT('Origin',(0.435061709590844,0.250000000000003,0.));
#803=CARTESIAN_POINT('',(0.435061709590844,0.250000000000003,0.));
#804=CARTESIAN_POINT('',(0.435061709590844,0.250000000000003,0.));
#805=CARTESIAN_POINT('',(0.435061709590844,0.250000000000003,0.25));
#806=CARTESIAN_POINT('',(0.435061709590844,0.250000000000003,0.25));
#807=CARTESIAN_POINT('',(0.435061709590844,0.250000000000003,0.));
#808=CARTESIAN_POINT('Origin',(0.435061709590844,0.350000000000003,0.));
#809=CARTESIAN_POINT('Origin',(0.435061709590844,0.350000000000003,0.));
#810=CARTESIAN_POINT('Origin',(0.435061709590844,0.350000000000003,0.25));
#811=CARTESIAN_POINT('Origin',(-4.21135643610238,0.333960393063608,0.));
#812=CARTESIAN_POINT('',(-4.21135643610238,0.333960393063608,0.25));
#813=CARTESIAN_POINT('',(-4.21135643610238,0.333960393063608,0.25));
#814=CARTESIAN_POINT('',(-4.21135643610238,0.333960393063608,0.));
#815=CARTESIAN_POINT('',(-4.21135643610238,0.333960393063608,0.));
#816=CARTESIAN_POINT('',(-4.21135643610238,0.333960393063608,0.));
#817=CARTESIAN_POINT('Origin',(-4.31006170956497,0.350000000000002,0.));
#818=CARTESIAN_POINT('',(-4.31006170956497,0.250000000000002,0.));
#819=CARTESIAN_POINT('Origin',(-4.31006170956497,0.350000000000002,0.));
#820=CARTESIAN_POINT('',(-4.31006170956497,0.250000000000002,0.25));
#821=CARTESIAN_POINT('Origin',(-4.31006170956497,0.350000000000002,0.25));
#822=CARTESIAN_POINT('',(-4.31006170956497,0.250000000000002,0.));
#823=CARTESIAN_POINT('Origin',(-4.52499999997413,0.250000000000002,0.));
#824=CARTESIAN_POINT('',(-4.52499999997413,0.250000000000002,0.));
#825=CARTESIAN_POINT('',(-4.52499999997413,0.250000000000002,0.));
#826=CARTESIAN_POINT('',(-4.52499999997413,0.250000000000002,0.25));
#827=CARTESIAN_POINT('',(-4.52499999997413,0.250000000000002,0.25));
#828=CARTESIAN_POINT('',(-4.52499999997413,0.250000000000002,0.));
#829=CARTESIAN_POINT('Origin',(-4.52499999997413,0.350000000000002,0.));
#830=CARTESIAN_POINT('Origin',(-4.52499999997413,0.350000000000002,0.));
#831=CARTESIAN_POINT('Origin',(-4.52499999997413,0.350000000000002,0.25));
#832=CARTESIAN_POINT('Origin',(-1.93749999998706,1.0625,0.25));
#833=CARTESIAN_POINT('Origin',(-1.93749999998706,1.0625,0.));
#834=UNCERTAINTY_MEASURE_WITH_UNIT(LENGTH_MEASURE(0.000393700787401575),
#840,'DISTANCE_ACCURACY_VALUE',
'Maximum model space distance between geometric entities at asserted c
onnectivities');
#835=UNCERTAINTY_MEASURE_WITH_UNIT(LENGTH_MEASURE(0.000393700787401575),
#840,'DISTANCE_ACCURACY_VALUE',
'Maximum model space distance between geometric entities at asserted c
onnectivities');
#836=(
GEOMETRIC_REPRESENTATION_CONTEXT(3)
GLOBAL_UNCERTAINTY_ASSIGNED_CONTEXT((#834))
GLOBAL_UNIT_ASSIGNED_CONTEXT((#840,#844,#845))
REPRESENTATION_CONTEXT('','3D')
);
#837=(
GEOMETRIC_REPRESENTATION_CONTEXT(3)
GLOBAL_UNCERTAINTY_ASSIGNED_CONTEXT((#835))
GLOBAL_UNIT_ASSIGNED_CONTEXT((#840,#844,#845))
REPRESENTATION_CONTEXT('','3D')
);
#838=DIMENSIONAL_EXPONENTS(1.,0.,0.,0.,0.,0.,0.);
#839=DIMENSIONAL_EXPONENTS(0.,1.,0.,0.,0.,0.,0.);
#840=(
CONVERSION_BASED_UNIT('inch',#843)
LENGTH_UNIT()
NAMED_UNIT(#838)
);
#841=(
LENGTH_UNIT()
NAMED_UNIT(*)
SI_UNIT(.MILLI.,.METRE.)
);
#842=(
LENGTH_UNIT()
NAMED_UNIT(*)
SI_UNIT(.CENTI.,.METRE.)
);
#843=LENGTH_MEASURE_WITH_UNIT(LENGTH_MEASURE(25.4),#841);
#844=(
NAMED_UNIT(*)
PLANE_ANGLE_UNIT()
SI_UNIT($,.RADIAN.)
);
#845=(
NAMED_UNIT(*)
SI_UNIT($,.STERADIAN.)
SOLID_ANGLE_UNIT()
);
#846=SHAPE_DEFINITION_REPRESENTATION(#847,#848);
#847=PRODUCT_DEFINITION_SHAPE('',$,#850);
#848=SHAPE_REPRESENTATION('',(#502),#836);
#849=PRODUCT_DEFINITION_CONTEXT('part definition',#854,'design');
#850=PRODUCT_DEFINITION('parkbrake','parkbrake',#851,#849);
#851=PRODUCT_DEFINITION_FORMATION('',$,#856);
#852=PRODUCT_RELATED_PRODUCT_CATEGORY('parkbrake','parkbrake',(#856));
#853=APPLICATION_PROTOCOL_DEFINITION('international standard',
'automotive_design',2009,#854);
#854=APPLICATION_CONTEXT(
'Core Data for Automotive Mechanical Design Process');
#855=PRODUCT_CONTEXT('part definition',#854,'mechanical');
#856=PRODUCT('parkbrake','parkbrake',$,(#855));
#857=PRESENTATION_STYLE_ASSIGNMENT((#858));
#858=SURFACE_STYLE_USAGE(.BOTH.,#861);
#859=SURFACE_STYLE_RENDERING_WITH_PROPERTIES($,#865,(#860));
#860=SURFACE_STYLE_TRANSPARENT(0.);
#861=SURFACE_SIDE_STYLE('',(#862,#859));
#862=SURFACE_STYLE_FILL_AREA(#863);
#863=FILL_AREA_STYLE('',(#864));
#864=FILL_AREA_STYLE_COLOUR('',#865);
#865=COLOUR_RGB('',0.0196078431372549,0.0196078431372549,0.0196078431372549);
ENDSEC;
END-ISO-10303-21;
