ISO-10303-21;
HEADER;
/* Generated by software containing ST-Developer
 * from STEP Tools, Inc. (www.steptools.com) 
 */

FILE_DESCRIPTION(
/* description */ (''),
/* implementation_level */ '2;1');

FILE_NAME(
/* name */ 'wedge.stp',
/* time_stamp */ '2026-01-12T23:27:18+13:00',
/* author */ ('cloudy'),
/* organization */ (''),
/* preprocessor_version */ 'ST-DEVELOPER v20',
/* originating_system */ 'Autodesk Inventor 2025',
/* authorisation */ '');

FILE_SCHEMA (('AUTOMOTIVE_DESIGN { 1 0 10303 214 3 1 1 }'));
ENDSEC;

DATA;
#10=MECHANICAL_DESIGN_GEOMETRIC_PRESENTATION_REPRESENTATION('',(#13),#989);
#11=SHAPE_REPRESENTATION_RELATIONSHIP('SRR','None',#1000,#12);
#12=ADVANCED_BREP_SHAPE_REPRESENTATION('',(#14),#988);
#13=STYLED_ITEM('',(#1009),#14);
#14=MANIFOLD_SOLID_BREP('Solid1',#577);
#15=FACE_BOUND('',#78,.T.);
#16=FACE_BOUND('',#79,.T.);
#17=FACE_BOUND('',#80,.T.);
#18=FACE_BOUND('',#81,.T.);
#19=FACE_BOUND('',#82,.T.);
#20=FACE_BOUND('',#83,.T.);
#21=FACE_BOUND('',#84,.T.);
#22=FACE_BOUND('',#85,.T.);
#23=FACE_BOUND('',#86,.T.);
#24=FACE_BOUND('',#87,.T.);
#25=FACE_BOUND('',#113,.T.);
#26=FACE_BOUND('',#114,.T.);
#27=FACE_BOUND('',#115,.T.);
#28=FACE_BOUND('',#116,.T.);
#29=FACE_BOUND('',#117,.T.);
#30=FACE_BOUND('',#118,.T.);
#31=FACE_BOUND('',#119,.T.);
#32=FACE_BOUND('',#120,.T.);
#33=FACE_BOUND('',#121,.T.);
#34=FACE_BOUND('',#122,.T.);
#35=PLANE('',#602);
#36=PLANE('',#603);
#37=PLANE('',#621);
#38=PLANE('',#624);
#39=PLANE('',#627);
#40=PLANE('',#628);
#41=PLANE('',#629);
#42=PLANE('',#630);
#43=PLANE('',#651);
#44=PLANE('',#654);
#45=PLANE('',#657);
#46=PLANE('',#658);
#47=FACE_OUTER_BOUND('',#75,.T.);
#48=FACE_OUTER_BOUND('',#76,.T.);
#49=FACE_OUTER_BOUND('',#77,.T.);
#50=FACE_OUTER_BOUND('',#88,.T.);
#51=FACE_OUTER_BOUND('',#89,.T.);
#52=FACE_OUTER_BOUND('',#90,.T.);
#53=FACE_OUTER_BOUND('',#91,.T.);
#54=FACE_OUTER_BOUND('',#92,.T.);
#55=FACE_OUTER_BOUND('',#93,.T.);
#56=FACE_OUTER_BOUND('',#94,.T.);
#57=FACE_OUTER_BOUND('',#95,.T.);
#58=FACE_OUTER_BOUND('',#96,.T.);
#59=FACE_OUTER_BOUND('',#97,.T.);
#60=FACE_OUTER_BOUND('',#98,.T.);
#61=FACE_OUTER_BOUND('',#99,.T.);
#62=FACE_OUTER_BOUND('',#100,.T.);
#63=FACE_OUTER_BOUND('',#101,.T.);
#64=FACE_OUTER_BOUND('',#102,.T.);
#65=FACE_OUTER_BOUND('',#103,.T.);
#66=FACE_OUTER_BOUND('',#104,.T.);
#67=FACE_OUTER_BOUND('',#105,.T.);
#68=FACE_OUTER_BOUND('',#106,.T.);
#69=FACE_OUTER_BOUND('',#107,.T.);
#70=FACE_OUTER_BOUND('',#108,.T.);
#71=FACE_OUTER_BOUND('',#109,.T.);
#72=FACE_OUTER_BOUND('',#110,.T.);
#73=FACE_OUTER_BOUND('',#111,.T.);
#74=FACE_OUTER_BOUND('',#112,.T.);
#75=EDGE_LOOP('',(#377,#378,#379,#380));
#76=EDGE_LOOP('',(#381,#382,#383,#384));
#77=EDGE_LOOP('',(#385,#386,#387,#388,#389,#390,#391,#392,#393,#394,#395,
#396,#397,#398,#399,#400));
#78=EDGE_LOOP('',(#401));
#79=EDGE_LOOP('',(#402));
#80=EDGE_LOOP('',(#403));
#81=EDGE_LOOP('',(#404));
#82=EDGE_LOOP('',(#405));
#83=EDGE_LOOP('',(#406));
#84=EDGE_LOOP('',(#407));
#85=EDGE_LOOP('',(#408));
#86=EDGE_LOOP('',(#409));
#87=EDGE_LOOP('',(#410));
#88=EDGE_LOOP('',(#411,#412,#413,#414));
#89=EDGE_LOOP('',(#415,#416,#417,#418));
#90=EDGE_LOOP('',(#419,#420,#421,#422));
#91=EDGE_LOOP('',(#423,#424,#425,#426));
#92=EDGE_LOOP('',(#427,#428,#429,#430));
#93=EDGE_LOOP('',(#431,#432,#433,#434));
#94=EDGE_LOOP('',(#435,#436,#437,#438));
#95=EDGE_LOOP('',(#439,#440,#441,#442));
#96=EDGE_LOOP('',(#443,#444,#445,#446));
#97=EDGE_LOOP('',(#447,#448,#449,#450));
#98=EDGE_LOOP('',(#451,#452,#453,#454));
#99=EDGE_LOOP('',(#455,#456,#457,#458));
#100=EDGE_LOOP('',(#459,#460,#461,#462));
#101=EDGE_LOOP('',(#463,#464,#465,#466));
#102=EDGE_LOOP('',(#467,#468,#469,#470));
#103=EDGE_LOOP('',(#471,#472,#473,#474));
#104=EDGE_LOOP('',(#475,#476,#477,#478));
#105=EDGE_LOOP('',(#479,#480,#481,#482));
#106=EDGE_LOOP('',(#483,#484,#485,#486));
#107=EDGE_LOOP('',(#487,#488,#489,#490));
#108=EDGE_LOOP('',(#491,#492,#493,#494));
#109=EDGE_LOOP('',(#495,#496,#497,#498));
#110=EDGE_LOOP('',(#499,#500,#501,#502));
#111=EDGE_LOOP('',(#503,#504,#505,#506));
#112=EDGE_LOOP('',(#507,#508,#509,#510,#511,#512,#513,#514,#515,#516,#517,
#518,#519,#520,#521,#522));
#113=EDGE_LOOP('',(#523));
#114=EDGE_LOOP('',(#524));
#115=EDGE_LOOP('',(#525));
#116=EDGE_LOOP('',(#526));
#117=EDGE_LOOP('',(#527));
#118=EDGE_LOOP('',(#528));
#119=EDGE_LOOP('',(#529));
#120=EDGE_LOOP('',(#530));
#121=EDGE_LOOP('',(#531));
#122=EDGE_LOOP('',(#532));
#123=LINE('',#833,#169);
#124=LINE('',#836,#170);
#125=LINE('',#839,#171);
#126=LINE('',#841,#172);
#127=LINE('',#842,#173);
#128=LINE('',#845,#174);
#129=LINE('',#849,#175);
#130=LINE('',#851,#176);
#131=LINE('',#853,#177);
#132=LINE('',#857,#178);
#133=LINE('',#861,#179);
#134=LINE('',#863,#180);
#135=LINE('',#865,#181);
#136=LINE('',#869,#182);
#137=LINE('',#894,#183);
#138=LINE('',#897,#184);
#139=LINE('',#898,#185);
#140=LINE('',#903,#186);
#141=LINE('',#904,#187);
#142=LINE('',#906,#188);
#143=LINE('',#910,#189);
#144=LINE('',#913,#190);
#145=LINE('',#915,#191);
#146=LINE('',#916,#192);
#147=LINE('',#918,#193);
#148=LINE('',#921,#194);
#149=LINE('',#923,#195);
#150=LINE('',#924,#196);
#151=LINE('',#927,#197);
#152=LINE('',#928,#198);
#153=LINE('',#932,#199);
#154=LINE('',#936,#200);
#155=LINE('',#940,#201);
#156=LINE('',#944,#202);
#157=LINE('',#948,#203);
#158=LINE('',#952,#204);
#159=LINE('',#956,#205);
#160=LINE('',#960,#206);
#161=LINE('',#964,#207);
#162=LINE('',#968,#208);
#163=LINE('',#971,#209);
#164=LINE('',#972,#210);
#165=LINE('',#976,#211);
#166=LINE('',#979,#212);
#167=LINE('',#980,#213);
#168=LINE('',#984,#214);
#169=VECTOR('',#665,0.393700787401575);
#170=VECTOR('',#668,0.393700787401575);
#171=VECTOR('',#671,0.393700787401575);
#172=VECTOR('',#672,0.393700787401575);
#173=VECTOR('',#673,0.393700787401575);
#174=VECTOR('',#676,0.393700787401575);
#175=VECTOR('',#679,0.393700787401575);
#176=VECTOR('',#680,0.393700787401575);
#177=VECTOR('',#681,0.393700787401575);
#178=VECTOR('',#684,0.393700787401575);
#179=VECTOR('',#687,0.393700787401575);
#180=VECTOR('',#688,0.393700787401575);
#181=VECTOR('',#689,0.393700787401575);
#182=VECTOR('',#692,0.393700787401575);
#183=VECTOR('',#719,0.393700787401575);
#184=VECTOR('',#722,0.393700787401575);
#185=VECTOR('',#723,0.393700787401575);
#186=VECTOR('',#728,0.393700787401575);
#187=VECTOR('',#729,0.393700787401575);
#188=VECTOR('',#732,0.393700787401575);
#189=VECTOR('',#737,0.393700787401575);
#190=VECTOR('',#740,0.393700787401575);
#191=VECTOR('',#741,0.393700787401575);
#192=VECTOR('',#742,0.393700787401575);
#193=VECTOR('',#745,0.393700787401575);
#194=VECTOR('',#748,0.393700787401575);
#195=VECTOR('',#749,0.393700787401575);
#196=VECTOR('',#750,0.393700787401575);
#197=VECTOR('',#753,0.393700787401575);
#198=VECTOR('',#754,0.393700787401575);
#199=VECTOR('',#759,0.0859999999999998);
#200=VECTOR('',#764,0.0859999999999998);
#201=VECTOR('',#769,0.0859999999999998);
#202=VECTOR('',#774,0.0859999999999998);
#203=VECTOR('',#779,0.0859999999999998);
#204=VECTOR('',#784,0.0859999999999998);
#205=VECTOR('',#789,0.0859999999999998);
#206=VECTOR('',#794,0.0859999999999998);
#207=VECTOR('',#799,0.0859999999999998);
#208=VECTOR('',#804,0.0859999999999998);
#209=VECTOR('',#807,0.393700787401575);
#210=VECTOR('',#808,0.393700787401575);
#211=VECTOR('',#813,0.393700787401575);
#212=VECTOR('',#816,0.393700787401575);
#213=VECTOR('',#817,0.393700787401575);
#214=VECTOR('',#824,0.393700787401575);
#215=CIRCLE('',#600,0.125);
#216=CIRCLE('',#601,0.125);
#217=CIRCLE('',#604,0.125);
#218=CIRCLE('',#605,0.25);
#219=CIRCLE('',#606,0.25);
#220=CIRCLE('',#607,0.125);
#221=CIRCLE('',#608,0.125);
#222=CIRCLE('',#609,0.0859999999999998);
#223=CIRCLE('',#610,0.0859999999999998);
#224=CIRCLE('',#611,0.0859999999999998);
#225=CIRCLE('',#612,0.0859999999999998);
#226=CIRCLE('',#613,0.0859999999999998);
#227=CIRCLE('',#614,0.0859999999999998);
#228=CIRCLE('',#615,0.0859999999999998);
#229=CIRCLE('',#616,0.0859999999999998);
#230=CIRCLE('',#617,0.0859999999999998);
#231=CIRCLE('',#618,0.0859999999999998);
#232=CIRCLE('',#620,0.125);
#233=CIRCLE('',#623,0.125);
#234=CIRCLE('',#626,0.125);
#235=CIRCLE('',#632,0.0859999999999998);
#236=CIRCLE('',#634,0.0859999999999998);
#237=CIRCLE('',#636,0.0859999999999998);
#238=CIRCLE('',#638,0.0859999999999998);
#239=CIRCLE('',#640,0.0859999999999998);
#240=CIRCLE('',#642,0.0859999999999998);
#241=CIRCLE('',#644,0.0859999999999998);
#242=CIRCLE('',#646,0.0859999999999998);
#243=CIRCLE('',#648,0.0859999999999998);
#244=CIRCLE('',#650,0.0859999999999998);
#245=CIRCLE('',#653,0.25);
#246=CIRCLE('',#656,0.25);
#247=VERTEX_POINT('',#829);
#248=VERTEX_POINT('',#830);
#249=VERTEX_POINT('',#832);
#250=VERTEX_POINT('',#834);
#251=VERTEX_POINT('',#838);
#252=VERTEX_POINT('',#840);
#253=VERTEX_POINT('',#844);
#254=VERTEX_POINT('',#846);
#255=VERTEX_POINT('',#848);
#256=VERTEX_POINT('',#850);
#257=VERTEX_POINT('',#852);
#258=VERTEX_POINT('',#854);
#259=VERTEX_POINT('',#856);
#260=VERTEX_POINT('',#858);
#261=VERTEX_POINT('',#860);
#262=VERTEX_POINT('',#862);
#263=VERTEX_POINT('',#864);
#264=VERTEX_POINT('',#866);
#265=VERTEX_POINT('',#868);
#266=VERTEX_POINT('',#871);
#267=VERTEX_POINT('',#873);
#268=VERTEX_POINT('',#875);
#269=VERTEX_POINT('',#877);
#270=VERTEX_POINT('',#879);
#271=VERTEX_POINT('',#881);
#272=VERTEX_POINT('',#883);
#273=VERTEX_POINT('',#885);
#274=VERTEX_POINT('',#887);
#275=VERTEX_POINT('',#889);
#276=VERTEX_POINT('',#892);
#277=VERTEX_POINT('',#896);
#278=VERTEX_POINT('',#900);
#279=VERTEX_POINT('',#901);
#280=VERTEX_POINT('',#908);
#281=VERTEX_POINT('',#912);
#282=VERTEX_POINT('',#914);
#283=VERTEX_POINT('',#920);
#284=VERTEX_POINT('',#922);
#285=VERTEX_POINT('',#926);
#286=VERTEX_POINT('',#930);
#287=VERTEX_POINT('',#934);
#288=VERTEX_POINT('',#938);
#289=VERTEX_POINT('',#942);
#290=VERTEX_POINT('',#946);
#291=VERTEX_POINT('',#950);
#292=VERTEX_POINT('',#954);
#293=VERTEX_POINT('',#958);
#294=VERTEX_POINT('',#962);
#295=VERTEX_POINT('',#966);
#296=VERTEX_POINT('',#970);
#297=VERTEX_POINT('',#974);
#298=VERTEX_POINT('',#978);
#299=EDGE_CURVE('',#247,#248,#215,.T.);
#300=EDGE_CURVE('',#248,#249,#123,.T.);
#301=EDGE_CURVE('',#249,#250,#216,.T.);
#302=EDGE_CURVE('',#250,#247,#124,.T.);
#303=EDGE_CURVE('',#250,#251,#125,.T.);
#304=EDGE_CURVE('',#252,#251,#126,.T.);
#305=EDGE_CURVE('',#247,#252,#127,.T.);
#306=EDGE_CURVE('',#253,#249,#128,.T.);
#307=EDGE_CURVE('',#254,#253,#217,.T.);
#308=EDGE_CURVE('',#255,#254,#129,.T.);
#309=EDGE_CURVE('',#256,#255,#130,.T.);
#310=EDGE_CURVE('',#257,#256,#131,.T.);
#311=EDGE_CURVE('',#258,#257,#218,.T.);
#312=EDGE_CURVE('',#259,#258,#132,.T.);
#313=EDGE_CURVE('',#260,#259,#219,.T.);
#314=EDGE_CURVE('',#261,#260,#133,.T.);
#315=EDGE_CURVE('',#262,#261,#134,.T.);
#316=EDGE_CURVE('',#263,#262,#135,.T.);
#317=EDGE_CURVE('',#264,#263,#220,.T.);
#318=EDGE_CURVE('',#265,#264,#136,.T.);
#319=EDGE_CURVE('',#251,#265,#221,.T.);
#320=EDGE_CURVE('',#266,#266,#222,.T.);
#321=EDGE_CURVE('',#267,#267,#223,.T.);
#322=EDGE_CURVE('',#268,#268,#224,.T.);
#323=EDGE_CURVE('',#269,#269,#225,.T.);
#324=EDGE_CURVE('',#270,#270,#226,.T.);
#325=EDGE_CURVE('',#271,#271,#227,.T.);
#326=EDGE_CURVE('',#272,#272,#228,.T.);
#327=EDGE_CURVE('',#273,#273,#229,.T.);
#328=EDGE_CURVE('',#274,#274,#230,.T.);
#329=EDGE_CURVE('',#275,#275,#231,.T.);
#330=EDGE_CURVE('',#276,#252,#232,.T.);
#331=EDGE_CURVE('',#265,#276,#137,.T.);
#332=EDGE_CURVE('',#277,#264,#138,.T.);
#333=EDGE_CURVE('',#276,#277,#139,.T.);
#334=EDGE_CURVE('',#278,#279,#233,.T.);
#335=EDGE_CURVE('',#279,#254,#140,.T.);
#336=EDGE_CURVE('',#253,#278,#141,.T.);
#337=EDGE_CURVE('',#278,#248,#142,.T.);
#338=EDGE_CURVE('',#280,#277,#234,.T.);
#339=EDGE_CURVE('',#263,#280,#143,.T.);
#340=EDGE_CURVE('',#255,#281,#144,.T.);
#341=EDGE_CURVE('',#281,#282,#145,.T.);
#342=EDGE_CURVE('',#282,#256,#146,.T.);
#343=EDGE_CURVE('',#281,#279,#147,.T.);
#344=EDGE_CURVE('',#261,#283,#148,.T.);
#345=EDGE_CURVE('',#283,#284,#149,.T.);
#346=EDGE_CURVE('',#284,#262,#150,.T.);
#347=EDGE_CURVE('',#260,#285,#151,.T.);
#348=EDGE_CURVE('',#283,#285,#152,.T.);
#349=EDGE_CURVE('',#286,#286,#235,.T.);
#350=EDGE_CURVE('',#286,#275,#153,.T.);
#351=EDGE_CURVE('',#287,#287,#236,.T.);
#352=EDGE_CURVE('',#287,#274,#154,.T.);
#353=EDGE_CURVE('',#288,#288,#237,.T.);
#354=EDGE_CURVE('',#288,#273,#155,.T.);
#355=EDGE_CURVE('',#289,#289,#238,.T.);
#356=EDGE_CURVE('',#289,#272,#156,.T.);
#357=EDGE_CURVE('',#290,#290,#239,.T.);
#358=EDGE_CURVE('',#290,#271,#157,.T.);
#359=EDGE_CURVE('',#291,#291,#240,.T.);
#360=EDGE_CURVE('',#291,#270,#158,.T.);
#361=EDGE_CURVE('',#292,#292,#241,.T.);
#362=EDGE_CURVE('',#292,#269,#159,.T.);
#363=EDGE_CURVE('',#293,#293,#242,.T.);
#364=EDGE_CURVE('',#293,#268,#160,.T.);
#365=EDGE_CURVE('',#294,#294,#243,.T.);
#366=EDGE_CURVE('',#294,#267,#161,.T.);
#367=EDGE_CURVE('',#295,#295,#244,.T.);
#368=EDGE_CURVE('',#295,#266,#162,.T.);
#369=EDGE_CURVE('',#296,#282,#163,.T.);
#370=EDGE_CURVE('',#257,#296,#164,.T.);
#371=EDGE_CURVE('',#297,#296,#245,.T.);
#372=EDGE_CURVE('',#258,#297,#165,.T.);
#373=EDGE_CURVE('',#298,#297,#166,.T.);
#374=EDGE_CURVE('',#259,#298,#167,.T.);
#375=EDGE_CURVE('',#285,#298,#246,.T.);
#376=EDGE_CURVE('',#280,#284,#168,.T.);
#377=ORIENTED_EDGE('',*,*,#299,.T.);
#378=ORIENTED_EDGE('',*,*,#300,.T.);
#379=ORIENTED_EDGE('',*,*,#301,.T.);
#380=ORIENTED_EDGE('',*,*,#302,.T.);
#381=ORIENTED_EDGE('',*,*,#302,.F.);
#382=ORIENTED_EDGE('',*,*,#303,.T.);
#383=ORIENTED_EDGE('',*,*,#304,.F.);
#384=ORIENTED_EDGE('',*,*,#305,.F.);
#385=ORIENTED_EDGE('',*,*,#301,.F.);
#386=ORIENTED_EDGE('',*,*,#306,.F.);
#387=ORIENTED_EDGE('',*,*,#307,.F.);
#388=ORIENTED_EDGE('',*,*,#308,.F.);
#389=ORIENTED_EDGE('',*,*,#309,.F.);
#390=ORIENTED_EDGE('',*,*,#310,.F.);
#391=ORIENTED_EDGE('',*,*,#311,.F.);
#392=ORIENTED_EDGE('',*,*,#312,.F.);
#393=ORIENTED_EDGE('',*,*,#313,.F.);
#394=ORIENTED_EDGE('',*,*,#314,.F.);
#395=ORIENTED_EDGE('',*,*,#315,.F.);
#396=ORIENTED_EDGE('',*,*,#316,.F.);
#397=ORIENTED_EDGE('',*,*,#317,.F.);
#398=ORIENTED_EDGE('',*,*,#318,.F.);
#399=ORIENTED_EDGE('',*,*,#319,.F.);
#400=ORIENTED_EDGE('',*,*,#303,.F.);
#401=ORIENTED_EDGE('',*,*,#320,.F.);
#402=ORIENTED_EDGE('',*,*,#321,.F.);
#403=ORIENTED_EDGE('',*,*,#322,.F.);
#404=ORIENTED_EDGE('',*,*,#323,.F.);
#405=ORIENTED_EDGE('',*,*,#324,.F.);
#406=ORIENTED_EDGE('',*,*,#325,.F.);
#407=ORIENTED_EDGE('',*,*,#326,.F.);
#408=ORIENTED_EDGE('',*,*,#327,.F.);
#409=ORIENTED_EDGE('',*,*,#328,.F.);
#410=ORIENTED_EDGE('',*,*,#329,.F.);
#411=ORIENTED_EDGE('',*,*,#330,.T.);
#412=ORIENTED_EDGE('',*,*,#304,.T.);
#413=ORIENTED_EDGE('',*,*,#319,.T.);
#414=ORIENTED_EDGE('',*,*,#331,.T.);
#415=ORIENTED_EDGE('',*,*,#331,.F.);
#416=ORIENTED_EDGE('',*,*,#318,.T.);
#417=ORIENTED_EDGE('',*,*,#332,.F.);
#418=ORIENTED_EDGE('',*,*,#333,.F.);
#419=ORIENTED_EDGE('',*,*,#334,.T.);
#420=ORIENTED_EDGE('',*,*,#335,.T.);
#421=ORIENTED_EDGE('',*,*,#307,.T.);
#422=ORIENTED_EDGE('',*,*,#336,.T.);
#423=ORIENTED_EDGE('',*,*,#300,.F.);
#424=ORIENTED_EDGE('',*,*,#337,.F.);
#425=ORIENTED_EDGE('',*,*,#336,.F.);
#426=ORIENTED_EDGE('',*,*,#306,.T.);
#427=ORIENTED_EDGE('',*,*,#338,.T.);
#428=ORIENTED_EDGE('',*,*,#332,.T.);
#429=ORIENTED_EDGE('',*,*,#317,.T.);
#430=ORIENTED_EDGE('',*,*,#339,.T.);
#431=ORIENTED_EDGE('',*,*,#309,.T.);
#432=ORIENTED_EDGE('',*,*,#340,.T.);
#433=ORIENTED_EDGE('',*,*,#341,.T.);
#434=ORIENTED_EDGE('',*,*,#342,.T.);
#435=ORIENTED_EDGE('',*,*,#335,.F.);
#436=ORIENTED_EDGE('',*,*,#343,.F.);
#437=ORIENTED_EDGE('',*,*,#340,.F.);
#438=ORIENTED_EDGE('',*,*,#308,.T.);
#439=ORIENTED_EDGE('',*,*,#315,.T.);
#440=ORIENTED_EDGE('',*,*,#344,.T.);
#441=ORIENTED_EDGE('',*,*,#345,.T.);
#442=ORIENTED_EDGE('',*,*,#346,.T.);
#443=ORIENTED_EDGE('',*,*,#344,.F.);
#444=ORIENTED_EDGE('',*,*,#314,.T.);
#445=ORIENTED_EDGE('',*,*,#347,.T.);
#446=ORIENTED_EDGE('',*,*,#348,.F.);
#447=ORIENTED_EDGE('',*,*,#349,.F.);
#448=ORIENTED_EDGE('',*,*,#350,.T.);
#449=ORIENTED_EDGE('',*,*,#329,.T.);
#450=ORIENTED_EDGE('',*,*,#350,.F.);
#451=ORIENTED_EDGE('',*,*,#351,.F.);
#452=ORIENTED_EDGE('',*,*,#352,.T.);
#453=ORIENTED_EDGE('',*,*,#328,.T.);
#454=ORIENTED_EDGE('',*,*,#352,.F.);
#455=ORIENTED_EDGE('',*,*,#353,.F.);
#456=ORIENTED_EDGE('',*,*,#354,.T.);
#457=ORIENTED_EDGE('',*,*,#327,.T.);
#458=ORIENTED_EDGE('',*,*,#354,.F.);
#459=ORIENTED_EDGE('',*,*,#355,.F.);
#460=ORIENTED_EDGE('',*,*,#356,.T.);
#461=ORIENTED_EDGE('',*,*,#326,.T.);
#462=ORIENTED_EDGE('',*,*,#356,.F.);
#463=ORIENTED_EDGE('',*,*,#357,.F.);
#464=ORIENTED_EDGE('',*,*,#358,.T.);
#465=ORIENTED_EDGE('',*,*,#325,.T.);
#466=ORIENTED_EDGE('',*,*,#358,.F.);
#467=ORIENTED_EDGE('',*,*,#359,.F.);
#468=ORIENTED_EDGE('',*,*,#360,.T.);
#469=ORIENTED_EDGE('',*,*,#324,.T.);
#470=ORIENTED_EDGE('',*,*,#360,.F.);
#471=ORIENTED_EDGE('',*,*,#361,.F.);
#472=ORIENTED_EDGE('',*,*,#362,.T.);
#473=ORIENTED_EDGE('',*,*,#323,.T.);
#474=ORIENTED_EDGE('',*,*,#362,.F.);
#475=ORIENTED_EDGE('',*,*,#363,.F.);
#476=ORIENTED_EDGE('',*,*,#364,.T.);
#477=ORIENTED_EDGE('',*,*,#322,.T.);
#478=ORIENTED_EDGE('',*,*,#364,.F.);
#479=ORIENTED_EDGE('',*,*,#365,.F.);
#480=ORIENTED_EDGE('',*,*,#366,.T.);
#481=ORIENTED_EDGE('',*,*,#321,.T.);
#482=ORIENTED_EDGE('',*,*,#366,.F.);
#483=ORIENTED_EDGE('',*,*,#367,.F.);
#484=ORIENTED_EDGE('',*,*,#368,.T.);
#485=ORIENTED_EDGE('',*,*,#320,.T.);
#486=ORIENTED_EDGE('',*,*,#368,.F.);
#487=ORIENTED_EDGE('',*,*,#342,.F.);
#488=ORIENTED_EDGE('',*,*,#369,.F.);
#489=ORIENTED_EDGE('',*,*,#370,.F.);
#490=ORIENTED_EDGE('',*,*,#310,.T.);
#491=ORIENTED_EDGE('',*,*,#311,.T.);
#492=ORIENTED_EDGE('',*,*,#370,.T.);
#493=ORIENTED_EDGE('',*,*,#371,.F.);
#494=ORIENTED_EDGE('',*,*,#372,.F.);
#495=ORIENTED_EDGE('',*,*,#312,.T.);
#496=ORIENTED_EDGE('',*,*,#372,.T.);
#497=ORIENTED_EDGE('',*,*,#373,.F.);
#498=ORIENTED_EDGE('',*,*,#374,.F.);
#499=ORIENTED_EDGE('',*,*,#313,.T.);
#500=ORIENTED_EDGE('',*,*,#374,.T.);
#501=ORIENTED_EDGE('',*,*,#375,.F.);
#502=ORIENTED_EDGE('',*,*,#347,.F.);
#503=ORIENTED_EDGE('',*,*,#339,.F.);
#504=ORIENTED_EDGE('',*,*,#316,.T.);
#505=ORIENTED_EDGE('',*,*,#346,.F.);
#506=ORIENTED_EDGE('',*,*,#376,.F.);
#507=ORIENTED_EDGE('',*,*,#299,.F.);
#508=ORIENTED_EDGE('',*,*,#305,.T.);
#509=ORIENTED_EDGE('',*,*,#330,.F.);
#510=ORIENTED_EDGE('',*,*,#333,.T.);
#511=ORIENTED_EDGE('',*,*,#338,.F.);
#512=ORIENTED_EDGE('',*,*,#376,.T.);
#513=ORIENTED_EDGE('',*,*,#345,.F.);
#514=ORIENTED_EDGE('',*,*,#348,.T.);
#515=ORIENTED_EDGE('',*,*,#375,.T.);
#516=ORIENTED_EDGE('',*,*,#373,.T.);
#517=ORIENTED_EDGE('',*,*,#371,.T.);
#518=ORIENTED_EDGE('',*,*,#369,.T.);
#519=ORIENTED_EDGE('',*,*,#341,.F.);
#520=ORIENTED_EDGE('',*,*,#343,.T.);
#521=ORIENTED_EDGE('',*,*,#334,.F.);
#522=ORIENTED_EDGE('',*,*,#337,.T.);
#523=ORIENTED_EDGE('',*,*,#367,.T.);
#524=ORIENTED_EDGE('',*,*,#365,.T.);
#525=ORIENTED_EDGE('',*,*,#363,.T.);
#526=ORIENTED_EDGE('',*,*,#361,.T.);
#527=ORIENTED_EDGE('',*,*,#359,.T.);
#528=ORIENTED_EDGE('',*,*,#357,.T.);
#529=ORIENTED_EDGE('',*,*,#355,.T.);
#530=ORIENTED_EDGE('',*,*,#353,.T.);
#531=ORIENTED_EDGE('',*,*,#351,.T.);
#532=ORIENTED_EDGE('',*,*,#349,.T.);
#533=CYLINDRICAL_SURFACE('',#599,0.125);
#534=CYLINDRICAL_SURFACE('',#619,0.125);
#535=CYLINDRICAL_SURFACE('',#622,0.125);
#536=CYLINDRICAL_SURFACE('',#625,0.125);
#537=CYLINDRICAL_SURFACE('',#631,0.0859999999999998);
#538=CYLINDRICAL_SURFACE('',#633,0.0859999999999998);
#539=CYLINDRICAL_SURFACE('',#635,0.0859999999999998);
#540=CYLINDRICAL_SURFACE('',#637,0.0859999999999998);
#541=CYLINDRICAL_SURFACE('',#639,0.0859999999999998);
#542=CYLINDRICAL_SURFACE('',#641,0.0859999999999998);
#543=CYLINDRICAL_SURFACE('',#643,0.0859999999999998);
#544=CYLINDRICAL_SURFACE('',#645,0.0859999999999998);
#545=CYLINDRICAL_SURFACE('',#647,0.0859999999999998);
#546=CYLINDRICAL_SURFACE('',#649,0.0859999999999998);
#547=CYLINDRICAL_SURFACE('',#652,0.25);
#548=CYLINDRICAL_SURFACE('',#655,0.25);
#549=ADVANCED_FACE('',(#47),#533,.T.);
#550=ADVANCED_FACE('',(#48),#35,.T.);
#551=ADVANCED_FACE('',(#49,#15,#16,#17,#18,#19,#20,#21,#22,#23,#24),#36,
 .F.);
#552=ADVANCED_FACE('',(#50),#534,.T.);
#553=ADVANCED_FACE('',(#51),#37,.T.);
#554=ADVANCED_FACE('',(#52),#535,.T.);
#555=ADVANCED_FACE('',(#53),#38,.T.);
#556=ADVANCED_FACE('',(#54),#536,.T.);
#557=ADVANCED_FACE('',(#55),#39,.T.);
#558=ADVANCED_FACE('',(#56),#40,.T.);
#559=ADVANCED_FACE('',(#57),#41,.T.);
#560=ADVANCED_FACE('',(#58),#42,.T.);
#561=ADVANCED_FACE('',(#59),#537,.F.);
#562=ADVANCED_FACE('',(#60),#538,.F.);
#563=ADVANCED_FACE('',(#61),#539,.F.);
#564=ADVANCED_FACE('',(#62),#540,.F.);
#565=ADVANCED_FACE('',(#63),#541,.F.);
#566=ADVANCED_FACE('',(#64),#542,.F.);
#567=ADVANCED_FACE('',(#65),#543,.F.);
#568=ADVANCED_FACE('',(#66),#544,.F.);
#569=ADVANCED_FACE('',(#67),#545,.F.);
#570=ADVANCED_FACE('',(#68),#546,.F.);
#571=ADVANCED_FACE('',(#69),#43,.T.);
#572=ADVANCED_FACE('',(#70),#547,.T.);
#573=ADVANCED_FACE('',(#71),#44,.T.);
#574=ADVANCED_FACE('',(#72),#548,.T.);
#575=ADVANCED_FACE('',(#73),#45,.T.);
#576=ADVANCED_FACE('',(#74,#25,#26,#27,#28,#29,#30,#31,#32,#33,#34),#46,
 .T.);
#577=CLOSED_SHELL('',(#549,#550,#551,#552,#553,#554,#555,#556,#557,#558,
#559,#560,#561,#562,#563,#564,#565,#566,#567,#568,#569,#570,#571,#572,#573,
#574,#575,#576));
#578=DERIVED_UNIT_ELEMENT(#580,1.);
#579=DERIVED_UNIT_ELEMENT(#994,-3.);
#580=(
CONVERSION_BASED_UNIT('gram',#582)
MASS_UNIT()
NAMED_UNIT(#991)
);
#581=(
MASS_UNIT()
NAMED_UNIT(*)
SI_UNIT(.KILO.,.GRAM.)
);
#582=MASS_MEASURE_WITH_UNIT(MASS_MEASURE(0.001),#581);
#583=DERIVED_UNIT((#578,#579));
#584=MEASURE_REPRESENTATION_ITEM('density measure',
POSITIVE_RATIO_MEASURE(1.425),#583);
#585=PROPERTY_DEFINITION_REPRESENTATION(#590,#587);
#586=PROPERTY_DEFINITION_REPRESENTATION(#591,#588);
#587=REPRESENTATION('material name',(#589),#988);
#588=REPRESENTATION('density',(#584),#988);
#589=DESCRIPTIVE_REPRESENTATION_ITEM('Acetal Resin, Black',
'Acetal Resin, Black');
#590=PROPERTY_DEFINITION('material property','material name',#1002);
#591=PROPERTY_DEFINITION('material property','density of part',#1002);
#592=DATE_TIME_ROLE('creation_date');
#593=APPLIED_DATE_AND_TIME_ASSIGNMENT(#594,#592,(#1002));
#594=DATE_AND_TIME(#595,#596);
#595=CALENDAR_DATE(2025,2,12);
#596=LOCAL_TIME(0,0,0.,#597);
#597=COORDINATED_UNIVERSAL_TIME_OFFSET(0,0,.BEHIND.);
#598=AXIS2_PLACEMENT_3D('',#827,#659,#660);
#599=AXIS2_PLACEMENT_3D('',#828,#661,#662);
#600=AXIS2_PLACEMENT_3D('',#831,#663,#664);
#601=AXIS2_PLACEMENT_3D('',#835,#666,#667);
#602=AXIS2_PLACEMENT_3D('',#837,#669,#670);
#603=AXIS2_PLACEMENT_3D('',#843,#674,#675);
#604=AXIS2_PLACEMENT_3D('',#847,#677,#678);
#605=AXIS2_PLACEMENT_3D('',#855,#682,#683);
#606=AXIS2_PLACEMENT_3D('',#859,#685,#686);
#607=AXIS2_PLACEMENT_3D('',#867,#690,#691);
#608=AXIS2_PLACEMENT_3D('',#870,#693,#694);
#609=AXIS2_PLACEMENT_3D('',#872,#695,#696);
#610=AXIS2_PLACEMENT_3D('',#874,#697,#698);
#611=AXIS2_PLACEMENT_3D('',#876,#699,#700);
#612=AXIS2_PLACEMENT_3D('',#878,#701,#702);
#613=AXIS2_PLACEMENT_3D('',#880,#703,#704);
#614=AXIS2_PLACEMENT_3D('',#882,#705,#706);
#615=AXIS2_PLACEMENT_3D('',#884,#707,#708);
#616=AXIS2_PLACEMENT_3D('',#886,#709,#710);
#617=AXIS2_PLACEMENT_3D('',#888,#711,#712);
#618=AXIS2_PLACEMENT_3D('',#890,#713,#714);
#619=AXIS2_PLACEMENT_3D('',#891,#715,#716);
#620=AXIS2_PLACEMENT_3D('',#893,#717,#718);
#621=AXIS2_PLACEMENT_3D('',#895,#720,#721);
#622=AXIS2_PLACEMENT_3D('',#899,#724,#725);
#623=AXIS2_PLACEMENT_3D('',#902,#726,#727);
#624=AXIS2_PLACEMENT_3D('',#905,#730,#731);
#625=AXIS2_PLACEMENT_3D('',#907,#733,#734);
#626=AXIS2_PLACEMENT_3D('',#909,#735,#736);
#627=AXIS2_PLACEMENT_3D('',#911,#738,#739);
#628=AXIS2_PLACEMENT_3D('',#917,#743,#744);
#629=AXIS2_PLACEMENT_3D('',#919,#746,#747);
#630=AXIS2_PLACEMENT_3D('',#925,#751,#752);
#631=AXIS2_PLACEMENT_3D('',#929,#755,#756);
#632=AXIS2_PLACEMENT_3D('',#931,#757,#758);
#633=AXIS2_PLACEMENT_3D('',#933,#760,#761);
#634=AXIS2_PLACEMENT_3D('',#935,#762,#763);
#635=AXIS2_PLACEMENT_3D('',#937,#765,#766);
#636=AXIS2_PLACEMENT_3D('',#939,#767,#768);
#637=AXIS2_PLACEMENT_3D('',#941,#770,#771);
#638=AXIS2_PLACEMENT_3D('',#943,#772,#773);
#639=AXIS2_PLACEMENT_3D('',#945,#775,#776);
#640=AXIS2_PLACEMENT_3D('',#947,#777,#778);
#641=AXIS2_PLACEMENT_3D('',#949,#780,#781);
#642=AXIS2_PLACEMENT_3D('',#951,#782,#783);
#643=AXIS2_PLACEMENT_3D('',#953,#785,#786);
#644=AXIS2_PLACEMENT_3D('',#955,#787,#788);
#645=AXIS2_PLACEMENT_3D('',#957,#790,#791);
#646=AXIS2_PLACEMENT_3D('',#959,#792,#793);
#647=AXIS2_PLACEMENT_3D('',#961,#795,#796);
#648=AXIS2_PLACEMENT_3D('',#963,#797,#798);
#649=AXIS2_PLACEMENT_3D('',#965,#800,#801);
#650=AXIS2_PLACEMENT_3D('',#967,#802,#803);
#651=AXIS2_PLACEMENT_3D('',#969,#805,#806);
#652=AXIS2_PLACEMENT_3D('',#973,#809,#810);
#653=AXIS2_PLACEMENT_3D('',#975,#811,#812);
#654=AXIS2_PLACEMENT_3D('',#977,#814,#815);
#655=AXIS2_PLACEMENT_3D('',#981,#818,#819);
#656=AXIS2_PLACEMENT_3D('',#982,#820,#821);
#657=AXIS2_PLACEMENT_3D('',#983,#822,#823);
#658=AXIS2_PLACEMENT_3D('',#985,#825,#826);
#659=DIRECTION('axis',(0.,0.,1.));
#660=DIRECTION('refdir',(1.,0.,0.));
#661=DIRECTION('center_axis',(0.,0.,1.));
#662=DIRECTION('ref_axis',(0.923879532511287,-0.382683432365089,0.));
#663=DIRECTION('center_axis',(0.,0.,-1.));
#664=DIRECTION('ref_axis',(0.923879532511287,-0.382683432365089,0.));
#665=DIRECTION('',(0.,0.,-1.));
#666=DIRECTION('center_axis',(0.,0.,1.));
#667=DIRECTION('ref_axis',(0.923879532511287,-0.382683432365089,0.));
#668=DIRECTION('',(0.,0.,1.));
#669=DIRECTION('center_axis',(1.,3.62230049846691E-16,0.));
#670=DIRECTION('ref_axis',(-3.62230049846691E-16,1.,0.));
#671=DIRECTION('',(-3.62230049846691E-16,1.,0.));
#672=DIRECTION('',(0.,0.,-1.));
#673=DIRECTION('',(-3.62230049846691E-16,1.,0.));
#674=DIRECTION('center_axis',(0.,0.,1.));
#675=DIRECTION('ref_axis',(1.,0.,0.));
#676=DIRECTION('',(0.707106781186547,0.707106781186548,0.));
#677=DIRECTION('center_axis',(0.,0.,1.));
#678=DIRECTION('ref_axis',(-0.382683432365091,-0.923879532511287,0.));
#679=DIRECTION('',(2.68981956299244E-17,-1.,0.));
#680=DIRECTION('',(0.707106781186548,-0.707106781186547,0.));
#681=DIRECTION('',(1.,0.,0.));
#682=DIRECTION('center_axis',(0.,0.,1.));
#683=DIRECTION('ref_axis',(1.,0.,0.));
#684=DIRECTION('',(0.,-1.,0.));
#685=DIRECTION('center_axis',(0.,0.,1.));
#686=DIRECTION('ref_axis',(1.,0.,0.));
#687=DIRECTION('',(-1.,0.,0.));
#688=DIRECTION('',(-0.707106781186548,-0.707106781186547,0.));
#689=DIRECTION('',(8.06945868897772E-17,-1.,0.));
#690=DIRECTION('center_axis',(0.,0.,1.));
#691=DIRECTION('ref_axis',(-0.382683432365088,0.923879532511288,0.));
#692=DIRECTION('',(-0.707106781186547,0.707106781186548,0.));
#693=DIRECTION('center_axis',(0.,0.,1.));
#694=DIRECTION('ref_axis',(0.923879532511287,0.38268343236509,0.));
#695=DIRECTION('center_axis',(0.,0.,-1.));
#696=DIRECTION('ref_axis',(-1.,0.,0.));
#697=DIRECTION('center_axis',(0.,0.,-1.));
#698=DIRECTION('ref_axis',(-1.,0.,0.));
#699=DIRECTION('center_axis',(0.,0.,-1.));
#700=DIRECTION('ref_axis',(-1.,0.,0.));
#701=DIRECTION('center_axis',(0.,0.,-1.));
#702=DIRECTION('ref_axis',(-1.,0.,0.));
#703=DIRECTION('center_axis',(0.,0.,-1.));
#704=DIRECTION('ref_axis',(-1.,0.,0.));
#705=DIRECTION('center_axis',(0.,0.,-1.));
#706=DIRECTION('ref_axis',(-1.,0.,0.));
#707=DIRECTION('center_axis',(0.,0.,-1.));
#708=DIRECTION('ref_axis',(-1.,0.,0.));
#709=DIRECTION('center_axis',(0.,0.,-1.));
#710=DIRECTION('ref_axis',(-1.,0.,0.));
#711=DIRECTION('center_axis',(0.,0.,-1.));
#712=DIRECTION('ref_axis',(-1.,0.,0.));
#713=DIRECTION('center_axis',(0.,0.,-1.));
#714=DIRECTION('ref_axis',(-1.,0.,0.));
#715=DIRECTION('center_axis',(0.,0.,1.));
#716=DIRECTION('ref_axis',(0.923879532511287,0.38268343236509,0.));
#717=DIRECTION('center_axis',(0.,0.,-1.));
#718=DIRECTION('ref_axis',(0.923879532511287,0.38268343236509,0.));
#719=DIRECTION('',(0.,0.,1.));
#720=DIRECTION('center_axis',(0.707106781186548,0.707106781186547,0.));
#721=DIRECTION('ref_axis',(-0.707106781186547,0.707106781186548,0.));
#722=DIRECTION('',(0.,0.,-1.));
#723=DIRECTION('',(-0.707106781186547,0.707106781186548,0.));
#724=DIRECTION('center_axis',(0.,0.,1.));
#725=DIRECTION('ref_axis',(-0.382683432365091,-0.923879532511287,0.));
#726=DIRECTION('center_axis',(0.,0.,-1.));
#727=DIRECTION('ref_axis',(-0.382683432365091,-0.923879532511287,0.));
#728=DIRECTION('',(0.,0.,-1.));
#729=DIRECTION('',(0.,0.,1.));
#730=DIRECTION('center_axis',(0.707106781186548,-0.707106781186547,0.));
#731=DIRECTION('ref_axis',(0.707106781186547,0.707106781186548,0.));
#732=DIRECTION('',(0.707106781186547,0.707106781186548,0.));
#733=DIRECTION('center_axis',(0.,0.,1.));
#734=DIRECTION('ref_axis',(-0.382683432365088,0.923879532511288,0.));
#735=DIRECTION('center_axis',(0.,0.,-1.));
#736=DIRECTION('ref_axis',(-0.382683432365088,0.923879532511288,0.));
#737=DIRECTION('',(0.,0.,1.));
#738=DIRECTION('center_axis',(-0.707106781186547,-0.707106781186548,0.));
#739=DIRECTION('ref_axis',(0.,0.,1.));
#740=DIRECTION('',(0.,0.,1.));
#741=DIRECTION('',(-0.707106781186548,0.707106781186547,0.));
#742=DIRECTION('',(0.,0.,-1.));
#743=DIRECTION('center_axis',(-1.,-2.68981956299244E-17,0.));
#744=DIRECTION('ref_axis',(2.68981956299244E-17,-1.,0.));
#745=DIRECTION('',(2.68981956299244E-17,-1.,0.));
#746=DIRECTION('center_axis',(-0.707106781186547,0.707106781186548,0.));
#747=DIRECTION('ref_axis',(0.,0.,1.));
#748=DIRECTION('',(0.,0.,1.));
#749=DIRECTION('',(0.707106781186548,0.707106781186547,0.));
#750=DIRECTION('',(0.,0.,-1.));
#751=DIRECTION('center_axis',(0.,1.,0.));
#752=DIRECTION('ref_axis',(-1.,0.,0.));
#753=DIRECTION('',(0.,0.,1.));
#754=DIRECTION('',(-1.,0.,0.));
#755=DIRECTION('center_axis',(0.,0.,1.));
#756=DIRECTION('ref_axis',(-1.,0.,0.));
#757=DIRECTION('center_axis',(0.,0.,-1.));
#758=DIRECTION('ref_axis',(-1.,0.,0.));
#759=DIRECTION('',(0.,0.,-1.));
#760=DIRECTION('center_axis',(0.,0.,1.));
#761=DIRECTION('ref_axis',(-1.,0.,0.));
#762=DIRECTION('center_axis',(0.,0.,-1.));
#763=DIRECTION('ref_axis',(-1.,0.,0.));
#764=DIRECTION('',(0.,0.,-1.));
#765=DIRECTION('center_axis',(0.,0.,1.));
#766=DIRECTION('ref_axis',(-1.,0.,0.));
#767=DIRECTION('center_axis',(0.,0.,-1.));
#768=DIRECTION('ref_axis',(-1.,0.,0.));
#769=DIRECTION('',(0.,0.,-1.));
#770=DIRECTION('center_axis',(0.,0.,1.));
#771=DIRECTION('ref_axis',(-1.,0.,0.));
#772=DIRECTION('center_axis',(0.,0.,-1.));
#773=DIRECTION('ref_axis',(-1.,0.,0.));
#774=DIRECTION('',(0.,0.,-1.));
#775=DIRECTION('center_axis',(0.,0.,1.));
#776=DIRECTION('ref_axis',(-1.,0.,0.));
#777=DIRECTION('center_axis',(0.,0.,-1.));
#778=DIRECTION('ref_axis',(-1.,0.,0.));
#779=DIRECTION('',(0.,0.,-1.));
#780=DIRECTION('center_axis',(0.,0.,1.));
#781=DIRECTION('ref_axis',(-1.,0.,0.));
#782=DIRECTION('center_axis',(0.,0.,-1.));
#783=DIRECTION('ref_axis',(-1.,0.,0.));
#784=DIRECTION('',(0.,0.,-1.));
#785=DIRECTION('center_axis',(0.,0.,1.));
#786=DIRECTION('ref_axis',(-1.,0.,0.));
#787=DIRECTION('center_axis',(0.,0.,-1.));
#788=DIRECTION('ref_axis',(-1.,0.,0.));
#789=DIRECTION('',(0.,0.,-1.));
#790=DIRECTION('center_axis',(0.,0.,1.));
#791=DIRECTION('ref_axis',(-1.,0.,0.));
#792=DIRECTION('center_axis',(0.,0.,-1.));
#793=DIRECTION('ref_axis',(-1.,0.,0.));
#794=DIRECTION('',(0.,0.,-1.));
#795=DIRECTION('center_axis',(0.,0.,1.));
#796=DIRECTION('ref_axis',(-1.,0.,0.));
#797=DIRECTION('center_axis',(0.,0.,-1.));
#798=DIRECTION('ref_axis',(-1.,0.,0.));
#799=DIRECTION('',(0.,0.,-1.));
#800=DIRECTION('center_axis',(0.,0.,1.));
#801=DIRECTION('ref_axis',(-1.,0.,0.));
#802=DIRECTION('center_axis',(0.,0.,-1.));
#803=DIRECTION('ref_axis',(-1.,0.,0.));
#804=DIRECTION('',(0.,0.,-1.));
#805=DIRECTION('center_axis',(0.,-1.,0.));
#806=DIRECTION('ref_axis',(1.,0.,0.));
#807=DIRECTION('',(1.,0.,0.));
#808=DIRECTION('',(0.,0.,1.));
#809=DIRECTION('center_axis',(0.,0.,1.));
#810=DIRECTION('ref_axis',(1.,0.,0.));
#811=DIRECTION('center_axis',(0.,0.,1.));
#812=DIRECTION('ref_axis',(1.,0.,0.));
#813=DIRECTION('',(0.,0.,1.));
#814=DIRECTION('center_axis',(-1.,0.,0.));
#815=DIRECTION('ref_axis',(0.,-1.,0.));
#816=DIRECTION('',(0.,-1.,0.));
#817=DIRECTION('',(0.,0.,1.));
#818=DIRECTION('center_axis',(0.,0.,1.));
#819=DIRECTION('ref_axis',(1.,0.,0.));
#820=DIRECTION('center_axis',(0.,0.,1.));
#821=DIRECTION('ref_axis',(1.,0.,0.));
#822=DIRECTION('center_axis',(-1.,-8.06945868897772E-17,0.));
#823=DIRECTION('ref_axis',(8.06945868897772E-17,-1.,0.));
#824=DIRECTION('',(8.06945868897772E-17,-1.,0.));
#825=DIRECTION('center_axis',(0.,0.,1.));
#826=DIRECTION('ref_axis',(1.,0.,0.));
#827=CARTESIAN_POINT('',(0.,0.,0.));
#828=CARTESIAN_POINT('Origin',(2.13619138433229,-1.18703192037107,0.));
#829=CARTESIAN_POINT('',(2.26119138433228,-1.18703192037107,0.2));
#830=CARTESIAN_POINT('',(2.2245797319806,-1.27542026801938,0.2));
#831=CARTESIAN_POINT('Origin',(2.13619138433229,-1.18703192037107,0.2));
#832=CARTESIAN_POINT('',(2.2245797319806,-1.27542026801938,0.));
#833=CARTESIAN_POINT('',(2.2245797319806,-1.27542026801938,0.));
#834=CARTESIAN_POINT('',(2.26119138433228,-1.18703192037107,0.));
#835=CARTESIAN_POINT('Origin',(2.13619138433229,-1.18703192037107,0.));
#836=CARTESIAN_POINT('',(2.26119138433228,-1.18703192037107,0.));
#837=CARTESIAN_POINT('Origin',(2.26119138433228,-1.2388086156677,0.));
#838=CARTESIAN_POINT('',(2.26119138433228,1.18703192037107,0.));
#839=CARTESIAN_POINT('',(2.26119138433229,-7.24007871524646,0.));
#840=CARTESIAN_POINT('',(2.26119138433228,1.18703192037107,0.2));
#841=CARTESIAN_POINT('',(2.26119138433228,1.18703192037107,0.));
#842=CARTESIAN_POINT('',(2.26119138433229,-7.24007871524646,0.2));
#843=CARTESIAN_POINT('Origin',(0.880595692166129,-2.44773580232318E-15,
0.));
#844=CARTESIAN_POINT('',(0.338388347648311,-3.16161165235168,0.));
#845=CARTESIAN_POINT('',(-0.500000000000011,-4.,0.));
#846=CARTESIAN_POINT('',(0.124999999999993,-3.07322330470336,0.));
#847=CARTESIAN_POINT('Origin',(0.249999999999993,-3.07322330470336,0.));
#848=CARTESIAN_POINT('',(0.124999999999993,-1.99999999999996,0.));
#849=CARTESIAN_POINT('',(0.124999999999993,-1.74999999999996,0.));
#850=CARTESIAN_POINT('',(-0.125000000000007,-1.74999999999996,0.));
#851=CARTESIAN_POINT('',(-0.248601076958462,-1.6263989230415,0.));
#852=CARTESIAN_POINT('',(-0.250000000000012,-1.74999999999996,0.));
#853=CARTESIAN_POINT('',(-0.441103024321153,-1.74999999999996,0.));
#854=CARTESIAN_POINT('',(-0.500000000000012,-1.49999999999996,0.));
#855=CARTESIAN_POINT('Origin',(-0.250000000000012,-1.49999999999996,0.));
#856=CARTESIAN_POINT('',(-0.500000000000027,1.50000000000003,0.));
#857=CARTESIAN_POINT('',(-0.500000000000011,4.,0.));
#858=CARTESIAN_POINT('',(-0.250000000000027,1.75000000000003,0.));
#859=CARTESIAN_POINT('Origin',(-0.250000000000027,1.50000000000003,0.));
#860=CARTESIAN_POINT('',(-0.125000000000001,1.75000000000003,0.));
#861=CARTESIAN_POINT('',(0.124999999999999,1.75000000000003,0.));
#862=CARTESIAN_POINT('',(0.124999999999999,2.00000000000003,0.));
#863=CARTESIAN_POINT('',(-0.248601076958478,1.62639892304156,0.));
#864=CARTESIAN_POINT('',(0.124999999999999,3.07322330470336,0.));
#865=CARTESIAN_POINT('',(0.124999999999999,3.37499999999999,0.));
#866=CARTESIAN_POINT('',(0.338388347648317,3.16161165235167,0.));
#867=CARTESIAN_POINT('Origin',(0.249999999999998,3.07322330470336,0.));
#868=CARTESIAN_POINT('',(2.2245797319806,1.27542026801939,0.));
#869=CARTESIAN_POINT('',(3.49999999999999,0.,0.));
#870=CARTESIAN_POINT('Origin',(2.13619138433228,1.18703192037107,0.));
#871=CARTESIAN_POINT('',(-0.164000000000012,-1.49999999999996,0.));
#872=CARTESIAN_POINT('Origin',(-0.250000000000012,-1.49999999999996,0.));
#873=CARTESIAN_POINT('',(0.335999999999982,4.00068164786788E-14,0.));
#874=CARTESIAN_POINT('Origin',(0.249999999999982,3.99962845162061E-14,0.));
#875=CARTESIAN_POINT('',(2.09719138433228,-1.01363285871034,0.));
#876=CARTESIAN_POINT('Origin',(2.01119138433228,-1.01363285871034,0.));
#877=CARTESIAN_POINT('',(0.335999999999993,-1.99999999999995,0.));
#878=CARTESIAN_POINT('Origin',(0.249999999999993,-1.99999999999995,0.));
#879=CARTESIAN_POINT('',(0.33599999999999,-1.49999999999996,0.));
#880=CARTESIAN_POINT('Origin',(0.24999999999999,-1.49999999999996,0.));
#881=CARTESIAN_POINT('',(-0.164000000000027,1.50000000000003,0.));
#882=CARTESIAN_POINT('Origin',(-0.250000000000027,1.50000000000003,0.));
#883=CARTESIAN_POINT('',(0.336000000000007,1.50000000000004,0.));
#884=CARTESIAN_POINT('Origin',(0.250000000000007,1.50000000000004,0.));
#885=CARTESIAN_POINT('',(0.335999999999998,2.00000000000004,0.));
#886=CARTESIAN_POINT('Origin',(0.249999999999999,2.00000000000004,0.));
#887=CARTESIAN_POINT('',(2.09719138433228,1.01363285871034,0.));
#888=CARTESIAN_POINT('Origin',(2.01119138433228,1.01363285871034,0.));
#889=CARTESIAN_POINT('',(-0.164000000000019,3.76424400342125E-14,0.));
#890=CARTESIAN_POINT('Origin',(-0.250000000000019,3.76319080717398E-14,
0.));
#891=CARTESIAN_POINT('Origin',(2.13619138433228,1.18703192037107,0.));
#892=CARTESIAN_POINT('',(2.2245797319806,1.27542026801939,0.2));
#893=CARTESIAN_POINT('Origin',(2.13619138433228,1.18703192037107,0.2));
#894=CARTESIAN_POINT('',(2.2245797319806,1.27542026801939,0.));
#895=CARTESIAN_POINT('Origin',(2.26119138433228,1.2388086156677,0.));
#896=CARTESIAN_POINT('',(0.338388347648317,3.16161165235167,0.2));
#897=CARTESIAN_POINT('',(0.338388347648317,3.16161165235167,0.));
#898=CARTESIAN_POINT('',(3.49999999999999,0.,0.2));
#899=CARTESIAN_POINT('Origin',(0.249999999999993,-3.07322330470336,0.));
#900=CARTESIAN_POINT('',(0.338388347648311,-3.16161165235168,0.2));
#901=CARTESIAN_POINT('',(0.124999999999993,-3.07322330470336,0.2));
#902=CARTESIAN_POINT('Origin',(0.249999999999993,-3.07322330470336,0.2));
#903=CARTESIAN_POINT('',(0.124999999999993,-3.07322330470336,0.));
#904=CARTESIAN_POINT('',(0.338388347648312,-3.16161165235168,0.));
#905=CARTESIAN_POINT('Origin',(0.124999999999993,-3.375,0.));
#906=CARTESIAN_POINT('',(-0.500000000000011,-4.,0.2));
#907=CARTESIAN_POINT('Origin',(0.249999999999998,3.07322330470336,0.));
#908=CARTESIAN_POINT('',(0.124999999999999,3.07322330470336,0.2));
#909=CARTESIAN_POINT('Origin',(0.249999999999998,3.07322330470336,0.2));
#910=CARTESIAN_POINT('',(0.124999999999999,3.07322330470336,0.));
#911=CARTESIAN_POINT('Origin',(-6.73127345638874E-15,-1.87499999999996,
0.));
#912=CARTESIAN_POINT('',(0.124999999999993,-1.99999999999996,0.2));
#913=CARTESIAN_POINT('',(0.124999999999993,-1.99999999999996,0.));
#914=CARTESIAN_POINT('',(-0.125000000000007,-1.74999999999996,0.2));
#915=CARTESIAN_POINT('',(-0.248601076958462,-1.6263989230415,0.2));
#916=CARTESIAN_POINT('',(-0.125000000000007,-1.74999999999996,0.));
#917=CARTESIAN_POINT('Origin',(0.124999999999993,-1.74999999999996,0.));
#918=CARTESIAN_POINT('',(0.124999999999993,-1.74999999999996,0.2));
#919=CARTESIAN_POINT('Origin',(-1.31128703695885E-15,1.87500000000003,0.));
#920=CARTESIAN_POINT('',(-0.125000000000001,1.75000000000003,0.2));
#921=CARTESIAN_POINT('',(-0.125000000000001,1.75000000000003,0.));
#922=CARTESIAN_POINT('',(0.124999999999999,2.00000000000003,0.2));
#923=CARTESIAN_POINT('',(-0.248601076958478,1.62639892304156,0.2));
#924=CARTESIAN_POINT('',(0.124999999999999,2.00000000000003,0.));
#925=CARTESIAN_POINT('Origin',(0.124999999999999,1.75000000000003,0.));
#926=CARTESIAN_POINT('',(-0.250000000000027,1.75000000000003,0.2));
#927=CARTESIAN_POINT('',(-0.250000000000027,1.75000000000003,0.));
#928=CARTESIAN_POINT('',(0.124999999999999,1.75000000000003,0.2));
#929=CARTESIAN_POINT('Origin',(-0.250000000000019,3.76319080717398E-14,
0.));
#930=CARTESIAN_POINT('',(-0.164000000000019,3.75902283928203E-14,0.2));
#931=CARTESIAN_POINT('Origin',(-0.250000000000019,3.76319080717398E-14,
0.2));
#932=CARTESIAN_POINT('',(-0.164000000000019,3.76424400342125E-14,0.));
#933=CARTESIAN_POINT('Origin',(2.01119138433228,1.01363285871034,0.));
#934=CARTESIAN_POINT('',(2.09719138433228,1.01363285871034,0.2));
#935=CARTESIAN_POINT('Origin',(2.01119138433228,1.01363285871034,0.2));
#936=CARTESIAN_POINT('',(2.09719138433228,1.01363285871034,0.));
#937=CARTESIAN_POINT('Origin',(0.249999999999999,2.00000000000004,0.));
#938=CARTESIAN_POINT('',(0.335999999999999,2.00000000000004,0.2));
#939=CARTESIAN_POINT('Origin',(0.249999999999999,2.00000000000004,0.2));
#940=CARTESIAN_POINT('',(0.335999999999998,2.00000000000004,0.));
#941=CARTESIAN_POINT('Origin',(0.250000000000007,1.50000000000004,0.));
#942=CARTESIAN_POINT('',(0.336000000000007,1.50000000000004,0.2));
#943=CARTESIAN_POINT('Origin',(0.250000000000007,1.50000000000004,0.2));
#944=CARTESIAN_POINT('',(0.336000000000007,1.50000000000004,0.));
#945=CARTESIAN_POINT('Origin',(-0.250000000000027,1.50000000000003,0.));
#946=CARTESIAN_POINT('',(-0.164000000000027,1.50000000000003,0.2));
#947=CARTESIAN_POINT('Origin',(-0.250000000000027,1.50000000000003,0.2));
#948=CARTESIAN_POINT('',(-0.164000000000027,1.50000000000003,0.));
#949=CARTESIAN_POINT('Origin',(0.24999999999999,-1.49999999999996,0.));
#950=CARTESIAN_POINT('',(0.33599999999999,-1.49999999999996,0.2));
#951=CARTESIAN_POINT('Origin',(0.24999999999999,-1.49999999999996,0.2));
#952=CARTESIAN_POINT('',(0.33599999999999,-1.49999999999996,0.));
#953=CARTESIAN_POINT('Origin',(0.249999999999993,-1.99999999999995,0.));
#954=CARTESIAN_POINT('',(0.335999999999993,-1.99999999999995,0.2));
#955=CARTESIAN_POINT('Origin',(0.249999999999993,-1.99999999999995,0.2));
#956=CARTESIAN_POINT('',(0.335999999999993,-1.99999999999995,0.));
#957=CARTESIAN_POINT('Origin',(2.01119138433228,-1.01363285871034,0.));
#958=CARTESIAN_POINT('',(2.09719138433228,-1.01363285871034,0.2));
#959=CARTESIAN_POINT('Origin',(2.01119138433228,-1.01363285871034,0.2));
#960=CARTESIAN_POINT('',(2.09719138433228,-1.01363285871034,0.));
#961=CARTESIAN_POINT('Origin',(0.249999999999982,3.99962845162061E-14,0.));
#962=CARTESIAN_POINT('',(0.335999999999982,4.00379641951434E-14,0.2));
#963=CARTESIAN_POINT('Origin',(0.249999999999982,3.99962845162061E-14,0.2));
#964=CARTESIAN_POINT('',(0.335999999999982,4.00068164786788E-14,0.));
#965=CARTESIAN_POINT('Origin',(-0.250000000000012,-1.49999999999996,0.));
#966=CARTESIAN_POINT('',(-0.164000000000012,-1.49999999999996,0.2));
#967=CARTESIAN_POINT('Origin',(-0.250000000000012,-1.49999999999996,0.2));
#968=CARTESIAN_POINT('',(-0.164000000000012,-1.49999999999996,0.));
#969=CARTESIAN_POINT('Origin',(-0.250000000000012,-1.74999999999996,0.));
#970=CARTESIAN_POINT('',(-0.250000000000012,-1.74999999999996,0.2));
#971=CARTESIAN_POINT('',(-0.441103024321153,-1.74999999999996,0.2));
#972=CARTESIAN_POINT('',(-0.250000000000012,-1.74999999999996,0.));
#973=CARTESIAN_POINT('Origin',(-0.250000000000012,-1.49999999999996,0.));
#974=CARTESIAN_POINT('',(-0.500000000000012,-1.49999999999996,0.2));
#975=CARTESIAN_POINT('Origin',(-0.250000000000012,-1.49999999999996,0.2));
#976=CARTESIAN_POINT('',(-0.500000000000012,-1.49999999999996,0.));
#977=CARTESIAN_POINT('Origin',(-0.500000000000011,1.50000000000003,0.));
#978=CARTESIAN_POINT('',(-0.500000000000027,1.50000000000003,0.2));
#979=CARTESIAN_POINT('',(-0.500000000000011,4.,0.2));
#980=CARTESIAN_POINT('',(-0.500000000000027,1.50000000000003,0.));
#981=CARTESIAN_POINT('Origin',(-0.250000000000027,1.50000000000003,0.));
#982=CARTESIAN_POINT('Origin',(-0.250000000000027,1.50000000000003,0.2));
#983=CARTESIAN_POINT('Origin',(0.124999999999999,3.37499999999999,0.));
#984=CARTESIAN_POINT('',(0.124999999999999,3.37499999999999,0.2));
#985=CARTESIAN_POINT('Origin',(0.880595692166129,-2.44773580232318E-15,
0.2));
#986=UNCERTAINTY_MEASURE_WITH_UNIT(LENGTH_MEASURE(0.000393700787401575),
#992,'DISTANCE_ACCURACY_VALUE',
'Maximum model space distance between geometric entities at asserted c
onnectivities');
#987=UNCERTAINTY_MEASURE_WITH_UNIT(LENGTH_MEASURE(0.000393700787401575),
#992,'DISTANCE_ACCURACY_VALUE',
'Maximum model space distance between geometric entities at asserted c
onnectivities');
#988=(
GEOMETRIC_REPRESENTATION_CONTEXT(3)
GLOBAL_UNCERTAINTY_ASSIGNED_CONTEXT((#986))
GLOBAL_UNIT_ASSIGNED_CONTEXT((#992,#996,#997))
REPRESENTATION_CONTEXT('','3D')
);
#989=(
GEOMETRIC_REPRESENTATION_CONTEXT(3)
GLOBAL_UNCERTAINTY_ASSIGNED_CONTEXT((#987))
GLOBAL_UNIT_ASSIGNED_CONTEXT((#992,#996,#997))
REPRESENTATION_CONTEXT('','3D')
);
#990=DIMENSIONAL_EXPONENTS(1.,0.,0.,0.,0.,0.,0.);
#991=DIMENSIONAL_EXPONENTS(0.,1.,0.,0.,0.,0.,0.);
#992=(
CONVERSION_BASED_UNIT('inch',#995)
LENGTH_UNIT()
NAMED_UNIT(#990)
);
#993=(
LENGTH_UNIT()
NAMED_UNIT(*)
SI_UNIT(.MILLI.,.METRE.)
);
#994=(
LENGTH_UNIT()
NAMED_UNIT(*)
SI_UNIT(.CENTI.,.METRE.)
);
#995=LENGTH_MEASURE_WITH_UNIT(LENGTH_MEASURE(25.4),#993);
#996=(
NAMED_UNIT(*)
PLANE_ANGLE_UNIT()
SI_UNIT($,.RADIAN.)
);
#997=(
NAMED_UNIT(*)
SI_UNIT($,.STERADIAN.)
SOLID_ANGLE_UNIT()
);
#998=SHAPE_DEFINITION_REPRESENTATION(#999,#1000);
#999=PRODUCT_DEFINITION_SHAPE('',$,#1002);
#1000=SHAPE_REPRESENTATION('',(#598),#988);
#1001=PRODUCT_DEFINITION_CONTEXT('part definition',#1006,'design');
#1002=PRODUCT_DEFINITION('wedge','wedge',#1003,#1001);
#1003=PRODUCT_DEFINITION_FORMATION('',$,#1008);
#1004=PRODUCT_RELATED_PRODUCT_CATEGORY('wedge','wedge',(#1008));
#1005=APPLICATION_PROTOCOL_DEFINITION('international standard',
'automotive_design',2009,#1006);
#1006=APPLICATION_CONTEXT(
'Core Data for Automotive Mechanical Design Process');
#1007=PRODUCT_CONTEXT('part definition',#1006,'mechanical');
#1008=PRODUCT('wedge','wedge',$,(#1007));
#1009=PRESENTATION_STYLE_ASSIGNMENT((#1010));
#1010=SURFACE_STYLE_USAGE(.BOTH.,#1013);
#1011=SURFACE_STYLE_RENDERING_WITH_PROPERTIES($,#1017,(#1012));
#1012=SURFACE_STYLE_TRANSPARENT(0.);
#1013=SURFACE_SIDE_STYLE('',(#1014,#1011));
#1014=SURFACE_STYLE_FILL_AREA(#1015);
#1015=FILL_AREA_STYLE('',(#1016));
#1016=FILL_AREA_STYLE_COLOUR('',#1017);
#1017=COLOUR_RGB('',0.0196078431372549,0.0196078431372549,0.0196078431372549);
ENDSEC;
END-ISO-10303-21;
