ISO-10303-21;
HEADER;
/* Generated by software containing ST-Developer
 * from STEP Tools, Inc. (www.steptools.com) 
 */

FILE_DESCRIPTION(
/* description */ (''),
/* implementation_level */ '2;1');

FILE_NAME(
/* name */ 'wing.stp',
/* time_stamp */ '2026-01-24T00:20:21+13:00',
/* author */ ('cloudy'),
/* organization */ (''),
/* preprocessor_version */ 'ST-DEVELOPER v20',
/* originating_system */ 'Autodesk Inventor 2025',
/* authorisation */ '');

FILE_SCHEMA (('AUTOMOTIVE_DESIGN { 1 0 10303 214 3 1 1 }'));
ENDSEC;

DATA;
#10=MECHANICAL_DESIGN_GEOMETRIC_PRESENTATION_REPRESENTATION('',(#13),#1133);
#11=SHAPE_REPRESENTATION_RELATIONSHIP('SRR','None',#1144,#12);
#12=ADVANCED_BREP_SHAPE_REPRESENTATION('',(#14),#1132);
#13=STYLED_ITEM('',(#1153),#14);
#14=MANIFOLD_SOLID_BREP('Solid1',#496);
#15=CYLINDRICAL_SURFACE('',#530,2.5);
#16=CYLINDRICAL_SURFACE('',#532,0.5);
#17=CYLINDRICAL_SURFACE('',#535,0.075);
#18=CYLINDRICAL_SURFACE('',#537,0.125);
#19=CYLINDRICAL_SURFACE('',#540,0.125);
#20=CYLINDRICAL_SURFACE('',#545,0.0860000000000001);
#21=CYLINDRICAL_SURFACE('',#546,0.086);
#22=CYLINDRICAL_SURFACE('',#547,2.);
#23=FACE_BOUND('',#85,.T.);
#24=FACE_BOUND('',#86,.T.);
#25=FACE_BOUND('',#100,.T.);
#26=FACE_BOUND('',#101,.T.);
#27=CIRCLE('',#522,0.5);
#28=CIRCLE('',#523,2.);
#29=CIRCLE('',#524,0.075);
#30=CIRCLE('',#525,2.5);
#31=CIRCLE('',#527,0.125);
#32=CIRCLE('',#528,0.086);
#33=CIRCLE('',#529,0.0860000000000001);
#34=CIRCLE('',#531,2.5);
#35=CIRCLE('',#533,0.5);
#36=CIRCLE('',#536,0.075);
#37=CIRCLE('',#538,0.125);
#38=CIRCLE('',#541,0.125);
#39=CIRCLE('',#543,0.086);
#40=CIRCLE('',#544,0.0860000000000001);
#41=CIRCLE('',#548,2.);
#42=B_SPLINE_SURFACE_WITH_KNOTS('',3,3,((#696,#697,#698,#699,#700),(#701,
#702,#703,#704,#705),(#706,#707,#708,#709,#710),(#711,#712,#713,#714,#715)),
 .UNSPECIFIED.,.F.,.F.,.F.,(4,4),(4,1,4),(-0.000742622815691008,1.28468460274319),
(-0.00349649070625656,0.570591636951544,1.00115773269489),.UNSPECIFIED.);
#43=B_SPLINE_SURFACE_WITH_KNOTS('',3,3,((#774,#775,#776,#777),(#778,#779,
#780,#781),(#782,#783,#784,#785),(#786,#787,#788,#789),(#790,#791,#792,
#793)),.UNSPECIFIED.,.F.,.F.,.F.,(4,1,4),(4,4),(-2.44595450684861E-16,0.428571428571429,
1.),(-1.68697212988536E-15,1.),.UNSPECIFIED.);
#44=B_SPLINE_SURFACE_WITH_KNOTS('',3,3,((#834,#835,#836,#837),(#838,#839,
#840,#841),(#842,#843,#844,#845),(#846,#847,#848,#849)),.UNSPECIFIED.,.F.,
 .F.,.F.,(4,4),(4,4),(-1.43554024671981E-16,0.89617953068114),(0.,0.281940000000001),
 .UNSPECIFIED.);
#45=B_SPLINE_SURFACE_WITH_KNOTS('',3,3,((#860,#861,#862,#863),(#864,#865,
#866,#867),(#868,#869,#870,#871),(#872,#873,#874,#875),(#876,#877,#878,
#879),(#880,#881,#882,#883),(#884,#885,#886,#887),(#888,#889,#890,#891)),
 .UNSPECIFIED.,.F.,.F.,.F.,(4,2,2,4),(4,4),(0.,0.475968476405422,0.950818321274895,
1.),(-2.82871846524347E-16,1.),.UNSPECIFIED.);
#46=B_SPLINE_SURFACE_WITH_KNOTS('',3,3,((#906,#907,#908,#909),(#910,#911,
#912,#913),(#914,#915,#916,#917),(#918,#919,#920,#921),(#922,#923,#924,
#925),(#926,#927,#928,#929)),.UNSPECIFIED.,.F.,.F.,.F.,(4,2,4),(4,4),(0.,
0.47481202175164,1.),(-5.23357407246118E-16,1.),.UNSPECIFIED.);
#47=B_SPLINE_SURFACE_WITH_KNOTS('',3,3,((#937,#938,#939,#940),(#941,#942,
#943,#944),(#945,#946,#947,#948),(#949,#950,#951,#952)),.UNSPECIFIED.,.F.,
 .F.,.F.,(4,4),(4,4),(-5.91814714556857E-15,1.00000000000006),(9.93653721339476E-18,
1.),.UNSPECIFIED.);
#48=B_SPLINE_SURFACE_WITH_KNOTS('',3,3,((#963,#964,#965,#966),(#967,#968,
#969,#970),(#971,#972,#973,#974),(#975,#976,#977,#978),(#979,#980,#981,
#982),(#983,#984,#985,#986)),.UNSPECIFIED.,.F.,.F.,.F.,(4,1,1,4),(4,4),
(0.,0.285714285714286,0.571428571428571,1.),(-0.117562883107978,0.871060421395042),
 .UNSPECIFIED.);
#49=B_SPLINE_SURFACE_WITH_KNOTS('',3,3,((#1079,#1080,#1081,#1082),(#1083,
#1084,#1085,#1086),(#1087,#1088,#1089,#1090),(#1091,#1092,#1093,#1094)),
 .UNSPECIFIED.,.F.,.F.,.F.,(4,4),(4,4),(0.,1.),(0.,0.900378475012288),
 .UNSPECIFIED.);
#50=B_SPLINE_SURFACE_WITH_KNOTS('',3,3,((#1096,#1097,#1098,#1099),(#1100,
#1101,#1102,#1103),(#1104,#1105,#1106,#1107),(#1108,#1109,#1110,#1111)),
 .UNSPECIFIED.,.F.,.F.,.F.,(4,4),(4,4),(-0.255416720794462,1.),(0.,1.),
 .UNSPECIFIED.);
#51=B_SPLINE_SURFACE_WITH_KNOTS('',3,3,((#1113,#1114,#1115,#1116),(#1117,
#1118,#1119,#1120),(#1121,#1122,#1123,#1124),(#1125,#1126,#1127,#1128)),
 .UNSPECIFIED.,.F.,.F.,.F.,(4,4),(4,4),(0.,1.),(0.,1.),.UNSPECIFIED.);
#52=FACE_OUTER_BOUND('',#79,.T.);
#53=FACE_OUTER_BOUND('',#80,.T.);
#54=FACE_OUTER_BOUND('',#81,.T.);
#55=FACE_OUTER_BOUND('',#82,.T.);
#56=FACE_OUTER_BOUND('',#83,.T.);
#57=FACE_OUTER_BOUND('',#84,.T.);
#58=FACE_OUTER_BOUND('',#87,.T.);
#59=FACE_OUTER_BOUND('',#88,.T.);
#60=FACE_OUTER_BOUND('',#89,.T.);
#61=FACE_OUTER_BOUND('',#90,.T.);
#62=FACE_OUTER_BOUND('',#91,.T.);
#63=FACE_OUTER_BOUND('',#92,.T.);
#64=FACE_OUTER_BOUND('',#93,.T.);
#65=FACE_OUTER_BOUND('',#94,.T.);
#66=FACE_OUTER_BOUND('',#95,.T.);
#67=FACE_OUTER_BOUND('',#96,.T.);
#68=FACE_OUTER_BOUND('',#97,.T.);
#69=FACE_OUTER_BOUND('',#98,.T.);
#70=FACE_OUTER_BOUND('',#99,.T.);
#71=FACE_OUTER_BOUND('',#102,.T.);
#72=FACE_OUTER_BOUND('',#103,.T.);
#73=FACE_OUTER_BOUND('',#104,.T.);
#74=FACE_OUTER_BOUND('',#105,.T.);
#75=FACE_OUTER_BOUND('',#106,.T.);
#76=FACE_OUTER_BOUND('',#107,.T.);
#77=FACE_OUTER_BOUND('',#108,.T.);
#78=FACE_OUTER_BOUND('',#109,.T.);
#79=EDGE_LOOP('',(#318,#319,#320,#321,#322,#323));
#80=EDGE_LOOP('',(#324,#325,#326,#327,#328,#329,#330,#331,#332));
#81=EDGE_LOOP('',(#333,#334,#335,#336));
#82=EDGE_LOOP('',(#337,#338,#339,#340));
#83=EDGE_LOOP('',(#341,#342,#343,#344,#345,#346,#347,#348,#349));
#84=EDGE_LOOP('',(#350,#351,#352,#353,#354));
#85=EDGE_LOOP('',(#355));
#86=EDGE_LOOP('',(#356));
#87=EDGE_LOOP('',(#357,#358,#359,#360));
#88=EDGE_LOOP('',(#361,#362,#363,#364));
#89=EDGE_LOOP('',(#365,#366,#367,#368));
#90=EDGE_LOOP('',(#369,#370,#371,#372));
#91=EDGE_LOOP('',(#373,#374,#375,#376,#377,#378));
#92=EDGE_LOOP('',(#379,#380,#381,#382,#383));
#93=EDGE_LOOP('',(#384,#385,#386,#387,#388));
#94=EDGE_LOOP('',(#389,#390,#391,#392));
#95=EDGE_LOOP('',(#393,#394,#395,#396));
#96=EDGE_LOOP('',(#397,#398,#399,#400));
#97=EDGE_LOOP('',(#401,#402,#403,#404,#405,#406));
#98=EDGE_LOOP('',(#407,#408,#409,#410));
#99=EDGE_LOOP('',(#411,#412,#413,#414,#415,#416));
#100=EDGE_LOOP('',(#417));
#101=EDGE_LOOP('',(#418));
#102=EDGE_LOOP('',(#419,#420,#421,#422));
#103=EDGE_LOOP('',(#423,#424,#425,#426));
#104=EDGE_LOOP('',(#427,#428,#429,#430));
#105=EDGE_LOOP('',(#431,#432,#433,#434,#435,#436,#437,#438,#439));
#106=EDGE_LOOP('',(#440,#441,#442,#443));
#107=EDGE_LOOP('',(#444,#445,#446,#447,#448,#449,#450));
#108=EDGE_LOOP('',(#451,#452,#453,#454));
#109=EDGE_LOOP('',(#455,#456,#457,#458,#459));
#110=B_SPLINE_CURVE_WITH_KNOTS('',3,(#662,#663,#664,#665,#666,#667,#668,
#669),.UNSPECIFIED.,.F.,.F.,(4,2,2,4),(-9.53665680081283,-4.93752677519236,
-2.47422305177249,0.),.UNSPECIFIED.);
#111=B_SPLINE_CURVE_WITH_KNOTS('',3,(#671,#672,#673,#674,#675,#676,#677,
#678,#679,#680,#681,#682,#683,#684,#685,#686,#687,#688,#689,#690,#691,#692),
 .UNSPECIFIED.,.F.,.F.,(4,2,2,2,2,2,2,2,2,2,4),(-7.44965027058942,-4.56603976011688,
-2.75838308984287,-1.9840018651371,-1.219489675457,-0.917159703148202,-0.776991517503198,
-0.604776759209488,-0.426136275935975,-0.24030608194305,-0.0104420463561592),
 .UNSPECIFIED.);
#112=B_SPLINE_CURVE_WITH_KNOTS('',3,(#717,#718,#719,#720),.UNSPECIFIED.,
 .F.,.F.,(4,4),(0.996894374393725,0.99949248393303),.UNSPECIFIED.);
#113=B_SPLINE_CURVE_WITH_KNOTS('',3,(#722,#723,#724,#725,#726,#727,#728),
 .UNSPECIFIED.,.F.,.F.,(4,3,4),(-0.00247481352089321,0.,0.299828861527527),
 .UNSPECIFIED.);
#114=B_SPLINE_CURVE_WITH_KNOTS('',3,(#730,#731,#732,#733,#734,#735,#736),
 .UNSPECIFIED.,.F.,.F.,(4,3,4),(-0.462022644800106,0.,0.00247481577440618),
 .UNSPECIFIED.);
#115=B_SPLINE_CURVE_WITH_KNOTS('',3,(#738,#739,#740,#741),.UNSPECIFIED.,
 .F.,.F.,(4,4),(-0.65039545147991,-0.462022644800106),.UNSPECIFIED.);
#116=B_SPLINE_CURVE_WITH_KNOTS('',3,(#743,#744,#745,#746,#747,#748,#749,
#750,#751,#752,#753,#754,#755),.UNSPECIFIED.,.F.,.F.,(4,3,3,3,4),(2.12546442647578E-15,
0.440487011389947,0.498418239985473,0.752872943123538,0.949028272977281),
 .UNSPECIFIED.);
#117=B_SPLINE_CURVE_WITH_KNOTS('',3,(#757,#758,#759,#760,#761),
 .UNSPECIFIED.,.F.,.F.,(4,1,4),(1.35522758374767E-16,0.570591636951544,
0.89617953068114),.UNSPECIFIED.);
#118=B_SPLINE_CURVE_WITH_KNOTS('',3,(#763,#764,#765,#766),.UNSPECIFIED.,
 .F.,.F.,(4,4),(-1.05948070324951,-1.03551338251146),.UNSPECIFIED.);
#119=B_SPLINE_CURVE_WITH_KNOTS('',3,(#767,#768,#769,#770,#771,#772,#773),
 .UNSPECIFIED.,.F.,.F.,(4,3,4),(-1.24581071768114,-0.838559066385771,-0.381552455933739),
 .UNSPECIFIED.);
#120=B_SPLINE_CURVE_WITH_KNOTS('',3,(#813,#814,#815,#816,#817,#818,#819,
#820,#821,#822),.UNSPECIFIED.,.F.,.F.,(4,3,3,4),(0.94975000390393,0.991647981271645,
1.39617358042018,1.80165214416836),.UNSPECIFIED.);
#121=B_SPLINE_CURVE_WITH_KNOTS('',3,(#853,#854,#855,#856,#857,#858),
 .UNSPECIFIED.,.F.,.F.,(4,2,4),(0.,0.14097,0.28194),.UNSPECIFIED.);
#122=B_SPLINE_CURVE_WITH_KNOTS('',3,(#894,#895,#896,#897,#898,#899,#900,
#901,#902,#903),.UNSPECIFIED.,.F.,.F.,(4,3,3,4),(0.94975000390393,0.991647981271645,
1.39617358042018,1.80165214416836),.UNSPECIFIED.);
#123=B_SPLINE_CURVE_WITH_KNOTS('',3,(#930,#931,#932,#933,#934,#935,#936),
 .UNSPECIFIED.,.F.,.F.,(4,3,4),(0.,0.498418239985473,0.949028272977285),
 .UNSPECIFIED.);
#124=B_SPLINE_CURVE_WITH_KNOTS('',3,(#955,#956,#957,#958,#959,#960,#961,
#962),.UNSPECIFIED.,.F.,.F.,(4,2,2,4),(-0.00130864955487336,0.,0.139661350445127,
0.280631350445127),.UNSPECIFIED.);
#125=B_SPLINE_CURVE_WITH_KNOTS('',3,(#989,#990,#991,#992,#993,#994,#995,
#996),.UNSPECIFIED.,.F.,.F.,(4,2,2,4),(0.818720561610171,1.00263441094958,
1.36507769785342,1.72678092910575),.UNSPECIFIED.);
#126=B_SPLINE_CURVE_WITH_KNOTS('',3,(#997,#998,#999,#1000),
 .UNSPECIFIED.,.F.,.F.,(4,4),(-0.871060421395042,1.61927554266843E-8),
 .UNSPECIFIED.);
#127=B_SPLINE_CURVE_WITH_KNOTS('',3,(#1002,#1003,#1004,#1005),
 .UNSPECIFIED.,.F.,.F.,(4,4),(-0.117562881919336,0.772876985037278),
 .UNSPECIFIED.);
#128=B_SPLINE_CURVE_WITH_KNOTS('',3,(#1006,#1007,#1008,#1009,#1010,#1011,
#1012,#1013,#1014,#1015,#1016,#1017,#1018,#1019,#1020,#1021,#1022,#1023,
#1024),.UNSPECIFIED.,.F.,.F.,(4,3,3,3,3,3,4),(0.,0.199604921506982,0.401846385021245,
0.496929157017615,0.69937068804224,0.73992568708652,0.812723735775269),
 .UNSPECIFIED.);
#129=B_SPLINE_CURVE_WITH_KNOTS('',3,(#1075,#1076,#1077,#1078),
 .UNSPECIFIED.,.F.,.F.,(4,4),(0.490897852441969,0.815277087850824),
 .UNSPECIFIED.);
#130=LINE('',#660,#165);
#131=LINE('',#694,#166);
#132=LINE('',#695,#167);
#133=LINE('',#795,#168);
#134=LINE('',#796,#169);
#135=LINE('',#799,#170);
#136=LINE('',#801,#171);
#137=LINE('',#802,#172);
#138=LINE('',#823,#173);
#139=LINE('',#826,#174);
#140=LINE('',#829,#175);
#141=LINE('',#852,#176);
#142=LINE('',#859,#177);
#143=LINE('',#904,#178);
#144=LINE('',#905,#179);
#145=LINE('',#954,#180);
#146=LINE('',#1027,#181);
#147=LINE('',#1031,#182);
#148=LINE('',#1034,#183);
#149=LINE('',#1037,#184);
#150=LINE('',#1038,#185);
#151=LINE('',#1041,#186);
#152=LINE('',#1045,#187);
#153=LINE('',#1048,#188);
#154=LINE('',#1051,#189);
#155=LINE('',#1052,#190);
#156=LINE('',#1055,#191);
#157=LINE('',#1058,#192);
#158=LINE('',#1059,#193);
#159=LINE('',#1065,#194);
#160=LINE('',#1067,#195);
#161=LINE('',#1072,#196);
#162=LINE('',#1074,#197);
#163=LINE('',#1095,#198);
#164=LINE('',#1112,#199);
#165=VECTOR('',#557,0.393700787401575);
#166=VECTOR('',#558,0.393700787401575);
#167=VECTOR('',#559,0.393700787401575);
#168=VECTOR('',#560,3.76915938973537);
#169=VECTOR('',#561,0.393700787401575);
#170=VECTOR('',#564,0.393700787401575);
#171=VECTOR('',#565,0.393700787401575);
#172=VECTOR('',#566,0.393700787401575);
#173=VECTOR('',#577,0.0941050189583099);
#174=VECTOR('',#580,0.393700787401575);
#175=VECTOR('',#583,0.393700787401575);
#176=VECTOR('',#588,3.73946803404682);
#177=VECTOR('',#589,0.393700787401575);
#178=VECTOR('',#590,0.393700787401575);
#179=VECTOR('',#591,0.111);
#180=VECTOR('',#592,0.393700787401575);
#181=VECTOR('',#595,0.393700787401575);
#182=VECTOR('',#600,0.393700787401575);
#183=VECTOR('',#603,0.393700787401575);
#184=VECTOR('',#606,0.393700787401575);
#185=VECTOR('',#607,0.393700787401575);
#186=VECTOR('',#610,0.393700787401575);
#187=VECTOR('',#615,0.393700787401575);
#188=VECTOR('',#618,0.393700787401575);
#189=VECTOR('',#621,0.393700787401575);
#190=VECTOR('',#622,0.393700787401575);
#191=VECTOR('',#625,0.393700787401575);
#192=VECTOR('',#630,0.393700787401575);
#193=VECTOR('',#631,0.393700787401575);
#194=VECTOR('',#638,0.0860000000000001);
#195=VECTOR('',#641,0.086);
#196=VECTOR('',#648,0.393700787401575);
#197=VECTOR('',#649,0.393700787401575);
#198=VECTOR('',#650,3.67217565080788);
#199=VECTOR('',#651,3.70240669537512);
#200=ELLIPSE('',#519,0.152133470262867,0.125);
#201=VERTEX_POINT('',#656);
#202=VERTEX_POINT('',#657);
#203=VERTEX_POINT('',#659);
#204=VERTEX_POINT('',#661);
#205=VERTEX_POINT('',#670);
#206=VERTEX_POINT('',#693);
#207=VERTEX_POINT('',#716);
#208=VERTEX_POINT('',#721);
#209=VERTEX_POINT('',#729);
#210=VERTEX_POINT('',#737);
#211=VERTEX_POINT('',#742);
#212=VERTEX_POINT('',#756);
#213=VERTEX_POINT('',#762);
#214=VERTEX_POINT('',#794);
#215=VERTEX_POINT('',#798);
#216=VERTEX_POINT('',#800);
#217=VERTEX_POINT('',#804);
#218=VERTEX_POINT('',#805);
#219=VERTEX_POINT('',#807);
#220=VERTEX_POINT('',#809);
#221=VERTEX_POINT('',#811);
#222=VERTEX_POINT('',#825);
#223=VERTEX_POINT('',#827);
#224=VERTEX_POINT('',#830);
#225=VERTEX_POINT('',#832);
#226=VERTEX_POINT('',#850);
#227=VERTEX_POINT('',#851);
#228=VERTEX_POINT('',#892);
#229=VERTEX_POINT('',#893);
#230=VERTEX_POINT('',#953);
#231=VERTEX_POINT('',#987);
#232=VERTEX_POINT('',#988);
#233=VERTEX_POINT('',#1001);
#234=VERTEX_POINT('',#1026);
#235=VERTEX_POINT('',#1030);
#236=VERTEX_POINT('',#1032);
#237=VERTEX_POINT('',#1036);
#238=VERTEX_POINT('',#1040);
#239=VERTEX_POINT('',#1044);
#240=VERTEX_POINT('',#1046);
#241=VERTEX_POINT('',#1050);
#242=VERTEX_POINT('',#1054);
#243=VERTEX_POINT('',#1060);
#244=VERTEX_POINT('',#1062);
#245=VERTEX_POINT('',#1071);
#246=VERTEX_POINT('',#1073);
#247=EDGE_CURVE('',#201,#202,#200,.T.);
#248=EDGE_CURVE('',#203,#201,#130,.T.);
#249=EDGE_CURVE('',#204,#203,#110,.T.);
#250=EDGE_CURVE('',#205,#204,#111,.T.);
#251=EDGE_CURVE('',#206,#205,#131,.T.);
#252=EDGE_CURVE('',#202,#206,#132,.T.);
#253=EDGE_CURVE('',#204,#207,#112,.T.);
#254=EDGE_CURVE('',#207,#208,#113,.F.);
#255=EDGE_CURVE('',#208,#209,#114,.F.);
#256=EDGE_CURVE('',#210,#209,#115,.T.);
#257=EDGE_CURVE('',#211,#210,#116,.T.);
#258=EDGE_CURVE('',#212,#211,#117,.T.);
#259=EDGE_CURVE('',#213,#212,#118,.T.);
#260=EDGE_CURVE('',#213,#205,#119,.F.);
#261=EDGE_CURVE('',#203,#214,#133,.T.);
#262=EDGE_CURVE('',#214,#207,#134,.T.);
#263=EDGE_CURVE('',#215,#201,#135,.T.);
#264=EDGE_CURVE('',#215,#216,#136,.T.);
#265=EDGE_CURVE('',#203,#216,#137,.T.);
#266=EDGE_CURVE('',#217,#218,#27,.T.);
#267=EDGE_CURVE('',#217,#219,#28,.T.);
#268=EDGE_CURVE('',#220,#219,#29,.T.);
#269=EDGE_CURVE('',#220,#221,#30,.T.);
#270=EDGE_CURVE('',#221,#210,#120,.F.);
#271=EDGE_CURVE('',#207,#218,#138,.T.);
#272=EDGE_CURVE('',#222,#213,#139,.T.);
#273=EDGE_CURVE('',#223,#222,#31,.T.);
#274=EDGE_CURVE('',#223,#206,#140,.T.);
#275=EDGE_CURVE('',#224,#224,#32,.T.);
#276=EDGE_CURVE('',#225,#225,#33,.T.);
#277=EDGE_CURVE('',#226,#227,#141,.T.);
#278=EDGE_CURVE('',#226,#212,#121,.T.);
#279=EDGE_CURVE('',#227,#211,#142,.T.);
#280=EDGE_CURVE('',#228,#229,#122,.F.);
#281=EDGE_CURVE('',#229,#210,#143,.T.);
#282=EDGE_CURVE('',#228,#221,#144,.T.);
#283=EDGE_CURVE('',#227,#229,#123,.T.);
#284=EDGE_CURVE('',#214,#230,#145,.T.);
#285=EDGE_CURVE('',#230,#218,#124,.T.);
#286=EDGE_CURVE('',#231,#232,#125,.F.);
#287=EDGE_CURVE('',#231,#227,#126,.T.);
#288=EDGE_CURVE('',#228,#233,#127,.T.);
#289=EDGE_CURVE('',#232,#233,#128,.F.);
#290=EDGE_CURVE('',#234,#220,#146,.T.);
#291=EDGE_CURVE('',#233,#234,#34,.T.);
#292=EDGE_CURVE('',#230,#235,#147,.T.);
#293=EDGE_CURVE('',#235,#236,#35,.T.);
#294=EDGE_CURVE('',#236,#217,#148,.T.);
#295=EDGE_CURVE('',#237,#214,#149,.T.);
#296=EDGE_CURVE('',#235,#237,#150,.T.);
#297=EDGE_CURVE('',#219,#238,#151,.T.);
#298=EDGE_CURVE('',#238,#234,#36,.T.);
#299=EDGE_CURVE('',#239,#222,#152,.T.);
#300=EDGE_CURVE('',#239,#240,#37,.T.);
#301=EDGE_CURVE('',#240,#223,#153,.T.);
#302=EDGE_CURVE('',#241,#226,#154,.T.);
#303=EDGE_CURVE('',#239,#241,#155,.T.);
#304=EDGE_CURVE('',#202,#242,#156,.T.);
#305=EDGE_CURVE('',#242,#215,#38,.T.);
#306=EDGE_CURVE('',#216,#241,#157,.T.);
#307=EDGE_CURVE('',#242,#240,#158,.T.);
#308=EDGE_CURVE('',#243,#243,#39,.T.);
#309=EDGE_CURVE('',#244,#244,#40,.T.);
#310=EDGE_CURVE('',#244,#225,#159,.T.);
#311=EDGE_CURVE('',#243,#224,#160,.T.);
#312=EDGE_CURVE('',#238,#236,#41,.T.);
#313=EDGE_CURVE('',#245,#237,#161,.T.);
#314=EDGE_CURVE('',#246,#245,#162,.T.);
#315=EDGE_CURVE('',#232,#246,#129,.F.);
#316=EDGE_CURVE('',#241,#231,#163,.T.);
#317=EDGE_CURVE('',#216,#237,#164,.T.);
#318=ORIENTED_EDGE('',*,*,#247,.F.);
#319=ORIENTED_EDGE('',*,*,#248,.F.);
#320=ORIENTED_EDGE('',*,*,#249,.F.);
#321=ORIENTED_EDGE('',*,*,#250,.F.);
#322=ORIENTED_EDGE('',*,*,#251,.F.);
#323=ORIENTED_EDGE('',*,*,#252,.F.);
#324=ORIENTED_EDGE('',*,*,#250,.T.);
#325=ORIENTED_EDGE('',*,*,#253,.T.);
#326=ORIENTED_EDGE('',*,*,#254,.T.);
#327=ORIENTED_EDGE('',*,*,#255,.T.);
#328=ORIENTED_EDGE('',*,*,#256,.F.);
#329=ORIENTED_EDGE('',*,*,#257,.F.);
#330=ORIENTED_EDGE('',*,*,#258,.F.);
#331=ORIENTED_EDGE('',*,*,#259,.F.);
#332=ORIENTED_EDGE('',*,*,#260,.T.);
#333=ORIENTED_EDGE('',*,*,#249,.T.);
#334=ORIENTED_EDGE('',*,*,#261,.T.);
#335=ORIENTED_EDGE('',*,*,#262,.T.);
#336=ORIENTED_EDGE('',*,*,#253,.F.);
#337=ORIENTED_EDGE('',*,*,#248,.T.);
#338=ORIENTED_EDGE('',*,*,#263,.F.);
#339=ORIENTED_EDGE('',*,*,#264,.T.);
#340=ORIENTED_EDGE('',*,*,#265,.F.);
#341=ORIENTED_EDGE('',*,*,#266,.F.);
#342=ORIENTED_EDGE('',*,*,#267,.T.);
#343=ORIENTED_EDGE('',*,*,#268,.F.);
#344=ORIENTED_EDGE('',*,*,#269,.T.);
#345=ORIENTED_EDGE('',*,*,#270,.T.);
#346=ORIENTED_EDGE('',*,*,#256,.T.);
#347=ORIENTED_EDGE('',*,*,#255,.F.);
#348=ORIENTED_EDGE('',*,*,#254,.F.);
#349=ORIENTED_EDGE('',*,*,#271,.T.);
#350=ORIENTED_EDGE('',*,*,#251,.T.);
#351=ORIENTED_EDGE('',*,*,#260,.F.);
#352=ORIENTED_EDGE('',*,*,#272,.F.);
#353=ORIENTED_EDGE('',*,*,#273,.F.);
#354=ORIENTED_EDGE('',*,*,#274,.T.);
#355=ORIENTED_EDGE('',*,*,#275,.T.);
#356=ORIENTED_EDGE('',*,*,#276,.T.);
#357=ORIENTED_EDGE('',*,*,#277,.F.);
#358=ORIENTED_EDGE('',*,*,#278,.T.);
#359=ORIENTED_EDGE('',*,*,#258,.T.);
#360=ORIENTED_EDGE('',*,*,#279,.F.);
#361=ORIENTED_EDGE('',*,*,#280,.T.);
#362=ORIENTED_EDGE('',*,*,#281,.T.);
#363=ORIENTED_EDGE('',*,*,#270,.F.);
#364=ORIENTED_EDGE('',*,*,#282,.F.);
#365=ORIENTED_EDGE('',*,*,#283,.F.);
#366=ORIENTED_EDGE('',*,*,#279,.T.);
#367=ORIENTED_EDGE('',*,*,#257,.T.);
#368=ORIENTED_EDGE('',*,*,#281,.F.);
#369=ORIENTED_EDGE('',*,*,#284,.T.);
#370=ORIENTED_EDGE('',*,*,#285,.T.);
#371=ORIENTED_EDGE('',*,*,#271,.F.);
#372=ORIENTED_EDGE('',*,*,#262,.F.);
#373=ORIENTED_EDGE('',*,*,#286,.F.);
#374=ORIENTED_EDGE('',*,*,#287,.T.);
#375=ORIENTED_EDGE('',*,*,#283,.T.);
#376=ORIENTED_EDGE('',*,*,#280,.F.);
#377=ORIENTED_EDGE('',*,*,#288,.T.);
#378=ORIENTED_EDGE('',*,*,#289,.F.);
#379=ORIENTED_EDGE('',*,*,#288,.F.);
#380=ORIENTED_EDGE('',*,*,#282,.T.);
#381=ORIENTED_EDGE('',*,*,#269,.F.);
#382=ORIENTED_EDGE('',*,*,#290,.F.);
#383=ORIENTED_EDGE('',*,*,#291,.F.);
#384=ORIENTED_EDGE('',*,*,#292,.T.);
#385=ORIENTED_EDGE('',*,*,#293,.T.);
#386=ORIENTED_EDGE('',*,*,#294,.T.);
#387=ORIENTED_EDGE('',*,*,#266,.T.);
#388=ORIENTED_EDGE('',*,*,#285,.F.);
#389=ORIENTED_EDGE('',*,*,#292,.F.);
#390=ORIENTED_EDGE('',*,*,#284,.F.);
#391=ORIENTED_EDGE('',*,*,#295,.F.);
#392=ORIENTED_EDGE('',*,*,#296,.F.);
#393=ORIENTED_EDGE('',*,*,#297,.T.);
#394=ORIENTED_EDGE('',*,*,#298,.T.);
#395=ORIENTED_EDGE('',*,*,#290,.T.);
#396=ORIENTED_EDGE('',*,*,#268,.T.);
#397=ORIENTED_EDGE('',*,*,#299,.F.);
#398=ORIENTED_EDGE('',*,*,#300,.T.);
#399=ORIENTED_EDGE('',*,*,#301,.T.);
#400=ORIENTED_EDGE('',*,*,#273,.T.);
#401=ORIENTED_EDGE('',*,*,#299,.T.);
#402=ORIENTED_EDGE('',*,*,#272,.T.);
#403=ORIENTED_EDGE('',*,*,#259,.T.);
#404=ORIENTED_EDGE('',*,*,#278,.F.);
#405=ORIENTED_EDGE('',*,*,#302,.F.);
#406=ORIENTED_EDGE('',*,*,#303,.F.);
#407=ORIENTED_EDGE('',*,*,#247,.T.);
#408=ORIENTED_EDGE('',*,*,#304,.T.);
#409=ORIENTED_EDGE('',*,*,#305,.T.);
#410=ORIENTED_EDGE('',*,*,#263,.T.);
#411=ORIENTED_EDGE('',*,*,#300,.F.);
#412=ORIENTED_EDGE('',*,*,#303,.T.);
#413=ORIENTED_EDGE('',*,*,#306,.F.);
#414=ORIENTED_EDGE('',*,*,#264,.F.);
#415=ORIENTED_EDGE('',*,*,#305,.F.);
#416=ORIENTED_EDGE('',*,*,#307,.T.);
#417=ORIENTED_EDGE('',*,*,#308,.T.);
#418=ORIENTED_EDGE('',*,*,#309,.T.);
#419=ORIENTED_EDGE('',*,*,#309,.F.);
#420=ORIENTED_EDGE('',*,*,#310,.T.);
#421=ORIENTED_EDGE('',*,*,#276,.F.);
#422=ORIENTED_EDGE('',*,*,#310,.F.);
#423=ORIENTED_EDGE('',*,*,#308,.F.);
#424=ORIENTED_EDGE('',*,*,#311,.T.);
#425=ORIENTED_EDGE('',*,*,#275,.F.);
#426=ORIENTED_EDGE('',*,*,#311,.F.);
#427=ORIENTED_EDGE('',*,*,#294,.F.);
#428=ORIENTED_EDGE('',*,*,#312,.F.);
#429=ORIENTED_EDGE('',*,*,#297,.F.);
#430=ORIENTED_EDGE('',*,*,#267,.F.);
#431=ORIENTED_EDGE('',*,*,#293,.F.);
#432=ORIENTED_EDGE('',*,*,#296,.T.);
#433=ORIENTED_EDGE('',*,*,#313,.F.);
#434=ORIENTED_EDGE('',*,*,#314,.F.);
#435=ORIENTED_EDGE('',*,*,#315,.F.);
#436=ORIENTED_EDGE('',*,*,#289,.T.);
#437=ORIENTED_EDGE('',*,*,#291,.T.);
#438=ORIENTED_EDGE('',*,*,#298,.F.);
#439=ORIENTED_EDGE('',*,*,#312,.T.);
#440=ORIENTED_EDGE('',*,*,#287,.F.);
#441=ORIENTED_EDGE('',*,*,#316,.F.);
#442=ORIENTED_EDGE('',*,*,#302,.T.);
#443=ORIENTED_EDGE('',*,*,#277,.T.);
#444=ORIENTED_EDGE('',*,*,#306,.T.);
#445=ORIENTED_EDGE('',*,*,#316,.T.);
#446=ORIENTED_EDGE('',*,*,#286,.T.);
#447=ORIENTED_EDGE('',*,*,#315,.T.);
#448=ORIENTED_EDGE('',*,*,#314,.T.);
#449=ORIENTED_EDGE('',*,*,#313,.T.);
#450=ORIENTED_EDGE('',*,*,#317,.F.);
#451=ORIENTED_EDGE('',*,*,#265,.T.);
#452=ORIENTED_EDGE('',*,*,#317,.T.);
#453=ORIENTED_EDGE('',*,*,#295,.T.);
#454=ORIENTED_EDGE('',*,*,#261,.F.);
#455=ORIENTED_EDGE('',*,*,#252,.T.);
#456=ORIENTED_EDGE('',*,*,#274,.F.);
#457=ORIENTED_EDGE('',*,*,#301,.F.);
#458=ORIENTED_EDGE('',*,*,#307,.F.);
#459=ORIENTED_EDGE('',*,*,#304,.F.);
#460=PLANE('',#518);
#461=PLANE('',#520);
#462=PLANE('',#521);
#463=PLANE('',#526);
#464=PLANE('',#534);
#465=PLANE('',#539);
#466=PLANE('',#542);
#467=PLANE('',#549);
#468=PLANE('',#550);
#469=ADVANCED_FACE('',(#52),#460,.F.);
#470=ADVANCED_FACE('',(#53),#42,.F.);
#471=ADVANCED_FACE('',(#54),#43,.F.);
#472=ADVANCED_FACE('',(#55),#461,.T.);
#473=ADVANCED_FACE('',(#56),#462,.F.);
#474=ADVANCED_FACE('',(#57,#23,#24),#463,.T.);
#475=ADVANCED_FACE('',(#58),#44,.F.);
#476=ADVANCED_FACE('',(#59),#45,.F.);
#477=ADVANCED_FACE('',(#60),#46,.F.);
#478=ADVANCED_FACE('',(#61),#47,.F.);
#479=ADVANCED_FACE('',(#62),#48,.T.);
#480=ADVANCED_FACE('',(#63),#15,.F.);
#481=ADVANCED_FACE('',(#64),#16,.T.);
#482=ADVANCED_FACE('',(#65),#464,.T.);
#483=ADVANCED_FACE('',(#66),#17,.T.);
#484=ADVANCED_FACE('',(#67),#18,.T.);
#485=ADVANCED_FACE('',(#68),#465,.T.);
#486=ADVANCED_FACE('',(#69),#19,.T.);
#487=ADVANCED_FACE('',(#70,#25,#26),#466,.T.);
#488=ADVANCED_FACE('',(#71),#20,.F.);
#489=ADVANCED_FACE('',(#72),#21,.F.);
#490=ADVANCED_FACE('',(#73),#22,.T.);
#491=ADVANCED_FACE('',(#74),#467,.T.);
#492=ADVANCED_FACE('',(#75),#49,.F.);
#493=ADVANCED_FACE('',(#76),#50,.F.);
#494=ADVANCED_FACE('',(#77),#51,.F.);
#495=ADVANCED_FACE('',(#78),#468,.F.);
#496=CLOSED_SHELL('',(#469,#470,#471,#472,#473,#474,#475,#476,#477,#478,
#479,#480,#481,#482,#483,#484,#485,#486,#487,#488,#489,#490,#491,#492,#493,
#494,#495));
#497=DERIVED_UNIT_ELEMENT(#499,1.);
#498=DERIVED_UNIT_ELEMENT(#1138,-3.);
#499=(
CONVERSION_BASED_UNIT('gram',#501)
MASS_UNIT()
NAMED_UNIT(#1135)
);
#500=(
MASS_UNIT()
NAMED_UNIT(*)
SI_UNIT(.KILO.,.GRAM.)
);
#501=MASS_MEASURE_WITH_UNIT(MASS_MEASURE(0.001),#500);
#502=DERIVED_UNIT((#497,#498));
#503=MEASURE_REPRESENTATION_ITEM('density measure',
POSITIVE_RATIO_MEASURE(1.425),#502);
#504=PROPERTY_DEFINITION_REPRESENTATION(#509,#506);
#505=PROPERTY_DEFINITION_REPRESENTATION(#510,#507);
#506=REPRESENTATION('material name',(#508),#1132);
#507=REPRESENTATION('density',(#503),#1132);
#508=DESCRIPTIVE_REPRESENTATION_ITEM('Acetal Resin, Black',
'Acetal Resin, Black');
#509=PROPERTY_DEFINITION('material property','material name',#1146);
#510=PROPERTY_DEFINITION('material property','density of part',#1146);
#511=DATE_TIME_ROLE('creation_date');
#512=APPLIED_DATE_AND_TIME_ASSIGNMENT(#513,#511,(#1146));
#513=DATE_AND_TIME(#514,#515);
#514=CALENDAR_DATE(2026,5,1);
#515=LOCAL_TIME(0,0,0.,#516);
#516=COORDINATED_UNIVERSAL_TIME_OFFSET(0,0,.BEHIND.);
#517=AXIS2_PLACEMENT_3D('',#654,#551,#552);
#518=AXIS2_PLACEMENT_3D('',#655,#553,#554);
#519=AXIS2_PLACEMENT_3D('',#658,#555,#556);
#520=AXIS2_PLACEMENT_3D('',#797,#562,#563);
#521=AXIS2_PLACEMENT_3D('',#803,#567,#568);
#522=AXIS2_PLACEMENT_3D('',#806,#569,#570);
#523=AXIS2_PLACEMENT_3D('',#808,#571,#572);
#524=AXIS2_PLACEMENT_3D('',#810,#573,#574);
#525=AXIS2_PLACEMENT_3D('',#812,#575,#576);
#526=AXIS2_PLACEMENT_3D('',#824,#578,#579);
#527=AXIS2_PLACEMENT_3D('',#828,#581,#582);
#528=AXIS2_PLACEMENT_3D('',#831,#584,#585);
#529=AXIS2_PLACEMENT_3D('',#833,#586,#587);
#530=AXIS2_PLACEMENT_3D('',#1025,#593,#594);
#531=AXIS2_PLACEMENT_3D('',#1028,#596,#597);
#532=AXIS2_PLACEMENT_3D('',#1029,#598,#599);
#533=AXIS2_PLACEMENT_3D('',#1033,#601,#602);
#534=AXIS2_PLACEMENT_3D('',#1035,#604,#605);
#535=AXIS2_PLACEMENT_3D('',#1039,#608,#609);
#536=AXIS2_PLACEMENT_3D('',#1042,#611,#612);
#537=AXIS2_PLACEMENT_3D('',#1043,#613,#614);
#538=AXIS2_PLACEMENT_3D('',#1047,#616,#617);
#539=AXIS2_PLACEMENT_3D('',#1049,#619,#620);
#540=AXIS2_PLACEMENT_3D('',#1053,#623,#624);
#541=AXIS2_PLACEMENT_3D('',#1056,#626,#627);
#542=AXIS2_PLACEMENT_3D('',#1057,#628,#629);
#543=AXIS2_PLACEMENT_3D('',#1061,#632,#633);
#544=AXIS2_PLACEMENT_3D('',#1063,#634,#635);
#545=AXIS2_PLACEMENT_3D('',#1064,#636,#637);
#546=AXIS2_PLACEMENT_3D('',#1066,#639,#640);
#547=AXIS2_PLACEMENT_3D('',#1068,#642,#643);
#548=AXIS2_PLACEMENT_3D('',#1069,#644,#645);
#549=AXIS2_PLACEMENT_3D('',#1070,#646,#647);
#550=AXIS2_PLACEMENT_3D('',#1129,#652,#653);
#551=DIRECTION('axis',(0.,0.,1.));
#552=DIRECTION('refdir',(1.,0.,0.));
#553=DIRECTION('center_axis',(0.,0.,1.));
#554=DIRECTION('ref_axis',(1.,0.,0.));
#555=DIRECTION('center_axis',(0.,0.,1.));
#556=DIRECTION('ref_axis',(-1.,0.,0.));
#557=DIRECTION('',(0.,-1.,0.));
#558=DIRECTION('',(0.,1.,0.));
#559=DIRECTION('',(1.,0.,0.));
#560=DIRECTION('',(-0.369933333879708,0.928589013648938,0.0295257889841501));
#561=DIRECTION('',(0.00333174705709511,0.015920763146451,-0.999867705630291));
#562=DIRECTION('center_axis',(-0.821646937942164,0.,-0.569996762596303));
#563=DIRECTION('ref_axis',(-0.569996762596303,0.,0.821646937942164));
#564=DIRECTION('',(0.569996762596303,0.,-0.821646937942164));
#565=DIRECTION('',(0.,1.,0.));
#566=DIRECTION('',(-0.569996762596303,0.,0.821646937942164));
#567=DIRECTION('center_axis',(0.,0.,1.));
#568=DIRECTION('ref_axis',(1.,0.,0.));
#569=DIRECTION('center_axis',(0.,0.,1.));
#570=DIRECTION('ref_axis',(-0.925844902364468,0.377903713617277,0.));
#571=DIRECTION('center_axis',(0.,0.,-1.));
#572=DIRECTION('ref_axis',(0.741948300404544,0.670457097454274,0.));
#573=DIRECTION('center_axis',(0.,0.,1.));
#574=DIRECTION('ref_axis',(0.897425684129524,-0.441165662154997,0.));
#575=DIRECTION('center_axis',(0.,0.,1.));
#576=DIRECTION('ref_axis',(-0.382869467761991,-0.923802452181011,0.));
#577=DIRECTION('',(-0.0039304264483247,0.999992275844136,0.));
#578=DIRECTION('center_axis',(0.569996762596303,0.,-0.821646937942164));
#579=DIRECTION('ref_axis',(-0.821646937942164,0.,-0.569996762596303));
#580=DIRECTION('',(0.,1.,0.));
#581=DIRECTION('center_axis',(-0.569996762596303,0.,0.821646937942164));
#582=DIRECTION('ref_axis',(0.580992121560066,-0.707106781186547,0.403048576086225));
#583=DIRECTION('',(-0.821646937942164,0.,-0.569996762596303));
#584=DIRECTION('center_axis',(-0.569996762596303,0.,0.821646937942164));
#585=DIRECTION('ref_axis',(0.821646937942164,0.,0.569996762596303));
#586=DIRECTION('center_axis',(-0.569996762596303,0.,0.821646937942164));
#587=DIRECTION('ref_axis',(0.821646937942164,0.,0.569996762596303));
#588=DIRECTION('',(-0.349023218291148,0.935962005326284,-0.0464533925487814));
#589=DIRECTION('',(0.0601623909307297,-0.0270888109200545,-0.997820967428744));
#590=DIRECTION('',(-2.2045768838458E-6,-0.0363310173863898,-0.999339810660423));
#591=DIRECTION('',(0.,0.,-1.));
#592=DIRECTION('',(-3.08645052177709E-16,1.,0.));
#593=DIRECTION('center_axis',(0.,0.,-1.));
#594=DIRECTION('ref_axis',(-0.382869467761991,-0.923802452181011,0.));
#595=DIRECTION('',(0.,0.,-1.));
#596=DIRECTION('center_axis',(0.,0.,-1.));
#597=DIRECTION('ref_axis',(-0.382869467761991,-0.923802452181011,0.));
#598=DIRECTION('center_axis',(0.,0.,-1.));
#599=DIRECTION('ref_axis',(-0.925844902364468,0.377903713617277,0.));
#600=DIRECTION('',(0.,0.,1.));
#601=DIRECTION('center_axis',(0.,0.,-1.));
#602=DIRECTION('ref_axis',(-0.925844902364468,0.377903713617277,0.));
#603=DIRECTION('',(0.,0.,-1.));
#604=DIRECTION('center_axis',(-1.,-3.08645052177709E-16,0.));
#605=DIRECTION('ref_axis',(-3.08645052177709E-16,1.,0.));
#606=DIRECTION('',(0.,0.,-1.));
#607=DIRECTION('',(3.08645052177709E-16,-1.,0.));
#608=DIRECTION('center_axis',(0.,0.,-1.));
#609=DIRECTION('ref_axis',(0.897425684129524,-0.441165662154997,0.));
#610=DIRECTION('',(0.,0.,1.));
#611=DIRECTION('center_axis',(0.,0.,-1.));
#612=DIRECTION('ref_axis',(0.897425684129524,-0.441165662154997,0.));
#613=DIRECTION('center_axis',(0.569996762596303,0.,-0.821646937942164));
#614=DIRECTION('ref_axis',(0.580992121560066,-0.707106781186547,0.403048576086225));
#615=DIRECTION('',(0.569996762596303,0.,-0.821646937942164));
#616=DIRECTION('center_axis',(0.569996762596303,0.,-0.821646937942164));
#617=DIRECTION('ref_axis',(0.580992121560066,-0.707106781186547,0.403048576086225));
#618=DIRECTION('',(0.569996762596303,0.,-0.821646937942164));
#619=DIRECTION('center_axis',(0.821646937942164,0.,0.569996762596303));
#620=DIRECTION('ref_axis',(0.569996762596303,0.,-0.821646937942164));
#621=DIRECTION('',(0.569996762596303,0.,-0.821646937942164));
#622=DIRECTION('',(0.,1.,0.));
#623=DIRECTION('center_axis',(-0.569996762596303,0.,0.821646937942164));
#624=DIRECTION('ref_axis',(-0.580992121560066,-0.707106781186548,-0.403048576086225));
#625=DIRECTION('',(-0.569996762596303,0.,0.821646937942164));
#626=DIRECTION('center_axis',(0.569996762596303,0.,-0.821646937942164));
#627=DIRECTION('ref_axis',(-0.580992121560066,-0.707106781186548,-0.403048576086225));
#628=DIRECTION('center_axis',(-0.569996762596303,0.,0.821646937942164));
#629=DIRECTION('ref_axis',(0.821646937942164,0.,0.569996762596303));
#630=DIRECTION('',(0.821646937942164,0.,0.569996762596303));
#631=DIRECTION('',(0.821646937942164,0.,0.569996762596303));
#632=DIRECTION('center_axis',(0.569996762596303,0.,-0.821646937942164));
#633=DIRECTION('ref_axis',(0.821646937942164,0.,0.569996762596303));
#634=DIRECTION('center_axis',(0.569996762596303,0.,-0.821646937942164));
#635=DIRECTION('ref_axis',(0.821646937942164,0.,0.569996762596303));
#636=DIRECTION('center_axis',(0.569996762596303,0.,-0.821646937942164));
#637=DIRECTION('ref_axis',(0.821646937942164,0.,0.569996762596303));
#638=DIRECTION('',(0.569996762596303,0.,-0.821646937942164));
#639=DIRECTION('center_axis',(0.569996762596303,0.,-0.821646937942164));
#640=DIRECTION('ref_axis',(0.821646937942164,0.,0.569996762596303));
#641=DIRECTION('',(0.569996762596303,0.,-0.821646937942164));
#642=DIRECTION('center_axis',(0.,0.,-1.));
#643=DIRECTION('ref_axis',(0.741948300404544,0.670457097454274,0.));
#644=DIRECTION('center_axis',(0.,0.,1.));
#645=DIRECTION('ref_axis',(0.741948300404544,0.670457097454274,0.));
#646=DIRECTION('center_axis',(0.,0.,1.));
#647=DIRECTION('ref_axis',(1.,0.,0.));
#648=DIRECTION('',(-1.,0.,1.31128703695885E-16));
#649=DIRECTION('',(-1.,0.,1.31128703695885E-16));
#650=DIRECTION('',(-0.301091888343615,0.953113449033954,-0.0303055777749823));
#651=DIRECTION('',(-0.322719498523121,0.945331047605343,0.0469183941154247));
#652=DIRECTION('center_axis',(0.,1.,0.));
#653=DIRECTION('ref_axis',(0.,0.,1.));
#654=CARTESIAN_POINT('',(0.,0.,0.));
#655=CARTESIAN_POINT('Origin',(-0.0102431921782238,3.86471966447178,-0.286287404788954));
#656=CARTESIAN_POINT('',(-0.105662301031188,0.125,-0.286287404788954));
#657=CARTESIAN_POINT('',(0.0464711692316792,0.,-0.286287404788954));
#658=CARTESIAN_POINT('Origin',(0.0464711692316792,0.125,-0.286287404788954));
#659=CARTESIAN_POINT('',(-0.105662301031188,3.,-0.286287404788954));
#660=CARTESIAN_POINT('',(-0.105662301031188,1.93235983223589,-0.286287404788954));
#661=CARTESIAN_POINT('',(-1.49584195254958,6.49273947069389,-0.286287404788936));
#662=CARTESIAN_POINT('Ctrl Pts',(-1.49584195254911,6.49273947069277,-0.286287404788954));
#663=CARTESIAN_POINT('Ctrl Pts',(-1.26257051811911,5.93632404120252,-0.286287404788954));
#664=CARTESIAN_POINT('Ctrl Pts',(-1.03176511578007,5.3744937320883,-0.286287404788954));
#665=CARTESIAN_POINT('Ctrl Pts',(-0.687637823030089,4.51401962829655,-0.286287404788954));
#666=CARTESIAN_POINT('Ctrl Pts',(-0.568863273563428,4.21264542044252,-0.286287404785886));
#667=CARTESIAN_POINT('Ctrl Pts',(-0.334827875079259,3.60845401124422,-0.286287404785886));
#668=CARTESIAN_POINT('Ctrl Pts',(-0.219051437192073,3.3042593716259,-0.286287404788954));
#669=CARTESIAN_POINT('Ctrl Pts',(-0.105662301031188,3.,-0.286287404788954));
#670=CARTESIAN_POINT('',(0.0890756471178267,3.01248257041571,-0.286287404789207));
#671=CARTESIAN_POINT('Ctrl Pts',(0.089075647118452,3.01248257041596,-0.286287404788954));
#672=CARTESIAN_POINT('Ctrl Pts',(-0.0945379425316898,3.47193935245519,-0.286287404788954));
#673=CARTESIAN_POINT('Ctrl Pts',(-0.284990018145157,3.9477869782967,-0.286287404788915));
#674=CARTESIAN_POINT('Ctrl Pts',(-0.572023992237234,4.66447147586135,-0.286287404788915));
#675=CARTESIAN_POINT('Ctrl Pts',(-0.744912422477979,5.09602642485754,-0.286287404788908));
#676=CARTESIAN_POINT('Ctrl Pts',(-0.916041486397529,5.52248042165269,-0.286287404788908));
#677=CARTESIAN_POINT('Ctrl Pts',(-1.0052788834892,5.74473641736913,-0.286287404788954));
#678=CARTESIAN_POINT('Ctrl Pts',(-1.12956812773147,6.05211778628623,-0.286287404788954));
#679=CARTESIAN_POINT('Ctrl Pts',(-1.18900142005758,6.19792689174515,-0.286287404788954));
#680=CARTESIAN_POINT('Ctrl Pts',(-1.24147781895136,6.31810221638122,-0.286287404788954));
#681=CARTESIAN_POINT('Ctrl Pts',(-1.25721254503996,6.35280102728925,-0.286287404788954));
#682=CARTESIAN_POINT('Ctrl Pts',(-1.27808261298009,6.39288338289847,-0.286287404788954));
#683=CARTESIAN_POINT('Ctrl Pts',(-1.28569644768597,6.40656687658532,-0.286287404788955));
#684=CARTESIAN_POINT('Ctrl Pts',(-1.30360662882685,6.4336141384835,-0.286287404788955));
#685=CARTESIAN_POINT('Ctrl Pts',(-1.31309283151,6.44470596311189,-0.286287404788954));
#686=CARTESIAN_POINT('Ctrl Pts',(-1.3338999050346,6.46225394394733,-0.286287404788954));
#687=CARTESIAN_POINT('Ctrl Pts',(-1.34564912009628,6.4688397942749,-0.286287404788954));
#688=CARTESIAN_POINT('Ctrl Pts',(-1.3749816497451,6.4792704170754,-0.286287404788954));
#689=CARTESIAN_POINT('Ctrl Pts',(-1.39230164322347,6.48282222491946,-0.286287404788954));
#690=CARTESIAN_POINT('Ctrl Pts',(-1.43645569839947,6.48891298640636,-0.286287404788954));
#691=CARTESIAN_POINT('Ctrl Pts',(-1.46577683630384,6.49110363082881,-0.286287404788954));
#692=CARTESIAN_POINT('Ctrl Pts',(-1.49584195254964,6.4927394706928,-0.286287404788954));
#693=CARTESIAN_POINT('',(0.0890756471185547,0.,-0.286287404788954));
#694=CARTESIAN_POINT('',(0.0890756471185547,1.93235983223589,-0.286287404788954));
#695=CARTESIAN_POINT('',(-0.00512159608911185,0.,-0.286287404788954));
#696=CARTESIAN_POINT('Ctrl Pts',(-0.0395917160745895,3.01507621414066,-0.375165066958899));
#697=CARTESIAN_POINT('Ctrl Pts',(-0.315552159084366,3.68144686166536,-0.361236128032428));
#698=CARTESIAN_POINT('Ctrl Pts',(-0.80294664778879,4.84577675208751,-0.335592491331459));
#699=CARTESIAN_POINT('Ctrl Pts',(-1.29285879058043,6.00884114222895,-0.301710002045961));
#700=CARTESIAN_POINT('Ctrl Pts',(-1.50205885609065,6.50755725087067,-0.285815532114769));
#701=CARTESIAN_POINT('Ctrl Pts',(0.136814023474452,3.01155200510282,-0.253357325869825));
#702=CARTESIAN_POINT('Ctrl Pts',(-0.131952288452118,3.67771690016556,-0.262798035558404));
#703=CARTESIAN_POINT('Ctrl Pts',(-0.606823324123709,4.84174874534361,-0.277907496734737));
#704=CARTESIAN_POINT('Ctrl Pts',(-1.08405080474009,6.00488777313003,-0.28457611349609));
#705=CARTESIAN_POINT('Ctrl Pts',(-1.28777682881043,6.50369105481257,-0.286079057139495));
#706=CARTESIAN_POINT('Ctrl Pts',(0.313133035416179,3.00789455931431,-0.131425097604756));
#707=CARTESIAN_POINT('Ctrl Pts',(0.0515614441100399,3.67385672978104,-0.164207355502532));
#708=CARTESIAN_POINT('Ctrl Pts',(-0.410765294221143,4.83762106327131,-0.220012906087212));
#709=CARTESIAN_POINT('Ctrl Pts',(-0.875259336299564,6.0008943881012,-0.267230176868787));
#710=CARTESIAN_POINT('Ctrl Pts',(-1.0734946673711,6.49980578848653,-0.286139239210127));
#711=CARTESIAN_POINT('Ctrl Pts',(0.489346842480196,3.00415004445139,-0.00934186023736871));
#712=CARTESIAN_POINT('Ctrl Pts',(0.234973741896775,3.66992262276835,-0.0654359590300298));
#713=CARTESIAN_POINT('Ctrl Pts',(-0.214775782886117,4.83346863051749,-0.161887467602663));
#714=CARTESIAN_POINT('Ctrl Pts',(-0.66648406272135,5.99692959714555,-0.249670513418306));
#715=CARTESIAN_POINT('Ctrl Pts',(-0.859212374360063,6.49596459348436,-0.286));
#716=CARTESIAN_POINT('',(-1.49963012714457,6.50176743853142,-0.286));
#717=CARTESIAN_POINT('Ctrl Pts',(-1.49584192606472,6.49273948053267,-0.286287382413145));
#718=CARTESIAN_POINT('Ctrl Pts',(-1.49710468565222,6.49574879105004,-0.286191637644401));
#719=CARTESIAN_POINT('Ctrl Pts',(-1.49836741807462,6.49875811085228,-0.28609584234509));
#720=CARTESIAN_POINT('Ctrl Pts',(-1.49963012306284,6.50176744004755,-0.285999996545929));
#721=CARTESIAN_POINT('',(-1.30475783005846,6.5,-0.286));
#722=CARTESIAN_POINT('Ctrl Pts',(-1.3047578278345,6.5000000192614,-0.285999776458997));
#723=CARTESIAN_POINT('Ctrl Pts',(-1.30508259314731,6.5000029652362,-0.285999776872009));
#724=CARTESIAN_POINT('Ctrl Pts',(-1.30540735846001,6.50000591122283,-0.285999777286057));
#725=CARTESIAN_POINT('Ctrl Pts',(-1.30573212377282,6.5000088571976,-0.285999777701128));
#726=CARTESIAN_POINT('Ctrl Pts',(-1.34507810660951,6.50036576807481,-0.285999827987938));
#727=CARTESIAN_POINT('Ctrl Pts',(-1.43118396249288,6.50114695950366,-0.285999996029378));
#728=CARTESIAN_POINT('Ctrl Pts',(-1.49963012306284,6.50176744004755,-0.285999996545929));
#729=CARTESIAN_POINT('',(-1.00000008632889,6.49723759709103,-0.286));
#730=CARTESIAN_POINT('Ctrl Pts',(-1.0000000860066,6.49723761650837,-0.285999855073851));
#731=CARTESIAN_POINT('Ctrl Pts',(-1.12001843358534,6.49832339027762,-0.285999646593917));
#732=CARTESIAN_POINT('Ctrl Pts',(-1.2431519043143,6.4994411864995,-0.285999698505998));
#733=CARTESIAN_POINT('Ctrl Pts',(-1.30378353100876,6.49999118134118,-0.285999775223085));
#734=CARTESIAN_POINT('Ctrl Pts',(-1.30410829661731,6.49999412731871,-0.28599977563401));
#735=CARTESIAN_POINT('Ctrl Pts',(-1.30443306222596,6.49999707328391,-0.285999776045984));
#736=CARTESIAN_POINT('Ctrl Pts',(-1.3047578278345,6.5000000192614,-0.285999776458997));
#737=CARTESIAN_POINT('',(-0.859212374360062,6.49596459348436,-0.286));
#738=CARTESIAN_POINT('Ctrl Pts',(-0.859212374360063,6.49596459348436,-0.286));
#739=CARTESIAN_POINT('Ctrl Pts',(-0.902655641036526,6.4963568942109,-0.285999996785012));
#740=CARTESIAN_POINT('Ctrl Pts',(-0.951068601723345,6.49679462524003,-0.285999924014852));
#741=CARTESIAN_POINT('Ctrl Pts',(-1.0000000860066,6.49723761650837,-0.285999855073851));
#742=CARTESIAN_POINT('',(-0.857819529614418,6.13362149937187,-0.267723372277568));
#743=CARTESIAN_POINT('Ctrl Pts',(-0.85780747565395,6.13362634863864,-0.267716442287338));
#744=CARTESIAN_POINT('Ctrl Pts',(-0.879005623049805,6.18796906107622,-0.270471091050715));
#745=CARTESIAN_POINT('Ctrl Pts',(-0.890726228609353,6.24512050048629,-0.272721572745369));
#746=CARTESIAN_POINT('Ctrl Pts',(-0.89248382616385,6.30259651079993,-0.275259311324952));
#747=CARTESIAN_POINT('Ctrl Pts',(-0.892714978917679,6.31015554388409,-0.275593065351673));
#748=CARTESIAN_POINT('Ctrl Pts',(-0.892773833944799,6.31772019215669,-0.275931707748124));
#749=CARTESIAN_POINT('Ctrl Pts',(-0.892659328101363,6.32528480558052,-0.276276916861549));
#750=CARTESIAN_POINT('Ctrl Pts',(-0.892156377428548,6.35851129688376,-0.277793198918857));
#751=CARTESIAN_POINT('Ctrl Pts',(-0.888318049113901,6.39138517302954,-0.279423850339756));
#752=CARTESIAN_POINT('Ctrl Pts',(-0.881251895495201,6.42345203282499,-0.281279446307936));
#753=CARTESIAN_POINT('Ctrl Pts',(-0.875804703217834,6.44817189605793,-0.282709897522729));
#754=CARTESIAN_POINT('Ctrl Pts',(-0.868439564841325,6.47241217715481,-0.284273307374544));
#755=CARTESIAN_POINT('Ctrl Pts',(-0.859212374360063,6.49596459348436,-0.286));
#756=CARTESIAN_POINT('',(0.367517544549735,3.01879167899523,-0.0911753689312085));
#757=CARTESIAN_POINT('Ctrl Pts',(0.367517464148952,3.01879155256623,-0.0911752871979983));
#758=CARTESIAN_POINT('Ctrl Pts',(0.10990889596559,3.68062501700603,-0.131517842201769));
#759=CARTESIAN_POINT('Ctrl Pts',(-0.298736688898615,4.71867501472462,-0.193432092398353));
#760=CARTESIAN_POINT('Ctrl Pts',(-0.709048791792603,5.75644341907375,-0.248498884372881));
#761=CARTESIAN_POINT('Ctrl Pts',(-0.857807475653949,6.13362634863864,-0.267716442287338));
#762=CARTESIAN_POINT('',(0.368430808588084,3.00949263786061,-0.0924918336023831));
#763=CARTESIAN_POINT('Ctrl Pts',(0.36843075556026,3.00949251785988,-0.0924917593154634));
#764=CARTESIAN_POINT('Ctrl Pts',(0.368125432378436,3.01259190725862,-0.0920516373831807));
#765=CARTESIAN_POINT('Ctrl Pts',(0.367820998132497,3.01569159301856,-0.0916128129747986));
#766=CARTESIAN_POINT('Ctrl Pts',(0.367517464148952,3.01879155256623,-0.0911752871979986));
#767=CARTESIAN_POINT('Ctrl Pts',(0.0890755943081986,3.01248243479772,-0.286287328987513));
#768=CARTESIAN_POINT('Ctrl Pts',(0.132940827298038,3.0120169039633,-0.255856880048869));
#769=CARTESIAN_POINT('Ctrl Pts',(0.176808304655876,3.01154932914991,-0.225424884323856));
#770=CARTESIAN_POINT('Ctrl Pts',(0.220712747459519,3.01107956757082,-0.194967283965858));
#771=CARTESIAN_POINT('Ctrl Pts',(0.269981106523576,3.01055241403749,-0.160788601927263));
#772=CARTESIAN_POINT('Ctrl Pts',(0.31920268599274,3.01002350698311,-0.126642423967884));
#773=CARTESIAN_POINT('Ctrl Pts',(0.368430755560256,3.00949251785988,-0.0924917593154661));
#774=CARTESIAN_POINT('Ctrl Pts',(-0.0443282215032647,3.02724561154156,-0.374700115075365));
#775=CARTESIAN_POINT('Ctrl Pts',(-0.064772914679239,3.01816374102771,-0.345229211646562));
#776=CARTESIAN_POINT('Ctrl Pts',(-0.0852176078552133,3.00908187051385,-0.315758308217758));
#777=CARTESIAN_POINT('Ctrl Pts',(-0.105662301031188,3.,-0.286287404788954));
#778=CARTESIAN_POINT('Ctrl Pts',(-0.250290097927652,3.52444750555552,-0.364361244671569));
#779=CARTESIAN_POINT('Ctrl Pts',(-0.268490730059462,3.51629348360718,-0.333045719983593));
#780=CARTESIAN_POINT('Ctrl Pts',(-0.286652768752065,3.50815402194834,-0.301704728792793));
#781=CARTESIAN_POINT('Ctrl Pts',(-0.304853400883875,3.5,-0.270389204104818));
#782=CARTESIAN_POINT('Ctrl Pts',(-0.734073356623807,4.68328708923319,-0.339416524248005));
#783=CARTESIAN_POINT('Ctrl Pts',(-0.745926069058453,4.67774744216885,-0.304052899850765));
#784=CARTESIAN_POINT('Ctrl Pts',(-0.757779921438833,4.672206313731,-0.268657026905739));
#785=CARTESIAN_POINT('Ctrl Pts',(-0.769632633873479,4.66666666666667,-0.2332934025085));
#786=CARTESIAN_POINT('Ctrl Pts',(-1.22205249443676,5.84023072447651,-0.307070426246162));
#787=CARTESIAN_POINT('Ctrl Pts',(-1.22616388635022,5.83793381412682,-0.270077497150441));
#788=CARTESIAN_POINT('Ctrl Pts',(-1.23030047494962,5.83563024368303,-0.233190530007902));
#789=CARTESIAN_POINT('Ctrl Pts',(-1.23441186686308,5.83333333333333,-0.196197600912182));
#790=CARTESIAN_POINT('Ctrl Pts',(-1.49963012714457,6.50176743853142,-0.286));
#791=CARTESIAN_POINT('Ctrl Pts',(-1.49975341809638,6.50117829235428,-0.249));
#792=CARTESIAN_POINT('Ctrl Pts',(-1.49987670904819,6.50058914617714,-0.212));
#793=CARTESIAN_POINT('Ctrl Pts',(-1.5,6.5,-0.175));
#794=CARTESIAN_POINT('',(-1.5,6.5,-0.175));
#795=CARTESIAN_POINT('',(-0.105662301031188,3.,-0.286287404788954));
#796=CARTESIAN_POINT('',(-1.5,6.5,-0.175));
#797=CARTESIAN_POINT('Origin',(-0.105662301031188,0.,-0.286287404788954));
#798=CARTESIAN_POINT('',(-0.305161167939894,0.125,0.00128902349080287));
#799=CARTESIAN_POINT('',(-0.155537017758364,0.125,-0.214393297719015));
#800=CARTESIAN_POINT('',(-0.305161167939894,3.,0.00128902349080286));
#801=CARTESIAN_POINT('',(-0.305161167939894,0.,0.00128902349080287));
#802=CARTESIAN_POINT('',(-0.105662301031188,3.,-0.286287404788954));
#803=CARTESIAN_POINT('Origin',(0.0277314752559493,7.02311552504821,-0.286));
#804=CARTESIAN_POINT('',(-1.35718878323427,6.94575195744506,-0.286));
#805=CARTESIAN_POINT('',(-1.5,6.5958717306079,-0.286));
#806=CARTESIAN_POINT('Origin',(-1.,6.5958717306079,-0.286));
#807=CARTESIAN_POINT('',(1.29504273819542,7.12835162919306,-0.286));
#808=CARTESIAN_POINT('Origin',(0.0715663497028114,5.54623105009642,-0.286));
#809=CARTESIAN_POINT('',(1.23020490491277,6.99645755428496,-0.286));
#810=CARTESIAN_POINT('Origin',(1.24916237362695,7.06902210747694,-0.286));
#811=CARTESIAN_POINT('',(-0.643222771919494,6.74758100828834,-0.286));
#812=CARTESIAN_POINT('Origin',(0.598289281106921,4.57763911455244,-0.286));
#813=CARTESIAN_POINT('Ctrl Pts',(-0.859212374360062,6.49596459348436,-0.286));
#814=CARTESIAN_POINT('Ctrl Pts',(-0.857158589660403,6.5011227424755,-0.286));
#815=CARTESIAN_POINT('Ctrl Pts',(-0.85501968247865,6.5062504943508,-0.286));
#816=CARTESIAN_POINT('Ctrl Pts',(-0.852796151202367,6.51134568080136,-0.286));
#817=CARTESIAN_POINT('Ctrl Pts',(-0.831327923419685,6.56053978231122,-0.286));
#818=CARTESIAN_POINT('Ctrl Pts',(-0.802273713995777,6.6060139064477,-0.286));
#819=CARTESIAN_POINT('Ctrl Pts',(-0.766732269153975,6.64609095750658,-0.286));
#820=CARTESIAN_POINT('Ctrl Pts',(-0.731107097253056,6.68626242041726,-0.286));
#821=CARTESIAN_POINT('Ctrl Pts',(-0.689412656716857,6.72051367575866,-0.286));
#822=CARTESIAN_POINT('Ctrl Pts',(-0.643222771919494,6.74758100828834,-0.286));
#823=CARTESIAN_POINT('',(-1.49963012714457,6.50176743853142,-0.286));
#824=CARTESIAN_POINT('Origin',(0.368430808588084,0.,-0.0924918336023831));
#825=CARTESIAN_POINT('',(0.368430808588084,0.125,-0.0924918336023831));
#826=CARTESIAN_POINT('',(0.368430808588084,0.,-0.0924918336023831));
#827=CARTESIAN_POINT('',(0.265724941345313,0.,-0.163741428926921));
#828=CARTESIAN_POINT('Origin',(0.265724941345313,0.125,-0.163741428926921));
#829=CARTESIAN_POINT('',(0.368430808588084,0.,-0.0924918336023831));
#830=CARTESIAN_POINT('',(0.0923574374395166,0.25,-0.284010745834741));
#831=CARTESIAN_POINT('Origin',(0.163019074102543,0.25,-0.234991024251459));
#832=CARTESIAN_POINT('',(0.0923574374395165,2.375,-0.284010745834741));
#833=CARTESIAN_POINT('Origin',(0.163019074102543,2.375,-0.234991024251459));
#834=CARTESIAN_POINT('Ctrl Pts',(0.305161167939894,3.,-0.00128902349080292));
#835=CARTESIAN_POINT('Ctrl Pts',(0.325946626809841,3.00626389299841,-0.0312511386376049));
#836=CARTESIAN_POINT('Ctrl Pts',(0.346732085679788,3.01252778599682,-0.0612132537844068));
#837=CARTESIAN_POINT('Ctrl Pts',(0.367517544549735,3.01879167899523,-0.0911753689312087));
#838=CARTESIAN_POINT('Ctrl Pts',(-0.084725073042647,4.04554278579466,-0.0531810972915279));
#839=CARTESIAN_POINT('Ctrl Pts',(-0.0687676931180047,4.04981251213948,-0.08704718066214));
#840=CARTESIAN_POINT('Ctrl Pts',(-0.0530383939835638,4.05400907857662,-0.120673656182351));
#841=CARTESIAN_POINT('Ctrl Pts',(-0.0370810140589215,4.05827880492144,-0.154539739552963));
#842=CARTESIAN_POINT('Ctrl Pts',(-0.474611314025188,5.09108557158933,-0.105073171092253));
#843=CARTESIAN_POINT('Ctrl Pts',(-0.465844437212783,5.09253325211757,-0.141773818679028));
#844=CARTESIAN_POINT('Ctrl Pts',(-0.457181687221959,5.09395807211871,-0.17815272241084));
#845=CARTESIAN_POINT('Ctrl Pts',(-0.448414810409554,5.09540575264695,-0.214853369997615));
#846=CARTESIAN_POINT('Ctrl Pts',(-0.864497555007729,6.13662835738399,-0.156965244892978));
#847=CARTESIAN_POINT('Ctrl Pts',(-0.862271546543292,6.13562607137995,-0.193884620687841));
#848=CARTESIAN_POINT('Ctrl Pts',(-0.860045538078855,6.13462378537591,-0.230803996482705));
#849=CARTESIAN_POINT('Ctrl Pts',(-0.857819529614418,6.13362149937187,-0.267723372277569));
#850=CARTESIAN_POINT('',(0.305161167939894,3.,-0.0012890234908029));
#851=CARTESIAN_POINT('',(-0.864497555007729,6.13662835738399,-0.156965244892978));
#852=CARTESIAN_POINT('',(0.305161167939894,3.,-0.00128902349080294));
#853=CARTESIAN_POINT('Ctrl Pts',(0.305161167939894,3.,-0.00128902349080292));
#854=CARTESIAN_POINT('Ctrl Pts',(0.315553897374868,3.0031319464992,-0.0162700810642039));
#855=CARTESIAN_POINT('Ctrl Pts',(0.325946626809841,3.00626389299841,-0.0312511386376048));
#856=CARTESIAN_POINT('Ctrl Pts',(0.346732085679788,3.01252778599682,-0.0612132537844067));
#857=CARTESIAN_POINT('Ctrl Pts',(0.357124815114761,3.01565973249602,-0.0761943113578076));
#858=CARTESIAN_POINT('Ctrl Pts',(0.367517544549735,3.01879167899523,-0.0911753689312085));
#859=CARTESIAN_POINT('',(-0.864497555007729,6.13662835738399,-0.156965244892978));
#860=CARTESIAN_POINT('Ctrl Pts',(-0.643222771919494,6.74758100828834,-0.286));
#861=CARTESIAN_POINT('Ctrl Pts',(-0.643222771919494,6.74758100828834,-0.249));
#862=CARTESIAN_POINT('Ctrl Pts',(-0.643222771919494,6.74758100828834,-0.212));
#863=CARTESIAN_POINT('Ctrl Pts',(-0.643222771919494,6.74758100828834,-0.175));
#864=CARTESIAN_POINT('Ctrl Pts',(-0.689412656716857,6.72051367575866,-0.286));
#865=CARTESIAN_POINT('Ctrl Pts',(-0.689412662841637,6.72072711410793,-0.249));
#866=CARTESIAN_POINT('Ctrl Pts',(-0.6894126117422,6.72094047959311,-0.212));
#867=CARTESIAN_POINT('Ctrl Pts',(-0.68941261786698,6.72115391794238,-0.175));
#868=CARTESIAN_POINT('Ctrl Pts',(-0.731107097253056,6.68626242041726,-0.286));
#869=CARTESIAN_POINT('Ctrl Pts',(-0.731107073160529,6.68668925167487,-0.249));
#870=CARTESIAN_POINT('Ctrl Pts',(-0.731107048152591,6.68711608351765,-0.212));
#871=CARTESIAN_POINT('Ctrl Pts',(-0.731107024060065,6.68754291477526,-0.175));
#872=CARTESIAN_POINT('Ctrl Pts',(-0.802273713995777,6.60601390644769,-0.286));
#873=CARTESIAN_POINT('Ctrl Pts',(-0.802273667101967,6.60686706378838,-0.249));
#874=CARTESIAN_POINT('Ctrl Pts',(-0.802273613742164,6.60772021081721,-0.212));
#875=CARTESIAN_POINT('Ctrl Pts',(-0.802273566848354,6.6085733681579,-0.175));
#876=CARTESIAN_POINT('Ctrl Pts',(-0.831327923419684,6.56053978231122,-0.286));
#877=CARTESIAN_POINT('Ctrl Pts',(-0.831327878142338,6.5616058619166,-0.249));
#878=CARTESIAN_POINT('Ctrl Pts',(-0.831327796075646,6.56267191708494,-0.212));
#879=CARTESIAN_POINT('Ctrl Pts',(-0.831327750798299,6.56373799669031,-0.175));
#880=CARTESIAN_POINT('Ctrl Pts',(-0.855019682478649,6.5062504943508,-0.286));
#881=CARTESIAN_POINT('Ctrl Pts',(-0.855019600894989,6.50755152424694,-0.249));
#882=CARTESIAN_POINT('Ctrl Pts',(-0.855019525682053,6.50885255848294,-0.212));
#883=CARTESIAN_POINT('Ctrl Pts',(-0.855019444098392,6.51015358837908,-0.175));
#884=CARTESIAN_POINT('Ctrl Pts',(-0.857158589660403,6.5011227424755,-0.286));
#885=CARTESIAN_POINT('Ctrl Pts',(-0.857158511501085,6.50244582761297,-0.249));
#886=CARTESIAN_POINT('Ctrl Pts',(-0.857158426965686,6.50376890836919,-0.212));
#887=CARTESIAN_POINT('Ctrl Pts',(-0.857158348806368,6.50509199350666,-0.175));
#888=CARTESIAN_POINT('Ctrl Pts',(-0.859212374360062,6.49596459348436,-0.286));
#889=CARTESIAN_POINT('Ctrl Pts',(-0.859212292737269,6.49730972917182,-0.249));
#890=CARTESIAN_POINT('Ctrl Pts',(-0.859212211114475,6.49865486485929,-0.212));
#891=CARTESIAN_POINT('Ctrl Pts',(-0.859212129491681,6.50000000054675,-0.175));
#892=CARTESIAN_POINT('',(-0.64322277197725,6.74758100825529,-0.174999999535166));
#893=CARTESIAN_POINT('',(-0.859212129490368,6.50000000054625,-0.175000000019818));
#894=CARTESIAN_POINT('Ctrl Pts',(-0.859212129491681,6.50000000054675,-0.175));
#895=CARTESIAN_POINT('Ctrl Pts',(-0.857158348806368,6.50509199350666,-0.175));
#896=CARTESIAN_POINT('Ctrl Pts',(-0.855019444098392,6.51015358837908,-0.175));
#897=CARTESIAN_POINT('Ctrl Pts',(-0.852795918993745,6.5151826200987,-0.175));
#898=CARTESIAN_POINT('Ctrl Pts',(-0.831327750798299,6.56373799669031,-0.175));
#899=CARTESIAN_POINT('Ctrl Pts',(-0.802273566848354,6.6085733681579,-0.175));
#900=CARTESIAN_POINT('Ctrl Pts',(-0.766732158940264,6.64801168788904,-0.175));
#901=CARTESIAN_POINT('Ctrl Pts',(-0.731107024060065,6.68754291477526,-0.175));
#902=CARTESIAN_POINT('Ctrl Pts',(-0.68941261786698,6.72115391794238,-0.175));
#903=CARTESIAN_POINT('Ctrl Pts',(-0.643222771919494,6.74758100828834,-0.175));
#904=CARTESIAN_POINT('',(-0.859212129490368,6.50000000054625,-0.175000000019818));
#905=CARTESIAN_POINT('',(-0.643222771919494,6.74758100828834,-0.286));
#906=CARTESIAN_POINT('Ctrl Pts',(-0.859212374360062,6.49596459348436,-0.286));
#907=CARTESIAN_POINT('Ctrl Pts',(-0.859212292737071,6.49730972917107,-0.249000000013169));
#908=CARTESIAN_POINT('Ctrl Pts',(-0.859212211114079,6.49865486485778,-0.212000000026338));
#909=CARTESIAN_POINT('Ctrl Pts',(-0.859212129491088,6.50000000054448,-0.175000000039508));
#910=CARTESIAN_POINT('Ctrl Pts',(-0.880409170849271,6.44185974144078,-0.282033424014003));
#911=CARTESIAN_POINT('Ctrl Pts',(-0.880731075015449,6.44304489928204,-0.245035347489255));
#912=CARTESIAN_POINT('Ctrl Pts',(-0.881057640757389,6.44422957440567,-0.208037375621596));
#913=CARTESIAN_POINT('Ctrl Pts',(-0.881379544923566,6.44541473224693,-0.171039299096848));
#914=CARTESIAN_POINT('Ctrl Pts',(-0.891770926308131,6.3841245349186,-0.278959909382449));
#915=CARTESIAN_POINT('Ctrl Pts',(-0.892444590748529,6.38518536359141,-0.241968621892241));
#916=CARTESIAN_POINT('Ctrl Pts',(-0.893118905392373,6.38624615185353,-0.204977359248508));
#917=CARTESIAN_POINT('Ctrl Pts',(-0.893792569832771,6.38730698052634,-0.1679860717583));
#918=CARTESIAN_POINT('Ctrl Pts',(-0.893649301911763,6.26019945161855,-0.273313268074654));
#919=CARTESIAN_POINT('Ctrl Pts',(-0.895086072476826,6.26111425909793,-0.23634801041982));
#920=CARTESIAN_POINT('Ctrl Pts',(-0.896523087517373,6.26202902498704,-0.199382743742208));
#921=CARTESIAN_POINT('Ctrl Pts',(-0.897959858082436,6.26294383246641,-0.162417486087374));
#922=CARTESIAN_POINT('Ctrl Pts',(-0.881802438463692,6.19511241236243,-0.270838745630726));
#923=CARTESIAN_POINT('Ctrl Pts',(-0.883643605943582,6.19602457558537,-0.233893730782212));
#924=CARTESIAN_POINT('Ctrl Pts',(-0.885485723246308,6.19693673686289,-0.196948739814394));
#925=CARTESIAN_POINT('Ctrl Pts',(-0.887326890726199,6.19784890008583,-0.16000372496588));
#926=CARTESIAN_POINT('Ctrl Pts',(-0.857819529614418,6.13362149937186,-0.267723372277568));
#927=CARTESIAN_POINT('Ctrl Pts',(-0.860045538078855,6.13462378537591,-0.230803996482705));
#928=CARTESIAN_POINT('Ctrl Pts',(-0.862271546543292,6.13562607137995,-0.193884620687841));
#929=CARTESIAN_POINT('Ctrl Pts',(-0.864497555007729,6.13662835738399,-0.156965244892978));
#930=CARTESIAN_POINT('Ctrl Pts',(-0.864497555007729,6.13662835738399,-0.156965244892978));
#931=CARTESIAN_POINT('Ctrl Pts',(-0.887326890726199,6.19784890008583,-0.16000372496588));
#932=CARTESIAN_POINT('Ctrl Pts',(-0.897959858082436,6.26294383246641,-0.162417486087374));
#933=CARTESIAN_POINT('Ctrl Pts',(-0.895771248391816,6.32825786276461,-0.16534204033759));
#934=CARTESIAN_POINT('Ctrl Pts',(-0.893792569832771,6.38730698052634,-0.1679860717583));
#935=CARTESIAN_POINT('Ctrl Pts',(-0.881379544923566,6.44541473224693,-0.171039299096848));
#936=CARTESIAN_POINT('Ctrl Pts',(-0.859212129491088,6.50000000054448,-0.175000000039508));
#937=CARTESIAN_POINT('Ctrl Pts',(-1.49963012714457,6.50176743853142,-0.286));
#938=CARTESIAN_POINT('Ctrl Pts',(-1.49975341809638,6.50117829235428,-0.249));
#939=CARTESIAN_POINT('Ctrl Pts',(-1.49987670904819,6.50058914617714,-0.212));
#940=CARTESIAN_POINT('Ctrl Pts',(-1.5,6.5,-0.175));
#941=CARTESIAN_POINT('Ctrl Pts',(-1.49975341809638,6.53313553589025,-0.286));
#942=CARTESIAN_POINT('Ctrl Pts',(-1.49983561206425,6.53274277177216,-0.249));
#943=CARTESIAN_POINT('Ctrl Pts',(-1.49991780603213,6.53235000765406,-0.212));
#944=CARTESIAN_POINT('Ctrl Pts',(-1.5,6.53195724353597,-0.175));
#945=CARTESIAN_POINT('Ctrl Pts',(-1.49987670904819,6.56450363324908,-0.286));
#946=CARTESIAN_POINT('Ctrl Pts',(-1.49991780603213,6.56430725119003,-0.249));
#947=CARTESIAN_POINT('Ctrl Pts',(-1.49995890301606,6.56411086913098,-0.212));
#948=CARTESIAN_POINT('Ctrl Pts',(-1.5,6.56391448707194,-0.175));
#949=CARTESIAN_POINT('Ctrl Pts',(-1.5,6.5958717306079,-0.286));
#950=CARTESIAN_POINT('Ctrl Pts',(-1.5,6.5958717306079,-0.249));
#951=CARTESIAN_POINT('Ctrl Pts',(-1.5,6.5958717306079,-0.212));
#952=CARTESIAN_POINT('Ctrl Pts',(-1.5,6.5958717306079,-0.175));
#953=CARTESIAN_POINT('',(-1.5,6.5958717306079,-0.175));
#954=CARTESIAN_POINT('',(-1.5,6.76155776252411,-0.175));
#955=CARTESIAN_POINT('Ctrl Pts',(-1.5,6.5958717306079,-0.175));
#956=CARTESIAN_POINT('Ctrl Pts',(-1.5,6.5958717306079,-0.175171738786729));
#957=CARTESIAN_POINT('Ctrl Pts',(-1.5,6.5958717306079,-0.175343477573458));
#958=CARTESIAN_POINT('Ctrl Pts',(-1.5,6.5958717306079,-0.193843477573458));
#959=CARTESIAN_POINT('Ctrl Pts',(-1.5,6.5958717306079,-0.212171738786729));
#960=CARTESIAN_POINT('Ctrl Pts',(-1.5,6.5958717306079,-0.249));
#961=CARTESIAN_POINT('Ctrl Pts',(-1.5,6.5958717306079,-0.2675));
#962=CARTESIAN_POINT('Ctrl Pts',(-1.5,6.5958717306079,-0.286));
#963=CARTESIAN_POINT('Ctrl Pts',(-0.86098215898362,6.13473970295916,-0.203249449662091));
#964=CARTESIAN_POINT('Ctrl Pts',(-0.870865003245045,6.14000153756328,-0.0735151826845885));
#965=CARTESIAN_POINT('Ctrl Pts',(-0.880507741651119,6.14553616864708,0.0562630254525846));
#966=CARTESIAN_POINT('Ctrl Pts',(-0.88985223544985,6.15132466254301,0.186086620977));
#967=CARTESIAN_POINT('Ctrl Pts',(-0.885200924031027,6.19775697336762,-0.202661192624751));
#968=CARTESIAN_POINT('Ctrl Pts',(-0.893482788183471,6.2024646512431,-0.0728511412682891));
#969=CARTESIAN_POINT('Ctrl Pts',(-0.901549501189045,6.20738087418013,0.0569975370218788));
#970=CARTESIAN_POINT('Ctrl Pts',(-0.909331852978617,6.2124855858022,0.186886497884359));
#971=CARTESIAN_POINT('Ctrl Pts',(-0.907611030689363,6.33351658171418,-0.199914555862787));
#972=CARTESIAN_POINT('Ctrl Pts',(-0.913361752566177,6.3363013620123,-0.0700163319711666));
#973=CARTESIAN_POINT('Ctrl Pts',(-0.918956441183124,6.33921975031363,0.0599103555371637));
#974=CARTESIAN_POINT('Ctrl Pts',(-0.924321556156145,6.34221910397654,0.189866110674144));
#975=CARTESIAN_POINT('Ctrl Pts',(-0.85056280601315,6.5678785109073,-0.190414942718023));
#976=CARTESIAN_POINT('Ctrl Pts',(-0.855074770706189,6.56618085583782,-0.0605813038598108));
#977=CARTESIAN_POINT('Ctrl Pts',(-0.859482524607893,6.56452382326604,0.0692664013238396));
#978=CARTESIAN_POINT('Ctrl Pts',(-0.863775757387449,6.56291320091987,0.199127360919124));
#979=CARTESIAN_POINT('Ctrl Pts',(-0.730979230430256,6.69737196753636,-0.180789296894438));
#980=CARTESIAN_POINT('Ctrl Pts',(-0.737409429692306,6.69323546111206,-0.0511453000678862));
#981=CARTESIAN_POINT('Ctrl Pts',(-0.743798756419035,6.6891599405471,0.0785043002780685));
#982=CARTESIAN_POINT('Ctrl Pts',(-0.750046580752741,6.68506232780989,0.208161870065639));
#983=CARTESIAN_POINT('Ctrl Pts',(-0.643222771919494,6.74758100828834,-0.175));
#984=CARTESIAN_POINT('Ctrl Pts',(-0.651269846043532,6.74297694974399,-0.0454715813794483));
#985=CARTESIAN_POINT('Ctrl Pts',(-0.659245968600828,6.738353991201,0.0840592309497568));
#986=CARTESIAN_POINT('Ctrl Pts',(-0.667135349259406,6.73372364556282,0.21359325827868));
#987=CARTESIAN_POINT('',(-0.88985223544985,6.15132466254301,0.186086620977));
#988=CARTESIAN_POINT('',(-0.872291639602813,6.5,0.175));
#989=CARTESIAN_POINT('Ctrl Pts',(-0.872291639603057,6.49999999999943,0.17500000000003));
#990=CARTESIAN_POINT('Ctrl Pts',(-0.881780521110932,6.47796082586171,0.176159139386855));
#991=CARTESIAN_POINT('Ctrl Pts',(-0.88969964720195,6.45521396629589,0.177178536192765));
#992=CARTESIAN_POINT('Ctrl Pts',(-0.908299981481175,6.38601258549116,0.179865337401739));
#993=CARTESIAN_POINT('Ctrl Pts',(-0.914035816907997,6.3385863957011,0.181169140026746));
#994=CARTESIAN_POINT('Ctrl Pts',(-0.911938521401607,6.24360782781891,0.183561195661148));
#995=CARTESIAN_POINT('Ctrl Pts',(-0.904143983300564,6.19656552625958,0.184648124316021));
#996=CARTESIAN_POINT('Ctrl Pts',(-0.88985223544985,6.15132466254301,0.186086620977));
#997=CARTESIAN_POINT('Ctrl Pts',(-0.88985223544985,6.15132466254301,0.186086620977));
#998=CARTESIAN_POINT('Ctrl Pts',(-0.881618948999607,6.14622451165339,0.0717010937376176));
#999=CARTESIAN_POINT('Ctrl Pts',(-0.873154132432731,6.14132143687194,-0.042649198842686));
#1000=CARTESIAN_POINT('Ctrl Pts',(-0.864497552310783,6.136628388715,-0.156965245974993));
#1001=CARTESIAN_POINT('',(-0.664782236419728,6.73510298252635,0.175000000000734));
#1002=CARTESIAN_POINT('Ctrl Pts',(-0.643222771948519,6.74758100827173,-0.174999999532796));
#1003=CARTESIAN_POINT('Ctrl Pts',(-0.650470664628784,6.74343419395018,-0.0583354749173566));
#1004=CARTESIAN_POINT('Ctrl Pts',(-0.657660998805438,6.73927204725912,0.0583309915620123));
#1005=CARTESIAN_POINT('Ctrl Pts',(-0.66478223695713,6.73510298033133,0.174999999998026));
#1006=CARTESIAN_POINT('Ctrl Pts',(-0.664782236957085,6.73510298033136,0.174999999997288));
#1007=CARTESIAN_POINT('Ctrl Pts',(-0.687388830985606,6.72186941741713,0.174999980840235));
#1008=CARTESIAN_POINT('Ctrl Pts',(-0.708831454241735,6.70687056096874,0.175000703355687));
#1009=CARTESIAN_POINT('Ctrl Pts',(-0.728977577308127,6.69032004058322,0.175001413757402));
#1010=CARTESIAN_POINT('Ctrl Pts',(-0.749389806537371,6.67355090764092,0.175002133542674));
#1011=CARTESIAN_POINT('Ctrl Pts',(-0.768472033290056,6.65518794690828,0.175002767471785));
#1012=CARTESIAN_POINT('Ctrl Pts',(-0.786055597699964,6.63541090229262,0.175002809788141));
#1013=CARTESIAN_POINT('Ctrl Pts',(-0.794322419036296,6.6261128276482,0.175002829682955));
#1014=CARTESIAN_POINT('Ctrl Pts',(-0.802257451855867,6.61650166949864,0.175002729659427));
#1015=CARTESIAN_POINT('Ctrl Pts',(-0.809839896282689,6.60659380208714,0.175002550241814));
#1016=CARTESIAN_POINT('Ctrl Pts',(-0.825983801075572,6.58549880169045,0.175002168240877));
#1017=CARTESIAN_POINT('Ctrl Pts',(-0.840408530358318,6.56322215222473,0.175001245425376));
#1018=CARTESIAN_POINT('Ctrl Pts',(-0.852959242718692,6.53995564193484,0.175000944995462));
#1019=CARTESIAN_POINT('Ctrl Pts',(-0.855473519928531,6.53529467490008,0.175000884810505));
#1020=CARTESIAN_POINT('Ctrl Pts',(-0.85791246262138,6.53059387371094,0.175000852662774));
#1021=CARTESIAN_POINT('Ctrl Pts',(-0.860274623537769,6.52585462963247,0.175000863474642));
#1022=CARTESIAN_POINT('Ctrl Pts',(-0.864514808704933,6.51734747319545,0.17500088288243));
#1023=CARTESIAN_POINT('Ctrl Pts',(-0.868507636816063,6.50871646547359,0.17500103889407));
#1024=CARTESIAN_POINT('Ctrl Pts',(-0.87225079106267,6.49997344774517,0.175001231041378));
#1025=CARTESIAN_POINT('Origin',(0.598289281106921,4.57763911455244,0.175));
#1026=CARTESIAN_POINT('',(1.23020490491277,6.99645755428496,0.175));
#1027=CARTESIAN_POINT('',(1.23020490491277,6.99645755428496,0.175));
#1028=CARTESIAN_POINT('Origin',(0.598289281106921,4.57763911455244,0.175));
#1029=CARTESIAN_POINT('Origin',(-1.,6.5958717306079,0.175));
#1030=CARTESIAN_POINT('',(-1.5,6.5958717306079,0.175));
#1031=CARTESIAN_POINT('',(-1.5,6.5958717306079,0.175));
#1032=CARTESIAN_POINT('',(-1.35718878323427,6.94575195744506,0.175));
#1033=CARTESIAN_POINT('Origin',(-1.,6.5958717306079,0.175));
#1034=CARTESIAN_POINT('',(-1.35718878323427,6.94575195744506,0.175));
#1035=CARTESIAN_POINT('Origin',(-1.5,6.5,0.175));
#1036=CARTESIAN_POINT('',(-1.5,6.5,0.175));
#1037=CARTESIAN_POINT('',(-1.5,6.5,-0.175));
#1038=CARTESIAN_POINT('',(-1.5,6.78323517639584,0.175));
#1039=CARTESIAN_POINT('Origin',(1.24916237362695,7.06902210747694,0.175));
#1040=CARTESIAN_POINT('',(1.29504273819542,7.12835162919306,0.175));
#1041=CARTESIAN_POINT('',(1.29504273819542,7.12835162919306,0.175));
#1042=CARTESIAN_POINT('Origin',(1.24916237362695,7.06902210747694,0.175));
#1043=CARTESIAN_POINT('Origin',(0.052831150515594,0.125,0.143143702394477));
#1044=CARTESIAN_POINT('',(0.105662301031188,0.125,0.286287404788954));
#1045=CARTESIAN_POINT('',(0.305161167939894,0.125,-0.00128902349080289));
#1046=CARTESIAN_POINT('',(0.00295643378841746,0.,0.215037809464416));
#1047=CARTESIAN_POINT('Origin',(0.00295643378841742,0.125,0.215037809464417));
#1048=CARTESIAN_POINT('',(0.052831150515594,0.,0.143143702394477));
#1049=CARTESIAN_POINT('Origin',(0.105662301031188,0.,0.286287404788954));
#1050=CARTESIAN_POINT('',(0.105662301031188,3.,0.286287404788954));
#1051=CARTESIAN_POINT('',(0.105662301031188,3.,0.286287404788954));
#1052=CARTESIAN_POINT('',(0.105662301031188,0.,0.286287404788954));
#1053=CARTESIAN_POINT('Origin',(-0.0528311505155939,0.125,-0.143143702394477));
#1054=CARTESIAN_POINT('',(-0.202455300697123,0.,0.0725386188153407));
#1055=CARTESIAN_POINT('',(-0.0528311505155939,0.,-0.143143702394477));
#1056=CARTESIAN_POINT('Origin',(-0.202455300697123,0.125,0.0725386188153407));
#1057=CARTESIAN_POINT('Origin',(-0.305161167939894,0.,0.00128902349080287));
#1058=CARTESIAN_POINT('',(-0.305161167939894,3.,0.00128902349080287));
#1059=CARTESIAN_POINT('',(-0.305161167939894,0.,0.00128902349080287));
#1060=CARTESIAN_POINT('',(-0.170411070117379,0.25,0.0947684925565965));
#1061=CARTESIAN_POINT('Origin',(-0.099749433454353,0.25,0.143788214139879));
#1062=CARTESIAN_POINT('',(-0.170411070117379,2.375,0.0947684925565964));
#1063=CARTESIAN_POINT('Origin',(-0.099749433454353,2.375,0.143788214139879));
#1064=CARTESIAN_POINT('Origin',(-0.099749433454353,2.375,0.143788214139879));
#1065=CARTESIAN_POINT('',(-0.170411070117379,2.375,0.0947684925565964));
#1066=CARTESIAN_POINT('Origin',(-0.099749433454353,0.25,0.143788214139879));
#1067=CARTESIAN_POINT('',(-0.170411070117379,0.25,0.0947684925565965));
#1068=CARTESIAN_POINT('Origin',(0.0715663497028114,5.54623105009642,0.175));
#1069=CARTESIAN_POINT('Origin',(0.0715663497028114,5.54623105009642,0.175));
#1070=CARTESIAN_POINT('Origin',(0.0277314752559493,7.02311552504821,0.175));
#1071=CARTESIAN_POINT('',(-1.19524216994154,6.5,0.175));
#1072=CARTESIAN_POINT('',(-1.5,6.5,0.175));
#1073=CARTESIAN_POINT('',(-1.,6.5,0.175));
#1074=CARTESIAN_POINT('',(-1.5,6.5,0.175));
#1075=CARTESIAN_POINT('Ctrl Pts',(-1.,6.49999999999997,0.175));
#1076=CARTESIAN_POINT('Ctrl Pts',(-0.957430546534271,6.49999999999996,0.175));
#1077=CARTESIAN_POINT('Ctrl Pts',(-0.914861093068542,6.49999999999996,0.175));
#1078=CARTESIAN_POINT('Ctrl Pts',(-0.872291639602813,6.49999999999995,0.175));
#1079=CARTESIAN_POINT('Ctrl Pts',(0.305161167939894,3.,-0.00128902349080299));
#1080=CARTESIAN_POINT('Ctrl Pts',(-0.0865518394050989,4.050441554181,-0.0534242315315517));
#1081=CARTESIAN_POINT('Ctrl Pts',(-0.478264846750092,5.10088310836201,-0.1055594395723));
#1082=CARTESIAN_POINT('Ctrl Pts',(-0.869977854095085,6.15132466254301,-0.157694647613049));
#1083=CARTESIAN_POINT('Ctrl Pts',(0.238661545636992,3.,0.0945697859357828));
#1084=CARTESIAN_POINT('Ctrl Pts',(-0.133093185535341,4.050441554181,0.0486795601517331));
#1085=CARTESIAN_POINT('Ctrl Pts',(-0.504847916707674,5.10088310836201,0.00278933436768364));
#1086=CARTESIAN_POINT('Ctrl Pts',(-0.876602647880007,6.15132466254301,-0.0431008914163661));
#1087=CARTESIAN_POINT('Ctrl Pts',(0.17216192333409,3.,0.190428595362369));
#1088=CARTESIAN_POINT('Ctrl Pts',(-0.179634531665583,4.050441554181,0.150783351835018));
#1089=CARTESIAN_POINT('Ctrl Pts',(-0.531430986665255,5.10088310836201,0.111138108307668));
#1090=CARTESIAN_POINT('Ctrl Pts',(-0.883227441664929,6.15132466254301,0.0714928647803172));
#1091=CARTESIAN_POINT('Ctrl Pts',(0.105662301031188,3.,0.286287404788954));
#1092=CARTESIAN_POINT('Ctrl Pts',(-0.226175877795825,4.050441554181,0.252887143518303));
#1093=CARTESIAN_POINT('Ctrl Pts',(-0.558014056622838,5.10088310836201,0.219486882247652));
#1094=CARTESIAN_POINT('Ctrl Pts',(-0.889852235449851,6.15132466254301,0.186086620977));
#1095=CARTESIAN_POINT('',(0.105662301031188,3.,0.286287404788954));
#1096=CARTESIAN_POINT('Ctrl Pts',(0.210593484301187,3.,0.359080756771858));
#1097=CARTESIAN_POINT('Ctrl Pts',(-0.150368223666798,4.16666666666667,0.297720504514572));
#1098=CARTESIAN_POINT('Ctrl Pts',(-0.511329931634784,5.33333333333333,0.236360252257286));
#1099=CARTESIAN_POINT('Ctrl Pts',(-0.872291639602769,6.5,0.175));
#1100=CARTESIAN_POINT('Ctrl Pts',(0.0386752668874934,3.,0.239816845678173));
#1101=CARTESIAN_POINT('Ctrl Pts',(-0.33472574198673,4.16666666666667,0.218211230452115));
#1102=CARTESIAN_POINT('Ctrl Pts',(-0.708126750860956,5.33333333333333,0.196605615226058));
#1103=CARTESIAN_POINT('Ctrl Pts',(-1.08152775973518,6.5,0.175));
#1104=CARTESIAN_POINT('Ctrl Pts',(-0.1332429505262,3.,0.120552934584488));
#1105=CARTESIAN_POINT('Ctrl Pts',(-0.519083260306664,4.16666666666667,0.138701956389659));
#1106=CARTESIAN_POINT('Ctrl Pts',(-0.904923570087126,5.33333333333333,0.156850978194829));
#1107=CARTESIAN_POINT('Ctrl Pts',(-1.29076387986759,6.5,0.175));
#1108=CARTESIAN_POINT('Ctrl Pts',(-0.305161167939894,3.,0.00128902349080282));
#1109=CARTESIAN_POINT('Ctrl Pts',(-0.703440778626596,4.16666666666667,0.0591926823272019));
#1110=CARTESIAN_POINT('Ctrl Pts',(-1.1017203893133,5.33333333333333,0.117096341163601));
#1111=CARTESIAN_POINT('Ctrl Pts',(-1.5,6.5,0.175));
#1112=CARTESIAN_POINT('',(-0.305161167939894,3.,0.00128902349080286));
#1113=CARTESIAN_POINT('Ctrl Pts',(-0.305161167939894,3.,0.00128902349080286));
#1114=CARTESIAN_POINT('Ctrl Pts',(-0.703440778626596,4.16666666666667,0.0591926823272019));
#1115=CARTESIAN_POINT('Ctrl Pts',(-1.1017203893133,5.33333333333333,0.117096341163601));
#1116=CARTESIAN_POINT('Ctrl Pts',(-1.5,6.5,0.175));
#1117=CARTESIAN_POINT('Ctrl Pts',(-0.238661545636992,3.,-0.0945697859357829));
#1118=CARTESIAN_POINT('Ctrl Pts',(-0.659107697091328,4.16666666666667,-0.0436020795127442));
#1119=CARTESIAN_POINT('Ctrl Pts',(-1.07955384854566,5.33333333333333,0.00736562691029464));
#1120=CARTESIAN_POINT('Ctrl Pts',(-1.5,6.5,0.0583333333333334));
#1121=CARTESIAN_POINT('Ctrl Pts',(-0.17216192333409,3.,-0.190428595362369));
#1122=CARTESIAN_POINT('Ctrl Pts',(-0.61477461555606,4.16666666666667,-0.14639684135269));
#1123=CARTESIAN_POINT('Ctrl Pts',(-1.05738730777803,5.33333333333333,-0.102365087343012));
#1124=CARTESIAN_POINT('Ctrl Pts',(-1.5,6.5,-0.0583333333333333));
#1125=CARTESIAN_POINT('Ctrl Pts',(-0.105662301031188,3.,-0.286287404788954));
#1126=CARTESIAN_POINT('Ctrl Pts',(-0.570441534020792,4.16666666666667,-0.249191603192636));
#1127=CARTESIAN_POINT('Ctrl Pts',(-1.0352207670104,5.33333333333333,-0.212095801596318));
#1128=CARTESIAN_POINT('Ctrl Pts',(-1.5,6.5,-0.175));
#1129=CARTESIAN_POINT('Origin',(8.74191357972564E-17,0.,0.));
#1130=UNCERTAINTY_MEASURE_WITH_UNIT(LENGTH_MEASURE(0.000393700787401575),
#1136,'DISTANCE_ACCURACY_VALUE',
'Maximum model space distance between geometric entities at asserted c
onnectivities');
#1131=UNCERTAINTY_MEASURE_WITH_UNIT(LENGTH_MEASURE(0.000393700787401575),
#1136,'DISTANCE_ACCURACY_VALUE',
'Maximum model space distance between geometric entities at asserted c
onnectivities');
#1132=(
GEOMETRIC_REPRESENTATION_CONTEXT(3)
GLOBAL_UNCERTAINTY_ASSIGNED_CONTEXT((#1130))
GLOBAL_UNIT_ASSIGNED_CONTEXT((#1136,#1140,#1141))
REPRESENTATION_CONTEXT('','3D')
);
#1133=(
GEOMETRIC_REPRESENTATION_CONTEXT(3)
GLOBAL_UNCERTAINTY_ASSIGNED_CONTEXT((#1131))
GLOBAL_UNIT_ASSIGNED_CONTEXT((#1136,#1140,#1141))
REPRESENTATION_CONTEXT('','3D')
);
#1134=DIMENSIONAL_EXPONENTS(1.,0.,0.,0.,0.,0.,0.);
#1135=DIMENSIONAL_EXPONENTS(0.,1.,0.,0.,0.,0.,0.);
#1136=(
CONVERSION_BASED_UNIT('inch',#1139)
LENGTH_UNIT()
NAMED_UNIT(#1134)
);
#1137=(
LENGTH_UNIT()
NAMED_UNIT(*)
SI_UNIT(.MILLI.,.METRE.)
);
#1138=(
LENGTH_UNIT()
NAMED_UNIT(*)
SI_UNIT(.CENTI.,.METRE.)
);
#1139=LENGTH_MEASURE_WITH_UNIT(LENGTH_MEASURE(25.4),#1137);
#1140=(
NAMED_UNIT(*)
PLANE_ANGLE_UNIT()
SI_UNIT($,.RADIAN.)
);
#1141=(
NAMED_UNIT(*)
SI_UNIT($,.STERADIAN.)
SOLID_ANGLE_UNIT()
);
#1142=SHAPE_DEFINITION_REPRESENTATION(#1143,#1144);
#1143=PRODUCT_DEFINITION_SHAPE('',$,#1146);
#1144=SHAPE_REPRESENTATION('',(#517),#1132);
#1145=PRODUCT_DEFINITION_CONTEXT('part definition',#1150,'design');
#1146=PRODUCT_DEFINITION('wing','wing',#1147,#1145);
#1147=PRODUCT_DEFINITION_FORMATION('',$,#1152);
#1148=PRODUCT_RELATED_PRODUCT_CATEGORY('wing','wing',(#1152));
#1149=APPLICATION_PROTOCOL_DEFINITION('international standard',
'automotive_design',2009,#1150);
#1150=APPLICATION_CONTEXT(
'Core Data for Automotive Mechanical Design Process');
#1151=PRODUCT_CONTEXT('part definition',#1150,'mechanical');
#1152=PRODUCT('wing','wing',$,(#1151));
#1153=PRESENTATION_STYLE_ASSIGNMENT((#1154));
#1154=SURFACE_STYLE_USAGE(.BOTH.,#1157);
#1155=SURFACE_STYLE_RENDERING_WITH_PROPERTIES($,#1161,(#1156));
#1156=SURFACE_STYLE_TRANSPARENT(0.);
#1157=SURFACE_SIDE_STYLE('',(#1158,#1155));
#1158=SURFACE_STYLE_FILL_AREA(#1159);
#1159=FILL_AREA_STYLE('',(#1160));
#1160=FILL_AREA_STYLE_COLOUR('',#1161);
#1161=COLOUR_RGB('',0.0196078431372549,0.0196078431372549,0.0196078431372549);
ENDSEC;
END-ISO-10303-21;
