ISO-10303-21;
HEADER;
/* Generated by software containing ST-Developer
 * from STEP Tools, Inc. (www.steptools.com) 
 */

FILE_DESCRIPTION(
/* description */ (''),
/* implementation_level */ '2;1');

FILE_NAME(
/* name */ '3in flex wheel holder.stp',
/* time_stamp */ '2026-01-22T17:17:27+13:00',
/* author */ ('shaun'),
/* organization */ (''),
/* preprocessor_version */ 'ST-DEVELOPER v20',
/* originating_system */ 'Autodesk Inventor 2025',
/* authorisation */ '');

FILE_SCHEMA (('AUTOMOTIVE_DESIGN { 1 0 10303 214 3 1 1 }','TECHNICAL_DATA_PACKAGING'));
ENDSEC;

DATA;
#10=MECHANICAL_DESIGN_GEOMETRIC_PRESENTATION_REPRESENTATION('',(#13),#662);
#11=SHAPE_REPRESENTATION_RELATIONSHIP('SRR','None',#673,#12);
#12=ADVANCED_BREP_SHAPE_REPRESENTATION('',(#14),#661);
#13=STYLED_ITEM('',(#682),#14);
#14=MANIFOLD_SOLID_BREP('Solid1',#370);
#15=FACE_BOUND('',#66,.T.);
#16=FACE_BOUND('',#67,.T.);
#17=FACE_BOUND('',#68,.T.);
#18=FACE_BOUND('',#69,.T.);
#19=FACE_BOUND('',#71,.T.);
#20=FACE_BOUND('',#72,.T.);
#21=FACE_BOUND('',#73,.T.);
#22=FACE_BOUND('',#74,.T.);
#23=PLANE('',#395);
#24=PLANE('',#399);
#25=PLANE('',#403);
#26=PLANE('',#407);
#27=PLANE('',#435);
#28=PLANE('',#436);
#29=FACE_OUTER_BOUND('',#48,.T.);
#30=FACE_OUTER_BOUND('',#49,.T.);
#31=FACE_OUTER_BOUND('',#50,.T.);
#32=FACE_OUTER_BOUND('',#51,.T.);
#33=FACE_OUTER_BOUND('',#52,.T.);
#34=FACE_OUTER_BOUND('',#53,.T.);
#35=FACE_OUTER_BOUND('',#54,.T.);
#36=FACE_OUTER_BOUND('',#55,.T.);
#37=FACE_OUTER_BOUND('',#56,.T.);
#38=FACE_OUTER_BOUND('',#57,.T.);
#39=FACE_OUTER_BOUND('',#58,.T.);
#40=FACE_OUTER_BOUND('',#59,.T.);
#41=FACE_OUTER_BOUND('',#60,.T.);
#42=FACE_OUTER_BOUND('',#61,.T.);
#43=FACE_OUTER_BOUND('',#62,.T.);
#44=FACE_OUTER_BOUND('',#63,.T.);
#45=FACE_OUTER_BOUND('',#64,.T.);
#46=FACE_OUTER_BOUND('',#65,.T.);
#47=FACE_OUTER_BOUND('',#70,.T.);
#48=EDGE_LOOP('',(#236,#237,#238,#239));
#49=EDGE_LOOP('',(#240,#241,#242,#243));
#50=EDGE_LOOP('',(#244,#245,#246,#247));
#51=EDGE_LOOP('',(#248,#249,#250,#251));
#52=EDGE_LOOP('',(#252,#253,#254,#255));
#53=EDGE_LOOP('',(#256,#257,#258,#259));
#54=EDGE_LOOP('',(#260,#261,#262,#263));
#55=EDGE_LOOP('',(#264,#265,#266,#267));
#56=EDGE_LOOP('',(#268,#269,#270,#271));
#57=EDGE_LOOP('',(#272,#273,#274,#275));
#58=EDGE_LOOP('',(#276,#277,#278,#279));
#59=EDGE_LOOP('',(#280,#281,#282,#283));
#60=EDGE_LOOP('',(#284,#285,#286,#287));
#61=EDGE_LOOP('',(#288,#289,#290,#291));
#62=EDGE_LOOP('',(#292,#293,#294,#295));
#63=EDGE_LOOP('',(#296,#297,#298,#299));
#64=EDGE_LOOP('',(#300,#301,#302,#303));
#65=EDGE_LOOP('',(#304,#305,#306,#307,#308,#309));
#66=EDGE_LOOP('',(#310));
#67=EDGE_LOOP('',(#311));
#68=EDGE_LOOP('',(#312,#313,#314,#315,#316,#317,#318,#319));
#69=EDGE_LOOP('',(#320));
#70=EDGE_LOOP('',(#321,#322,#323,#324,#325,#326));
#71=EDGE_LOOP('',(#327));
#72=EDGE_LOOP('',(#328));
#73=EDGE_LOOP('',(#329,#330,#331,#332,#333,#334,#335,#336));
#74=EDGE_LOOP('',(#337));
#75=LINE('',#559,#100);
#76=LINE('',#564,#101);
#77=LINE('',#566,#102);
#78=LINE('',#568,#103);
#79=LINE('',#569,#104);
#80=LINE('',#575,#105);
#81=LINE('',#578,#106);
#82=LINE('',#580,#107);
#83=LINE('',#581,#108);
#84=LINE('',#587,#109);
#85=LINE('',#590,#110);
#86=LINE('',#592,#111);
#87=LINE('',#593,#112);
#88=LINE('',#599,#113);
#89=LINE('',#602,#114);
#90=LINE('',#604,#115);
#91=LINE('',#605,#116);
#92=LINE('',#613,#117);
#93=LINE('',#619,#118);
#94=LINE('',#626,#119);
#95=LINE('',#629,#120);
#96=LINE('',#635,#121);
#97=LINE('',#641,#122);
#98=LINE('',#647,#123);
#99=LINE('',#653,#124);
#100=VECTOR('',#443,0.0885);
#101=VECTOR('',#448,0.393700787401575);
#102=VECTOR('',#449,0.393700787401575);
#103=VECTOR('',#450,0.393700787401575);
#104=VECTOR('',#451,0.393700787401575);
#105=VECTOR('',#458,0.393700787401575);
#106=VECTOR('',#461,0.393700787401575);
#107=VECTOR('',#462,0.393700787401575);
#108=VECTOR('',#463,0.393700787401575);
#109=VECTOR('',#470,0.393700787401575);
#110=VECTOR('',#473,0.393700787401575);
#111=VECTOR('',#474,0.393700787401575);
#112=VECTOR('',#475,0.393700787401575);
#113=VECTOR('',#482,0.393700787401575);
#114=VECTOR('',#485,0.393700787401575);
#115=VECTOR('',#486,0.393700787401575);
#116=VECTOR('',#487,0.393700787401575);
#117=VECTOR('',#498,0.0885);
#118=VECTOR('',#505,0.0885);
#119=VECTOR('',#512,0.393700787401575);
#120=VECTOR('',#515,0.393700787401575);
#121=VECTOR('',#522,0.393700787401575);
#122=VECTOR('',#529,0.393700787401575);
#123=VECTOR('',#536,0.393700787401575);
#124=VECTOR('',#543,0.393700787401575);
#125=CIRCLE('',#393,0.0885);
#126=CIRCLE('',#394,0.0885);
#127=CIRCLE('',#397,0.02);
#128=CIRCLE('',#398,0.02);
#129=CIRCLE('',#401,0.02);
#130=CIRCLE('',#402,0.02);
#131=CIRCLE('',#405,0.02);
#132=CIRCLE('',#406,0.02);
#133=CIRCLE('',#409,0.02);
#134=CIRCLE('',#410,0.02);
#135=CIRCLE('',#412,0.0885);
#136=CIRCLE('',#413,0.0885);
#137=CIRCLE('',#415,0.0885);
#138=CIRCLE('',#416,0.0885);
#139=CIRCLE('',#418,0.1875);
#140=CIRCLE('',#419,0.1875);
#141=CIRCLE('',#421,1.42857142857144);
#142=CIRCLE('',#422,1.42857142857144);
#143=CIRCLE('',#424,0.1875);
#144=CIRCLE('',#425,0.1875);
#145=CIRCLE('',#427,1.42857142857144);
#146=CIRCLE('',#428,1.42857142857144);
#147=CIRCLE('',#430,0.1875);
#148=CIRCLE('',#431,0.1875);
#149=CIRCLE('',#433,1.42857142857144);
#150=CIRCLE('',#434,1.42857142857144);
#151=VERTEX_POINT('',#556);
#152=VERTEX_POINT('',#558);
#153=VERTEX_POINT('',#562);
#154=VERTEX_POINT('',#563);
#155=VERTEX_POINT('',#565);
#156=VERTEX_POINT('',#567);
#157=VERTEX_POINT('',#571);
#158=VERTEX_POINT('',#573);
#159=VERTEX_POINT('',#577);
#160=VERTEX_POINT('',#579);
#161=VERTEX_POINT('',#583);
#162=VERTEX_POINT('',#585);
#163=VERTEX_POINT('',#589);
#164=VERTEX_POINT('',#591);
#165=VERTEX_POINT('',#595);
#166=VERTEX_POINT('',#597);
#167=VERTEX_POINT('',#601);
#168=VERTEX_POINT('',#603);
#169=VERTEX_POINT('',#610);
#170=VERTEX_POINT('',#612);
#171=VERTEX_POINT('',#616);
#172=VERTEX_POINT('',#618);
#173=VERTEX_POINT('',#622);
#174=VERTEX_POINT('',#623);
#175=VERTEX_POINT('',#625);
#176=VERTEX_POINT('',#627);
#177=VERTEX_POINT('',#631);
#178=VERTEX_POINT('',#633);
#179=VERTEX_POINT('',#637);
#180=VERTEX_POINT('',#639);
#181=VERTEX_POINT('',#643);
#182=VERTEX_POINT('',#645);
#183=VERTEX_POINT('',#649);
#184=VERTEX_POINT('',#651);
#185=EDGE_CURVE('',#151,#151,#125,.T.);
#186=EDGE_CURVE('',#151,#152,#75,.T.);
#187=EDGE_CURVE('',#152,#152,#126,.T.);
#188=EDGE_CURVE('',#153,#154,#76,.T.);
#189=EDGE_CURVE('',#154,#155,#77,.T.);
#190=EDGE_CURVE('',#156,#155,#78,.T.);
#191=EDGE_CURVE('',#153,#156,#79,.T.);
#192=EDGE_CURVE('',#157,#153,#127,.T.);
#193=EDGE_CURVE('',#158,#156,#128,.T.);
#194=EDGE_CURVE('',#157,#158,#80,.T.);
#195=EDGE_CURVE('',#159,#157,#81,.T.);
#196=EDGE_CURVE('',#160,#158,#82,.T.);
#197=EDGE_CURVE('',#159,#160,#83,.T.);
#198=EDGE_CURVE('',#161,#159,#129,.T.);
#199=EDGE_CURVE('',#162,#160,#130,.T.);
#200=EDGE_CURVE('',#161,#162,#84,.T.);
#201=EDGE_CURVE('',#163,#161,#85,.T.);
#202=EDGE_CURVE('',#164,#162,#86,.T.);
#203=EDGE_CURVE('',#163,#164,#87,.T.);
#204=EDGE_CURVE('',#165,#163,#131,.T.);
#205=EDGE_CURVE('',#166,#164,#132,.T.);
#206=EDGE_CURVE('',#165,#166,#88,.T.);
#207=EDGE_CURVE('',#167,#165,#89,.T.);
#208=EDGE_CURVE('',#168,#166,#90,.T.);
#209=EDGE_CURVE('',#167,#168,#91,.T.);
#210=EDGE_CURVE('',#154,#167,#133,.T.);
#211=EDGE_CURVE('',#155,#168,#134,.T.);
#212=EDGE_CURVE('',#169,#169,#135,.T.);
#213=EDGE_CURVE('',#169,#170,#92,.T.);
#214=EDGE_CURVE('',#170,#170,#136,.T.);
#215=EDGE_CURVE('',#171,#171,#137,.T.);
#216=EDGE_CURVE('',#171,#172,#93,.T.);
#217=EDGE_CURVE('',#172,#172,#138,.T.);
#218=EDGE_CURVE('',#173,#174,#139,.T.);
#219=EDGE_CURVE('',#174,#175,#94,.T.);
#220=EDGE_CURVE('',#176,#175,#140,.T.);
#221=EDGE_CURVE('',#173,#176,#95,.T.);
#222=EDGE_CURVE('',#177,#173,#141,.T.);
#223=EDGE_CURVE('',#178,#176,#142,.T.);
#224=EDGE_CURVE('',#177,#178,#96,.T.);
#225=EDGE_CURVE('',#179,#177,#143,.T.);
#226=EDGE_CURVE('',#180,#178,#144,.T.);
#227=EDGE_CURVE('',#179,#180,#97,.T.);
#228=EDGE_CURVE('',#181,#179,#145,.T.);
#229=EDGE_CURVE('',#182,#180,#146,.T.);
#230=EDGE_CURVE('',#181,#182,#98,.T.);
#231=EDGE_CURVE('',#183,#181,#147,.T.);
#232=EDGE_CURVE('',#184,#182,#148,.T.);
#233=EDGE_CURVE('',#183,#184,#99,.T.);
#234=EDGE_CURVE('',#174,#183,#149,.T.);
#235=EDGE_CURVE('',#175,#184,#150,.T.);
#236=ORIENTED_EDGE('',*,*,#185,.F.);
#237=ORIENTED_EDGE('',*,*,#186,.T.);
#238=ORIENTED_EDGE('',*,*,#187,.T.);
#239=ORIENTED_EDGE('',*,*,#186,.F.);
#240=ORIENTED_EDGE('',*,*,#188,.T.);
#241=ORIENTED_EDGE('',*,*,#189,.T.);
#242=ORIENTED_EDGE('',*,*,#190,.F.);
#243=ORIENTED_EDGE('',*,*,#191,.F.);
#244=ORIENTED_EDGE('',*,*,#192,.T.);
#245=ORIENTED_EDGE('',*,*,#191,.T.);
#246=ORIENTED_EDGE('',*,*,#193,.F.);
#247=ORIENTED_EDGE('',*,*,#194,.F.);
#248=ORIENTED_EDGE('',*,*,#195,.T.);
#249=ORIENTED_EDGE('',*,*,#194,.T.);
#250=ORIENTED_EDGE('',*,*,#196,.F.);
#251=ORIENTED_EDGE('',*,*,#197,.F.);
#252=ORIENTED_EDGE('',*,*,#198,.T.);
#253=ORIENTED_EDGE('',*,*,#197,.T.);
#254=ORIENTED_EDGE('',*,*,#199,.F.);
#255=ORIENTED_EDGE('',*,*,#200,.F.);
#256=ORIENTED_EDGE('',*,*,#201,.T.);
#257=ORIENTED_EDGE('',*,*,#200,.T.);
#258=ORIENTED_EDGE('',*,*,#202,.F.);
#259=ORIENTED_EDGE('',*,*,#203,.F.);
#260=ORIENTED_EDGE('',*,*,#204,.T.);
#261=ORIENTED_EDGE('',*,*,#203,.T.);
#262=ORIENTED_EDGE('',*,*,#205,.F.);
#263=ORIENTED_EDGE('',*,*,#206,.F.);
#264=ORIENTED_EDGE('',*,*,#207,.T.);
#265=ORIENTED_EDGE('',*,*,#206,.T.);
#266=ORIENTED_EDGE('',*,*,#208,.F.);
#267=ORIENTED_EDGE('',*,*,#209,.F.);
#268=ORIENTED_EDGE('',*,*,#210,.T.);
#269=ORIENTED_EDGE('',*,*,#209,.T.);
#270=ORIENTED_EDGE('',*,*,#211,.F.);
#271=ORIENTED_EDGE('',*,*,#189,.F.);
#272=ORIENTED_EDGE('',*,*,#212,.F.);
#273=ORIENTED_EDGE('',*,*,#213,.T.);
#274=ORIENTED_EDGE('',*,*,#214,.T.);
#275=ORIENTED_EDGE('',*,*,#213,.F.);
#276=ORIENTED_EDGE('',*,*,#215,.F.);
#277=ORIENTED_EDGE('',*,*,#216,.T.);
#278=ORIENTED_EDGE('',*,*,#217,.T.);
#279=ORIENTED_EDGE('',*,*,#216,.F.);
#280=ORIENTED_EDGE('',*,*,#218,.T.);
#281=ORIENTED_EDGE('',*,*,#219,.T.);
#282=ORIENTED_EDGE('',*,*,#220,.F.);
#283=ORIENTED_EDGE('',*,*,#221,.F.);
#284=ORIENTED_EDGE('',*,*,#222,.T.);
#285=ORIENTED_EDGE('',*,*,#221,.T.);
#286=ORIENTED_EDGE('',*,*,#223,.F.);
#287=ORIENTED_EDGE('',*,*,#224,.F.);
#288=ORIENTED_EDGE('',*,*,#225,.T.);
#289=ORIENTED_EDGE('',*,*,#224,.T.);
#290=ORIENTED_EDGE('',*,*,#226,.F.);
#291=ORIENTED_EDGE('',*,*,#227,.F.);
#292=ORIENTED_EDGE('',*,*,#228,.T.);
#293=ORIENTED_EDGE('',*,*,#227,.T.);
#294=ORIENTED_EDGE('',*,*,#229,.F.);
#295=ORIENTED_EDGE('',*,*,#230,.F.);
#296=ORIENTED_EDGE('',*,*,#231,.T.);
#297=ORIENTED_EDGE('',*,*,#230,.T.);
#298=ORIENTED_EDGE('',*,*,#232,.F.);
#299=ORIENTED_EDGE('',*,*,#233,.F.);
#300=ORIENTED_EDGE('',*,*,#234,.T.);
#301=ORIENTED_EDGE('',*,*,#233,.T.);
#302=ORIENTED_EDGE('',*,*,#235,.F.);
#303=ORIENTED_EDGE('',*,*,#219,.F.);
#304=ORIENTED_EDGE('',*,*,#235,.T.);
#305=ORIENTED_EDGE('',*,*,#232,.T.);
#306=ORIENTED_EDGE('',*,*,#229,.T.);
#307=ORIENTED_EDGE('',*,*,#226,.T.);
#308=ORIENTED_EDGE('',*,*,#223,.T.);
#309=ORIENTED_EDGE('',*,*,#220,.T.);
#310=ORIENTED_EDGE('',*,*,#215,.T.);
#311=ORIENTED_EDGE('',*,*,#212,.T.);
#312=ORIENTED_EDGE('',*,*,#211,.T.);
#313=ORIENTED_EDGE('',*,*,#208,.T.);
#314=ORIENTED_EDGE('',*,*,#205,.T.);
#315=ORIENTED_EDGE('',*,*,#202,.T.);
#316=ORIENTED_EDGE('',*,*,#199,.T.);
#317=ORIENTED_EDGE('',*,*,#196,.T.);
#318=ORIENTED_EDGE('',*,*,#193,.T.);
#319=ORIENTED_EDGE('',*,*,#190,.T.);
#320=ORIENTED_EDGE('',*,*,#185,.T.);
#321=ORIENTED_EDGE('',*,*,#234,.F.);
#322=ORIENTED_EDGE('',*,*,#218,.F.);
#323=ORIENTED_EDGE('',*,*,#222,.F.);
#324=ORIENTED_EDGE('',*,*,#225,.F.);
#325=ORIENTED_EDGE('',*,*,#228,.F.);
#326=ORIENTED_EDGE('',*,*,#231,.F.);
#327=ORIENTED_EDGE('',*,*,#217,.F.);
#328=ORIENTED_EDGE('',*,*,#214,.F.);
#329=ORIENTED_EDGE('',*,*,#210,.F.);
#330=ORIENTED_EDGE('',*,*,#188,.F.);
#331=ORIENTED_EDGE('',*,*,#192,.F.);
#332=ORIENTED_EDGE('',*,*,#195,.F.);
#333=ORIENTED_EDGE('',*,*,#198,.F.);
#334=ORIENTED_EDGE('',*,*,#201,.F.);
#335=ORIENTED_EDGE('',*,*,#204,.F.);
#336=ORIENTED_EDGE('',*,*,#207,.F.);
#337=ORIENTED_EDGE('',*,*,#187,.F.);
#338=CYLINDRICAL_SURFACE('',#392,0.0885);
#339=CYLINDRICAL_SURFACE('',#396,0.02);
#340=CYLINDRICAL_SURFACE('',#400,0.02);
#341=CYLINDRICAL_SURFACE('',#404,0.02);
#342=CYLINDRICAL_SURFACE('',#408,0.02);
#343=CYLINDRICAL_SURFACE('',#411,0.0885);
#344=CYLINDRICAL_SURFACE('',#414,0.0885);
#345=CYLINDRICAL_SURFACE('',#417,0.1875);
#346=CYLINDRICAL_SURFACE('',#420,1.42857142857144);
#347=CYLINDRICAL_SURFACE('',#423,0.1875);
#348=CYLINDRICAL_SURFACE('',#426,1.42857142857144);
#349=CYLINDRICAL_SURFACE('',#429,0.1875);
#350=CYLINDRICAL_SURFACE('',#432,1.42857142857144);
#351=ADVANCED_FACE('',(#29),#338,.F.);
#352=ADVANCED_FACE('',(#30),#23,.T.);
#353=ADVANCED_FACE('',(#31),#339,.F.);
#354=ADVANCED_FACE('',(#32),#24,.T.);
#355=ADVANCED_FACE('',(#33),#340,.F.);
#356=ADVANCED_FACE('',(#34),#25,.T.);
#357=ADVANCED_FACE('',(#35),#341,.F.);
#358=ADVANCED_FACE('',(#36),#26,.T.);
#359=ADVANCED_FACE('',(#37),#342,.F.);
#360=ADVANCED_FACE('',(#38),#343,.F.);
#361=ADVANCED_FACE('',(#39),#344,.F.);
#362=ADVANCED_FACE('',(#40),#345,.T.);
#363=ADVANCED_FACE('',(#41),#346,.F.);
#364=ADVANCED_FACE('',(#42),#347,.T.);
#365=ADVANCED_FACE('',(#43),#348,.F.);
#366=ADVANCED_FACE('',(#44),#349,.T.);
#367=ADVANCED_FACE('',(#45),#350,.F.);
#368=ADVANCED_FACE('',(#46,#15,#16,#17,#18),#27,.T.);
#369=ADVANCED_FACE('',(#47,#19,#20,#21,#22),#28,.F.);
#370=CLOSED_SHELL('',(#351,#352,#353,#354,#355,#356,#357,#358,#359,#360,
#361,#362,#363,#364,#365,#366,#367,#368,#369));
#371=DERIVED_UNIT_ELEMENT(#373,1.);
#372=DERIVED_UNIT_ELEMENT(#667,-3.);
#373=(
CONVERSION_BASED_UNIT('gram',#375)
MASS_UNIT()
NAMED_UNIT(#664)
);
#374=(
MASS_UNIT()
NAMED_UNIT(*)
SI_UNIT(.KILO.,.GRAM.)
);
#375=MASS_MEASURE_WITH_UNIT(MASS_MEASURE(0.001),#374);
#376=DERIVED_UNIT((#371,#372));
#377=MEASURE_REPRESENTATION_ITEM('density measure',
POSITIVE_RATIO_MEASURE(1.),#376);
#378=PROPERTY_DEFINITION_REPRESENTATION(#383,#380);
#379=PROPERTY_DEFINITION_REPRESENTATION(#384,#381);
#380=REPRESENTATION('material name',(#382),#661);
#381=REPRESENTATION('density',(#377),#661);
#382=DESCRIPTIVE_REPRESENTATION_ITEM('Generic','Generic');
#383=PROPERTY_DEFINITION('material property','material name',#675);
#384=PROPERTY_DEFINITION('material property','density of part',#675);
#385=DATE_TIME_ROLE('creation_date');
#386=APPLIED_DATE_AND_TIME_ASSIGNMENT(#387,#385,(#675));
#387=DATE_AND_TIME(#388,#389);
#388=CALENDAR_DATE(2026,22,1);
#389=LOCAL_TIME(0,0,0.,#390);
#390=COORDINATED_UNIVERSAL_TIME_OFFSET(0,0,.BEHIND.);
#391=AXIS2_PLACEMENT_3D('',#554,#437,#438);
#392=AXIS2_PLACEMENT_3D('',#555,#439,#440);
#393=AXIS2_PLACEMENT_3D('',#557,#441,#442);
#394=AXIS2_PLACEMENT_3D('',#560,#444,#445);
#395=AXIS2_PLACEMENT_3D('',#561,#446,#447);
#396=AXIS2_PLACEMENT_3D('',#570,#452,#453);
#397=AXIS2_PLACEMENT_3D('',#572,#454,#455);
#398=AXIS2_PLACEMENT_3D('',#574,#456,#457);
#399=AXIS2_PLACEMENT_3D('',#576,#459,#460);
#400=AXIS2_PLACEMENT_3D('',#582,#464,#465);
#401=AXIS2_PLACEMENT_3D('',#584,#466,#467);
#402=AXIS2_PLACEMENT_3D('',#586,#468,#469);
#403=AXIS2_PLACEMENT_3D('',#588,#471,#472);
#404=AXIS2_PLACEMENT_3D('',#594,#476,#477);
#405=AXIS2_PLACEMENT_3D('',#596,#478,#479);
#406=AXIS2_PLACEMENT_3D('',#598,#480,#481);
#407=AXIS2_PLACEMENT_3D('',#600,#483,#484);
#408=AXIS2_PLACEMENT_3D('',#606,#488,#489);
#409=AXIS2_PLACEMENT_3D('',#607,#490,#491);
#410=AXIS2_PLACEMENT_3D('',#608,#492,#493);
#411=AXIS2_PLACEMENT_3D('',#609,#494,#495);
#412=AXIS2_PLACEMENT_3D('',#611,#496,#497);
#413=AXIS2_PLACEMENT_3D('',#614,#499,#500);
#414=AXIS2_PLACEMENT_3D('',#615,#501,#502);
#415=AXIS2_PLACEMENT_3D('',#617,#503,#504);
#416=AXIS2_PLACEMENT_3D('',#620,#506,#507);
#417=AXIS2_PLACEMENT_3D('',#621,#508,#509);
#418=AXIS2_PLACEMENT_3D('',#624,#510,#511);
#419=AXIS2_PLACEMENT_3D('',#628,#513,#514);
#420=AXIS2_PLACEMENT_3D('',#630,#516,#517);
#421=AXIS2_PLACEMENT_3D('',#632,#518,#519);
#422=AXIS2_PLACEMENT_3D('',#634,#520,#521);
#423=AXIS2_PLACEMENT_3D('',#636,#523,#524);
#424=AXIS2_PLACEMENT_3D('',#638,#525,#526);
#425=AXIS2_PLACEMENT_3D('',#640,#527,#528);
#426=AXIS2_PLACEMENT_3D('',#642,#530,#531);
#427=AXIS2_PLACEMENT_3D('',#644,#532,#533);
#428=AXIS2_PLACEMENT_3D('',#646,#534,#535);
#429=AXIS2_PLACEMENT_3D('',#648,#537,#538);
#430=AXIS2_PLACEMENT_3D('',#650,#539,#540);
#431=AXIS2_PLACEMENT_3D('',#652,#541,#542);
#432=AXIS2_PLACEMENT_3D('',#654,#544,#545);
#433=AXIS2_PLACEMENT_3D('',#655,#546,#547);
#434=AXIS2_PLACEMENT_3D('',#656,#548,#549);
#435=AXIS2_PLACEMENT_3D('',#657,#550,#551);
#436=AXIS2_PLACEMENT_3D('',#658,#552,#553);
#437=DIRECTION('axis',(0.,0.,1.));
#438=DIRECTION('refdir',(1.,0.,0.));
#439=DIRECTION('center_axis',(0.,0.,1.));
#440=DIRECTION('ref_axis',(-1.,0.,0.));
#441=DIRECTION('center_axis',(0.,0.,-1.));
#442=DIRECTION('ref_axis',(-1.,0.,0.));
#443=DIRECTION('',(0.,0.,-1.));
#444=DIRECTION('center_axis',(0.,0.,-1.));
#445=DIRECTION('ref_axis',(-1.,0.,0.));
#446=DIRECTION('center_axis',(1.02125158641655E-16,-1.,0.));
#447=DIRECTION('ref_axis',(1.,1.02125158641655E-16,0.));
#448=DIRECTION('',(1.,1.02125158641655E-16,0.));
#449=DIRECTION('',(0.,0.,1.));
#450=DIRECTION('',(1.,1.02125158641655E-16,0.));
#451=DIRECTION('',(0.,0.,1.));
#452=DIRECTION('center_axis',(0.,0.,1.));
#453=DIRECTION('ref_axis',(-1.09273919746571E-15,-1.,0.));
#454=DIRECTION('center_axis',(0.,0.,-1.));
#455=DIRECTION('ref_axis',(-1.09273919746571E-15,-1.,0.));
#456=DIRECTION('center_axis',(0.,0.,-1.));
#457=DIRECTION('ref_axis',(-1.09273919746571E-15,-1.,0.));
#458=DIRECTION('',(0.,0.,1.));
#459=DIRECTION('center_axis',(1.,1.02125158641655E-16,0.));
#460=DIRECTION('ref_axis',(-1.02125158641655E-16,1.,0.));
#461=DIRECTION('',(-1.02125158641655E-16,1.,0.));
#462=DIRECTION('',(-1.02125158641655E-16,1.,0.));
#463=DIRECTION('',(0.,0.,1.));
#464=DIRECTION('center_axis',(0.,0.,1.));
#465=DIRECTION('ref_axis',(1.,0.,0.));
#466=DIRECTION('center_axis',(0.,0.,-1.));
#467=DIRECTION('ref_axis',(1.,0.,0.));
#468=DIRECTION('center_axis',(0.,0.,-1.));
#469=DIRECTION('ref_axis',(1.,0.,0.));
#470=DIRECTION('',(0.,0.,1.));
#471=DIRECTION('center_axis',(-2.04250317283309E-16,1.,0.));
#472=DIRECTION('ref_axis',(-1.,-2.04250317283309E-16,0.));
#473=DIRECTION('',(-1.,-2.04250317283309E-16,0.));
#474=DIRECTION('',(-1.,-2.04250317283309E-16,0.));
#475=DIRECTION('',(0.,0.,1.));
#476=DIRECTION('center_axis',(0.,0.,1.));
#477=DIRECTION('ref_axis',(0.,1.,0.));
#478=DIRECTION('center_axis',(0.,0.,-1.));
#479=DIRECTION('ref_axis',(0.,1.,0.));
#480=DIRECTION('center_axis',(0.,0.,-1.));
#481=DIRECTION('ref_axis',(0.,1.,0.));
#482=DIRECTION('',(0.,0.,1.));
#483=DIRECTION('center_axis',(-1.,-2.04250317283309E-16,0.));
#484=DIRECTION('ref_axis',(2.04250317283309E-16,-1.,0.));
#485=DIRECTION('',(2.04250317283309E-16,-1.,0.));
#486=DIRECTION('',(2.04250317283309E-16,-1.,0.));
#487=DIRECTION('',(0.,0.,1.));
#488=DIRECTION('center_axis',(0.,0.,1.));
#489=DIRECTION('ref_axis',(-1.,0.,0.));
#490=DIRECTION('center_axis',(0.,0.,-1.));
#491=DIRECTION('ref_axis',(-1.,0.,0.));
#492=DIRECTION('center_axis',(0.,0.,-1.));
#493=DIRECTION('ref_axis',(-1.,0.,0.));
#494=DIRECTION('center_axis',(0.,0.,1.));
#495=DIRECTION('ref_axis',(-1.,0.,0.));
#496=DIRECTION('center_axis',(0.,0.,-1.));
#497=DIRECTION('ref_axis',(-1.,0.,0.));
#498=DIRECTION('',(0.,0.,-1.));
#499=DIRECTION('center_axis',(0.,0.,-1.));
#500=DIRECTION('ref_axis',(-1.,0.,0.));
#501=DIRECTION('center_axis',(0.,0.,1.));
#502=DIRECTION('ref_axis',(-1.,0.,0.));
#503=DIRECTION('center_axis',(0.,0.,-1.));
#504=DIRECTION('ref_axis',(-1.,0.,0.));
#505=DIRECTION('',(0.,0.,-1.));
#506=DIRECTION('center_axis',(0.,0.,-1.));
#507=DIRECTION('ref_axis',(-1.,0.,0.));
#508=DIRECTION('center_axis',(0.,0.,1.));
#509=DIRECTION('ref_axis',(3.3690166589284E-15,-1.,0.));
#510=DIRECTION('center_axis',(0.,0.,1.));
#511=DIRECTION('ref_axis',(1.,0.,0.));
#512=DIRECTION('',(0.,0.,1.));
#513=DIRECTION('center_axis',(0.,0.,1.));
#514=DIRECTION('ref_axis',(1.,0.,0.));
#515=DIRECTION('',(0.,0.,1.));
#516=DIRECTION('center_axis',(0.,0.,1.));
#517=DIRECTION('ref_axis',(-0.999996184480374,0.00276243093921977,0.));
#518=DIRECTION('center_axis',(0.,0.,-1.));
#519=DIRECTION('ref_axis',(-0.999996184480374,0.00276243093921977,0.));
#520=DIRECTION('center_axis',(0.,0.,-1.));
#521=DIRECTION('ref_axis',(-0.999996184480374,0.00276243093921977,0.));
#522=DIRECTION('',(0.,0.,1.));
#523=DIRECTION('center_axis',(0.,0.,1.));
#524=DIRECTION('ref_axis',(-0.86602540378444,0.499999999999997,0.));
#525=DIRECTION('center_axis',(0.,0.,1.));
#526=DIRECTION('ref_axis',(1.,0.,0.));
#527=DIRECTION('center_axis',(0.,0.,1.));
#528=DIRECTION('ref_axis',(1.,0.,0.));
#529=DIRECTION('',(0.,0.,1.));
#530=DIRECTION('center_axis',(0.,0.,1.));
#531=DIRECTION('ref_axis',(0.502390427609752,0.864640883977904,0.));
#532=DIRECTION('center_axis',(0.,0.,-1.));
#533=DIRECTION('ref_axis',(0.502390427609752,0.864640883977904,0.));
#534=DIRECTION('center_axis',(0.,0.,-1.));
#535=DIRECTION('ref_axis',(0.502390427609752,0.864640883977904,0.));
#536=DIRECTION('',(0.,0.,1.));
#537=DIRECTION('center_axis',(0.,0.,1.));
#538=DIRECTION('ref_axis',(1.,0.,0.));
#539=DIRECTION('center_axis',(0.,0.,1.));
#540=DIRECTION('ref_axis',(1.,0.,0.));
#541=DIRECTION('center_axis',(0.,0.,1.));
#542=DIRECTION('ref_axis',(1.,0.,0.));
#543=DIRECTION('',(0.,0.,1.));
#544=DIRECTION('center_axis',(0.,0.,1.));
#545=DIRECTION('ref_axis',(0.497605756870623,-0.867403314917124,0.));
#546=DIRECTION('center_axis',(0.,0.,-1.));
#547=DIRECTION('ref_axis',(0.497605756870623,-0.867403314917124,0.));
#548=DIRECTION('center_axis',(0.,0.,-1.));
#549=DIRECTION('ref_axis',(0.497605756870623,-0.867403314917124,0.));
#550=DIRECTION('center_axis',(0.,0.,1.));
#551=DIRECTION('ref_axis',(1.,0.,0.));
#552=DIRECTION('center_axis',(0.,0.,1.));
#553=DIRECTION('ref_axis',(1.,0.,0.));
#554=CARTESIAN_POINT('',(0.,0.,0.));
#555=CARTESIAN_POINT('Origin',(0.,-0.9375,0.));
#556=CARTESIAN_POINT('',(0.0885,-0.9375,0.0590551181102362));
#557=CARTESIAN_POINT('Origin',(0.,-0.9375,0.0590551181102362));
#558=CARTESIAN_POINT('',(0.0885,-0.9375,0.));
#559=CARTESIAN_POINT('',(0.0885,-0.9375,0.));
#560=CARTESIAN_POINT('Origin',(0.,-0.9375,0.));
#561=CARTESIAN_POINT('Origin',(-0.107,0.127,0.));
#562=CARTESIAN_POINT('',(-0.107,0.127,0.));
#563=CARTESIAN_POINT('',(0.107,0.127,0.));
#564=CARTESIAN_POINT('',(-0.107,0.127,0.));
#565=CARTESIAN_POINT('',(0.107,0.127,0.0590551181102362));
#566=CARTESIAN_POINT('',(0.107,0.127,0.));
#567=CARTESIAN_POINT('',(-0.107,0.127,0.0590551181102362));
#568=CARTESIAN_POINT('',(-0.107,0.127,0.0590551181102362));
#569=CARTESIAN_POINT('',(-0.107,0.127,0.));
#570=CARTESIAN_POINT('Origin',(-0.107,0.107,0.));
#571=CARTESIAN_POINT('',(-0.127,0.107,0.));
#572=CARTESIAN_POINT('Origin',(-0.107,0.107,0.));
#573=CARTESIAN_POINT('',(-0.127,0.107,0.0590551181102362));
#574=CARTESIAN_POINT('Origin',(-0.107,0.107,0.0590551181102362));
#575=CARTESIAN_POINT('',(-0.127,0.107,0.));
#576=CARTESIAN_POINT('Origin',(-0.127,-0.107,0.));
#577=CARTESIAN_POINT('',(-0.127,-0.107,0.));
#578=CARTESIAN_POINT('',(-0.127,-0.107,0.));
#579=CARTESIAN_POINT('',(-0.127,-0.107,0.0590551181102362));
#580=CARTESIAN_POINT('',(-0.127,-0.107,0.0590551181102362));
#581=CARTESIAN_POINT('',(-0.127,-0.107,0.));
#582=CARTESIAN_POINT('Origin',(-0.107,-0.107,0.));
#583=CARTESIAN_POINT('',(-0.107,-0.127,0.));
#584=CARTESIAN_POINT('Origin',(-0.107,-0.107,0.));
#585=CARTESIAN_POINT('',(-0.107,-0.127,0.0590551181102362));
#586=CARTESIAN_POINT('Origin',(-0.107,-0.107,0.0590551181102362));
#587=CARTESIAN_POINT('',(-0.107,-0.127,0.));
#588=CARTESIAN_POINT('Origin',(0.107,-0.127,0.));
#589=CARTESIAN_POINT('',(0.107,-0.127,0.));
#590=CARTESIAN_POINT('',(0.107,-0.127,0.));
#591=CARTESIAN_POINT('',(0.107,-0.127,0.0590551181102362));
#592=CARTESIAN_POINT('',(0.107,-0.127,0.0590551181102362));
#593=CARTESIAN_POINT('',(0.107,-0.127,0.));
#594=CARTESIAN_POINT('Origin',(0.107,-0.107,0.));
#595=CARTESIAN_POINT('',(0.127,-0.107,0.));
#596=CARTESIAN_POINT('Origin',(0.107,-0.107,0.));
#597=CARTESIAN_POINT('',(0.127,-0.107,0.0590551181102362));
#598=CARTESIAN_POINT('Origin',(0.107,-0.107,0.0590551181102362));
#599=CARTESIAN_POINT('',(0.127,-0.107,0.));
#600=CARTESIAN_POINT('Origin',(0.127,0.107,0.));
#601=CARTESIAN_POINT('',(0.127,0.107,0.));
#602=CARTESIAN_POINT('',(0.127,0.107,0.));
#603=CARTESIAN_POINT('',(0.127,0.107,0.0590551181102362));
#604=CARTESIAN_POINT('',(0.127,0.107,0.0590551181102362));
#605=CARTESIAN_POINT('',(0.127,0.107,0.));
#606=CARTESIAN_POINT('Origin',(0.107,0.107,0.));
#607=CARTESIAN_POINT('Origin',(0.107,0.107,0.));
#608=CARTESIAN_POINT('Origin',(0.107,0.107,0.0590551181102362));
#609=CARTESIAN_POINT('Origin',(-0.811898816047911,0.46875,0.));
#610=CARTESIAN_POINT('',(-0.723398816047911,0.46875,0.0590551181102362));
#611=CARTESIAN_POINT('Origin',(-0.811898816047911,0.46875,0.0590551181102362));
#612=CARTESIAN_POINT('',(-0.723398816047911,0.46875,0.));
#613=CARTESIAN_POINT('',(-0.723398816047911,0.46875,0.));
#614=CARTESIAN_POINT('Origin',(-0.811898816047911,0.46875,0.));
#615=CARTESIAN_POINT('Origin',(0.811898816047911,0.46875,0.));
#616=CARTESIAN_POINT('',(0.900398816047911,0.46875,0.0590551181102362));
#617=CARTESIAN_POINT('Origin',(0.811898816047911,0.46875,0.0590551181102362));
#618=CARTESIAN_POINT('',(0.900398816047911,0.46875,0.));
#619=CARTESIAN_POINT('',(0.900398816047911,0.46875,0.));
#620=CARTESIAN_POINT('Origin',(0.811898816047911,0.46875,0.));
#621=CARTESIAN_POINT('Origin',(0.,-0.9375,0.));
#622=CARTESIAN_POINT('',(-0.187499284590066,-0.936982044198896,0.));
#623=CARTESIAN_POINT('',(0.18749928459007,-0.936982044198895,0.));
#624=CARTESIAN_POINT('Origin',(0.,-0.9375,0.));
#625=CARTESIAN_POINT('',(0.18749928459007,-0.936982044198895,0.0590551181102362));
#626=CARTESIAN_POINT('',(0.18749928459007,-0.936982044198895,0.));
#627=CARTESIAN_POINT('',(-0.187499284590066,-0.936982044198896,0.0590551181102362));
#628=CARTESIAN_POINT('Origin',(0.,-0.9375,0.0590551181102362));
#629=CARTESIAN_POINT('',(-0.187499284590066,-0.936982044198896,0.));
#630=CARTESIAN_POINT('Origin',(-1.61606526241919,-0.933035714285725,0.));
#631=CARTESIAN_POINT('',(-0.905199895461152,0.306111878453039,0.));
#632=CARTESIAN_POINT('Origin',(-1.61606526241919,-0.933035714285725,0.));
#633=CARTESIAN_POINT('',(-0.905199895461152,0.306111878453039,0.0590551181102362));
#634=CARTESIAN_POINT('Origin',(-1.61606526241919,-0.933035714285725,0.0590551181102362));
#635=CARTESIAN_POINT('',(-0.905199895461152,0.306111878453039,0.));
#636=CARTESIAN_POINT('Origin',(-0.811898816047915,0.468749999999992,0.));
#637=CARTESIAN_POINT('',(-0.717700610871085,0.630870165745854,0.));
#638=CARTESIAN_POINT('Origin',(-0.811898816047915,0.468749999999992,0.));
#639=CARTESIAN_POINT('',(-0.717700610871085,0.630870165745854,0.0590551181102362));
#640=CARTESIAN_POINT('Origin',(-0.811898816047915,0.468749999999992,0.0590551181102362));
#641=CARTESIAN_POINT('',(-0.717700610871085,0.630870165745854,0.));
#642=CARTESIAN_POINT('Origin',(-2.71048748998653E-15,1.86607142857144,0.));
#643=CARTESIAN_POINT('',(0.717700610871082,0.630870165745856,0.));
#644=CARTESIAN_POINT('Origin',(-2.71048748998653E-15,1.86607142857144,0.));
#645=CARTESIAN_POINT('',(0.717700610871082,0.630870165745856,0.0590551181102362));
#646=CARTESIAN_POINT('Origin',(-2.71048748998653E-15,1.86607142857144,0.0590551181102362));
#647=CARTESIAN_POINT('',(0.717700610871082,0.630870165745856,0.));
#648=CARTESIAN_POINT('Origin',(0.811898816047909,0.468750000000004,0.));
#649=CARTESIAN_POINT('',(0.905199895461151,0.306111878453043,0.));
#650=CARTESIAN_POINT('Origin',(0.811898816047909,0.468750000000004,0.));
#651=CARTESIAN_POINT('',(0.905199895461151,0.306111878453043,0.0590551181102362));
#652=CARTESIAN_POINT('Origin',(0.811898816047909,0.468750000000004,0.0590551181102362));
#653=CARTESIAN_POINT('',(0.905199895461151,0.306111878453043,0.));
#654=CARTESIAN_POINT('Origin',(1.61606526241919,-0.933035714285719,0.));
#655=CARTESIAN_POINT('Origin',(1.61606526241919,-0.933035714285719,0.));
#656=CARTESIAN_POINT('Origin',(1.61606526241919,-0.933035714285719,0.0590551181102362));
#657=CARTESIAN_POINT('Origin',(-3.14708888870123E-15,-0.234374999999998,
0.0590551181102362));
#658=CARTESIAN_POINT('Origin',(-3.14708888870123E-15,-0.234374999999998,
0.));
#659=UNCERTAINTY_MEASURE_WITH_UNIT(LENGTH_MEASURE(0.000393700787401575),
#665,'DISTANCE_ACCURACY_VALUE',
'Maximum model space distance between geometric entities at asserted c
onnectivities');
#660=UNCERTAINTY_MEASURE_WITH_UNIT(LENGTH_MEASURE(0.000393700787401575),
#665,'DISTANCE_ACCURACY_VALUE',
'Maximum model space distance between geometric entities at asserted c
onnectivities');
#661=(
GEOMETRIC_REPRESENTATION_CONTEXT(3)
GLOBAL_UNCERTAINTY_ASSIGNED_CONTEXT((#659))
GLOBAL_UNIT_ASSIGNED_CONTEXT((#665,#669,#670))
REPRESENTATION_CONTEXT('','3D')
);
#662=(
GEOMETRIC_REPRESENTATION_CONTEXT(3)
GLOBAL_UNCERTAINTY_ASSIGNED_CONTEXT((#660))
GLOBAL_UNIT_ASSIGNED_CONTEXT((#665,#669,#670))
REPRESENTATION_CONTEXT('','3D')
);
#663=DIMENSIONAL_EXPONENTS(1.,0.,0.,0.,0.,0.,0.);
#664=DIMENSIONAL_EXPONENTS(0.,1.,0.,0.,0.,0.,0.);
#665=(
CONVERSION_BASED_UNIT('inch',#668)
LENGTH_UNIT()
NAMED_UNIT(#663)
);
#666=(
LENGTH_UNIT()
NAMED_UNIT(*)
SI_UNIT(.MILLI.,.METRE.)
);
#667=(
LENGTH_UNIT()
NAMED_UNIT(*)
SI_UNIT(.CENTI.,.METRE.)
);
#668=LENGTH_MEASURE_WITH_UNIT(LENGTH_MEASURE(25.4),#666);
#669=(
NAMED_UNIT(*)
PLANE_ANGLE_UNIT()
SI_UNIT($,.RADIAN.)
);
#670=(
NAMED_UNIT(*)
SI_UNIT($,.STERADIAN.)
SOLID_ANGLE_UNIT()
);
#671=SHAPE_DEFINITION_REPRESENTATION(#672,#673);
#672=PRODUCT_DEFINITION_SHAPE('',$,#675);
#673=SHAPE_REPRESENTATION('',(#391),#661);
#674=PRODUCT_DEFINITION_CONTEXT('part definition',#679,'design');
#675=PRODUCT_DEFINITION('3in flex wheel holder','3in flex wheel holder',
#676,#674);
#676=PRODUCT_DEFINITION_FORMATION('',$,#681);
#677=PRODUCT_RELATED_PRODUCT_CATEGORY('3in flex wheel holder',
'3in flex wheel holder',(#681));
#678=APPLICATION_PROTOCOL_DEFINITION('international standard',
'automotive_design',2009,#679);
#679=APPLICATION_CONTEXT(
'Core Data for Automotive Mechanical Design Process');
#680=PRODUCT_CONTEXT('part definition',#679,'mechanical');
#681=PRODUCT('3in flex wheel holder','3in flex wheel holder',$,(#680));
#682=PRESENTATION_STYLE_ASSIGNMENT((#683));
#683=SURFACE_STYLE_USAGE(.BOTH.,#686);
#684=SURFACE_STYLE_RENDERING_WITH_PROPERTIES($,#690,(#685));
#685=SURFACE_STYLE_TRANSPARENT(0.);
#686=SURFACE_SIDE_STYLE('',(#687,#684));
#687=SURFACE_STYLE_FILL_AREA(#688);
#688=FILL_AREA_STYLE('',(#689));
#689=FILL_AREA_STYLE_COLOUR('',#690);
#690=COLOUR_RGB('',0.749019607843137,0.749019607843137,0.749019607843137);
ENDSEC;
END-ISO-10303-21;
