ISO-10303-21;
HEADER;
/* Generated by software containing ST-Developer
 * from STEP Tools, Inc. (www.steptools.com) 
 */

FILE_DESCRIPTION(
/* description */ (''),
/* implementation_level */ '2;1');

FILE_NAME(
/* name */ 'funnelFront.stp',
/* time_stamp */ '2026-01-22T11:48:57+13:00',
/* author */ ('cloudy'),
/* organization */ (''),
/* preprocessor_version */ 'ST-DEVELOPER v20',
/* originating_system */ 'Autodesk Inventor 2025',
/* authorisation */ '');

FILE_SCHEMA (('AUTOMOTIVE_DESIGN { 1 0 10303 214 3 1 1 }'));
ENDSEC;

DATA;
#10=MECHANICAL_DESIGN_GEOMETRIC_PRESENTATION_REPRESENTATION('',(#13),#590);
#11=SHAPE_REPRESENTATION_RELATIONSHIP('SRR','None',#601,#12);
#12=ADVANCED_BREP_SHAPE_REPRESENTATION('',(#14),#589);
#13=STYLED_ITEM('',(#610),#14);
#14=MANIFOLD_SOLID_BREP('Solid1',#342);
#15=CYLINDRICAL_SURFACE('',#376,0.25);
#16=CYLINDRICAL_SURFACE('',#379,0.25);
#17=CYLINDRICAL_SURFACE('',#381,0.25);
#18=CYLINDRICAL_SURFACE('',#384,0.0859999999999988);
#19=CYLINDRICAL_SURFACE('',#386,0.086);
#20=CYLINDRICAL_SURFACE('',#388,0.086);
#21=CYLINDRICAL_SURFACE('',#390,0.0859999999999988);
#22=CYLINDRICAL_SURFACE('',#392,0.0859999999999988);
#23=FACE_BOUND('',#68,.T.);
#24=FACE_BOUND('',#69,.T.);
#25=FACE_BOUND('',#70,.T.);
#26=FACE_BOUND('',#71,.T.);
#27=FACE_BOUND('',#72,.T.);
#28=FACE_BOUND('',#88,.T.);
#29=FACE_BOUND('',#89,.T.);
#30=FACE_BOUND('',#90,.T.);
#31=FACE_BOUND('',#91,.T.);
#32=FACE_BOUND('',#92,.T.);
#33=CIRCLE('',#366,0.25);
#34=CIRCLE('',#367,0.25);
#35=CIRCLE('',#368,0.25);
#36=CIRCLE('',#369,0.0859999999999988);
#37=CIRCLE('',#370,0.086);
#38=CIRCLE('',#371,0.086);
#39=CIRCLE('',#372,0.0859999999999988);
#40=CIRCLE('',#373,0.0859999999999988);
#41=CIRCLE('',#377,0.25);
#42=CIRCLE('',#380,0.25);
#43=CIRCLE('',#382,0.25);
#44=CIRCLE('',#385,0.0859999999999988);
#45=CIRCLE('',#387,0.086);
#46=CIRCLE('',#389,0.086);
#47=CIRCLE('',#391,0.0859999999999988);
#48=CIRCLE('',#393,0.0859999999999988);
#49=FACE_OUTER_BOUND('',#66,.T.);
#50=FACE_OUTER_BOUND('',#67,.T.);
#51=FACE_OUTER_BOUND('',#73,.T.);
#52=FACE_OUTER_BOUND('',#74,.T.);
#53=FACE_OUTER_BOUND('',#75,.T.);
#54=FACE_OUTER_BOUND('',#76,.T.);
#55=FACE_OUTER_BOUND('',#77,.T.);
#56=FACE_OUTER_BOUND('',#78,.T.);
#57=FACE_OUTER_BOUND('',#79,.T.);
#58=FACE_OUTER_BOUND('',#80,.T.);
#59=FACE_OUTER_BOUND('',#81,.T.);
#60=FACE_OUTER_BOUND('',#82,.T.);
#61=FACE_OUTER_BOUND('',#83,.T.);
#62=FACE_OUTER_BOUND('',#84,.T.);
#63=FACE_OUTER_BOUND('',#85,.T.);
#64=FACE_OUTER_BOUND('',#86,.T.);
#65=FACE_OUTER_BOUND('',#87,.T.);
#66=EDGE_LOOP('',(#226,#227,#228,#229));
#67=EDGE_LOOP('',(#230,#231,#232,#233,#234,#235,#236,#237,#238,#239));
#68=EDGE_LOOP('',(#240));
#69=EDGE_LOOP('',(#241));
#70=EDGE_LOOP('',(#242));
#71=EDGE_LOOP('',(#243));
#72=EDGE_LOOP('',(#244));
#73=EDGE_LOOP('',(#245,#246,#247,#248));
#74=EDGE_LOOP('',(#249,#250,#251,#252));
#75=EDGE_LOOP('',(#253,#254,#255,#256));
#76=EDGE_LOOP('',(#257,#258,#259,#260));
#77=EDGE_LOOP('',(#261,#262,#263,#264));
#78=EDGE_LOOP('',(#265,#266,#267,#268));
#79=EDGE_LOOP('',(#269,#270,#271,#272));
#80=EDGE_LOOP('',(#273,#274,#275,#276));
#81=EDGE_LOOP('',(#277,#278,#279,#280));
#82=EDGE_LOOP('',(#281,#282,#283,#284));
#83=EDGE_LOOP('',(#285,#286,#287,#288));
#84=EDGE_LOOP('',(#289,#290,#291,#292));
#85=EDGE_LOOP('',(#293,#294,#295,#296));
#86=EDGE_LOOP('',(#297,#298,#299,#300));
#87=EDGE_LOOP('',(#301,#302,#303,#304,#305,#306,#307,#308,#309,#310));
#88=EDGE_LOOP('',(#311));
#89=EDGE_LOOP('',(#312));
#90=EDGE_LOOP('',(#313));
#91=EDGE_LOOP('',(#314));
#92=EDGE_LOOP('',(#315));
#93=LINE('',#498,#122);
#94=LINE('',#500,#123);
#95=LINE('',#502,#124);
#96=LINE('',#503,#125);
#97=LINE('',#506,#126);
#98=LINE('',#508,#127);
#99=LINE('',#510,#128);
#100=LINE('',#514,#129);
#101=LINE('',#518,#130);
#102=LINE('',#521,#131);
#103=LINE('',#534,#132);
#104=LINE('',#535,#133);
#105=LINE('',#538,#134);
#106=LINE('',#539,#135);
#107=LINE('',#542,#136);
#108=LINE('',#545,#137);
#109=LINE('',#548,#138);
#110=LINE('',#549,#139);
#111=LINE('',#553,#140);
#112=LINE('',#556,#141);
#113=LINE('',#559,#142);
#114=LINE('',#561,#143);
#115=LINE('',#564,#144);
#116=LINE('',#568,#145);
#117=LINE('',#572,#146);
#118=LINE('',#576,#147);
#119=LINE('',#580,#148);
#120=LINE('',#583,#149);
#121=LINE('',#585,#150);
#122=VECTOR('',#401,0.393700787401575);
#123=VECTOR('',#402,0.393700787401575);
#124=VECTOR('',#403,0.393700787401575);
#125=VECTOR('',#404,0.393700787401575);
#126=VECTOR('',#407,0.393700787401575);
#127=VECTOR('',#408,0.393700787401575);
#128=VECTOR('',#409,0.393700787401575);
#129=VECTOR('',#412,0.393700787401575);
#130=VECTOR('',#415,0.393700787401575);
#131=VECTOR('',#418,0.393700787401575);
#132=VECTOR('',#431,0.393700787401575);
#133=VECTOR('',#432,0.393700787401575);
#134=VECTOR('',#435,0.393700787401575);
#135=VECTOR('',#436,0.393700787401575);
#136=VECTOR('',#439,0.393700787401575);
#137=VECTOR('',#442,0.393700787401575);
#138=VECTOR('',#445,0.393700787401575);
#139=VECTOR('',#446,0.393700787401575);
#140=VECTOR('',#451,0.393700787401575);
#141=VECTOR('',#454,0.393700787401575);
#142=VECTOR('',#457,0.393700787401575);
#143=VECTOR('',#460,0.393700787401575);
#144=VECTOR('',#463,0.0859999999999988);
#145=VECTOR('',#468,0.086);
#146=VECTOR('',#473,0.086);
#147=VECTOR('',#478,0.0859999999999988);
#148=VECTOR('',#483,0.0859999999999988);
#149=VECTOR('',#488,0.393700787401575);
#150=VECTOR('',#491,0.393700787401575);
#151=VERTEX_POINT('',#496);
#152=VERTEX_POINT('',#497);
#153=VERTEX_POINT('',#499);
#154=VERTEX_POINT('',#501);
#155=VERTEX_POINT('',#505);
#156=VERTEX_POINT('',#507);
#157=VERTEX_POINT('',#509);
#158=VERTEX_POINT('',#511);
#159=VERTEX_POINT('',#513);
#160=VERTEX_POINT('',#515);
#161=VERTEX_POINT('',#517);
#162=VERTEX_POINT('',#519);
#163=VERTEX_POINT('',#522);
#164=VERTEX_POINT('',#524);
#165=VERTEX_POINT('',#526);
#166=VERTEX_POINT('',#528);
#167=VERTEX_POINT('',#530);
#168=VERTEX_POINT('',#533);
#169=VERTEX_POINT('',#537);
#170=VERTEX_POINT('',#541);
#171=VERTEX_POINT('',#543);
#172=VERTEX_POINT('',#547);
#173=VERTEX_POINT('',#551);
#174=VERTEX_POINT('',#555);
#175=VERTEX_POINT('',#557);
#176=VERTEX_POINT('',#563);
#177=VERTEX_POINT('',#567);
#178=VERTEX_POINT('',#571);
#179=VERTEX_POINT('',#575);
#180=VERTEX_POINT('',#579);
#181=EDGE_CURVE('',#151,#152,#93,.T.);
#182=EDGE_CURVE('',#152,#153,#94,.T.);
#183=EDGE_CURVE('',#153,#154,#95,.T.);
#184=EDGE_CURVE('',#154,#151,#96,.T.);
#185=EDGE_CURVE('',#151,#155,#97,.T.);
#186=EDGE_CURVE('',#156,#155,#98,.T.);
#187=EDGE_CURVE('',#156,#157,#99,.T.);
#188=EDGE_CURVE('',#158,#157,#33,.T.);
#189=EDGE_CURVE('',#158,#159,#100,.T.);
#190=EDGE_CURVE('',#160,#159,#34,.T.);
#191=EDGE_CURVE('',#160,#161,#101,.T.);
#192=EDGE_CURVE('',#162,#161,#35,.T.);
#193=EDGE_CURVE('',#162,#152,#102,.T.);
#194=EDGE_CURVE('',#163,#163,#36,.T.);
#195=EDGE_CURVE('',#164,#164,#37,.T.);
#196=EDGE_CURVE('',#165,#165,#38,.T.);
#197=EDGE_CURVE('',#166,#166,#39,.T.);
#198=EDGE_CURVE('',#167,#167,#40,.T.);
#199=EDGE_CURVE('',#154,#168,#103,.T.);
#200=EDGE_CURVE('',#155,#168,#104,.T.);
#201=EDGE_CURVE('',#168,#169,#105,.T.);
#202=EDGE_CURVE('',#169,#156,#106,.T.);
#203=EDGE_CURVE('',#157,#170,#107,.T.);
#204=EDGE_CURVE('',#170,#171,#41,.T.);
#205=EDGE_CURVE('',#171,#158,#108,.T.);
#206=EDGE_CURVE('',#171,#172,#109,.T.);
#207=EDGE_CURVE('',#159,#172,#110,.T.);
#208=EDGE_CURVE('',#172,#173,#42,.T.);
#209=EDGE_CURVE('',#173,#160,#111,.T.);
#210=EDGE_CURVE('',#161,#174,#112,.T.);
#211=EDGE_CURVE('',#174,#175,#43,.T.);
#212=EDGE_CURVE('',#175,#162,#113,.T.);
#213=EDGE_CURVE('',#175,#153,#114,.T.);
#214=EDGE_CURVE('',#163,#176,#115,.T.);
#215=EDGE_CURVE('',#176,#176,#44,.T.);
#216=EDGE_CURVE('',#164,#177,#116,.T.);
#217=EDGE_CURVE('',#177,#177,#45,.T.);
#218=EDGE_CURVE('',#165,#178,#117,.T.);
#219=EDGE_CURVE('',#178,#178,#46,.T.);
#220=EDGE_CURVE('',#166,#179,#118,.T.);
#221=EDGE_CURVE('',#179,#179,#47,.T.);
#222=EDGE_CURVE('',#167,#180,#119,.T.);
#223=EDGE_CURVE('',#180,#180,#48,.T.);
#224=EDGE_CURVE('',#173,#174,#120,.T.);
#225=EDGE_CURVE('',#169,#170,#121,.T.);
#226=ORIENTED_EDGE('',*,*,#181,.T.);
#227=ORIENTED_EDGE('',*,*,#182,.T.);
#228=ORIENTED_EDGE('',*,*,#183,.T.);
#229=ORIENTED_EDGE('',*,*,#184,.T.);
#230=ORIENTED_EDGE('',*,*,#181,.F.);
#231=ORIENTED_EDGE('',*,*,#185,.T.);
#232=ORIENTED_EDGE('',*,*,#186,.F.);
#233=ORIENTED_EDGE('',*,*,#187,.T.);
#234=ORIENTED_EDGE('',*,*,#188,.F.);
#235=ORIENTED_EDGE('',*,*,#189,.T.);
#236=ORIENTED_EDGE('',*,*,#190,.F.);
#237=ORIENTED_EDGE('',*,*,#191,.T.);
#238=ORIENTED_EDGE('',*,*,#192,.F.);
#239=ORIENTED_EDGE('',*,*,#193,.T.);
#240=ORIENTED_EDGE('',*,*,#194,.T.);
#241=ORIENTED_EDGE('',*,*,#195,.T.);
#242=ORIENTED_EDGE('',*,*,#196,.T.);
#243=ORIENTED_EDGE('',*,*,#197,.T.);
#244=ORIENTED_EDGE('',*,*,#198,.T.);
#245=ORIENTED_EDGE('',*,*,#184,.F.);
#246=ORIENTED_EDGE('',*,*,#199,.T.);
#247=ORIENTED_EDGE('',*,*,#200,.F.);
#248=ORIENTED_EDGE('',*,*,#185,.F.);
#249=ORIENTED_EDGE('',*,*,#186,.T.);
#250=ORIENTED_EDGE('',*,*,#200,.T.);
#251=ORIENTED_EDGE('',*,*,#201,.T.);
#252=ORIENTED_EDGE('',*,*,#202,.T.);
#253=ORIENTED_EDGE('',*,*,#188,.T.);
#254=ORIENTED_EDGE('',*,*,#203,.T.);
#255=ORIENTED_EDGE('',*,*,#204,.T.);
#256=ORIENTED_EDGE('',*,*,#205,.T.);
#257=ORIENTED_EDGE('',*,*,#205,.F.);
#258=ORIENTED_EDGE('',*,*,#206,.T.);
#259=ORIENTED_EDGE('',*,*,#207,.F.);
#260=ORIENTED_EDGE('',*,*,#189,.F.);
#261=ORIENTED_EDGE('',*,*,#190,.T.);
#262=ORIENTED_EDGE('',*,*,#207,.T.);
#263=ORIENTED_EDGE('',*,*,#208,.T.);
#264=ORIENTED_EDGE('',*,*,#209,.T.);
#265=ORIENTED_EDGE('',*,*,#192,.T.);
#266=ORIENTED_EDGE('',*,*,#210,.T.);
#267=ORIENTED_EDGE('',*,*,#211,.T.);
#268=ORIENTED_EDGE('',*,*,#212,.T.);
#269=ORIENTED_EDGE('',*,*,#182,.F.);
#270=ORIENTED_EDGE('',*,*,#193,.F.);
#271=ORIENTED_EDGE('',*,*,#212,.F.);
#272=ORIENTED_EDGE('',*,*,#213,.T.);
#273=ORIENTED_EDGE('',*,*,#194,.F.);
#274=ORIENTED_EDGE('',*,*,#214,.T.);
#275=ORIENTED_EDGE('',*,*,#215,.T.);
#276=ORIENTED_EDGE('',*,*,#214,.F.);
#277=ORIENTED_EDGE('',*,*,#195,.F.);
#278=ORIENTED_EDGE('',*,*,#216,.T.);
#279=ORIENTED_EDGE('',*,*,#217,.T.);
#280=ORIENTED_EDGE('',*,*,#216,.F.);
#281=ORIENTED_EDGE('',*,*,#196,.F.);
#282=ORIENTED_EDGE('',*,*,#218,.T.);
#283=ORIENTED_EDGE('',*,*,#219,.T.);
#284=ORIENTED_EDGE('',*,*,#218,.F.);
#285=ORIENTED_EDGE('',*,*,#197,.F.);
#286=ORIENTED_EDGE('',*,*,#220,.T.);
#287=ORIENTED_EDGE('',*,*,#221,.T.);
#288=ORIENTED_EDGE('',*,*,#220,.F.);
#289=ORIENTED_EDGE('',*,*,#198,.F.);
#290=ORIENTED_EDGE('',*,*,#222,.T.);
#291=ORIENTED_EDGE('',*,*,#223,.T.);
#292=ORIENTED_EDGE('',*,*,#222,.F.);
#293=ORIENTED_EDGE('',*,*,#209,.F.);
#294=ORIENTED_EDGE('',*,*,#224,.T.);
#295=ORIENTED_EDGE('',*,*,#210,.F.);
#296=ORIENTED_EDGE('',*,*,#191,.F.);
#297=ORIENTED_EDGE('',*,*,#202,.F.);
#298=ORIENTED_EDGE('',*,*,#225,.T.);
#299=ORIENTED_EDGE('',*,*,#203,.F.);
#300=ORIENTED_EDGE('',*,*,#187,.F.);
#301=ORIENTED_EDGE('',*,*,#183,.F.);
#302=ORIENTED_EDGE('',*,*,#213,.F.);
#303=ORIENTED_EDGE('',*,*,#211,.F.);
#304=ORIENTED_EDGE('',*,*,#224,.F.);
#305=ORIENTED_EDGE('',*,*,#208,.F.);
#306=ORIENTED_EDGE('',*,*,#206,.F.);
#307=ORIENTED_EDGE('',*,*,#204,.F.);
#308=ORIENTED_EDGE('',*,*,#225,.F.);
#309=ORIENTED_EDGE('',*,*,#201,.F.);
#310=ORIENTED_EDGE('',*,*,#199,.F.);
#311=ORIENTED_EDGE('',*,*,#223,.F.);
#312=ORIENTED_EDGE('',*,*,#221,.F.);
#313=ORIENTED_EDGE('',*,*,#219,.F.);
#314=ORIENTED_EDGE('',*,*,#217,.F.);
#315=ORIENTED_EDGE('',*,*,#215,.F.);
#316=PLANE('',#364);
#317=PLANE('',#365);
#318=PLANE('',#374);
#319=PLANE('',#375);
#320=PLANE('',#378);
#321=PLANE('',#383);
#322=PLANE('',#394);
#323=PLANE('',#395);
#324=PLANE('',#396);
#325=ADVANCED_FACE('',(#49),#316,.T.);
#326=ADVANCED_FACE('',(#50,#23,#24,#25,#26,#27),#317,.T.);
#327=ADVANCED_FACE('',(#51),#318,.T.);
#328=ADVANCED_FACE('',(#52),#319,.T.);
#329=ADVANCED_FACE('',(#53),#15,.T.);
#330=ADVANCED_FACE('',(#54),#320,.T.);
#331=ADVANCED_FACE('',(#55),#16,.T.);
#332=ADVANCED_FACE('',(#56),#17,.T.);
#333=ADVANCED_FACE('',(#57),#321,.T.);
#334=ADVANCED_FACE('',(#58),#18,.F.);
#335=ADVANCED_FACE('',(#59),#19,.F.);
#336=ADVANCED_FACE('',(#60),#20,.F.);
#337=ADVANCED_FACE('',(#61),#21,.F.);
#338=ADVANCED_FACE('',(#62),#22,.F.);
#339=ADVANCED_FACE('',(#63),#322,.T.);
#340=ADVANCED_FACE('',(#64),#323,.T.);
#341=ADVANCED_FACE('',(#65,#28,#29,#30,#31,#32),#324,.F.);
#342=CLOSED_SHELL('',(#325,#326,#327,#328,#329,#330,#331,#332,#333,#334,
#335,#336,#337,#338,#339,#340,#341));
#343=DERIVED_UNIT_ELEMENT(#345,1.);
#344=DERIVED_UNIT_ELEMENT(#595,-3.);
#345=(
CONVERSION_BASED_UNIT('gram',#347)
MASS_UNIT()
NAMED_UNIT(#592)
);
#346=(
MASS_UNIT()
NAMED_UNIT(*)
SI_UNIT(.KILO.,.GRAM.)
);
#347=MASS_MEASURE_WITH_UNIT(MASS_MEASURE(0.001),#346);
#348=DERIVED_UNIT((#343,#344));
#349=MEASURE_REPRESENTATION_ITEM('density measure',
POSITIVE_RATIO_MEASURE(1.),#348);
#350=PROPERTY_DEFINITION_REPRESENTATION(#355,#352);
#351=PROPERTY_DEFINITION_REPRESENTATION(#356,#353);
#352=REPRESENTATION('material name',(#354),#589);
#353=REPRESENTATION('density',(#349),#589);
#354=DESCRIPTIVE_REPRESENTATION_ITEM('white pla','white pla');
#355=PROPERTY_DEFINITION('material property','material name',#603);
#356=PROPERTY_DEFINITION('material property','density of part',#603);
#357=DATE_TIME_ROLE('creation_date');
#358=APPLIED_DATE_AND_TIME_ASSIGNMENT(#359,#357,(#603));
#359=DATE_AND_TIME(#360,#361);
#360=CALENDAR_DATE(2025,17,11);
#361=LOCAL_TIME(0,0,0.,#362);
#362=COORDINATED_UNIVERSAL_TIME_OFFSET(0,0,.BEHIND.);
#363=AXIS2_PLACEMENT_3D('',#494,#397,#398);
#364=AXIS2_PLACEMENT_3D('',#495,#399,#400);
#365=AXIS2_PLACEMENT_3D('',#504,#405,#406);
#366=AXIS2_PLACEMENT_3D('',#512,#410,#411);
#367=AXIS2_PLACEMENT_3D('',#516,#413,#414);
#368=AXIS2_PLACEMENT_3D('',#520,#416,#417);
#369=AXIS2_PLACEMENT_3D('',#523,#419,#420);
#370=AXIS2_PLACEMENT_3D('',#525,#421,#422);
#371=AXIS2_PLACEMENT_3D('',#527,#423,#424);
#372=AXIS2_PLACEMENT_3D('',#529,#425,#426);
#373=AXIS2_PLACEMENT_3D('',#531,#427,#428);
#374=AXIS2_PLACEMENT_3D('',#532,#429,#430);
#375=AXIS2_PLACEMENT_3D('',#536,#433,#434);
#376=AXIS2_PLACEMENT_3D('',#540,#437,#438);
#377=AXIS2_PLACEMENT_3D('',#544,#440,#441);
#378=AXIS2_PLACEMENT_3D('',#546,#443,#444);
#379=AXIS2_PLACEMENT_3D('',#550,#447,#448);
#380=AXIS2_PLACEMENT_3D('',#552,#449,#450);
#381=AXIS2_PLACEMENT_3D('',#554,#452,#453);
#382=AXIS2_PLACEMENT_3D('',#558,#455,#456);
#383=AXIS2_PLACEMENT_3D('',#560,#458,#459);
#384=AXIS2_PLACEMENT_3D('',#562,#461,#462);
#385=AXIS2_PLACEMENT_3D('',#565,#464,#465);
#386=AXIS2_PLACEMENT_3D('',#566,#466,#467);
#387=AXIS2_PLACEMENT_3D('',#569,#469,#470);
#388=AXIS2_PLACEMENT_3D('',#570,#471,#472);
#389=AXIS2_PLACEMENT_3D('',#573,#474,#475);
#390=AXIS2_PLACEMENT_3D('',#574,#476,#477);
#391=AXIS2_PLACEMENT_3D('',#577,#479,#480);
#392=AXIS2_PLACEMENT_3D('',#578,#481,#482);
#393=AXIS2_PLACEMENT_3D('',#581,#484,#485);
#394=AXIS2_PLACEMENT_3D('',#582,#486,#487);
#395=AXIS2_PLACEMENT_3D('',#584,#489,#490);
#396=AXIS2_PLACEMENT_3D('',#586,#492,#493);
#397=DIRECTION('axis',(0.,0.,1.));
#398=DIRECTION('refdir',(1.,0.,0.));
#399=DIRECTION('center_axis',(-0.707106781186547,-0.707106781186549,0.));
#400=DIRECTION('ref_axis',(0.,0.,1.));
#401=DIRECTION('',(-0.707106781186549,0.707106781186547,0.));
#402=DIRECTION('',(0.,0.,-1.));
#403=DIRECTION('',(0.707106781186549,-0.707106781186547,0.));
#404=DIRECTION('',(0.,0.,1.));
#405=DIRECTION('center_axis',(0.,0.,1.));
#406=DIRECTION('ref_axis',(1.,0.,0.));
#407=DIRECTION('',(1.,0.,0.));
#408=DIRECTION('',(-0.707106781186553,-0.707106781186542,0.));
#409=DIRECTION('',(6.53786783808116E-17,1.,0.));
#410=DIRECTION('center_axis',(0.,0.,-1.));
#411=DIRECTION('ref_axis',(0.984807753012208,0.173648177666932,0.));
#412=DIRECTION('',(-0.342020143325669,0.939692620785908,0.));
#413=DIRECTION('center_axis',(0.,0.,-1.));
#414=DIRECTION('ref_axis',(0.573576436351046,0.819152044288992,0.));
#415=DIRECTION('',(-1.,0.,0.));
#416=DIRECTION('center_axis',(0.,0.,-1.));
#417=DIRECTION('ref_axis',(-0.707106781186545,0.70710678118655,0.));
#418=DIRECTION('',(1.33210111691059E-16,-1.,0.));
#419=DIRECTION('center_axis',(0.,0.,-1.));
#420=DIRECTION('ref_axis',(-1.,0.,0.));
#421=DIRECTION('center_axis',(0.,0.,-1.));
#422=DIRECTION('ref_axis',(-1.,0.,0.));
#423=DIRECTION('center_axis',(0.,0.,-1.));
#424=DIRECTION('ref_axis',(-1.,0.,0.));
#425=DIRECTION('center_axis',(0.,0.,-1.));
#426=DIRECTION('ref_axis',(-1.,0.,0.));
#427=DIRECTION('center_axis',(0.,0.,-1.));
#428=DIRECTION('ref_axis',(-1.,0.,0.));
#429=DIRECTION('center_axis',(0.,-1.,0.));
#430=DIRECTION('ref_axis',(1.,0.,0.));
#431=DIRECTION('',(1.,0.,0.));
#432=DIRECTION('',(0.,0.,-1.));
#433=DIRECTION('center_axis',(0.707106781186542,-0.707106781186553,0.));
#434=DIRECTION('ref_axis',(0.,0.,-1.));
#435=DIRECTION('',(0.707106781186553,0.707106781186542,0.));
#436=DIRECTION('',(0.,0.,1.));
#437=DIRECTION('center_axis',(0.,0.,1.));
#438=DIRECTION('ref_axis',(0.984807753012208,0.173648177666932,0.));
#439=DIRECTION('',(0.,0.,-1.));
#440=DIRECTION('center_axis',(0.,0.,1.));
#441=DIRECTION('ref_axis',(0.984807753012208,0.173648177666932,0.));
#442=DIRECTION('',(0.,0.,1.));
#443=DIRECTION('center_axis',(0.939692620785908,0.342020143325669,0.));
#444=DIRECTION('ref_axis',(-0.342020143325669,0.939692620785908,0.));
#445=DIRECTION('',(-0.342020143325669,0.939692620785908,0.));
#446=DIRECTION('',(0.,0.,-1.));
#447=DIRECTION('center_axis',(0.,0.,1.));
#448=DIRECTION('ref_axis',(0.573576436351046,0.819152044288992,0.));
#449=DIRECTION('center_axis',(0.,0.,1.));
#450=DIRECTION('ref_axis',(0.573576436351046,0.819152044288992,0.));
#451=DIRECTION('',(0.,0.,1.));
#452=DIRECTION('center_axis',(0.,0.,1.));
#453=DIRECTION('ref_axis',(-0.707106781186545,0.70710678118655,0.));
#454=DIRECTION('',(0.,0.,-1.));
#455=DIRECTION('center_axis',(0.,0.,1.));
#456=DIRECTION('ref_axis',(-0.707106781186545,0.70710678118655,0.));
#457=DIRECTION('',(0.,0.,1.));
#458=DIRECTION('center_axis',(-1.,-1.33210111691059E-16,0.));
#459=DIRECTION('ref_axis',(1.33210111691059E-16,-1.,0.));
#460=DIRECTION('',(1.33210111691059E-16,-1.,0.));
#461=DIRECTION('center_axis',(0.,0.,1.));
#462=DIRECTION('ref_axis',(-1.,0.,0.));
#463=DIRECTION('',(0.,0.,-1.));
#464=DIRECTION('center_axis',(0.,0.,-1.));
#465=DIRECTION('ref_axis',(-1.,0.,0.));
#466=DIRECTION('center_axis',(0.,0.,1.));
#467=DIRECTION('ref_axis',(-1.,0.,0.));
#468=DIRECTION('',(0.,0.,-1.));
#469=DIRECTION('center_axis',(0.,0.,-1.));
#470=DIRECTION('ref_axis',(-1.,0.,0.));
#471=DIRECTION('center_axis',(0.,0.,1.));
#472=DIRECTION('ref_axis',(-1.,0.,0.));
#473=DIRECTION('',(0.,0.,-1.));
#474=DIRECTION('center_axis',(0.,0.,-1.));
#475=DIRECTION('ref_axis',(-1.,0.,0.));
#476=DIRECTION('center_axis',(0.,0.,1.));
#477=DIRECTION('ref_axis',(-1.,0.,0.));
#478=DIRECTION('',(0.,0.,-1.));
#479=DIRECTION('center_axis',(0.,0.,-1.));
#480=DIRECTION('ref_axis',(-1.,0.,0.));
#481=DIRECTION('center_axis',(0.,0.,1.));
#482=DIRECTION('ref_axis',(-1.,0.,0.));
#483=DIRECTION('',(0.,0.,-1.));
#484=DIRECTION('center_axis',(0.,0.,-1.));
#485=DIRECTION('ref_axis',(-1.,0.,0.));
#486=DIRECTION('center_axis',(0.,1.,0.));
#487=DIRECTION('ref_axis',(-1.,0.,0.));
#488=DIRECTION('',(-1.,0.,0.));
#489=DIRECTION('center_axis',(1.,-6.53786783808116E-17,0.));
#490=DIRECTION('ref_axis',(6.53786783808116E-17,1.,0.));
#491=DIRECTION('',(6.53786783808116E-17,1.,0.));
#492=DIRECTION('center_axis',(0.,0.,1.));
#493=DIRECTION('ref_axis',(1.,0.,0.));
#494=CARTESIAN_POINT('',(0.,0.,0.));
#495=CARTESIAN_POINT('Origin',(-0.734375000000007,2.01562499999998,0.));
#496=CARTESIAN_POINT('',(-0.718750000000007,1.99999999999998,0.2));
#497=CARTESIAN_POINT('',(-0.750000000000007,2.03124999999998,0.2));
#498=CARTESIAN_POINT('',(-1.1171875,2.39843749999997,0.2));
#499=CARTESIAN_POINT('',(-0.750000000000007,2.03124999999998,0.));
#500=CARTESIAN_POINT('',(-0.750000000000007,2.03124999999998,0.));
#501=CARTESIAN_POINT('',(-0.718750000000007,1.99999999999998,0.));
#502=CARTESIAN_POINT('',(-1.1171875,2.39843749999997,0.));
#503=CARTESIAN_POINT('',(-0.718750000000007,1.99999999999998,0.));
#504=CARTESIAN_POINT('Origin',(0.343749999999977,4.62499999999995,0.2));
#505=CARTESIAN_POINT('',(1.40624999999996,1.99999999999998,0.2));
#506=CARTESIAN_POINT('',(-0.750000000000007,1.99999999999998,0.2));
#507=CARTESIAN_POINT('',(1.43749999999996,2.03124999999998,0.2));
#508=CARTESIAN_POINT('',(1.80468749999995,2.39843749999996,0.2));
#509=CARTESIAN_POINT('',(1.43749999999996,4.63015817408417,0.2));
#510=CARTESIAN_POINT('',(1.43749999999996,1.99999999999998,0.2));
#511=CARTESIAN_POINT('',(1.42242315519644,4.71566320991559,0.2));
#512=CARTESIAN_POINT('Origin',(1.18749999999996,4.63015817408417,0.2));
#513=CARTESIAN_POINT('',(0.559871270644041,7.08550503583133,0.2));
#514=CARTESIAN_POINT('',(1.43749999999996,4.67423991926129,0.2));
#515=CARTESIAN_POINT('',(0.324948115447565,7.24999999999992,0.2));
#516=CARTESIAN_POINT('Origin',(0.324948115447565,6.99999999999992,0.2));
#517=CARTESIAN_POINT('',(-0.500000000000008,7.24999999999992,0.2));
#518=CARTESIAN_POINT('',(0.499999999999992,7.24999999999992,0.2));
#519=CARTESIAN_POINT('',(-0.750000000000008,6.99999999999992,0.2));
#520=CARTESIAN_POINT('Origin',(-0.500000000000008,6.99999999999992,0.2));
#521=CARTESIAN_POINT('',(-0.750000000000008,7.24999999999992,0.2));
#522=CARTESIAN_POINT('',(-0.164,2.24999999999998,0.2));
#523=CARTESIAN_POINT('Origin',(-0.249999999999999,2.24999999999998,0.2));
#524=CARTESIAN_POINT('',(1.02349999999996,2.24999999999994,0.2));
#525=CARTESIAN_POINT('Origin',(0.937499999999962,2.24999999999994,0.2));
#526=CARTESIAN_POINT('',(1.02349999999998,4.74999999999994,0.2));
#527=CARTESIAN_POINT('Origin',(0.937499999999978,4.74999999999994,0.2));
#528=CARTESIAN_POINT('',(0.335999999999979,6.74999999999992,0.2));
#529=CARTESIAN_POINT('Origin',(0.24999999999998,6.74999999999992,0.2));
#530=CARTESIAN_POINT('',(-0.164000000000009,6.74999999999992,0.2));
#531=CARTESIAN_POINT('Origin',(-0.250000000000008,6.74999999999992,0.2));
#532=CARTESIAN_POINT('Origin',(-0.750000000000007,1.99999999999998,0.));
#533=CARTESIAN_POINT('',(1.40624999999996,1.99999999999998,0.));
#534=CARTESIAN_POINT('',(-0.750000000000007,1.99999999999998,0.));
#535=CARTESIAN_POINT('',(1.40624999999996,1.99999999999998,0.));
#536=CARTESIAN_POINT('Origin',(1.42187499999996,2.01562499999998,0.));
#537=CARTESIAN_POINT('',(1.43749999999996,2.03124999999998,0.));
#538=CARTESIAN_POINT('',(1.80468749999995,2.39843749999996,0.));
#539=CARTESIAN_POINT('',(1.43749999999996,2.03124999999998,0.));
#540=CARTESIAN_POINT('Origin',(1.18749999999996,4.63015817408417,0.));
#541=CARTESIAN_POINT('',(1.43749999999996,4.63015817408417,0.));
#542=CARTESIAN_POINT('',(1.43749999999996,4.63015817408417,0.));
#543=CARTESIAN_POINT('',(1.42242315519644,4.71566320991559,0.));
#544=CARTESIAN_POINT('Origin',(1.18749999999996,4.63015817408417,0.));
#545=CARTESIAN_POINT('',(1.42242315519644,4.71566320991559,0.));
#546=CARTESIAN_POINT('Origin',(1.43749999999996,4.67423991926129,0.));
#547=CARTESIAN_POINT('',(0.559871270644041,7.08550503583133,0.));
#548=CARTESIAN_POINT('',(1.43749999999996,4.67423991926129,0.));
#549=CARTESIAN_POINT('',(0.559871270644042,7.08550503583133,0.));
#550=CARTESIAN_POINT('Origin',(0.324948115447565,6.99999999999992,0.));
#551=CARTESIAN_POINT('',(0.324948115447565,7.24999999999992,0.));
#552=CARTESIAN_POINT('Origin',(0.324948115447565,6.99999999999992,0.));
#553=CARTESIAN_POINT('',(0.324948115447565,7.24999999999992,0.));
#554=CARTESIAN_POINT('Origin',(-0.500000000000008,6.99999999999992,0.));
#555=CARTESIAN_POINT('',(-0.500000000000008,7.24999999999992,0.));
#556=CARTESIAN_POINT('',(-0.500000000000008,7.24999999999992,0.));
#557=CARTESIAN_POINT('',(-0.750000000000008,6.99999999999992,0.));
#558=CARTESIAN_POINT('Origin',(-0.500000000000008,6.99999999999992,0.));
#559=CARTESIAN_POINT('',(-0.750000000000008,6.99999999999992,0.));
#560=CARTESIAN_POINT('Origin',(-0.750000000000008,7.24999999999992,0.));
#561=CARTESIAN_POINT('',(-0.750000000000008,7.24999999999992,0.));
#562=CARTESIAN_POINT('Origin',(-0.249999999999999,2.24999999999998,0.));
#563=CARTESIAN_POINT('',(-0.164,2.24999999999998,0.));
#564=CARTESIAN_POINT('',(-0.164,2.24999999999998,0.));
#565=CARTESIAN_POINT('Origin',(-0.249999999999999,2.24999999999998,0.));
#566=CARTESIAN_POINT('Origin',(0.937499999999962,2.24999999999994,0.));
#567=CARTESIAN_POINT('',(1.02349999999996,2.24999999999994,0.));
#568=CARTESIAN_POINT('',(1.02349999999996,2.24999999999994,0.));
#569=CARTESIAN_POINT('Origin',(0.937499999999962,2.24999999999994,0.));
#570=CARTESIAN_POINT('Origin',(0.937499999999978,4.74999999999994,0.));
#571=CARTESIAN_POINT('',(1.02349999999998,4.74999999999994,0.));
#572=CARTESIAN_POINT('',(1.02349999999998,4.74999999999994,0.));
#573=CARTESIAN_POINT('Origin',(0.937499999999978,4.74999999999994,0.));
#574=CARTESIAN_POINT('Origin',(0.24999999999998,6.74999999999992,0.));
#575=CARTESIAN_POINT('',(0.335999999999979,6.74999999999992,0.));
#576=CARTESIAN_POINT('',(0.335999999999979,6.74999999999992,0.));
#577=CARTESIAN_POINT('Origin',(0.24999999999998,6.74999999999992,0.));
#578=CARTESIAN_POINT('Origin',(-0.250000000000008,6.74999999999992,0.));
#579=CARTESIAN_POINT('',(-0.164000000000009,6.74999999999992,0.));
#580=CARTESIAN_POINT('',(-0.164000000000009,6.74999999999992,0.));
#581=CARTESIAN_POINT('Origin',(-0.250000000000008,6.74999999999992,0.));
#582=CARTESIAN_POINT('Origin',(0.499999999999992,7.24999999999992,0.));
#583=CARTESIAN_POINT('',(0.499999999999992,7.24999999999992,0.));
#584=CARTESIAN_POINT('Origin',(1.43749999999996,1.99999999999998,0.));
#585=CARTESIAN_POINT('',(1.43749999999996,1.99999999999998,0.));
#586=CARTESIAN_POINT('Origin',(0.343749999999977,4.62499999999995,0.));
#587=UNCERTAINTY_MEASURE_WITH_UNIT(LENGTH_MEASURE(0.000393700787401575),
#593,'DISTANCE_ACCURACY_VALUE',
'Maximum model space distance between geometric entities at asserted c
onnectivities');
#588=UNCERTAINTY_MEASURE_WITH_UNIT(LENGTH_MEASURE(0.000393700787401575),
#593,'DISTANCE_ACCURACY_VALUE',
'Maximum model space distance between geometric entities at asserted c
onnectivities');
#589=(
GEOMETRIC_REPRESENTATION_CONTEXT(3)
GLOBAL_UNCERTAINTY_ASSIGNED_CONTEXT((#587))
GLOBAL_UNIT_ASSIGNED_CONTEXT((#593,#597,#598))
REPRESENTATION_CONTEXT('','3D')
);
#590=(
GEOMETRIC_REPRESENTATION_CONTEXT(3)
GLOBAL_UNCERTAINTY_ASSIGNED_CONTEXT((#588))
GLOBAL_UNIT_ASSIGNED_CONTEXT((#593,#597,#598))
REPRESENTATION_CONTEXT('','3D')
);
#591=DIMENSIONAL_EXPONENTS(1.,0.,0.,0.,0.,0.,0.);
#592=DIMENSIONAL_EXPONENTS(0.,1.,0.,0.,0.,0.,0.);
#593=(
CONVERSION_BASED_UNIT('inch',#596)
LENGTH_UNIT()
NAMED_UNIT(#591)
);
#594=(
LENGTH_UNIT()
NAMED_UNIT(*)
SI_UNIT(.MILLI.,.METRE.)
);
#595=(
LENGTH_UNIT()
NAMED_UNIT(*)
SI_UNIT(.CENTI.,.METRE.)
);
#596=LENGTH_MEASURE_WITH_UNIT(LENGTH_MEASURE(25.4),#594);
#597=(
NAMED_UNIT(*)
PLANE_ANGLE_UNIT()
SI_UNIT($,.RADIAN.)
);
#598=(
NAMED_UNIT(*)
SI_UNIT($,.STERADIAN.)
SOLID_ANGLE_UNIT()
);
#599=SHAPE_DEFINITION_REPRESENTATION(#600,#601);
#600=PRODUCT_DEFINITION_SHAPE('',$,#603);
#601=SHAPE_REPRESENTATION('',(#363),#589);
#602=PRODUCT_DEFINITION_CONTEXT('part definition',#607,'design');
#603=PRODUCT_DEFINITION('funnelFront','funnelFront',#604,#602);
#604=PRODUCT_DEFINITION_FORMATION('',$,#609);
#605=PRODUCT_RELATED_PRODUCT_CATEGORY('funnelFront','funnelFront',(#609));
#606=APPLICATION_PROTOCOL_DEFINITION('international standard',
'automotive_design',2009,#607);
#607=APPLICATION_CONTEXT(
'Core Data for Automotive Mechanical Design Process');
#608=PRODUCT_CONTEXT('part definition',#607,'mechanical');
#609=PRODUCT('funnelFront','funnelFront',$,(#608));
#610=PRESENTATION_STYLE_ASSIGNMENT((#611));
#611=SURFACE_STYLE_USAGE(.BOTH.,#614);
#612=SURFACE_STYLE_RENDERING_WITH_PROPERTIES($,#618,(#613));
#613=SURFACE_STYLE_TRANSPARENT(0.);
#614=SURFACE_SIDE_STYLE('',(#615,#612));
#615=SURFACE_STYLE_FILL_AREA(#616);
#616=FILL_AREA_STYLE('',(#617));
#617=FILL_AREA_STYLE_COLOUR('',#618);
#618=COLOUR_RGB('',0.0196078431372549,0.0196078431372549,0.0196078431372549);
ENDSEC;
END-ISO-10303-21;
