ISO-10303-21;
HEADER;
/* Generated by software containing ST-Developer
 * from STEP Tools, Inc. (www.steptools.com) 
 */

FILE_DESCRIPTION(
/* description */ (''),
/* implementation_level */ '2;1');

FILE_NAME(
/* name */ 'hoodbrace.stp',
/* time_stamp */ '2026-01-24T00:33:13+13:00',
/* author */ ('cloudy'),
/* organization */ (''),
/* preprocessor_version */ 'ST-DEVELOPER v20',
/* originating_system */ 'Autodesk Inventor 2025',
/* authorisation */ '');

FILE_SCHEMA (('AUTOMOTIVE_DESIGN { 1 0 10303 214 3 1 1 }'));
ENDSEC;

DATA;
#10=MECHANICAL_DESIGN_GEOMETRIC_PRESENTATION_REPRESENTATION('',(#13),#1393);
#11=SHAPE_REPRESENTATION_RELATIONSHIP('SRR','None',#1404,#12);
#12=ADVANCED_BREP_SHAPE_REPRESENTATION('',(#14),#1392);
#13=STYLED_ITEM('',(#1413),#14);
#14=MANIFOLD_SOLID_BREP('Solid1',#813);
#15=FACE_BOUND('',#130,.T.);
#16=FACE_BOUND('',#131,.T.);
#17=FACE_BOUND('',#132,.T.);
#18=FACE_BOUND('',#133,.T.);
#19=FACE_BOUND('',#134,.T.);
#20=FACE_BOUND('',#135,.T.);
#21=FACE_BOUND('',#136,.T.);
#22=FACE_BOUND('',#137,.T.);
#23=FACE_BOUND('',#138,.T.);
#24=FACE_BOUND('',#140,.T.);
#25=FACE_BOUND('',#141,.T.);
#26=FACE_BOUND('',#142,.T.);
#27=FACE_BOUND('',#143,.T.);
#28=FACE_BOUND('',#144,.T.);
#29=FACE_BOUND('',#145,.T.);
#30=FACE_BOUND('',#146,.T.);
#31=FACE_BOUND('',#147,.T.);
#32=FACE_BOUND('',#148,.T.);
#33=PLANE('',#838);
#34=PLANE('',#842);
#35=PLANE('',#846);
#36=PLANE('',#850);
#37=PLANE('',#854);
#38=PLANE('',#858);
#39=PLANE('',#862);
#40=PLANE('',#866);
#41=PLANE('',#870);
#42=PLANE('',#874);
#43=PLANE('',#878);
#44=PLANE('',#882);
#45=PLANE('',#904);
#46=PLANE('',#908);
#47=PLANE('',#912);
#48=PLANE('',#916);
#49=PLANE('',#917);
#50=PLANE('',#918);
#51=FACE_OUTER_BOUND('',#91,.T.);
#52=FACE_OUTER_BOUND('',#92,.T.);
#53=FACE_OUTER_BOUND('',#93,.T.);
#54=FACE_OUTER_BOUND('',#94,.T.);
#55=FACE_OUTER_BOUND('',#95,.T.);
#56=FACE_OUTER_BOUND('',#96,.T.);
#57=FACE_OUTER_BOUND('',#97,.T.);
#58=FACE_OUTER_BOUND('',#98,.T.);
#59=FACE_OUTER_BOUND('',#99,.T.);
#60=FACE_OUTER_BOUND('',#100,.T.);
#61=FACE_OUTER_BOUND('',#101,.T.);
#62=FACE_OUTER_BOUND('',#102,.T.);
#63=FACE_OUTER_BOUND('',#103,.T.);
#64=FACE_OUTER_BOUND('',#104,.T.);
#65=FACE_OUTER_BOUND('',#105,.T.);
#66=FACE_OUTER_BOUND('',#106,.T.);
#67=FACE_OUTER_BOUND('',#107,.T.);
#68=FACE_OUTER_BOUND('',#108,.T.);
#69=FACE_OUTER_BOUND('',#109,.T.);
#70=FACE_OUTER_BOUND('',#110,.T.);
#71=FACE_OUTER_BOUND('',#111,.T.);
#72=FACE_OUTER_BOUND('',#112,.T.);
#73=FACE_OUTER_BOUND('',#113,.T.);
#74=FACE_OUTER_BOUND('',#114,.T.);
#75=FACE_OUTER_BOUND('',#115,.T.);
#76=FACE_OUTER_BOUND('',#116,.T.);
#77=FACE_OUTER_BOUND('',#117,.T.);
#78=FACE_OUTER_BOUND('',#118,.T.);
#79=FACE_OUTER_BOUND('',#119,.T.);
#80=FACE_OUTER_BOUND('',#120,.T.);
#81=FACE_OUTER_BOUND('',#121,.T.);
#82=FACE_OUTER_BOUND('',#122,.T.);
#83=FACE_OUTER_BOUND('',#123,.T.);
#84=FACE_OUTER_BOUND('',#124,.T.);
#85=FACE_OUTER_BOUND('',#125,.T.);
#86=FACE_OUTER_BOUND('',#126,.T.);
#87=FACE_OUTER_BOUND('',#127,.T.);
#88=FACE_OUTER_BOUND('',#128,.T.);
#89=FACE_OUTER_BOUND('',#129,.T.);
#90=FACE_OUTER_BOUND('',#139,.T.);
#91=EDGE_LOOP('',(#523,#524,#525,#526));
#92=EDGE_LOOP('',(#527,#528,#529,#530));
#93=EDGE_LOOP('',(#531,#532,#533,#534));
#94=EDGE_LOOP('',(#535,#536,#537,#538));
#95=EDGE_LOOP('',(#539,#540,#541,#542));
#96=EDGE_LOOP('',(#543,#544,#545,#546));
#97=EDGE_LOOP('',(#547,#548,#549,#550));
#98=EDGE_LOOP('',(#551,#552,#553,#554));
#99=EDGE_LOOP('',(#555,#556,#557,#558));
#100=EDGE_LOOP('',(#559,#560,#561,#562));
#101=EDGE_LOOP('',(#563,#564,#565,#566));
#102=EDGE_LOOP('',(#567,#568,#569,#570));
#103=EDGE_LOOP('',(#571,#572,#573,#574));
#104=EDGE_LOOP('',(#575,#576,#577,#578));
#105=EDGE_LOOP('',(#579,#580,#581,#582));
#106=EDGE_LOOP('',(#583,#584,#585,#586));
#107=EDGE_LOOP('',(#587,#588,#589,#590));
#108=EDGE_LOOP('',(#591,#592,#593,#594));
#109=EDGE_LOOP('',(#595,#596,#597,#598));
#110=EDGE_LOOP('',(#599,#600,#601,#602));
#111=EDGE_LOOP('',(#603,#604,#605,#606));
#112=EDGE_LOOP('',(#607,#608,#609,#610));
#113=EDGE_LOOP('',(#611,#612,#613,#614));
#114=EDGE_LOOP('',(#615,#616,#617,#618));
#115=EDGE_LOOP('',(#619,#620,#621,#622));
#116=EDGE_LOOP('',(#623,#624,#625,#626));
#117=EDGE_LOOP('',(#627,#628,#629,#630));
#118=EDGE_LOOP('',(#631,#632,#633,#634));
#119=EDGE_LOOP('',(#635,#636,#637,#638));
#120=EDGE_LOOP('',(#639,#640,#641,#642));
#121=EDGE_LOOP('',(#643,#644,#645,#646));
#122=EDGE_LOOP('',(#647,#648,#649,#650));
#123=EDGE_LOOP('',(#651,#652,#653,#654));
#124=EDGE_LOOP('',(#655,#656,#657,#658));
#125=EDGE_LOOP('',(#659,#660,#661,#662));
#126=EDGE_LOOP('',(#663,#664,#665,#666));
#127=EDGE_LOOP('',(#667,#668,#669,#670));
#128=EDGE_LOOP('',(#671,#672,#673,#674));
#129=EDGE_LOOP('',(#675,#676,#677,#678,#679,#680,#681,#682,#683,#684,#685,
#686));
#130=EDGE_LOOP('',(#687));
#131=EDGE_LOOP('',(#688));
#132=EDGE_LOOP('',(#689,#690,#691,#692,#693,#694,#695,#696));
#133=EDGE_LOOP('',(#697,#698,#699,#700,#701,#702));
#134=EDGE_LOOP('',(#703,#704,#705,#706,#707,#708));
#135=EDGE_LOOP('',(#709));
#136=EDGE_LOOP('',(#710));
#137=EDGE_LOOP('',(#711));
#138=EDGE_LOOP('',(#712));
#139=EDGE_LOOP('',(#713,#714,#715,#716,#717,#718,#719,#720,#721,#722,#723,
#724));
#140=EDGE_LOOP('',(#725));
#141=EDGE_LOOP('',(#726));
#142=EDGE_LOOP('',(#727,#728,#729,#730,#731,#732,#733,#734));
#143=EDGE_LOOP('',(#735,#736,#737,#738,#739,#740));
#144=EDGE_LOOP('',(#741,#742,#743,#744,#745,#746));
#145=EDGE_LOOP('',(#747));
#146=EDGE_LOOP('',(#748));
#147=EDGE_LOOP('',(#749));
#148=EDGE_LOOP('',(#750));
#149=LINE('',#1165,#219);
#150=LINE('',#1168,#220);
#151=LINE('',#1171,#221);
#152=LINE('',#1173,#222);
#153=LINE('',#1174,#223);
#154=LINE('',#1180,#224);
#155=LINE('',#1183,#225);
#156=LINE('',#1185,#226);
#157=LINE('',#1186,#227);
#158=LINE('',#1192,#228);
#159=LINE('',#1195,#229);
#160=LINE('',#1198,#230);
#161=LINE('',#1200,#231);
#162=LINE('',#1201,#232);
#163=LINE('',#1207,#233);
#164=LINE('',#1210,#234);
#165=LINE('',#1212,#235);
#166=LINE('',#1213,#236);
#167=LINE('',#1219,#237);
#168=LINE('',#1222,#238);
#169=LINE('',#1224,#239);
#170=LINE('',#1225,#240);
#171=LINE('',#1230,#241);
#172=LINE('',#1233,#242);
#173=LINE('',#1234,#243);
#174=LINE('',#1240,#244);
#175=LINE('',#1243,#245);
#176=LINE('',#1246,#246);
#177=LINE('',#1248,#247);
#178=LINE('',#1249,#248);
#179=LINE('',#1254,#249);
#180=LINE('',#1258,#250);
#181=LINE('',#1260,#251);
#182=LINE('',#1261,#252);
#183=LINE('',#1267,#253);
#184=LINE('',#1270,#254);
#185=LINE('',#1273,#255);
#186=LINE('',#1275,#256);
#187=LINE('',#1276,#257);
#188=LINE('',#1282,#258);
#189=LINE('',#1285,#259);
#190=LINE('',#1287,#260);
#191=LINE('',#1288,#261);
#192=LINE('',#1293,#262);
#193=LINE('',#1296,#263);
#194=LINE('',#1297,#264);
#195=LINE('',#1302,#265);
#196=LINE('',#1305,#266);
#197=LINE('',#1306,#267);
#198=LINE('',#1311,#268);
#199=LINE('',#1317,#269);
#200=LINE('',#1323,#270);
#201=LINE('',#1329,#271);
#202=LINE('',#1335,#272);
#203=LINE('',#1341,#273);
#204=LINE('',#1347,#274);
#205=LINE('',#1351,#275);
#206=LINE('',#1353,#276);
#207=LINE('',#1354,#277);
#208=LINE('',#1360,#278);
#209=LINE('',#1363,#279);
#210=LINE('',#1365,#280);
#211=LINE('',#1366,#281);
#212=LINE('',#1372,#282);
#213=LINE('',#1375,#283);
#214=LINE('',#1377,#284);
#215=LINE('',#1378,#285);
#216=LINE('',#1384,#286);
#217=LINE('',#1386,#287);
#218=LINE('',#1387,#288);
#219=VECTOR('',#925,0.393700787401575);
#220=VECTOR('',#928,0.393700787401575);
#221=VECTOR('',#931,0.393700787401575);
#222=VECTOR('',#932,0.393700787401575);
#223=VECTOR('',#933,0.393700787401575);
#224=VECTOR('',#938,0.393700787401575);
#225=VECTOR('',#941,0.393700787401575);
#226=VECTOR('',#944,0.393700787401575);
#227=VECTOR('',#945,0.393700787401575);
#228=VECTOR('',#950,0.393700787401575);
#229=VECTOR('',#953,0.393700787401575);
#230=VECTOR('',#956,0.393700787401575);
#231=VECTOR('',#957,0.393700787401575);
#232=VECTOR('',#958,0.393700787401575);
#233=VECTOR('',#963,0.393700787401575);
#234=VECTOR('',#966,0.393700787401575);
#235=VECTOR('',#969,0.393700787401575);
#236=VECTOR('',#970,0.393700787401575);
#237=VECTOR('',#975,0.393700787401575);
#238=VECTOR('',#978,0.393700787401575);
#239=VECTOR('',#981,0.393700787401575);
#240=VECTOR('',#982,0.393700787401575);
#241=VECTOR('',#987,0.393700787401575);
#242=VECTOR('',#992,0.393700787401575);
#243=VECTOR('',#993,0.393700787401575);
#244=VECTOR('',#998,0.393700787401575);
#245=VECTOR('',#1001,0.393700787401575);
#246=VECTOR('',#1004,0.393700787401575);
#247=VECTOR('',#1005,0.393700787401575);
#248=VECTOR('',#1006,0.393700787401575);
#249=VECTOR('',#1011,0.393700787401575);
#250=VECTOR('',#1016,0.393700787401575);
#251=VECTOR('',#1017,0.393700787401575);
#252=VECTOR('',#1018,0.393700787401575);
#253=VECTOR('',#1023,0.393700787401575);
#254=VECTOR('',#1026,0.393700787401575);
#255=VECTOR('',#1029,0.393700787401575);
#256=VECTOR('',#1030,0.393700787401575);
#257=VECTOR('',#1031,0.393700787401575);
#258=VECTOR('',#1036,0.393700787401575);
#259=VECTOR('',#1039,0.393700787401575);
#260=VECTOR('',#1042,0.393700787401575);
#261=VECTOR('',#1043,0.393700787401575);
#262=VECTOR('',#1048,0.393700787401575);
#263=VECTOR('',#1053,0.393700787401575);
#264=VECTOR('',#1054,0.393700787401575);
#265=VECTOR('',#1059,0.393700787401575);
#266=VECTOR('',#1064,0.393700787401575);
#267=VECTOR('',#1065,0.393700787401575);
#268=VECTOR('',#1070,0.086);
#269=VECTOR('',#1077,0.086);
#270=VECTOR('',#1084,0.086);
#271=VECTOR('',#1091,0.086);
#272=VECTOR('',#1098,0.086);
#273=VECTOR('',#1105,0.086);
#274=VECTOR('',#1112,0.393700787401575);
#275=VECTOR('',#1117,0.393700787401575);
#276=VECTOR('',#1118,0.393700787401575);
#277=VECTOR('',#1119,0.393700787401575);
#278=VECTOR('',#1126,0.393700787401575);
#279=VECTOR('',#1129,0.393700787401575);
#280=VECTOR('',#1130,0.393700787401575);
#281=VECTOR('',#1131,0.393700787401575);
#282=VECTOR('',#1138,0.393700787401575);
#283=VECTOR('',#1141,0.393700787401575);
#284=VECTOR('',#1142,0.393700787401575);
#285=VECTOR('',#1143,0.393700787401575);
#286=VECTOR('',#1150,0.393700787401575);
#287=VECTOR('',#1153,0.393700787401575);
#288=VECTOR('',#1154,0.393700787401575);
#289=CIRCLE('',#836,0.1);
#290=CIRCLE('',#837,0.1);
#291=CIRCLE('',#840,0.1);
#292=CIRCLE('',#841,0.1);
#293=CIRCLE('',#844,0.1);
#294=CIRCLE('',#845,0.1);
#295=CIRCLE('',#848,0.1);
#296=CIRCLE('',#849,0.1);
#297=CIRCLE('',#852,0.1);
#298=CIRCLE('',#853,0.1);
#299=CIRCLE('',#856,0.1);
#300=CIRCLE('',#857,0.1);
#301=CIRCLE('',#860,0.1);
#302=CIRCLE('',#861,0.1);
#303=CIRCLE('',#864,0.1);
#304=CIRCLE('',#865,0.1);
#305=CIRCLE('',#868,0.1);
#306=CIRCLE('',#869,0.1);
#307=CIRCLE('',#872,0.1);
#308=CIRCLE('',#873,0.1);
#309=CIRCLE('',#876,0.1);
#310=CIRCLE('',#877,0.1);
#311=CIRCLE('',#880,0.1);
#312=CIRCLE('',#881,0.1);
#313=CIRCLE('',#884,0.086);
#314=CIRCLE('',#885,0.086);
#315=CIRCLE('',#887,0.086);
#316=CIRCLE('',#888,0.086);
#317=CIRCLE('',#890,0.086);
#318=CIRCLE('',#891,0.086);
#319=CIRCLE('',#893,0.086);
#320=CIRCLE('',#894,0.086);
#321=CIRCLE('',#896,0.086);
#322=CIRCLE('',#897,0.086);
#323=CIRCLE('',#899,0.086);
#324=CIRCLE('',#900,0.086);
#325=CIRCLE('',#902,0.1875);
#326=CIRCLE('',#903,0.1875);
#327=CIRCLE('',#906,0.1875);
#328=CIRCLE('',#907,0.1875);
#329=CIRCLE('',#910,0.1875);
#330=CIRCLE('',#911,0.1875);
#331=CIRCLE('',#914,0.1875);
#332=CIRCLE('',#915,0.1875);
#333=VERTEX_POINT('',#1161);
#334=VERTEX_POINT('',#1162);
#335=VERTEX_POINT('',#1164);
#336=VERTEX_POINT('',#1166);
#337=VERTEX_POINT('',#1170);
#338=VERTEX_POINT('',#1172);
#339=VERTEX_POINT('',#1176);
#340=VERTEX_POINT('',#1177);
#341=VERTEX_POINT('',#1179);
#342=VERTEX_POINT('',#1181);
#343=VERTEX_POINT('',#1188);
#344=VERTEX_POINT('',#1189);
#345=VERTEX_POINT('',#1191);
#346=VERTEX_POINT('',#1193);
#347=VERTEX_POINT('',#1197);
#348=VERTEX_POINT('',#1199);
#349=VERTEX_POINT('',#1203);
#350=VERTEX_POINT('',#1204);
#351=VERTEX_POINT('',#1206);
#352=VERTEX_POINT('',#1208);
#353=VERTEX_POINT('',#1215);
#354=VERTEX_POINT('',#1216);
#355=VERTEX_POINT('',#1218);
#356=VERTEX_POINT('',#1220);
#357=VERTEX_POINT('',#1227);
#358=VERTEX_POINT('',#1229);
#359=VERTEX_POINT('',#1236);
#360=VERTEX_POINT('',#1237);
#361=VERTEX_POINT('',#1239);
#362=VERTEX_POINT('',#1241);
#363=VERTEX_POINT('',#1245);
#364=VERTEX_POINT('',#1247);
#365=VERTEX_POINT('',#1251);
#366=VERTEX_POINT('',#1253);
#367=VERTEX_POINT('',#1257);
#368=VERTEX_POINT('',#1259);
#369=VERTEX_POINT('',#1263);
#370=VERTEX_POINT('',#1264);
#371=VERTEX_POINT('',#1266);
#372=VERTEX_POINT('',#1268);
#373=VERTEX_POINT('',#1272);
#374=VERTEX_POINT('',#1274);
#375=VERTEX_POINT('',#1278);
#376=VERTEX_POINT('',#1279);
#377=VERTEX_POINT('',#1281);
#378=VERTEX_POINT('',#1283);
#379=VERTEX_POINT('',#1290);
#380=VERTEX_POINT('',#1292);
#381=VERTEX_POINT('',#1299);
#382=VERTEX_POINT('',#1301);
#383=VERTEX_POINT('',#1308);
#384=VERTEX_POINT('',#1310);
#385=VERTEX_POINT('',#1314);
#386=VERTEX_POINT('',#1316);
#387=VERTEX_POINT('',#1320);
#388=VERTEX_POINT('',#1322);
#389=VERTEX_POINT('',#1326);
#390=VERTEX_POINT('',#1328);
#391=VERTEX_POINT('',#1332);
#392=VERTEX_POINT('',#1334);
#393=VERTEX_POINT('',#1338);
#394=VERTEX_POINT('',#1340);
#395=VERTEX_POINT('',#1344);
#396=VERTEX_POINT('',#1346);
#397=VERTEX_POINT('',#1350);
#398=VERTEX_POINT('',#1352);
#399=VERTEX_POINT('',#1356);
#400=VERTEX_POINT('',#1358);
#401=VERTEX_POINT('',#1362);
#402=VERTEX_POINT('',#1364);
#403=VERTEX_POINT('',#1368);
#404=VERTEX_POINT('',#1370);
#405=VERTEX_POINT('',#1374);
#406=VERTEX_POINT('',#1376);
#407=VERTEX_POINT('',#1380);
#408=VERTEX_POINT('',#1382);
#409=EDGE_CURVE('',#333,#334,#289,.T.);
#410=EDGE_CURVE('',#334,#335,#149,.T.);
#411=EDGE_CURVE('',#335,#336,#290,.T.);
#412=EDGE_CURVE('',#336,#333,#150,.T.);
#413=EDGE_CURVE('',#334,#337,#151,.T.);
#414=EDGE_CURVE('',#338,#337,#152,.T.);
#415=EDGE_CURVE('',#335,#338,#153,.T.);
#416=EDGE_CURVE('',#339,#340,#291,.T.);
#417=EDGE_CURVE('',#340,#341,#154,.T.);
#418=EDGE_CURVE('',#341,#342,#292,.T.);
#419=EDGE_CURVE('',#342,#339,#155,.T.);
#420=EDGE_CURVE('',#341,#336,#156,.T.);
#421=EDGE_CURVE('',#340,#333,#157,.T.);
#422=EDGE_CURVE('',#343,#344,#293,.T.);
#423=EDGE_CURVE('',#344,#345,#158,.T.);
#424=EDGE_CURVE('',#345,#346,#294,.T.);
#425=EDGE_CURVE('',#346,#343,#159,.T.);
#426=EDGE_CURVE('',#344,#347,#160,.T.);
#427=EDGE_CURVE('',#347,#348,#161,.T.);
#428=EDGE_CURVE('',#345,#348,#162,.T.);
#429=EDGE_CURVE('',#349,#350,#295,.T.);
#430=EDGE_CURVE('',#350,#351,#163,.T.);
#431=EDGE_CURVE('',#351,#352,#296,.T.);
#432=EDGE_CURVE('',#352,#349,#164,.T.);
#433=EDGE_CURVE('',#351,#346,#165,.T.);
#434=EDGE_CURVE('',#350,#343,#166,.T.);
#435=EDGE_CURVE('',#353,#354,#297,.T.);
#436=EDGE_CURVE('',#354,#355,#167,.T.);
#437=EDGE_CURVE('',#355,#356,#298,.T.);
#438=EDGE_CURVE('',#356,#353,#168,.T.);
#439=EDGE_CURVE('',#355,#342,#169,.T.);
#440=EDGE_CURVE('',#354,#339,#170,.T.);
#441=EDGE_CURVE('',#337,#357,#299,.T.);
#442=EDGE_CURVE('',#357,#358,#171,.T.);
#443=EDGE_CURVE('',#358,#338,#300,.T.);
#444=EDGE_CURVE('',#358,#356,#172,.T.);
#445=EDGE_CURVE('',#357,#353,#173,.T.);
#446=EDGE_CURVE('',#359,#360,#301,.T.);
#447=EDGE_CURVE('',#360,#361,#174,.T.);
#448=EDGE_CURVE('',#361,#362,#302,.T.);
#449=EDGE_CURVE('',#362,#359,#175,.T.);
#450=EDGE_CURVE('',#360,#363,#176,.T.);
#451=EDGE_CURVE('',#364,#363,#177,.T.);
#452=EDGE_CURVE('',#361,#364,#178,.T.);
#453=EDGE_CURVE('',#363,#365,#303,.T.);
#454=EDGE_CURVE('',#365,#366,#179,.T.);
#455=EDGE_CURVE('',#366,#364,#304,.T.);
#456=EDGE_CURVE('',#365,#367,#180,.T.);
#457=EDGE_CURVE('',#368,#367,#181,.T.);
#458=EDGE_CURVE('',#366,#368,#182,.T.);
#459=EDGE_CURVE('',#369,#370,#305,.T.);
#460=EDGE_CURVE('',#370,#371,#183,.T.);
#461=EDGE_CURVE('',#371,#372,#306,.T.);
#462=EDGE_CURVE('',#372,#369,#184,.T.);
#463=EDGE_CURVE('',#370,#373,#185,.T.);
#464=EDGE_CURVE('',#374,#373,#186,.T.);
#465=EDGE_CURVE('',#371,#374,#187,.T.);
#466=EDGE_CURVE('',#375,#376,#307,.T.);
#467=EDGE_CURVE('',#376,#377,#188,.T.);
#468=EDGE_CURVE('',#377,#378,#308,.T.);
#469=EDGE_CURVE('',#378,#375,#189,.T.);
#470=EDGE_CURVE('',#377,#372,#190,.T.);
#471=EDGE_CURVE('',#376,#369,#191,.T.);
#472=EDGE_CURVE('',#373,#379,#309,.T.);
#473=EDGE_CURVE('',#379,#380,#192,.T.);
#474=EDGE_CURVE('',#380,#374,#310,.T.);
#475=EDGE_CURVE('',#380,#378,#193,.T.);
#476=EDGE_CURVE('',#379,#375,#194,.T.);
#477=EDGE_CURVE('',#367,#381,#311,.T.);
#478=EDGE_CURVE('',#381,#382,#195,.T.);
#479=EDGE_CURVE('',#382,#368,#312,.T.);
#480=EDGE_CURVE('',#382,#362,#196,.T.);
#481=EDGE_CURVE('',#381,#359,#197,.T.);
#482=EDGE_CURVE('',#383,#383,#313,.T.);
#483=EDGE_CURVE('',#383,#384,#198,.T.);
#484=EDGE_CURVE('',#384,#384,#314,.T.);
#485=EDGE_CURVE('',#385,#385,#315,.T.);
#486=EDGE_CURVE('',#385,#386,#199,.T.);
#487=EDGE_CURVE('',#386,#386,#316,.T.);
#488=EDGE_CURVE('',#387,#387,#317,.T.);
#489=EDGE_CURVE('',#387,#388,#200,.T.);
#490=EDGE_CURVE('',#388,#388,#318,.T.);
#491=EDGE_CURVE('',#389,#389,#319,.T.);
#492=EDGE_CURVE('',#389,#390,#201,.T.);
#493=EDGE_CURVE('',#390,#390,#320,.T.);
#494=EDGE_CURVE('',#391,#391,#321,.T.);
#495=EDGE_CURVE('',#391,#392,#202,.T.);
#496=EDGE_CURVE('',#392,#392,#322,.T.);
#497=EDGE_CURVE('',#393,#393,#323,.T.);
#498=EDGE_CURVE('',#393,#394,#203,.T.);
#499=EDGE_CURVE('',#394,#394,#324,.T.);
#500=EDGE_CURVE('',#347,#395,#325,.T.);
#501=EDGE_CURVE('',#395,#396,#204,.T.);
#502=EDGE_CURVE('',#348,#396,#326,.T.);
#503=EDGE_CURVE('',#397,#352,#205,.T.);
#504=EDGE_CURVE('',#398,#397,#206,.T.);
#505=EDGE_CURVE('',#398,#349,#207,.T.);
#506=EDGE_CURVE('',#399,#398,#327,.T.);
#507=EDGE_CURVE('',#400,#397,#328,.T.);
#508=EDGE_CURVE('',#399,#400,#208,.T.);
#509=EDGE_CURVE('',#401,#399,#209,.T.);
#510=EDGE_CURVE('',#402,#400,#210,.T.);
#511=EDGE_CURVE('',#401,#402,#211,.T.);
#512=EDGE_CURVE('',#403,#401,#329,.T.);
#513=EDGE_CURVE('',#404,#402,#330,.T.);
#514=EDGE_CURVE('',#403,#404,#212,.T.);
#515=EDGE_CURVE('',#405,#403,#213,.T.);
#516=EDGE_CURVE('',#406,#404,#214,.T.);
#517=EDGE_CURVE('',#405,#406,#215,.T.);
#518=EDGE_CURVE('',#407,#405,#331,.T.);
#519=EDGE_CURVE('',#408,#406,#332,.T.);
#520=EDGE_CURVE('',#407,#408,#216,.T.);
#521=EDGE_CURVE('',#395,#407,#217,.T.);
#522=EDGE_CURVE('',#396,#408,#218,.T.);
#523=ORIENTED_EDGE('',*,*,#409,.T.);
#524=ORIENTED_EDGE('',*,*,#410,.T.);
#525=ORIENTED_EDGE('',*,*,#411,.T.);
#526=ORIENTED_EDGE('',*,*,#412,.T.);
#527=ORIENTED_EDGE('',*,*,#410,.F.);
#528=ORIENTED_EDGE('',*,*,#413,.T.);
#529=ORIENTED_EDGE('',*,*,#414,.F.);
#530=ORIENTED_EDGE('',*,*,#415,.F.);
#531=ORIENTED_EDGE('',*,*,#416,.T.);
#532=ORIENTED_EDGE('',*,*,#417,.T.);
#533=ORIENTED_EDGE('',*,*,#418,.T.);
#534=ORIENTED_EDGE('',*,*,#419,.T.);
#535=ORIENTED_EDGE('',*,*,#412,.F.);
#536=ORIENTED_EDGE('',*,*,#420,.F.);
#537=ORIENTED_EDGE('',*,*,#417,.F.);
#538=ORIENTED_EDGE('',*,*,#421,.T.);
#539=ORIENTED_EDGE('',*,*,#422,.T.);
#540=ORIENTED_EDGE('',*,*,#423,.T.);
#541=ORIENTED_EDGE('',*,*,#424,.T.);
#542=ORIENTED_EDGE('',*,*,#425,.T.);
#543=ORIENTED_EDGE('',*,*,#423,.F.);
#544=ORIENTED_EDGE('',*,*,#426,.T.);
#545=ORIENTED_EDGE('',*,*,#427,.T.);
#546=ORIENTED_EDGE('',*,*,#428,.F.);
#547=ORIENTED_EDGE('',*,*,#429,.T.);
#548=ORIENTED_EDGE('',*,*,#430,.T.);
#549=ORIENTED_EDGE('',*,*,#431,.T.);
#550=ORIENTED_EDGE('',*,*,#432,.T.);
#551=ORIENTED_EDGE('',*,*,#425,.F.);
#552=ORIENTED_EDGE('',*,*,#433,.F.);
#553=ORIENTED_EDGE('',*,*,#430,.F.);
#554=ORIENTED_EDGE('',*,*,#434,.T.);
#555=ORIENTED_EDGE('',*,*,#435,.T.);
#556=ORIENTED_EDGE('',*,*,#436,.T.);
#557=ORIENTED_EDGE('',*,*,#437,.T.);
#558=ORIENTED_EDGE('',*,*,#438,.T.);
#559=ORIENTED_EDGE('',*,*,#419,.F.);
#560=ORIENTED_EDGE('',*,*,#439,.F.);
#561=ORIENTED_EDGE('',*,*,#436,.F.);
#562=ORIENTED_EDGE('',*,*,#440,.T.);
#563=ORIENTED_EDGE('',*,*,#441,.T.);
#564=ORIENTED_EDGE('',*,*,#442,.T.);
#565=ORIENTED_EDGE('',*,*,#443,.T.);
#566=ORIENTED_EDGE('',*,*,#414,.T.);
#567=ORIENTED_EDGE('',*,*,#438,.F.);
#568=ORIENTED_EDGE('',*,*,#444,.F.);
#569=ORIENTED_EDGE('',*,*,#442,.F.);
#570=ORIENTED_EDGE('',*,*,#445,.T.);
#571=ORIENTED_EDGE('',*,*,#446,.T.);
#572=ORIENTED_EDGE('',*,*,#447,.T.);
#573=ORIENTED_EDGE('',*,*,#448,.T.);
#574=ORIENTED_EDGE('',*,*,#449,.T.);
#575=ORIENTED_EDGE('',*,*,#447,.F.);
#576=ORIENTED_EDGE('',*,*,#450,.T.);
#577=ORIENTED_EDGE('',*,*,#451,.F.);
#578=ORIENTED_EDGE('',*,*,#452,.F.);
#579=ORIENTED_EDGE('',*,*,#453,.T.);
#580=ORIENTED_EDGE('',*,*,#454,.T.);
#581=ORIENTED_EDGE('',*,*,#455,.T.);
#582=ORIENTED_EDGE('',*,*,#451,.T.);
#583=ORIENTED_EDGE('',*,*,#454,.F.);
#584=ORIENTED_EDGE('',*,*,#456,.T.);
#585=ORIENTED_EDGE('',*,*,#457,.F.);
#586=ORIENTED_EDGE('',*,*,#458,.F.);
#587=ORIENTED_EDGE('',*,*,#459,.T.);
#588=ORIENTED_EDGE('',*,*,#460,.T.);
#589=ORIENTED_EDGE('',*,*,#461,.T.);
#590=ORIENTED_EDGE('',*,*,#462,.T.);
#591=ORIENTED_EDGE('',*,*,#460,.F.);
#592=ORIENTED_EDGE('',*,*,#463,.T.);
#593=ORIENTED_EDGE('',*,*,#464,.F.);
#594=ORIENTED_EDGE('',*,*,#465,.F.);
#595=ORIENTED_EDGE('',*,*,#466,.T.);
#596=ORIENTED_EDGE('',*,*,#467,.T.);
#597=ORIENTED_EDGE('',*,*,#468,.T.);
#598=ORIENTED_EDGE('',*,*,#469,.T.);
#599=ORIENTED_EDGE('',*,*,#462,.F.);
#600=ORIENTED_EDGE('',*,*,#470,.F.);
#601=ORIENTED_EDGE('',*,*,#467,.F.);
#602=ORIENTED_EDGE('',*,*,#471,.T.);
#603=ORIENTED_EDGE('',*,*,#472,.T.);
#604=ORIENTED_EDGE('',*,*,#473,.T.);
#605=ORIENTED_EDGE('',*,*,#474,.T.);
#606=ORIENTED_EDGE('',*,*,#464,.T.);
#607=ORIENTED_EDGE('',*,*,#469,.F.);
#608=ORIENTED_EDGE('',*,*,#475,.F.);
#609=ORIENTED_EDGE('',*,*,#473,.F.);
#610=ORIENTED_EDGE('',*,*,#476,.T.);
#611=ORIENTED_EDGE('',*,*,#477,.T.);
#612=ORIENTED_EDGE('',*,*,#478,.T.);
#613=ORIENTED_EDGE('',*,*,#479,.T.);
#614=ORIENTED_EDGE('',*,*,#457,.T.);
#615=ORIENTED_EDGE('',*,*,#449,.F.);
#616=ORIENTED_EDGE('',*,*,#480,.F.);
#617=ORIENTED_EDGE('',*,*,#478,.F.);
#618=ORIENTED_EDGE('',*,*,#481,.T.);
#619=ORIENTED_EDGE('',*,*,#482,.F.);
#620=ORIENTED_EDGE('',*,*,#483,.T.);
#621=ORIENTED_EDGE('',*,*,#484,.T.);
#622=ORIENTED_EDGE('',*,*,#483,.F.);
#623=ORIENTED_EDGE('',*,*,#485,.F.);
#624=ORIENTED_EDGE('',*,*,#486,.T.);
#625=ORIENTED_EDGE('',*,*,#487,.T.);
#626=ORIENTED_EDGE('',*,*,#486,.F.);
#627=ORIENTED_EDGE('',*,*,#488,.F.);
#628=ORIENTED_EDGE('',*,*,#489,.T.);
#629=ORIENTED_EDGE('',*,*,#490,.T.);
#630=ORIENTED_EDGE('',*,*,#489,.F.);
#631=ORIENTED_EDGE('',*,*,#491,.F.);
#632=ORIENTED_EDGE('',*,*,#492,.T.);
#633=ORIENTED_EDGE('',*,*,#493,.T.);
#634=ORIENTED_EDGE('',*,*,#492,.F.);
#635=ORIENTED_EDGE('',*,*,#494,.F.);
#636=ORIENTED_EDGE('',*,*,#495,.T.);
#637=ORIENTED_EDGE('',*,*,#496,.T.);
#638=ORIENTED_EDGE('',*,*,#495,.F.);
#639=ORIENTED_EDGE('',*,*,#497,.F.);
#640=ORIENTED_EDGE('',*,*,#498,.T.);
#641=ORIENTED_EDGE('',*,*,#499,.T.);
#642=ORIENTED_EDGE('',*,*,#498,.F.);
#643=ORIENTED_EDGE('',*,*,#500,.T.);
#644=ORIENTED_EDGE('',*,*,#501,.T.);
#645=ORIENTED_EDGE('',*,*,#502,.F.);
#646=ORIENTED_EDGE('',*,*,#427,.F.);
#647=ORIENTED_EDGE('',*,*,#432,.F.);
#648=ORIENTED_EDGE('',*,*,#503,.F.);
#649=ORIENTED_EDGE('',*,*,#504,.F.);
#650=ORIENTED_EDGE('',*,*,#505,.T.);
#651=ORIENTED_EDGE('',*,*,#506,.T.);
#652=ORIENTED_EDGE('',*,*,#504,.T.);
#653=ORIENTED_EDGE('',*,*,#507,.F.);
#654=ORIENTED_EDGE('',*,*,#508,.F.);
#655=ORIENTED_EDGE('',*,*,#509,.T.);
#656=ORIENTED_EDGE('',*,*,#508,.T.);
#657=ORIENTED_EDGE('',*,*,#510,.F.);
#658=ORIENTED_EDGE('',*,*,#511,.F.);
#659=ORIENTED_EDGE('',*,*,#512,.T.);
#660=ORIENTED_EDGE('',*,*,#511,.T.);
#661=ORIENTED_EDGE('',*,*,#513,.F.);
#662=ORIENTED_EDGE('',*,*,#514,.F.);
#663=ORIENTED_EDGE('',*,*,#515,.T.);
#664=ORIENTED_EDGE('',*,*,#514,.T.);
#665=ORIENTED_EDGE('',*,*,#516,.F.);
#666=ORIENTED_EDGE('',*,*,#517,.F.);
#667=ORIENTED_EDGE('',*,*,#518,.T.);
#668=ORIENTED_EDGE('',*,*,#517,.T.);
#669=ORIENTED_EDGE('',*,*,#519,.F.);
#670=ORIENTED_EDGE('',*,*,#520,.F.);
#671=ORIENTED_EDGE('',*,*,#521,.T.);
#672=ORIENTED_EDGE('',*,*,#520,.T.);
#673=ORIENTED_EDGE('',*,*,#522,.F.);
#674=ORIENTED_EDGE('',*,*,#501,.F.);
#675=ORIENTED_EDGE('',*,*,#522,.T.);
#676=ORIENTED_EDGE('',*,*,#519,.T.);
#677=ORIENTED_EDGE('',*,*,#516,.T.);
#678=ORIENTED_EDGE('',*,*,#513,.T.);
#679=ORIENTED_EDGE('',*,*,#510,.T.);
#680=ORIENTED_EDGE('',*,*,#507,.T.);
#681=ORIENTED_EDGE('',*,*,#503,.T.);
#682=ORIENTED_EDGE('',*,*,#431,.F.);
#683=ORIENTED_EDGE('',*,*,#433,.T.);
#684=ORIENTED_EDGE('',*,*,#424,.F.);
#685=ORIENTED_EDGE('',*,*,#428,.T.);
#686=ORIENTED_EDGE('',*,*,#502,.T.);
#687=ORIENTED_EDGE('',*,*,#497,.T.);
#688=ORIENTED_EDGE('',*,*,#494,.T.);
#689=ORIENTED_EDGE('',*,*,#415,.T.);
#690=ORIENTED_EDGE('',*,*,#443,.F.);
#691=ORIENTED_EDGE('',*,*,#444,.T.);
#692=ORIENTED_EDGE('',*,*,#437,.F.);
#693=ORIENTED_EDGE('',*,*,#439,.T.);
#694=ORIENTED_EDGE('',*,*,#418,.F.);
#695=ORIENTED_EDGE('',*,*,#420,.T.);
#696=ORIENTED_EDGE('',*,*,#411,.F.);
#697=ORIENTED_EDGE('',*,*,#475,.T.);
#698=ORIENTED_EDGE('',*,*,#468,.F.);
#699=ORIENTED_EDGE('',*,*,#470,.T.);
#700=ORIENTED_EDGE('',*,*,#461,.F.);
#701=ORIENTED_EDGE('',*,*,#465,.T.);
#702=ORIENTED_EDGE('',*,*,#474,.F.);
#703=ORIENTED_EDGE('',*,*,#480,.T.);
#704=ORIENTED_EDGE('',*,*,#448,.F.);
#705=ORIENTED_EDGE('',*,*,#452,.T.);
#706=ORIENTED_EDGE('',*,*,#455,.F.);
#707=ORIENTED_EDGE('',*,*,#458,.T.);
#708=ORIENTED_EDGE('',*,*,#479,.F.);
#709=ORIENTED_EDGE('',*,*,#491,.T.);
#710=ORIENTED_EDGE('',*,*,#488,.T.);
#711=ORIENTED_EDGE('',*,*,#485,.T.);
#712=ORIENTED_EDGE('',*,*,#482,.T.);
#713=ORIENTED_EDGE('',*,*,#521,.F.);
#714=ORIENTED_EDGE('',*,*,#500,.F.);
#715=ORIENTED_EDGE('',*,*,#426,.F.);
#716=ORIENTED_EDGE('',*,*,#422,.F.);
#717=ORIENTED_EDGE('',*,*,#434,.F.);
#718=ORIENTED_EDGE('',*,*,#429,.F.);
#719=ORIENTED_EDGE('',*,*,#505,.F.);
#720=ORIENTED_EDGE('',*,*,#506,.F.);
#721=ORIENTED_EDGE('',*,*,#509,.F.);
#722=ORIENTED_EDGE('',*,*,#512,.F.);
#723=ORIENTED_EDGE('',*,*,#515,.F.);
#724=ORIENTED_EDGE('',*,*,#518,.F.);
#725=ORIENTED_EDGE('',*,*,#499,.F.);
#726=ORIENTED_EDGE('',*,*,#496,.F.);
#727=ORIENTED_EDGE('',*,*,#409,.F.);
#728=ORIENTED_EDGE('',*,*,#421,.F.);
#729=ORIENTED_EDGE('',*,*,#416,.F.);
#730=ORIENTED_EDGE('',*,*,#440,.F.);
#731=ORIENTED_EDGE('',*,*,#435,.F.);
#732=ORIENTED_EDGE('',*,*,#445,.F.);
#733=ORIENTED_EDGE('',*,*,#441,.F.);
#734=ORIENTED_EDGE('',*,*,#413,.F.);
#735=ORIENTED_EDGE('',*,*,#472,.F.);
#736=ORIENTED_EDGE('',*,*,#463,.F.);
#737=ORIENTED_EDGE('',*,*,#459,.F.);
#738=ORIENTED_EDGE('',*,*,#471,.F.);
#739=ORIENTED_EDGE('',*,*,#466,.F.);
#740=ORIENTED_EDGE('',*,*,#476,.F.);
#741=ORIENTED_EDGE('',*,*,#477,.F.);
#742=ORIENTED_EDGE('',*,*,#456,.F.);
#743=ORIENTED_EDGE('',*,*,#453,.F.);
#744=ORIENTED_EDGE('',*,*,#450,.F.);
#745=ORIENTED_EDGE('',*,*,#446,.F.);
#746=ORIENTED_EDGE('',*,*,#481,.F.);
#747=ORIENTED_EDGE('',*,*,#493,.F.);
#748=ORIENTED_EDGE('',*,*,#490,.F.);
#749=ORIENTED_EDGE('',*,*,#487,.F.);
#750=ORIENTED_EDGE('',*,*,#484,.F.);
#751=CYLINDRICAL_SURFACE('',#835,0.1);
#752=CYLINDRICAL_SURFACE('',#839,0.1);
#753=CYLINDRICAL_SURFACE('',#843,0.1);
#754=CYLINDRICAL_SURFACE('',#847,0.1);
#755=CYLINDRICAL_SURFACE('',#851,0.1);
#756=CYLINDRICAL_SURFACE('',#855,0.1);
#757=CYLINDRICAL_SURFACE('',#859,0.1);
#758=CYLINDRICAL_SURFACE('',#863,0.1);
#759=CYLINDRICAL_SURFACE('',#867,0.1);
#760=CYLINDRICAL_SURFACE('',#871,0.1);
#761=CYLINDRICAL_SURFACE('',#875,0.1);
#762=CYLINDRICAL_SURFACE('',#879,0.1);
#763=CYLINDRICAL_SURFACE('',#883,0.086);
#764=CYLINDRICAL_SURFACE('',#886,0.086);
#765=CYLINDRICAL_SURFACE('',#889,0.086);
#766=CYLINDRICAL_SURFACE('',#892,0.086);
#767=CYLINDRICAL_SURFACE('',#895,0.086);
#768=CYLINDRICAL_SURFACE('',#898,0.086);
#769=CYLINDRICAL_SURFACE('',#901,0.1875);
#770=CYLINDRICAL_SURFACE('',#905,0.1875);
#771=CYLINDRICAL_SURFACE('',#909,0.1875);
#772=CYLINDRICAL_SURFACE('',#913,0.1875);
#773=ADVANCED_FACE('',(#51),#751,.F.);
#774=ADVANCED_FACE('',(#52),#33,.T.);
#775=ADVANCED_FACE('',(#53),#752,.F.);
#776=ADVANCED_FACE('',(#54),#34,.T.);
#777=ADVANCED_FACE('',(#55),#753,.F.);
#778=ADVANCED_FACE('',(#56),#35,.T.);
#779=ADVANCED_FACE('',(#57),#754,.F.);
#780=ADVANCED_FACE('',(#58),#36,.T.);
#781=ADVANCED_FACE('',(#59),#755,.F.);
#782=ADVANCED_FACE('',(#60),#37,.T.);
#783=ADVANCED_FACE('',(#61),#756,.F.);
#784=ADVANCED_FACE('',(#62),#38,.T.);
#785=ADVANCED_FACE('',(#63),#757,.F.);
#786=ADVANCED_FACE('',(#64),#39,.T.);
#787=ADVANCED_FACE('',(#65),#758,.F.);
#788=ADVANCED_FACE('',(#66),#40,.T.);
#789=ADVANCED_FACE('',(#67),#759,.F.);
#790=ADVANCED_FACE('',(#68),#41,.T.);
#791=ADVANCED_FACE('',(#69),#760,.F.);
#792=ADVANCED_FACE('',(#70),#42,.T.);
#793=ADVANCED_FACE('',(#71),#761,.F.);
#794=ADVANCED_FACE('',(#72),#43,.T.);
#795=ADVANCED_FACE('',(#73),#762,.F.);
#796=ADVANCED_FACE('',(#74),#44,.T.);
#797=ADVANCED_FACE('',(#75),#763,.F.);
#798=ADVANCED_FACE('',(#76),#764,.F.);
#799=ADVANCED_FACE('',(#77),#765,.F.);
#800=ADVANCED_FACE('',(#78),#766,.F.);
#801=ADVANCED_FACE('',(#79),#767,.F.);
#802=ADVANCED_FACE('',(#80),#768,.F.);
#803=ADVANCED_FACE('',(#81),#769,.T.);
#804=ADVANCED_FACE('',(#82),#45,.T.);
#805=ADVANCED_FACE('',(#83),#770,.T.);
#806=ADVANCED_FACE('',(#84),#46,.T.);
#807=ADVANCED_FACE('',(#85),#771,.T.);
#808=ADVANCED_FACE('',(#86),#47,.T.);
#809=ADVANCED_FACE('',(#87),#772,.T.);
#810=ADVANCED_FACE('',(#88),#48,.T.);
#811=ADVANCED_FACE('',(#89,#15,#16,#17,#18,#19,#20,#21,#22,#23),#49,.T.);
#812=ADVANCED_FACE('',(#90,#24,#25,#26,#27,#28,#29,#30,#31,#32),#50,.F.);
#813=CLOSED_SHELL('',(#773,#774,#775,#776,#777,#778,#779,#780,#781,#782,
#783,#784,#785,#786,#787,#788,#789,#790,#791,#792,#793,#794,#795,#796,#797,
#798,#799,#800,#801,#802,#803,#804,#805,#806,#807,#808,#809,#810,#811,#812));
#814=DERIVED_UNIT_ELEMENT(#816,1.);
#815=DERIVED_UNIT_ELEMENT(#1398,-3.);
#816=(
CONVERSION_BASED_UNIT('gram',#818)
MASS_UNIT()
NAMED_UNIT(#1395)
);
#817=(
MASS_UNIT()
NAMED_UNIT(*)
SI_UNIT(.KILO.,.GRAM.)
);
#818=MASS_MEASURE_WITH_UNIT(MASS_MEASURE(0.001),#817);
#819=DERIVED_UNIT((#814,#815));
#820=MEASURE_REPRESENTATION_ITEM('density measure',
POSITIVE_RATIO_MEASURE(1.),#819);
#821=PROPERTY_DEFINITION_REPRESENTATION(#826,#823);
#822=PROPERTY_DEFINITION_REPRESENTATION(#827,#824);
#823=REPRESENTATION('material name',(#825),#1392);
#824=REPRESENTATION('density',(#820),#1392);
#825=DESCRIPTIVE_REPRESENTATION_ITEM('Generic','Generic');
#826=PROPERTY_DEFINITION('material property','material name',#1406);
#827=PROPERTY_DEFINITION('material property','density of part',#1406);
#828=DATE_TIME_ROLE('creation_date');
#829=APPLIED_DATE_AND_TIME_ASSIGNMENT(#830,#828,(#1406));
#830=DATE_AND_TIME(#831,#832);
#831=CALENDAR_DATE(2025,5,12);
#832=LOCAL_TIME(0,0,0.,#833);
#833=COORDINATED_UNIVERSAL_TIME_OFFSET(0,0,.BEHIND.);
#834=AXIS2_PLACEMENT_3D('',#1159,#919,#920);
#835=AXIS2_PLACEMENT_3D('',#1160,#921,#922);
#836=AXIS2_PLACEMENT_3D('',#1163,#923,#924);
#837=AXIS2_PLACEMENT_3D('',#1167,#926,#927);
#838=AXIS2_PLACEMENT_3D('',#1169,#929,#930);
#839=AXIS2_PLACEMENT_3D('',#1175,#934,#935);
#840=AXIS2_PLACEMENT_3D('',#1178,#936,#937);
#841=AXIS2_PLACEMENT_3D('',#1182,#939,#940);
#842=AXIS2_PLACEMENT_3D('',#1184,#942,#943);
#843=AXIS2_PLACEMENT_3D('',#1187,#946,#947);
#844=AXIS2_PLACEMENT_3D('',#1190,#948,#949);
#845=AXIS2_PLACEMENT_3D('',#1194,#951,#952);
#846=AXIS2_PLACEMENT_3D('',#1196,#954,#955);
#847=AXIS2_PLACEMENT_3D('',#1202,#959,#960);
#848=AXIS2_PLACEMENT_3D('',#1205,#961,#962);
#849=AXIS2_PLACEMENT_3D('',#1209,#964,#965);
#850=AXIS2_PLACEMENT_3D('',#1211,#967,#968);
#851=AXIS2_PLACEMENT_3D('',#1214,#971,#972);
#852=AXIS2_PLACEMENT_3D('',#1217,#973,#974);
#853=AXIS2_PLACEMENT_3D('',#1221,#976,#977);
#854=AXIS2_PLACEMENT_3D('',#1223,#979,#980);
#855=AXIS2_PLACEMENT_3D('',#1226,#983,#984);
#856=AXIS2_PLACEMENT_3D('',#1228,#985,#986);
#857=AXIS2_PLACEMENT_3D('',#1231,#988,#989);
#858=AXIS2_PLACEMENT_3D('',#1232,#990,#991);
#859=AXIS2_PLACEMENT_3D('',#1235,#994,#995);
#860=AXIS2_PLACEMENT_3D('',#1238,#996,#997);
#861=AXIS2_PLACEMENT_3D('',#1242,#999,#1000);
#862=AXIS2_PLACEMENT_3D('',#1244,#1002,#1003);
#863=AXIS2_PLACEMENT_3D('',#1250,#1007,#1008);
#864=AXIS2_PLACEMENT_3D('',#1252,#1009,#1010);
#865=AXIS2_PLACEMENT_3D('',#1255,#1012,#1013);
#866=AXIS2_PLACEMENT_3D('',#1256,#1014,#1015);
#867=AXIS2_PLACEMENT_3D('',#1262,#1019,#1020);
#868=AXIS2_PLACEMENT_3D('',#1265,#1021,#1022);
#869=AXIS2_PLACEMENT_3D('',#1269,#1024,#1025);
#870=AXIS2_PLACEMENT_3D('',#1271,#1027,#1028);
#871=AXIS2_PLACEMENT_3D('',#1277,#1032,#1033);
#872=AXIS2_PLACEMENT_3D('',#1280,#1034,#1035);
#873=AXIS2_PLACEMENT_3D('',#1284,#1037,#1038);
#874=AXIS2_PLACEMENT_3D('',#1286,#1040,#1041);
#875=AXIS2_PLACEMENT_3D('',#1289,#1044,#1045);
#876=AXIS2_PLACEMENT_3D('',#1291,#1046,#1047);
#877=AXIS2_PLACEMENT_3D('',#1294,#1049,#1050);
#878=AXIS2_PLACEMENT_3D('',#1295,#1051,#1052);
#879=AXIS2_PLACEMENT_3D('',#1298,#1055,#1056);
#880=AXIS2_PLACEMENT_3D('',#1300,#1057,#1058);
#881=AXIS2_PLACEMENT_3D('',#1303,#1060,#1061);
#882=AXIS2_PLACEMENT_3D('',#1304,#1062,#1063);
#883=AXIS2_PLACEMENT_3D('',#1307,#1066,#1067);
#884=AXIS2_PLACEMENT_3D('',#1309,#1068,#1069);
#885=AXIS2_PLACEMENT_3D('',#1312,#1071,#1072);
#886=AXIS2_PLACEMENT_3D('',#1313,#1073,#1074);
#887=AXIS2_PLACEMENT_3D('',#1315,#1075,#1076);
#888=AXIS2_PLACEMENT_3D('',#1318,#1078,#1079);
#889=AXIS2_PLACEMENT_3D('',#1319,#1080,#1081);
#890=AXIS2_PLACEMENT_3D('',#1321,#1082,#1083);
#891=AXIS2_PLACEMENT_3D('',#1324,#1085,#1086);
#892=AXIS2_PLACEMENT_3D('',#1325,#1087,#1088);
#893=AXIS2_PLACEMENT_3D('',#1327,#1089,#1090);
#894=AXIS2_PLACEMENT_3D('',#1330,#1092,#1093);
#895=AXIS2_PLACEMENT_3D('',#1331,#1094,#1095);
#896=AXIS2_PLACEMENT_3D('',#1333,#1096,#1097);
#897=AXIS2_PLACEMENT_3D('',#1336,#1099,#1100);
#898=AXIS2_PLACEMENT_3D('',#1337,#1101,#1102);
#899=AXIS2_PLACEMENT_3D('',#1339,#1103,#1104);
#900=AXIS2_PLACEMENT_3D('',#1342,#1106,#1107);
#901=AXIS2_PLACEMENT_3D('',#1343,#1108,#1109);
#902=AXIS2_PLACEMENT_3D('',#1345,#1110,#1111);
#903=AXIS2_PLACEMENT_3D('',#1348,#1113,#1114);
#904=AXIS2_PLACEMENT_3D('',#1349,#1115,#1116);
#905=AXIS2_PLACEMENT_3D('',#1355,#1120,#1121);
#906=AXIS2_PLACEMENT_3D('',#1357,#1122,#1123);
#907=AXIS2_PLACEMENT_3D('',#1359,#1124,#1125);
#908=AXIS2_PLACEMENT_3D('',#1361,#1127,#1128);
#909=AXIS2_PLACEMENT_3D('',#1367,#1132,#1133);
#910=AXIS2_PLACEMENT_3D('',#1369,#1134,#1135);
#911=AXIS2_PLACEMENT_3D('',#1371,#1136,#1137);
#912=AXIS2_PLACEMENT_3D('',#1373,#1139,#1140);
#913=AXIS2_PLACEMENT_3D('',#1379,#1144,#1145);
#914=AXIS2_PLACEMENT_3D('',#1381,#1146,#1147);
#915=AXIS2_PLACEMENT_3D('',#1383,#1148,#1149);
#916=AXIS2_PLACEMENT_3D('',#1385,#1151,#1152);
#917=AXIS2_PLACEMENT_3D('',#1388,#1155,#1156);
#918=AXIS2_PLACEMENT_3D('',#1389,#1157,#1158);
#919=DIRECTION('axis',(0.,0.,1.));
#920=DIRECTION('refdir',(1.,0.,0.));
#921=DIRECTION('center_axis',(0.,0.,1.));
#922=DIRECTION('ref_axis',(-0.382683432365091,-0.923879532511287,0.));
#923=DIRECTION('center_axis',(0.,0.,-1.));
#924=DIRECTION('ref_axis',(-0.382683432365091,-0.923879532511287,0.));
#925=DIRECTION('',(0.,0.,1.));
#926=DIRECTION('center_axis',(0.,0.,1.));
#927=DIRECTION('ref_axis',(-0.382683432365091,-0.923879532511287,0.));
#928=DIRECTION('',(0.,0.,-1.));
#929=DIRECTION('center_axis',(0.707106781186548,0.707106781186547,0.));
#930=DIRECTION('ref_axis',(-0.707106781186547,0.707106781186548,0.));
#931=DIRECTION('',(-0.707106781186547,0.707106781186548,0.));
#932=DIRECTION('',(0.,0.,-1.));
#933=DIRECTION('',(-0.707106781186547,0.707106781186548,0.));
#934=DIRECTION('center_axis',(0.,0.,1.));
#935=DIRECTION('ref_axis',(0.382683432365088,-0.923879532511288,0.));
#936=DIRECTION('center_axis',(0.,0.,-1.));
#937=DIRECTION('ref_axis',(0.382683432365088,-0.923879532511288,0.));
#938=DIRECTION('',(0.,0.,1.));
#939=DIRECTION('center_axis',(0.,0.,1.));
#940=DIRECTION('ref_axis',(0.382683432365088,-0.923879532511288,0.));
#941=DIRECTION('',(0.,0.,-1.));
#942=DIRECTION('center_axis',(0.,1.,0.));
#943=DIRECTION('ref_axis',(-1.,0.,0.));
#944=DIRECTION('',(-1.,0.,0.));
#945=DIRECTION('',(-1.,0.,0.));
#946=DIRECTION('center_axis',(0.,0.,1.));
#947=DIRECTION('ref_axis',(-0.382683432365091,-0.923879532511287,0.));
#948=DIRECTION('center_axis',(0.,0.,-1.));
#949=DIRECTION('ref_axis',(-0.382683432365091,-0.923879532511287,0.));
#950=DIRECTION('',(0.,0.,1.));
#951=DIRECTION('center_axis',(0.,0.,1.));
#952=DIRECTION('ref_axis',(-0.382683432365091,-0.923879532511287,0.));
#953=DIRECTION('',(0.,0.,-1.));
#954=DIRECTION('center_axis',(0.707106781186549,0.707106781186546,0.));
#955=DIRECTION('ref_axis',(-0.707106781186546,0.707106781186549,0.));
#956=DIRECTION('',(-0.707106781186546,0.707106781186549,0.));
#957=DIRECTION('',(0.,0.,1.));
#958=DIRECTION('',(-0.707106781186546,0.707106781186549,0.));
#959=DIRECTION('center_axis',(0.,0.,1.));
#960=DIRECTION('ref_axis',(0.382683432365094,-0.923879532511285,0.));
#961=DIRECTION('center_axis',(0.,0.,-1.));
#962=DIRECTION('ref_axis',(0.382683432365094,-0.923879532511285,0.));
#963=DIRECTION('',(0.,0.,1.));
#964=DIRECTION('center_axis',(0.,0.,1.));
#965=DIRECTION('ref_axis',(0.382683432365094,-0.923879532511285,0.));
#966=DIRECTION('',(0.,0.,-1.));
#967=DIRECTION('center_axis',(-3.38979490117522E-16,1.,0.));
#968=DIRECTION('ref_axis',(-1.,-3.38979490117522E-16,0.));
#969=DIRECTION('',(-1.,-3.38979490117522E-16,0.));
#970=DIRECTION('',(-1.,-3.38979490117522E-16,0.));
#971=DIRECTION('center_axis',(0.,0.,1.));
#972=DIRECTION('ref_axis',(0.923879532511285,0.382683432365095,0.));
#973=DIRECTION('center_axis',(0.,0.,-1.));
#974=DIRECTION('ref_axis',(0.923879532511285,0.382683432365095,0.));
#975=DIRECTION('',(0.,0.,1.));
#976=DIRECTION('center_axis',(0.,0.,1.));
#977=DIRECTION('ref_axis',(0.923879532511285,0.382683432365095,0.));
#978=DIRECTION('',(0.,0.,-1.));
#979=DIRECTION('center_axis',(-0.707106781186545,0.70710678118655,0.));
#980=DIRECTION('ref_axis',(-0.70710678118655,-0.707106781186545,0.));
#981=DIRECTION('',(-0.70710678118655,-0.707106781186545,0.));
#982=DIRECTION('',(-0.70710678118655,-0.707106781186545,0.));
#983=DIRECTION('center_axis',(0.,0.,1.));
#984=DIRECTION('ref_axis',(-0.923879532511289,0.382683432365084,0.));
#985=DIRECTION('center_axis',(0.,0.,-1.));
#986=DIRECTION('ref_axis',(-0.923879532511289,0.382683432365084,0.));
#987=DIRECTION('',(0.,0.,1.));
#988=DIRECTION('center_axis',(0.,0.,1.));
#989=DIRECTION('ref_axis',(-0.923879532511289,0.382683432365084,0.));
#990=DIRECTION('center_axis',(2.98273578796479E-16,-1.,0.));
#991=DIRECTION('ref_axis',(1.,2.98273578796479E-16,0.));
#992=DIRECTION('',(1.,2.98273578796479E-16,0.));
#993=DIRECTION('',(1.,2.98273578796479E-16,0.));
#994=DIRECTION('center_axis',(0.,0.,1.));
#995=DIRECTION('ref_axis',(-0.707106781186552,-0.707106781186543,0.));
#996=DIRECTION('center_axis',(0.,0.,-1.));
#997=DIRECTION('ref_axis',(-0.707106781186552,-0.707106781186543,0.));
#998=DIRECTION('',(0.,0.,1.));
#999=DIRECTION('center_axis',(0.,0.,1.));
#1000=DIRECTION('ref_axis',(-0.707106781186552,-0.707106781186543,0.));
#1001=DIRECTION('',(0.,0.,-1.));
#1002=DIRECTION('center_axis',(1.,-2.79672051555208E-15,0.));
#1003=DIRECTION('ref_axis',(2.79672051555208E-15,1.,0.));
#1004=DIRECTION('',(2.79672051555208E-15,1.,0.));
#1005=DIRECTION('',(0.,0.,-1.));
#1006=DIRECTION('',(2.79672051555208E-15,1.,0.));
#1007=DIRECTION('center_axis',(0.,0.,1.));
#1008=DIRECTION('ref_axis',(-0.382683432365087,0.923879532511288,0.));
#1009=DIRECTION('center_axis',(0.,0.,-1.));
#1010=DIRECTION('ref_axis',(-0.382683432365087,0.923879532511288,0.));
#1011=DIRECTION('',(0.,0.,1.));
#1012=DIRECTION('center_axis',(0.,0.,1.));
#1013=DIRECTION('ref_axis',(-0.382683432365087,0.923879532511288,0.));
#1014=DIRECTION('center_axis',(-0.707106781186548,-0.707106781186547,0.));
#1015=DIRECTION('ref_axis',(0.707106781186547,-0.707106781186548,0.));
#1016=DIRECTION('',(0.707106781186547,-0.707106781186548,0.));
#1017=DIRECTION('',(0.,0.,-1.));
#1018=DIRECTION('',(0.707106781186547,-0.707106781186548,0.));
#1019=DIRECTION('center_axis',(0.,0.,1.));
#1020=DIRECTION('ref_axis',(0.707106781186548,-0.707106781186548,0.));
#1021=DIRECTION('center_axis',(0.,0.,-1.));
#1022=DIRECTION('ref_axis',(0.707106781186548,-0.707106781186548,0.));
#1023=DIRECTION('',(0.,0.,1.));
#1024=DIRECTION('center_axis',(0.,0.,1.));
#1025=DIRECTION('ref_axis',(0.707106781186548,-0.707106781186548,0.));
#1026=DIRECTION('',(0.,0.,-1.));
#1027=DIRECTION('center_axis',(0.,1.,0.));
#1028=DIRECTION('ref_axis',(-1.,0.,0.));
#1029=DIRECTION('',(-1.,0.,0.));
#1030=DIRECTION('',(0.,0.,-1.));
#1031=DIRECTION('',(-1.,0.,0.));
#1032=DIRECTION('center_axis',(0.,0.,1.));
#1033=DIRECTION('ref_axis',(0.382683432365084,0.923879532511289,0.));
#1034=DIRECTION('center_axis',(0.,0.,-1.));
#1035=DIRECTION('ref_axis',(0.382683432365084,0.923879532511289,0.));
#1036=DIRECTION('',(0.,0.,1.));
#1037=DIRECTION('center_axis',(0.,0.,1.));
#1038=DIRECTION('ref_axis',(0.382683432365084,0.923879532511289,0.));
#1039=DIRECTION('',(0.,0.,-1.));
#1040=DIRECTION('center_axis',(-1.,2.25617789489916E-15,0.));
#1041=DIRECTION('ref_axis',(-2.25617789489916E-15,-1.,0.));
#1042=DIRECTION('',(-2.25617789489916E-15,-1.,0.));
#1043=DIRECTION('',(-2.25617789489916E-15,-1.,0.));
#1044=DIRECTION('center_axis',(0.,0.,1.));
#1045=DIRECTION('ref_axis',(-0.923879532511288,-0.382683432365087,0.));
#1046=DIRECTION('center_axis',(0.,0.,-1.));
#1047=DIRECTION('ref_axis',(-0.923879532511288,-0.382683432365087,0.));
#1048=DIRECTION('',(0.,0.,1.));
#1049=DIRECTION('center_axis',(0.,0.,1.));
#1050=DIRECTION('ref_axis',(-0.923879532511288,-0.382683432365087,0.));
#1051=DIRECTION('center_axis',(0.707106781186547,-0.707106781186548,0.));
#1052=DIRECTION('ref_axis',(0.707106781186548,0.707106781186547,0.));
#1053=DIRECTION('',(0.707106781186548,0.707106781186547,0.));
#1054=DIRECTION('',(0.707106781186548,0.707106781186547,0.));
#1055=DIRECTION('center_axis',(0.,0.,1.));
#1056=DIRECTION('ref_axis',(0.923879532511282,-0.382683432365103,0.));
#1057=DIRECTION('center_axis',(0.,0.,-1.));
#1058=DIRECTION('ref_axis',(0.923879532511282,-0.382683432365103,0.));
#1059=DIRECTION('',(0.,0.,1.));
#1060=DIRECTION('center_axis',(0.,0.,1.));
#1061=DIRECTION('ref_axis',(0.923879532511282,-0.382683432365103,0.));
#1062=DIRECTION('center_axis',(4.88838543894814E-15,1.,0.));
#1063=DIRECTION('ref_axis',(-1.,4.88838543894814E-15,0.));
#1064=DIRECTION('',(-1.,4.88838543894814E-15,0.));
#1065=DIRECTION('',(-1.,4.88838543894814E-15,0.));
#1066=DIRECTION('center_axis',(0.,0.,1.));
#1067=DIRECTION('ref_axis',(-1.,0.,0.));
#1068=DIRECTION('center_axis',(0.,0.,-1.));
#1069=DIRECTION('ref_axis',(-1.,0.,0.));
#1070=DIRECTION('',(0.,0.,-1.));
#1071=DIRECTION('center_axis',(0.,0.,-1.));
#1072=DIRECTION('ref_axis',(-1.,0.,0.));
#1073=DIRECTION('center_axis',(0.,0.,1.));
#1074=DIRECTION('ref_axis',(-1.,0.,0.));
#1075=DIRECTION('center_axis',(0.,0.,-1.));
#1076=DIRECTION('ref_axis',(-1.,0.,0.));
#1077=DIRECTION('',(0.,0.,-1.));
#1078=DIRECTION('center_axis',(0.,0.,-1.));
#1079=DIRECTION('ref_axis',(-1.,0.,0.));
#1080=DIRECTION('center_axis',(0.,0.,1.));
#1081=DIRECTION('ref_axis',(-1.,0.,0.));
#1082=DIRECTION('center_axis',(0.,0.,-1.));
#1083=DIRECTION('ref_axis',(-1.,0.,0.));
#1084=DIRECTION('',(0.,0.,-1.));
#1085=DIRECTION('center_axis',(0.,0.,-1.));
#1086=DIRECTION('ref_axis',(-1.,0.,0.));
#1087=DIRECTION('center_axis',(0.,0.,1.));
#1088=DIRECTION('ref_axis',(-1.,0.,0.));
#1089=DIRECTION('center_axis',(0.,0.,-1.));
#1090=DIRECTION('ref_axis',(-1.,0.,0.));
#1091=DIRECTION('',(0.,0.,-1.));
#1092=DIRECTION('center_axis',(0.,0.,-1.));
#1093=DIRECTION('ref_axis',(-1.,0.,0.));
#1094=DIRECTION('center_axis',(0.,0.,1.));
#1095=DIRECTION('ref_axis',(-1.,0.,0.));
#1096=DIRECTION('center_axis',(0.,0.,-1.));
#1097=DIRECTION('ref_axis',(-1.,0.,0.));
#1098=DIRECTION('',(0.,0.,-1.));
#1099=DIRECTION('center_axis',(0.,0.,-1.));
#1100=DIRECTION('ref_axis',(-1.,0.,0.));
#1101=DIRECTION('center_axis',(0.,0.,1.));
#1102=DIRECTION('ref_axis',(-1.,0.,0.));
#1103=DIRECTION('center_axis',(0.,0.,-1.));
#1104=DIRECTION('ref_axis',(-1.,0.,0.));
#1105=DIRECTION('',(0.,0.,-1.));
#1106=DIRECTION('center_axis',(0.,0.,-1.));
#1107=DIRECTION('ref_axis',(-1.,0.,0.));
#1108=DIRECTION('center_axis',(0.,0.,1.));
#1109=DIRECTION('ref_axis',(0.707106781186548,0.707106781186547,0.));
#1110=DIRECTION('center_axis',(0.,0.,1.));
#1111=DIRECTION('ref_axis',(0.707106781186548,0.707106781186547,0.));
#1112=DIRECTION('',(0.,0.,1.));
#1113=DIRECTION('center_axis',(0.,0.,1.));
#1114=DIRECTION('ref_axis',(0.707106781186548,0.707106781186547,0.));
#1115=DIRECTION('center_axis',(-0.707106781186546,0.707106781186549,0.));
#1116=DIRECTION('ref_axis',(-0.707106781186549,-0.707106781186546,0.));
#1117=DIRECTION('',(-0.707106781186549,-0.707106781186546,0.));
#1118=DIRECTION('',(0.,0.,1.));
#1119=DIRECTION('',(-0.707106781186549,-0.707106781186546,0.));
#1120=DIRECTION('center_axis',(0.,0.,1.));
#1121=DIRECTION('ref_axis',(1.,-1.8649415636748E-15,0.));
#1122=DIRECTION('center_axis',(0.,0.,1.));
#1123=DIRECTION('ref_axis',(1.,-1.8649415636748E-15,0.));
#1124=DIRECTION('center_axis',(0.,0.,1.));
#1125=DIRECTION('ref_axis',(1.,-1.8649415636748E-15,0.));
#1126=DIRECTION('',(0.,0.,1.));
#1127=DIRECTION('center_axis',(1.,-2.51767111096098E-15,0.));
#1128=DIRECTION('ref_axis',(2.51767111096098E-15,1.,0.));
#1129=DIRECTION('',(2.51767111096098E-15,1.,0.));
#1130=DIRECTION('',(2.51767111096098E-15,1.,0.));
#1131=DIRECTION('',(0.,0.,1.));
#1132=DIRECTION('center_axis',(0.,0.,1.));
#1133=DIRECTION('ref_axis',(-3.7298831273496E-15,-1.,0.));
#1134=DIRECTION('center_axis',(0.,0.,1.));
#1135=DIRECTION('ref_axis',(-3.7298831273496E-15,-1.,0.));
#1136=DIRECTION('center_axis',(0.,0.,1.));
#1137=DIRECTION('ref_axis',(-3.7298831273496E-15,-1.,0.));
#1138=DIRECTION('',(0.,0.,1.));
#1139=DIRECTION('center_axis',(-1.65301638598448E-15,-1.,0.));
#1140=DIRECTION('ref_axis',(1.,-1.65301638598448E-15,0.));
#1141=DIRECTION('',(1.,-1.65301638598448E-15,0.));
#1142=DIRECTION('',(1.,-1.65301638598448E-15,0.));
#1143=DIRECTION('',(0.,0.,1.));
#1144=DIRECTION('center_axis',(0.,0.,1.));
#1145=DIRECTION('ref_axis',(-1.,0.,0.));
#1146=DIRECTION('center_axis',(0.,0.,1.));
#1147=DIRECTION('ref_axis',(-1.,0.,0.));
#1148=DIRECTION('center_axis',(0.,0.,1.));
#1149=DIRECTION('ref_axis',(-1.,0.,0.));
#1150=DIRECTION('',(0.,0.,1.));
#1151=DIRECTION('center_axis',(-1.,2.79741234551221E-15,0.));
#1152=DIRECTION('ref_axis',(-2.79741234551221E-15,-1.,0.));
#1153=DIRECTION('',(-2.79741234551221E-15,-1.,0.));
#1154=DIRECTION('',(-2.79741234551221E-15,-1.,0.));
#1155=DIRECTION('center_axis',(0.,0.,1.));
#1156=DIRECTION('ref_axis',(1.,0.,0.));
#1157=DIRECTION('center_axis',(0.,0.,1.));
#1158=DIRECTION('ref_axis',(1.,0.,0.));
#1159=CARTESIAN_POINT('',(0.,0.,0.));
#1160=CARTESIAN_POINT('Origin',(2.11908639918225,-3.4625,0.));
#1161=CARTESIAN_POINT('',(2.11908639918225,-3.5625,0.));
#1162=CARTESIAN_POINT('',(2.0483757210636,-3.53321067811866,0.));
#1163=CARTESIAN_POINT('Origin',(2.11908639918225,-3.4625,0.));
#1164=CARTESIAN_POINT('',(2.0483757210636,-3.53321067811866,0.2));
#1165=CARTESIAN_POINT('',(2.0483757210636,-3.53321067811866,0.));
#1166=CARTESIAN_POINT('',(2.11908639918225,-3.5625,0.2));
#1167=CARTESIAN_POINT('Origin',(2.11908639918225,-3.4625,0.2));
#1168=CARTESIAN_POINT('',(2.11908639918225,-3.5625,0.));
#1169=CARTESIAN_POINT('Origin',(2.07766504294494,-3.5625,0.));
#1170=CARTESIAN_POINT('',(1.2483757210636,-2.73321067811866,0.));
#1171=CARTESIAN_POINT('',(2.07766504294494,-3.5625,0.));
#1172=CARTESIAN_POINT('',(1.2483757210636,-2.73321067811866,0.2));
#1173=CARTESIAN_POINT('',(1.2483757210636,-2.73321067811866,0.));
#1174=CARTESIAN_POINT('',(2.07766504294494,-3.5625,0.2));
#1175=CARTESIAN_POINT('Origin',(2.38091360081773,-3.4625,0.));
#1176=CARTESIAN_POINT('',(2.45162427893638,-3.53321067811866,0.));
#1177=CARTESIAN_POINT('',(2.38091360081773,-3.5625,0.));
#1178=CARTESIAN_POINT('Origin',(2.38091360081773,-3.4625,0.));
#1179=CARTESIAN_POINT('',(2.38091360081773,-3.5625,0.2));
#1180=CARTESIAN_POINT('',(2.38091360081773,-3.5625,0.));
#1181=CARTESIAN_POINT('',(2.45162427893638,-3.53321067811866,0.2));
#1182=CARTESIAN_POINT('Origin',(2.38091360081773,-3.4625,0.2));
#1183=CARTESIAN_POINT('',(2.45162427893638,-3.53321067811866,0.));
#1184=CARTESIAN_POINT('Origin',(2.42233495705504,-3.5625,0.));
#1185=CARTESIAN_POINT('',(2.42233495705504,-3.5625,0.2));
#1186=CARTESIAN_POINT('',(2.42233495705504,-3.5625,0.));
#1187=CARTESIAN_POINT('Origin',(0.744086399182256,-2.0875,0.));
#1188=CARTESIAN_POINT('',(0.744086399182256,-2.1875,0.));
#1189=CARTESIAN_POINT('',(0.673375721063601,-2.15821067811866,0.));
#1190=CARTESIAN_POINT('Origin',(0.744086399182256,-2.0875,0.));
#1191=CARTESIAN_POINT('',(0.673375721063601,-2.15821067811866,0.2));
#1192=CARTESIAN_POINT('',(0.673375721063601,-2.15821067811866,0.));
#1193=CARTESIAN_POINT('',(0.744086399182256,-2.1875,0.2));
#1194=CARTESIAN_POINT('Origin',(0.744086399182256,-2.0875,0.2));
#1195=CARTESIAN_POINT('',(0.744086399182256,-2.1875,0.));
#1196=CARTESIAN_POINT('Origin',(0.702665042944946,-2.1875,0.));
#1197=CARTESIAN_POINT('',(-0.367417478527535,-1.11741747852752,0.));
#1198=CARTESIAN_POINT('',(0.702665042944946,-2.1875,0.));
#1199=CARTESIAN_POINT('',(-0.367417478527535,-1.11741747852752,0.2));
#1200=CARTESIAN_POINT('',(-0.367417478527535,-1.11741747852752,0.));
#1201=CARTESIAN_POINT('',(0.702665042944946,-2.1875,0.2));
#1202=CARTESIAN_POINT('Origin',(3.75591360081774,-2.0875,0.));
#1203=CARTESIAN_POINT('',(3.82662427893639,-2.15821067811866,0.));
#1204=CARTESIAN_POINT('',(3.75591360081774,-2.1875,0.));
#1205=CARTESIAN_POINT('Origin',(3.75591360081774,-2.0875,0.));
#1206=CARTESIAN_POINT('',(3.75591360081774,-2.1875,0.2));
#1207=CARTESIAN_POINT('',(3.75591360081774,-2.1875,0.));
#1208=CARTESIAN_POINT('',(3.82662427893639,-2.15821067811866,0.2));
#1209=CARTESIAN_POINT('Origin',(3.75591360081774,-2.0875,0.2));
#1210=CARTESIAN_POINT('',(3.82662427893639,-2.15821067811866,0.));
#1211=CARTESIAN_POINT('Origin',(3.79733495705505,-2.1875,0.));
#1212=CARTESIAN_POINT('',(3.79733495705505,-2.1875,0.2));
#1213=CARTESIAN_POINT('',(3.79733495705505,-2.1875,0.));
#1214=CARTESIAN_POINT('Origin',(3.18091360081773,-2.6625,0.));
#1215=CARTESIAN_POINT('',(3.18091360081773,-2.5625,0.));
#1216=CARTESIAN_POINT('',(3.25162427893639,-2.73321067811866,0.));
#1217=CARTESIAN_POINT('Origin',(3.18091360081773,-2.6625,0.));
#1218=CARTESIAN_POINT('',(3.25162427893639,-2.73321067811866,0.2));
#1219=CARTESIAN_POINT('',(3.25162427893639,-2.73321067811866,0.));
#1220=CARTESIAN_POINT('',(3.18091360081773,-2.5625,0.2));
#1221=CARTESIAN_POINT('Origin',(3.18091360081773,-2.6625,0.2));
#1222=CARTESIAN_POINT('',(3.18091360081773,-2.5625,0.));
#1223=CARTESIAN_POINT('Origin',(3.42233495705504,-2.5625,0.));
#1224=CARTESIAN_POINT('',(3.42233495705504,-2.5625,0.2));
#1225=CARTESIAN_POINT('',(3.42233495705504,-2.5625,0.));
#1226=CARTESIAN_POINT('Origin',(1.31908639918226,-2.6625,0.));
#1227=CARTESIAN_POINT('',(1.31908639918226,-2.5625,0.));
#1228=CARTESIAN_POINT('Origin',(1.31908639918226,-2.6625,0.));
#1229=CARTESIAN_POINT('',(1.31908639918226,-2.5625,0.2));
#1230=CARTESIAN_POINT('',(1.31908639918226,-2.5625,0.));
#1231=CARTESIAN_POINT('Origin',(1.31908639918226,-2.6625,0.2));
#1232=CARTESIAN_POINT('Origin',(1.07766504294495,-2.5625,0.));
#1233=CARTESIAN_POINT('',(1.07766504294495,-2.5625,0.2));
#1234=CARTESIAN_POINT('',(1.07766504294495,-2.5625,0.));
#1235=CARTESIAN_POINT('Origin',(-0.212500000000019,-3.46249999999999,0.));
#1236=CARTESIAN_POINT('',(-0.212500000000019,-3.56249999999999,0.));
#1237=CARTESIAN_POINT('',(-0.312500000000019,-3.46249999999999,0.));
#1238=CARTESIAN_POINT('Origin',(-0.212500000000019,-3.46249999999999,0.));
#1239=CARTESIAN_POINT('',(-0.312500000000019,-3.46249999999999,0.2));
#1240=CARTESIAN_POINT('',(-0.312500000000019,-3.46249999999999,0.));
#1241=CARTESIAN_POINT('',(-0.212500000000019,-3.56249999999999,0.2));
#1242=CARTESIAN_POINT('Origin',(-0.212500000000019,-3.46249999999999,0.2));
#1243=CARTESIAN_POINT('',(-0.212500000000019,-3.56249999999999,0.));
#1244=CARTESIAN_POINT('Origin',(-0.312500000000019,-3.56249999999999,0.));
#1245=CARTESIAN_POINT('',(-0.312500000000014,-1.94408639918226,0.));
#1246=CARTESIAN_POINT('',(-0.312500000000019,-3.56249999999999,0.));
#1247=CARTESIAN_POINT('',(-0.312500000000014,-1.94408639918226,0.2));
#1248=CARTESIAN_POINT('',(-0.312500000000014,-1.94408639918226,0.));
#1249=CARTESIAN_POINT('',(-0.312500000000019,-3.56249999999999,0.2));
#1250=CARTESIAN_POINT('Origin',(-0.212500000000014,-1.94408639918226,0.));
#1251=CARTESIAN_POINT('',(-0.14178932188136,-1.8733757210636,0.));
#1252=CARTESIAN_POINT('Origin',(-0.212500000000014,-1.94408639918226,0.));
#1253=CARTESIAN_POINT('',(-0.14178932188136,-1.8733757210636,0.2));
#1254=CARTESIAN_POINT('',(-0.14178932188136,-1.8733757210636,0.));
#1255=CARTESIAN_POINT('Origin',(-0.212500000000014,-1.94408639918226,0.2));
#1256=CARTESIAN_POINT('Origin',(-0.312500000000014,-1.70266504294495,0.));
#1257=CARTESIAN_POINT('',(1.37662427893638,-3.39178932188135,0.));
#1258=CARTESIAN_POINT('',(-0.312500000000014,-1.70266504294495,0.));
#1259=CARTESIAN_POINT('',(1.37662427893638,-3.39178932188135,0.2));
#1260=CARTESIAN_POINT('',(1.37662427893638,-3.39178932188135,0.));
#1261=CARTESIAN_POINT('',(-0.312500000000014,-1.70266504294495,0.2));
#1262=CARTESIAN_POINT('Origin',(4.7125,-3.4625,0.));
#1263=CARTESIAN_POINT('',(4.8125,-3.4625,0.));
#1264=CARTESIAN_POINT('',(4.7125,-3.5625,0.));
#1265=CARTESIAN_POINT('Origin',(4.7125,-3.4625,0.));
#1266=CARTESIAN_POINT('',(4.7125,-3.5625,0.2));
#1267=CARTESIAN_POINT('',(4.7125,-3.5625,0.));
#1268=CARTESIAN_POINT('',(4.8125,-3.4625,0.2));
#1269=CARTESIAN_POINT('Origin',(4.7125,-3.4625,0.2));
#1270=CARTESIAN_POINT('',(4.8125,-3.4625,0.));
#1271=CARTESIAN_POINT('Origin',(4.8125,-3.5625,0.));
#1272=CARTESIAN_POINT('',(3.19408639918227,-3.5625,0.));
#1273=CARTESIAN_POINT('',(4.8125,-3.5625,0.));
#1274=CARTESIAN_POINT('',(3.19408639918227,-3.5625,0.2));
#1275=CARTESIAN_POINT('',(3.19408639918227,-3.5625,0.));
#1276=CARTESIAN_POINT('',(4.8125,-3.5625,0.2));
#1277=CARTESIAN_POINT('Origin',(4.7125,-1.94408639918227,0.));
#1278=CARTESIAN_POINT('',(4.64178932188135,-1.87337572106361,0.));
#1279=CARTESIAN_POINT('',(4.8125,-1.94408639918227,0.));
#1280=CARTESIAN_POINT('Origin',(4.7125,-1.94408639918227,0.));
#1281=CARTESIAN_POINT('',(4.8125,-1.94408639918227,0.2));
#1282=CARTESIAN_POINT('',(4.8125,-1.94408639918227,0.));
#1283=CARTESIAN_POINT('',(4.64178932188135,-1.87337572106361,0.2));
#1284=CARTESIAN_POINT('Origin',(4.7125,-1.94408639918227,0.2));
#1285=CARTESIAN_POINT('',(4.64178932188135,-1.87337572106361,0.));
#1286=CARTESIAN_POINT('Origin',(4.8125,-1.70266504294496,0.));
#1287=CARTESIAN_POINT('',(4.8125,-1.70266504294496,0.2));
#1288=CARTESIAN_POINT('',(4.8125,-1.70266504294496,0.));
#1289=CARTESIAN_POINT('Origin',(3.19408639918227,-3.4625,0.));
#1290=CARTESIAN_POINT('',(3.12337572106361,-3.39178932188135,0.));
#1291=CARTESIAN_POINT('Origin',(3.19408639918227,-3.4625,0.));
#1292=CARTESIAN_POINT('',(3.12337572106361,-3.39178932188135,0.2));
#1293=CARTESIAN_POINT('',(3.12337572106361,-3.39178932188135,0.));
#1294=CARTESIAN_POINT('Origin',(3.19408639918227,-3.4625,0.2));
#1295=CARTESIAN_POINT('Origin',(2.95266504294496,-3.5625,0.));
#1296=CARTESIAN_POINT('',(2.95266504294496,-3.5625,0.2));
#1297=CARTESIAN_POINT('',(2.95266504294496,-3.5625,0.));
#1298=CARTESIAN_POINT('Origin',(1.30591360081773,-3.4625,0.));
#1299=CARTESIAN_POINT('',(1.30591360081772,-3.5625,0.));
#1300=CARTESIAN_POINT('Origin',(1.30591360081773,-3.4625,0.));
#1301=CARTESIAN_POINT('',(1.30591360081772,-3.5625,0.2));
#1302=CARTESIAN_POINT('',(1.30591360081772,-3.5625,0.));
#1303=CARTESIAN_POINT('Origin',(1.30591360081773,-3.4625,0.2));
#1304=CARTESIAN_POINT('Origin',(1.54733495705504,-3.5625,0.));
#1305=CARTESIAN_POINT('',(1.54733495705504,-3.5625,0.2));
#1306=CARTESIAN_POINT('',(1.54733495705504,-3.5625,0.));
#1307=CARTESIAN_POINT('Origin',(-0.500000000000012,-1.25,0.));
#1308=CARTESIAN_POINT('',(-0.414000000000012,-1.25,0.2));
#1309=CARTESIAN_POINT('Origin',(-0.500000000000012,-1.25,0.2));
#1310=CARTESIAN_POINT('',(-0.414000000000012,-1.25,0.));
#1311=CARTESIAN_POINT('',(-0.414000000000012,-1.25,0.));
#1312=CARTESIAN_POINT('Origin',(-0.500000000000012,-1.25,0.));
#1313=CARTESIAN_POINT('Origin',(5.00000000000001,-1.25,0.));
#1314=CARTESIAN_POINT('',(5.08600000000001,-1.25,0.2));
#1315=CARTESIAN_POINT('Origin',(5.00000000000001,-1.25,0.2));
#1316=CARTESIAN_POINT('',(5.08600000000001,-1.25,0.));
#1317=CARTESIAN_POINT('',(5.08600000000001,-1.25,0.));
#1318=CARTESIAN_POINT('Origin',(5.00000000000001,-1.25,0.));
#1319=CARTESIAN_POINT('Origin',(-0.500000000000019,-3.74999999999999,0.));
#1320=CARTESIAN_POINT('',(-0.414000000000019,-3.74999999999999,0.2));
#1321=CARTESIAN_POINT('Origin',(-0.500000000000019,-3.74999999999999,0.2));
#1322=CARTESIAN_POINT('',(-0.414000000000019,-3.74999999999999,0.));
#1323=CARTESIAN_POINT('',(-0.414000000000019,-3.74999999999999,0.));
#1324=CARTESIAN_POINT('Origin',(-0.500000000000019,-3.74999999999999,0.));
#1325=CARTESIAN_POINT('Origin',(5.,-3.75,0.));
#1326=CARTESIAN_POINT('',(5.086,-3.75,0.2));
#1327=CARTESIAN_POINT('Origin',(5.,-3.75,0.2));
#1328=CARTESIAN_POINT('',(5.086,-3.75,0.));
#1329=CARTESIAN_POINT('',(5.086,-3.75,0.));
#1330=CARTESIAN_POINT('Origin',(5.,-3.75,0.));
#1331=CARTESIAN_POINT('Origin',(5.,-2.25,0.));
#1332=CARTESIAN_POINT('',(5.086,-2.25,0.2));
#1333=CARTESIAN_POINT('Origin',(5.,-2.25,0.2));
#1334=CARTESIAN_POINT('',(5.086,-2.25,0.));
#1335=CARTESIAN_POINT('',(5.086,-2.25,0.));
#1336=CARTESIAN_POINT('Origin',(5.,-2.25,0.));
#1337=CARTESIAN_POINT('Origin',(-0.500000000000015,-2.24999999999999,0.));
#1338=CARTESIAN_POINT('',(-0.414000000000015,-2.24999999999999,0.2));
#1339=CARTESIAN_POINT('Origin',(-0.500000000000015,-2.24999999999999,0.2));
#1340=CARTESIAN_POINT('',(-0.414000000000015,-2.24999999999999,0.));
#1341=CARTESIAN_POINT('',(-0.414000000000015,-2.24999999999999,0.));
#1342=CARTESIAN_POINT('Origin',(-0.500000000000015,-2.24999999999999,0.));
#1343=CARTESIAN_POINT('Origin',(-0.500000000000012,-1.25,0.));
#1344=CARTESIAN_POINT('',(-0.687500000000012,-1.25,0.));
#1345=CARTESIAN_POINT('Origin',(-0.500000000000012,-1.25,0.));
#1346=CARTESIAN_POINT('',(-0.687500000000012,-1.25,0.2));
#1347=CARTESIAN_POINT('',(-0.687500000000012,-1.25,0.));
#1348=CARTESIAN_POINT('Origin',(-0.500000000000012,-1.25,0.2));
#1349=CARTESIAN_POINT('Origin',(4.86741747852753,-1.11741747852753,0.));
#1350=CARTESIAN_POINT('',(4.86741747852753,-1.11741747852753,0.2));
#1351=CARTESIAN_POINT('',(4.86741747852753,-1.11741747852753,0.2));
#1352=CARTESIAN_POINT('',(4.86741747852753,-1.11741747852753,0.));
#1353=CARTESIAN_POINT('',(4.86741747852753,-1.11741747852753,0.));
#1354=CARTESIAN_POINT('',(4.86741747852753,-1.11741747852753,0.));
#1355=CARTESIAN_POINT('Origin',(5.00000000000001,-1.25,0.));
#1356=CARTESIAN_POINT('',(5.18750000000001,-1.25,0.));
#1357=CARTESIAN_POINT('Origin',(5.00000000000001,-1.25,0.));
#1358=CARTESIAN_POINT('',(5.18750000000001,-1.25,0.2));
#1359=CARTESIAN_POINT('Origin',(5.00000000000001,-1.25,0.2));
#1360=CARTESIAN_POINT('',(5.18750000000001,-1.25,0.));
#1361=CARTESIAN_POINT('Origin',(5.1875,-3.75,0.));
#1362=CARTESIAN_POINT('',(5.1875,-3.75,0.));
#1363=CARTESIAN_POINT('',(5.1875,-3.75,0.));
#1364=CARTESIAN_POINT('',(5.1875,-3.75,0.2));
#1365=CARTESIAN_POINT('',(5.1875,-3.75,0.2));
#1366=CARTESIAN_POINT('',(5.1875,-3.75,0.));
#1367=CARTESIAN_POINT('Origin',(5.,-3.75,0.));
#1368=CARTESIAN_POINT('',(5.,-3.9375,0.));
#1369=CARTESIAN_POINT('Origin',(5.,-3.75,0.));
#1370=CARTESIAN_POINT('',(5.,-3.9375,0.2));
#1371=CARTESIAN_POINT('Origin',(5.,-3.75,0.2));
#1372=CARTESIAN_POINT('',(5.,-3.9375,0.));
#1373=CARTESIAN_POINT('Origin',(-0.500000000000019,-3.93749999999999,0.));
#1374=CARTESIAN_POINT('',(-0.500000000000019,-3.93749999999999,0.));
#1375=CARTESIAN_POINT('',(-0.500000000000019,-3.93749999999999,0.));
#1376=CARTESIAN_POINT('',(-0.500000000000019,-3.93749999999999,0.2));
#1377=CARTESIAN_POINT('',(-0.500000000000019,-3.93749999999999,0.2));
#1378=CARTESIAN_POINT('',(-0.500000000000019,-3.93749999999999,0.));
#1379=CARTESIAN_POINT('Origin',(-0.500000000000019,-3.74999999999999,0.));
#1380=CARTESIAN_POINT('',(-0.687500000000019,-3.74999999999999,0.));
#1381=CARTESIAN_POINT('Origin',(-0.500000000000019,-3.74999999999999,0.));
#1382=CARTESIAN_POINT('',(-0.687500000000019,-3.74999999999999,0.2));
#1383=CARTESIAN_POINT('Origin',(-0.500000000000019,-3.74999999999999,0.2));
#1384=CARTESIAN_POINT('',(-0.687500000000019,-3.74999999999999,0.));
#1385=CARTESIAN_POINT('Origin',(-0.687500000000012,-1.25,0.));
#1386=CARTESIAN_POINT('',(-0.687500000000012,-1.25,0.));
#1387=CARTESIAN_POINT('',(-0.687500000000012,-1.25,0.2));
#1388=CARTESIAN_POINT('Origin',(2.24999999999999,-2.5,0.2));
#1389=CARTESIAN_POINT('Origin',(2.24999999999999,-2.5,0.));
#1390=UNCERTAINTY_MEASURE_WITH_UNIT(LENGTH_MEASURE(0.000393700787401575),
#1396,'DISTANCE_ACCURACY_VALUE',
'Maximum model space distance between geometric entities at asserted c
onnectivities');
#1391=UNCERTAINTY_MEASURE_WITH_UNIT(LENGTH_MEASURE(0.000393700787401575),
#1396,'DISTANCE_ACCURACY_VALUE',
'Maximum model space distance between geometric entities at asserted c
onnectivities');
#1392=(
GEOMETRIC_REPRESENTATION_CONTEXT(3)
GLOBAL_UNCERTAINTY_ASSIGNED_CONTEXT((#1390))
GLOBAL_UNIT_ASSIGNED_CONTEXT((#1396,#1400,#1401))
REPRESENTATION_CONTEXT('','3D')
);
#1393=(
GEOMETRIC_REPRESENTATION_CONTEXT(3)
GLOBAL_UNCERTAINTY_ASSIGNED_CONTEXT((#1391))
GLOBAL_UNIT_ASSIGNED_CONTEXT((#1396,#1400,#1401))
REPRESENTATION_CONTEXT('','3D')
);
#1394=DIMENSIONAL_EXPONENTS(1.,0.,0.,0.,0.,0.,0.);
#1395=DIMENSIONAL_EXPONENTS(0.,1.,0.,0.,0.,0.,0.);
#1396=(
CONVERSION_BASED_UNIT('inch',#1399)
LENGTH_UNIT()
NAMED_UNIT(#1394)
);
#1397=(
LENGTH_UNIT()
NAMED_UNIT(*)
SI_UNIT(.MILLI.,.METRE.)
);
#1398=(
LENGTH_UNIT()
NAMED_UNIT(*)
SI_UNIT(.CENTI.,.METRE.)
);
#1399=LENGTH_MEASURE_WITH_UNIT(LENGTH_MEASURE(25.4),#1397);
#1400=(
NAMED_UNIT(*)
PLANE_ANGLE_UNIT()
SI_UNIT($,.RADIAN.)
);
#1401=(
NAMED_UNIT(*)
SI_UNIT($,.STERADIAN.)
SOLID_ANGLE_UNIT()
);
#1402=SHAPE_DEFINITION_REPRESENTATION(#1403,#1404);
#1403=PRODUCT_DEFINITION_SHAPE('',$,#1406);
#1404=SHAPE_REPRESENTATION('',(#834),#1392);
#1405=PRODUCT_DEFINITION_CONTEXT('part definition',#1410,'design');
#1406=PRODUCT_DEFINITION('hoodbrace','hoodbrace',#1407,#1405);
#1407=PRODUCT_DEFINITION_FORMATION('',$,#1412);
#1408=PRODUCT_RELATED_PRODUCT_CATEGORY('hoodbrace','hoodbrace',(#1412));
#1409=APPLICATION_PROTOCOL_DEFINITION('international standard',
'automotive_design',2009,#1410);
#1410=APPLICATION_CONTEXT(
'Core Data for Automotive Mechanical Design Process');
#1411=PRODUCT_CONTEXT('part definition',#1410,'mechanical');
#1412=PRODUCT('hoodbrace','hoodbrace',$,(#1411));
#1413=PRESENTATION_STYLE_ASSIGNMENT((#1414));
#1414=SURFACE_STYLE_USAGE(.BOTH.,#1417);
#1415=SURFACE_STYLE_RENDERING_WITH_PROPERTIES($,#1421,(#1416));
#1416=SURFACE_STYLE_TRANSPARENT(0.);
#1417=SURFACE_SIDE_STYLE('',(#1418,#1415));
#1418=SURFACE_STYLE_FILL_AREA(#1419);
#1419=FILL_AREA_STYLE('',(#1420));
#1420=FILL_AREA_STYLE_COLOUR('',#1421);
#1421=COLOUR_RGB('',0.749019607843137,0.749019607843137,0.749019607843137);
ENDSEC;
END-ISO-10303-21;
