ISO-10303-21;
HEADER;
/* Generated by software containing ST-Developer
 * from STEP Tools, Inc. (www.steptools.com) 
 */

FILE_DESCRIPTION(
/* description */ (''),
/* implementation_level */ '2;1');

FILE_NAME(
/* name */ 'intakeSide.stp',
/* time_stamp */ '2026-01-22T12:53:21+13:00',
/* author */ ('cloudy'),
/* organization */ (''),
/* preprocessor_version */ 'ST-DEVELOPER v20',
/* originating_system */ 'Autodesk Inventor 2025',
/* authorisation */ '');

FILE_SCHEMA (('AUTOMOTIVE_DESIGN { 1 0 10303 214 3 1 1 }'));
ENDSEC;

DATA;
#10=MECHANICAL_DESIGN_GEOMETRIC_PRESENTATION_REPRESENTATION('',(#13),#421);
#11=SHAPE_REPRESENTATION_RELATIONSHIP('SRR','None',#432,#12);
#12=ADVANCED_BREP_SHAPE_REPRESENTATION('',(#14),#420);
#13=STYLED_ITEM('',(#441),#14);
#14=MANIFOLD_SOLID_BREP('Solid1',#233);
#15=FACE_BOUND('',#50,.T.);
#16=FACE_BOUND('',#51,.T.);
#17=FACE_BOUND('',#52,.T.);
#18=FACE_BOUND('',#53,.T.);
#19=FACE_BOUND('',#55,.T.);
#20=FACE_BOUND('',#56,.T.);
#21=FACE_BOUND('',#57,.T.);
#22=FACE_BOUND('',#58,.T.);
#23=PLANE('',#276);
#24=PLANE('',#280);
#25=PLANE('',#281);
#26=PLANE('',#282);
#27=FACE_OUTER_BOUND('',#39,.T.);
#28=FACE_OUTER_BOUND('',#40,.T.);
#29=FACE_OUTER_BOUND('',#41,.T.);
#30=FACE_OUTER_BOUND('',#42,.T.);
#31=FACE_OUTER_BOUND('',#43,.T.);
#32=FACE_OUTER_BOUND('',#44,.T.);
#33=FACE_OUTER_BOUND('',#45,.T.);
#34=FACE_OUTER_BOUND('',#46,.T.);
#35=FACE_OUTER_BOUND('',#47,.T.);
#36=FACE_OUTER_BOUND('',#48,.T.);
#37=FACE_OUTER_BOUND('',#49,.T.);
#38=FACE_OUTER_BOUND('',#54,.T.);
#39=EDGE_LOOP('',(#153,#154,#155,#156));
#40=EDGE_LOOP('',(#157,#158,#159,#160));
#41=EDGE_LOOP('',(#161,#162,#163,#164));
#42=EDGE_LOOP('',(#165,#166,#167,#168));
#43=EDGE_LOOP('',(#169,#170,#171,#172));
#44=EDGE_LOOP('',(#173,#174,#175,#176));
#45=EDGE_LOOP('',(#177,#178,#179,#180));
#46=EDGE_LOOP('',(#181,#182,#183,#184));
#47=EDGE_LOOP('',(#185,#186,#187,#188));
#48=EDGE_LOOP('',(#189,#190,#191,#192));
#49=EDGE_LOOP('',(#193,#194,#195,#196,#197,#198));
#50=EDGE_LOOP('',(#199));
#51=EDGE_LOOP('',(#200));
#52=EDGE_LOOP('',(#201));
#53=EDGE_LOOP('',(#202));
#54=EDGE_LOOP('',(#203,#204,#205,#206,#207,#208));
#55=EDGE_LOOP('',(#209));
#56=EDGE_LOOP('',(#210));
#57=EDGE_LOOP('',(#211));
#58=EDGE_LOOP('',(#212));
#59=LINE('',#360,#73);
#60=LINE('',#366,#74);
#61=LINE('',#372,#75);
#62=LINE('',#378,#76);
#63=LINE('',#385,#77);
#64=LINE('',#388,#78);
#65=LINE('',#394,#79);
#66=LINE('',#400,#80);
#67=LINE('',#403,#81);
#68=LINE('',#405,#82);
#69=LINE('',#406,#83);
#70=LINE('',#412,#84);
#71=LINE('',#414,#85);
#72=LINE('',#415,#86);
#73=VECTOR('',#289,0.155);
#74=VECTOR('',#296,0.086);
#75=VECTOR('',#303,0.0859999999999999);
#76=VECTOR('',#310,0.086);
#77=VECTOR('',#317,0.393700787401575);
#78=VECTOR('',#320,0.393700787401575);
#79=VECTOR('',#327,0.393700787401575);
#80=VECTOR('',#334,0.393700787401575);
#81=VECTOR('',#337,0.393700787401575);
#82=VECTOR('',#338,0.393700787401575);
#83=VECTOR('',#339,0.393700787401575);
#84=VECTOR('',#346,0.393700787401575);
#85=VECTOR('',#349,0.393700787401575);
#86=VECTOR('',#350,0.393700787401575);
#87=CIRCLE('',#256,0.155);
#88=CIRCLE('',#257,0.155);
#89=CIRCLE('',#259,0.086);
#90=CIRCLE('',#260,0.086);
#91=CIRCLE('',#262,0.0859999999999999);
#92=CIRCLE('',#263,0.0859999999999999);
#93=CIRCLE('',#265,0.086);
#94=CIRCLE('',#266,0.086);
#95=CIRCLE('',#268,1.);
#96=CIRCLE('',#269,1.);
#97=CIRCLE('',#271,8.);
#98=CIRCLE('',#272,8.);
#99=CIRCLE('',#274,0.25);
#100=CIRCLE('',#275,0.25);
#101=CIRCLE('',#278,0.25);
#102=CIRCLE('',#279,0.25);
#103=VERTEX_POINT('',#357);
#104=VERTEX_POINT('',#359);
#105=VERTEX_POINT('',#363);
#106=VERTEX_POINT('',#365);
#107=VERTEX_POINT('',#369);
#108=VERTEX_POINT('',#371);
#109=VERTEX_POINT('',#375);
#110=VERTEX_POINT('',#377);
#111=VERTEX_POINT('',#381);
#112=VERTEX_POINT('',#382);
#113=VERTEX_POINT('',#384);
#114=VERTEX_POINT('',#386);
#115=VERTEX_POINT('',#390);
#116=VERTEX_POINT('',#392);
#117=VERTEX_POINT('',#396);
#118=VERTEX_POINT('',#398);
#119=VERTEX_POINT('',#402);
#120=VERTEX_POINT('',#404);
#121=VERTEX_POINT('',#408);
#122=VERTEX_POINT('',#410);
#123=EDGE_CURVE('',#103,#103,#87,.T.);
#124=EDGE_CURVE('',#103,#104,#59,.T.);
#125=EDGE_CURVE('',#104,#104,#88,.T.);
#126=EDGE_CURVE('',#105,#105,#89,.T.);
#127=EDGE_CURVE('',#105,#106,#60,.T.);
#128=EDGE_CURVE('',#106,#106,#90,.T.);
#129=EDGE_CURVE('',#107,#107,#91,.T.);
#130=EDGE_CURVE('',#107,#108,#61,.T.);
#131=EDGE_CURVE('',#108,#108,#92,.T.);
#132=EDGE_CURVE('',#109,#109,#93,.T.);
#133=EDGE_CURVE('',#109,#110,#62,.T.);
#134=EDGE_CURVE('',#110,#110,#94,.T.);
#135=EDGE_CURVE('',#111,#112,#95,.T.);
#136=EDGE_CURVE('',#112,#113,#63,.T.);
#137=EDGE_CURVE('',#114,#113,#96,.T.);
#138=EDGE_CURVE('',#111,#114,#64,.T.);
#139=EDGE_CURVE('',#115,#111,#97,.T.);
#140=EDGE_CURVE('',#116,#114,#98,.T.);
#141=EDGE_CURVE('',#115,#116,#65,.T.);
#142=EDGE_CURVE('',#117,#115,#99,.T.);
#143=EDGE_CURVE('',#118,#116,#100,.T.);
#144=EDGE_CURVE('',#117,#118,#66,.T.);
#145=EDGE_CURVE('',#119,#117,#67,.T.);
#146=EDGE_CURVE('',#120,#118,#68,.T.);
#147=EDGE_CURVE('',#119,#120,#69,.T.);
#148=EDGE_CURVE('',#121,#119,#101,.T.);
#149=EDGE_CURVE('',#122,#120,#102,.T.);
#150=EDGE_CURVE('',#121,#122,#70,.T.);
#151=EDGE_CURVE('',#112,#121,#71,.T.);
#152=EDGE_CURVE('',#113,#122,#72,.T.);
#153=ORIENTED_EDGE('',*,*,#123,.F.);
#154=ORIENTED_EDGE('',*,*,#124,.T.);
#155=ORIENTED_EDGE('',*,*,#125,.T.);
#156=ORIENTED_EDGE('',*,*,#124,.F.);
#157=ORIENTED_EDGE('',*,*,#126,.F.);
#158=ORIENTED_EDGE('',*,*,#127,.T.);
#159=ORIENTED_EDGE('',*,*,#128,.T.);
#160=ORIENTED_EDGE('',*,*,#127,.F.);
#161=ORIENTED_EDGE('',*,*,#129,.F.);
#162=ORIENTED_EDGE('',*,*,#130,.T.);
#163=ORIENTED_EDGE('',*,*,#131,.T.);
#164=ORIENTED_EDGE('',*,*,#130,.F.);
#165=ORIENTED_EDGE('',*,*,#132,.F.);
#166=ORIENTED_EDGE('',*,*,#133,.T.);
#167=ORIENTED_EDGE('',*,*,#134,.T.);
#168=ORIENTED_EDGE('',*,*,#133,.F.);
#169=ORIENTED_EDGE('',*,*,#135,.T.);
#170=ORIENTED_EDGE('',*,*,#136,.T.);
#171=ORIENTED_EDGE('',*,*,#137,.F.);
#172=ORIENTED_EDGE('',*,*,#138,.F.);
#173=ORIENTED_EDGE('',*,*,#139,.T.);
#174=ORIENTED_EDGE('',*,*,#138,.T.);
#175=ORIENTED_EDGE('',*,*,#140,.F.);
#176=ORIENTED_EDGE('',*,*,#141,.F.);
#177=ORIENTED_EDGE('',*,*,#142,.T.);
#178=ORIENTED_EDGE('',*,*,#141,.T.);
#179=ORIENTED_EDGE('',*,*,#143,.F.);
#180=ORIENTED_EDGE('',*,*,#144,.F.);
#181=ORIENTED_EDGE('',*,*,#145,.T.);
#182=ORIENTED_EDGE('',*,*,#144,.T.);
#183=ORIENTED_EDGE('',*,*,#146,.F.);
#184=ORIENTED_EDGE('',*,*,#147,.F.);
#185=ORIENTED_EDGE('',*,*,#148,.T.);
#186=ORIENTED_EDGE('',*,*,#147,.T.);
#187=ORIENTED_EDGE('',*,*,#149,.F.);
#188=ORIENTED_EDGE('',*,*,#150,.F.);
#189=ORIENTED_EDGE('',*,*,#151,.T.);
#190=ORIENTED_EDGE('',*,*,#150,.T.);
#191=ORIENTED_EDGE('',*,*,#152,.F.);
#192=ORIENTED_EDGE('',*,*,#136,.F.);
#193=ORIENTED_EDGE('',*,*,#152,.T.);
#194=ORIENTED_EDGE('',*,*,#149,.T.);
#195=ORIENTED_EDGE('',*,*,#146,.T.);
#196=ORIENTED_EDGE('',*,*,#143,.T.);
#197=ORIENTED_EDGE('',*,*,#140,.T.);
#198=ORIENTED_EDGE('',*,*,#137,.T.);
#199=ORIENTED_EDGE('',*,*,#132,.T.);
#200=ORIENTED_EDGE('',*,*,#129,.T.);
#201=ORIENTED_EDGE('',*,*,#126,.T.);
#202=ORIENTED_EDGE('',*,*,#123,.T.);
#203=ORIENTED_EDGE('',*,*,#151,.F.);
#204=ORIENTED_EDGE('',*,*,#135,.F.);
#205=ORIENTED_EDGE('',*,*,#139,.F.);
#206=ORIENTED_EDGE('',*,*,#142,.F.);
#207=ORIENTED_EDGE('',*,*,#145,.F.);
#208=ORIENTED_EDGE('',*,*,#148,.F.);
#209=ORIENTED_EDGE('',*,*,#134,.F.);
#210=ORIENTED_EDGE('',*,*,#131,.F.);
#211=ORIENTED_EDGE('',*,*,#128,.F.);
#212=ORIENTED_EDGE('',*,*,#125,.F.);
#213=CYLINDRICAL_SURFACE('',#255,0.155);
#214=CYLINDRICAL_SURFACE('',#258,0.086);
#215=CYLINDRICAL_SURFACE('',#261,0.0859999999999999);
#216=CYLINDRICAL_SURFACE('',#264,0.086);
#217=CYLINDRICAL_SURFACE('',#267,1.);
#218=CYLINDRICAL_SURFACE('',#270,8.);
#219=CYLINDRICAL_SURFACE('',#273,0.25);
#220=CYLINDRICAL_SURFACE('',#277,0.25);
#221=ADVANCED_FACE('',(#27),#213,.F.);
#222=ADVANCED_FACE('',(#28),#214,.F.);
#223=ADVANCED_FACE('',(#29),#215,.F.);
#224=ADVANCED_FACE('',(#30),#216,.F.);
#225=ADVANCED_FACE('',(#31),#217,.T.);
#226=ADVANCED_FACE('',(#32),#218,.F.);
#227=ADVANCED_FACE('',(#33),#219,.T.);
#228=ADVANCED_FACE('',(#34),#23,.T.);
#229=ADVANCED_FACE('',(#35),#220,.T.);
#230=ADVANCED_FACE('',(#36),#24,.T.);
#231=ADVANCED_FACE('',(#37,#15,#16,#17,#18),#25,.T.);
#232=ADVANCED_FACE('',(#38,#19,#20,#21,#22),#26,.F.);
#233=CLOSED_SHELL('',(#221,#222,#223,#224,#225,#226,#227,#228,#229,#230,
#231,#232));
#234=DERIVED_UNIT_ELEMENT(#236,1.);
#235=DERIVED_UNIT_ELEMENT(#426,-3.);
#236=(
CONVERSION_BASED_UNIT('gram',#238)
MASS_UNIT()
NAMED_UNIT(#423)
);
#237=(
MASS_UNIT()
NAMED_UNIT(*)
SI_UNIT(.KILO.,.GRAM.)
);
#238=MASS_MEASURE_WITH_UNIT(MASS_MEASURE(0.001),#237);
#239=DERIVED_UNIT((#234,#235));
#240=MEASURE_REPRESENTATION_ITEM('density measure',
POSITIVE_RATIO_MEASURE(1.),#239);
#241=PROPERTY_DEFINITION_REPRESENTATION(#246,#243);
#242=PROPERTY_DEFINITION_REPRESENTATION(#247,#244);
#243=REPRESENTATION('material name',(#245),#420);
#244=REPRESENTATION('density',(#240),#420);
#245=DESCRIPTIVE_REPRESENTATION_ITEM('Generic','Generic');
#246=PROPERTY_DEFINITION('material property','material name',#434);
#247=PROPERTY_DEFINITION('material property','density of part',#434);
#248=DATE_TIME_ROLE('creation_date');
#249=APPLIED_DATE_AND_TIME_ASSIGNMENT(#250,#248,(#434));
#250=DATE_AND_TIME(#251,#252);
#251=CALENDAR_DATE(2025,5,12);
#252=LOCAL_TIME(0,0,0.,#253);
#253=COORDINATED_UNIVERSAL_TIME_OFFSET(0,0,.BEHIND.);
#254=AXIS2_PLACEMENT_3D('',#355,#283,#284);
#255=AXIS2_PLACEMENT_3D('',#356,#285,#286);
#256=AXIS2_PLACEMENT_3D('',#358,#287,#288);
#257=AXIS2_PLACEMENT_3D('',#361,#290,#291);
#258=AXIS2_PLACEMENT_3D('',#362,#292,#293);
#259=AXIS2_PLACEMENT_3D('',#364,#294,#295);
#260=AXIS2_PLACEMENT_3D('',#367,#297,#298);
#261=AXIS2_PLACEMENT_3D('',#368,#299,#300);
#262=AXIS2_PLACEMENT_3D('',#370,#301,#302);
#263=AXIS2_PLACEMENT_3D('',#373,#304,#305);
#264=AXIS2_PLACEMENT_3D('',#374,#306,#307);
#265=AXIS2_PLACEMENT_3D('',#376,#308,#309);
#266=AXIS2_PLACEMENT_3D('',#379,#311,#312);
#267=AXIS2_PLACEMENT_3D('',#380,#313,#314);
#268=AXIS2_PLACEMENT_3D('',#383,#315,#316);
#269=AXIS2_PLACEMENT_3D('',#387,#318,#319);
#270=AXIS2_PLACEMENT_3D('',#389,#321,#322);
#271=AXIS2_PLACEMENT_3D('',#391,#323,#324);
#272=AXIS2_PLACEMENT_3D('',#393,#325,#326);
#273=AXIS2_PLACEMENT_3D('',#395,#328,#329);
#274=AXIS2_PLACEMENT_3D('',#397,#330,#331);
#275=AXIS2_PLACEMENT_3D('',#399,#332,#333);
#276=AXIS2_PLACEMENT_3D('',#401,#335,#336);
#277=AXIS2_PLACEMENT_3D('',#407,#340,#341);
#278=AXIS2_PLACEMENT_3D('',#409,#342,#343);
#279=AXIS2_PLACEMENT_3D('',#411,#344,#345);
#280=AXIS2_PLACEMENT_3D('',#413,#347,#348);
#281=AXIS2_PLACEMENT_3D('',#416,#351,#352);
#282=AXIS2_PLACEMENT_3D('',#417,#353,#354);
#283=DIRECTION('axis',(0.,0.,1.));
#284=DIRECTION('refdir',(1.,0.,0.));
#285=DIRECTION('center_axis',(0.,0.,1.));
#286=DIRECTION('ref_axis',(-1.,0.,0.));
#287=DIRECTION('center_axis',(0.,0.,-1.));
#288=DIRECTION('ref_axis',(-1.,0.,0.));
#289=DIRECTION('',(0.,0.,-1.));
#290=DIRECTION('center_axis',(0.,0.,-1.));
#291=DIRECTION('ref_axis',(-1.,0.,0.));
#292=DIRECTION('center_axis',(0.,0.,1.));
#293=DIRECTION('ref_axis',(-1.,0.,0.));
#294=DIRECTION('center_axis',(0.,0.,-1.));
#295=DIRECTION('ref_axis',(-1.,0.,0.));
#296=DIRECTION('',(0.,0.,-1.));
#297=DIRECTION('center_axis',(0.,0.,-1.));
#298=DIRECTION('ref_axis',(-1.,0.,0.));
#299=DIRECTION('center_axis',(0.,0.,1.));
#300=DIRECTION('ref_axis',(-1.,0.,0.));
#301=DIRECTION('center_axis',(0.,0.,-1.));
#302=DIRECTION('ref_axis',(-1.,0.,0.));
#303=DIRECTION('',(0.,0.,-1.));
#304=DIRECTION('center_axis',(0.,0.,-1.));
#305=DIRECTION('ref_axis',(-1.,0.,0.));
#306=DIRECTION('center_axis',(0.,0.,1.));
#307=DIRECTION('ref_axis',(-1.,0.,0.));
#308=DIRECTION('center_axis',(0.,0.,-1.));
#309=DIRECTION('ref_axis',(-1.,0.,0.));
#310=DIRECTION('',(0.,0.,-1.));
#311=DIRECTION('center_axis',(0.,0.,-1.));
#312=DIRECTION('ref_axis',(-1.,0.,0.));
#313=DIRECTION('center_axis',(0.,0.,1.));
#314=DIRECTION('ref_axis',(-0.403996167743855,-0.914760677143634,0.));
#315=DIRECTION('center_axis',(0.,0.,1.));
#316=DIRECTION('ref_axis',(-0.868983560740557,0.494840955421702,0.));
#317=DIRECTION('',(0.,0.,1.));
#318=DIRECTION('center_axis',(0.,0.,1.));
#319=DIRECTION('ref_axis',(-0.868983560740557,0.494840955421702,0.));
#320=DIRECTION('',(0.,0.,1.));
#321=DIRECTION('center_axis',(0.,0.,1.));
#322=DIRECTION('ref_axis',(-0.868983560740557,0.494840955421702,0.));
#323=DIRECTION('center_axis',(0.,0.,-1.));
#324=DIRECTION('ref_axis',(-0.868983560740557,0.494840955421702,0.));
#325=DIRECTION('center_axis',(0.,0.,-1.));
#326=DIRECTION('ref_axis',(-0.868983560740557,0.494840955421702,0.));
#327=DIRECTION('',(0.,0.,1.));
#328=DIRECTION('center_axis',(0.,0.,1.));
#329=DIRECTION('ref_axis',(0.993649695321856,0.112517922958001,0.));
#330=DIRECTION('center_axis',(0.,0.,1.));
#331=DIRECTION('ref_axis',(0.993649695321856,0.112517922958001,0.));
#332=DIRECTION('center_axis',(0.,0.,1.));
#333=DIRECTION('ref_axis',(0.993649695321856,0.112517922958001,0.));
#334=DIRECTION('',(0.,0.,1.));
#335=DIRECTION('center_axis',(0.993649695321856,0.112517922958001,0.));
#336=DIRECTION('ref_axis',(-0.112517922958001,0.993649695321856,0.));
#337=DIRECTION('',(-0.112517922958001,0.993649695321856,0.));
#338=DIRECTION('',(-0.112517922958001,0.993649695321856,0.));
#339=DIRECTION('',(0.,0.,1.));
#340=DIRECTION('center_axis',(0.,0.,1.));
#341=DIRECTION('ref_axis',(0.951071557487683,-0.308970698510317,0.));
#342=DIRECTION('center_axis',(0.,0.,1.));
#343=DIRECTION('ref_axis',(0.951071557487683,-0.308970698510317,0.));
#344=DIRECTION('center_axis',(0.,0.,1.));
#345=DIRECTION('ref_axis',(0.951071557487683,-0.308970698510317,0.));
#346=DIRECTION('',(0.,0.,1.));
#347=DIRECTION('center_axis',(0.951071557487683,-0.308970698510318,0.));
#348=DIRECTION('ref_axis',(0.308970698510317,0.951071557487683,0.));
#349=DIRECTION('',(0.308970698510317,0.951071557487683,0.));
#350=DIRECTION('',(0.308970698510317,0.951071557487683,0.));
#351=DIRECTION('center_axis',(0.,0.,1.));
#352=DIRECTION('ref_axis',(1.,0.,0.));
#353=DIRECTION('center_axis',(0.,0.,1.));
#354=DIRECTION('ref_axis',(1.,0.,0.));
#355=CARTESIAN_POINT('',(0.,0.,0.));
#356=CARTESIAN_POINT('Origin',(0.0722451923669277,-1.85517652479759,0.));
#357=CARTESIAN_POINT('',(0.227245192366928,-1.85517652479759,0.2));
#358=CARTESIAN_POINT('Origin',(0.0722451923669277,-1.85517652479759,0.2));
#359=CARTESIAN_POINT('',(0.227245192366928,-1.85517652479759,0.));
#360=CARTESIAN_POINT('',(0.227245192366928,-1.85517652479759,0.));
#361=CARTESIAN_POINT('Origin',(0.0722451923669277,-1.85517652479759,0.));
#362=CARTESIAN_POINT('Origin',(0.499999999999997,2.75,0.));
#363=CARTESIAN_POINT('',(0.585999999999997,2.75,0.2));
#364=CARTESIAN_POINT('Origin',(0.499999999999997,2.75,0.2));
#365=CARTESIAN_POINT('',(0.585999999999997,2.75,0.));
#366=CARTESIAN_POINT('',(0.585999999999997,2.75,0.));
#367=CARTESIAN_POINT('Origin',(0.499999999999997,2.75,0.));
#368=CARTESIAN_POINT('Origin',(0.979953785948902,-1.48848859487669,0.));
#369=CARTESIAN_POINT('',(1.0659537859489,-1.48848859487669,0.2));
#370=CARTESIAN_POINT('Origin',(0.979953785948902,-1.48848859487669,0.2));
#371=CARTESIAN_POINT('',(1.0659537859489,-1.48848859487669,0.));
#372=CARTESIAN_POINT('',(1.0659537859489,-1.48848859487669,0.));
#373=CARTESIAN_POINT('Origin',(0.979953785948902,-1.48848859487669,0.));
#374=CARTESIAN_POINT('Origin',(0.923694824469902,-0.991663747215758,0.));
#375=CARTESIAN_POINT('',(1.0096948244699,-0.991663747215758,0.2));
#376=CARTESIAN_POINT('Origin',(0.923694824469902,-0.991663747215758,0.2));
#377=CARTESIAN_POINT('',(1.0096948244699,-0.991663747215758,0.));
#378=CARTESIAN_POINT('',(1.0096948244699,-0.991663747215758,0.));
#379=CARTESIAN_POINT('Origin',(0.923694824469902,-0.991663747215758,0.));
#380=CARTESIAN_POINT('Origin',(0.0722451923669277,-1.85517652479759,0.));
#381=CARTESIAN_POINT('',(-0.796738368373629,-1.36033556937588,0.));
#382=CARTESIAN_POINT('',(1.02331674985461,-2.1641472233079,0.));
#383=CARTESIAN_POINT('Origin',(0.0722451923669277,-1.85517652479759,0.));
#384=CARTESIAN_POINT('',(1.02331674985461,-2.1641472233079,0.2));
#385=CARTESIAN_POINT('',(1.02331674985461,-2.1641472233079,0.));
#386=CARTESIAN_POINT('',(-0.796738368373629,-1.36033556937588,0.2));
#387=CARTESIAN_POINT('Origin',(0.0722451923669277,-1.85517652479759,0.2));
#388=CARTESIAN_POINT('',(-0.796738368373629,-1.36033556937588,0.));
#389=CARTESIAN_POINT('Origin',(-7.74860685429809,2.59839207399773,0.));
#390=CARTESIAN_POINT('',(0.250042216536418,2.74540582042418,0.));
#391=CARTESIAN_POINT('Origin',(-7.74860685429809,2.59839207399773,0.));
#392=CARTESIAN_POINT('',(0.250042216536418,2.74540582042418,0.2));
#393=CARTESIAN_POINT('Origin',(-7.74860685429809,2.59839207399773,0.2));
#394=CARTESIAN_POINT('',(0.250042216536418,2.74540582042418,0.));
#395=CARTESIAN_POINT('Origin',(0.499999999999997,2.75,0.));
#396=CARTESIAN_POINT('',(0.748412423830461,2.7781294807395,0.));
#397=CARTESIAN_POINT('Origin',(0.499999999999997,2.75,0.));
#398=CARTESIAN_POINT('',(0.748412423830461,2.7781294807395,0.2));
#399=CARTESIAN_POINT('Origin',(0.499999999999997,2.75,0.2));
#400=CARTESIAN_POINT('',(0.748412423830461,2.7781294807395,0.));
#401=CARTESIAN_POINT('Origin',(1.22836620977937,-1.46035911413719,0.));
#402=CARTESIAN_POINT('',(1.22836620977937,-1.46035911413719,0.));
#403=CARTESIAN_POINT('',(1.22836620977937,-1.46035911413719,0.));
#404=CARTESIAN_POINT('',(1.22836620977937,-1.46035911413719,0.2));
#405=CARTESIAN_POINT('',(1.22836620977937,-1.46035911413719,0.2));
#406=CARTESIAN_POINT('',(1.22836620977937,-1.46035911413719,0.));
#407=CARTESIAN_POINT('Origin',(0.979953785948902,-1.48848859487669,0.));
#408=CARTESIAN_POINT('',(1.21772167532082,-1.56573126950427,0.));
#409=CARTESIAN_POINT('Origin',(0.979953785948902,-1.48848859487669,0.));
#410=CARTESIAN_POINT('',(1.21772167532082,-1.56573126950427,0.2));
#411=CARTESIAN_POINT('Origin',(0.979953785948902,-1.48848859487669,0.2));
#412=CARTESIAN_POINT('',(1.21772167532082,-1.56573126950427,0.));
#413=CARTESIAN_POINT('Origin',(1.02331674985461,-2.1641472233079,0.));
#414=CARTESIAN_POINT('',(1.02331674985461,-2.1641472233079,0.));
#415=CARTESIAN_POINT('',(1.02331674985461,-2.1641472233079,0.2));
#416=CARTESIAN_POINT('Origin',(0.151099489157915,0.0724117376012083,0.2));
#417=CARTESIAN_POINT('Origin',(0.151099489157915,0.0724117376012083,0.));
#418=UNCERTAINTY_MEASURE_WITH_UNIT(LENGTH_MEASURE(0.000393700787401575),
#424,'DISTANCE_ACCURACY_VALUE',
'Maximum model space distance between geometric entities at asserted c
onnectivities');
#419=UNCERTAINTY_MEASURE_WITH_UNIT(LENGTH_MEASURE(0.000393700787401575),
#424,'DISTANCE_ACCURACY_VALUE',
'Maximum model space distance between geometric entities at asserted c
onnectivities');
#420=(
GEOMETRIC_REPRESENTATION_CONTEXT(3)
GLOBAL_UNCERTAINTY_ASSIGNED_CONTEXT((#418))
GLOBAL_UNIT_ASSIGNED_CONTEXT((#424,#428,#429))
REPRESENTATION_CONTEXT('','3D')
);
#421=(
GEOMETRIC_REPRESENTATION_CONTEXT(3)
GLOBAL_UNCERTAINTY_ASSIGNED_CONTEXT((#419))
GLOBAL_UNIT_ASSIGNED_CONTEXT((#424,#428,#429))
REPRESENTATION_CONTEXT('','3D')
);
#422=DIMENSIONAL_EXPONENTS(1.,0.,0.,0.,0.,0.,0.);
#423=DIMENSIONAL_EXPONENTS(0.,1.,0.,0.,0.,0.,0.);
#424=(
CONVERSION_BASED_UNIT('inch',#427)
LENGTH_UNIT()
NAMED_UNIT(#422)
);
#425=(
LENGTH_UNIT()
NAMED_UNIT(*)
SI_UNIT(.MILLI.,.METRE.)
);
#426=(
LENGTH_UNIT()
NAMED_UNIT(*)
SI_UNIT(.CENTI.,.METRE.)
);
#427=LENGTH_MEASURE_WITH_UNIT(LENGTH_MEASURE(25.4),#425);
#428=(
NAMED_UNIT(*)
PLANE_ANGLE_UNIT()
SI_UNIT($,.RADIAN.)
);
#429=(
NAMED_UNIT(*)
SI_UNIT($,.STERADIAN.)
SOLID_ANGLE_UNIT()
);
#430=SHAPE_DEFINITION_REPRESENTATION(#431,#432);
#431=PRODUCT_DEFINITION_SHAPE('',$,#434);
#432=SHAPE_REPRESENTATION('',(#254),#420);
#433=PRODUCT_DEFINITION_CONTEXT('part definition',#438,'design');
#434=PRODUCT_DEFINITION('intakeSide','intakeSide',#435,#433);
#435=PRODUCT_DEFINITION_FORMATION('',$,#440);
#436=PRODUCT_RELATED_PRODUCT_CATEGORY('intakeSide','intakeSide',(#440));
#437=APPLICATION_PROTOCOL_DEFINITION('international standard',
'automotive_design',2009,#438);
#438=APPLICATION_CONTEXT(
'Core Data for Automotive Mechanical Design Process');
#439=PRODUCT_CONTEXT('part definition',#438,'mechanical');
#440=PRODUCT('intakeSide','intakeSide',$,(#439));
#441=PRESENTATION_STYLE_ASSIGNMENT((#442));
#442=SURFACE_STYLE_USAGE(.BOTH.,#445);
#443=SURFACE_STYLE_RENDERING_WITH_PROPERTIES($,#449,(#444));
#444=SURFACE_STYLE_TRANSPARENT(0.);
#445=SURFACE_SIDE_STYLE('',(#446,#443));
#446=SURFACE_STYLE_FILL_AREA(#447);
#447=FILL_AREA_STYLE('',(#448));
#448=FILL_AREA_STYLE_COLOUR('',#449);
#449=COLOUR_RGB('',0.749019607843137,0.749019607843137,0.749019607843137);
ENDSEC;
END-ISO-10303-21;
