ISO-10303-21;
HEADER;
/* Generated by software containing ST-Developer
 * from STEP Tools, Inc. (www.steptools.com) 
 */

FILE_DESCRIPTION(
/* description */ (''),
/* implementation_level */ '2;1');

FILE_NAME(
/* name */ 'intakebrace.stp',
/* time_stamp */ '2026-01-22T12:53:34+13:00',
/* author */ ('cloudy'),
/* organization */ (''),
/* preprocessor_version */ 'ST-DEVELOPER v20',
/* originating_system */ 'Autodesk Inventor 2025',
/* authorisation */ '');

FILE_SCHEMA (('AUTOMOTIVE_DESIGN { 1 0 10303 214 3 1 1 }'));
ENDSEC;

DATA;
#10=MECHANICAL_DESIGN_GEOMETRIC_PRESENTATION_REPRESENTATION('',(#13),#487);
#11=SHAPE_REPRESENTATION_RELATIONSHIP('SRR','None',#498,#12);
#12=ADVANCED_BREP_SHAPE_REPRESENTATION('',(#14),#486);
#13=STYLED_ITEM('',(#507),#14);
#14=MANIFOLD_SOLID_BREP('Solid1',#275);
#15=FACE_BOUND('',#56,.T.);
#16=FACE_BOUND('',#57,.T.);
#17=FACE_BOUND('',#58,.T.);
#18=FACE_BOUND('',#59,.T.);
#19=FACE_BOUND('',#61,.T.);
#20=FACE_BOUND('',#62,.T.);
#21=FACE_BOUND('',#63,.T.);
#22=FACE_BOUND('',#64,.T.);
#23=PLANE('',#312);
#24=PLANE('',#316);
#25=PLANE('',#320);
#26=PLANE('',#324);
#27=PLANE('',#325);
#28=PLANE('',#326);
#29=FACE_OUTER_BOUND('',#43,.T.);
#30=FACE_OUTER_BOUND('',#44,.T.);
#31=FACE_OUTER_BOUND('',#45,.T.);
#32=FACE_OUTER_BOUND('',#46,.T.);
#33=FACE_OUTER_BOUND('',#47,.T.);
#34=FACE_OUTER_BOUND('',#48,.T.);
#35=FACE_OUTER_BOUND('',#49,.T.);
#36=FACE_OUTER_BOUND('',#50,.T.);
#37=FACE_OUTER_BOUND('',#51,.T.);
#38=FACE_OUTER_BOUND('',#52,.T.);
#39=FACE_OUTER_BOUND('',#53,.T.);
#40=FACE_OUTER_BOUND('',#54,.T.);
#41=FACE_OUTER_BOUND('',#55,.T.);
#42=FACE_OUTER_BOUND('',#60,.T.);
#43=EDGE_LOOP('',(#181,#182,#183,#184));
#44=EDGE_LOOP('',(#185,#186,#187,#188));
#45=EDGE_LOOP('',(#189,#190,#191,#192));
#46=EDGE_LOOP('',(#193,#194,#195,#196));
#47=EDGE_LOOP('',(#197,#198,#199,#200));
#48=EDGE_LOOP('',(#201,#202,#203,#204));
#49=EDGE_LOOP('',(#205,#206,#207,#208));
#50=EDGE_LOOP('',(#209,#210,#211,#212));
#51=EDGE_LOOP('',(#213,#214,#215,#216));
#52=EDGE_LOOP('',(#217,#218,#219,#220));
#53=EDGE_LOOP('',(#221,#222,#223,#224));
#54=EDGE_LOOP('',(#225,#226,#227,#228));
#55=EDGE_LOOP('',(#229,#230,#231,#232,#233,#234,#235,#236));
#56=EDGE_LOOP('',(#237));
#57=EDGE_LOOP('',(#238));
#58=EDGE_LOOP('',(#239));
#59=EDGE_LOOP('',(#240));
#60=EDGE_LOOP('',(#241,#242,#243,#244,#245,#246,#247,#248));
#61=EDGE_LOOP('',(#249));
#62=EDGE_LOOP('',(#250));
#63=EDGE_LOOP('',(#251));
#64=EDGE_LOOP('',(#252));
#65=LINE('',#414,#85);
#66=LINE('',#420,#86);
#67=LINE('',#426,#87);
#68=LINE('',#432,#88);
#69=LINE('',#439,#89);
#70=LINE('',#442,#90);
#71=LINE('',#445,#91);
#72=LINE('',#447,#92);
#73=LINE('',#448,#93);
#74=LINE('',#454,#94);
#75=LINE('',#457,#95);
#76=LINE('',#459,#96);
#77=LINE('',#460,#97);
#78=LINE('',#466,#98);
#79=LINE('',#469,#99);
#80=LINE('',#471,#100);
#81=LINE('',#472,#101);
#82=LINE('',#478,#102);
#83=LINE('',#480,#103);
#84=LINE('',#481,#104);
#85=VECTOR('',#333,0.086);
#86=VECTOR('',#340,0.086);
#87=VECTOR('',#347,0.086);
#88=VECTOR('',#354,0.086);
#89=VECTOR('',#361,0.393700787401575);
#90=VECTOR('',#364,0.393700787401575);
#91=VECTOR('',#367,0.393700787401575);
#92=VECTOR('',#368,0.393700787401575);
#93=VECTOR('',#369,0.393700787401575);
#94=VECTOR('',#376,0.393700787401575);
#95=VECTOR('',#379,0.393700787401575);
#96=VECTOR('',#380,0.393700787401575);
#97=VECTOR('',#381,0.393700787401575);
#98=VECTOR('',#388,0.393700787401575);
#99=VECTOR('',#391,0.393700787401575);
#100=VECTOR('',#392,0.393700787401575);
#101=VECTOR('',#393,0.393700787401575);
#102=VECTOR('',#400,0.393700787401575);
#103=VECTOR('',#403,0.393700787401575);
#104=VECTOR('',#404,0.393700787401575);
#105=CIRCLE('',#298,0.086);
#106=CIRCLE('',#299,0.086);
#107=CIRCLE('',#301,0.086);
#108=CIRCLE('',#302,0.086);
#109=CIRCLE('',#304,0.086);
#110=CIRCLE('',#305,0.086);
#111=CIRCLE('',#307,0.086);
#112=CIRCLE('',#308,0.086);
#113=CIRCLE('',#310,0.250000000000002);
#114=CIRCLE('',#311,0.250000000000002);
#115=CIRCLE('',#314,0.250000000000003);
#116=CIRCLE('',#315,0.250000000000003);
#117=CIRCLE('',#318,0.25);
#118=CIRCLE('',#319,0.25);
#119=CIRCLE('',#322,0.25);
#120=CIRCLE('',#323,0.25);
#121=VERTEX_POINT('',#411);
#122=VERTEX_POINT('',#413);
#123=VERTEX_POINT('',#417);
#124=VERTEX_POINT('',#419);
#125=VERTEX_POINT('',#423);
#126=VERTEX_POINT('',#425);
#127=VERTEX_POINT('',#429);
#128=VERTEX_POINT('',#431);
#129=VERTEX_POINT('',#435);
#130=VERTEX_POINT('',#436);
#131=VERTEX_POINT('',#438);
#132=VERTEX_POINT('',#440);
#133=VERTEX_POINT('',#444);
#134=VERTEX_POINT('',#446);
#135=VERTEX_POINT('',#450);
#136=VERTEX_POINT('',#452);
#137=VERTEX_POINT('',#456);
#138=VERTEX_POINT('',#458);
#139=VERTEX_POINT('',#462);
#140=VERTEX_POINT('',#464);
#141=VERTEX_POINT('',#468);
#142=VERTEX_POINT('',#470);
#143=VERTEX_POINT('',#474);
#144=VERTEX_POINT('',#476);
#145=EDGE_CURVE('',#121,#121,#105,.T.);
#146=EDGE_CURVE('',#121,#122,#65,.T.);
#147=EDGE_CURVE('',#122,#122,#106,.T.);
#148=EDGE_CURVE('',#123,#123,#107,.T.);
#149=EDGE_CURVE('',#123,#124,#66,.T.);
#150=EDGE_CURVE('',#124,#124,#108,.T.);
#151=EDGE_CURVE('',#125,#125,#109,.T.);
#152=EDGE_CURVE('',#125,#126,#67,.T.);
#153=EDGE_CURVE('',#126,#126,#110,.T.);
#154=EDGE_CURVE('',#127,#127,#111,.T.);
#155=EDGE_CURVE('',#127,#128,#68,.T.);
#156=EDGE_CURVE('',#128,#128,#112,.T.);
#157=EDGE_CURVE('',#129,#130,#113,.T.);
#158=EDGE_CURVE('',#130,#131,#69,.T.);
#159=EDGE_CURVE('',#132,#131,#114,.T.);
#160=EDGE_CURVE('',#129,#132,#70,.T.);
#161=EDGE_CURVE('',#133,#129,#71,.T.);
#162=EDGE_CURVE('',#134,#132,#72,.T.);
#163=EDGE_CURVE('',#133,#134,#73,.T.);
#164=EDGE_CURVE('',#135,#133,#115,.T.);
#165=EDGE_CURVE('',#136,#134,#116,.T.);
#166=EDGE_CURVE('',#135,#136,#74,.T.);
#167=EDGE_CURVE('',#137,#135,#75,.T.);
#168=EDGE_CURVE('',#138,#136,#76,.T.);
#169=EDGE_CURVE('',#137,#138,#77,.T.);
#170=EDGE_CURVE('',#139,#137,#117,.T.);
#171=EDGE_CURVE('',#140,#138,#118,.T.);
#172=EDGE_CURVE('',#139,#140,#78,.T.);
#173=EDGE_CURVE('',#141,#139,#79,.T.);
#174=EDGE_CURVE('',#142,#140,#80,.T.);
#175=EDGE_CURVE('',#141,#142,#81,.T.);
#176=EDGE_CURVE('',#143,#141,#119,.T.);
#177=EDGE_CURVE('',#144,#142,#120,.T.);
#178=EDGE_CURVE('',#143,#144,#82,.T.);
#179=EDGE_CURVE('',#130,#143,#83,.T.);
#180=EDGE_CURVE('',#131,#144,#84,.T.);
#181=ORIENTED_EDGE('',*,*,#145,.F.);
#182=ORIENTED_EDGE('',*,*,#146,.T.);
#183=ORIENTED_EDGE('',*,*,#147,.T.);
#184=ORIENTED_EDGE('',*,*,#146,.F.);
#185=ORIENTED_EDGE('',*,*,#148,.F.);
#186=ORIENTED_EDGE('',*,*,#149,.T.);
#187=ORIENTED_EDGE('',*,*,#150,.T.);
#188=ORIENTED_EDGE('',*,*,#149,.F.);
#189=ORIENTED_EDGE('',*,*,#151,.F.);
#190=ORIENTED_EDGE('',*,*,#152,.T.);
#191=ORIENTED_EDGE('',*,*,#153,.T.);
#192=ORIENTED_EDGE('',*,*,#152,.F.);
#193=ORIENTED_EDGE('',*,*,#154,.F.);
#194=ORIENTED_EDGE('',*,*,#155,.T.);
#195=ORIENTED_EDGE('',*,*,#156,.T.);
#196=ORIENTED_EDGE('',*,*,#155,.F.);
#197=ORIENTED_EDGE('',*,*,#157,.T.);
#198=ORIENTED_EDGE('',*,*,#158,.T.);
#199=ORIENTED_EDGE('',*,*,#159,.F.);
#200=ORIENTED_EDGE('',*,*,#160,.F.);
#201=ORIENTED_EDGE('',*,*,#161,.T.);
#202=ORIENTED_EDGE('',*,*,#160,.T.);
#203=ORIENTED_EDGE('',*,*,#162,.F.);
#204=ORIENTED_EDGE('',*,*,#163,.F.);
#205=ORIENTED_EDGE('',*,*,#164,.T.);
#206=ORIENTED_EDGE('',*,*,#163,.T.);
#207=ORIENTED_EDGE('',*,*,#165,.F.);
#208=ORIENTED_EDGE('',*,*,#166,.F.);
#209=ORIENTED_EDGE('',*,*,#167,.T.);
#210=ORIENTED_EDGE('',*,*,#166,.T.);
#211=ORIENTED_EDGE('',*,*,#168,.F.);
#212=ORIENTED_EDGE('',*,*,#169,.F.);
#213=ORIENTED_EDGE('',*,*,#170,.T.);
#214=ORIENTED_EDGE('',*,*,#169,.T.);
#215=ORIENTED_EDGE('',*,*,#171,.F.);
#216=ORIENTED_EDGE('',*,*,#172,.F.);
#217=ORIENTED_EDGE('',*,*,#173,.T.);
#218=ORIENTED_EDGE('',*,*,#172,.T.);
#219=ORIENTED_EDGE('',*,*,#174,.F.);
#220=ORIENTED_EDGE('',*,*,#175,.F.);
#221=ORIENTED_EDGE('',*,*,#176,.T.);
#222=ORIENTED_EDGE('',*,*,#175,.T.);
#223=ORIENTED_EDGE('',*,*,#177,.F.);
#224=ORIENTED_EDGE('',*,*,#178,.F.);
#225=ORIENTED_EDGE('',*,*,#179,.T.);
#226=ORIENTED_EDGE('',*,*,#178,.T.);
#227=ORIENTED_EDGE('',*,*,#180,.F.);
#228=ORIENTED_EDGE('',*,*,#158,.F.);
#229=ORIENTED_EDGE('',*,*,#180,.T.);
#230=ORIENTED_EDGE('',*,*,#177,.T.);
#231=ORIENTED_EDGE('',*,*,#174,.T.);
#232=ORIENTED_EDGE('',*,*,#171,.T.);
#233=ORIENTED_EDGE('',*,*,#168,.T.);
#234=ORIENTED_EDGE('',*,*,#165,.T.);
#235=ORIENTED_EDGE('',*,*,#162,.T.);
#236=ORIENTED_EDGE('',*,*,#159,.T.);
#237=ORIENTED_EDGE('',*,*,#154,.T.);
#238=ORIENTED_EDGE('',*,*,#151,.T.);
#239=ORIENTED_EDGE('',*,*,#148,.T.);
#240=ORIENTED_EDGE('',*,*,#145,.T.);
#241=ORIENTED_EDGE('',*,*,#179,.F.);
#242=ORIENTED_EDGE('',*,*,#157,.F.);
#243=ORIENTED_EDGE('',*,*,#161,.F.);
#244=ORIENTED_EDGE('',*,*,#164,.F.);
#245=ORIENTED_EDGE('',*,*,#167,.F.);
#246=ORIENTED_EDGE('',*,*,#170,.F.);
#247=ORIENTED_EDGE('',*,*,#173,.F.);
#248=ORIENTED_EDGE('',*,*,#176,.F.);
#249=ORIENTED_EDGE('',*,*,#156,.F.);
#250=ORIENTED_EDGE('',*,*,#153,.F.);
#251=ORIENTED_EDGE('',*,*,#150,.F.);
#252=ORIENTED_EDGE('',*,*,#147,.F.);
#253=CYLINDRICAL_SURFACE('',#297,0.086);
#254=CYLINDRICAL_SURFACE('',#300,0.086);
#255=CYLINDRICAL_SURFACE('',#303,0.086);
#256=CYLINDRICAL_SURFACE('',#306,0.086);
#257=CYLINDRICAL_SURFACE('',#309,0.250000000000002);
#258=CYLINDRICAL_SURFACE('',#313,0.250000000000003);
#259=CYLINDRICAL_SURFACE('',#317,0.25);
#260=CYLINDRICAL_SURFACE('',#321,0.25);
#261=ADVANCED_FACE('',(#29),#253,.F.);
#262=ADVANCED_FACE('',(#30),#254,.F.);
#263=ADVANCED_FACE('',(#31),#255,.F.);
#264=ADVANCED_FACE('',(#32),#256,.F.);
#265=ADVANCED_FACE('',(#33),#257,.T.);
#266=ADVANCED_FACE('',(#34),#23,.T.);
#267=ADVANCED_FACE('',(#35),#258,.T.);
#268=ADVANCED_FACE('',(#36),#24,.T.);
#269=ADVANCED_FACE('',(#37),#259,.T.);
#270=ADVANCED_FACE('',(#38),#25,.T.);
#271=ADVANCED_FACE('',(#39),#260,.T.);
#272=ADVANCED_FACE('',(#40),#26,.T.);
#273=ADVANCED_FACE('',(#41,#15,#16,#17,#18),#27,.T.);
#274=ADVANCED_FACE('',(#42,#19,#20,#21,#22),#28,.F.);
#275=CLOSED_SHELL('',(#261,#262,#263,#264,#265,#266,#267,#268,#269,#270,
#271,#272,#273,#274));
#276=DERIVED_UNIT_ELEMENT(#278,1.);
#277=DERIVED_UNIT_ELEMENT(#492,-3.);
#278=(
CONVERSION_BASED_UNIT('gram',#280)
MASS_UNIT()
NAMED_UNIT(#489)
);
#279=(
MASS_UNIT()
NAMED_UNIT(*)
SI_UNIT(.KILO.,.GRAM.)
);
#280=MASS_MEASURE_WITH_UNIT(MASS_MEASURE(0.001),#279);
#281=DERIVED_UNIT((#276,#277));
#282=MEASURE_REPRESENTATION_ITEM('density measure',
POSITIVE_RATIO_MEASURE(1.),#281);
#283=PROPERTY_DEFINITION_REPRESENTATION(#288,#285);
#284=PROPERTY_DEFINITION_REPRESENTATION(#289,#286);
#285=REPRESENTATION('material name',(#287),#486);
#286=REPRESENTATION('density',(#282),#486);
#287=DESCRIPTIVE_REPRESENTATION_ITEM('Generic','Generic');
#288=PROPERTY_DEFINITION('material property','material name',#500);
#289=PROPERTY_DEFINITION('material property','density of part',#500);
#290=DATE_TIME_ROLE('creation_date');
#291=APPLIED_DATE_AND_TIME_ASSIGNMENT(#292,#290,(#500));
#292=DATE_AND_TIME(#293,#294);
#293=CALENDAR_DATE(2025,10,12);
#294=LOCAL_TIME(0,0,0.,#295);
#295=COORDINATED_UNIVERSAL_TIME_OFFSET(0,0,.BEHIND.);
#296=AXIS2_PLACEMENT_3D('',#409,#327,#328);
#297=AXIS2_PLACEMENT_3D('',#410,#329,#330);
#298=AXIS2_PLACEMENT_3D('',#412,#331,#332);
#299=AXIS2_PLACEMENT_3D('',#415,#334,#335);
#300=AXIS2_PLACEMENT_3D('',#416,#336,#337);
#301=AXIS2_PLACEMENT_3D('',#418,#338,#339);
#302=AXIS2_PLACEMENT_3D('',#421,#341,#342);
#303=AXIS2_PLACEMENT_3D('',#422,#343,#344);
#304=AXIS2_PLACEMENT_3D('',#424,#345,#346);
#305=AXIS2_PLACEMENT_3D('',#427,#348,#349);
#306=AXIS2_PLACEMENT_3D('',#428,#350,#351);
#307=AXIS2_PLACEMENT_3D('',#430,#352,#353);
#308=AXIS2_PLACEMENT_3D('',#433,#355,#356);
#309=AXIS2_PLACEMENT_3D('',#434,#357,#358);
#310=AXIS2_PLACEMENT_3D('',#437,#359,#360);
#311=AXIS2_PLACEMENT_3D('',#441,#362,#363);
#312=AXIS2_PLACEMENT_3D('',#443,#365,#366);
#313=AXIS2_PLACEMENT_3D('',#449,#370,#371);
#314=AXIS2_PLACEMENT_3D('',#451,#372,#373);
#315=AXIS2_PLACEMENT_3D('',#453,#374,#375);
#316=AXIS2_PLACEMENT_3D('',#455,#377,#378);
#317=AXIS2_PLACEMENT_3D('',#461,#382,#383);
#318=AXIS2_PLACEMENT_3D('',#463,#384,#385);
#319=AXIS2_PLACEMENT_3D('',#465,#386,#387);
#320=AXIS2_PLACEMENT_3D('',#467,#389,#390);
#321=AXIS2_PLACEMENT_3D('',#473,#394,#395);
#322=AXIS2_PLACEMENT_3D('',#475,#396,#397);
#323=AXIS2_PLACEMENT_3D('',#477,#398,#399);
#324=AXIS2_PLACEMENT_3D('',#479,#401,#402);
#325=AXIS2_PLACEMENT_3D('',#482,#405,#406);
#326=AXIS2_PLACEMENT_3D('',#483,#407,#408);
#327=DIRECTION('axis',(0.,0.,1.));
#328=DIRECTION('refdir',(1.,0.,0.));
#329=DIRECTION('center_axis',(0.,0.,1.));
#330=DIRECTION('ref_axis',(-1.,0.,0.));
#331=DIRECTION('center_axis',(0.,0.,-1.));
#332=DIRECTION('ref_axis',(-1.,0.,0.));
#333=DIRECTION('',(0.,0.,-1.));
#334=DIRECTION('center_axis',(0.,0.,-1.));
#335=DIRECTION('ref_axis',(-1.,0.,0.));
#336=DIRECTION('center_axis',(0.,0.,1.));
#337=DIRECTION('ref_axis',(-1.,0.,0.));
#338=DIRECTION('center_axis',(0.,0.,-1.));
#339=DIRECTION('ref_axis',(-1.,0.,0.));
#340=DIRECTION('',(0.,0.,-1.));
#341=DIRECTION('center_axis',(0.,0.,-1.));
#342=DIRECTION('ref_axis',(-1.,0.,0.));
#343=DIRECTION('center_axis',(0.,0.,1.));
#344=DIRECTION('ref_axis',(-1.,0.,0.));
#345=DIRECTION('center_axis',(0.,0.,-1.));
#346=DIRECTION('ref_axis',(-1.,0.,0.));
#347=DIRECTION('',(0.,0.,-1.));
#348=DIRECTION('center_axis',(0.,0.,-1.));
#349=DIRECTION('ref_axis',(-1.,0.,0.));
#350=DIRECTION('center_axis',(0.,0.,1.));
#351=DIRECTION('ref_axis',(-1.,0.,0.));
#352=DIRECTION('center_axis',(0.,0.,-1.));
#353=DIRECTION('ref_axis',(-1.,0.,0.));
#354=DIRECTION('',(0.,0.,-1.));
#355=DIRECTION('center_axis',(0.,0.,-1.));
#356=DIRECTION('ref_axis',(-1.,0.,0.));
#357=DIRECTION('center_axis',(0.,0.,1.));
#358=DIRECTION('ref_axis',(1.,8.04256049334753E-15,0.));
#359=DIRECTION('center_axis',(0.,0.,1.));
#360=DIRECTION('ref_axis',(1.,8.04256049334753E-15,0.));
#361=DIRECTION('',(0.,0.,1.));
#362=DIRECTION('center_axis',(0.,0.,1.));
#363=DIRECTION('ref_axis',(1.,8.04256049334753E-15,0.));
#364=DIRECTION('',(0.,0.,1.));
#365=DIRECTION('center_axis',(1.,0.,0.));
#366=DIRECTION('ref_axis',(0.,1.,0.));
#367=DIRECTION('',(0.,1.,0.));
#368=DIRECTION('',(0.,1.,0.));
#369=DIRECTION('',(0.,0.,1.));
#370=DIRECTION('center_axis',(0.,0.,1.));
#371=DIRECTION('ref_axis',(1.11896493820487E-14,-1.,0.));
#372=DIRECTION('center_axis',(0.,0.,1.));
#373=DIRECTION('ref_axis',(1.11896493820487E-14,-1.,0.));
#374=DIRECTION('center_axis',(0.,0.,1.));
#375=DIRECTION('ref_axis',(1.11896493820487E-14,-1.,0.));
#376=DIRECTION('',(0.,0.,1.));
#377=DIRECTION('center_axis',(0.,-1.,0.));
#378=DIRECTION('ref_axis',(1.,0.,0.));
#379=DIRECTION('',(1.,0.,0.));
#380=DIRECTION('',(1.,0.,0.));
#381=DIRECTION('',(0.,0.,1.));
#382=DIRECTION('center_axis',(0.,0.,1.));
#383=DIRECTION('ref_axis',(-1.,1.74838271594513E-16,0.));
#384=DIRECTION('center_axis',(0.,0.,1.));
#385=DIRECTION('ref_axis',(-1.,1.74838271594513E-16,0.));
#386=DIRECTION('center_axis',(0.,0.,1.));
#387=DIRECTION('ref_axis',(-1.,1.74838271594513E-16,0.));
#388=DIRECTION('',(0.,0.,1.));
#389=DIRECTION('center_axis',(-1.,-8.74191357972566E-17,0.));
#390=DIRECTION('ref_axis',(8.74191357972566E-17,-1.,0.));
#391=DIRECTION('',(8.74191357972566E-17,-1.,0.));
#392=DIRECTION('',(8.74191357972566E-17,-1.,0.));
#393=DIRECTION('',(0.,0.,1.));
#394=DIRECTION('center_axis',(0.,0.,1.));
#395=DIRECTION('ref_axis',(-5.46369598732853E-16,1.,0.));
#396=DIRECTION('center_axis',(0.,0.,1.));
#397=DIRECTION('ref_axis',(-5.46369598732853E-16,1.,0.));
#398=DIRECTION('center_axis',(0.,0.,1.));
#399=DIRECTION('ref_axis',(-5.46369598732853E-16,1.,0.));
#400=DIRECTION('',(0.,0.,1.));
#401=DIRECTION('center_axis',(-2.49768959420733E-16,1.,0.));
#402=DIRECTION('ref_axis',(-1.,-2.49768959420733E-16,0.));
#403=DIRECTION('',(-1.,-2.49768959420733E-16,0.));
#404=DIRECTION('',(-1.,-2.49768959420733E-16,0.));
#405=DIRECTION('center_axis',(0.,0.,1.));
#406=DIRECTION('ref_axis',(1.,0.,0.));
#407=DIRECTION('center_axis',(0.,0.,1.));
#408=DIRECTION('ref_axis',(1.,0.,0.));
#409=CARTESIAN_POINT('',(0.,0.,0.));
#410=CARTESIAN_POINT('Origin',(0.0305171420995998,-0.249999999999964,0.));
#411=CARTESIAN_POINT('',(0.1165171420996,-0.249999999999964,0.2));
#412=CARTESIAN_POINT('Origin',(0.0305171420995998,-0.249999999999964,0.2));
#413=CARTESIAN_POINT('',(0.1165171420996,-0.249999999999964,0.));
#414=CARTESIAN_POINT('',(0.1165171420996,-0.249999999999964,0.));
#415=CARTESIAN_POINT('Origin',(0.0305171420995998,-0.249999999999964,0.));
#416=CARTESIAN_POINT('Origin',(0.0305171420995998,0.250000000000035,0.));
#417=CARTESIAN_POINT('',(0.1165171420996,0.250000000000035,0.2));
#418=CARTESIAN_POINT('Origin',(0.0305171420995998,0.250000000000035,0.2));
#419=CARTESIAN_POINT('',(0.1165171420996,0.250000000000035,0.));
#420=CARTESIAN_POINT('',(0.1165171420996,0.250000000000035,0.));
#421=CARTESIAN_POINT('Origin',(0.0305171420995998,0.250000000000035,0.));
#422=CARTESIAN_POINT('Origin',(7.0305171420996,0.249999999999925,0.));
#423=CARTESIAN_POINT('',(7.1165171420996,0.249999999999925,0.2));
#424=CARTESIAN_POINT('Origin',(7.0305171420996,0.249999999999925,0.2));
#425=CARTESIAN_POINT('',(7.1165171420996,0.249999999999925,0.));
#426=CARTESIAN_POINT('',(7.1165171420996,0.249999999999925,0.));
#427=CARTESIAN_POINT('Origin',(7.0305171420996,0.249999999999925,0.));
#428=CARTESIAN_POINT('Origin',(7.0305171420996,-0.250000000000075,0.));
#429=CARTESIAN_POINT('',(7.1165171420996,-0.250000000000075,0.2));
#430=CARTESIAN_POINT('Origin',(7.0305171420996,-0.250000000000075,0.2));
#431=CARTESIAN_POINT('',(7.1165171420996,-0.250000000000075,0.));
#432=CARTESIAN_POINT('',(7.1165171420996,-0.250000000000075,0.));
#433=CARTESIAN_POINT('Origin',(7.0305171420996,-0.250000000000075,0.));
#434=CARTESIAN_POINT('Origin',(7.0305171420996,0.249999999999923,0.));
#435=CARTESIAN_POINT('',(7.2805171420996,0.249999999999925,0.));
#436=CARTESIAN_POINT('',(7.0305171420996,0.499999999999925,0.));
#437=CARTESIAN_POINT('Origin',(7.0305171420996,0.249999999999923,0.));
#438=CARTESIAN_POINT('',(7.0305171420996,0.499999999999925,0.2));
#439=CARTESIAN_POINT('',(7.0305171420996,0.499999999999925,0.));
#440=CARTESIAN_POINT('',(7.2805171420996,0.249999999999925,0.2));
#441=CARTESIAN_POINT('Origin',(7.0305171420996,0.249999999999923,0.2));
#442=CARTESIAN_POINT('',(7.2805171420996,0.249999999999925,0.));
#443=CARTESIAN_POINT('Origin',(7.2805171420996,-0.250000000000075,0.));
#444=CARTESIAN_POINT('',(7.2805171420996,-0.250000000000075,0.));
#445=CARTESIAN_POINT('',(7.2805171420996,-0.250000000000075,0.));
#446=CARTESIAN_POINT('',(7.2805171420996,-0.250000000000075,0.2));
#447=CARTESIAN_POINT('',(7.2805171420996,-0.250000000000075,0.2));
#448=CARTESIAN_POINT('',(7.2805171420996,-0.250000000000075,0.));
#449=CARTESIAN_POINT('Origin',(7.0305171420996,-0.250000000000072,0.));
#450=CARTESIAN_POINT('',(7.0305171420996,-0.500000000000075,0.));
#451=CARTESIAN_POINT('Origin',(7.0305171420996,-0.250000000000072,0.));
#452=CARTESIAN_POINT('',(7.0305171420996,-0.500000000000075,0.2));
#453=CARTESIAN_POINT('Origin',(7.0305171420996,-0.250000000000072,0.2));
#454=CARTESIAN_POINT('',(7.0305171420996,-0.500000000000075,0.));
#455=CARTESIAN_POINT('Origin',(0.0305171420995998,-0.500000000000075,0.));
#456=CARTESIAN_POINT('',(0.0305171420995998,-0.500000000000075,0.));
#457=CARTESIAN_POINT('',(0.0305171420995998,-0.500000000000075,0.));
#458=CARTESIAN_POINT('',(0.0305171420995998,-0.500000000000075,0.2));
#459=CARTESIAN_POINT('',(0.0305171420995998,-0.500000000000075,0.2));
#460=CARTESIAN_POINT('',(0.0305171420995998,-0.500000000000075,0.));
#461=CARTESIAN_POINT('Origin',(0.0305171420995999,-0.250000000000076,0.));
#462=CARTESIAN_POINT('',(-0.2194828579004,-0.250000000000076,0.));
#463=CARTESIAN_POINT('Origin',(0.0305171420995999,-0.250000000000076,0.));
#464=CARTESIAN_POINT('',(-0.219482857900399,-0.250000000000076,0.2));
#465=CARTESIAN_POINT('Origin',(0.0305171420995999,-0.250000000000076,0.2));
#466=CARTESIAN_POINT('',(-0.2194828579004,-0.250000000000076,0.));
#467=CARTESIAN_POINT('Origin',(-0.2194828579004,0.249999999999923,0.));
#468=CARTESIAN_POINT('',(-0.2194828579004,0.249999999999923,0.));
#469=CARTESIAN_POINT('',(-0.2194828579004,0.249999999999924,0.));
#470=CARTESIAN_POINT('',(-0.219482857900399,0.249999999999923,0.2));
#471=CARTESIAN_POINT('',(-0.2194828579004,0.249999999999924,0.2));
#472=CARTESIAN_POINT('',(-0.2194828579004,0.249999999999923,0.));
#473=CARTESIAN_POINT('Origin',(0.0305171420995999,0.249999999999924,0.));
#474=CARTESIAN_POINT('',(0.0305171420995997,0.499999999999924,0.));
#475=CARTESIAN_POINT('Origin',(0.0305171420995999,0.249999999999924,0.));
#476=CARTESIAN_POINT('',(0.0305171420995998,0.499999999999924,0.2));
#477=CARTESIAN_POINT('Origin',(0.0305171420995999,0.249999999999924,0.2));
#478=CARTESIAN_POINT('',(0.0305171420995997,0.499999999999924,0.));
#479=CARTESIAN_POINT('Origin',(7.0305171420996,0.499999999999925,0.));
#480=CARTESIAN_POINT('',(7.0305171420996,0.499999999999925,0.));
#481=CARTESIAN_POINT('',(7.0305171420996,0.499999999999925,0.2));
#482=CARTESIAN_POINT('Origin',(3.5305171420996,-7.51367472177419E-14,0.2));
#483=CARTESIAN_POINT('Origin',(3.5305171420996,-7.51367472177419E-14,0.));
#484=UNCERTAINTY_MEASURE_WITH_UNIT(LENGTH_MEASURE(0.000393700787401575),
#490,'DISTANCE_ACCURACY_VALUE',
'Maximum model space distance between geometric entities at asserted c
onnectivities');
#485=UNCERTAINTY_MEASURE_WITH_UNIT(LENGTH_MEASURE(0.000393700787401575),
#490,'DISTANCE_ACCURACY_VALUE',
'Maximum model space distance between geometric entities at asserted c
onnectivities');
#486=(
GEOMETRIC_REPRESENTATION_CONTEXT(3)
GLOBAL_UNCERTAINTY_ASSIGNED_CONTEXT((#484))
GLOBAL_UNIT_ASSIGNED_CONTEXT((#490,#494,#495))
REPRESENTATION_CONTEXT('','3D')
);
#487=(
GEOMETRIC_REPRESENTATION_CONTEXT(3)
GLOBAL_UNCERTAINTY_ASSIGNED_CONTEXT((#485))
GLOBAL_UNIT_ASSIGNED_CONTEXT((#490,#494,#495))
REPRESENTATION_CONTEXT('','3D')
);
#488=DIMENSIONAL_EXPONENTS(1.,0.,0.,0.,0.,0.,0.);
#489=DIMENSIONAL_EXPONENTS(0.,1.,0.,0.,0.,0.,0.);
#490=(
CONVERSION_BASED_UNIT('inch',#493)
LENGTH_UNIT()
NAMED_UNIT(#488)
);
#491=(
LENGTH_UNIT()
NAMED_UNIT(*)
SI_UNIT(.MILLI.,.METRE.)
);
#492=(
LENGTH_UNIT()
NAMED_UNIT(*)
SI_UNIT(.CENTI.,.METRE.)
);
#493=LENGTH_MEASURE_WITH_UNIT(LENGTH_MEASURE(25.4),#491);
#494=(
NAMED_UNIT(*)
PLANE_ANGLE_UNIT()
SI_UNIT($,.RADIAN.)
);
#495=(
NAMED_UNIT(*)
SI_UNIT($,.STERADIAN.)
SOLID_ANGLE_UNIT()
);
#496=SHAPE_DEFINITION_REPRESENTATION(#497,#498);
#497=PRODUCT_DEFINITION_SHAPE('',$,#500);
#498=SHAPE_REPRESENTATION('',(#296),#486);
#499=PRODUCT_DEFINITION_CONTEXT('part definition',#504,'design');
#500=PRODUCT_DEFINITION('intakebrace','intakebrace',#501,#499);
#501=PRODUCT_DEFINITION_FORMATION('',$,#506);
#502=PRODUCT_RELATED_PRODUCT_CATEGORY('intakebrace','intakebrace',(#506));
#503=APPLICATION_PROTOCOL_DEFINITION('international standard',
'automotive_design',2009,#504);
#504=APPLICATION_CONTEXT(
'Core Data for Automotive Mechanical Design Process');
#505=PRODUCT_CONTEXT('part definition',#504,'mechanical');
#506=PRODUCT('intakebrace','intakebrace',$,(#505));
#507=PRESENTATION_STYLE_ASSIGNMENT((#508));
#508=SURFACE_STYLE_USAGE(.BOTH.,#511);
#509=SURFACE_STYLE_RENDERING_WITH_PROPERTIES($,#515,(#510));
#510=SURFACE_STYLE_TRANSPARENT(0.);
#511=SURFACE_SIDE_STYLE('',(#512,#509));
#512=SURFACE_STYLE_FILL_AREA(#513);
#513=FILL_AREA_STYLE('',(#514));
#514=FILL_AREA_STYLE_COLOUR('',#515);
#515=COLOUR_RGB('',0.749019607843137,0.749019607843137,0.749019607843137);
ENDSEC;
END-ISO-10303-21;
