ISO-10303-21;
HEADER;
/* Generated by software containing ST-Developer
 * from STEP Tools, Inc. (www.steptools.com) 
 */

FILE_DESCRIPTION(
/* description */ (''),
/* implementation_level */ '2;1');

FILE_NAME(
/* name */ 'match_loader.stp',
/* time_stamp */ '2026-01-22T14:12:07+13:00',
/* author */ ('cloudy'),
/* organization */ (''),
/* preprocessor_version */ 'ST-DEVELOPER v20',
/* originating_system */ 'Autodesk Inventor 2025',
/* authorisation */ '');

FILE_SCHEMA (('AUTOMOTIVE_DESIGN { 1 0 10303 214 3 1 1 }'));
ENDSEC;

DATA;
#10=MECHANICAL_DESIGN_GEOMETRIC_PRESENTATION_REPRESENTATION('',(#13),#1127);
#11=SHAPE_REPRESENTATION_RELATIONSHIP('SRR','None',#1138,#12);
#12=ADVANCED_BREP_SHAPE_REPRESENTATION('',(#14),#1126);
#13=STYLED_ITEM('',(#1147),#14);
#14=MANIFOLD_SOLID_BREP('Solid1',#639);
#15=ELLIPSE('',#690,0.707106781186546,0.5);
#16=ELLIPSE('',#691,0.707106781186546,0.5);
#17=ELLIPSE('',#698,0.707106781186546,0.5);
#18=ELLIPSE('',#699,0.707106781186546,0.5);
#19=ELLIPSE('',#716,0.707106781186546,0.5);
#20=ELLIPSE('',#717,0.707106781186546,0.5);
#21=ELLIPSE('',#724,0.707106781186546,0.5);
#22=ELLIPSE('',#725,0.707106781186546,0.5);
#23=FACE_BOUND('',#87,.T.);
#24=FACE_BOUND('',#88,.T.);
#25=FACE_BOUND('',#100,.T.);
#26=FACE_BOUND('',#103,.T.);
#27=FACE_BOUND('',#114,.T.);
#28=FACE_BOUND('',#117,.T.);
#29=FACE_BOUND('',#124,.T.);
#30=FACE_BOUND('',#125,.T.);
#31=FACE_BOUND('',#126,.T.);
#32=FACE_BOUND('',#127,.T.);
#33=PLANE('',#664);
#34=PLANE('',#665);
#35=PLANE('',#676);
#36=PLANE('',#685);
#37=PLANE('',#688);
#38=PLANE('',#689);
#39=PLANE('',#692);
#40=PLANE('',#697);
#41=PLANE('',#700);
#42=PLANE('',#711);
#43=PLANE('',#714);
#44=PLANE('',#715);
#45=PLANE('',#718);
#46=PLANE('',#723);
#47=PLANE('',#726);
#48=PLANE('',#735);
#49=PLANE('',#736);
#50=FACE_OUTER_BOUND('',#84,.T.);
#51=FACE_OUTER_BOUND('',#85,.T.);
#52=FACE_OUTER_BOUND('',#86,.T.);
#53=FACE_OUTER_BOUND('',#89,.T.);
#54=FACE_OUTER_BOUND('',#90,.T.);
#55=FACE_OUTER_BOUND('',#91,.T.);
#56=FACE_OUTER_BOUND('',#92,.T.);
#57=FACE_OUTER_BOUND('',#93,.T.);
#58=FACE_OUTER_BOUND('',#94,.T.);
#59=FACE_OUTER_BOUND('',#95,.T.);
#60=FACE_OUTER_BOUND('',#96,.T.);
#61=FACE_OUTER_BOUND('',#97,.T.);
#62=FACE_OUTER_BOUND('',#98,.T.);
#63=FACE_OUTER_BOUND('',#99,.T.);
#64=FACE_OUTER_BOUND('',#101,.T.);
#65=FACE_OUTER_BOUND('',#102,.T.);
#66=FACE_OUTER_BOUND('',#104,.T.);
#67=FACE_OUTER_BOUND('',#105,.T.);
#68=FACE_OUTER_BOUND('',#106,.T.);
#69=FACE_OUTER_BOUND('',#107,.T.);
#70=FACE_OUTER_BOUND('',#108,.T.);
#71=FACE_OUTER_BOUND('',#109,.T.);
#72=FACE_OUTER_BOUND('',#110,.T.);
#73=FACE_OUTER_BOUND('',#111,.T.);
#74=FACE_OUTER_BOUND('',#112,.T.);
#75=FACE_OUTER_BOUND('',#113,.T.);
#76=FACE_OUTER_BOUND('',#115,.T.);
#77=FACE_OUTER_BOUND('',#116,.T.);
#78=FACE_OUTER_BOUND('',#118,.T.);
#79=FACE_OUTER_BOUND('',#119,.T.);
#80=FACE_OUTER_BOUND('',#120,.T.);
#81=FACE_OUTER_BOUND('',#121,.T.);
#82=FACE_OUTER_BOUND('',#122,.T.);
#83=FACE_OUTER_BOUND('',#123,.T.);
#84=EDGE_LOOP('',(#408,#409,#410,#411));
#85=EDGE_LOOP('',(#412,#413,#414,#415));
#86=EDGE_LOOP('',(#416,#417,#418,#419,#420,#421,#422,#423,#424,#425,#426,
#427,#428,#429));
#87=EDGE_LOOP('',(#430));
#88=EDGE_LOOP('',(#431));
#89=EDGE_LOOP('',(#432,#433,#434,#435));
#90=EDGE_LOOP('',(#436,#437,#438,#439));
#91=EDGE_LOOP('',(#440,#441,#442,#443));
#92=EDGE_LOOP('',(#444,#445,#446,#447));
#93=EDGE_LOOP('',(#448,#449,#450,#451));
#94=EDGE_LOOP('',(#452,#453,#454,#455));
#95=EDGE_LOOP('',(#456,#457,#458,#459));
#96=EDGE_LOOP('',(#460,#461,#462,#463));
#97=EDGE_LOOP('',(#464,#465,#466,#467));
#98=EDGE_LOOP('',(#468,#469,#470,#471));
#99=EDGE_LOOP('',(#472,#473,#474,#475));
#100=EDGE_LOOP('',(#476));
#101=EDGE_LOOP('',(#477,#478,#479,#480));
#102=EDGE_LOOP('',(#481,#482,#483,#484));
#103=EDGE_LOOP('',(#485));
#104=EDGE_LOOP('',(#486,#487,#488,#489));
#105=EDGE_LOOP('',(#490,#491,#492,#493));
#106=EDGE_LOOP('',(#494,#495,#496,#497,#498,#499));
#107=EDGE_LOOP('',(#500,#501,#502,#503,#504,#505));
#108=EDGE_LOOP('',(#506,#507,#508,#509));
#109=EDGE_LOOP('',(#510,#511,#512,#513));
#110=EDGE_LOOP('',(#514,#515,#516,#517));
#111=EDGE_LOOP('',(#518,#519,#520,#521));
#112=EDGE_LOOP('',(#522,#523,#524,#525));
#113=EDGE_LOOP('',(#526,#527,#528,#529));
#114=EDGE_LOOP('',(#530));
#115=EDGE_LOOP('',(#531,#532,#533,#534));
#116=EDGE_LOOP('',(#535,#536,#537,#538));
#117=EDGE_LOOP('',(#539));
#118=EDGE_LOOP('',(#540,#541,#542,#543));
#119=EDGE_LOOP('',(#544,#545,#546,#547));
#120=EDGE_LOOP('',(#548,#549,#550,#551,#552,#553));
#121=EDGE_LOOP('',(#554,#555,#556,#557,#558,#559));
#122=EDGE_LOOP('',(#560,#561,#562,#563));
#123=EDGE_LOOP('',(#564,#565,#566,#567,#568,#569,#570,#571,#572,#573,#574,
#575,#576,#577));
#124=EDGE_LOOP('',(#578));
#125=EDGE_LOOP('',(#579));
#126=EDGE_LOOP('',(#580,#581,#582,#583));
#127=EDGE_LOOP('',(#584,#585,#586,#587));
#128=LINE('',#945,#176);
#129=LINE('',#948,#177);
#130=LINE('',#951,#178);
#131=LINE('',#953,#179);
#132=LINE('',#954,#180);
#133=LINE('',#957,#181);
#134=LINE('',#961,#182);
#135=LINE('',#965,#183);
#136=LINE('',#969,#184);
#137=LINE('',#973,#185);
#138=LINE('',#977,#186);
#139=LINE('',#987,#187);
#140=LINE('',#988,#188);
#141=LINE('',#991,#189);
#142=LINE('',#992,#190);
#143=LINE('',#997,#191);
#144=LINE('',#1001,#192);
#145=LINE('',#1007,#193);
#146=LINE('',#1008,#194);
#147=LINE('',#1011,#195);
#148=LINE('',#1012,#196);
#149=LINE('',#1016,#197);
#150=LINE('',#1018,#198);
#151=LINE('',#1024,#199);
#152=LINE('',#1027,#200);
#153=LINE('',#1041,#201);
#154=LINE('',#1044,#202);
#155=LINE('',#1054,#203);
#156=LINE('',#1056,#204);
#157=LINE('',#1057,#205);
#158=LINE('',#1059,#206);
#159=LINE('',#1061,#207);
#160=LINE('',#1066,#208);
#161=LINE('',#1067,#209);
#162=LINE('',#1069,#210);
#163=LINE('',#1074,#211);
#164=LINE('',#1075,#212);
#165=LINE('',#1077,#213);
#166=LINE('',#1083,#214);
#167=LINE('',#1086,#215);
#168=LINE('',#1100,#216);
#169=LINE('',#1103,#217);
#170=LINE('',#1113,#218);
#171=LINE('',#1115,#219);
#172=LINE('',#1116,#220);
#173=LINE('',#1118,#221);
#174=LINE('',#1120,#222);
#175=LINE('',#1122,#223);
#176=VECTOR('',#743,0.393700787401575);
#177=VECTOR('',#746,0.393700787401575);
#178=VECTOR('',#749,0.393700787401575);
#179=VECTOR('',#750,0.393700787401575);
#180=VECTOR('',#751,0.393700787401575);
#181=VECTOR('',#754,0.393700787401575);
#182=VECTOR('',#757,0.393700787401575);
#183=VECTOR('',#760,0.393700787401575);
#184=VECTOR('',#763,0.393700787401575);
#185=VECTOR('',#766,0.393700787401575);
#186=VECTOR('',#769,0.393700787401575);
#187=VECTOR('',#780,0.393700787401575);
#188=VECTOR('',#781,0.393700787401575);
#189=VECTOR('',#784,0.393700787401575);
#190=VECTOR('',#785,0.393700787401575);
#191=VECTOR('',#792,0.0860000000000001);
#192=VECTOR('',#797,0.086);
#193=VECTOR('',#804,0.393700787401575);
#194=VECTOR('',#805,0.393700787401575);
#195=VECTOR('',#808,0.393700787401575);
#196=VECTOR('',#809,0.393700787401575);
#197=VECTOR('',#814,0.393700787401575);
#198=VECTOR('',#817,0.393700787401575);
#199=VECTOR('',#822,0.393700787401575);
#200=VECTOR('',#825,0.393700787401575);
#201=VECTOR('',#840,0.393700787401575);
#202=VECTOR('',#843,0.393700787401575);
#203=VECTOR('',#856,0.086);
#204=VECTOR('',#859,0.393700787401575);
#205=VECTOR('',#860,0.393700787401575);
#206=VECTOR('',#863,0.393700787401575);
#207=VECTOR('',#866,0.393700787401575);
#208=VECTOR('',#871,0.393700787401575);
#209=VECTOR('',#872,0.393700787401575);
#210=VECTOR('',#875,0.393700787401575);
#211=VECTOR('',#880,0.393700787401575);
#212=VECTOR('',#881,0.393700787401575);
#213=VECTOR('',#884,0.393700787401575);
#214=VECTOR('',#889,0.393700787401575);
#215=VECTOR('',#892,0.393700787401575);
#216=VECTOR('',#907,0.393700787401575);
#217=VECTOR('',#910,0.393700787401575);
#218=VECTOR('',#923,0.086);
#219=VECTOR('',#926,0.393700787401575);
#220=VECTOR('',#927,0.393700787401575);
#221=VECTOR('',#930,0.393700787401575);
#222=VECTOR('',#933,0.393700787401575);
#223=VECTOR('',#936,0.393700787401575);
#224=CIRCLE('',#662,0.125);
#225=CIRCLE('',#663,0.125);
#226=CIRCLE('',#666,0.25);
#227=CIRCLE('',#667,0.25);
#228=CIRCLE('',#668,0.25);
#229=CIRCLE('',#669,0.25);
#230=CIRCLE('',#670,0.125);
#231=CIRCLE('',#671,0.125);
#232=CIRCLE('',#672,0.0860000000000001);
#233=CIRCLE('',#673,0.086);
#234=CIRCLE('',#675,0.125);
#235=CIRCLE('',#678,0.125);
#236=CIRCLE('',#680,0.0860000000000001);
#237=CIRCLE('',#682,0.086);
#238=CIRCLE('',#684,0.25);
#239=CIRCLE('',#687,0.25);
#240=CIRCLE('',#693,0.5);
#241=CIRCLE('',#694,0.1875);
#242=CIRCLE('',#695,0.5);
#243=CIRCLE('',#696,0.086);
#244=CIRCLE('',#701,0.5);
#245=CIRCLE('',#702,0.1875);
#246=CIRCLE('',#703,0.5);
#247=CIRCLE('',#704,0.086);
#248=CIRCLE('',#710,0.25);
#249=CIRCLE('',#713,0.25);
#250=CIRCLE('',#719,0.5);
#251=CIRCLE('',#720,0.1875);
#252=CIRCLE('',#721,0.5);
#253=CIRCLE('',#722,0.086);
#254=CIRCLE('',#727,0.5);
#255=CIRCLE('',#728,0.1875);
#256=CIRCLE('',#729,0.5);
#257=CIRCLE('',#730,0.086);
#258=VERTEX_POINT('',#941);
#259=VERTEX_POINT('',#942);
#260=VERTEX_POINT('',#944);
#261=VERTEX_POINT('',#946);
#262=VERTEX_POINT('',#950);
#263=VERTEX_POINT('',#952);
#264=VERTEX_POINT('',#956);
#265=VERTEX_POINT('',#958);
#266=VERTEX_POINT('',#960);
#267=VERTEX_POINT('',#962);
#268=VERTEX_POINT('',#964);
#269=VERTEX_POINT('',#966);
#270=VERTEX_POINT('',#968);
#271=VERTEX_POINT('',#970);
#272=VERTEX_POINT('',#972);
#273=VERTEX_POINT('',#974);
#274=VERTEX_POINT('',#976);
#275=VERTEX_POINT('',#979);
#276=VERTEX_POINT('',#981);
#277=VERTEX_POINT('',#984);
#278=VERTEX_POINT('',#985);
#279=VERTEX_POINT('',#990);
#280=VERTEX_POINT('',#996);
#281=VERTEX_POINT('',#1000);
#282=VERTEX_POINT('',#1004);
#283=VERTEX_POINT('',#1005);
#284=VERTEX_POINT('',#1010);
#285=VERTEX_POINT('',#1014);
#286=VERTEX_POINT('',#1020);
#287=VERTEX_POINT('',#1021);
#288=VERTEX_POINT('',#1023);
#289=VERTEX_POINT('',#1025);
#290=VERTEX_POINT('',#1029);
#291=VERTEX_POINT('',#1031);
#292=VERTEX_POINT('',#1034);
#293=VERTEX_POINT('',#1037);
#294=VERTEX_POINT('',#1038);
#295=VERTEX_POINT('',#1040);
#296=VERTEX_POINT('',#1042);
#297=VERTEX_POINT('',#1046);
#298=VERTEX_POINT('',#1048);
#299=VERTEX_POINT('',#1051);
#300=VERTEX_POINT('',#1063);
#301=VERTEX_POINT('',#1064);
#302=VERTEX_POINT('',#1071);
#303=VERTEX_POINT('',#1072);
#304=VERTEX_POINT('',#1079);
#305=VERTEX_POINT('',#1080);
#306=VERTEX_POINT('',#1082);
#307=VERTEX_POINT('',#1084);
#308=VERTEX_POINT('',#1088);
#309=VERTEX_POINT('',#1090);
#310=VERTEX_POINT('',#1093);
#311=VERTEX_POINT('',#1096);
#312=VERTEX_POINT('',#1097);
#313=VERTEX_POINT('',#1099);
#314=VERTEX_POINT('',#1101);
#315=VERTEX_POINT('',#1105);
#316=VERTEX_POINT('',#1107);
#317=VERTEX_POINT('',#1110);
#318=EDGE_CURVE('',#258,#259,#224,.T.);
#319=EDGE_CURVE('',#259,#260,#128,.T.);
#320=EDGE_CURVE('',#260,#261,#225,.T.);
#321=EDGE_CURVE('',#261,#258,#129,.T.);
#322=EDGE_CURVE('',#261,#262,#130,.T.);
#323=EDGE_CURVE('',#263,#262,#131,.T.);
#324=EDGE_CURVE('',#258,#263,#132,.T.);
#325=EDGE_CURVE('',#264,#260,#133,.T.);
#326=EDGE_CURVE('',#265,#264,#226,.T.);
#327=EDGE_CURVE('',#266,#265,#134,.T.);
#328=EDGE_CURVE('',#267,#266,#227,.T.);
#329=EDGE_CURVE('',#268,#267,#135,.T.);
#330=EDGE_CURVE('',#269,#268,#228,.T.);
#331=EDGE_CURVE('',#270,#269,#136,.T.);
#332=EDGE_CURVE('',#271,#270,#229,.T.);
#333=EDGE_CURVE('',#272,#271,#137,.T.);
#334=EDGE_CURVE('',#273,#272,#230,.T.);
#335=EDGE_CURVE('',#274,#273,#138,.T.);
#336=EDGE_CURVE('',#262,#274,#231,.T.);
#337=EDGE_CURVE('',#275,#275,#232,.T.);
#338=EDGE_CURVE('',#276,#276,#233,.T.);
#339=EDGE_CURVE('',#277,#278,#234,.T.);
#340=EDGE_CURVE('',#278,#273,#139,.T.);
#341=EDGE_CURVE('',#272,#277,#140,.T.);
#342=EDGE_CURVE('',#279,#278,#141,.T.);
#343=EDGE_CURVE('',#274,#279,#142,.T.);
#344=EDGE_CURVE('',#279,#263,#235,.T.);
#345=EDGE_CURVE('',#275,#280,#143,.T.);
#346=EDGE_CURVE('',#280,#280,#236,.T.);
#347=EDGE_CURVE('',#276,#281,#144,.T.);
#348=EDGE_CURVE('',#281,#281,#237,.T.);
#349=EDGE_CURVE('',#282,#283,#238,.T.);
#350=EDGE_CURVE('',#283,#267,#145,.T.);
#351=EDGE_CURVE('',#266,#282,#146,.T.);
#352=EDGE_CURVE('',#284,#265,#147,.T.);
#353=EDGE_CURVE('',#282,#284,#148,.T.);
#354=EDGE_CURVE('',#285,#284,#239,.T.);
#355=EDGE_CURVE('',#264,#285,#149,.T.);
#356=EDGE_CURVE('',#285,#259,#150,.T.);
#357=EDGE_CURVE('',#286,#287,#15,.T.);
#358=EDGE_CURVE('',#287,#288,#151,.T.);
#359=EDGE_CURVE('',#288,#289,#16,.T.);
#360=EDGE_CURVE('',#289,#286,#152,.T.);
#361=EDGE_CURVE('',#290,#287,#240,.T.);
#362=EDGE_CURVE('',#291,#290,#241,.T.);
#363=EDGE_CURVE('',#288,#291,#242,.T.);
#364=EDGE_CURVE('',#292,#292,#243,.T.);
#365=EDGE_CURVE('',#293,#294,#17,.T.);
#366=EDGE_CURVE('',#294,#295,#153,.T.);
#367=EDGE_CURVE('',#295,#296,#18,.T.);
#368=EDGE_CURVE('',#296,#293,#154,.T.);
#369=EDGE_CURVE('',#297,#294,#244,.T.);
#370=EDGE_CURVE('',#298,#297,#245,.T.);
#371=EDGE_CURVE('',#295,#298,#246,.T.);
#372=EDGE_CURVE('',#299,#299,#247,.T.);
#373=EDGE_CURVE('',#299,#292,#155,.T.);
#374=EDGE_CURVE('',#297,#291,#156,.T.);
#375=EDGE_CURVE('',#290,#298,#157,.T.);
#376=EDGE_CURVE('',#286,#296,#158,.T.);
#377=EDGE_CURVE('',#289,#293,#159,.T.);
#378=EDGE_CURVE('',#300,#301,#248,.T.);
#379=EDGE_CURVE('',#301,#269,#160,.T.);
#380=EDGE_CURVE('',#268,#300,#161,.T.);
#381=EDGE_CURVE('',#300,#283,#162,.T.);
#382=EDGE_CURVE('',#302,#303,#249,.T.);
#383=EDGE_CURVE('',#303,#271,#163,.T.);
#384=EDGE_CURVE('',#270,#302,#164,.T.);
#385=EDGE_CURVE('',#277,#303,#165,.T.);
#386=EDGE_CURVE('',#304,#305,#19,.T.);
#387=EDGE_CURVE('',#305,#306,#166,.T.);
#388=EDGE_CURVE('',#306,#307,#20,.T.);
#389=EDGE_CURVE('',#307,#304,#167,.T.);
#390=EDGE_CURVE('',#305,#308,#250,.T.);
#391=EDGE_CURVE('',#308,#309,#251,.T.);
#392=EDGE_CURVE('',#309,#306,#252,.T.);
#393=EDGE_CURVE('',#310,#310,#253,.T.);
#394=EDGE_CURVE('',#311,#312,#21,.T.);
#395=EDGE_CURVE('',#312,#313,#168,.T.);
#396=EDGE_CURVE('',#313,#314,#22,.T.);
#397=EDGE_CURVE('',#314,#311,#169,.T.);
#398=EDGE_CURVE('',#312,#315,#254,.T.);
#399=EDGE_CURVE('',#315,#316,#255,.T.);
#400=EDGE_CURVE('',#316,#313,#256,.T.);
#401=EDGE_CURVE('',#317,#317,#257,.T.);
#402=EDGE_CURVE('',#317,#310,#170,.T.);
#403=EDGE_CURVE('',#316,#308,#171,.T.);
#404=EDGE_CURVE('',#309,#315,#172,.T.);
#405=EDGE_CURVE('',#311,#307,#173,.T.);
#406=EDGE_CURVE('',#314,#304,#174,.T.);
#407=EDGE_CURVE('',#302,#301,#175,.T.);
#408=ORIENTED_EDGE('',*,*,#318,.T.);
#409=ORIENTED_EDGE('',*,*,#319,.T.);
#410=ORIENTED_EDGE('',*,*,#320,.T.);
#411=ORIENTED_EDGE('',*,*,#321,.T.);
#412=ORIENTED_EDGE('',*,*,#321,.F.);
#413=ORIENTED_EDGE('',*,*,#322,.T.);
#414=ORIENTED_EDGE('',*,*,#323,.F.);
#415=ORIENTED_EDGE('',*,*,#324,.F.);
#416=ORIENTED_EDGE('',*,*,#320,.F.);
#417=ORIENTED_EDGE('',*,*,#325,.F.);
#418=ORIENTED_EDGE('',*,*,#326,.F.);
#419=ORIENTED_EDGE('',*,*,#327,.F.);
#420=ORIENTED_EDGE('',*,*,#328,.F.);
#421=ORIENTED_EDGE('',*,*,#329,.F.);
#422=ORIENTED_EDGE('',*,*,#330,.F.);
#423=ORIENTED_EDGE('',*,*,#331,.F.);
#424=ORIENTED_EDGE('',*,*,#332,.F.);
#425=ORIENTED_EDGE('',*,*,#333,.F.);
#426=ORIENTED_EDGE('',*,*,#334,.F.);
#427=ORIENTED_EDGE('',*,*,#335,.F.);
#428=ORIENTED_EDGE('',*,*,#336,.F.);
#429=ORIENTED_EDGE('',*,*,#322,.F.);
#430=ORIENTED_EDGE('',*,*,#337,.T.);
#431=ORIENTED_EDGE('',*,*,#338,.T.);
#432=ORIENTED_EDGE('',*,*,#339,.T.);
#433=ORIENTED_EDGE('',*,*,#340,.T.);
#434=ORIENTED_EDGE('',*,*,#334,.T.);
#435=ORIENTED_EDGE('',*,*,#341,.T.);
#436=ORIENTED_EDGE('',*,*,#340,.F.);
#437=ORIENTED_EDGE('',*,*,#342,.F.);
#438=ORIENTED_EDGE('',*,*,#343,.F.);
#439=ORIENTED_EDGE('',*,*,#335,.T.);
#440=ORIENTED_EDGE('',*,*,#336,.T.);
#441=ORIENTED_EDGE('',*,*,#343,.T.);
#442=ORIENTED_EDGE('',*,*,#344,.T.);
#443=ORIENTED_EDGE('',*,*,#323,.T.);
#444=ORIENTED_EDGE('',*,*,#337,.F.);
#445=ORIENTED_EDGE('',*,*,#345,.T.);
#446=ORIENTED_EDGE('',*,*,#346,.F.);
#447=ORIENTED_EDGE('',*,*,#345,.F.);
#448=ORIENTED_EDGE('',*,*,#338,.F.);
#449=ORIENTED_EDGE('',*,*,#347,.T.);
#450=ORIENTED_EDGE('',*,*,#348,.F.);
#451=ORIENTED_EDGE('',*,*,#347,.F.);
#452=ORIENTED_EDGE('',*,*,#349,.T.);
#453=ORIENTED_EDGE('',*,*,#350,.T.);
#454=ORIENTED_EDGE('',*,*,#328,.T.);
#455=ORIENTED_EDGE('',*,*,#351,.T.);
#456=ORIENTED_EDGE('',*,*,#351,.F.);
#457=ORIENTED_EDGE('',*,*,#327,.T.);
#458=ORIENTED_EDGE('',*,*,#352,.F.);
#459=ORIENTED_EDGE('',*,*,#353,.F.);
#460=ORIENTED_EDGE('',*,*,#354,.T.);
#461=ORIENTED_EDGE('',*,*,#352,.T.);
#462=ORIENTED_EDGE('',*,*,#326,.T.);
#463=ORIENTED_EDGE('',*,*,#355,.T.);
#464=ORIENTED_EDGE('',*,*,#319,.F.);
#465=ORIENTED_EDGE('',*,*,#356,.F.);
#466=ORIENTED_EDGE('',*,*,#355,.F.);
#467=ORIENTED_EDGE('',*,*,#325,.T.);
#468=ORIENTED_EDGE('',*,*,#357,.T.);
#469=ORIENTED_EDGE('',*,*,#358,.T.);
#470=ORIENTED_EDGE('',*,*,#359,.T.);
#471=ORIENTED_EDGE('',*,*,#360,.T.);
#472=ORIENTED_EDGE('',*,*,#358,.F.);
#473=ORIENTED_EDGE('',*,*,#361,.F.);
#474=ORIENTED_EDGE('',*,*,#362,.F.);
#475=ORIENTED_EDGE('',*,*,#363,.F.);
#476=ORIENTED_EDGE('',*,*,#364,.F.);
#477=ORIENTED_EDGE('',*,*,#365,.T.);
#478=ORIENTED_EDGE('',*,*,#366,.T.);
#479=ORIENTED_EDGE('',*,*,#367,.T.);
#480=ORIENTED_EDGE('',*,*,#368,.T.);
#481=ORIENTED_EDGE('',*,*,#366,.F.);
#482=ORIENTED_EDGE('',*,*,#369,.F.);
#483=ORIENTED_EDGE('',*,*,#370,.F.);
#484=ORIENTED_EDGE('',*,*,#371,.F.);
#485=ORIENTED_EDGE('',*,*,#372,.F.);
#486=ORIENTED_EDGE('',*,*,#372,.T.);
#487=ORIENTED_EDGE('',*,*,#373,.T.);
#488=ORIENTED_EDGE('',*,*,#364,.T.);
#489=ORIENTED_EDGE('',*,*,#373,.F.);
#490=ORIENTED_EDGE('',*,*,#374,.T.);
#491=ORIENTED_EDGE('',*,*,#362,.T.);
#492=ORIENTED_EDGE('',*,*,#375,.T.);
#493=ORIENTED_EDGE('',*,*,#370,.T.);
#494=ORIENTED_EDGE('',*,*,#375,.F.);
#495=ORIENTED_EDGE('',*,*,#361,.T.);
#496=ORIENTED_EDGE('',*,*,#357,.F.);
#497=ORIENTED_EDGE('',*,*,#376,.T.);
#498=ORIENTED_EDGE('',*,*,#367,.F.);
#499=ORIENTED_EDGE('',*,*,#371,.T.);
#500=ORIENTED_EDGE('',*,*,#377,.F.);
#501=ORIENTED_EDGE('',*,*,#359,.F.);
#502=ORIENTED_EDGE('',*,*,#363,.T.);
#503=ORIENTED_EDGE('',*,*,#374,.F.);
#504=ORIENTED_EDGE('',*,*,#369,.T.);
#505=ORIENTED_EDGE('',*,*,#365,.F.);
#506=ORIENTED_EDGE('',*,*,#378,.T.);
#507=ORIENTED_EDGE('',*,*,#379,.T.);
#508=ORIENTED_EDGE('',*,*,#330,.T.);
#509=ORIENTED_EDGE('',*,*,#380,.T.);
#510=ORIENTED_EDGE('',*,*,#350,.F.);
#511=ORIENTED_EDGE('',*,*,#381,.F.);
#512=ORIENTED_EDGE('',*,*,#380,.F.);
#513=ORIENTED_EDGE('',*,*,#329,.T.);
#514=ORIENTED_EDGE('',*,*,#382,.T.);
#515=ORIENTED_EDGE('',*,*,#383,.T.);
#516=ORIENTED_EDGE('',*,*,#332,.T.);
#517=ORIENTED_EDGE('',*,*,#384,.T.);
#518=ORIENTED_EDGE('',*,*,#341,.F.);
#519=ORIENTED_EDGE('',*,*,#333,.T.);
#520=ORIENTED_EDGE('',*,*,#383,.F.);
#521=ORIENTED_EDGE('',*,*,#385,.F.);
#522=ORIENTED_EDGE('',*,*,#386,.T.);
#523=ORIENTED_EDGE('',*,*,#387,.T.);
#524=ORIENTED_EDGE('',*,*,#388,.T.);
#525=ORIENTED_EDGE('',*,*,#389,.T.);
#526=ORIENTED_EDGE('',*,*,#387,.F.);
#527=ORIENTED_EDGE('',*,*,#390,.T.);
#528=ORIENTED_EDGE('',*,*,#391,.T.);
#529=ORIENTED_EDGE('',*,*,#392,.T.);
#530=ORIENTED_EDGE('',*,*,#393,.T.);
#531=ORIENTED_EDGE('',*,*,#394,.T.);
#532=ORIENTED_EDGE('',*,*,#395,.T.);
#533=ORIENTED_EDGE('',*,*,#396,.T.);
#534=ORIENTED_EDGE('',*,*,#397,.T.);
#535=ORIENTED_EDGE('',*,*,#395,.F.);
#536=ORIENTED_EDGE('',*,*,#398,.T.);
#537=ORIENTED_EDGE('',*,*,#399,.T.);
#538=ORIENTED_EDGE('',*,*,#400,.T.);
#539=ORIENTED_EDGE('',*,*,#401,.T.);
#540=ORIENTED_EDGE('',*,*,#401,.F.);
#541=ORIENTED_EDGE('',*,*,#402,.T.);
#542=ORIENTED_EDGE('',*,*,#393,.F.);
#543=ORIENTED_EDGE('',*,*,#402,.F.);
#544=ORIENTED_EDGE('',*,*,#403,.F.);
#545=ORIENTED_EDGE('',*,*,#399,.F.);
#546=ORIENTED_EDGE('',*,*,#404,.F.);
#547=ORIENTED_EDGE('',*,*,#391,.F.);
#548=ORIENTED_EDGE('',*,*,#404,.T.);
#549=ORIENTED_EDGE('',*,*,#398,.F.);
#550=ORIENTED_EDGE('',*,*,#394,.F.);
#551=ORIENTED_EDGE('',*,*,#405,.T.);
#552=ORIENTED_EDGE('',*,*,#388,.F.);
#553=ORIENTED_EDGE('',*,*,#392,.F.);
#554=ORIENTED_EDGE('',*,*,#406,.F.);
#555=ORIENTED_EDGE('',*,*,#396,.F.);
#556=ORIENTED_EDGE('',*,*,#400,.F.);
#557=ORIENTED_EDGE('',*,*,#403,.T.);
#558=ORIENTED_EDGE('',*,*,#390,.F.);
#559=ORIENTED_EDGE('',*,*,#386,.F.);
#560=ORIENTED_EDGE('',*,*,#379,.F.);
#561=ORIENTED_EDGE('',*,*,#407,.F.);
#562=ORIENTED_EDGE('',*,*,#384,.F.);
#563=ORIENTED_EDGE('',*,*,#331,.T.);
#564=ORIENTED_EDGE('',*,*,#318,.F.);
#565=ORIENTED_EDGE('',*,*,#324,.T.);
#566=ORIENTED_EDGE('',*,*,#344,.F.);
#567=ORIENTED_EDGE('',*,*,#342,.T.);
#568=ORIENTED_EDGE('',*,*,#339,.F.);
#569=ORIENTED_EDGE('',*,*,#385,.T.);
#570=ORIENTED_EDGE('',*,*,#382,.F.);
#571=ORIENTED_EDGE('',*,*,#407,.T.);
#572=ORIENTED_EDGE('',*,*,#378,.F.);
#573=ORIENTED_EDGE('',*,*,#381,.T.);
#574=ORIENTED_EDGE('',*,*,#349,.F.);
#575=ORIENTED_EDGE('',*,*,#353,.T.);
#576=ORIENTED_EDGE('',*,*,#354,.F.);
#577=ORIENTED_EDGE('',*,*,#356,.T.);
#578=ORIENTED_EDGE('',*,*,#346,.T.);
#579=ORIENTED_EDGE('',*,*,#348,.T.);
#580=ORIENTED_EDGE('',*,*,#377,.T.);
#581=ORIENTED_EDGE('',*,*,#368,.F.);
#582=ORIENTED_EDGE('',*,*,#376,.F.);
#583=ORIENTED_EDGE('',*,*,#360,.F.);
#584=ORIENTED_EDGE('',*,*,#405,.F.);
#585=ORIENTED_EDGE('',*,*,#397,.F.);
#586=ORIENTED_EDGE('',*,*,#406,.T.);
#587=ORIENTED_EDGE('',*,*,#389,.F.);
#588=CYLINDRICAL_SURFACE('',#661,0.125);
#589=CYLINDRICAL_SURFACE('',#674,0.125);
#590=CYLINDRICAL_SURFACE('',#677,0.125);
#591=CYLINDRICAL_SURFACE('',#679,0.0860000000000001);
#592=CYLINDRICAL_SURFACE('',#681,0.086);
#593=CYLINDRICAL_SURFACE('',#683,0.25);
#594=CYLINDRICAL_SURFACE('',#686,0.25);
#595=CYLINDRICAL_SURFACE('',#705,0.086);
#596=CYLINDRICAL_SURFACE('',#706,0.1875);
#597=CYLINDRICAL_SURFACE('',#707,0.5);
#598=CYLINDRICAL_SURFACE('',#708,0.5);
#599=CYLINDRICAL_SURFACE('',#709,0.25);
#600=CYLINDRICAL_SURFACE('',#712,0.25);
#601=CYLINDRICAL_SURFACE('',#731,0.086);
#602=CYLINDRICAL_SURFACE('',#732,0.1875);
#603=CYLINDRICAL_SURFACE('',#733,0.5);
#604=CYLINDRICAL_SURFACE('',#734,0.5);
#605=ADVANCED_FACE('',(#50),#588,.T.);
#606=ADVANCED_FACE('',(#51),#33,.T.);
#607=ADVANCED_FACE('',(#52,#23,#24),#34,.F.);
#608=ADVANCED_FACE('',(#53),#589,.T.);
#609=ADVANCED_FACE('',(#54),#35,.T.);
#610=ADVANCED_FACE('',(#55),#590,.F.);
#611=ADVANCED_FACE('',(#56),#591,.F.);
#612=ADVANCED_FACE('',(#57),#592,.F.);
#613=ADVANCED_FACE('',(#58),#593,.T.);
#614=ADVANCED_FACE('',(#59),#36,.T.);
#615=ADVANCED_FACE('',(#60),#594,.T.);
#616=ADVANCED_FACE('',(#61),#37,.T.);
#617=ADVANCED_FACE('',(#62),#38,.T.);
#618=ADVANCED_FACE('',(#63,#25),#39,.T.);
#619=ADVANCED_FACE('',(#64),#40,.T.);
#620=ADVANCED_FACE('',(#65,#26),#41,.F.);
#621=ADVANCED_FACE('',(#66),#595,.F.);
#622=ADVANCED_FACE('',(#67),#596,.T.);
#623=ADVANCED_FACE('',(#68),#597,.F.);
#624=ADVANCED_FACE('',(#69),#598,.F.);
#625=ADVANCED_FACE('',(#70),#599,.T.);
#626=ADVANCED_FACE('',(#71),#42,.T.);
#627=ADVANCED_FACE('',(#72),#600,.T.);
#628=ADVANCED_FACE('',(#73),#43,.T.);
#629=ADVANCED_FACE('',(#74),#44,.T.);
#630=ADVANCED_FACE('',(#75,#27),#45,.F.);
#631=ADVANCED_FACE('',(#76),#46,.T.);
#632=ADVANCED_FACE('',(#77,#28),#47,.T.);
#633=ADVANCED_FACE('',(#78),#601,.F.);
#634=ADVANCED_FACE('',(#79),#602,.T.);
#635=ADVANCED_FACE('',(#80),#603,.F.);
#636=ADVANCED_FACE('',(#81),#604,.F.);
#637=ADVANCED_FACE('',(#82),#48,.T.);
#638=ADVANCED_FACE('',(#83,#29,#30,#31,#32),#49,.T.);
#639=CLOSED_SHELL('',(#605,#606,#607,#608,#609,#610,#611,#612,#613,#614,
#615,#616,#617,#618,#619,#620,#621,#622,#623,#624,#625,#626,#627,#628,#629,
#630,#631,#632,#633,#634,#635,#636,#637,#638));
#640=DERIVED_UNIT_ELEMENT(#642,1.);
#641=DERIVED_UNIT_ELEMENT(#1132,-3.);
#642=(
CONVERSION_BASED_UNIT('gram',#644)
MASS_UNIT()
NAMED_UNIT(#1129)
);
#643=(
MASS_UNIT()
NAMED_UNIT(*)
SI_UNIT(.KILO.,.GRAM.)
);
#644=MASS_MEASURE_WITH_UNIT(MASS_MEASURE(0.001),#643);
#645=DERIVED_UNIT((#640,#641));
#646=MEASURE_REPRESENTATION_ITEM('density measure',
POSITIVE_RATIO_MEASURE(1.),#645);
#647=PROPERTY_DEFINITION_REPRESENTATION(#652,#649);
#648=PROPERTY_DEFINITION_REPRESENTATION(#653,#650);
#649=REPRESENTATION('material name',(#651),#1126);
#650=REPRESENTATION('density',(#646),#1126);
#651=DESCRIPTIVE_REPRESENTATION_ITEM('Generic','Generic');
#652=PROPERTY_DEFINITION('material property','material name',#1140);
#653=PROPERTY_DEFINITION('material property','density of part',#1140);
#654=DATE_TIME_ROLE('creation_date');
#655=APPLIED_DATE_AND_TIME_ASSIGNMENT(#656,#654,(#1140));
#656=DATE_AND_TIME(#657,#658);
#657=CALENDAR_DATE(2025,9,12);
#658=LOCAL_TIME(0,0,0.,#659);
#659=COORDINATED_UNIVERSAL_TIME_OFFSET(0,0,.BEHIND.);
#660=AXIS2_PLACEMENT_3D('',#939,#737,#738);
#661=AXIS2_PLACEMENT_3D('',#940,#739,#740);
#662=AXIS2_PLACEMENT_3D('',#943,#741,#742);
#663=AXIS2_PLACEMENT_3D('',#947,#744,#745);
#664=AXIS2_PLACEMENT_3D('',#949,#747,#748);
#665=AXIS2_PLACEMENT_3D('',#955,#752,#753);
#666=AXIS2_PLACEMENT_3D('',#959,#755,#756);
#667=AXIS2_PLACEMENT_3D('',#963,#758,#759);
#668=AXIS2_PLACEMENT_3D('',#967,#761,#762);
#669=AXIS2_PLACEMENT_3D('',#971,#764,#765);
#670=AXIS2_PLACEMENT_3D('',#975,#767,#768);
#671=AXIS2_PLACEMENT_3D('',#978,#770,#771);
#672=AXIS2_PLACEMENT_3D('',#980,#772,#773);
#673=AXIS2_PLACEMENT_3D('',#982,#774,#775);
#674=AXIS2_PLACEMENT_3D('',#983,#776,#777);
#675=AXIS2_PLACEMENT_3D('',#986,#778,#779);
#676=AXIS2_PLACEMENT_3D('',#989,#782,#783);
#677=AXIS2_PLACEMENT_3D('',#993,#786,#787);
#678=AXIS2_PLACEMENT_3D('',#994,#788,#789);
#679=AXIS2_PLACEMENT_3D('',#995,#790,#791);
#680=AXIS2_PLACEMENT_3D('',#998,#793,#794);
#681=AXIS2_PLACEMENT_3D('',#999,#795,#796);
#682=AXIS2_PLACEMENT_3D('',#1002,#798,#799);
#683=AXIS2_PLACEMENT_3D('',#1003,#800,#801);
#684=AXIS2_PLACEMENT_3D('',#1006,#802,#803);
#685=AXIS2_PLACEMENT_3D('',#1009,#806,#807);
#686=AXIS2_PLACEMENT_3D('',#1013,#810,#811);
#687=AXIS2_PLACEMENT_3D('',#1015,#812,#813);
#688=AXIS2_PLACEMENT_3D('',#1017,#815,#816);
#689=AXIS2_PLACEMENT_3D('',#1019,#818,#819);
#690=AXIS2_PLACEMENT_3D('',#1022,#820,#821);
#691=AXIS2_PLACEMENT_3D('',#1026,#823,#824);
#692=AXIS2_PLACEMENT_3D('',#1028,#826,#827);
#693=AXIS2_PLACEMENT_3D('',#1030,#828,#829);
#694=AXIS2_PLACEMENT_3D('',#1032,#830,#831);
#695=AXIS2_PLACEMENT_3D('',#1033,#832,#833);
#696=AXIS2_PLACEMENT_3D('',#1035,#834,#835);
#697=AXIS2_PLACEMENT_3D('',#1036,#836,#837);
#698=AXIS2_PLACEMENT_3D('',#1039,#838,#839);
#699=AXIS2_PLACEMENT_3D('',#1043,#841,#842);
#700=AXIS2_PLACEMENT_3D('',#1045,#844,#845);
#701=AXIS2_PLACEMENT_3D('',#1047,#846,#847);
#702=AXIS2_PLACEMENT_3D('',#1049,#848,#849);
#703=AXIS2_PLACEMENT_3D('',#1050,#850,#851);
#704=AXIS2_PLACEMENT_3D('',#1052,#852,#853);
#705=AXIS2_PLACEMENT_3D('',#1053,#854,#855);
#706=AXIS2_PLACEMENT_3D('',#1055,#857,#858);
#707=AXIS2_PLACEMENT_3D('',#1058,#861,#862);
#708=AXIS2_PLACEMENT_3D('',#1060,#864,#865);
#709=AXIS2_PLACEMENT_3D('',#1062,#867,#868);
#710=AXIS2_PLACEMENT_3D('',#1065,#869,#870);
#711=AXIS2_PLACEMENT_3D('',#1068,#873,#874);
#712=AXIS2_PLACEMENT_3D('',#1070,#876,#877);
#713=AXIS2_PLACEMENT_3D('',#1073,#878,#879);
#714=AXIS2_PLACEMENT_3D('',#1076,#882,#883);
#715=AXIS2_PLACEMENT_3D('',#1078,#885,#886);
#716=AXIS2_PLACEMENT_3D('',#1081,#887,#888);
#717=AXIS2_PLACEMENT_3D('',#1085,#890,#891);
#718=AXIS2_PLACEMENT_3D('',#1087,#893,#894);
#719=AXIS2_PLACEMENT_3D('',#1089,#895,#896);
#720=AXIS2_PLACEMENT_3D('',#1091,#897,#898);
#721=AXIS2_PLACEMENT_3D('',#1092,#899,#900);
#722=AXIS2_PLACEMENT_3D('',#1094,#901,#902);
#723=AXIS2_PLACEMENT_3D('',#1095,#903,#904);
#724=AXIS2_PLACEMENT_3D('',#1098,#905,#906);
#725=AXIS2_PLACEMENT_3D('',#1102,#908,#909);
#726=AXIS2_PLACEMENT_3D('',#1104,#911,#912);
#727=AXIS2_PLACEMENT_3D('',#1106,#913,#914);
#728=AXIS2_PLACEMENT_3D('',#1108,#915,#916);
#729=AXIS2_PLACEMENT_3D('',#1109,#917,#918);
#730=AXIS2_PLACEMENT_3D('',#1111,#919,#920);
#731=AXIS2_PLACEMENT_3D('',#1112,#921,#922);
#732=AXIS2_PLACEMENT_3D('',#1114,#924,#925);
#733=AXIS2_PLACEMENT_3D('',#1117,#928,#929);
#734=AXIS2_PLACEMENT_3D('',#1119,#931,#932);
#735=AXIS2_PLACEMENT_3D('',#1121,#934,#935);
#736=AXIS2_PLACEMENT_3D('',#1123,#937,#938);
#737=DIRECTION('axis',(0.,0.,1.));
#738=DIRECTION('refdir',(1.,0.,0.));
#739=DIRECTION('center_axis',(0.,1.,0.));
#740=DIRECTION('ref_axis',(-0.923879532511287,0.,0.38268343236509));
#741=DIRECTION('center_axis',(0.,-1.,0.));
#742=DIRECTION('ref_axis',(-0.923879532511287,0.,0.38268343236509));
#743=DIRECTION('',(0.,-1.,0.));
#744=DIRECTION('center_axis',(0.,1.,0.));
#745=DIRECTION('ref_axis',(-0.923879532511287,0.,0.38268343236509));
#746=DIRECTION('',(0.,1.,0.));
#747=DIRECTION('center_axis',(-0.707106781186547,0.,0.707106781186548));
#748=DIRECTION('ref_axis',(0.707106781186548,0.,0.707106781186547));
#749=DIRECTION('',(0.707106781186548,0.,0.707106781186547));
#750=DIRECTION('',(0.,-1.,0.));
#751=DIRECTION('',(0.707106781186548,0.,0.707106781186547));
#752=DIRECTION('center_axis',(0.,1.,0.));
#753=DIRECTION('ref_axis',(0.,0.,1.));
#754=DIRECTION('',(-3.10823593945801E-16,0.,1.));
#755=DIRECTION('center_axis',(0.,1.,0.));
#756=DIRECTION('ref_axis',(-0.707106781186548,0.,-0.707106781186548));
#757=DIRECTION('',(-1.,0.,-1.554117969729E-16));
#758=DIRECTION('center_axis',(0.,1.,0.));
#759=DIRECTION('ref_axis',(0.707106781186548,0.,-0.707106781186547));
#760=DIRECTION('',(2.8609898988193E-16,0.,-1.));
#761=DIRECTION('center_axis',(0.,1.,0.));
#762=DIRECTION('ref_axis',(0.707106781186548,0.,0.707106781186547));
#763=DIRECTION('',(1.,0.,-1.554117969729E-16));
#764=DIRECTION('center_axis',(0.,1.,0.));
#765=DIRECTION('ref_axis',(-0.707106781186548,0.,0.707106781186548));
#766=DIRECTION('',(2.3311769545935E-16,0.,1.));
#767=DIRECTION('center_axis',(0.,1.,0.));
#768=DIRECTION('ref_axis',(-0.923879532511287,0.,-0.38268343236509));
#769=DIRECTION('',(-0.707106781186548,0.,0.707106781186547));
#770=DIRECTION('center_axis',(0.,-1.,0.));
#771=DIRECTION('ref_axis',(1.,0.,-4.94517309821662E-16));
#772=DIRECTION('center_axis',(0.,1.,0.));
#773=DIRECTION('ref_axis',(1.,0.,0.));
#774=DIRECTION('center_axis',(0.,1.,0.));
#775=DIRECTION('ref_axis',(1.,0.,0.));
#776=DIRECTION('center_axis',(0.,1.,0.));
#777=DIRECTION('ref_axis',(-0.923879532511287,0.,-0.38268343236509));
#778=DIRECTION('center_axis',(0.,-1.,0.));
#779=DIRECTION('ref_axis',(-0.923879532511287,0.,-0.38268343236509));
#780=DIRECTION('',(0.,-1.,0.));
#781=DIRECTION('',(0.,1.,0.));
#782=DIRECTION('center_axis',(-0.707106781186547,0.,-0.707106781186548));
#783=DIRECTION('ref_axis',(-0.707106781186548,0.,0.707106781186547));
#784=DIRECTION('',(-0.707106781186548,0.,0.707106781186547));
#785=DIRECTION('',(0.,1.,0.));
#786=DIRECTION('center_axis',(0.,1.,0.));
#787=DIRECTION('ref_axis',(1.,0.,-4.94517309821662E-16));
#788=DIRECTION('center_axis',(0.,1.,0.));
#789=DIRECTION('ref_axis',(1.,0.,-4.94517309821662E-16));
#790=DIRECTION('center_axis',(0.,1.,0.));
#791=DIRECTION('ref_axis',(1.,0.,0.));
#792=DIRECTION('',(0.,1.,0.));
#793=DIRECTION('center_axis',(0.,-1.,0.));
#794=DIRECTION('ref_axis',(1.,0.,0.));
#795=DIRECTION('center_axis',(0.,1.,0.));
#796=DIRECTION('ref_axis',(1.,0.,0.));
#797=DIRECTION('',(0.,1.,0.));
#798=DIRECTION('center_axis',(0.,-1.,0.));
#799=DIRECTION('ref_axis',(1.,0.,0.));
#800=DIRECTION('center_axis',(0.,1.,0.));
#801=DIRECTION('ref_axis',(0.707106781186548,0.,-0.707106781186547));
#802=DIRECTION('center_axis',(0.,-1.,0.));
#803=DIRECTION('ref_axis',(0.707106781186548,0.,-0.707106781186547));
#804=DIRECTION('',(0.,-1.,0.));
#805=DIRECTION('',(0.,1.,0.));
#806=DIRECTION('center_axis',(1.554117969729E-16,0.,-1.));
#807=DIRECTION('ref_axis',(-1.,0.,-1.554117969729E-16));
#808=DIRECTION('',(0.,-1.,0.));
#809=DIRECTION('',(-1.,0.,-1.554117969729E-16));
#810=DIRECTION('center_axis',(0.,1.,0.));
#811=DIRECTION('ref_axis',(-0.707106781186548,0.,-0.707106781186548));
#812=DIRECTION('center_axis',(0.,-1.,0.));
#813=DIRECTION('ref_axis',(-0.707106781186548,0.,-0.707106781186548));
#814=DIRECTION('',(0.,1.,0.));
#815=DIRECTION('center_axis',(-1.,0.,-3.10823593945801E-16));
#816=DIRECTION('ref_axis',(-3.10823593945801E-16,0.,1.));
#817=DIRECTION('',(-3.10823593945801E-16,0.,1.));
#818=DIRECTION('center_axis',(-1.09892735515925E-16,0.707106781186547,0.707106781186549));
#819=DIRECTION('ref_axis',(1.,0.,1.554117969729E-16));
#820=DIRECTION('center_axis',(1.09892735515925E-16,-0.707106781186547,-0.707106781186549));
#821=DIRECTION('ref_axis',(-9.27219955915616E-17,0.707106781186548,-0.707106781186547));
#822=DIRECTION('',(-1.,0.,-1.554117969729E-16));
#823=DIRECTION('center_axis',(1.09892735515925E-16,-0.707106781186547,-0.707106781186549));
#824=DIRECTION('ref_axis',(0.,0.707106781186549,-0.707106781186547));
#825=DIRECTION('',(1.,0.,1.554117969729E-16));
#826=DIRECTION('center_axis',(-1.554117969729E-16,0.,1.));
#827=DIRECTION('ref_axis',(1.,0.,1.554117969729E-16));
#828=DIRECTION('center_axis',(-1.554117969729E-16,0.,1.));
#829=DIRECTION('ref_axis',(0.9315409787236,0.363636363636363,1.44772457457329E-16));
#830=DIRECTION('center_axis',(1.554117969729E-16,6.16297582203915E-33,-1.));
#831=DIRECTION('ref_axis',(0.9315409787236,0.363636363636364,1.44772457457329E-16));
#832=DIRECTION('center_axis',(-1.554117969729E-16,0.,1.));
#833=DIRECTION('ref_axis',(0.,1.,0.));
#834=DIRECTION('center_axis',(-1.554117969729E-16,0.,1.));
#835=DIRECTION('ref_axis',(-1.,0.,-1.554117969729E-16));
#836=DIRECTION('center_axis',(1.09892735515925E-16,0.707106781186547,-0.707106781186549));
#837=DIRECTION('ref_axis',(-1.,0.,-1.554117969729E-16));
#838=DIRECTION('center_axis',(-1.09892735515925E-16,-0.707106781186547,
0.707106781186549));
#839=DIRECTION('ref_axis',(0.,0.707106781186549,0.707106781186547));
#840=DIRECTION('',(1.,0.,1.554117969729E-16));
#841=DIRECTION('center_axis',(-1.09892735515925E-16,-0.707106781186547,
0.707106781186549));
#842=DIRECTION('ref_axis',(9.27219955915616E-17,0.707106781186548,0.707106781186547));
#843=DIRECTION('',(-1.,0.,-1.554117969729E-16));
#844=DIRECTION('center_axis',(-1.554117969729E-16,0.,1.));
#845=DIRECTION('ref_axis',(1.,0.,1.554117969729E-16));
#846=DIRECTION('center_axis',(1.554117969729E-16,0.,-1.));
#847=DIRECTION('ref_axis',(0.,1.,0.));
#848=DIRECTION('center_axis',(-1.554117969729E-16,-6.16297582203915E-33,
1.));
#849=DIRECTION('ref_axis',(0.9315409787236,0.363636363636364,1.44772457457329E-16));
#850=DIRECTION('center_axis',(1.554117969729E-16,0.,-1.));
#851=DIRECTION('ref_axis',(0.9315409787236,0.363636363636363,1.44772457457329E-16));
#852=DIRECTION('center_axis',(1.554117969729E-16,0.,-1.));
#853=DIRECTION('ref_axis',(-1.,0.,-1.554117969729E-16));
#854=DIRECTION('center_axis',(0.,0.,1.));
#855=DIRECTION('ref_axis',(-1.,0.,0.));
#856=DIRECTION('',(0.,0.,1.));
#857=DIRECTION('center_axis',(0.,0.,1.));
#858=DIRECTION('ref_axis',(0.9315409787236,0.363636363636364,0.));
#859=DIRECTION('',(0.,0.,1.));
#860=DIRECTION('',(0.,0.,-1.));
#861=DIRECTION('center_axis',(0.,0.,1.));
#862=DIRECTION('ref_axis',(0.9315409787236,0.363636363636363,0.));
#863=DIRECTION('',(0.,0.,-1.));
#864=DIRECTION('center_axis',(0.,0.,1.));
#865=DIRECTION('ref_axis',(0.,1.,0.));
#866=DIRECTION('',(0.,0.,-1.));
#867=DIRECTION('center_axis',(0.,1.,0.));
#868=DIRECTION('ref_axis',(0.707106781186548,0.,0.707106781186547));
#869=DIRECTION('center_axis',(0.,-1.,0.));
#870=DIRECTION('ref_axis',(0.707106781186548,0.,0.707106781186547));
#871=DIRECTION('',(0.,-1.,0.));
#872=DIRECTION('',(0.,1.,0.));
#873=DIRECTION('center_axis',(1.,0.,2.8609898988193E-16));
#874=DIRECTION('ref_axis',(2.8609898988193E-16,0.,-1.));
#875=DIRECTION('',(2.8609898988193E-16,0.,-1.));
#876=DIRECTION('center_axis',(0.,1.,0.));
#877=DIRECTION('ref_axis',(-0.707106781186548,0.,0.707106781186548));
#878=DIRECTION('center_axis',(0.,-1.,0.));
#879=DIRECTION('ref_axis',(-0.707106781186548,0.,0.707106781186548));
#880=DIRECTION('',(0.,-1.,0.));
#881=DIRECTION('',(0.,1.,0.));
#882=DIRECTION('center_axis',(-1.,0.,2.3311769545935E-16));
#883=DIRECTION('ref_axis',(2.3311769545935E-16,0.,1.));
#884=DIRECTION('',(2.3311769545935E-16,0.,1.));
#885=DIRECTION('center_axis',(-1.09892735515925E-16,0.707106781186547,-0.707106781186549));
#886=DIRECTION('ref_axis',(-1.,0.,1.554117969729E-16));
#887=DIRECTION('center_axis',(1.09892735515925E-16,-0.707106781186547,0.707106781186549));
#888=DIRECTION('ref_axis',(0.,0.707106781186549,0.707106781186547));
#889=DIRECTION('',(1.,0.,-1.554117969729E-16));
#890=DIRECTION('center_axis',(1.09892735515925E-16,-0.707106781186547,0.707106781186549));
#891=DIRECTION('ref_axis',(-9.27219955915616E-17,0.707106781186548,0.707106781186547));
#892=DIRECTION('',(-1.,0.,1.554117969729E-16));
#893=DIRECTION('center_axis',(1.554117969729E-16,0.,1.));
#894=DIRECTION('ref_axis',(1.,0.,-1.554117969729E-16));
#895=DIRECTION('center_axis',(1.554117969729E-16,0.,1.));
#896=DIRECTION('ref_axis',(0.,1.,0.));
#897=DIRECTION('center_axis',(-1.554117969729E-16,-6.16297582203915E-33,
-1.));
#898=DIRECTION('ref_axis',(0.9315409787236,0.363636363636364,-1.44772457457329E-16));
#899=DIRECTION('center_axis',(1.554117969729E-16,0.,1.));
#900=DIRECTION('ref_axis',(0.9315409787236,0.363636363636363,-1.44772457457329E-16));
#901=DIRECTION('center_axis',(1.554117969729E-16,0.,1.));
#902=DIRECTION('ref_axis',(-1.,0.,1.554117969729E-16));
#903=DIRECTION('center_axis',(1.09892735515925E-16,0.707106781186547,0.707106781186549));
#904=DIRECTION('ref_axis',(1.,0.,-1.554117969729E-16));
#905=DIRECTION('center_axis',(-1.09892735515925E-16,-0.707106781186547,
-0.707106781186549));
#906=DIRECTION('ref_axis',(9.27219955915616E-17,0.707106781186548,-0.707106781186547));
#907=DIRECTION('',(-1.,0.,1.554117969729E-16));
#908=DIRECTION('center_axis',(-1.09892735515925E-16,-0.707106781186547,
-0.707106781186549));
#909=DIRECTION('ref_axis',(0.,0.707106781186549,-0.707106781186547));
#910=DIRECTION('',(1.,0.,-1.554117969729E-16));
#911=DIRECTION('center_axis',(1.554117969729E-16,0.,1.));
#912=DIRECTION('ref_axis',(1.,0.,-1.554117969729E-16));
#913=DIRECTION('center_axis',(-1.554117969729E-16,0.,-1.));
#914=DIRECTION('ref_axis',(0.9315409787236,0.363636363636363,-1.44772457457329E-16));
#915=DIRECTION('center_axis',(1.554117969729E-16,6.16297582203915E-33,1.));
#916=DIRECTION('ref_axis',(0.9315409787236,0.363636363636364,-1.44772457457329E-16));
#917=DIRECTION('center_axis',(-1.554117969729E-16,0.,-1.));
#918=DIRECTION('ref_axis',(0.,1.,0.));
#919=DIRECTION('center_axis',(-1.554117969729E-16,0.,-1.));
#920=DIRECTION('ref_axis',(-1.,0.,1.554117969729E-16));
#921=DIRECTION('center_axis',(0.,0.,1.));
#922=DIRECTION('ref_axis',(-1.,0.,0.));
#923=DIRECTION('',(0.,0.,-1.));
#924=DIRECTION('center_axis',(0.,0.,1.));
#925=DIRECTION('ref_axis',(0.9315409787236,0.363636363636364,0.));
#926=DIRECTION('',(0.,0.,-1.));
#927=DIRECTION('',(0.,0.,1.));
#928=DIRECTION('center_axis',(0.,0.,1.));
#929=DIRECTION('ref_axis',(0.9315409787236,0.363636363636363,0.));
#930=DIRECTION('',(0.,0.,-1.));
#931=DIRECTION('center_axis',(0.,0.,1.));
#932=DIRECTION('ref_axis',(0.,1.,0.));
#933=DIRECTION('',(0.,0.,-1.));
#934=DIRECTION('center_axis',(1.554117969729E-16,0.,1.));
#935=DIRECTION('ref_axis',(1.,0.,-1.554117969729E-16));
#936=DIRECTION('',(1.,0.,-1.554117969729E-16));
#937=DIRECTION('center_axis',(0.,1.,0.));
#938=DIRECTION('ref_axis',(0.,0.,1.));
#939=CARTESIAN_POINT('',(0.,0.,0.));
#940=CARTESIAN_POINT('Origin',(-1.,0.,-0.551776695296637));
#941=CARTESIAN_POINT('',(-1.08838834764832,0.118110236220472,-0.463388347648318));
#942=CARTESIAN_POINT('',(-1.125,0.118110236220472,-0.551776695296637));
#943=CARTESIAN_POINT('Origin',(-1.,0.118110236220472,-0.551776695296637));
#944=CARTESIAN_POINT('',(-1.125,0.,-0.551776695296637));
#945=CARTESIAN_POINT('',(-1.125,0.,-0.551776695296637));
#946=CARTESIAN_POINT('',(-1.08838834764832,0.,-0.463388347648318));
#947=CARTESIAN_POINT('Origin',(-1.,0.,-0.551776695296637));
#948=CARTESIAN_POINT('',(-1.08838834764832,0.,-0.463388347648318));
#949=CARTESIAN_POINT('Origin',(-1.125,0.,-0.5));
#950=CARTESIAN_POINT('',(-0.713388347648318,0.,-0.0883883476483183));
#951=CARTESIAN_POINT('',(-1.125,0.,-0.5));
#952=CARTESIAN_POINT('',(-0.713388347648318,0.118110236220472,-0.0883883476483183));
#953=CARTESIAN_POINT('',(-0.713388347648318,0.,-0.0883883476483184));
#954=CARTESIAN_POINT('',(-1.125,0.118110236220472,-0.5));
#955=CARTESIAN_POINT('Origin',(5.24514814783538E-16,0.,1.74838271594513E-16));
#956=CARTESIAN_POINT('',(-1.125,0.,-2.5));
#957=CARTESIAN_POINT('',(-1.125,0.,-2.75));
#958=CARTESIAN_POINT('',(-0.875,0.,-2.75));
#959=CARTESIAN_POINT('Origin',(-0.875,0.,-2.5));
#960=CARTESIAN_POINT('',(0.875000000000001,0.,-2.75));
#961=CARTESIAN_POINT('',(1.125,0.,-2.75));
#962=CARTESIAN_POINT('',(1.125,0.,-2.5));
#963=CARTESIAN_POINT('Origin',(0.875000000000001,0.,-2.5));
#964=CARTESIAN_POINT('',(1.125,0.,2.5));
#965=CARTESIAN_POINT('',(1.125,0.,2.75));
#966=CARTESIAN_POINT('',(0.875,0.,2.75));
#967=CARTESIAN_POINT('Origin',(0.875,0.,2.5));
#968=CARTESIAN_POINT('',(-0.875,0.,2.75));
#969=CARTESIAN_POINT('',(-1.125,0.,2.75));
#970=CARTESIAN_POINT('',(-1.125,0.,2.5));
#971=CARTESIAN_POINT('Origin',(-0.875,0.,2.5));
#972=CARTESIAN_POINT('',(-1.125,0.,0.551776695296637));
#973=CARTESIAN_POINT('',(-1.125,0.,0.5));
#974=CARTESIAN_POINT('',(-1.08838834764832,0.,0.463388347648319));
#975=CARTESIAN_POINT('Origin',(-1.,0.,0.551776695296637));
#976=CARTESIAN_POINT('',(-0.713388347648318,0.,0.0883883476483186));
#977=CARTESIAN_POINT('',(-0.625,0.,8.74191357972564E-17));
#978=CARTESIAN_POINT('Origin',(-0.801776695296637,0.,1.31128703695885E-16));
#979=CARTESIAN_POINT('',(0.789,0.,2.5));
#980=CARTESIAN_POINT('Origin',(0.875,0.,2.5));
#981=CARTESIAN_POINT('',(0.789,0.,-2.5));
#982=CARTESIAN_POINT('Origin',(0.875,0.,-2.5));
#983=CARTESIAN_POINT('Origin',(-1.,0.,0.551776695296637));
#984=CARTESIAN_POINT('',(-1.125,0.118110236220472,0.551776695296637));
#985=CARTESIAN_POINT('',(-1.08838834764832,0.118110236220472,0.463388347648319));
#986=CARTESIAN_POINT('Origin',(-1.,0.118110236220472,0.551776695296637));
#987=CARTESIAN_POINT('',(-1.08838834764832,0.,0.463388347648319));
#988=CARTESIAN_POINT('',(-1.125,0.,0.551776695296637));
#989=CARTESIAN_POINT('Origin',(-0.625,0.,8.22969208091359E-17));
#990=CARTESIAN_POINT('',(-0.713388347648318,0.118110236220472,0.0883883476483186));
#991=CARTESIAN_POINT('',(-0.625,0.118110236220472,8.74191357972564E-17));
#992=CARTESIAN_POINT('',(-0.713388347648318,0.,0.0883883476483186));
#993=CARTESIAN_POINT('Origin',(-0.801776695296637,0.,1.31128703695885E-16));
#994=CARTESIAN_POINT('Origin',(-0.801776695296637,0.118110236220472,1.31128703695885E-16));
#995=CARTESIAN_POINT('Origin',(0.875,0.,2.5));
#996=CARTESIAN_POINT('',(0.789,0.118110236220472,2.5));
#997=CARTESIAN_POINT('',(0.789,0.,2.5));
#998=CARTESIAN_POINT('Origin',(0.875,0.118110236220472,2.5));
#999=CARTESIAN_POINT('Origin',(0.875,0.,-2.5));
#1000=CARTESIAN_POINT('',(0.789,0.118110236220472,-2.5));
#1001=CARTESIAN_POINT('',(0.789,0.,-2.5));
#1002=CARTESIAN_POINT('Origin',(0.875,0.118110236220472,-2.5));
#1003=CARTESIAN_POINT('Origin',(0.875000000000001,0.,-2.5));
#1004=CARTESIAN_POINT('',(0.875000000000001,0.118110236220472,-2.75));
#1005=CARTESIAN_POINT('',(1.125,0.118110236220472,-2.5));
#1006=CARTESIAN_POINT('Origin',(0.875000000000001,0.118110236220472,-2.5));
#1007=CARTESIAN_POINT('',(1.125,0.,-2.5));
#1008=CARTESIAN_POINT('',(0.875000000000001,0.,-2.75));
#1009=CARTESIAN_POINT('Origin',(1.125,0.,-2.75));
#1010=CARTESIAN_POINT('',(-0.875,0.118110236220472,-2.75));
#1011=CARTESIAN_POINT('',(-0.875,0.,-2.75));
#1012=CARTESIAN_POINT('',(1.125,0.118110236220472,-2.75));
#1013=CARTESIAN_POINT('Origin',(-0.875,0.,-2.5));
#1014=CARTESIAN_POINT('',(-1.125,0.118110236220472,-2.5));
#1015=CARTESIAN_POINT('Origin',(-0.875,0.118110236220472,-2.5));
#1016=CARTESIAN_POINT('',(-1.125,0.,-2.5));
#1017=CARTESIAN_POINT('Origin',(-1.125,0.,-2.75));
#1018=CARTESIAN_POINT('',(-1.125,0.118110236220472,-2.75));
#1019=CARTESIAN_POINT('Origin',(-0.0624999999999991,0.133735236220472,-2.359375));
#1020=CARTESIAN_POINT('',(0.515434422872476,0.118110236220472,-2.34375));
#1021=CARTESIAN_POINT('',(0.341441786534038,0.149360236220472,-2.375));
#1022=CARTESIAN_POINT('Origin',(0.515434422872476,0.618110236220472,-2.84375));
#1023=CARTESIAN_POINT('',(-0.591441786534036,0.149360236220472,-2.375));
#1024=CARTESIAN_POINT('',(-0.0624999999999991,0.149360236220472,-2.375));
#1025=CARTESIAN_POINT('',(-0.765434422872474,0.118110236220472,-2.34375));
#1026=CARTESIAN_POINT('Origin',(-0.765434422872474,0.618110236220472,-2.84375));
#1027=CARTESIAN_POINT('',(-0.0624999999999991,0.118110236220472,-2.34375));
#1028=CARTESIAN_POINT('Origin',(-0.124999999999999,0.336860236220472,-2.375));
#1029=CARTESIAN_POINT('',(0.0496639335106759,0.436292054402291,-2.375));
#1030=CARTESIAN_POINT('Origin',(0.515434422872476,0.618110236220472,-2.375));
#1031=CARTESIAN_POINT('',(-0.299663933510674,0.436292054402291,-2.375));
#1032=CARTESIAN_POINT('Origin',(-0.124999999999999,0.368110236220472,-2.375));
#1033=CARTESIAN_POINT('Origin',(-0.765434422872474,0.618110236220472,-2.375));
#1034=CARTESIAN_POINT('',(-0.0389999999999991,0.368110236220472,-2.375));
#1035=CARTESIAN_POINT('Origin',(-0.124999999999999,0.368110236220472,-2.375));
#1036=CARTESIAN_POINT('Origin',(-0.062499999999999,0.133735236220472,-2.640625));
#1037=CARTESIAN_POINT('',(-0.765434422872474,0.118110236220472,-2.65625));
#1038=CARTESIAN_POINT('',(-0.591441786534036,0.149360236220472,-2.625));
#1039=CARTESIAN_POINT('Origin',(-0.765434422872474,0.618110236220472,-2.15625));
#1040=CARTESIAN_POINT('',(0.341441786534038,0.149360236220472,-2.625));
#1041=CARTESIAN_POINT('',(-0.062499999999999,0.149360236220472,-2.625));
#1042=CARTESIAN_POINT('',(0.515434422872476,0.118110236220472,-2.65625));
#1043=CARTESIAN_POINT('Origin',(0.515434422872476,0.618110236220472,-2.15625));
#1044=CARTESIAN_POINT('',(-0.062499999999999,0.118110236220472,-2.65625));
#1045=CARTESIAN_POINT('Origin',(-0.124999999999999,0.336860236220472,-2.625));
#1046=CARTESIAN_POINT('',(-0.299663933510674,0.436292054402291,-2.625));
#1047=CARTESIAN_POINT('Origin',(-0.765434422872474,0.618110236220472,-2.625));
#1048=CARTESIAN_POINT('',(0.0496639335106759,0.436292054402291,-2.625));
#1049=CARTESIAN_POINT('Origin',(-0.124999999999999,0.368110236220472,-2.625));
#1050=CARTESIAN_POINT('Origin',(0.515434422872476,0.618110236220472,-2.625));
#1051=CARTESIAN_POINT('',(-0.0389999999999991,0.368110236220472,-2.625));
#1052=CARTESIAN_POINT('Origin',(-0.124999999999999,0.368110236220472,-2.625));
#1053=CARTESIAN_POINT('Origin',(-0.124999999999999,0.368110236220472,-2.5));
#1054=CARTESIAN_POINT('',(-0.0389999999999991,0.368110236220472,-2.5));
#1055=CARTESIAN_POINT('Origin',(-0.124999999999999,0.368110236220472,-2.5));
#1056=CARTESIAN_POINT('',(-0.299663933510674,0.436292054402291,-2.5));
#1057=CARTESIAN_POINT('',(0.0496639335106759,0.436292054402291,-2.5));
#1058=CARTESIAN_POINT('Origin',(0.515434422872476,0.618110236220472,-2.5));
#1059=CARTESIAN_POINT('',(0.515434422872476,0.118110236220472,-2.5));
#1060=CARTESIAN_POINT('Origin',(-0.765434422872474,0.618110236220472,-2.5));
#1061=CARTESIAN_POINT('',(-0.765434422872474,0.118110236220472,-2.5));
#1062=CARTESIAN_POINT('Origin',(0.875,0.,2.5));
#1063=CARTESIAN_POINT('',(1.125,0.118110236220472,2.5));
#1064=CARTESIAN_POINT('',(0.875,0.118110236220472,2.75));
#1065=CARTESIAN_POINT('Origin',(0.875,0.118110236220472,2.5));
#1066=CARTESIAN_POINT('',(0.875,0.,2.75));
#1067=CARTESIAN_POINT('',(1.125,0.,2.5));
#1068=CARTESIAN_POINT('Origin',(1.125,0.,2.75));
#1069=CARTESIAN_POINT('',(1.125,0.118110236220472,2.75));
#1070=CARTESIAN_POINT('Origin',(-0.875,0.,2.5));
#1071=CARTESIAN_POINT('',(-0.875,0.118110236220472,2.75));
#1072=CARTESIAN_POINT('',(-1.125,0.118110236220472,2.5));
#1073=CARTESIAN_POINT('Origin',(-0.875,0.118110236220472,2.5));
#1074=CARTESIAN_POINT('',(-1.125,0.,2.5));
#1075=CARTESIAN_POINT('',(-0.875,0.,2.75));
#1076=CARTESIAN_POINT('Origin',(-1.125,0.,0.5));
#1077=CARTESIAN_POINT('',(-1.125,0.118110236220472,0.5));
#1078=CARTESIAN_POINT('Origin',(-0.0624999999999991,0.133735236220472,2.359375));
#1079=CARTESIAN_POINT('',(-0.765434422872474,0.118110236220472,2.34375));
#1080=CARTESIAN_POINT('',(-0.591441786534036,0.149360236220472,2.375));
#1081=CARTESIAN_POINT('Origin',(-0.765434422872474,0.618110236220472,2.84375));
#1082=CARTESIAN_POINT('',(0.341441786534038,0.149360236220472,2.375));
#1083=CARTESIAN_POINT('',(-0.0624999999999991,0.149360236220472,2.375));
#1084=CARTESIAN_POINT('',(0.515434422872476,0.118110236220472,2.34375));
#1085=CARTESIAN_POINT('Origin',(0.515434422872476,0.618110236220472,2.84375));
#1086=CARTESIAN_POINT('',(-0.0624999999999991,0.118110236220472,2.34375));
#1087=CARTESIAN_POINT('Origin',(-0.124999999999999,0.336860236220472,2.375));
#1088=CARTESIAN_POINT('',(-0.299663933510674,0.436292054402291,2.375));
#1089=CARTESIAN_POINT('Origin',(-0.765434422872474,0.618110236220472,2.375));
#1090=CARTESIAN_POINT('',(0.0496639335106759,0.436292054402291,2.375));
#1091=CARTESIAN_POINT('Origin',(-0.124999999999999,0.368110236220472,2.375));
#1092=CARTESIAN_POINT('Origin',(0.515434422872476,0.618110236220472,2.375));
#1093=CARTESIAN_POINT('',(-0.0389999999999991,0.368110236220472,2.375));
#1094=CARTESIAN_POINT('Origin',(-0.124999999999999,0.368110236220472,2.375));
#1095=CARTESIAN_POINT('Origin',(-0.062499999999999,0.133735236220472,2.640625));
#1096=CARTESIAN_POINT('',(0.515434422872476,0.118110236220472,2.65625));
#1097=CARTESIAN_POINT('',(0.341441786534038,0.149360236220472,2.625));
#1098=CARTESIAN_POINT('Origin',(0.515434422872476,0.618110236220472,2.15625));
#1099=CARTESIAN_POINT('',(-0.591441786534036,0.149360236220472,2.625));
#1100=CARTESIAN_POINT('',(-0.062499999999999,0.149360236220472,2.625));
#1101=CARTESIAN_POINT('',(-0.765434422872474,0.118110236220472,2.65625));
#1102=CARTESIAN_POINT('Origin',(-0.765434422872474,0.618110236220472,2.15625));
#1103=CARTESIAN_POINT('',(-0.062499999999999,0.118110236220472,2.65625));
#1104=CARTESIAN_POINT('Origin',(-0.124999999999999,0.336860236220472,2.625));
#1105=CARTESIAN_POINT('',(0.0496639335106759,0.436292054402291,2.625));
#1106=CARTESIAN_POINT('Origin',(0.515434422872476,0.618110236220472,2.625));
#1107=CARTESIAN_POINT('',(-0.299663933510674,0.436292054402291,2.625));
#1108=CARTESIAN_POINT('Origin',(-0.124999999999999,0.368110236220472,2.625));
#1109=CARTESIAN_POINT('Origin',(-0.765434422872474,0.618110236220472,2.625));
#1110=CARTESIAN_POINT('',(-0.0389999999999991,0.368110236220472,2.625));
#1111=CARTESIAN_POINT('Origin',(-0.124999999999999,0.368110236220472,2.625));
#1112=CARTESIAN_POINT('Origin',(-0.124999999999999,0.368110236220472,2.5));
#1113=CARTESIAN_POINT('',(-0.0389999999999991,0.368110236220472,2.5));
#1114=CARTESIAN_POINT('Origin',(-0.124999999999999,0.368110236220472,2.5));
#1115=CARTESIAN_POINT('',(-0.299663933510674,0.436292054402291,2.5));
#1116=CARTESIAN_POINT('',(0.0496639335106759,0.436292054402291,2.5));
#1117=CARTESIAN_POINT('Origin',(0.515434422872476,0.618110236220472,2.5));
#1118=CARTESIAN_POINT('',(0.515434422872476,0.118110236220472,2.5));
#1119=CARTESIAN_POINT('Origin',(-0.765434422872474,0.618110236220472,2.5));
#1120=CARTESIAN_POINT('',(-0.765434422872474,0.118110236220472,2.5));
#1121=CARTESIAN_POINT('Origin',(-1.125,0.,2.75));
#1122=CARTESIAN_POINT('',(-1.125,0.118110236220472,2.75));
#1123=CARTESIAN_POINT('Origin',(5.24514814783538E-16,0.118110236220472,
3.49676543189026E-16));
#1124=UNCERTAINTY_MEASURE_WITH_UNIT(LENGTH_MEASURE(0.000393700787401575),
#1130,'DISTANCE_ACCURACY_VALUE',
'Maximum model space distance between geometric entities at asserted c
onnectivities');
#1125=UNCERTAINTY_MEASURE_WITH_UNIT(LENGTH_MEASURE(0.000393700787401575),
#1130,'DISTANCE_ACCURACY_VALUE',
'Maximum model space distance between geometric entities at asserted c
onnectivities');
#1126=(
GEOMETRIC_REPRESENTATION_CONTEXT(3)
GLOBAL_UNCERTAINTY_ASSIGNED_CONTEXT((#1124))
GLOBAL_UNIT_ASSIGNED_CONTEXT((#1130,#1134,#1135))
REPRESENTATION_CONTEXT('','3D')
);
#1127=(
GEOMETRIC_REPRESENTATION_CONTEXT(3)
GLOBAL_UNCERTAINTY_ASSIGNED_CONTEXT((#1125))
GLOBAL_UNIT_ASSIGNED_CONTEXT((#1130,#1134,#1135))
REPRESENTATION_CONTEXT('','3D')
);
#1128=DIMENSIONAL_EXPONENTS(1.,0.,0.,0.,0.,0.,0.);
#1129=DIMENSIONAL_EXPONENTS(0.,1.,0.,0.,0.,0.,0.);
#1130=(
CONVERSION_BASED_UNIT('inch',#1133)
LENGTH_UNIT()
NAMED_UNIT(#1128)
);
#1131=(
LENGTH_UNIT()
NAMED_UNIT(*)
SI_UNIT(.MILLI.,.METRE.)
);
#1132=(
LENGTH_UNIT()
NAMED_UNIT(*)
SI_UNIT(.CENTI.,.METRE.)
);
#1133=LENGTH_MEASURE_WITH_UNIT(LENGTH_MEASURE(25.4),#1131);
#1134=(
NAMED_UNIT(*)
PLANE_ANGLE_UNIT()
SI_UNIT($,.RADIAN.)
);
#1135=(
NAMED_UNIT(*)
SI_UNIT($,.STERADIAN.)
SOLID_ANGLE_UNIT()
);
#1136=SHAPE_DEFINITION_REPRESENTATION(#1137,#1138);
#1137=PRODUCT_DEFINITION_SHAPE('',$,#1140);
#1138=SHAPE_REPRESENTATION('',(#660),#1126);
#1139=PRODUCT_DEFINITION_CONTEXT('part definition',#1144,'design');
#1140=PRODUCT_DEFINITION('match_loader','match_loader',#1141,#1139);
#1141=PRODUCT_DEFINITION_FORMATION('',$,#1146);
#1142=PRODUCT_RELATED_PRODUCT_CATEGORY('match_loader','match_loader',(#1146));
#1143=APPLICATION_PROTOCOL_DEFINITION('international standard',
'automotive_design',2009,#1144);
#1144=APPLICATION_CONTEXT(
'Core Data for Automotive Mechanical Design Process');
#1145=PRODUCT_CONTEXT('part definition',#1144,'mechanical');
#1146=PRODUCT('match_loader','match_loader',$,(#1145));
#1147=PRESENTATION_STYLE_ASSIGNMENT((#1148));
#1148=SURFACE_STYLE_USAGE(.BOTH.,#1151);
#1149=SURFACE_STYLE_RENDERING_WITH_PROPERTIES($,#1155,(#1150));
#1150=SURFACE_STYLE_TRANSPARENT(0.);
#1151=SURFACE_SIDE_STYLE('',(#1152,#1149));
#1152=SURFACE_STYLE_FILL_AREA(#1153);
#1153=FILL_AREA_STYLE('',(#1154));
#1154=FILL_AREA_STYLE_COLOUR('',#1155);
#1155=COLOUR_RGB('',0.250980392156863,0.250980392156863,0.250980392156863);
ENDSEC;
END-ISO-10303-21;
