ISO-10303-21;
HEADER;
/* Generated by software containing ST-Developer
 * from STEP Tools, Inc. (www.steptools.com) 
 */

FILE_DESCRIPTION(
/* description */ (''),
/* implementation_level */ '2;1');

FILE_NAME(
/* name */ 'parkbar.stp',
/* time_stamp */ '2026-01-12T23:12:01+13:00',
/* author */ ('cloudy'),
/* organization */ (''),
/* preprocessor_version */ 'ST-DEVELOPER v20',
/* originating_system */ 'Autodesk Inventor 2025',
/* authorisation */ '');

FILE_SCHEMA (('AUTOMOTIVE_DESIGN { 1 0 10303 214 3 1 1 }'));
ENDSEC;

DATA;
#10=MECHANICAL_DESIGN_GEOMETRIC_PRESENTATION_REPRESENTATION('',(#13),#557);
#11=SHAPE_REPRESENTATION_RELATIONSHIP('SRR','None',#568,#12);
#12=ADVANCED_BREP_SHAPE_REPRESENTATION('',(#14),#556);
#13=STYLED_ITEM('',(#577),#14);
#14=MANIFOLD_SOLID_BREP('Solid1',#313);
#15=FACE_BOUND('',#60,.T.);
#16=FACE_BOUND('',#61,.T.);
#17=FACE_BOUND('',#62,.T.);
#18=FACE_BOUND('',#63,.T.);
#19=FACE_BOUND('',#65,.T.);
#20=FACE_BOUND('',#66,.T.);
#21=FACE_BOUND('',#67,.T.);
#22=FACE_BOUND('',#68,.T.);
#23=PLANE('',#350);
#24=PLANE('',#354);
#25=PLANE('',#358);
#26=PLANE('',#365);
#27=PLANE('',#369);
#28=PLANE('',#370);
#29=FACE_OUTER_BOUND('',#45,.T.);
#30=FACE_OUTER_BOUND('',#46,.T.);
#31=FACE_OUTER_BOUND('',#47,.T.);
#32=FACE_OUTER_BOUND('',#48,.T.);
#33=FACE_OUTER_BOUND('',#49,.T.);
#34=FACE_OUTER_BOUND('',#50,.T.);
#35=FACE_OUTER_BOUND('',#51,.T.);
#36=FACE_OUTER_BOUND('',#52,.T.);
#37=FACE_OUTER_BOUND('',#53,.T.);
#38=FACE_OUTER_BOUND('',#54,.T.);
#39=FACE_OUTER_BOUND('',#55,.T.);
#40=FACE_OUTER_BOUND('',#56,.T.);
#41=FACE_OUTER_BOUND('',#57,.T.);
#42=FACE_OUTER_BOUND('',#58,.T.);
#43=FACE_OUTER_BOUND('',#59,.T.);
#44=FACE_OUTER_BOUND('',#64,.T.);
#45=EDGE_LOOP('',(#203,#204,#205,#206));
#46=EDGE_LOOP('',(#207,#208,#209,#210));
#47=EDGE_LOOP('',(#211,#212,#213,#214));
#48=EDGE_LOOP('',(#215,#216,#217,#218));
#49=EDGE_LOOP('',(#219,#220,#221,#222));
#50=EDGE_LOOP('',(#223,#224,#225,#226));
#51=EDGE_LOOP('',(#227,#228,#229,#230));
#52=EDGE_LOOP('',(#231,#232,#233,#234));
#53=EDGE_LOOP('',(#235,#236,#237,#238));
#54=EDGE_LOOP('',(#239,#240,#241,#242));
#55=EDGE_LOOP('',(#243,#244,#245,#246));
#56=EDGE_LOOP('',(#247,#248,#249,#250));
#57=EDGE_LOOP('',(#251,#252,#253,#254));
#58=EDGE_LOOP('',(#255,#256,#257,#258));
#59=EDGE_LOOP('',(#259,#260,#261,#262,#263,#264,#265,#266,#267,#268));
#60=EDGE_LOOP('',(#269));
#61=EDGE_LOOP('',(#270));
#62=EDGE_LOOP('',(#271));
#63=EDGE_LOOP('',(#272));
#64=EDGE_LOOP('',(#273,#274,#275,#276,#277,#278,#279,#280,#281,#282));
#65=EDGE_LOOP('',(#283));
#66=EDGE_LOOP('',(#284));
#67=EDGE_LOOP('',(#285));
#68=EDGE_LOOP('',(#286));
#69=LINE('',#472,#91);
#70=LINE('',#478,#92);
#71=LINE('',#484,#93);
#72=LINE('',#490,#94);
#73=LINE('',#497,#95);
#74=LINE('',#500,#96);
#75=LINE('',#503,#97);
#76=LINE('',#505,#98);
#77=LINE('',#506,#99);
#78=LINE('',#512,#100);
#79=LINE('',#515,#101);
#80=LINE('',#517,#102);
#81=LINE('',#518,#103);
#82=LINE('',#524,#104);
#83=LINE('',#527,#105);
#84=LINE('',#529,#106);
#85=LINE('',#530,#107);
#86=LINE('',#536,#108);
#87=LINE('',#542,#109);
#88=LINE('',#545,#110);
#89=LINE('',#547,#111);
#90=LINE('',#548,#112);
#91=VECTOR('',#377,0.086);
#92=VECTOR('',#384,0.0860000000000005);
#93=VECTOR('',#391,0.0860000000000005);
#94=VECTOR('',#398,0.086);
#95=VECTOR('',#405,0.393700787401575);
#96=VECTOR('',#408,0.393700787401575);
#97=VECTOR('',#411,0.393700787401575);
#98=VECTOR('',#412,0.393700787401575);
#99=VECTOR('',#413,0.393700787401575);
#100=VECTOR('',#420,0.393700787401575);
#101=VECTOR('',#423,0.393700787401575);
#102=VECTOR('',#424,0.393700787401575);
#103=VECTOR('',#425,0.393700787401575);
#104=VECTOR('',#432,0.393700787401575);
#105=VECTOR('',#435,0.393700787401575);
#106=VECTOR('',#436,0.393700787401575);
#107=VECTOR('',#437,0.393700787401575);
#108=VECTOR('',#444,0.393700787401575);
#109=VECTOR('',#451,0.393700787401575);
#110=VECTOR('',#454,0.393700787401575);
#111=VECTOR('',#455,0.393700787401575);
#112=VECTOR('',#456,0.393700787401575);
#113=CIRCLE('',#336,0.086);
#114=CIRCLE('',#337,0.086);
#115=CIRCLE('',#339,0.0860000000000005);
#116=CIRCLE('',#340,0.0860000000000005);
#117=CIRCLE('',#342,0.0860000000000005);
#118=CIRCLE('',#343,0.0860000000000005);
#119=CIRCLE('',#345,0.086);
#120=CIRCLE('',#346,0.086);
#121=CIRCLE('',#348,0.25);
#122=CIRCLE('',#349,0.25);
#123=CIRCLE('',#352,0.25);
#124=CIRCLE('',#353,0.25);
#125=CIRCLE('',#356,0.249999999999999);
#126=CIRCLE('',#357,0.249999999999999);
#127=CIRCLE('',#360,0.25);
#128=CIRCLE('',#361,0.25);
#129=CIRCLE('',#363,2.);
#130=CIRCLE('',#364,2.);
#131=CIRCLE('',#367,2.);
#132=CIRCLE('',#368,2.);
#133=VERTEX_POINT('',#469);
#134=VERTEX_POINT('',#471);
#135=VERTEX_POINT('',#475);
#136=VERTEX_POINT('',#477);
#137=VERTEX_POINT('',#481);
#138=VERTEX_POINT('',#483);
#139=VERTEX_POINT('',#487);
#140=VERTEX_POINT('',#489);
#141=VERTEX_POINT('',#493);
#142=VERTEX_POINT('',#494);
#143=VERTEX_POINT('',#496);
#144=VERTEX_POINT('',#498);
#145=VERTEX_POINT('',#502);
#146=VERTEX_POINT('',#504);
#147=VERTEX_POINT('',#508);
#148=VERTEX_POINT('',#510);
#149=VERTEX_POINT('',#514);
#150=VERTEX_POINT('',#516);
#151=VERTEX_POINT('',#520);
#152=VERTEX_POINT('',#522);
#153=VERTEX_POINT('',#526);
#154=VERTEX_POINT('',#528);
#155=VERTEX_POINT('',#532);
#156=VERTEX_POINT('',#534);
#157=VERTEX_POINT('',#538);
#158=VERTEX_POINT('',#540);
#159=VERTEX_POINT('',#544);
#160=VERTEX_POINT('',#546);
#161=EDGE_CURVE('',#133,#133,#113,.T.);
#162=EDGE_CURVE('',#133,#134,#69,.T.);
#163=EDGE_CURVE('',#134,#134,#114,.T.);
#164=EDGE_CURVE('',#135,#135,#115,.T.);
#165=EDGE_CURVE('',#135,#136,#70,.T.);
#166=EDGE_CURVE('',#136,#136,#116,.T.);
#167=EDGE_CURVE('',#137,#137,#117,.T.);
#168=EDGE_CURVE('',#137,#138,#71,.T.);
#169=EDGE_CURVE('',#138,#138,#118,.T.);
#170=EDGE_CURVE('',#139,#139,#119,.T.);
#171=EDGE_CURVE('',#139,#140,#72,.T.);
#172=EDGE_CURVE('',#140,#140,#120,.T.);
#173=EDGE_CURVE('',#141,#142,#121,.T.);
#174=EDGE_CURVE('',#142,#143,#73,.T.);
#175=EDGE_CURVE('',#144,#143,#122,.T.);
#176=EDGE_CURVE('',#141,#144,#74,.T.);
#177=EDGE_CURVE('',#145,#141,#75,.T.);
#178=EDGE_CURVE('',#146,#144,#76,.T.);
#179=EDGE_CURVE('',#145,#146,#77,.T.);
#180=EDGE_CURVE('',#147,#145,#123,.T.);
#181=EDGE_CURVE('',#148,#146,#124,.T.);
#182=EDGE_CURVE('',#147,#148,#78,.T.);
#183=EDGE_CURVE('',#149,#147,#79,.T.);
#184=EDGE_CURVE('',#150,#148,#80,.T.);
#185=EDGE_CURVE('',#149,#150,#81,.T.);
#186=EDGE_CURVE('',#151,#149,#125,.T.);
#187=EDGE_CURVE('',#152,#150,#126,.T.);
#188=EDGE_CURVE('',#151,#152,#82,.T.);
#189=EDGE_CURVE('',#153,#151,#83,.T.);
#190=EDGE_CURVE('',#154,#152,#84,.T.);
#191=EDGE_CURVE('',#153,#154,#85,.T.);
#192=EDGE_CURVE('',#155,#153,#127,.T.);
#193=EDGE_CURVE('',#156,#154,#128,.T.);
#194=EDGE_CURVE('',#155,#156,#86,.T.);
#195=EDGE_CURVE('',#157,#155,#129,.T.);
#196=EDGE_CURVE('',#158,#156,#130,.T.);
#197=EDGE_CURVE('',#157,#158,#87,.T.);
#198=EDGE_CURVE('',#159,#157,#88,.T.);
#199=EDGE_CURVE('',#160,#158,#89,.T.);
#200=EDGE_CURVE('',#159,#160,#90,.T.);
#201=EDGE_CURVE('',#142,#159,#131,.T.);
#202=EDGE_CURVE('',#143,#160,#132,.T.);
#203=ORIENTED_EDGE('',*,*,#161,.F.);
#204=ORIENTED_EDGE('',*,*,#162,.T.);
#205=ORIENTED_EDGE('',*,*,#163,.T.);
#206=ORIENTED_EDGE('',*,*,#162,.F.);
#207=ORIENTED_EDGE('',*,*,#164,.F.);
#208=ORIENTED_EDGE('',*,*,#165,.T.);
#209=ORIENTED_EDGE('',*,*,#166,.T.);
#210=ORIENTED_EDGE('',*,*,#165,.F.);
#211=ORIENTED_EDGE('',*,*,#167,.F.);
#212=ORIENTED_EDGE('',*,*,#168,.T.);
#213=ORIENTED_EDGE('',*,*,#169,.T.);
#214=ORIENTED_EDGE('',*,*,#168,.F.);
#215=ORIENTED_EDGE('',*,*,#170,.F.);
#216=ORIENTED_EDGE('',*,*,#171,.T.);
#217=ORIENTED_EDGE('',*,*,#172,.T.);
#218=ORIENTED_EDGE('',*,*,#171,.F.);
#219=ORIENTED_EDGE('',*,*,#173,.T.);
#220=ORIENTED_EDGE('',*,*,#174,.T.);
#221=ORIENTED_EDGE('',*,*,#175,.F.);
#222=ORIENTED_EDGE('',*,*,#176,.F.);
#223=ORIENTED_EDGE('',*,*,#177,.T.);
#224=ORIENTED_EDGE('',*,*,#176,.T.);
#225=ORIENTED_EDGE('',*,*,#178,.F.);
#226=ORIENTED_EDGE('',*,*,#179,.F.);
#227=ORIENTED_EDGE('',*,*,#180,.T.);
#228=ORIENTED_EDGE('',*,*,#179,.T.);
#229=ORIENTED_EDGE('',*,*,#181,.F.);
#230=ORIENTED_EDGE('',*,*,#182,.F.);
#231=ORIENTED_EDGE('',*,*,#183,.T.);
#232=ORIENTED_EDGE('',*,*,#182,.T.);
#233=ORIENTED_EDGE('',*,*,#184,.F.);
#234=ORIENTED_EDGE('',*,*,#185,.F.);
#235=ORIENTED_EDGE('',*,*,#186,.T.);
#236=ORIENTED_EDGE('',*,*,#185,.T.);
#237=ORIENTED_EDGE('',*,*,#187,.F.);
#238=ORIENTED_EDGE('',*,*,#188,.F.);
#239=ORIENTED_EDGE('',*,*,#189,.T.);
#240=ORIENTED_EDGE('',*,*,#188,.T.);
#241=ORIENTED_EDGE('',*,*,#190,.F.);
#242=ORIENTED_EDGE('',*,*,#191,.F.);
#243=ORIENTED_EDGE('',*,*,#192,.T.);
#244=ORIENTED_EDGE('',*,*,#191,.T.);
#245=ORIENTED_EDGE('',*,*,#193,.F.);
#246=ORIENTED_EDGE('',*,*,#194,.F.);
#247=ORIENTED_EDGE('',*,*,#195,.T.);
#248=ORIENTED_EDGE('',*,*,#194,.T.);
#249=ORIENTED_EDGE('',*,*,#196,.F.);
#250=ORIENTED_EDGE('',*,*,#197,.F.);
#251=ORIENTED_EDGE('',*,*,#198,.T.);
#252=ORIENTED_EDGE('',*,*,#197,.T.);
#253=ORIENTED_EDGE('',*,*,#199,.F.);
#254=ORIENTED_EDGE('',*,*,#200,.F.);
#255=ORIENTED_EDGE('',*,*,#201,.T.);
#256=ORIENTED_EDGE('',*,*,#200,.T.);
#257=ORIENTED_EDGE('',*,*,#202,.F.);
#258=ORIENTED_EDGE('',*,*,#174,.F.);
#259=ORIENTED_EDGE('',*,*,#202,.T.);
#260=ORIENTED_EDGE('',*,*,#199,.T.);
#261=ORIENTED_EDGE('',*,*,#196,.T.);
#262=ORIENTED_EDGE('',*,*,#193,.T.);
#263=ORIENTED_EDGE('',*,*,#190,.T.);
#264=ORIENTED_EDGE('',*,*,#187,.T.);
#265=ORIENTED_EDGE('',*,*,#184,.T.);
#266=ORIENTED_EDGE('',*,*,#181,.T.);
#267=ORIENTED_EDGE('',*,*,#178,.T.);
#268=ORIENTED_EDGE('',*,*,#175,.T.);
#269=ORIENTED_EDGE('',*,*,#170,.T.);
#270=ORIENTED_EDGE('',*,*,#167,.T.);
#271=ORIENTED_EDGE('',*,*,#164,.T.);
#272=ORIENTED_EDGE('',*,*,#161,.T.);
#273=ORIENTED_EDGE('',*,*,#201,.F.);
#274=ORIENTED_EDGE('',*,*,#173,.F.);
#275=ORIENTED_EDGE('',*,*,#177,.F.);
#276=ORIENTED_EDGE('',*,*,#180,.F.);
#277=ORIENTED_EDGE('',*,*,#183,.F.);
#278=ORIENTED_EDGE('',*,*,#186,.F.);
#279=ORIENTED_EDGE('',*,*,#189,.F.);
#280=ORIENTED_EDGE('',*,*,#192,.F.);
#281=ORIENTED_EDGE('',*,*,#195,.F.);
#282=ORIENTED_EDGE('',*,*,#198,.F.);
#283=ORIENTED_EDGE('',*,*,#172,.F.);
#284=ORIENTED_EDGE('',*,*,#169,.F.);
#285=ORIENTED_EDGE('',*,*,#166,.F.);
#286=ORIENTED_EDGE('',*,*,#163,.F.);
#287=CYLINDRICAL_SURFACE('',#335,0.086);
#288=CYLINDRICAL_SURFACE('',#338,0.0860000000000005);
#289=CYLINDRICAL_SURFACE('',#341,0.0860000000000005);
#290=CYLINDRICAL_SURFACE('',#344,0.086);
#291=CYLINDRICAL_SURFACE('',#347,0.25);
#292=CYLINDRICAL_SURFACE('',#351,0.25);
#293=CYLINDRICAL_SURFACE('',#355,0.249999999999999);
#294=CYLINDRICAL_SURFACE('',#359,0.25);
#295=CYLINDRICAL_SURFACE('',#362,2.);
#296=CYLINDRICAL_SURFACE('',#366,2.);
#297=ADVANCED_FACE('',(#29),#287,.F.);
#298=ADVANCED_FACE('',(#30),#288,.F.);
#299=ADVANCED_FACE('',(#31),#289,.F.);
#300=ADVANCED_FACE('',(#32),#290,.F.);
#301=ADVANCED_FACE('',(#33),#291,.T.);
#302=ADVANCED_FACE('',(#34),#23,.T.);
#303=ADVANCED_FACE('',(#35),#292,.T.);
#304=ADVANCED_FACE('',(#36),#24,.T.);
#305=ADVANCED_FACE('',(#37),#293,.T.);
#306=ADVANCED_FACE('',(#38),#25,.T.);
#307=ADVANCED_FACE('',(#39),#294,.T.);
#308=ADVANCED_FACE('',(#40),#295,.F.);
#309=ADVANCED_FACE('',(#41),#26,.T.);
#310=ADVANCED_FACE('',(#42),#296,.F.);
#311=ADVANCED_FACE('',(#43,#15,#16,#17,#18),#27,.T.);
#312=ADVANCED_FACE('',(#44,#19,#20,#21,#22),#28,.F.);
#313=CLOSED_SHELL('',(#297,#298,#299,#300,#301,#302,#303,#304,#305,#306,
#307,#308,#309,#310,#311,#312));
#314=DERIVED_UNIT_ELEMENT(#316,1.);
#315=DERIVED_UNIT_ELEMENT(#562,-3.);
#316=(
CONVERSION_BASED_UNIT('gram',#318)
MASS_UNIT()
NAMED_UNIT(#559)
);
#317=(
MASS_UNIT()
NAMED_UNIT(*)
SI_UNIT(.KILO.,.GRAM.)
);
#318=MASS_MEASURE_WITH_UNIT(MASS_MEASURE(0.001),#317);
#319=DERIVED_UNIT((#314,#315));
#320=MEASURE_REPRESENTATION_ITEM('density measure',
POSITIVE_RATIO_MEASURE(1.),#319);
#321=PROPERTY_DEFINITION_REPRESENTATION(#326,#323);
#322=PROPERTY_DEFINITION_REPRESENTATION(#327,#324);
#323=REPRESENTATION('material name',(#325),#556);
#324=REPRESENTATION('density',(#320),#556);
#325=DESCRIPTIVE_REPRESENTATION_ITEM('Generic','Generic');
#326=PROPERTY_DEFINITION('material property','material name',#570);
#327=PROPERTY_DEFINITION('material property','density of part',#570);
#328=DATE_TIME_ROLE('creation_date');
#329=APPLIED_DATE_AND_TIME_ASSIGNMENT(#330,#328,(#570));
#330=DATE_AND_TIME(#331,#332);
#331=CALENDAR_DATE(2025,10,12);
#332=LOCAL_TIME(0,0,0.,#333);
#333=COORDINATED_UNIVERSAL_TIME_OFFSET(0,0,.BEHIND.);
#334=AXIS2_PLACEMENT_3D('',#467,#371,#372);
#335=AXIS2_PLACEMENT_3D('',#468,#373,#374);
#336=AXIS2_PLACEMENT_3D('',#470,#375,#376);
#337=AXIS2_PLACEMENT_3D('',#473,#378,#379);
#338=AXIS2_PLACEMENT_3D('',#474,#380,#381);
#339=AXIS2_PLACEMENT_3D('',#476,#382,#383);
#340=AXIS2_PLACEMENT_3D('',#479,#385,#386);
#341=AXIS2_PLACEMENT_3D('',#480,#387,#388);
#342=AXIS2_PLACEMENT_3D('',#482,#389,#390);
#343=AXIS2_PLACEMENT_3D('',#485,#392,#393);
#344=AXIS2_PLACEMENT_3D('',#486,#394,#395);
#345=AXIS2_PLACEMENT_3D('',#488,#396,#397);
#346=AXIS2_PLACEMENT_3D('',#491,#399,#400);
#347=AXIS2_PLACEMENT_3D('',#492,#401,#402);
#348=AXIS2_PLACEMENT_3D('',#495,#403,#404);
#349=AXIS2_PLACEMENT_3D('',#499,#406,#407);
#350=AXIS2_PLACEMENT_3D('',#501,#409,#410);
#351=AXIS2_PLACEMENT_3D('',#507,#414,#415);
#352=AXIS2_PLACEMENT_3D('',#509,#416,#417);
#353=AXIS2_PLACEMENT_3D('',#511,#418,#419);
#354=AXIS2_PLACEMENT_3D('',#513,#421,#422);
#355=AXIS2_PLACEMENT_3D('',#519,#426,#427);
#356=AXIS2_PLACEMENT_3D('',#521,#428,#429);
#357=AXIS2_PLACEMENT_3D('',#523,#430,#431);
#358=AXIS2_PLACEMENT_3D('',#525,#433,#434);
#359=AXIS2_PLACEMENT_3D('',#531,#438,#439);
#360=AXIS2_PLACEMENT_3D('',#533,#440,#441);
#361=AXIS2_PLACEMENT_3D('',#535,#442,#443);
#362=AXIS2_PLACEMENT_3D('',#537,#445,#446);
#363=AXIS2_PLACEMENT_3D('',#539,#447,#448);
#364=AXIS2_PLACEMENT_3D('',#541,#449,#450);
#365=AXIS2_PLACEMENT_3D('',#543,#452,#453);
#366=AXIS2_PLACEMENT_3D('',#549,#457,#458);
#367=AXIS2_PLACEMENT_3D('',#550,#459,#460);
#368=AXIS2_PLACEMENT_3D('',#551,#461,#462);
#369=AXIS2_PLACEMENT_3D('',#552,#463,#464);
#370=AXIS2_PLACEMENT_3D('',#553,#465,#466);
#371=DIRECTION('axis',(0.,0.,1.));
#372=DIRECTION('refdir',(1.,0.,0.));
#373=DIRECTION('center_axis',(0.,0.,1.));
#374=DIRECTION('ref_axis',(-1.,0.,0.));
#375=DIRECTION('center_axis',(0.,0.,-1.));
#376=DIRECTION('ref_axis',(-1.,0.,0.));
#377=DIRECTION('',(0.,0.,-1.));
#378=DIRECTION('center_axis',(0.,0.,-1.));
#379=DIRECTION('ref_axis',(-1.,0.,0.));
#380=DIRECTION('center_axis',(0.,0.,1.));
#381=DIRECTION('ref_axis',(-1.,0.,0.));
#382=DIRECTION('center_axis',(0.,0.,-1.));
#383=DIRECTION('ref_axis',(-1.,0.,0.));
#384=DIRECTION('',(0.,0.,-1.));
#385=DIRECTION('center_axis',(0.,0.,-1.));
#386=DIRECTION('ref_axis',(-1.,0.,0.));
#387=DIRECTION('center_axis',(0.,0.,1.));
#388=DIRECTION('ref_axis',(-1.,0.,0.));
#389=DIRECTION('center_axis',(0.,0.,-1.));
#390=DIRECTION('ref_axis',(-1.,0.,0.));
#391=DIRECTION('',(0.,0.,-1.));
#392=DIRECTION('center_axis',(0.,0.,-1.));
#393=DIRECTION('ref_axis',(-1.,0.,0.));
#394=DIRECTION('center_axis',(0.,0.,1.));
#395=DIRECTION('ref_axis',(-1.,0.,0.));
#396=DIRECTION('center_axis',(0.,0.,-1.));
#397=DIRECTION('ref_axis',(-1.,0.,0.));
#398=DIRECTION('',(0.,0.,-1.));
#399=DIRECTION('center_axis',(0.,0.,-1.));
#400=DIRECTION('ref_axis',(-1.,0.,0.));
#401=DIRECTION('center_axis',(0.,0.,1.));
#402=DIRECTION('ref_axis',(1.,0.,0.));
#403=DIRECTION('center_axis',(0.,0.,1.));
#404=DIRECTION('ref_axis',(1.,0.,0.));
#405=DIRECTION('',(0.,0.,1.));
#406=DIRECTION('center_axis',(0.,0.,1.));
#407=DIRECTION('ref_axis',(1.,0.,0.));
#408=DIRECTION('',(0.,0.,1.));
#409=DIRECTION('center_axis',(1.,1.39870617016433E-15,0.));
#410=DIRECTION('ref_axis',(-1.39870617016433E-15,1.,0.));
#411=DIRECTION('',(-1.39870617016433E-15,1.,0.));
#412=DIRECTION('',(-1.39870617016433E-15,1.,0.));
#413=DIRECTION('',(0.,0.,1.));
#414=DIRECTION('center_axis',(0.,0.,1.));
#415=DIRECTION('ref_axis',(-6.99353086378052E-16,-1.,0.));
#416=DIRECTION('center_axis',(0.,0.,1.));
#417=DIRECTION('ref_axis',(-6.99353086378052E-16,-1.,0.));
#418=DIRECTION('center_axis',(0.,0.,1.));
#419=DIRECTION('ref_axis',(-6.99353086378052E-16,-1.,0.));
#420=DIRECTION('',(0.,0.,1.));
#421=DIRECTION('center_axis',(1.24329437656082E-16,-1.,0.));
#422=DIRECTION('ref_axis',(1.,1.24329437656082E-16,0.));
#423=DIRECTION('',(1.,1.24329437656082E-16,0.));
#424=DIRECTION('',(1.,1.24329437656082E-16,0.));
#425=DIRECTION('',(0.,0.,1.));
#426=DIRECTION('center_axis',(0.,0.,1.));
#427=DIRECTION('ref_axis',(-1.,2.79741234551221E-15,0.));
#428=DIRECTION('center_axis',(0.,0.,1.));
#429=DIRECTION('ref_axis',(-1.,2.79741234551221E-15,0.));
#430=DIRECTION('center_axis',(0.,0.,1.));
#431=DIRECTION('ref_axis',(-1.,2.79741234551221E-15,0.));
#432=DIRECTION('',(0.,0.,1.));
#433=DIRECTION('center_axis',(-1.,1.3987061727561E-15,0.));
#434=DIRECTION('ref_axis',(-1.3987061727561E-15,-1.,0.));
#435=DIRECTION('',(-1.3987061727561E-15,-1.,0.));
#436=DIRECTION('',(-1.3987061727561E-15,-1.,0.));
#437=DIRECTION('',(0.,0.,1.));
#438=DIRECTION('center_axis',(0.,0.,1.));
#439=DIRECTION('ref_axis',(0.628539361054704,0.777777777777781,0.));
#440=DIRECTION('center_axis',(0.,0.,1.));
#441=DIRECTION('ref_axis',(0.628539361054704,0.777777777777781,0.));
#442=DIRECTION('center_axis',(0.,0.,1.));
#443=DIRECTION('ref_axis',(0.628539361054704,0.777777777777781,0.));
#444=DIRECTION('',(0.,0.,1.));
#445=DIRECTION('center_axis',(0.,0.,1.));
#446=DIRECTION('ref_axis',(0.628539361054709,0.777777777777778,0.));
#447=DIRECTION('center_axis',(0.,0.,-1.));
#448=DIRECTION('ref_axis',(0.628539361054709,0.777777777777778,0.));
#449=DIRECTION('center_axis',(0.,0.,-1.));
#450=DIRECTION('ref_axis',(0.628539361054709,0.777777777777778,0.));
#451=DIRECTION('',(0.,0.,1.));
#452=DIRECTION('center_axis',(-2.50075044971278E-16,1.,0.));
#453=DIRECTION('ref_axis',(-1.,-2.50075044971278E-16,0.));
#454=DIRECTION('',(-1.,-2.50075044971278E-16,0.));
#455=DIRECTION('',(-1.,-2.50075044971278E-16,0.));
#456=DIRECTION('',(0.,0.,1.));
#457=DIRECTION('center_axis',(0.,0.,1.));
#458=DIRECTION('ref_axis',(-2.62257407391769E-16,1.,0.));
#459=DIRECTION('center_axis',(0.,0.,-1.));
#460=DIRECTION('ref_axis',(-2.62257407391769E-16,1.,0.));
#461=DIRECTION('center_axis',(0.,0.,-1.));
#462=DIRECTION('ref_axis',(-2.62257407391769E-16,1.,0.));
#463=DIRECTION('center_axis',(0.,0.,1.));
#464=DIRECTION('ref_axis',(1.,0.,0.));
#465=DIRECTION('center_axis',(0.,0.,1.));
#466=DIRECTION('ref_axis',(1.,0.,0.));
#467=CARTESIAN_POINT('',(0.,0.,0.));
#468=CARTESIAN_POINT('Origin',(0.500000000000004,-1.24999999999999,0.));
#469=CARTESIAN_POINT('',(0.586000000000004,-1.24999999999999,0.25));
#470=CARTESIAN_POINT('Origin',(0.500000000000004,-1.24999999999999,0.25));
#471=CARTESIAN_POINT('',(0.586000000000004,-1.24999999999999,0.));
#472=CARTESIAN_POINT('',(0.586000000000004,-1.24999999999999,0.));
#473=CARTESIAN_POINT('Origin',(0.500000000000004,-1.24999999999999,0.));
#474=CARTESIAN_POINT('Origin',(-5.12499999648185,-1.25000000092648,0.));
#475=CARTESIAN_POINT('',(-5.03899999648185,-1.25000000092648,0.25));
#476=CARTESIAN_POINT('Origin',(-5.12499999648185,-1.25000000092648,0.25));
#477=CARTESIAN_POINT('',(-5.03899999648185,-1.25000000092648,0.));
#478=CARTESIAN_POINT('',(-5.03899999648185,-1.25000000092648,0.));
#479=CARTESIAN_POINT('Origin',(-5.12499999648185,-1.25000000092648,0.));
#480=CARTESIAN_POINT('Origin',(-5.12499999648186,-0.750000000926482,0.));
#481=CARTESIAN_POINT('',(-5.03899999648185,-0.750000000926482,0.25));
#482=CARTESIAN_POINT('Origin',(-5.12499999648186,-0.750000000926482,0.25));
#483=CARTESIAN_POINT('',(-5.03899999648185,-0.750000000926482,0.));
#484=CARTESIAN_POINT('',(-5.03899999648185,-0.750000000926482,0.));
#485=CARTESIAN_POINT('Origin',(-5.12499999648186,-0.750000000926482,0.));
#486=CARTESIAN_POINT('Origin',(0.500000000000003,-0.749999999999992,0.));
#487=CARTESIAN_POINT('',(0.586000000000003,-0.749999999999992,0.25));
#488=CARTESIAN_POINT('Origin',(0.500000000000003,-0.749999999999992,0.25));
#489=CARTESIAN_POINT('',(0.586000000000003,-0.749999999999992,0.));
#490=CARTESIAN_POINT('',(0.586000000000003,-0.749999999999992,0.));
#491=CARTESIAN_POINT('Origin',(0.500000000000003,-0.749999999999992,0.));
#492=CARTESIAN_POINT('Origin',(0.500000000000003,-0.749999999999992,0.));
#493=CARTESIAN_POINT('',(0.750000000000003,-0.749999999999992,0.));
#494=CARTESIAN_POINT('',(0.34286515960894,-0.555555555658491,0.));
#495=CARTESIAN_POINT('Origin',(0.500000000000003,-0.749999999999992,0.));
#496=CARTESIAN_POINT('',(0.34286515960894,-0.555555555658491,0.25));
#497=CARTESIAN_POINT('',(0.34286515960894,-0.555555555658491,0.));
#498=CARTESIAN_POINT('',(0.750000000000003,-0.749999999999992,0.25));
#499=CARTESIAN_POINT('Origin',(0.500000000000003,-0.749999999999992,0.25));
#500=CARTESIAN_POINT('',(0.750000000000003,-0.749999999999992,0.));
#501=CARTESIAN_POINT('Origin',(0.750000000000004,-1.25000000092648,0.));
#502=CARTESIAN_POINT('',(0.750000000000004,-1.25000000092648,0.));
#503=CARTESIAN_POINT('',(0.750000000000004,-1.25000000092648,0.));
#504=CARTESIAN_POINT('',(0.750000000000004,-1.25000000092648,0.25));
#505=CARTESIAN_POINT('',(0.750000000000004,-1.25000000092648,0.25));
#506=CARTESIAN_POINT('',(0.750000000000004,-1.25000000092648,0.));
#507=CARTESIAN_POINT('Origin',(0.500000000000004,-1.25000000092648,0.));
#508=CARTESIAN_POINT('',(0.500000000000004,-1.50000000092648,0.));
#509=CARTESIAN_POINT('Origin',(0.500000000000004,-1.25000000092648,0.));
#510=CARTESIAN_POINT('',(0.500000000000004,-1.50000000092648,0.25));
#511=CARTESIAN_POINT('Origin',(0.500000000000004,-1.25000000092648,0.25));
#512=CARTESIAN_POINT('',(0.500000000000004,-1.50000000092648,0.));
#513=CARTESIAN_POINT('Origin',(-5.12499999648186,-1.50000000092648,0.));
#514=CARTESIAN_POINT('',(-5.12499999648186,-1.50000000092648,0.));
#515=CARTESIAN_POINT('',(-5.12499999648186,-1.50000000092648,0.));
#516=CARTESIAN_POINT('',(-5.12499999648186,-1.50000000092648,0.25));
#517=CARTESIAN_POINT('',(-5.12499999648186,-1.50000000092648,0.25));
#518=CARTESIAN_POINT('',(-5.12499999648186,-1.50000000092648,0.));
#519=CARTESIAN_POINT('Origin',(-5.12499999648186,-1.25000000092648,0.));
#520=CARTESIAN_POINT('',(-5.37499999648186,-1.25000000092648,0.));
#521=CARTESIAN_POINT('Origin',(-5.12499999648186,-1.25000000092648,0.));
#522=CARTESIAN_POINT('',(-5.37499999648186,-1.25000000092648,0.25));
#523=CARTESIAN_POINT('Origin',(-5.12499999648186,-1.25000000092648,0.25));
#524=CARTESIAN_POINT('',(-5.37499999648186,-1.25000000092648,0.));
#525=CARTESIAN_POINT('Origin',(-5.37499999648186,-0.750000000926481,0.));
#526=CARTESIAN_POINT('',(-5.37499999648186,-0.750000000926481,0.));
#527=CARTESIAN_POINT('',(-5.37499999648186,-0.750000000926481,0.));
#528=CARTESIAN_POINT('',(-5.37499999648186,-0.750000000926481,0.25));
#529=CARTESIAN_POINT('',(-5.37499999648186,-0.750000000926481,0.25));
#530=CARTESIAN_POINT('',(-5.37499999648186,-0.750000000926481,0.));
#531=CARTESIAN_POINT('Origin',(-5.12499999648186,-0.750000000926482,0.));
#532=CARTESIAN_POINT('',(-4.96786515621818,-0.555555556482037,0.));
#533=CARTESIAN_POINT('Origin',(-5.12499999648186,-0.750000000926482,0.));
#534=CARTESIAN_POINT('',(-4.96786515621818,-0.555555556482037,0.25));
#535=CARTESIAN_POINT('Origin',(-5.12499999648186,-0.750000000926482,0.25));
#536=CARTESIAN_POINT('',(-4.96786515621818,-0.555555556482037,0.));
#537=CARTESIAN_POINT('Origin',(-3.71078643410876,0.999999999073518,0.));
#538=CARTESIAN_POINT('',(-3.71078643410876,-1.00000000092648,0.));
#539=CARTESIAN_POINT('Origin',(-3.71078643410876,0.999999999073518,0.));
#540=CARTESIAN_POINT('',(-3.71078643410876,-1.00000000092648,0.25));
#541=CARTESIAN_POINT('Origin',(-3.71078643410876,0.999999999073518,0.25));
#542=CARTESIAN_POINT('',(-3.71078643410876,-1.00000000092648,0.));
#543=CARTESIAN_POINT('Origin',(-0.914213563519563,-1.00000000092648,0.));
#544=CARTESIAN_POINT('',(-0.914213563519563,-1.00000000092648,0.));
#545=CARTESIAN_POINT('',(-0.914213563519563,-1.00000000092648,0.));
#546=CARTESIAN_POINT('',(-0.914213563519563,-1.00000000092648,0.25));
#547=CARTESIAN_POINT('',(-0.914213563519563,-1.00000000092648,0.25));
#548=CARTESIAN_POINT('',(-0.914213563519563,-1.00000000092648,0.));
#549=CARTESIAN_POINT('Origin',(-0.914213563519564,0.999999999073519,0.));
#550=CARTESIAN_POINT('Origin',(-0.914213563519564,0.999999999073519,0.));
#551=CARTESIAN_POINT('Origin',(-0.914213563519564,0.999999999073519,0.25));
#552=CARTESIAN_POINT('Origin',(-2.31249999824093,-1.00000000046324,0.25));
#553=CARTESIAN_POINT('Origin',(-2.31249999824093,-1.00000000046324,0.));
#554=UNCERTAINTY_MEASURE_WITH_UNIT(LENGTH_MEASURE(0.000393700787401575),
#560,'DISTANCE_ACCURACY_VALUE',
'Maximum model space distance between geometric entities at asserted c
onnectivities');
#555=UNCERTAINTY_MEASURE_WITH_UNIT(LENGTH_MEASURE(0.000393700787401575),
#560,'DISTANCE_ACCURACY_VALUE',
'Maximum model space distance between geometric entities at asserted c
onnectivities');
#556=(
GEOMETRIC_REPRESENTATION_CONTEXT(3)
GLOBAL_UNCERTAINTY_ASSIGNED_CONTEXT((#554))
GLOBAL_UNIT_ASSIGNED_CONTEXT((#560,#564,#565))
REPRESENTATION_CONTEXT('','3D')
);
#557=(
GEOMETRIC_REPRESENTATION_CONTEXT(3)
GLOBAL_UNCERTAINTY_ASSIGNED_CONTEXT((#555))
GLOBAL_UNIT_ASSIGNED_CONTEXT((#560,#564,#565))
REPRESENTATION_CONTEXT('','3D')
);
#558=DIMENSIONAL_EXPONENTS(1.,0.,0.,0.,0.,0.,0.);
#559=DIMENSIONAL_EXPONENTS(0.,1.,0.,0.,0.,0.,0.);
#560=(
CONVERSION_BASED_UNIT('inch',#563)
LENGTH_UNIT()
NAMED_UNIT(#558)
);
#561=(
LENGTH_UNIT()
NAMED_UNIT(*)
SI_UNIT(.MILLI.,.METRE.)
);
#562=(
LENGTH_UNIT()
NAMED_UNIT(*)
SI_UNIT(.CENTI.,.METRE.)
);
#563=LENGTH_MEASURE_WITH_UNIT(LENGTH_MEASURE(25.4),#561);
#564=(
NAMED_UNIT(*)
PLANE_ANGLE_UNIT()
SI_UNIT($,.RADIAN.)
);
#565=(
NAMED_UNIT(*)
SI_UNIT($,.STERADIAN.)
SOLID_ANGLE_UNIT()
);
#566=SHAPE_DEFINITION_REPRESENTATION(#567,#568);
#567=PRODUCT_DEFINITION_SHAPE('',$,#570);
#568=SHAPE_REPRESENTATION('',(#334),#556);
#569=PRODUCT_DEFINITION_CONTEXT('part definition',#574,'design');
#570=PRODUCT_DEFINITION('parkbar','parkbar',#571,#569);
#571=PRODUCT_DEFINITION_FORMATION('',$,#576);
#572=PRODUCT_RELATED_PRODUCT_CATEGORY('parkbar','parkbar',(#576));
#573=APPLICATION_PROTOCOL_DEFINITION('international standard',
'automotive_design',2009,#574);
#574=APPLICATION_CONTEXT(
'Core Data for Automotive Mechanical Design Process');
#575=PRODUCT_CONTEXT('part definition',#574,'mechanical');
#576=PRODUCT('parkbar','parkbar',$,(#575));
#577=PRESENTATION_STYLE_ASSIGNMENT((#578));
#578=SURFACE_STYLE_USAGE(.BOTH.,#581);
#579=SURFACE_STYLE_RENDERING_WITH_PROPERTIES($,#585,(#580));
#580=SURFACE_STYLE_TRANSPARENT(0.);
#581=SURFACE_SIDE_STYLE('',(#582,#579));
#582=SURFACE_STYLE_FILL_AREA(#583);
#583=FILL_AREA_STYLE('',(#584));
#584=FILL_AREA_STYLE_COLOUR('',#585);
#585=COLOUR_RGB('',0.250980392156863,0.250980392156863,0.250980392156863);
ENDSEC;
END-ISO-10303-21;
