ISO-10303-21;
HEADER;
/* Generated by software containing ST-Developer
 * from STEP Tools, Inc. (www.steptools.com) 
 */

FILE_DESCRIPTION(
/* description */ (''),
/* implementation_level */ '2;1');

FILE_NAME(
/* name */ 'ramp.stp',
/* time_stamp */ '2026-01-12T21:11:15+13:00',
/* author */ ('cloudy'),
/* organization */ (''),
/* preprocessor_version */ 'ST-DEVELOPER v20',
/* originating_system */ 'Autodesk Inventor 2025',
/* authorisation */ '');

FILE_SCHEMA (('AUTOMOTIVE_DESIGN { 1 0 10303 214 3 1 1 }'));
ENDSEC;

DATA;
#10=MECHANICAL_DESIGN_GEOMETRIC_PRESENTATION_REPRESENTATION('',(#13),#1827);
#11=SHAPE_REPRESENTATION_RELATIONSHIP('SRR','None',#1838,#12);
#12=ADVANCED_BREP_SHAPE_REPRESENTATION('',(#14),#1826);
#13=STYLED_ITEM('',(#1847),#14);
#14=MANIFOLD_SOLID_BREP('Solid1',#1059);
#15=FACE_BOUND('',#128,.T.);
#16=FACE_BOUND('',#129,.T.);
#17=FACE_BOUND('',#130,.T.);
#18=FACE_BOUND('',#131,.T.);
#19=FACE_BOUND('',#132,.T.);
#20=FACE_BOUND('',#133,.T.);
#21=FACE_BOUND('',#134,.T.);
#22=FACE_BOUND('',#135,.T.);
#23=FACE_BOUND('',#138,.T.);
#24=FACE_BOUND('',#139,.T.);
#25=FACE_BOUND('',#140,.T.);
#26=FACE_BOUND('',#141,.T.);
#27=FACE_BOUND('',#142,.T.);
#28=FACE_BOUND('',#143,.T.);
#29=FACE_BOUND('',#144,.T.);
#30=FACE_BOUND('',#145,.T.);
#31=FACE_BOUND('',#156,.T.);
#32=FACE_BOUND('',#158,.T.);
#33=FACE_BOUND('',#164,.T.);
#34=FACE_BOUND('',#175,.T.);
#35=ELLIPSE('',#1095,0.182296511574264,0.125);
#36=ELLIPSE('',#1148,0.182296511574264,0.125);
#37=B_SPLINE_CURVE_WITH_KNOTS('',3,(#1507,#1508,#1509,#1510,#1511,#1512,
#1513,#1514,#1515,#1516),.UNSPECIFIED.,.F.,.F.,(4,2,2,2,4),(0.517435765236447,
0.637991405701023,0.7585470461656,0.882242871660908,1.00593869715622),
 .UNSPECIFIED.);
#38=B_SPLINE_CURVE_WITH_KNOTS('',3,(#1519,#1520,#1521,#1522,#1523,#1524,
#1525,#1526,#1527,#1528),.UNSPECIFIED.,.F.,.F.,(4,2,2,2,4),(0.,0.123875050841772,
0.247750101683543,0.368636258804685,0.489522415925826),.UNSPECIFIED.);
#39=B_SPLINE_CURVE_WITH_KNOTS('',3,(#1725,#1726,#1727,#1728,#1729,#1730,
#1731,#1732,#1733,#1734),.UNSPECIFIED.,.F.,.F.,(4,2,2,2,4),(0.513776938358034,
0.634663095479175,0.755549252600316,0.879424303442088,1.00329935428386),
 .UNSPECIFIED.);
#40=B_SPLINE_CURVE_WITH_KNOTS('',3,(#1735,#1736,#1737,#1738,#1739,#1740,
#1741,#1742,#1743,#1744),.UNSPECIFIED.,.F.,.F.,(4,2,2,2,4),(0.,0.123695825495308,
0.247391650990616,0.367947291455192,0.488502931919768),.UNSPECIFIED.);
#41=PLANE('',#1087);
#42=PLANE('',#1096);
#43=PLANE('',#1110);
#44=PLANE('',#1111);
#45=PLANE('',#1124);
#46=PLANE('',#1125);
#47=PLANE('',#1126);
#48=PLANE('',#1127);
#49=PLANE('',#1130);
#50=PLANE('',#1131);
#51=PLANE('',#1135);
#52=PLANE('',#1139);
#53=PLANE('',#1140);
#54=PLANE('',#1141);
#55=PLANE('',#1149);
#56=PLANE('',#1154);
#57=PLANE('',#1155);
#58=PLANE('',#1156);
#59=PLANE('',#1157);
#60=PLANE('',#1160);
#61=PLANE('',#1161);
#62=PLANE('',#1164);
#63=PLANE('',#1165);
#64=PLANE('',#1167);
#65=PLANE('',#1169);
#66=PLANE('',#1176);
#67=PLANE('',#1179);
#68=PLANE('',#1181);
#69=FACE_OUTER_BOUND('',#121,.T.);
#70=FACE_OUTER_BOUND('',#122,.T.);
#71=FACE_OUTER_BOUND('',#123,.T.);
#72=FACE_OUTER_BOUND('',#124,.T.);
#73=FACE_OUTER_BOUND('',#125,.T.);
#74=FACE_OUTER_BOUND('',#126,.T.);
#75=FACE_OUTER_BOUND('',#127,.T.);
#76=FACE_OUTER_BOUND('',#136,.T.);
#77=FACE_OUTER_BOUND('',#137,.T.);
#78=FACE_OUTER_BOUND('',#146,.T.);
#79=FACE_OUTER_BOUND('',#147,.T.);
#80=FACE_OUTER_BOUND('',#148,.T.);
#81=FACE_OUTER_BOUND('',#149,.T.);
#82=FACE_OUTER_BOUND('',#150,.T.);
#83=FACE_OUTER_BOUND('',#151,.T.);
#84=FACE_OUTER_BOUND('',#152,.T.);
#85=FACE_OUTER_BOUND('',#153,.T.);
#86=FACE_OUTER_BOUND('',#154,.T.);
#87=FACE_OUTER_BOUND('',#155,.T.);
#88=FACE_OUTER_BOUND('',#157,.T.);
#89=FACE_OUTER_BOUND('',#159,.T.);
#90=FACE_OUTER_BOUND('',#160,.T.);
#91=FACE_OUTER_BOUND('',#161,.T.);
#92=FACE_OUTER_BOUND('',#162,.T.);
#93=FACE_OUTER_BOUND('',#163,.T.);
#94=FACE_OUTER_BOUND('',#165,.T.);
#95=FACE_OUTER_BOUND('',#166,.T.);
#96=FACE_OUTER_BOUND('',#167,.T.);
#97=FACE_OUTER_BOUND('',#168,.T.);
#98=FACE_OUTER_BOUND('',#169,.T.);
#99=FACE_OUTER_BOUND('',#170,.T.);
#100=FACE_OUTER_BOUND('',#171,.T.);
#101=FACE_OUTER_BOUND('',#172,.T.);
#102=FACE_OUTER_BOUND('',#173,.T.);
#103=FACE_OUTER_BOUND('',#174,.T.);
#104=FACE_OUTER_BOUND('',#176,.T.);
#105=FACE_OUTER_BOUND('',#177,.T.);
#106=FACE_OUTER_BOUND('',#178,.T.);
#107=FACE_OUTER_BOUND('',#179,.T.);
#108=FACE_OUTER_BOUND('',#180,.T.);
#109=FACE_OUTER_BOUND('',#181,.T.);
#110=FACE_OUTER_BOUND('',#182,.T.);
#111=FACE_OUTER_BOUND('',#183,.T.);
#112=FACE_OUTER_BOUND('',#184,.T.);
#113=FACE_OUTER_BOUND('',#185,.T.);
#114=FACE_OUTER_BOUND('',#186,.T.);
#115=FACE_OUTER_BOUND('',#187,.T.);
#116=FACE_OUTER_BOUND('',#188,.T.);
#117=FACE_OUTER_BOUND('',#189,.T.);
#118=FACE_OUTER_BOUND('',#190,.T.);
#119=FACE_OUTER_BOUND('',#191,.T.);
#120=FACE_OUTER_BOUND('',#192,.T.);
#121=EDGE_LOOP('',(#683,#684,#685,#686));
#122=EDGE_LOOP('',(#687,#688,#689,#690));
#123=EDGE_LOOP('',(#691,#692,#693));
#124=EDGE_LOOP('',(#694,#695,#696,#697));
#125=EDGE_LOOP('',(#698,#699,#700,#701,#702,#703));
#126=EDGE_LOOP('',(#704,#705,#706,#707));
#127=EDGE_LOOP('',(#708,#709,#710,#711,#712,#713,#714,#715,#716,#717,#718,
#719,#720,#721,#722,#723,#724,#725,#726,#727,#728,#729,#730,#731,#732,#733,
#734,#735,#736,#737,#738,#739,#740,#741));
#128=EDGE_LOOP('',(#742));
#129=EDGE_LOOP('',(#743));
#130=EDGE_LOOP('',(#744));
#131=EDGE_LOOP('',(#745));
#132=EDGE_LOOP('',(#746));
#133=EDGE_LOOP('',(#747));
#134=EDGE_LOOP('',(#748));
#135=EDGE_LOOP('',(#749));
#136=EDGE_LOOP('',(#750,#751,#752,#753));
#137=EDGE_LOOP('',(#754,#755,#756,#757,#758,#759,#760,#761,#762,#763,#764,
#765,#766,#767,#768,#769,#770,#771,#772,#773,#774,#775,#776,#777));
#138=EDGE_LOOP('',(#778));
#139=EDGE_LOOP('',(#779));
#140=EDGE_LOOP('',(#780));
#141=EDGE_LOOP('',(#781));
#142=EDGE_LOOP('',(#782));
#143=EDGE_LOOP('',(#783));
#144=EDGE_LOOP('',(#784));
#145=EDGE_LOOP('',(#785));
#146=EDGE_LOOP('',(#786,#787,#788,#789));
#147=EDGE_LOOP('',(#790,#791,#792,#793));
#148=EDGE_LOOP('',(#794,#795,#796,#797));
#149=EDGE_LOOP('',(#798,#799,#800,#801,#802,#803,#804,#805,#806));
#150=EDGE_LOOP('',(#807,#808,#809,#810));
#151=EDGE_LOOP('',(#811,#812,#813,#814));
#152=EDGE_LOOP('',(#815,#816,#817,#818));
#153=EDGE_LOOP('',(#819,#820,#821,#822,#823));
#154=EDGE_LOOP('',(#824,#825,#826,#827));
#155=EDGE_LOOP('',(#828,#829,#830,#831,#832));
#156=EDGE_LOOP('',(#833));
#157=EDGE_LOOP('',(#834,#835,#836,#837,#838,#839,#840));
#158=EDGE_LOOP('',(#841));
#159=EDGE_LOOP('',(#842,#843,#844));
#160=EDGE_LOOP('',(#845,#846,#847,#848));
#161=EDGE_LOOP('',(#849,#850,#851,#852,#853,#854));
#162=EDGE_LOOP('',(#855,#856,#857,#858));
#163=EDGE_LOOP('',(#859,#860,#861,#862,#863));
#164=EDGE_LOOP('',(#864));
#165=EDGE_LOOP('',(#865,#866,#867,#868));
#166=EDGE_LOOP('',(#869,#870,#871,#872));
#167=EDGE_LOOP('',(#873,#874,#875,#876));
#168=EDGE_LOOP('',(#877,#878,#879,#880));
#169=EDGE_LOOP('',(#881,#882,#883,#884,#885,#886,#887,#888,#889));
#170=EDGE_LOOP('',(#890,#891,#892,#893));
#171=EDGE_LOOP('',(#894,#895,#896,#897));
#172=EDGE_LOOP('',(#898,#899,#900,#901));
#173=EDGE_LOOP('',(#902,#903,#904,#905,#906));
#174=EDGE_LOOP('',(#907,#908,#909,#910,#911,#912,#913));
#175=EDGE_LOOP('',(#914));
#176=EDGE_LOOP('',(#915,#916,#917,#918));
#177=EDGE_LOOP('',(#919,#920,#921,#922));
#178=EDGE_LOOP('',(#923,#924,#925,#926));
#179=EDGE_LOOP('',(#927,#928,#929,#930));
#180=EDGE_LOOP('',(#931,#932,#933,#934));
#181=EDGE_LOOP('',(#935,#936,#937,#938));
#182=EDGE_LOOP('',(#939,#940,#941,#942));
#183=EDGE_LOOP('',(#943,#944,#945,#946));
#184=EDGE_LOOP('',(#947,#948,#949,#950));
#185=EDGE_LOOP('',(#951,#952,#953,#954));
#186=EDGE_LOOP('',(#955,#956,#957,#958));
#187=EDGE_LOOP('',(#959,#960,#961,#962));
#188=EDGE_LOOP('',(#963,#964,#965,#966));
#189=EDGE_LOOP('',(#967,#968,#969,#970));
#190=EDGE_LOOP('',(#971,#972,#973,#974));
#191=EDGE_LOOP('',(#975,#976,#977,#978));
#192=EDGE_LOOP('',(#979,#980,#981,#982));
#193=LINE('',#1490,#289);
#194=LINE('',#1496,#290);
#195=LINE('',#1501,#291);
#196=LINE('',#1504,#292);
#197=LINE('',#1533,#293);
#198=LINE('',#1536,#294);
#199=LINE('',#1539,#295);
#200=LINE('',#1542,#296);
#201=LINE('',#1545,#297);
#202=LINE('',#1547,#298);
#203=LINE('',#1551,#299);
#204=LINE('',#1555,#300);
#205=LINE('',#1559,#301);
#206=LINE('',#1563,#302);
#207=LINE('',#1567,#303);
#208=LINE('',#1571,#304);
#209=LINE('',#1573,#305);
#210=LINE('',#1575,#306);
#211=LINE('',#1579,#307);
#212=LINE('',#1581,#308);
#213=LINE('',#1583,#309);
#214=LINE('',#1585,#310);
#215=LINE('',#1587,#311);
#216=LINE('',#1589,#312);
#217=LINE('',#1591,#313);
#218=LINE('',#1593,#314);
#219=LINE('',#1595,#315);
#220=LINE('',#1597,#316);
#221=LINE('',#1599,#317);
#222=LINE('',#1601,#318);
#223=LINE('',#1603,#319);
#224=LINE('',#1604,#320);
#225=LINE('',#1619,#321);
#226=LINE('',#1621,#322);
#227=LINE('',#1622,#323);
#228=LINE('',#1625,#324);
#229=LINE('',#1627,#325);
#230=LINE('',#1629,#326);
#231=LINE('',#1631,#327);
#232=LINE('',#1633,#328);
#233=LINE('',#1635,#329);
#234=LINE('',#1637,#330);
#235=LINE('',#1641,#331);
#236=LINE('',#1645,#332);
#237=LINE('',#1649,#333);
#238=LINE('',#1653,#334);
#239=LINE('',#1657,#335);
#240=LINE('',#1661,#336);
#241=LINE('',#1663,#337);
#242=LINE('',#1665,#338);
#243=LINE('',#1667,#339);
#244=LINE('',#1668,#340);
#245=LINE('',#1682,#341);
#246=LINE('',#1684,#342);
#247=LINE('',#1685,#343);
#248=LINE('',#1688,#344);
#249=LINE('',#1694,#345);
#250=LINE('',#1695,#346);
#251=LINE('',#1696,#347);
#252=LINE('',#1699,#348);
#253=LINE('',#1704,#349);
#254=LINE('',#1708,#350);
#255=LINE('',#1710,#351);
#256=LINE('',#1711,#352);
#257=LINE('',#1720,#353);
#258=LINE('',#1723,#354);
#259=LINE('',#1749,#355);
#260=LINE('',#1753,#356);
#261=LINE('',#1758,#357);
#262=LINE('',#1764,#358);
#263=LINE('',#1766,#359);
#264=LINE('',#1768,#360);
#265=LINE('',#1769,#361);
#266=LINE('',#1771,#362);
#267=LINE('',#1774,#363);
#268=LINE('',#1776,#364);
#269=LINE('',#1780,#365);
#270=LINE('',#1783,#366);
#271=LINE('',#1786,#367);
#272=LINE('',#1789,#368);
#273=LINE('',#1792,#369);
#274=LINE('',#1793,#370);
#275=LINE('',#1795,#371);
#276=LINE('',#1797,#372);
#277=LINE('',#1798,#373);
#278=LINE('',#1801,#374);
#279=LINE('',#1803,#375);
#280=LINE('',#1805,#376);
#281=LINE('',#1807,#377);
#282=LINE('',#1809,#378);
#283=LINE('',#1811,#379);
#284=LINE('',#1813,#380);
#285=LINE('',#1814,#381);
#286=LINE('',#1817,#382);
#287=LINE('',#1819,#383);
#288=LINE('',#1822,#384);
#289=VECTOR('',#1189,0.086);
#290=VECTOR('',#1196,0.086);
#291=VECTOR('',#1201,0.393700787401575);
#292=VECTOR('',#1204,0.393700787401575);
#293=VECTOR('',#1213,0.125);
#294=VECTOR('',#1216,0.393700787401575);
#295=VECTOR('',#1219,0.393700787401575);
#296=VECTOR('',#1222,0.393700787401575);
#297=VECTOR('',#1225,0.393700787401575);
#298=VECTOR('',#1226,0.393700787401575);
#299=VECTOR('',#1229,0.393700787401575);
#300=VECTOR('',#1232,0.393700787401575);
#301=VECTOR('',#1235,0.393700787401575);
#302=VECTOR('',#1238,0.393700787401575);
#303=VECTOR('',#1241,0.393700787401575);
#304=VECTOR('',#1244,0.393700787401575);
#305=VECTOR('',#1245,0.393700787401575);
#306=VECTOR('',#1246,0.393700787401575);
#307=VECTOR('',#1249,0.393700787401575);
#308=VECTOR('',#1250,0.393700787401575);
#309=VECTOR('',#1251,0.393700787401575);
#310=VECTOR('',#1252,0.393700787401575);
#311=VECTOR('',#1253,0.393700787401575);
#312=VECTOR('',#1254,0.393700787401575);
#313=VECTOR('',#1255,0.393700787401575);
#314=VECTOR('',#1256,0.393700787401575);
#315=VECTOR('',#1257,0.393700787401575);
#316=VECTOR('',#1258,0.393700787401575);
#317=VECTOR('',#1259,0.393700787401575);
#318=VECTOR('',#1260,0.393700787401575);
#319=VECTOR('',#1261,0.393700787401575);
#320=VECTOR('',#1262,0.393700787401575);
#321=VECTOR('',#1277,0.393700787401575);
#322=VECTOR('',#1278,0.393700787401575);
#323=VECTOR('',#1279,0.393700787401575);
#324=VECTOR('',#1282,0.393700787401575);
#325=VECTOR('',#1283,0.393700787401575);
#326=VECTOR('',#1284,0.393700787401575);
#327=VECTOR('',#1285,0.393700787401575);
#328=VECTOR('',#1286,0.393700787401575);
#329=VECTOR('',#1287,0.393700787401575);
#330=VECTOR('',#1288,0.393700787401575);
#331=VECTOR('',#1291,0.393700787401575);
#332=VECTOR('',#1294,0.393700787401575);
#333=VECTOR('',#1297,0.393700787401575);
#334=VECTOR('',#1300,0.393700787401575);
#335=VECTOR('',#1303,0.393700787401575);
#336=VECTOR('',#1306,0.393700787401575);
#337=VECTOR('',#1307,0.393700787401575);
#338=VECTOR('',#1308,0.393700787401575);
#339=VECTOR('',#1309,0.393700787401575);
#340=VECTOR('',#1310,0.393700787401575);
#341=VECTOR('',#1325,0.393700787401575);
#342=VECTOR('',#1328,0.393700787401575);
#343=VECTOR('',#1329,0.393700787401575);
#344=VECTOR('',#1334,0.393700787401575);
#345=VECTOR('',#1339,0.393700787401575);
#346=VECTOR('',#1340,0.393700787401575);
#347=VECTOR('',#1341,0.393700787401575);
#348=VECTOR('',#1346,0.393700787401575);
#349=VECTOR('',#1351,0.086);
#350=VECTOR('',#1356,0.393700787401575);
#351=VECTOR('',#1357,0.393700787401575);
#352=VECTOR('',#1358,0.393700787401575);
#353=VECTOR('',#1371,0.393700787401575);
#354=VECTOR('',#1374,0.393700787401575);
#355=VECTOR('',#1381,0.125);
#356=VECTOR('',#1386,0.393700787401575);
#357=VECTOR('',#1393,0.393700787401575);
#358=VECTOR('',#1400,0.393700787401575);
#359=VECTOR('',#1403,0.393700787401575);
#360=VECTOR('',#1406,0.393700787401575);
#361=VECTOR('',#1407,0.393700787401575);
#362=VECTOR('',#1410,0.393700787401575);
#363=VECTOR('',#1413,0.393700787401575);
#364=VECTOR('',#1414,0.393700787401575);
#365=VECTOR('',#1419,0.393700787401575);
#366=VECTOR('',#1424,0.393700787401575);
#367=VECTOR('',#1427,0.086);
#368=VECTOR('',#1432,0.393700787401575);
#369=VECTOR('',#1437,0.393700787401575);
#370=VECTOR('',#1438,0.393700787401575);
#371=VECTOR('',#1441,0.393700787401575);
#372=VECTOR('',#1444,0.393700787401575);
#373=VECTOR('',#1445,0.393700787401575);
#374=VECTOR('',#1450,0.0860000000000002);
#375=VECTOR('',#1453,0.0860000000000002);
#376=VECTOR('',#1456,0.0860000000000003);
#377=VECTOR('',#1459,0.0860000000000003);
#378=VECTOR('',#1462,0.0860000000000003);
#379=VECTOR('',#1465,0.0860000000000002);
#380=VECTOR('',#1468,0.393700787401575);
#381=VECTOR('',#1469,0.393700787401575);
#382=VECTOR('',#1474,0.393700787401575);
#383=VECTOR('',#1477,0.393700787401575);
#384=VECTOR('',#1482,0.393700787401575);
#385=CIRCLE('',#1082,0.086);
#386=CIRCLE('',#1083,0.086);
#387=CIRCLE('',#1085,0.086);
#388=CIRCLE('',#1086,0.086);
#389=CIRCLE('',#1088,0.1875);
#390=CIRCLE('',#1090,0.1875);
#391=CIRCLE('',#1092,0.125);
#392=CIRCLE('',#1093,0.125);
#393=CIRCLE('',#1097,0.25);
#394=CIRCLE('',#1098,0.25);
#395=CIRCLE('',#1099,0.25);
#396=CIRCLE('',#1100,0.25);
#397=CIRCLE('',#1101,0.25);
#398=CIRCLE('',#1102,0.25);
#399=CIRCLE('',#1103,0.1875);
#400=CIRCLE('',#1104,0.0860000000000003);
#401=CIRCLE('',#1105,0.0860000000000002);
#402=CIRCLE('',#1106,0.0860000000000003);
#403=CIRCLE('',#1107,0.0860000000000003);
#404=CIRCLE('',#1108,0.0860000000000002);
#405=CIRCLE('',#1109,0.0860000000000002);
#406=CIRCLE('',#1112,0.25);
#407=CIRCLE('',#1113,0.25);
#408=CIRCLE('',#1114,0.25);
#409=CIRCLE('',#1115,0.25);
#410=CIRCLE('',#1116,0.25);
#411=CIRCLE('',#1117,0.25);
#412=CIRCLE('',#1118,0.0860000000000002);
#413=CIRCLE('',#1119,0.0860000000000002);
#414=CIRCLE('',#1120,0.0860000000000003);
#415=CIRCLE('',#1121,0.0860000000000003);
#416=CIRCLE('',#1122,0.0860000000000003);
#417=CIRCLE('',#1123,0.0860000000000002);
#418=CIRCLE('',#1128,0.25);
#419=CIRCLE('',#1129,0.125);
#420=CIRCLE('',#1133,0.086);
#421=CIRCLE('',#1134,0.086);
#422=CIRCLE('',#1137,0.25);
#423=CIRCLE('',#1138,0.25);
#424=CIRCLE('',#1142,0.1875);
#425=CIRCLE('',#1145,0.125);
#426=CIRCLE('',#1146,0.125);
#427=CIRCLE('',#1150,0.25);
#428=CIRCLE('',#1151,0.086);
#429=CIRCLE('',#1153,0.25);
#430=CIRCLE('',#1158,0.125);
#431=CIRCLE('',#1159,0.25);
#432=CIRCLE('',#1163,0.086);
#433=VERTEX_POINT('',#1487);
#434=VERTEX_POINT('',#1489);
#435=VERTEX_POINT('',#1493);
#436=VERTEX_POINT('',#1495);
#437=VERTEX_POINT('',#1499);
#438=VERTEX_POINT('',#1500);
#439=VERTEX_POINT('',#1502);
#440=VERTEX_POINT('',#1506);
#441=VERTEX_POINT('',#1517);
#442=VERTEX_POINT('',#1530);
#443=VERTEX_POINT('',#1532);
#444=VERTEX_POINT('',#1534);
#445=VERTEX_POINT('',#1538);
#446=VERTEX_POINT('',#1540);
#447=VERTEX_POINT('',#1544);
#448=VERTEX_POINT('',#1546);
#449=VERTEX_POINT('',#1548);
#450=VERTEX_POINT('',#1550);
#451=VERTEX_POINT('',#1552);
#452=VERTEX_POINT('',#1554);
#453=VERTEX_POINT('',#1556);
#454=VERTEX_POINT('',#1558);
#455=VERTEX_POINT('',#1560);
#456=VERTEX_POINT('',#1562);
#457=VERTEX_POINT('',#1564);
#458=VERTEX_POINT('',#1566);
#459=VERTEX_POINT('',#1568);
#460=VERTEX_POINT('',#1570);
#461=VERTEX_POINT('',#1572);
#462=VERTEX_POINT('',#1574);
#463=VERTEX_POINT('',#1576);
#464=VERTEX_POINT('',#1578);
#465=VERTEX_POINT('',#1580);
#466=VERTEX_POINT('',#1582);
#467=VERTEX_POINT('',#1584);
#468=VERTEX_POINT('',#1586);
#469=VERTEX_POINT('',#1588);
#470=VERTEX_POINT('',#1590);
#471=VERTEX_POINT('',#1592);
#472=VERTEX_POINT('',#1594);
#473=VERTEX_POINT('',#1596);
#474=VERTEX_POINT('',#1598);
#475=VERTEX_POINT('',#1600);
#476=VERTEX_POINT('',#1602);
#477=VERTEX_POINT('',#1605);
#478=VERTEX_POINT('',#1607);
#479=VERTEX_POINT('',#1609);
#480=VERTEX_POINT('',#1611);
#481=VERTEX_POINT('',#1613);
#482=VERTEX_POINT('',#1615);
#483=VERTEX_POINT('',#1618);
#484=VERTEX_POINT('',#1620);
#485=VERTEX_POINT('',#1624);
#486=VERTEX_POINT('',#1626);
#487=VERTEX_POINT('',#1628);
#488=VERTEX_POINT('',#1630);
#489=VERTEX_POINT('',#1632);
#490=VERTEX_POINT('',#1634);
#491=VERTEX_POINT('',#1636);
#492=VERTEX_POINT('',#1638);
#493=VERTEX_POINT('',#1640);
#494=VERTEX_POINT('',#1642);
#495=VERTEX_POINT('',#1644);
#496=VERTEX_POINT('',#1646);
#497=VERTEX_POINT('',#1648);
#498=VERTEX_POINT('',#1650);
#499=VERTEX_POINT('',#1652);
#500=VERTEX_POINT('',#1654);
#501=VERTEX_POINT('',#1656);
#502=VERTEX_POINT('',#1658);
#503=VERTEX_POINT('',#1660);
#504=VERTEX_POINT('',#1662);
#505=VERTEX_POINT('',#1664);
#506=VERTEX_POINT('',#1666);
#507=VERTEX_POINT('',#1669);
#508=VERTEX_POINT('',#1671);
#509=VERTEX_POINT('',#1673);
#510=VERTEX_POINT('',#1675);
#511=VERTEX_POINT('',#1677);
#512=VERTEX_POINT('',#1679);
#513=VERTEX_POINT('',#1689);
#514=VERTEX_POINT('',#1691);
#515=VERTEX_POINT('',#1693);
#516=VERTEX_POINT('',#1701);
#517=VERTEX_POINT('',#1703);
#518=VERTEX_POINT('',#1707);
#519=VERTEX_POINT('',#1709);
#520=VERTEX_POINT('',#1718);
#521=VERTEX_POINT('',#1719);
#522=VERTEX_POINT('',#1721);
#523=VERTEX_POINT('',#1746);
#524=VERTEX_POINT('',#1748);
#525=VERTEX_POINT('',#1752);
#526=VERTEX_POINT('',#1756);
#527=VERTEX_POINT('',#1759);
#528=VERTEX_POINT('',#1762);
#529=VERTEX_POINT('',#1773);
#530=VERTEX_POINT('',#1775);
#531=VERTEX_POINT('',#1777);
#532=VERTEX_POINT('',#1785);
#533=EDGE_CURVE('',#433,#433,#385,.T.);
#534=EDGE_CURVE('',#433,#434,#193,.T.);
#535=EDGE_CURVE('',#434,#434,#386,.T.);
#536=EDGE_CURVE('',#435,#435,#387,.T.);
#537=EDGE_CURVE('',#435,#436,#194,.T.);
#538=EDGE_CURVE('',#436,#436,#388,.T.);
#539=EDGE_CURVE('',#437,#438,#195,.T.);
#540=EDGE_CURVE('',#437,#439,#389,.T.);
#541=EDGE_CURVE('',#439,#438,#196,.T.);
#542=EDGE_CURVE('',#440,#437,#37,.T.);
#543=EDGE_CURVE('',#440,#441,#390,.T.);
#544=EDGE_CURVE('',#439,#441,#38,.T.);
#545=EDGE_CURVE('',#438,#442,#391,.T.);
#546=EDGE_CURVE('',#442,#443,#197,.T.);
#547=EDGE_CURVE('',#443,#444,#392,.T.);
#548=EDGE_CURVE('',#440,#444,#198,.T.);
#549=EDGE_CURVE('',#441,#445,#199,.T.);
#550=EDGE_CURVE('',#445,#446,#35,.T.);
#551=EDGE_CURVE('',#446,#439,#200,.T.);
#552=EDGE_CURVE('',#444,#447,#201,.T.);
#553=EDGE_CURVE('',#447,#448,#202,.T.);
#554=EDGE_CURVE('',#448,#449,#393,.T.);
#555=EDGE_CURVE('',#449,#450,#203,.T.);
#556=EDGE_CURVE('',#450,#451,#394,.T.);
#557=EDGE_CURVE('',#451,#452,#204,.T.);
#558=EDGE_CURVE('',#453,#452,#395,.T.);
#559=EDGE_CURVE('',#453,#454,#205,.T.);
#560=EDGE_CURVE('',#455,#454,#396,.T.);
#561=EDGE_CURVE('',#455,#456,#206,.T.);
#562=EDGE_CURVE('',#456,#457,#397,.T.);
#563=EDGE_CURVE('',#457,#458,#207,.T.);
#564=EDGE_CURVE('',#458,#459,#398,.T.);
#565=EDGE_CURVE('',#459,#460,#208,.T.);
#566=EDGE_CURVE('',#460,#461,#209,.T.);
#567=EDGE_CURVE('',#461,#462,#210,.T.);
#568=EDGE_CURVE('',#462,#463,#399,.T.);
#569=EDGE_CURVE('',#464,#463,#211,.T.);
#570=EDGE_CURVE('',#464,#465,#212,.T.);
#571=EDGE_CURVE('',#465,#466,#213,.T.);
#572=EDGE_CURVE('',#466,#467,#214,.T.);
#573=EDGE_CURVE('',#468,#467,#215,.T.);
#574=EDGE_CURVE('',#468,#469,#216,.T.);
#575=EDGE_CURVE('',#470,#469,#217,.T.);
#576=EDGE_CURVE('',#470,#471,#218,.T.);
#577=EDGE_CURVE('',#472,#471,#219,.T.);
#578=EDGE_CURVE('',#472,#473,#220,.T.);
#579=EDGE_CURVE('',#474,#473,#221,.T.);
#580=EDGE_CURVE('',#474,#475,#222,.T.);
#581=EDGE_CURVE('',#475,#476,#223,.T.);
#582=EDGE_CURVE('',#476,#445,#224,.T.);
#583=EDGE_CURVE('',#477,#477,#400,.T.);
#584=EDGE_CURVE('',#478,#478,#401,.T.);
#585=EDGE_CURVE('',#479,#479,#402,.T.);
#586=EDGE_CURVE('',#480,#480,#403,.T.);
#587=EDGE_CURVE('',#481,#481,#404,.T.);
#588=EDGE_CURVE('',#482,#482,#405,.T.);
#589=EDGE_CURVE('',#471,#483,#225,.T.);
#590=EDGE_CURVE('',#483,#484,#226,.T.);
#591=EDGE_CURVE('',#484,#472,#227,.T.);
#592=EDGE_CURVE('',#485,#483,#228,.T.);
#593=EDGE_CURVE('',#486,#485,#229,.T.);
#594=EDGE_CURVE('',#486,#487,#230,.T.);
#595=EDGE_CURVE('',#488,#487,#231,.T.);
#596=EDGE_CURVE('',#488,#489,#232,.T.);
#597=EDGE_CURVE('',#489,#490,#233,.T.);
#598=EDGE_CURVE('',#491,#490,#234,.T.);
#599=EDGE_CURVE('',#492,#491,#406,.T.);
#600=EDGE_CURVE('',#493,#492,#235,.T.);
#601=EDGE_CURVE('',#494,#493,#407,.T.);
#602=EDGE_CURVE('',#495,#494,#236,.T.);
#603=EDGE_CURVE('',#496,#495,#408,.T.);
#604=EDGE_CURVE('',#497,#496,#237,.T.);
#605=EDGE_CURVE('',#498,#497,#409,.T.);
#606=EDGE_CURVE('',#499,#498,#238,.T.);
#607=EDGE_CURVE('',#500,#499,#410,.T.);
#608=EDGE_CURVE('',#501,#500,#239,.T.);
#609=EDGE_CURVE('',#502,#501,#411,.T.);
#610=EDGE_CURVE('',#503,#502,#240,.T.);
#611=EDGE_CURVE('',#503,#504,#241,.T.);
#612=EDGE_CURVE('',#504,#505,#242,.T.);
#613=EDGE_CURVE('',#506,#505,#243,.T.);
#614=EDGE_CURVE('',#506,#484,#244,.T.);
#615=EDGE_CURVE('',#507,#507,#412,.T.);
#616=EDGE_CURVE('',#508,#508,#413,.T.);
#617=EDGE_CURVE('',#509,#509,#414,.T.);
#618=EDGE_CURVE('',#510,#510,#415,.T.);
#619=EDGE_CURVE('',#511,#511,#416,.T.);
#620=EDGE_CURVE('',#512,#512,#417,.T.);
#621=EDGE_CURVE('',#485,#470,#245,.T.);
#622=EDGE_CURVE('',#473,#506,#246,.T.);
#623=EDGE_CURVE('',#505,#474,#247,.T.);
#624=EDGE_CURVE('',#447,#503,#248,.T.);
#625=EDGE_CURVE('',#513,#443,#418,.T.);
#626=EDGE_CURVE('',#513,#514,#419,.T.);
#627=EDGE_CURVE('',#515,#514,#249,.T.);
#628=EDGE_CURVE('',#515,#475,#250,.T.);
#629=EDGE_CURVE('',#475,#504,#251,.T.);
#630=EDGE_CURVE('',#502,#448,#252,.T.);
#631=EDGE_CURVE('',#516,#516,#420,.T.);
#632=EDGE_CURVE('',#516,#517,#253,.T.);
#633=EDGE_CURVE('',#517,#517,#421,.T.);
#634=EDGE_CURVE('',#518,#476,#254,.T.);
#635=EDGE_CURVE('',#518,#519,#255,.T.);
#636=EDGE_CURVE('',#519,#446,#256,.T.);
#637=EDGE_CURVE('',#442,#519,#422,.T.);
#638=EDGE_CURVE('',#443,#518,#423,.T.);
#639=EDGE_CURVE('',#520,#521,#257,.T.);
#640=EDGE_CURVE('',#522,#521,#424,.T.);
#641=EDGE_CURVE('',#520,#522,#258,.T.);
#642=EDGE_CURVE('',#463,#521,#39,.T.);
#643=EDGE_CURVE('',#522,#462,#40,.T.);
#644=EDGE_CURVE('',#523,#461,#425,.F.);
#645=EDGE_CURVE('',#523,#524,#259,.T.);
#646=EDGE_CURVE('',#520,#524,#426,.F.);
#647=EDGE_CURVE('',#521,#525,#260,.T.);
#648=EDGE_CURVE('',#525,#464,#36,.T.);
#649=EDGE_CURVE('',#524,#526,#427,.T.);
#650=EDGE_CURVE('',#526,#525,#261,.T.);
#651=EDGE_CURVE('',#527,#527,#428,.T.);
#652=EDGE_CURVE('',#523,#528,#429,.T.);
#653=EDGE_CURVE('',#528,#526,#262,.T.);
#654=EDGE_CURVE('',#469,#486,#263,.T.);
#655=EDGE_CURVE('',#467,#488,#264,.T.);
#656=EDGE_CURVE('',#487,#468,#265,.T.);
#657=EDGE_CURVE('',#466,#489,#266,.T.);
#658=EDGE_CURVE('',#466,#529,#267,.T.);
#659=EDGE_CURVE('',#529,#530,#268,.T.);
#660=EDGE_CURVE('',#530,#531,#430,.T.);
#661=EDGE_CURVE('',#531,#523,#431,.T.);
#662=EDGE_CURVE('',#490,#460,#269,.T.);
#663=EDGE_CURVE('',#491,#459,#270,.T.);
#664=EDGE_CURVE('',#527,#532,#271,.T.);
#665=EDGE_CURVE('',#532,#532,#432,.T.);
#666=EDGE_CURVE('',#528,#465,#272,.T.);
#667=EDGE_CURVE('',#495,#455,#273,.T.);
#668=EDGE_CURVE('',#454,#496,#274,.T.);
#669=EDGE_CURVE('',#494,#456,#275,.T.);
#670=EDGE_CURVE('',#497,#453,#276,.T.);
#671=EDGE_CURVE('',#452,#498,#277,.T.);
#672=EDGE_CURVE('',#482,#507,#278,.T.);
#673=EDGE_CURVE('',#478,#508,#279,.T.);
#674=EDGE_CURVE('',#479,#509,#280,.T.);
#675=EDGE_CURVE('',#477,#510,#281,.T.);
#676=EDGE_CURVE('',#480,#511,#282,.T.);
#677=EDGE_CURVE('',#481,#512,#283,.T.);
#678=EDGE_CURVE('',#500,#450,#284,.T.);
#679=EDGE_CURVE('',#501,#449,#285,.T.);
#680=EDGE_CURVE('',#492,#458,#286,.T.);
#681=EDGE_CURVE('',#493,#457,#287,.T.);
#682=EDGE_CURVE('',#499,#451,#288,.T.);
#683=ORIENTED_EDGE('',*,*,#533,.F.);
#684=ORIENTED_EDGE('',*,*,#534,.T.);
#685=ORIENTED_EDGE('',*,*,#535,.F.);
#686=ORIENTED_EDGE('',*,*,#534,.F.);
#687=ORIENTED_EDGE('',*,*,#536,.F.);
#688=ORIENTED_EDGE('',*,*,#537,.T.);
#689=ORIENTED_EDGE('',*,*,#538,.F.);
#690=ORIENTED_EDGE('',*,*,#537,.F.);
#691=ORIENTED_EDGE('',*,*,#539,.F.);
#692=ORIENTED_EDGE('',*,*,#540,.T.);
#693=ORIENTED_EDGE('',*,*,#541,.T.);
#694=ORIENTED_EDGE('',*,*,#542,.F.);
#695=ORIENTED_EDGE('',*,*,#543,.T.);
#696=ORIENTED_EDGE('',*,*,#544,.F.);
#697=ORIENTED_EDGE('',*,*,#540,.F.);
#698=ORIENTED_EDGE('',*,*,#542,.T.);
#699=ORIENTED_EDGE('',*,*,#539,.T.);
#700=ORIENTED_EDGE('',*,*,#545,.T.);
#701=ORIENTED_EDGE('',*,*,#546,.T.);
#702=ORIENTED_EDGE('',*,*,#547,.T.);
#703=ORIENTED_EDGE('',*,*,#548,.F.);
#704=ORIENTED_EDGE('',*,*,#544,.T.);
#705=ORIENTED_EDGE('',*,*,#549,.T.);
#706=ORIENTED_EDGE('',*,*,#550,.T.);
#707=ORIENTED_EDGE('',*,*,#551,.T.);
#708=ORIENTED_EDGE('',*,*,#548,.T.);
#709=ORIENTED_EDGE('',*,*,#552,.T.);
#710=ORIENTED_EDGE('',*,*,#553,.T.);
#711=ORIENTED_EDGE('',*,*,#554,.T.);
#712=ORIENTED_EDGE('',*,*,#555,.T.);
#713=ORIENTED_EDGE('',*,*,#556,.T.);
#714=ORIENTED_EDGE('',*,*,#557,.T.);
#715=ORIENTED_EDGE('',*,*,#558,.F.);
#716=ORIENTED_EDGE('',*,*,#559,.T.);
#717=ORIENTED_EDGE('',*,*,#560,.F.);
#718=ORIENTED_EDGE('',*,*,#561,.T.);
#719=ORIENTED_EDGE('',*,*,#562,.T.);
#720=ORIENTED_EDGE('',*,*,#563,.T.);
#721=ORIENTED_EDGE('',*,*,#564,.T.);
#722=ORIENTED_EDGE('',*,*,#565,.T.);
#723=ORIENTED_EDGE('',*,*,#566,.T.);
#724=ORIENTED_EDGE('',*,*,#567,.T.);
#725=ORIENTED_EDGE('',*,*,#568,.T.);
#726=ORIENTED_EDGE('',*,*,#569,.F.);
#727=ORIENTED_EDGE('',*,*,#570,.T.);
#728=ORIENTED_EDGE('',*,*,#571,.T.);
#729=ORIENTED_EDGE('',*,*,#572,.T.);
#730=ORIENTED_EDGE('',*,*,#573,.F.);
#731=ORIENTED_EDGE('',*,*,#574,.T.);
#732=ORIENTED_EDGE('',*,*,#575,.F.);
#733=ORIENTED_EDGE('',*,*,#576,.T.);
#734=ORIENTED_EDGE('',*,*,#577,.F.);
#735=ORIENTED_EDGE('',*,*,#578,.T.);
#736=ORIENTED_EDGE('',*,*,#579,.F.);
#737=ORIENTED_EDGE('',*,*,#580,.T.);
#738=ORIENTED_EDGE('',*,*,#581,.T.);
#739=ORIENTED_EDGE('',*,*,#582,.T.);
#740=ORIENTED_EDGE('',*,*,#549,.F.);
#741=ORIENTED_EDGE('',*,*,#543,.F.);
#742=ORIENTED_EDGE('',*,*,#533,.T.);
#743=ORIENTED_EDGE('',*,*,#536,.T.);
#744=ORIENTED_EDGE('',*,*,#583,.T.);
#745=ORIENTED_EDGE('',*,*,#584,.T.);
#746=ORIENTED_EDGE('',*,*,#585,.T.);
#747=ORIENTED_EDGE('',*,*,#586,.T.);
#748=ORIENTED_EDGE('',*,*,#587,.T.);
#749=ORIENTED_EDGE('',*,*,#588,.T.);
#750=ORIENTED_EDGE('',*,*,#577,.T.);
#751=ORIENTED_EDGE('',*,*,#589,.T.);
#752=ORIENTED_EDGE('',*,*,#590,.T.);
#753=ORIENTED_EDGE('',*,*,#591,.T.);
#754=ORIENTED_EDGE('',*,*,#590,.F.);
#755=ORIENTED_EDGE('',*,*,#592,.F.);
#756=ORIENTED_EDGE('',*,*,#593,.F.);
#757=ORIENTED_EDGE('',*,*,#594,.T.);
#758=ORIENTED_EDGE('',*,*,#595,.F.);
#759=ORIENTED_EDGE('',*,*,#596,.T.);
#760=ORIENTED_EDGE('',*,*,#597,.T.);
#761=ORIENTED_EDGE('',*,*,#598,.F.);
#762=ORIENTED_EDGE('',*,*,#599,.F.);
#763=ORIENTED_EDGE('',*,*,#600,.F.);
#764=ORIENTED_EDGE('',*,*,#601,.F.);
#765=ORIENTED_EDGE('',*,*,#602,.F.);
#766=ORIENTED_EDGE('',*,*,#603,.F.);
#767=ORIENTED_EDGE('',*,*,#604,.F.);
#768=ORIENTED_EDGE('',*,*,#605,.F.);
#769=ORIENTED_EDGE('',*,*,#606,.F.);
#770=ORIENTED_EDGE('',*,*,#607,.F.);
#771=ORIENTED_EDGE('',*,*,#608,.F.);
#772=ORIENTED_EDGE('',*,*,#609,.F.);
#773=ORIENTED_EDGE('',*,*,#610,.F.);
#774=ORIENTED_EDGE('',*,*,#611,.T.);
#775=ORIENTED_EDGE('',*,*,#612,.T.);
#776=ORIENTED_EDGE('',*,*,#613,.F.);
#777=ORIENTED_EDGE('',*,*,#614,.T.);
#778=ORIENTED_EDGE('',*,*,#535,.T.);
#779=ORIENTED_EDGE('',*,*,#538,.T.);
#780=ORIENTED_EDGE('',*,*,#615,.F.);
#781=ORIENTED_EDGE('',*,*,#616,.F.);
#782=ORIENTED_EDGE('',*,*,#617,.F.);
#783=ORIENTED_EDGE('',*,*,#618,.F.);
#784=ORIENTED_EDGE('',*,*,#619,.F.);
#785=ORIENTED_EDGE('',*,*,#620,.F.);
#786=ORIENTED_EDGE('',*,*,#589,.F.);
#787=ORIENTED_EDGE('',*,*,#576,.F.);
#788=ORIENTED_EDGE('',*,*,#621,.F.);
#789=ORIENTED_EDGE('',*,*,#592,.T.);
#790=ORIENTED_EDGE('',*,*,#579,.T.);
#791=ORIENTED_EDGE('',*,*,#622,.T.);
#792=ORIENTED_EDGE('',*,*,#613,.T.);
#793=ORIENTED_EDGE('',*,*,#623,.T.);
#794=ORIENTED_EDGE('',*,*,#591,.F.);
#795=ORIENTED_EDGE('',*,*,#614,.F.);
#796=ORIENTED_EDGE('',*,*,#622,.F.);
#797=ORIENTED_EDGE('',*,*,#578,.F.);
#798=ORIENTED_EDGE('',*,*,#611,.F.);
#799=ORIENTED_EDGE('',*,*,#624,.F.);
#800=ORIENTED_EDGE('',*,*,#552,.F.);
#801=ORIENTED_EDGE('',*,*,#547,.F.);
#802=ORIENTED_EDGE('',*,*,#625,.F.);
#803=ORIENTED_EDGE('',*,*,#626,.T.);
#804=ORIENTED_EDGE('',*,*,#627,.F.);
#805=ORIENTED_EDGE('',*,*,#628,.T.);
#806=ORIENTED_EDGE('',*,*,#629,.T.);
#807=ORIENTED_EDGE('',*,*,#623,.F.);
#808=ORIENTED_EDGE('',*,*,#612,.F.);
#809=ORIENTED_EDGE('',*,*,#629,.F.);
#810=ORIENTED_EDGE('',*,*,#580,.F.);
#811=ORIENTED_EDGE('',*,*,#624,.T.);
#812=ORIENTED_EDGE('',*,*,#610,.T.);
#813=ORIENTED_EDGE('',*,*,#630,.T.);
#814=ORIENTED_EDGE('',*,*,#553,.F.);
#815=ORIENTED_EDGE('',*,*,#631,.T.);
#816=ORIENTED_EDGE('',*,*,#632,.T.);
#817=ORIENTED_EDGE('',*,*,#633,.F.);
#818=ORIENTED_EDGE('',*,*,#632,.F.);
#819=ORIENTED_EDGE('',*,*,#634,.F.);
#820=ORIENTED_EDGE('',*,*,#635,.T.);
#821=ORIENTED_EDGE('',*,*,#636,.T.);
#822=ORIENTED_EDGE('',*,*,#550,.F.);
#823=ORIENTED_EDGE('',*,*,#582,.F.);
#824=ORIENTED_EDGE('',*,*,#546,.F.);
#825=ORIENTED_EDGE('',*,*,#637,.T.);
#826=ORIENTED_EDGE('',*,*,#635,.F.);
#827=ORIENTED_EDGE('',*,*,#638,.F.);
#828=ORIENTED_EDGE('',*,*,#551,.F.);
#829=ORIENTED_EDGE('',*,*,#636,.F.);
#830=ORIENTED_EDGE('',*,*,#637,.F.);
#831=ORIENTED_EDGE('',*,*,#545,.F.);
#832=ORIENTED_EDGE('',*,*,#541,.F.);
#833=ORIENTED_EDGE('',*,*,#631,.F.);
#834=ORIENTED_EDGE('',*,*,#625,.T.);
#835=ORIENTED_EDGE('',*,*,#638,.T.);
#836=ORIENTED_EDGE('',*,*,#634,.T.);
#837=ORIENTED_EDGE('',*,*,#581,.F.);
#838=ORIENTED_EDGE('',*,*,#628,.F.);
#839=ORIENTED_EDGE('',*,*,#627,.T.);
#840=ORIENTED_EDGE('',*,*,#626,.F.);
#841=ORIENTED_EDGE('',*,*,#633,.T.);
#842=ORIENTED_EDGE('',*,*,#639,.T.);
#843=ORIENTED_EDGE('',*,*,#640,.F.);
#844=ORIENTED_EDGE('',*,*,#641,.F.);
#845=ORIENTED_EDGE('',*,*,#642,.F.);
#846=ORIENTED_EDGE('',*,*,#568,.F.);
#847=ORIENTED_EDGE('',*,*,#643,.F.);
#848=ORIENTED_EDGE('',*,*,#640,.T.);
#849=ORIENTED_EDGE('',*,*,#641,.T.);
#850=ORIENTED_EDGE('',*,*,#643,.T.);
#851=ORIENTED_EDGE('',*,*,#567,.F.);
#852=ORIENTED_EDGE('',*,*,#644,.F.);
#853=ORIENTED_EDGE('',*,*,#645,.T.);
#854=ORIENTED_EDGE('',*,*,#646,.F.);
#855=ORIENTED_EDGE('',*,*,#642,.T.);
#856=ORIENTED_EDGE('',*,*,#647,.T.);
#857=ORIENTED_EDGE('',*,*,#648,.T.);
#858=ORIENTED_EDGE('',*,*,#569,.T.);
#859=ORIENTED_EDGE('',*,*,#639,.F.);
#860=ORIENTED_EDGE('',*,*,#646,.T.);
#861=ORIENTED_EDGE('',*,*,#649,.T.);
#862=ORIENTED_EDGE('',*,*,#650,.T.);
#863=ORIENTED_EDGE('',*,*,#647,.F.);
#864=ORIENTED_EDGE('',*,*,#651,.T.);
#865=ORIENTED_EDGE('',*,*,#645,.F.);
#866=ORIENTED_EDGE('',*,*,#652,.T.);
#867=ORIENTED_EDGE('',*,*,#653,.T.);
#868=ORIENTED_EDGE('',*,*,#649,.F.);
#869=ORIENTED_EDGE('',*,*,#593,.T.);
#870=ORIENTED_EDGE('',*,*,#621,.T.);
#871=ORIENTED_EDGE('',*,*,#575,.T.);
#872=ORIENTED_EDGE('',*,*,#654,.T.);
#873=ORIENTED_EDGE('',*,*,#573,.T.);
#874=ORIENTED_EDGE('',*,*,#655,.T.);
#875=ORIENTED_EDGE('',*,*,#595,.T.);
#876=ORIENTED_EDGE('',*,*,#656,.T.);
#877=ORIENTED_EDGE('',*,*,#655,.F.);
#878=ORIENTED_EDGE('',*,*,#572,.F.);
#879=ORIENTED_EDGE('',*,*,#657,.T.);
#880=ORIENTED_EDGE('',*,*,#596,.F.);
#881=ORIENTED_EDGE('',*,*,#597,.F.);
#882=ORIENTED_EDGE('',*,*,#657,.F.);
#883=ORIENTED_EDGE('',*,*,#658,.T.);
#884=ORIENTED_EDGE('',*,*,#659,.T.);
#885=ORIENTED_EDGE('',*,*,#660,.T.);
#886=ORIENTED_EDGE('',*,*,#661,.T.);
#887=ORIENTED_EDGE('',*,*,#644,.T.);
#888=ORIENTED_EDGE('',*,*,#566,.F.);
#889=ORIENTED_EDGE('',*,*,#662,.F.);
#890=ORIENTED_EDGE('',*,*,#654,.F.);
#891=ORIENTED_EDGE('',*,*,#574,.F.);
#892=ORIENTED_EDGE('',*,*,#656,.F.);
#893=ORIENTED_EDGE('',*,*,#594,.F.);
#894=ORIENTED_EDGE('',*,*,#662,.T.);
#895=ORIENTED_EDGE('',*,*,#565,.F.);
#896=ORIENTED_EDGE('',*,*,#663,.F.);
#897=ORIENTED_EDGE('',*,*,#598,.T.);
#898=ORIENTED_EDGE('',*,*,#651,.F.);
#899=ORIENTED_EDGE('',*,*,#664,.T.);
#900=ORIENTED_EDGE('',*,*,#665,.T.);
#901=ORIENTED_EDGE('',*,*,#664,.F.);
#902=ORIENTED_EDGE('',*,*,#666,.T.);
#903=ORIENTED_EDGE('',*,*,#570,.F.);
#904=ORIENTED_EDGE('',*,*,#648,.F.);
#905=ORIENTED_EDGE('',*,*,#650,.F.);
#906=ORIENTED_EDGE('',*,*,#653,.F.);
#907=ORIENTED_EDGE('',*,*,#660,.F.);
#908=ORIENTED_EDGE('',*,*,#659,.F.);
#909=ORIENTED_EDGE('',*,*,#658,.F.);
#910=ORIENTED_EDGE('',*,*,#571,.F.);
#911=ORIENTED_EDGE('',*,*,#666,.F.);
#912=ORIENTED_EDGE('',*,*,#652,.F.);
#913=ORIENTED_EDGE('',*,*,#661,.F.);
#914=ORIENTED_EDGE('',*,*,#665,.F.);
#915=ORIENTED_EDGE('',*,*,#603,.T.);
#916=ORIENTED_EDGE('',*,*,#667,.T.);
#917=ORIENTED_EDGE('',*,*,#560,.T.);
#918=ORIENTED_EDGE('',*,*,#668,.T.);
#919=ORIENTED_EDGE('',*,*,#667,.F.);
#920=ORIENTED_EDGE('',*,*,#602,.T.);
#921=ORIENTED_EDGE('',*,*,#669,.T.);
#922=ORIENTED_EDGE('',*,*,#561,.F.);
#923=ORIENTED_EDGE('',*,*,#605,.T.);
#924=ORIENTED_EDGE('',*,*,#670,.T.);
#925=ORIENTED_EDGE('',*,*,#558,.T.);
#926=ORIENTED_EDGE('',*,*,#671,.T.);
#927=ORIENTED_EDGE('',*,*,#668,.F.);
#928=ORIENTED_EDGE('',*,*,#559,.F.);
#929=ORIENTED_EDGE('',*,*,#670,.F.);
#930=ORIENTED_EDGE('',*,*,#604,.T.);
#931=ORIENTED_EDGE('',*,*,#588,.F.);
#932=ORIENTED_EDGE('',*,*,#672,.T.);
#933=ORIENTED_EDGE('',*,*,#615,.T.);
#934=ORIENTED_EDGE('',*,*,#672,.F.);
#935=ORIENTED_EDGE('',*,*,#584,.F.);
#936=ORIENTED_EDGE('',*,*,#673,.T.);
#937=ORIENTED_EDGE('',*,*,#616,.T.);
#938=ORIENTED_EDGE('',*,*,#673,.F.);
#939=ORIENTED_EDGE('',*,*,#585,.F.);
#940=ORIENTED_EDGE('',*,*,#674,.T.);
#941=ORIENTED_EDGE('',*,*,#617,.T.);
#942=ORIENTED_EDGE('',*,*,#674,.F.);
#943=ORIENTED_EDGE('',*,*,#583,.F.);
#944=ORIENTED_EDGE('',*,*,#675,.T.);
#945=ORIENTED_EDGE('',*,*,#618,.T.);
#946=ORIENTED_EDGE('',*,*,#675,.F.);
#947=ORIENTED_EDGE('',*,*,#586,.F.);
#948=ORIENTED_EDGE('',*,*,#676,.T.);
#949=ORIENTED_EDGE('',*,*,#619,.T.);
#950=ORIENTED_EDGE('',*,*,#676,.F.);
#951=ORIENTED_EDGE('',*,*,#587,.F.);
#952=ORIENTED_EDGE('',*,*,#677,.T.);
#953=ORIENTED_EDGE('',*,*,#620,.T.);
#954=ORIENTED_EDGE('',*,*,#677,.F.);
#955=ORIENTED_EDGE('',*,*,#608,.T.);
#956=ORIENTED_EDGE('',*,*,#678,.T.);
#957=ORIENTED_EDGE('',*,*,#555,.F.);
#958=ORIENTED_EDGE('',*,*,#679,.F.);
#959=ORIENTED_EDGE('',*,*,#609,.T.);
#960=ORIENTED_EDGE('',*,*,#679,.T.);
#961=ORIENTED_EDGE('',*,*,#554,.F.);
#962=ORIENTED_EDGE('',*,*,#630,.F.);
#963=ORIENTED_EDGE('',*,*,#599,.T.);
#964=ORIENTED_EDGE('',*,*,#663,.T.);
#965=ORIENTED_EDGE('',*,*,#564,.F.);
#966=ORIENTED_EDGE('',*,*,#680,.F.);
#967=ORIENTED_EDGE('',*,*,#600,.T.);
#968=ORIENTED_EDGE('',*,*,#680,.T.);
#969=ORIENTED_EDGE('',*,*,#563,.F.);
#970=ORIENTED_EDGE('',*,*,#681,.F.);
#971=ORIENTED_EDGE('',*,*,#601,.T.);
#972=ORIENTED_EDGE('',*,*,#681,.T.);
#973=ORIENTED_EDGE('',*,*,#562,.F.);
#974=ORIENTED_EDGE('',*,*,#669,.F.);
#975=ORIENTED_EDGE('',*,*,#671,.F.);
#976=ORIENTED_EDGE('',*,*,#557,.F.);
#977=ORIENTED_EDGE('',*,*,#682,.F.);
#978=ORIENTED_EDGE('',*,*,#606,.T.);
#979=ORIENTED_EDGE('',*,*,#607,.T.);
#980=ORIENTED_EDGE('',*,*,#682,.T.);
#981=ORIENTED_EDGE('',*,*,#556,.F.);
#982=ORIENTED_EDGE('',*,*,#678,.F.);
#983=CYLINDRICAL_SURFACE('',#1081,0.086);
#984=CYLINDRICAL_SURFACE('',#1084,0.086);
#985=CYLINDRICAL_SURFACE('',#1089,0.1875);
#986=CYLINDRICAL_SURFACE('',#1091,0.125);
#987=CYLINDRICAL_SURFACE('',#1094,0.125);
#988=CYLINDRICAL_SURFACE('',#1132,0.086);
#989=CYLINDRICAL_SURFACE('',#1136,0.25);
#990=CYLINDRICAL_SURFACE('',#1143,0.1875);
#991=CYLINDRICAL_SURFACE('',#1144,0.125);
#992=CYLINDRICAL_SURFACE('',#1147,0.125);
#993=CYLINDRICAL_SURFACE('',#1152,0.25);
#994=CYLINDRICAL_SURFACE('',#1162,0.086);
#995=CYLINDRICAL_SURFACE('',#1166,0.25);
#996=CYLINDRICAL_SURFACE('',#1168,0.25);
#997=CYLINDRICAL_SURFACE('',#1170,0.0860000000000002);
#998=CYLINDRICAL_SURFACE('',#1171,0.0860000000000002);
#999=CYLINDRICAL_SURFACE('',#1172,0.0860000000000003);
#1000=CYLINDRICAL_SURFACE('',#1173,0.0860000000000003);
#1001=CYLINDRICAL_SURFACE('',#1174,0.0860000000000003);
#1002=CYLINDRICAL_SURFACE('',#1175,0.0860000000000002);
#1003=CYLINDRICAL_SURFACE('',#1177,0.25);
#1004=CYLINDRICAL_SURFACE('',#1178,0.25);
#1005=CYLINDRICAL_SURFACE('',#1180,0.25);
#1006=CYLINDRICAL_SURFACE('',#1182,0.25);
#1007=ADVANCED_FACE('',(#69),#983,.F.);
#1008=ADVANCED_FACE('',(#70),#984,.F.);
#1009=ADVANCED_FACE('',(#71),#41,.T.);
#1010=ADVANCED_FACE('',(#72),#985,.F.);
#1011=ADVANCED_FACE('',(#73),#986,.F.);
#1012=ADVANCED_FACE('',(#74),#987,.F.);
#1013=ADVANCED_FACE('',(#75,#15,#16,#17,#18,#19,#20,#21,#22),#42,.T.);
#1014=ADVANCED_FACE('',(#76),#43,.T.);
#1015=ADVANCED_FACE('',(#77,#23,#24,#25,#26,#27,#28,#29,#30),#44,.F.);
#1016=ADVANCED_FACE('',(#78),#45,.T.);
#1017=ADVANCED_FACE('',(#79),#46,.T.);
#1018=ADVANCED_FACE('',(#80),#47,.T.);
#1019=ADVANCED_FACE('',(#81),#48,.T.);
#1020=ADVANCED_FACE('',(#82),#49,.T.);
#1021=ADVANCED_FACE('',(#83),#50,.T.);
#1022=ADVANCED_FACE('',(#84),#988,.F.);
#1023=ADVANCED_FACE('',(#85),#51,.F.);
#1024=ADVANCED_FACE('',(#86),#989,.T.);
#1025=ADVANCED_FACE('',(#87,#31),#52,.F.);
#1026=ADVANCED_FACE('',(#88,#32),#53,.T.);
#1027=ADVANCED_FACE('',(#89),#54,.F.);
#1028=ADVANCED_FACE('',(#90),#990,.F.);
#1029=ADVANCED_FACE('',(#91),#991,.F.);
#1030=ADVANCED_FACE('',(#92),#992,.F.);
#1031=ADVANCED_FACE('',(#93,#33),#55,.T.);
#1032=ADVANCED_FACE('',(#94),#993,.T.);
#1033=ADVANCED_FACE('',(#95),#56,.T.);
#1034=ADVANCED_FACE('',(#96),#57,.T.);
#1035=ADVANCED_FACE('',(#97),#58,.F.);
#1036=ADVANCED_FACE('',(#98),#59,.F.);
#1037=ADVANCED_FACE('',(#99),#60,.F.);
#1038=ADVANCED_FACE('',(#100),#61,.T.);
#1039=ADVANCED_FACE('',(#101),#994,.F.);
#1040=ADVANCED_FACE('',(#102),#62,.T.);
#1041=ADVANCED_FACE('',(#103,#34),#63,.F.);
#1042=ADVANCED_FACE('',(#104),#995,.F.);
#1043=ADVANCED_FACE('',(#105),#64,.T.);
#1044=ADVANCED_FACE('',(#106),#996,.F.);
#1045=ADVANCED_FACE('',(#107),#65,.T.);
#1046=ADVANCED_FACE('',(#108),#997,.F.);
#1047=ADVANCED_FACE('',(#109),#998,.F.);
#1048=ADVANCED_FACE('',(#110),#999,.F.);
#1049=ADVANCED_FACE('',(#111),#1000,.F.);
#1050=ADVANCED_FACE('',(#112),#1001,.F.);
#1051=ADVANCED_FACE('',(#113),#1002,.F.);
#1052=ADVANCED_FACE('',(#114),#66,.T.);
#1053=ADVANCED_FACE('',(#115),#1003,.T.);
#1054=ADVANCED_FACE('',(#116),#1004,.T.);
#1055=ADVANCED_FACE('',(#117),#67,.T.);
#1056=ADVANCED_FACE('',(#118),#1005,.T.);
#1057=ADVANCED_FACE('',(#119),#68,.T.);
#1058=ADVANCED_FACE('',(#120),#1006,.T.);
#1059=CLOSED_SHELL('',(#1007,#1008,#1009,#1010,#1011,#1012,#1013,#1014,
#1015,#1016,#1017,#1018,#1019,#1020,#1021,#1022,#1023,#1024,#1025,#1026,
#1027,#1028,#1029,#1030,#1031,#1032,#1033,#1034,#1035,#1036,#1037,#1038,
#1039,#1040,#1041,#1042,#1043,#1044,#1045,#1046,#1047,#1048,#1049,#1050,
#1051,#1052,#1053,#1054,#1055,#1056,#1057,#1058));
#1060=DERIVED_UNIT_ELEMENT(#1062,1.);
#1061=DERIVED_UNIT_ELEMENT(#1832,-3.);
#1062=(
CONVERSION_BASED_UNIT('gram',#1064)
MASS_UNIT()
NAMED_UNIT(#1829)
);
#1063=(
MASS_UNIT()
NAMED_UNIT(*)
SI_UNIT(.KILO.,.GRAM.)
);
#1064=MASS_MEASURE_WITH_UNIT(MASS_MEASURE(0.001),#1063);
#1065=DERIVED_UNIT((#1060,#1061));
#1066=MEASURE_REPRESENTATION_ITEM('density measure',
POSITIVE_RATIO_MEASURE(1.06),#1065);
#1067=PROPERTY_DEFINITION_REPRESENTATION(#1072,#1069);
#1068=PROPERTY_DEFINITION_REPRESENTATION(#1073,#1070);
#1069=REPRESENTATION('material name',(#1071),#1826);
#1070=REPRESENTATION('density',(#1066),#1826);
#1071=DESCRIPTIVE_REPRESENTATION_ITEM('ABS Plastic','ABS Plastic');
#1072=PROPERTY_DEFINITION('material property','material name',#1840);
#1073=PROPERTY_DEFINITION('material property','density of part',#1840);
#1074=DATE_TIME_ROLE('creation_date');
#1075=APPLIED_DATE_AND_TIME_ASSIGNMENT(#1076,#1074,(#1840));
#1076=DATE_AND_TIME(#1077,#1078);
#1077=CALENDAR_DATE(2025,3,12);
#1078=LOCAL_TIME(0,0,0.,#1079);
#1079=COORDINATED_UNIVERSAL_TIME_OFFSET(0,0,.BEHIND.);
#1080=AXIS2_PLACEMENT_3D('',#1485,#1183,#1184);
#1081=AXIS2_PLACEMENT_3D('',#1486,#1185,#1186);
#1082=AXIS2_PLACEMENT_3D('',#1488,#1187,#1188);
#1083=AXIS2_PLACEMENT_3D('',#1491,#1190,#1191);
#1084=AXIS2_PLACEMENT_3D('',#1492,#1192,#1193);
#1085=AXIS2_PLACEMENT_3D('',#1494,#1194,#1195);
#1086=AXIS2_PLACEMENT_3D('',#1497,#1197,#1198);
#1087=AXIS2_PLACEMENT_3D('',#1498,#1199,#1200);
#1088=AXIS2_PLACEMENT_3D('',#1503,#1202,#1203);
#1089=AXIS2_PLACEMENT_3D('',#1505,#1205,#1206);
#1090=AXIS2_PLACEMENT_3D('',#1518,#1207,#1208);
#1091=AXIS2_PLACEMENT_3D('',#1529,#1209,#1210);
#1092=AXIS2_PLACEMENT_3D('',#1531,#1211,#1212);
#1093=AXIS2_PLACEMENT_3D('',#1535,#1214,#1215);
#1094=AXIS2_PLACEMENT_3D('',#1537,#1217,#1218);
#1095=AXIS2_PLACEMENT_3D('',#1541,#1220,#1221);
#1096=AXIS2_PLACEMENT_3D('',#1543,#1223,#1224);
#1097=AXIS2_PLACEMENT_3D('',#1549,#1227,#1228);
#1098=AXIS2_PLACEMENT_3D('',#1553,#1230,#1231);
#1099=AXIS2_PLACEMENT_3D('',#1557,#1233,#1234);
#1100=AXIS2_PLACEMENT_3D('',#1561,#1236,#1237);
#1101=AXIS2_PLACEMENT_3D('',#1565,#1239,#1240);
#1102=AXIS2_PLACEMENT_3D('',#1569,#1242,#1243);
#1103=AXIS2_PLACEMENT_3D('',#1577,#1247,#1248);
#1104=AXIS2_PLACEMENT_3D('',#1606,#1263,#1264);
#1105=AXIS2_PLACEMENT_3D('',#1608,#1265,#1266);
#1106=AXIS2_PLACEMENT_3D('',#1610,#1267,#1268);
#1107=AXIS2_PLACEMENT_3D('',#1612,#1269,#1270);
#1108=AXIS2_PLACEMENT_3D('',#1614,#1271,#1272);
#1109=AXIS2_PLACEMENT_3D('',#1616,#1273,#1274);
#1110=AXIS2_PLACEMENT_3D('',#1617,#1275,#1276);
#1111=AXIS2_PLACEMENT_3D('',#1623,#1280,#1281);
#1112=AXIS2_PLACEMENT_3D('',#1639,#1289,#1290);
#1113=AXIS2_PLACEMENT_3D('',#1643,#1292,#1293);
#1114=AXIS2_PLACEMENT_3D('',#1647,#1295,#1296);
#1115=AXIS2_PLACEMENT_3D('',#1651,#1298,#1299);
#1116=AXIS2_PLACEMENT_3D('',#1655,#1301,#1302);
#1117=AXIS2_PLACEMENT_3D('',#1659,#1304,#1305);
#1118=AXIS2_PLACEMENT_3D('',#1670,#1311,#1312);
#1119=AXIS2_PLACEMENT_3D('',#1672,#1313,#1314);
#1120=AXIS2_PLACEMENT_3D('',#1674,#1315,#1316);
#1121=AXIS2_PLACEMENT_3D('',#1676,#1317,#1318);
#1122=AXIS2_PLACEMENT_3D('',#1678,#1319,#1320);
#1123=AXIS2_PLACEMENT_3D('',#1680,#1321,#1322);
#1124=AXIS2_PLACEMENT_3D('',#1681,#1323,#1324);
#1125=AXIS2_PLACEMENT_3D('',#1683,#1326,#1327);
#1126=AXIS2_PLACEMENT_3D('',#1686,#1330,#1331);
#1127=AXIS2_PLACEMENT_3D('',#1687,#1332,#1333);
#1128=AXIS2_PLACEMENT_3D('',#1690,#1335,#1336);
#1129=AXIS2_PLACEMENT_3D('',#1692,#1337,#1338);
#1130=AXIS2_PLACEMENT_3D('',#1697,#1342,#1343);
#1131=AXIS2_PLACEMENT_3D('',#1698,#1344,#1345);
#1132=AXIS2_PLACEMENT_3D('',#1700,#1347,#1348);
#1133=AXIS2_PLACEMENT_3D('',#1702,#1349,#1350);
#1134=AXIS2_PLACEMENT_3D('',#1705,#1352,#1353);
#1135=AXIS2_PLACEMENT_3D('',#1706,#1354,#1355);
#1136=AXIS2_PLACEMENT_3D('',#1712,#1359,#1360);
#1137=AXIS2_PLACEMENT_3D('',#1713,#1361,#1362);
#1138=AXIS2_PLACEMENT_3D('',#1714,#1363,#1364);
#1139=AXIS2_PLACEMENT_3D('',#1715,#1365,#1366);
#1140=AXIS2_PLACEMENT_3D('',#1716,#1367,#1368);
#1141=AXIS2_PLACEMENT_3D('',#1717,#1369,#1370);
#1142=AXIS2_PLACEMENT_3D('',#1722,#1372,#1373);
#1143=AXIS2_PLACEMENT_3D('',#1724,#1375,#1376);
#1144=AXIS2_PLACEMENT_3D('',#1745,#1377,#1378);
#1145=AXIS2_PLACEMENT_3D('',#1747,#1379,#1380);
#1146=AXIS2_PLACEMENT_3D('',#1750,#1382,#1383);
#1147=AXIS2_PLACEMENT_3D('',#1751,#1384,#1385);
#1148=AXIS2_PLACEMENT_3D('',#1754,#1387,#1388);
#1149=AXIS2_PLACEMENT_3D('',#1755,#1389,#1390);
#1150=AXIS2_PLACEMENT_3D('',#1757,#1391,#1392);
#1151=AXIS2_PLACEMENT_3D('',#1760,#1394,#1395);
#1152=AXIS2_PLACEMENT_3D('',#1761,#1396,#1397);
#1153=AXIS2_PLACEMENT_3D('',#1763,#1398,#1399);
#1154=AXIS2_PLACEMENT_3D('',#1765,#1401,#1402);
#1155=AXIS2_PLACEMENT_3D('',#1767,#1404,#1405);
#1156=AXIS2_PLACEMENT_3D('',#1770,#1408,#1409);
#1157=AXIS2_PLACEMENT_3D('',#1772,#1411,#1412);
#1158=AXIS2_PLACEMENT_3D('',#1778,#1415,#1416);
#1159=AXIS2_PLACEMENT_3D('',#1779,#1417,#1418);
#1160=AXIS2_PLACEMENT_3D('',#1781,#1420,#1421);
#1161=AXIS2_PLACEMENT_3D('',#1782,#1422,#1423);
#1162=AXIS2_PLACEMENT_3D('',#1784,#1425,#1426);
#1163=AXIS2_PLACEMENT_3D('',#1787,#1428,#1429);
#1164=AXIS2_PLACEMENT_3D('',#1788,#1430,#1431);
#1165=AXIS2_PLACEMENT_3D('',#1790,#1433,#1434);
#1166=AXIS2_PLACEMENT_3D('',#1791,#1435,#1436);
#1167=AXIS2_PLACEMENT_3D('',#1794,#1439,#1440);
#1168=AXIS2_PLACEMENT_3D('',#1796,#1442,#1443);
#1169=AXIS2_PLACEMENT_3D('',#1799,#1446,#1447);
#1170=AXIS2_PLACEMENT_3D('',#1800,#1448,#1449);
#1171=AXIS2_PLACEMENT_3D('',#1802,#1451,#1452);
#1172=AXIS2_PLACEMENT_3D('',#1804,#1454,#1455);
#1173=AXIS2_PLACEMENT_3D('',#1806,#1457,#1458);
#1174=AXIS2_PLACEMENT_3D('',#1808,#1460,#1461);
#1175=AXIS2_PLACEMENT_3D('',#1810,#1463,#1464);
#1176=AXIS2_PLACEMENT_3D('',#1812,#1466,#1467);
#1177=AXIS2_PLACEMENT_3D('',#1815,#1470,#1471);
#1178=AXIS2_PLACEMENT_3D('',#1816,#1472,#1473);
#1179=AXIS2_PLACEMENT_3D('',#1818,#1475,#1476);
#1180=AXIS2_PLACEMENT_3D('',#1820,#1478,#1479);
#1181=AXIS2_PLACEMENT_3D('',#1821,#1480,#1481);
#1182=AXIS2_PLACEMENT_3D('',#1823,#1483,#1484);
#1183=DIRECTION('axis',(0.,0.,1.));
#1184=DIRECTION('refdir',(1.,0.,0.));
#1185=DIRECTION('center_axis',(0.,0.,-1.));
#1186=DIRECTION('ref_axis',(1.,0.,0.));
#1187=DIRECTION('center_axis',(0.,0.,-1.));
#1188=DIRECTION('ref_axis',(1.,0.,0.));
#1189=DIRECTION('',(0.,0.,-1.));
#1190=DIRECTION('center_axis',(0.,0.,1.));
#1191=DIRECTION('ref_axis',(1.,0.,0.));
#1192=DIRECTION('center_axis',(0.,0.,-1.));
#1193=DIRECTION('ref_axis',(1.,0.,0.));
#1194=DIRECTION('center_axis',(0.,0.,-1.));
#1195=DIRECTION('ref_axis',(1.,0.,0.));
#1196=DIRECTION('',(0.,0.,-1.));
#1197=DIRECTION('center_axis',(0.,0.,1.));
#1198=DIRECTION('ref_axis',(1.,0.,0.));
#1199=DIRECTION('center_axis',(0.,0.,-1.));
#1200=DIRECTION('ref_axis',(-1.,-8.74191357972562E-17,0.));
#1201=DIRECTION('',(1.,1.24666681189914E-10,0.));
#1202=DIRECTION('center_axis',(0.,0.,-1.));
#1203=DIRECTION('ref_axis',(-1.,-8.74191357972562E-17,0.));
#1204=DIRECTION('',(1.73018927581894E-10,-1.,0.));
#1205=DIRECTION('center_axis',(0.,0.,-1.));
#1206=DIRECTION('ref_axis',(-1.,-8.74191357972562E-17,0.));
#1207=DIRECTION('center_axis',(0.,0.,-1.));
#1208=DIRECTION('ref_axis',(-1.,-8.74191357972562E-17,0.));
#1209=DIRECTION('center_axis',(1.,1.24666681189914E-10,0.));
#1210=DIRECTION('ref_axis',(0.,0.,1.));
#1211=DIRECTION('center_axis',(1.,1.73018927581894E-10,-6.44672363216057E-11));
#1212=DIRECTION('ref_axis',(0.,0.,1.));
#1213=DIRECTION('',(-1.,-1.24666681189914E-10,0.));
#1214=DIRECTION('center_axis',(-1.,-8.74191357972562E-17,0.));
#1215=DIRECTION('ref_axis',(0.,0.,1.));
#1216=DIRECTION('',(-1.,-1.24666681189914E-10,0.));
#1217=DIRECTION('center_axis',(1.73018927581894E-10,-1.,0.));
#1218=DIRECTION('ref_axis',(-0.707106781209343,-1.22343582453822E-10,-0.707106781163752));
#1219=DIRECTION('',(-1.73018927581894E-10,1.,0.));
#1220=DIRECTION('center_axis',(-7.17132712401104E-11,0.685696061436026,
0.727887979933122));
#1221=DIRECTION('ref_axis',(-1.70143468149945E-10,0.727887979933122,-0.685696061436026));
#1222=DIRECTION('',(1.73018927581894E-10,-1.,0.));
#1223=DIRECTION('center_axis',(0.,0.,1.));
#1224=DIRECTION('ref_axis',(1.,0.,0.));
#1225=DIRECTION('',(8.74191357972562E-17,-1.,0.));
#1226=DIRECTION('',(1.,-4.13163298446629E-11,0.));
#1227=DIRECTION('center_axis',(0.,0.,1.));
#1228=DIRECTION('ref_axis',(-4.13177803432153E-11,-1.,0.));
#1229=DIRECTION('',(1.9561884920315E-10,1.,0.));
#1230=DIRECTION('center_axis',(0.,0.,1.));
#1231=DIRECTION('ref_axis',(1.,-1.95617450496976E-10,0.));
#1232=DIRECTION('',(-1.95617402502101E-10,-1.,0.));
#1233=DIRECTION('center_axis',(0.,0.,1.));
#1234=DIRECTION('ref_axis',(0.707106781102779,-0.707106781270316,0.));
#1235=DIRECTION('',(-1.,4.13161998157772E-11,0.));
#1236=DIRECTION('center_axis',(0.,0.,1.));
#1237=DIRECTION('ref_axis',(-0.707106781201154,-0.707106781171941,0.));
#1238=DIRECTION('',(-1.31128703693174E-15,1.,0.));
#1239=DIRECTION('center_axis',(0.,0.,1.));
#1240=DIRECTION('ref_axis',(1.,1.3987061727561E-15,0.));
#1241=DIRECTION('',(4.37095678986281E-17,-1.,0.));
#1242=DIRECTION('center_axis',(0.,0.,1.));
#1243=DIRECTION('ref_axis',(-1.,0.,0.));
#1244=DIRECTION('',(1.,-4.13163298446629E-11,0.));
#1245=DIRECTION('',(0.,1.,0.));
#1246=DIRECTION('',(-1.,1.24667992476951E-10,0.));
#1247=DIRECTION('center_axis',(0.,0.,1.));
#1248=DIRECTION('ref_axis',(1.,0.,0.));
#1249=DIRECTION('',(-1.73018840162759E-10,-1.,0.));
#1250=DIRECTION('',(1.,-1.04584546026073E-10,0.));
#1251=DIRECTION('',(-1.73018840162759E-10,-1.,0.));
#1252=DIRECTION('',(1.,0.,0.));
#1253=DIRECTION('',(-0.707106781186548,0.707106781186548,0.));
#1254=DIRECTION('',(0.,-1.,0.));
#1255=DIRECTION('',(-0.707106781171943,0.707106781201152,0.));
#1256=DIRECTION('',(1.,-4.13163298446629E-11,0.));
#1257=DIRECTION('',(-0.707106781201158,-0.707106781171937,0.));
#1258=DIRECTION('',(-8.74191357972562E-17,1.,0.));
#1259=DIRECTION('',(-0.707106781186548,-0.707106781186548,0.));
#1260=DIRECTION('',(1.,8.74191357972562E-17,0.));
#1261=DIRECTION('',(-1.73018927581894E-10,1.,0.));
#1262=DIRECTION('',(1.,1.04584633445209E-10,0.));
#1263=DIRECTION('center_axis',(0.,0.,-1.));
#1264=DIRECTION('ref_axis',(-1.,0.,0.));
#1265=DIRECTION('center_axis',(0.,0.,-1.));
#1266=DIRECTION('ref_axis',(-1.,0.,0.));
#1267=DIRECTION('center_axis',(0.,0.,-1.));
#1268=DIRECTION('ref_axis',(-1.,0.,0.));
#1269=DIRECTION('center_axis',(0.,0.,-1.));
#1270=DIRECTION('ref_axis',(-1.,0.,0.));
#1271=DIRECTION('center_axis',(0.,0.,-1.));
#1272=DIRECTION('ref_axis',(-1.,0.,0.));
#1273=DIRECTION('center_axis',(0.,0.,-1.));
#1274=DIRECTION('ref_axis',(-1.,0.,0.));
#1275=DIRECTION('center_axis',(0.707106781171937,-0.707106781201158,0.));
#1276=DIRECTION('ref_axis',(0.,0.,-1.));
#1277=DIRECTION('',(0.,0.,-1.));
#1278=DIRECTION('',(0.707106781201158,0.707106781171937,0.));
#1279=DIRECTION('',(0.,0.,1.));
#1280=DIRECTION('center_axis',(0.,0.,1.));
#1281=DIRECTION('ref_axis',(1.,0.,0.));
#1282=DIRECTION('',(1.,-4.13163298446629E-11,0.));
#1283=DIRECTION('',(0.707106781171943,-0.707106781201152,0.));
#1284=DIRECTION('',(0.,1.,0.));
#1285=DIRECTION('',(0.707106781186548,-0.707106781186548,0.));
#1286=DIRECTION('',(-1.,0.,0.));
#1287=DIRECTION('',(0.,-1.,0.));
#1288=DIRECTION('',(1.,-4.13163298446629E-11,0.));
#1289=DIRECTION('center_axis',(0.,0.,1.));
#1290=DIRECTION('ref_axis',(-1.,0.,0.));
#1291=DIRECTION('',(4.37095678986281E-17,-1.,0.));
#1292=DIRECTION('center_axis',(0.,0.,1.));
#1293=DIRECTION('ref_axis',(1.,1.3987061727561E-15,0.));
#1294=DIRECTION('',(-1.31128703693174E-15,1.,0.));
#1295=DIRECTION('center_axis',(0.,0.,-1.));
#1296=DIRECTION('ref_axis',(-0.707106781201154,-0.707106781171941,0.));
#1297=DIRECTION('',(-1.,4.13161998157772E-11,0.));
#1298=DIRECTION('center_axis',(0.,0.,-1.));
#1299=DIRECTION('ref_axis',(0.707106781102779,-0.707106781270316,0.));
#1300=DIRECTION('',(-1.95617402502101E-10,-1.,0.));
#1301=DIRECTION('center_axis',(0.,0.,1.));
#1302=DIRECTION('ref_axis',(1.,-1.95617450496976E-10,0.));
#1303=DIRECTION('',(1.9561884920315E-10,1.,0.));
#1304=DIRECTION('center_axis',(0.,0.,1.));
#1305=DIRECTION('ref_axis',(-4.13177803432153E-11,-1.,0.));
#1306=DIRECTION('',(1.,-4.13163298446629E-11,0.));
#1307=DIRECTION('',(-8.74191357972562E-17,1.,0.));
#1308=DIRECTION('',(-1.,-8.74191357972562E-17,0.));
#1309=DIRECTION('',(0.707106781186548,0.707106781186548,0.));
#1310=DIRECTION('',(8.74191357972562E-17,-1.,0.));
#1311=DIRECTION('center_axis',(0.,0.,-1.));
#1312=DIRECTION('ref_axis',(-1.,0.,0.));
#1313=DIRECTION('center_axis',(0.,0.,-1.));
#1314=DIRECTION('ref_axis',(-1.,0.,0.));
#1315=DIRECTION('center_axis',(0.,0.,-1.));
#1316=DIRECTION('ref_axis',(-1.,0.,0.));
#1317=DIRECTION('center_axis',(0.,0.,-1.));
#1318=DIRECTION('ref_axis',(-1.,0.,0.));
#1319=DIRECTION('center_axis',(0.,0.,-1.));
#1320=DIRECTION('ref_axis',(-1.,0.,0.));
#1321=DIRECTION('center_axis',(0.,0.,-1.));
#1322=DIRECTION('ref_axis',(-1.,0.,0.));
#1323=DIRECTION('center_axis',(-4.13163298446628E-11,-1.,0.));
#1324=DIRECTION('ref_axis',(1.,-4.13163298446629E-11,0.));
#1325=DIRECTION('',(0.,0.,1.));
#1326=DIRECTION('center_axis',(0.707106781186548,-0.707106781186548,0.));
#1327=DIRECTION('ref_axis',(0.,0.,-1.));
#1328=DIRECTION('',(0.,0.,-1.));
#1329=DIRECTION('',(0.,0.,1.));
#1330=DIRECTION('center_axis',(1.,8.74191357972562E-17,0.));
#1331=DIRECTION('ref_axis',(8.74191357972562E-17,-1.,0.));
#1332=DIRECTION('center_axis',(-1.,-8.74191357972562E-17,0.));
#1333=DIRECTION('ref_axis',(-8.74191357972562E-17,1.,0.));
#1334=DIRECTION('',(0.,0.,-1.));
#1335=DIRECTION('center_axis',(-1.,-1.73018927581894E-10,6.44672363216057E-11));
#1336=DIRECTION('ref_axis',(7.36307972628405E-12,0.31150652888575,0.950244012062981));
#1337=DIRECTION('center_axis',(-1.,-1.73018927581894E-10,6.44672363216057E-11));
#1338=DIRECTION('ref_axis',(-1.14675275271864E-10,0.855651187220313,0.517552940102237));
#1339=DIRECTION('',(6.4467236321605E-11,4.42847995445244E-15,1.));
#1340=DIRECTION('',(-1.73018927581894E-10,1.,0.));
#1341=DIRECTION('',(0.,0.,-1.));
#1342=DIRECTION('center_axis',(8.74191357972562E-17,-1.,0.));
#1343=DIRECTION('ref_axis',(-1.,-8.74191357972562E-17,0.));
#1344=DIRECTION('center_axis',(-4.13163298446628E-11,-1.,0.));
#1345=DIRECTION('ref_axis',(1.,-4.13163298446629E-11,0.));
#1346=DIRECTION('',(0.,0.,1.));
#1347=DIRECTION('center_axis',(-1.,-1.73018642282893E-10,6.44672416936867E-11));
#1348=DIRECTION('ref_axis',(-7.36317370357348E-12,-0.31150652888575,-0.950244012062981));
#1349=DIRECTION('center_axis',(1.,1.73018927581894E-10,-6.44672363216057E-11));
#1350=DIRECTION('ref_axis',(-7.36307972628405E-12,-0.31150652888575,-0.950244012062981));
#1351=DIRECTION('',(-1.,-1.73018642282893E-10,6.44672416936867E-11));
#1352=DIRECTION('center_axis',(1.,1.73018927581894E-10,-6.44672363216057E-11));
#1353=DIRECTION('ref_axis',(-7.36307972628405E-12,-0.31150652888575,-0.950244012062981));
#1354=DIRECTION('center_axis',(7.17132712401104E-11,-0.685696061436026,
-0.727887979933122));
#1355=DIRECTION('ref_axis',(-1.70143327725171E-10,0.727887979933122,-0.685696061436026));
#1356=DIRECTION('',(-1.70143327725171E-10,0.727887979933122,-0.685696061436026));
#1357=DIRECTION('',(1.,1.73018642282893E-10,-6.44672416936867E-11));
#1358=DIRECTION('',(-1.70143327725171E-10,0.727887979933122,-0.685696061436026));
#1359=DIRECTION('center_axis',(-1.,-1.73018642282893E-10,6.44672416936867E-11));
#1360=DIRECTION('ref_axis',(7.36317370357348E-12,0.31150652888575,0.950244012062981));
#1361=DIRECTION('center_axis',(-1.,-1.73018927581894E-10,6.44672363216057E-11));
#1362=DIRECTION('ref_axis',(7.36307972628405E-12,0.31150652888575,0.950244012062981));
#1363=DIRECTION('center_axis',(-1.,-1.73018927581894E-10,6.44672363216057E-11));
#1364=DIRECTION('ref_axis',(7.36307972628405E-12,0.31150652888575,0.950244012062981));
#1365=DIRECTION('center_axis',(-1.,-1.73018927581894E-10,6.44672363216057E-11));
#1366=DIRECTION('ref_axis',(6.44672363216057E-11,5.63567008647226E-27,1.));
#1367=DIRECTION('center_axis',(-1.,-1.73018927581894E-10,6.44672363216057E-11));
#1368=DIRECTION('ref_axis',(6.44672363216057E-11,5.63567008647226E-27,1.));
#1369=DIRECTION('center_axis',(0.,0.,1.));
#1370=DIRECTION('ref_axis',(1.,0.,0.));
#1371=DIRECTION('',(1.73018840162759E-10,1.,0.));
#1372=DIRECTION('center_axis',(0.,0.,1.));
#1373=DIRECTION('ref_axis',(1.,0.,0.));
#1374=DIRECTION('',(1.,-1.24667992476951E-10,0.));
#1375=DIRECTION('center_axis',(0.,0.,1.));
#1376=DIRECTION('ref_axis',(1.,0.,0.));
#1377=DIRECTION('center_axis',(1.,-1.24667992476951E-10,0.));
#1378=DIRECTION('ref_axis',(0.,0.,1.));
#1379=DIRECTION('center_axis',(1.,0.,0.));
#1380=DIRECTION('ref_axis',(0.,0.,1.));
#1381=DIRECTION('',(-1.,1.24667992476951E-10,0.));
#1382=DIRECTION('center_axis',(-1.,1.73018840162759E-10,-6.44672363216057E-11));
#1383=DIRECTION('ref_axis',(0.,0.,1.));
#1384=DIRECTION('center_axis',(1.73018840162759E-10,1.,0.));
#1385=DIRECTION('ref_axis',(0.707106781209341,-1.22341604384583E-10,-0.707106781163754));
#1386=DIRECTION('',(1.73018840162759E-10,1.,0.));
#1387=DIRECTION('center_axis',(7.17132112971533E-11,0.685696061436026,0.727887979933122));
#1388=DIRECTION('ref_axis',(1.70143528092903E-10,0.727887979933122,-0.685696061436026));
#1389=DIRECTION('center_axis',(-1.,1.73018840162759E-10,-6.44672363216057E-11));
#1390=DIRECTION('ref_axis',(-6.44672363216057E-11,0.,1.));
#1391=DIRECTION('center_axis',(-1.,1.73018840162759E-10,-6.44672363216057E-11));
#1392=DIRECTION('ref_axis',(-7.36310695791561E-12,0.31150652888575,0.950244012062981));
#1393=DIRECTION('',(1.70143264093833E-10,0.727887979933122,-0.685696061436026));
#1394=DIRECTION('center_axis',(1.,-1.73018840162759E-10,6.44672363216057E-11));
#1395=DIRECTION('ref_axis',(7.36310695791561E-12,-0.31150652888575,-0.950244012062981));
#1396=DIRECTION('center_axis',(-1.,1.73018554863757E-10,-6.44672416936867E-11));
#1397=DIRECTION('ref_axis',(-7.36320093520503E-12,0.31150652888575,0.950244012062981));
#1398=DIRECTION('center_axis',(-1.,1.73018840162759E-10,-6.44672363216057E-11));
#1399=DIRECTION('ref_axis',(-7.36310695791561E-12,0.31150652888575,0.950244012062981));
#1400=DIRECTION('',(-1.,1.73018554863757E-10,-6.44672416936867E-11));
#1401=DIRECTION('center_axis',(-0.707106781201152,-0.707106781171943,0.));
#1402=DIRECTION('ref_axis',(0.,0.,1.));
#1403=DIRECTION('',(0.,0.,-1.));
#1404=DIRECTION('center_axis',(-0.707106781186548,-0.707106781186548,0.));
#1405=DIRECTION('ref_axis',(0.,0.,1.));
#1406=DIRECTION('',(0.,0.,-1.));
#1407=DIRECTION('',(0.,0.,1.));
#1408=DIRECTION('center_axis',(0.,1.,0.));
#1409=DIRECTION('ref_axis',(1.,0.,0.));
#1410=DIRECTION('',(0.,0.,-1.));
#1411=DIRECTION('center_axis',(-1.,0.,0.));
#1412=DIRECTION('ref_axis',(0.,1.,0.));
#1413=DIRECTION('',(-1.73018840162759E-10,-1.,0.));
#1414=DIRECTION('',(-6.4467236321605E-11,4.42847995444681E-15,1.));
#1415=DIRECTION('center_axis',(1.,-1.73018840162759E-10,6.44672363216057E-11));
#1416=DIRECTION('ref_axis',(1.14678544609167E-10,0.855651187220313,0.517552940102237));
#1417=DIRECTION('center_axis',(-1.,1.73018840162759E-10,-6.44672363216057E-11));
#1418=DIRECTION('ref_axis',(-7.36310695791561E-12,0.31150652888575,0.950244012062981));
#1419=DIRECTION('',(0.,0.,1.));
#1420=DIRECTION('center_axis',(1.,0.,0.));
#1421=DIRECTION('ref_axis',(0.,-1.,0.));
#1422=DIRECTION('center_axis',(-4.13163298446628E-11,-1.,0.));
#1423=DIRECTION('ref_axis',(1.,-4.13163298446629E-11,0.));
#1424=DIRECTION('',(0.,0.,1.));
#1425=DIRECTION('center_axis',(-1.,1.73018554863757E-10,-6.44672416936867E-11));
#1426=DIRECTION('ref_axis',(7.36320093520503E-12,-0.31150652888575,-0.950244012062981));
#1427=DIRECTION('',(1.,-1.73018554863757E-10,6.44672416936867E-11));
#1428=DIRECTION('center_axis',(1.,-1.73018840162759E-10,6.44672363216057E-11));
#1429=DIRECTION('ref_axis',(7.36310695791561E-12,-0.31150652888575,-0.950244012062981));
#1430=DIRECTION('center_axis',(7.17132112971533E-11,0.685696061436026,0.727887979933122));
#1431=DIRECTION('ref_axis',(1.70143264093833E-10,0.727887979933122,-0.685696061436026));
#1432=DIRECTION('',(1.70143264093833E-10,0.727887979933122,-0.685696061436026));
#1433=DIRECTION('center_axis',(-1.,1.73018840162759E-10,-6.44672363216057E-11));
#1434=DIRECTION('ref_axis',(-6.44672363216057E-11,0.,1.));
#1435=DIRECTION('center_axis',(0.,0.,1.));
#1436=DIRECTION('ref_axis',(-0.707106781201154,-0.707106781171941,0.));
#1437=DIRECTION('',(0.,0.,1.));
#1438=DIRECTION('',(0.,0.,-1.));
#1439=DIRECTION('center_axis',(1.,1.31128703693174E-15,0.));
#1440=DIRECTION('ref_axis',(-1.31128703693174E-15,1.,0.));
#1441=DIRECTION('',(0.,0.,1.));
#1442=DIRECTION('center_axis',(0.,0.,1.));
#1443=DIRECTION('ref_axis',(0.707106781102779,-0.707106781270316,0.));
#1444=DIRECTION('',(0.,0.,1.));
#1445=DIRECTION('',(0.,0.,-1.));
#1446=DIRECTION('center_axis',(4.13161998157772E-11,1.,0.));
#1447=DIRECTION('ref_axis',(-1.,4.13161998157772E-11,0.));
#1448=DIRECTION('center_axis',(0.,0.,1.));
#1449=DIRECTION('ref_axis',(-1.,0.,0.));
#1450=DIRECTION('',(0.,0.,-1.));
#1451=DIRECTION('center_axis',(0.,0.,1.));
#1452=DIRECTION('ref_axis',(-1.,0.,0.));
#1453=DIRECTION('',(0.,0.,-1.));
#1454=DIRECTION('center_axis',(0.,0.,1.));
#1455=DIRECTION('ref_axis',(-1.,0.,0.));
#1456=DIRECTION('',(0.,0.,-1.));
#1457=DIRECTION('center_axis',(0.,0.,1.));
#1458=DIRECTION('ref_axis',(-1.,0.,0.));
#1459=DIRECTION('',(0.,0.,-1.));
#1460=DIRECTION('center_axis',(0.,0.,1.));
#1461=DIRECTION('ref_axis',(-1.,0.,0.));
#1462=DIRECTION('',(0.,0.,-1.));
#1463=DIRECTION('center_axis',(0.,0.,1.));
#1464=DIRECTION('ref_axis',(-1.,0.,0.));
#1465=DIRECTION('',(0.,0.,-1.));
#1466=DIRECTION('center_axis',(1.,-1.9561884920315E-10,0.));
#1467=DIRECTION('ref_axis',(1.9561884920315E-10,1.,0.));
#1468=DIRECTION('',(0.,0.,1.));
#1469=DIRECTION('',(0.,0.,1.));
#1470=DIRECTION('center_axis',(0.,0.,1.));
#1471=DIRECTION('ref_axis',(-4.13177803432153E-11,-1.,0.));
#1472=DIRECTION('center_axis',(0.,0.,1.));
#1473=DIRECTION('ref_axis',(-1.,0.,0.));
#1474=DIRECTION('',(0.,0.,1.));
#1475=DIRECTION('center_axis',(-1.,-4.37095678986281E-17,0.));
#1476=DIRECTION('ref_axis',(4.37095678986281E-17,-1.,0.));
#1477=DIRECTION('',(0.,0.,1.));
#1478=DIRECTION('center_axis',(0.,0.,1.));
#1479=DIRECTION('ref_axis',(1.,1.3987061727561E-15,0.));
#1480=DIRECTION('center_axis',(-1.,1.95617402502101E-10,0.));
#1481=DIRECTION('ref_axis',(-1.95617402502101E-10,-1.,0.));
#1482=DIRECTION('',(0.,0.,1.));
#1483=DIRECTION('center_axis',(0.,0.,1.));
#1484=DIRECTION('ref_axis',(1.,-1.95617450496976E-10,0.));
#1485=CARTESIAN_POINT('',(0.,0.,0.));
#1486=CARTESIAN_POINT('Origin',(5.0305171411559,-1.75000000020659,0.25));
#1487=CARTESIAN_POINT('',(4.9445171411559,-1.75000000020659,0.25));
#1488=CARTESIAN_POINT('Origin',(5.0305171411559,-1.75000000020659,0.25));
#1489=CARTESIAN_POINT('',(4.9445171411559,-1.75000000020659,0.));
#1490=CARTESIAN_POINT('',(4.9445171411559,-1.75000000020659,0.25));
#1491=CARTESIAN_POINT('Origin',(5.0305171411559,-1.75000000020659,0.));
#1492=CARTESIAN_POINT('Origin',(1.7805171411559,-1.75000000007231,0.25));
#1493=CARTESIAN_POINT('',(1.6945171411559,-1.75000000007231,0.25));
#1494=CARTESIAN_POINT('Origin',(1.7805171411559,-1.75000000007231,0.25));
#1495=CARTESIAN_POINT('',(1.6945171411559,-1.75000000007231,0.));
#1496=CARTESIAN_POINT('',(1.6945171411559,-1.75000000007231,0.25));
#1497=CARTESIAN_POINT('Origin',(1.7805171411559,-1.75000000007231,0.));
#1498=CARTESIAN_POINT('Origin',(6.7805171402122,-1.75000000000001,0.375));
#1499=CARTESIAN_POINT('',(6.6231596109172,-1.64804482370095,0.375));
#1500=CARTESIAN_POINT('',(6.67520217944363,-1.64804482369446,0.375000000008058));
#1501=CARTESIAN_POINT('',(6.42520217947916,-1.64804482372562,0.375));
#1502=CARTESIAN_POINT('',(6.67520217944941,-1.59487099226925,0.375));
#1503=CARTESIAN_POINT('Origin',(6.7805171402122,-1.75000000000001,0.375));
#1504=CARTESIAN_POINT('',(6.67520217934475,-0.989990148164501,0.375000000008058));
#1505=CARTESIAN_POINT('Origin',(6.7805171402122,-1.75000000000001,0.25));
#1506=CARTESIAN_POINT('',(6.59443869949316,-1.77304482370453,0.25));
#1507=CARTESIAN_POINT('Ctrl Pts',(6.59443869949316,-1.77304482370453,0.25));
#1508=CARTESIAN_POINT('Ctrl Pts',(6.59249421411707,-1.75734382241141,0.25));
#1509=CARTESIAN_POINT('Ctrl Pts',(6.59261870565554,-1.74060209518018,0.253155247010141));
#1510=CARTESIAN_POINT('Ctrl Pts',(6.59668027626067,-1.71002313552393,0.265789467087989));
#1511=CARTESIAN_POINT('Ctrl Pts',(6.60053579959807,-1.69616899816195,0.27525360106316));
#1512=CARTESIAN_POINT('Ctrl Pts',(6.60865664001306,-1.67409122182251,0.297027037648566));
#1513=CARTESIAN_POINT('Ctrl Pts',(6.61352747623387,-1.6644043785411,0.310948841189919));
#1514=CARTESIAN_POINT('Ctrl Pts',(6.6208739751232,-1.65137837206107,0.341795139531737));
#1515=CARTESIAN_POINT('Ctrl Pts',(6.6231596109172,-1.64804482370095,0.358766952034736));
#1516=CARTESIAN_POINT('Ctrl Pts',(6.6231596109172,-1.64804482370095,0.375));
#1517=CARTESIAN_POINT('',(6.80020217944398,-1.56353619860563,0.25));
#1518=CARTESIAN_POINT('Origin',(6.7805171402122,-1.75000000000001,0.25));
#1519=CARTESIAN_POINT('Ctrl Pts',(6.67520217944941,-1.59487099226925,0.375));
#1520=CARTESIAN_POINT('Ctrl Pts',(6.67520217944941,-1.59487099226925,0.358743431648061));
#1521=CARTESIAN_POINT('Ctrl Pts',(6.67854325758778,-1.59247318679322,0.341778180687299));
#1522=CARTESIAN_POINT('Ctrl Pts',(6.69155223498035,-1.58477709702997,0.310970464100829));
#1523=CARTESIAN_POINT('Ctrl Pts',(6.7012152631581,-1.57967511936681,0.297077235968707));
#1524=CARTESIAN_POINT('Ctrl Pts',(6.72323479118049,-1.57108308402908,0.275327084029241));
#1525=CARTESIAN_POINT('Ctrl Pts',(6.73706542785604,-1.56694954157365,0.265854370706958));
#1526=CARTESIAN_POINT('Ctrl Pts',(6.7676513830447,-1.56230345219914,0.253182660053119));
#1527=CARTESIAN_POINT('Ctrl Pts',(6.78442552685062,-1.56187065267701,0.25));
#1528=CARTESIAN_POINT('Ctrl Pts',(6.80020217944398,-1.56353619860563,0.25));
#1529=CARTESIAN_POINT('Origin',(6.42520217949474,-1.77304482372562,0.375));
#1530=CARTESIAN_POINT('',(6.67520217946777,-1.67304482370421,0.450000000013008));
#1531=CARTESIAN_POINT('Origin',(6.67520217946526,-1.77304482369446,0.375));
#1532=CARTESIAN_POINT('',(6.42520217946777,-1.67304482373538,0.450000000013008));
#1533=CARTESIAN_POINT('',(6.42520217948227,-1.67304482373538,0.450000000013008));
#1534=CARTESIAN_POINT('',(6.42520217942881,-1.77304482372562,0.25));
#1535=CARTESIAN_POINT('Origin',(6.42520217942881,-1.77304482372562,0.375));
#1536=CARTESIAN_POINT('',(6.42520217949474,-1.77304482372562,0.25));
#1537=CARTESIAN_POINT('Origin',(6.80020217934475,-0.989990148142873,0.375));
#1538=CARTESIAN_POINT('',(6.80020217930096,-0.736915769761509,0.25));
#1539=CARTESIAN_POINT('',(6.80020217934475,-0.989990148142873,0.25));
#1540=CARTESIAN_POINT('',(6.67520217932392,-0.869607209341783,0.375000000008058));
#1541=CARTESIAN_POINT('Origin',(6.80020217932392,-0.869607209320156,0.375));
#1542=CARTESIAN_POINT('',(6.67520217934475,-0.989990148164501,0.375000000008058));
#1543=CARTESIAN_POINT('Origin',(3.40551714135152,-0.750000000139451,0.25));
#1544=CARTESIAN_POINT('',(6.42520217942881,-2.00000000001469,0.25));
#1545=CARTESIAN_POINT('',(6.42520217942881,-1.41513766846686,0.25));
#1546=CARTESIAN_POINT('',(6.78051714020187,-2.0000000002789,0.25));
#1547=CARTESIAN_POINT('',(0.0305171420892703,-2.00000000000001,0.25));
#1548=CARTESIAN_POINT('',(7.0305171402122,-1.7500000003278,0.25));
#1549=CARTESIAN_POINT('Origin',(6.7805171402122,-1.7500000002789,0.25));
#1550=CARTESIAN_POINT('',(7.03051714060344,0.249999999672207,0.25));
#1551=CARTESIAN_POINT('',(7.0305171402122,-1.7500000003278,0.25));
#1552=CARTESIAN_POINT('',(6.53051714060343,0.249999999770015,0.25));
#1553=CARTESIAN_POINT('Origin',(6.78051714060344,0.249999999721111,0.25));
#1554=CARTESIAN_POINT('',(6.53051714055453,-3.07142281861624E-10,0.25));
#1555=CARTESIAN_POINT('',(6.53051714060627,0.264500755183172,0.25));
#1556=CARTESIAN_POINT('',(6.2805171405442,-0.250000000258238,0.25));
#1557=CARTESIAN_POINT('Origin',(6.28051714055453,-2.58237919237379E-10,
0.25));
#1558=CARTESIAN_POINT('',(0.530517142089271,-0.25000000002067,0.25));
#1559=CARTESIAN_POINT('',(6.53051714050563,-0.250000000268567,0.25));
#1560=CARTESIAN_POINT('',(0.280517142099601,-2.06700798209897E-11,0.25));
#1561=CARTESIAN_POINT('Origin',(0.530517142099601,-2.06697729807134E-11,
0.25));
#1562=CARTESIAN_POINT('',(0.2805171420996,0.249999999999994,0.25));
#1563=CARTESIAN_POINT('',(0.280517142099601,-0.250000000010341,0.25));
#1564=CARTESIAN_POINT('',(-0.219482857900401,0.249999999999994,0.25));
#1565=CARTESIAN_POINT('Origin',(0.0305171420996005,0.249999999999994,0.25));
#1566=CARTESIAN_POINT('',(-0.219482857900399,-1.75000000000001,0.25));
#1567=CARTESIAN_POINT('',(-0.2194828579004,0.249999999999994,0.25));
#1568=CARTESIAN_POINT('',(0.0305171420892703,-2.00000000000001,0.25));
#1569=CARTESIAN_POINT('Origin',(0.0305171420995998,-1.75000000000001,0.25));
#1570=CARTESIAN_POINT('',(0.385832102882986,-2.00000000001469,0.25));
#1571=CARTESIAN_POINT('',(0.0305171420892703,-2.00000000000001,0.25));
#1572=CARTESIAN_POINT('',(0.385832102882986,-1.77304482372562,0.25));
#1573=CARTESIAN_POINT('',(0.385832102882986,-1.41513766846686,0.25));
#1574=CARTESIAN_POINT('',(0.216595582818636,-1.77304482370453,0.25));
#1575=CARTESIAN_POINT('',(0.38583210281706,-1.77304482372562,0.25));
#1576=CARTESIAN_POINT('',(0.0108321028678134,-1.56353619860563,0.25));
#1577=CARTESIAN_POINT('Origin',(0.0305171420995998,-1.75000000000001,0.25));
#1578=CARTESIAN_POINT('',(0.0108321030108343,-0.73691576976151,0.25));
#1579=CARTESIAN_POINT('',(0.0108321029670476,-0.989990148142874,0.25));
#1580=CARTESIAN_POINT('',(0.385832103018893,-0.736915769842153,0.250000000039023));
#1581=CARTESIAN_POINT('',(1.89567462214942,-0.736915769958635,0.25));
#1582=CARTESIAN_POINT('',(0.385832102882986,-0.875000000000011,0.25));
#1583=CARTESIAN_POINT('',(0.385832102975106,-0.989990148207756,0.25));
#1584=CARTESIAN_POINT('',(0.979582102882986,-0.875000000000011,0.25));
#1585=CARTESIAN_POINT('',(1.89567462211725,-0.875000000000011,0.25));
#1586=CARTESIAN_POINT('',(1.01083210288299,-0.906250000000011,0.25));
#1587=CARTESIAN_POINT('',(1.56262836253498,-1.458046259652,0.25));
#1588=CARTESIAN_POINT('',(1.01083210288299,-1.96875000004051,0.25));
#1589=CARTESIAN_POINT('',(1.01083210288299,-0.812500000069731,0.25));
#1590=CARTESIAN_POINT('',(1.04208210288299,-2.00000000004181,0.25));
#1591=CARTESIAN_POINT('',(1.31262836250012,-2.27054625967012,0.25));
#1592=CARTESIAN_POINT('',(5.76895217942881,-2.0000000002371,0.25));
#1593=CARTESIAN_POINT('',(0.0305171420892703,-2.00000000000001,0.25));
#1594=CARTESIAN_POINT('',(5.80020217942881,-1.96875000023839,0.25));
#1595=CARTESIAN_POINT('',(5.49840591990949,-2.27054625974525,0.25));
#1596=CARTESIAN_POINT('',(5.80020217942881,-0.906250000000011,0.25));
#1597=CARTESIAN_POINT('',(5.80020217942881,-0.812500000069731,0.25));
#1598=CARTESIAN_POINT('',(5.83145217942881,-0.875000000000011,0.25));
#1599=CARTESIAN_POINT('',(5.24840591987463,-1.45804625955419,0.25));
#1600=CARTESIAN_POINT('',(6.42520217942881,-0.875000000000011,0.25));
#1601=CARTESIAN_POINT('',(4.91535966039017,-0.875000000000011,0.25));
#1602=CARTESIAN_POINT('',(6.42520217929291,-0.736915769842153,0.250000000039023));
#1603=CARTESIAN_POINT('',(6.42520217933669,-0.989990148207755,0.25));
#1604=CARTESIAN_POINT('',(4.915359660358,-0.736915769958635,0.25));
#1605=CARTESIAN_POINT('',(6.8665171402122,-1.7500000002789,0.25));
#1606=CARTESIAN_POINT('Origin',(6.7805171402122,-1.7500000002789,0.25));
#1607=CARTESIAN_POINT('',(0.1165171420996,0.249999999999994,0.25));
#1608=CARTESIAN_POINT('Origin',(0.0305171420996005,0.249999999999994,0.25));
#1609=CARTESIAN_POINT('',(6.86651714060344,0.249999999721111,0.25));
#1610=CARTESIAN_POINT('Origin',(6.78051714060344,0.249999999721111,0.25));
#1611=CARTESIAN_POINT('',(6.86651714050563,-0.250000000278891,0.25));
#1612=CARTESIAN_POINT('Origin',(6.78051714050563,-0.250000000278891,0.25));
#1613=CARTESIAN_POINT('',(0.116517142099602,-0.250000000000008,0.25));
#1614=CARTESIAN_POINT('Origin',(0.0305171420996012,-0.250000000000008,0.25));
#1615=CARTESIAN_POINT('',(0.1165171420996,-1.75000000000001,0.25));
#1616=CARTESIAN_POINT('Origin',(0.0305171420995998,-1.75000000000001,0.25));
#1617=CARTESIAN_POINT('Origin',(5.78457717942881,-1.98437500023775,0.125));
#1618=CARTESIAN_POINT('',(5.76895217942881,-2.0000000002371,0.));
#1619=CARTESIAN_POINT('',(5.76895217942881,-2.0000000002371,0.125));
#1620=CARTESIAN_POINT('',(5.80020217942881,-1.96875000023839,0.));
#1621=CARTESIAN_POINT('',(5.49840591990949,-2.27054625974525,0.));
#1622=CARTESIAN_POINT('',(5.80020217942881,-1.96875000023839,0.125));
#1623=CARTESIAN_POINT('Origin',(3.40551714135152,-0.750000000139451,0.));
#1624=CARTESIAN_POINT('',(1.04208210288299,-2.00000000004181,0.));
#1625=CARTESIAN_POINT('',(0.0305171420892703,-2.00000000000001,0.));
#1626=CARTESIAN_POINT('',(1.01083210288299,-1.96875000004051,0.));
#1627=CARTESIAN_POINT('',(1.31262836250012,-2.27054625967012,0.));
#1628=CARTESIAN_POINT('',(1.01083210288299,-0.906250000000011,0.));
#1629=CARTESIAN_POINT('',(1.01083210288299,-0.812500000069731,0.));
#1630=CARTESIAN_POINT('',(0.979582102882986,-0.875000000000011,0.));
#1631=CARTESIAN_POINT('',(1.56262836253498,-1.458046259652,0.));
#1632=CARTESIAN_POINT('',(0.385832102882986,-0.875000000000011,0.));
#1633=CARTESIAN_POINT('',(1.89567462211725,-0.875000000000011,0.));
#1634=CARTESIAN_POINT('',(0.385832102882986,-2.00000000001469,0.));
#1635=CARTESIAN_POINT('',(0.385832102882986,-1.41513766846686,0.));
#1636=CARTESIAN_POINT('',(0.0305171420892703,-2.00000000000001,0.));
#1637=CARTESIAN_POINT('',(0.0305171420892703,-2.00000000000001,0.));
#1638=CARTESIAN_POINT('',(-0.2194828579004,-1.75000000000001,0.));
#1639=CARTESIAN_POINT('Origin',(0.0305171420995998,-1.75000000000001,0.));
#1640=CARTESIAN_POINT('',(-0.2194828579004,0.249999999999994,0.));
#1641=CARTESIAN_POINT('',(-0.2194828579004,0.249999999999994,0.));
#1642=CARTESIAN_POINT('',(0.2805171420996,0.249999999999994,0.));
#1643=CARTESIAN_POINT('Origin',(0.0305171420996005,0.249999999999994,0.));
#1644=CARTESIAN_POINT('',(0.280517142099601,-2.06700798209897E-11,0.));
#1645=CARTESIAN_POINT('',(0.280517142099601,-0.250000000010341,0.));
#1646=CARTESIAN_POINT('',(0.530517142089271,-0.25000000002067,0.));
#1647=CARTESIAN_POINT('Origin',(0.530517142099601,-2.06697729807134E-11,
0.));
#1648=CARTESIAN_POINT('',(6.2805171405442,-0.250000000258238,0.));
#1649=CARTESIAN_POINT('',(6.53051714050563,-0.250000000268567,0.));
#1650=CARTESIAN_POINT('',(6.53051714055453,-3.07142281861624E-10,0.));
#1651=CARTESIAN_POINT('Origin',(6.28051714055453,-2.58237919237379E-10,
0.));
#1652=CARTESIAN_POINT('',(6.53051714060343,0.249999999770015,0.));
#1653=CARTESIAN_POINT('',(6.53051714060627,0.264500755183172,0.));
#1654=CARTESIAN_POINT('',(7.03051714060344,0.249999999672207,0.));
#1655=CARTESIAN_POINT('Origin',(6.78051714060344,0.249999999721111,0.));
#1656=CARTESIAN_POINT('',(7.0305171402122,-1.7500000003278,0.));
#1657=CARTESIAN_POINT('',(7.0305171402122,-1.7500000003278,0.));
#1658=CARTESIAN_POINT('',(6.78051714020187,-2.0000000002789,0.));
#1659=CARTESIAN_POINT('Origin',(6.7805171402122,-1.7500000002789,0.));
#1660=CARTESIAN_POINT('',(6.42520217942881,-2.00000000001469,0.));
#1661=CARTESIAN_POINT('',(0.0305171420892703,-2.00000000000001,0.));
#1662=CARTESIAN_POINT('',(6.42520217942881,-0.875000000000011,0.));
#1663=CARTESIAN_POINT('',(6.42520217942881,-1.41513766846686,0.));
#1664=CARTESIAN_POINT('',(5.83145217942881,-0.875000000000011,0.));
#1665=CARTESIAN_POINT('',(4.91535966039017,-0.875000000000011,0.));
#1666=CARTESIAN_POINT('',(5.80020217942881,-0.906250000000011,0.));
#1667=CARTESIAN_POINT('',(5.24840591987463,-1.45804625955419,0.));
#1668=CARTESIAN_POINT('',(5.80020217942881,-0.812500000069731,0.));
#1669=CARTESIAN_POINT('',(0.1165171420996,-1.75000000000001,0.));
#1670=CARTESIAN_POINT('Origin',(0.0305171420995998,-1.75000000000001,0.));
#1671=CARTESIAN_POINT('',(0.116517142099601,0.249999999999994,0.));
#1672=CARTESIAN_POINT('Origin',(0.0305171420996005,0.249999999999994,0.));
#1673=CARTESIAN_POINT('',(6.86651714060344,0.249999999721111,0.));
#1674=CARTESIAN_POINT('Origin',(6.78051714060344,0.249999999721111,0.));
#1675=CARTESIAN_POINT('',(6.8665171402122,-1.7500000002789,0.));
#1676=CARTESIAN_POINT('Origin',(6.7805171402122,-1.7500000002789,0.));
#1677=CARTESIAN_POINT('',(6.86651714050563,-0.250000000278891,0.));
#1678=CARTESIAN_POINT('Origin',(6.78051714050563,-0.250000000278891,0.));
#1679=CARTESIAN_POINT('',(0.116517142099601,-0.250000000000008,0.));
#1680=CARTESIAN_POINT('Origin',(0.0305171420996012,-0.250000000000008,0.));
#1681=CARTESIAN_POINT('Origin',(0.0305171420892703,-2.00000000000001,0.));
#1682=CARTESIAN_POINT('',(1.04208210288299,-2.00000000004181,0.125));
#1683=CARTESIAN_POINT('Origin',(5.81582717942881,-0.890625000000011,0.25));
#1684=CARTESIAN_POINT('',(5.80020217942881,-0.906250000000011,0.25));
#1685=CARTESIAN_POINT('',(5.83145217942881,-0.875000000000011,0.25));
#1686=CARTESIAN_POINT('Origin',(5.80020217942881,-0.875000000000011,0.25));
#1687=CARTESIAN_POINT('Origin',(6.42520217942881,-2.08027533679427,0.25));
#1688=CARTESIAN_POINT('',(6.42520217942881,-2.00000000026422,0.125));
#1689=CARTESIAN_POINT('',(6.42520217944864,-1.58911430085065,0.378577606215101));
#1690=CARTESIAN_POINT('Origin',(6.42520217944283,-1.47304482375489,0.600000000039023));
#1691=CARTESIAN_POINT('',(6.42520217942992,-1.52214903939854,0.26786640930314));
#1692=CARTESIAN_POINT('Origin',(6.42520217945155,-1.64714903939854,0.26786640930314));
#1693=CARTESIAN_POINT('',(6.42520217942877,-1.52214903939854,0.250000000039023));
#1694=CARTESIAN_POINT('',(6.42520217942877,-1.52214903939854,0.250000000039023));
#1695=CARTESIAN_POINT('',(6.42520217933669,-0.989990148207755,0.25));
#1696=CARTESIAN_POINT('',(6.42520217942881,-0.875000000000011,0.25));
#1697=CARTESIAN_POINT('Origin',(6.42520217942881,-0.875000000000011,0.25));
#1698=CARTESIAN_POINT('Origin',(0.0305171420892703,-2.00000000000001,0.));
#1699=CARTESIAN_POINT('',(6.78051714020187,-2.0000000002789,0.));
#1700=CARTESIAN_POINT('Origin',(6.42520217944283,-1.47304482375489,0.600000000039023));
#1701=CARTESIAN_POINT('',(6.67520217944347,-1.44625526222746,0.681720985060323));
#1702=CARTESIAN_POINT('Origin',(6.67520217944283,-1.47304482371164,0.600000000022906));
#1703=CARTESIAN_POINT('',(6.42520217944347,-1.44625526227072,0.68172098507644));
#1704=CARTESIAN_POINT('',(6.42520217944347,-1.44625526227072,0.68172098507644));
#1705=CARTESIAN_POINT('Origin',(6.42520217944283,-1.47304482375489,0.600000000039023));
#1706=CARTESIAN_POINT('Origin',(6.4252021794249,-1.30162080839588,0.781971995022304));
#1707=CARTESIAN_POINT('',(6.4252021794249,-1.30162080839588,0.781971995022304));
#1708=CARTESIAN_POINT('',(6.4252021794249,-1.30162080839588,0.781971995022304));
#1709=CARTESIAN_POINT('',(6.67520217942491,-1.30162080835263,0.781971995006187));
#1710=CARTESIAN_POINT('',(6.4252021794249,-1.30162080839588,0.781971995022304));
#1711=CARTESIAN_POINT('',(6.67520217942491,-1.30162080835263,0.781971995006187));
#1712=CARTESIAN_POINT('Origin',(6.42520217944283,-1.47304482375489,0.600000000039023));
#1713=CARTESIAN_POINT('Origin',(6.67520217944283,-1.47304482371164,0.600000000022906));
#1714=CARTESIAN_POINT('Origin',(6.42520217944283,-1.47304482375489,0.600000000039023));
#1715=CARTESIAN_POINT('Origin',(6.67520217939756,-1.22998029675527,0.550000000022906));
#1716=CARTESIAN_POINT('Origin',(6.42520217939756,-1.22998029679852,0.550000000039023));
#1717=CARTESIAN_POINT('Origin',(0.0305171420995998,-1.75000000000001,0.375));
#1718=CARTESIAN_POINT('',(0.135832102868168,-1.64804482369446,0.375000000008058));
#1719=CARTESIAN_POINT('',(0.135832102862392,-1.59487099226925,0.375));
#1720=CARTESIAN_POINT('',(0.135832102967048,-0.989990148164501,0.375000000008058));
#1721=CARTESIAN_POINT('',(0.187874671394607,-1.64804482370096,0.375));
#1722=CARTESIAN_POINT('Origin',(0.0305171420995998,-1.75000000000001,0.375));
#1723=CARTESIAN_POINT('',(0.385832102832643,-1.64804482372562,0.375));
#1724=CARTESIAN_POINT('Origin',(0.0305171420995998,-1.75000000000001,0.25));
#1725=CARTESIAN_POINT('Ctrl Pts',(0.0108321028678134,-1.56353619860563,
0.25));
#1726=CARTESIAN_POINT('Ctrl Pts',(0.0266087554611756,-1.56187065267701,
0.25));
#1727=CARTESIAN_POINT('Ctrl Pts',(0.0433828992670931,-1.56230345219914,
0.253182660053118));
#1728=CARTESIAN_POINT('Ctrl Pts',(0.073968854455754,-1.56694954157365,0.265854370706958));
#1729=CARTESIAN_POINT('Ctrl Pts',(0.0877994911313111,-1.57108308402908,
0.275327084029242));
#1730=CARTESIAN_POINT('Ctrl Pts',(0.109819019153698,-1.57967511936681,0.297077235968707));
#1731=CARTESIAN_POINT('Ctrl Pts',(0.119482047331453,-1.58477709702997,0.310970464100829));
#1732=CARTESIAN_POINT('Ctrl Pts',(0.132491024724022,-1.59247318679322,0.341778180687299));
#1733=CARTESIAN_POINT('Ctrl Pts',(0.135832102862392,-1.59487099226925,0.358743431648061));
#1734=CARTESIAN_POINT('Ctrl Pts',(0.135832102862392,-1.59487099226925,0.375));
#1735=CARTESIAN_POINT('Ctrl Pts',(0.187874671394599,-1.64804482370095,0.375));
#1736=CARTESIAN_POINT('Ctrl Pts',(0.187874671394599,-1.64804482370095,0.358766952034736));
#1737=CARTESIAN_POINT('Ctrl Pts',(0.190160307188603,-1.65137837206107,0.341795139531737));
#1738=CARTESIAN_POINT('Ctrl Pts',(0.197506806077931,-1.6644043785411,0.310948841189919));
#1739=CARTESIAN_POINT('Ctrl Pts',(0.202377642298741,-1.67409122182251,0.297027037648566));
#1740=CARTESIAN_POINT('Ctrl Pts',(0.210498482713728,-1.69616899816195,0.27525360106316));
#1741=CARTESIAN_POINT('Ctrl Pts',(0.214354006051133,-1.71002313552392,0.26578946708799));
#1742=CARTESIAN_POINT('Ctrl Pts',(0.218415576656258,-1.74060209518018,0.253155247010141));
#1743=CARTESIAN_POINT('Ctrl Pts',(0.218540068194728,-1.75734382241141,0.25));
#1744=CARTESIAN_POINT('Ctrl Pts',(0.216595582818636,-1.77304482370453,0.25));
#1745=CARTESIAN_POINT('Origin',(0.38583210281706,-1.77304482372562,0.375));
#1746=CARTESIAN_POINT('',(0.385832102844031,-1.67304482373538,0.450000000013008));
#1747=CARTESIAN_POINT('Origin',(0.385832102882986,-1.77304482372562,0.375));
#1748=CARTESIAN_POINT('',(0.135832102844031,-1.67304482370421,0.450000000013008));
#1749=CARTESIAN_POINT('',(0.385832102829526,-1.67304482373538,0.450000000013008));
#1750=CARTESIAN_POINT('Origin',(0.13583210284654,-1.77304482369446,0.375));
#1751=CARTESIAN_POINT('Origin',(0.0108321029670476,-0.989990148142874,0.375));
#1752=CARTESIAN_POINT('',(0.135832102987876,-0.869607209341783,0.375000000008058));
#1753=CARTESIAN_POINT('',(0.135832102967048,-0.989990148164501,0.375000000008058));
#1754=CARTESIAN_POINT('Origin',(0.0108321029878762,-0.869607209320156,0.375));
#1755=CARTESIAN_POINT('Origin',(0.135832102914243,-1.22998029675527,0.550000000022906));
#1756=CARTESIAN_POINT('',(0.135832102886893,-1.30162080835263,0.781971995006187));
#1757=CARTESIAN_POINT('Origin',(0.135832102868965,-1.47304482371164,0.600000000022906));
#1758=CARTESIAN_POINT('',(0.135832102886893,-1.30162080835263,0.781971995006187));
#1759=CARTESIAN_POINT('',(0.135832102868332,-1.44625526222746,0.681720985060323));
#1760=CARTESIAN_POINT('Origin',(0.135832102868965,-1.47304482371164,0.600000000022906));
#1761=CARTESIAN_POINT('Origin',(0.385832102868965,-1.47304482375489,0.600000000039023));
#1762=CARTESIAN_POINT('',(0.385832102886893,-1.30162080839589,0.781971995022304));
#1763=CARTESIAN_POINT('Origin',(0.385832102868965,-1.47304482375489,0.600000000039023));
#1764=CARTESIAN_POINT('',(0.385832102886893,-1.30162080839589,0.781971995022304));
#1765=CARTESIAN_POINT('Origin',(1.02645710288299,-1.98437500004116,0.125));
#1766=CARTESIAN_POINT('',(1.01083210288299,-1.96875000004051,0.125));
#1767=CARTESIAN_POINT('Origin',(0.995207102882986,-0.890625000000011,0.25));
#1768=CARTESIAN_POINT('',(0.979582102882986,-0.875000000000011,0.25));
#1769=CARTESIAN_POINT('',(1.01083210288299,-0.906250000000011,0.25));
#1770=CARTESIAN_POINT('Origin',(0.385832102882986,-0.875000000000011,0.25));
#1771=CARTESIAN_POINT('',(0.385832102882986,-0.875000000000011,0.25));
#1772=CARTESIAN_POINT('Origin',(0.385832102882986,-2.08027533679427,0.25));
#1773=CARTESIAN_POINT('',(0.385832102883033,-1.52214903939854,0.250000000039023));
#1774=CARTESIAN_POINT('',(0.385832102975106,-0.989990148207756,0.25));
#1775=CARTESIAN_POINT('',(0.385832102881881,-1.52214903939854,0.26786640930314));
#1776=CARTESIAN_POINT('',(0.385832102883033,-1.52214903939854,0.250000000039023));
#1777=CARTESIAN_POINT('',(0.385832102863157,-1.58911430085065,0.378577606215101));
#1778=CARTESIAN_POINT('Origin',(0.385832102860254,-1.64714903939854,0.26786640930314));
#1779=CARTESIAN_POINT('Origin',(0.385832102868965,-1.47304482375489,0.600000000039023));
#1780=CARTESIAN_POINT('',(0.385832102882986,-2.00000000001469,0.125));
#1781=CARTESIAN_POINT('Origin',(1.01083210288299,-0.875000000000011,0.25));
#1782=CARTESIAN_POINT('Origin',(0.0305171420892703,-2.00000000000001,0.));
#1783=CARTESIAN_POINT('',(0.0305171420892703,-2.00000000000001,0.));
#1784=CARTESIAN_POINT('Origin',(0.385832102868965,-1.47304482375489,0.600000000039023));
#1785=CARTESIAN_POINT('',(0.385832102868332,-1.44625526227072,0.68172098507644));
#1786=CARTESIAN_POINT('',(0.385832102868332,-1.44625526227072,0.68172098507644));
#1787=CARTESIAN_POINT('Origin',(0.385832102868965,-1.47304482375489,0.600000000039023));
#1788=CARTESIAN_POINT('Origin',(0.385832102886893,-1.30162080839589,0.781971995022304));
#1789=CARTESIAN_POINT('',(0.385832102886893,-1.30162080839589,0.781971995022304));
#1790=CARTESIAN_POINT('Origin',(0.385832102914243,-1.22998029679852,0.550000000039023));
#1791=CARTESIAN_POINT('Origin',(0.530517142099601,-2.06697729807134E-11,
0.));
#1792=CARTESIAN_POINT('',(0.280517142099601,-2.06701008024726E-11,0.));
#1793=CARTESIAN_POINT('',(0.530517142089272,-0.25000000002067,0.));
#1794=CARTESIAN_POINT('Origin',(0.280517142099601,-0.250000000010341,0.));
#1795=CARTESIAN_POINT('',(0.2805171420996,0.249999999999994,0.));
#1796=CARTESIAN_POINT('Origin',(6.28051714055453,-2.58237919237379E-10,
0.));
#1797=CARTESIAN_POINT('',(6.2805171405442,-0.250000000258238,0.));
#1798=CARTESIAN_POINT('',(6.53051714055453,-3.07142269862905E-10,0.));
#1799=CARTESIAN_POINT('Origin',(6.53051714050563,-0.250000000268567,0.));
#1800=CARTESIAN_POINT('Origin',(0.0305171420995998,-1.75000000000001,0.));
#1801=CARTESIAN_POINT('',(0.1165171420996,-1.75000000000001,0.));
#1802=CARTESIAN_POINT('Origin',(0.0305171420996005,0.249999999999994,0.));
#1803=CARTESIAN_POINT('',(0.116517142099601,0.249999999999994,0.));
#1804=CARTESIAN_POINT('Origin',(6.78051714060344,0.249999999721111,0.));
#1805=CARTESIAN_POINT('',(6.86651714060344,0.249999999721111,0.));
#1806=CARTESIAN_POINT('Origin',(6.7805171402122,-1.7500000002789,0.));
#1807=CARTESIAN_POINT('',(6.8665171402122,-1.7500000002789,0.));
#1808=CARTESIAN_POINT('Origin',(6.78051714050563,-0.250000000278891,0.));
#1809=CARTESIAN_POINT('',(6.86651714050563,-0.250000000278891,0.));
#1810=CARTESIAN_POINT('Origin',(0.0305171420996012,-0.250000000000008,0.));
#1811=CARTESIAN_POINT('',(0.116517142099601,-0.250000000000008,0.));
#1812=CARTESIAN_POINT('Origin',(7.0305171402122,-1.7500000003278,0.));
#1813=CARTESIAN_POINT('',(7.03051714060344,0.249999999672207,0.));
#1814=CARTESIAN_POINT('',(7.0305171402122,-1.7500000003278,0.));
#1815=CARTESIAN_POINT('Origin',(6.7805171402122,-1.7500000002789,0.));
#1816=CARTESIAN_POINT('Origin',(0.0305171420995998,-1.75000000000001,0.));
#1817=CARTESIAN_POINT('',(-0.2194828579004,-1.75000000000001,0.));
#1818=CARTESIAN_POINT('Origin',(-0.2194828579004,0.249999999999994,0.));
#1819=CARTESIAN_POINT('',(-0.2194828579004,0.249999999999994,0.));
#1820=CARTESIAN_POINT('Origin',(0.0305171420996005,0.249999999999994,0.));
#1821=CARTESIAN_POINT('Origin',(6.53051714060344,0.249999999770015,0.));
#1822=CARTESIAN_POINT('',(6.53051714060343,0.249999999770015,0.));
#1823=CARTESIAN_POINT('Origin',(6.78051714060344,0.249999999721111,0.));
#1824=UNCERTAINTY_MEASURE_WITH_UNIT(LENGTH_MEASURE(0.000393700787401575),
#1830,'DISTANCE_ACCURACY_VALUE',
'Maximum model space distance between geometric entities at asserted c
onnectivities');
#1825=UNCERTAINTY_MEASURE_WITH_UNIT(LENGTH_MEASURE(0.000393700787401575),
#1830,'DISTANCE_ACCURACY_VALUE',
'Maximum model space distance between geometric entities at asserted c
onnectivities');
#1826=(
GEOMETRIC_REPRESENTATION_CONTEXT(3)
GLOBAL_UNCERTAINTY_ASSIGNED_CONTEXT((#1824))
GLOBAL_UNIT_ASSIGNED_CONTEXT((#1830,#1834,#1835))
REPRESENTATION_CONTEXT('','3D')
);
#1827=(
GEOMETRIC_REPRESENTATION_CONTEXT(3)
GLOBAL_UNCERTAINTY_ASSIGNED_CONTEXT((#1825))
GLOBAL_UNIT_ASSIGNED_CONTEXT((#1830,#1834,#1835))
REPRESENTATION_CONTEXT('','3D')
);
#1828=DIMENSIONAL_EXPONENTS(1.,0.,0.,0.,0.,0.,0.);
#1829=DIMENSIONAL_EXPONENTS(0.,1.,0.,0.,0.,0.,0.);
#1830=(
CONVERSION_BASED_UNIT('inch',#1833)
LENGTH_UNIT()
NAMED_UNIT(#1828)
);
#1831=(
LENGTH_UNIT()
NAMED_UNIT(*)
SI_UNIT(.MILLI.,.METRE.)
);
#1832=(
LENGTH_UNIT()
NAMED_UNIT(*)
SI_UNIT(.CENTI.,.METRE.)
);
#1833=LENGTH_MEASURE_WITH_UNIT(LENGTH_MEASURE(25.4),#1831);
#1834=(
NAMED_UNIT(*)
PLANE_ANGLE_UNIT()
SI_UNIT($,.RADIAN.)
);
#1835=(
NAMED_UNIT(*)
SI_UNIT($,.STERADIAN.)
SOLID_ANGLE_UNIT()
);
#1836=SHAPE_DEFINITION_REPRESENTATION(#1837,#1838);
#1837=PRODUCT_DEFINITION_SHAPE('',$,#1840);
#1838=SHAPE_REPRESENTATION('',(#1080),#1826);
#1839=PRODUCT_DEFINITION_CONTEXT('part definition',#1844,'design');
#1840=PRODUCT_DEFINITION('ramp','ramp',#1841,#1839);
#1841=PRODUCT_DEFINITION_FORMATION('',$,#1846);
#1842=PRODUCT_RELATED_PRODUCT_CATEGORY('ramp','ramp',(#1846));
#1843=APPLICATION_PROTOCOL_DEFINITION('international standard',
'automotive_design',2009,#1844);
#1844=APPLICATION_CONTEXT(
'Core Data for Automotive Mechanical Design Process');
#1845=PRODUCT_CONTEXT('part definition',#1844,'mechanical');
#1846=PRODUCT('ramp','ramp',$,(#1845));
#1847=PRESENTATION_STYLE_ASSIGNMENT((#1848));
#1848=SURFACE_STYLE_USAGE(.BOTH.,#1851);
#1849=SURFACE_STYLE_RENDERING_WITH_PROPERTIES($,#1855,(#1850));
#1850=SURFACE_STYLE_TRANSPARENT(0.);
#1851=SURFACE_SIDE_STYLE('',(#1852,#1849));
#1852=SURFACE_STYLE_FILL_AREA(#1853);
#1853=FILL_AREA_STYLE('',(#1854));
#1854=FILL_AREA_STYLE_COLOUR('',#1855);
#1855=COLOUR_RGB('',0.250980392156863,0.250980392156863,0.250980392156863);
ENDSEC;
END-ISO-10303-21;
