ISO-10303-21;
HEADER;
/* Generated by software containing ST-Developer
 * from STEP Tools, Inc. (www.steptools.com) 
 */

FILE_DESCRIPTION(
/* description */ (''),
/* implementation_level */ '2;1');

FILE_NAME(
/* name */ 'rangoon.stp',
/* time_stamp */ '2026-01-24T00:33:23+13:00',
/* author */ ('cloudy'),
/* organization */ (''),
/* preprocessor_version */ 'ST-DEVELOPER v20',
/* originating_system */ 'Autodesk Inventor 2025',
/* authorisation */ '');

FILE_SCHEMA (('AUTOMOTIVE_DESIGN { 1 0 10303 214 3 1 1 }'));
ENDSEC;

DATA;
#10=MECHANICAL_DESIGN_GEOMETRIC_PRESENTATION_REPRESENTATION('',(#13),#1871);
#11=SHAPE_REPRESENTATION_RELATIONSHIP('SRR','None',#1882,#12);
#12=ADVANCED_BREP_SHAPE_REPRESENTATION('',(#14),#1870);
#13=STYLED_ITEM('',(#1891),#14);
#14=MANIFOLD_SOLID_BREP('Solid1',#1099);
#15=FACE_BOUND('',#154,.T.);
#16=FACE_BOUND('',#155,.T.);
#17=FACE_BOUND('',#156,.T.);
#18=FACE_BOUND('',#157,.T.);
#19=FACE_BOUND('',#158,.T.);
#20=FACE_BOUND('',#159,.T.);
#21=FACE_BOUND('',#160,.T.);
#22=FACE_BOUND('',#161,.T.);
#23=FACE_BOUND('',#162,.T.);
#24=FACE_BOUND('',#163,.T.);
#25=FACE_BOUND('',#179,.T.);
#26=FACE_BOUND('',#180,.T.);
#27=FACE_BOUND('',#181,.T.);
#28=FACE_BOUND('',#182,.T.);
#29=FACE_BOUND('',#183,.T.);
#30=FACE_BOUND('',#184,.T.);
#31=FACE_BOUND('',#185,.T.);
#32=FACE_BOUND('',#186,.T.);
#33=FACE_BOUND('',#187,.T.);
#34=FACE_BOUND('',#188,.T.);
#35=PLANE('',#1124);
#36=PLANE('',#1128);
#37=PLANE('',#1132);
#38=PLANE('',#1136);
#39=PLANE('',#1140);
#40=PLANE('',#1144);
#41=PLANE('',#1148);
#42=PLANE('',#1152);
#43=PLANE('',#1156);
#44=PLANE('',#1160);
#45=PLANE('',#1164);
#46=PLANE('',#1168);
#47=PLANE('',#1172);
#48=PLANE('',#1176);
#49=PLANE('',#1180);
#50=PLANE('',#1184);
#51=PLANE('',#1188);
#52=PLANE('',#1192);
#53=PLANE('',#1196);
#54=PLANE('',#1197);
#55=PLANE('',#1209);
#56=PLANE('',#1214);
#57=PLANE('',#1227);
#58=PLANE('',#1228);
#59=PLANE('',#1229);
#60=PLANE('',#1230);
#61=FACE_OUTER_BOUND('',#115,.T.);
#62=FACE_OUTER_BOUND('',#116,.T.);
#63=FACE_OUTER_BOUND('',#117,.T.);
#64=FACE_OUTER_BOUND('',#118,.T.);
#65=FACE_OUTER_BOUND('',#119,.T.);
#66=FACE_OUTER_BOUND('',#120,.T.);
#67=FACE_OUTER_BOUND('',#121,.T.);
#68=FACE_OUTER_BOUND('',#122,.T.);
#69=FACE_OUTER_BOUND('',#123,.T.);
#70=FACE_OUTER_BOUND('',#124,.T.);
#71=FACE_OUTER_BOUND('',#125,.T.);
#72=FACE_OUTER_BOUND('',#126,.T.);
#73=FACE_OUTER_BOUND('',#127,.T.);
#74=FACE_OUTER_BOUND('',#128,.T.);
#75=FACE_OUTER_BOUND('',#129,.T.);
#76=FACE_OUTER_BOUND('',#130,.T.);
#77=FACE_OUTER_BOUND('',#131,.T.);
#78=FACE_OUTER_BOUND('',#132,.T.);
#79=FACE_OUTER_BOUND('',#133,.T.);
#80=FACE_OUTER_BOUND('',#134,.T.);
#81=FACE_OUTER_BOUND('',#135,.T.);
#82=FACE_OUTER_BOUND('',#136,.T.);
#83=FACE_OUTER_BOUND('',#137,.T.);
#84=FACE_OUTER_BOUND('',#138,.T.);
#85=FACE_OUTER_BOUND('',#139,.T.);
#86=FACE_OUTER_BOUND('',#140,.T.);
#87=FACE_OUTER_BOUND('',#141,.T.);
#88=FACE_OUTER_BOUND('',#142,.T.);
#89=FACE_OUTER_BOUND('',#143,.T.);
#90=FACE_OUTER_BOUND('',#144,.T.);
#91=FACE_OUTER_BOUND('',#145,.T.);
#92=FACE_OUTER_BOUND('',#146,.T.);
#93=FACE_OUTER_BOUND('',#147,.T.);
#94=FACE_OUTER_BOUND('',#148,.T.);
#95=FACE_OUTER_BOUND('',#149,.T.);
#96=FACE_OUTER_BOUND('',#150,.T.);
#97=FACE_OUTER_BOUND('',#151,.T.);
#98=FACE_OUTER_BOUND('',#152,.T.);
#99=FACE_OUTER_BOUND('',#153,.T.);
#100=FACE_OUTER_BOUND('',#164,.T.);
#101=FACE_OUTER_BOUND('',#165,.T.);
#102=FACE_OUTER_BOUND('',#166,.T.);
#103=FACE_OUTER_BOUND('',#167,.T.);
#104=FACE_OUTER_BOUND('',#168,.T.);
#105=FACE_OUTER_BOUND('',#169,.T.);
#106=FACE_OUTER_BOUND('',#170,.T.);
#107=FACE_OUTER_BOUND('',#171,.T.);
#108=FACE_OUTER_BOUND('',#172,.T.);
#109=FACE_OUTER_BOUND('',#173,.T.);
#110=FACE_OUTER_BOUND('',#174,.T.);
#111=FACE_OUTER_BOUND('',#175,.T.);
#112=FACE_OUTER_BOUND('',#176,.T.);
#113=FACE_OUTER_BOUND('',#177,.T.);
#114=FACE_OUTER_BOUND('',#178,.T.);
#115=EDGE_LOOP('',(#705,#706,#707,#708));
#116=EDGE_LOOP('',(#709,#710,#711,#712));
#117=EDGE_LOOP('',(#713,#714,#715,#716));
#118=EDGE_LOOP('',(#717,#718,#719,#720));
#119=EDGE_LOOP('',(#721,#722,#723,#724));
#120=EDGE_LOOP('',(#725,#726,#727,#728));
#121=EDGE_LOOP('',(#729,#730,#731,#732));
#122=EDGE_LOOP('',(#733,#734,#735,#736));
#123=EDGE_LOOP('',(#737,#738,#739,#740));
#124=EDGE_LOOP('',(#741,#742,#743,#744));
#125=EDGE_LOOP('',(#745,#746,#747,#748));
#126=EDGE_LOOP('',(#749,#750,#751,#752));
#127=EDGE_LOOP('',(#753,#754,#755,#756));
#128=EDGE_LOOP('',(#757,#758,#759,#760));
#129=EDGE_LOOP('',(#761,#762,#763,#764));
#130=EDGE_LOOP('',(#765,#766,#767,#768));
#131=EDGE_LOOP('',(#769,#770,#771,#772));
#132=EDGE_LOOP('',(#773,#774,#775,#776));
#133=EDGE_LOOP('',(#777,#778,#779,#780));
#134=EDGE_LOOP('',(#781,#782,#783,#784));
#135=EDGE_LOOP('',(#785,#786,#787,#788));
#136=EDGE_LOOP('',(#789,#790,#791,#792));
#137=EDGE_LOOP('',(#793,#794,#795,#796));
#138=EDGE_LOOP('',(#797,#798,#799,#800));
#139=EDGE_LOOP('',(#801,#802,#803,#804));
#140=EDGE_LOOP('',(#805,#806,#807,#808));
#141=EDGE_LOOP('',(#809,#810,#811,#812));
#142=EDGE_LOOP('',(#813,#814,#815,#816));
#143=EDGE_LOOP('',(#817,#818,#819,#820));
#144=EDGE_LOOP('',(#821,#822,#823,#824));
#145=EDGE_LOOP('',(#825,#826,#827,#828));
#146=EDGE_LOOP('',(#829,#830,#831,#832));
#147=EDGE_LOOP('',(#833,#834,#835,#836));
#148=EDGE_LOOP('',(#837,#838,#839,#840));
#149=EDGE_LOOP('',(#841,#842,#843,#844));
#150=EDGE_LOOP('',(#845,#846,#847,#848));
#151=EDGE_LOOP('',(#849,#850,#851,#852));
#152=EDGE_LOOP('',(#853,#854,#855,#856));
#153=EDGE_LOOP('',(#857,#858,#859,#860,#861,#862,#863,#864,#865,#866,#867,
#868));
#154=EDGE_LOOP('',(#869,#870,#871,#872,#873,#874));
#155=EDGE_LOOP('',(#875,#876,#877,#878,#879,#880));
#156=EDGE_LOOP('',(#881,#882,#883,#884,#885,#886));
#157=EDGE_LOOP('',(#887,#888,#889,#890,#891,#892));
#158=EDGE_LOOP('',(#893,#894,#895,#896,#897,#898));
#159=EDGE_LOOP('',(#899,#900,#901,#902,#903,#904));
#160=EDGE_LOOP('',(#905));
#161=EDGE_LOOP('',(#906));
#162=EDGE_LOOP('',(#907));
#163=EDGE_LOOP('',(#908));
#164=EDGE_LOOP('',(#909,#910,#911,#912));
#165=EDGE_LOOP('',(#913,#914,#915,#916));
#166=EDGE_LOOP('',(#917,#918,#919,#920));
#167=EDGE_LOOP('',(#921,#922,#923,#924));
#168=EDGE_LOOP('',(#925,#926,#927,#928));
#169=EDGE_LOOP('',(#929,#930,#931,#932));
#170=EDGE_LOOP('',(#933,#934,#935,#936));
#171=EDGE_LOOP('',(#937,#938,#939,#940));
#172=EDGE_LOOP('',(#941,#942,#943,#944));
#173=EDGE_LOOP('',(#945,#946,#947,#948));
#174=EDGE_LOOP('',(#949,#950,#951,#952));
#175=EDGE_LOOP('',(#953,#954,#955,#956));
#176=EDGE_LOOP('',(#957,#958,#959,#960));
#177=EDGE_LOOP('',(#961,#962,#963,#964));
#178=EDGE_LOOP('',(#965,#966,#967,#968,#969,#970,#971,#972,#973,#974,#975,
#976));
#179=EDGE_LOOP('',(#977,#978,#979,#980,#981,#982));
#180=EDGE_LOOP('',(#983,#984,#985,#986,#987,#988));
#181=EDGE_LOOP('',(#989,#990,#991,#992,#993,#994));
#182=EDGE_LOOP('',(#995,#996,#997,#998,#999,#1000));
#183=EDGE_LOOP('',(#1001,#1002,#1003,#1004,#1005,#1006));
#184=EDGE_LOOP('',(#1007,#1008,#1009,#1010,#1011,#1012));
#185=EDGE_LOOP('',(#1013));
#186=EDGE_LOOP('',(#1014));
#187=EDGE_LOOP('',(#1015));
#188=EDGE_LOOP('',(#1016));
#189=LINE('',#1559,#289);
#190=LINE('',#1562,#290);
#191=LINE('',#1565,#291);
#192=LINE('',#1567,#292);
#193=LINE('',#1568,#293);
#194=LINE('',#1574,#294);
#195=LINE('',#1577,#295);
#196=LINE('',#1580,#296);
#197=LINE('',#1582,#297);
#198=LINE('',#1583,#298);
#199=LINE('',#1589,#299);
#200=LINE('',#1592,#300);
#201=LINE('',#1594,#301);
#202=LINE('',#1595,#302);
#203=LINE('',#1600,#303);
#204=LINE('',#1604,#304);
#205=LINE('',#1606,#305);
#206=LINE('',#1607,#306);
#207=LINE('',#1613,#307);
#208=LINE('',#1616,#308);
#209=LINE('',#1619,#309);
#210=LINE('',#1621,#310);
#211=LINE('',#1622,#311);
#212=LINE('',#1628,#312);
#213=LINE('',#1631,#313);
#214=LINE('',#1634,#314);
#215=LINE('',#1636,#315);
#216=LINE('',#1637,#316);
#217=LINE('',#1642,#317);
#218=LINE('',#1646,#318);
#219=LINE('',#1648,#319);
#220=LINE('',#1649,#320);
#221=LINE('',#1655,#321);
#222=LINE('',#1658,#322);
#223=LINE('',#1660,#323);
#224=LINE('',#1661,#324);
#225=LINE('',#1667,#325);
#226=LINE('',#1670,#326);
#227=LINE('',#1673,#327);
#228=LINE('',#1675,#328);
#229=LINE('',#1676,#329);
#230=LINE('',#1682,#330);
#231=LINE('',#1685,#331);
#232=LINE('',#1688,#332);
#233=LINE('',#1690,#333);
#234=LINE('',#1691,#334);
#235=LINE('',#1696,#335);
#236=LINE('',#1700,#336);
#237=LINE('',#1702,#337);
#238=LINE('',#1703,#338);
#239=LINE('',#1709,#339);
#240=LINE('',#1712,#340);
#241=LINE('',#1714,#341);
#242=LINE('',#1715,#342);
#243=LINE('',#1720,#343);
#244=LINE('',#1723,#344);
#245=LINE('',#1724,#345);
#246=LINE('',#1729,#346);
#247=LINE('',#1732,#347);
#248=LINE('',#1733,#348);
#249=LINE('',#1738,#349);
#250=LINE('',#1741,#350);
#251=LINE('',#1742,#351);
#252=LINE('',#1747,#352);
#253=LINE('',#1750,#353);
#254=LINE('',#1751,#354);
#255=LINE('',#1756,#355);
#256=LINE('',#1759,#356);
#257=LINE('',#1760,#357);
#258=LINE('',#1765,#358);
#259=LINE('',#1768,#359);
#260=LINE('',#1769,#360);
#261=LINE('',#1775,#361);
#262=LINE('',#1778,#362);
#263=LINE('',#1781,#363);
#264=LINE('',#1783,#364);
#265=LINE('',#1784,#365);
#266=LINE('',#1787,#366);
#267=LINE('',#1791,#367);
#268=LINE('',#1795,#368);
#269=LINE('',#1799,#369);
#270=LINE('',#1803,#370);
#271=LINE('',#1817,#371);
#272=LINE('',#1818,#372);
#273=LINE('',#1821,#373);
#274=LINE('',#1822,#374);
#275=LINE('',#1826,#375);
#276=LINE('',#1831,#376);
#277=LINE('',#1832,#377);
#278=LINE('',#1835,#378);
#279=LINE('',#1836,#379);
#280=LINE('',#1840,#380);
#281=LINE('',#1844,#381);
#282=LINE('',#1848,#382);
#283=LINE('',#1852,#383);
#284=LINE('',#1856,#384);
#285=LINE('',#1860,#385);
#286=LINE('',#1862,#386);
#287=LINE('',#1864,#387);
#288=LINE('',#1866,#388);
#289=VECTOR('',#1237,0.393700787401575);
#290=VECTOR('',#1240,0.393700787401575);
#291=VECTOR('',#1243,0.393700787401575);
#292=VECTOR('',#1244,0.393700787401575);
#293=VECTOR('',#1245,0.393700787401575);
#294=VECTOR('',#1250,0.393700787401575);
#295=VECTOR('',#1253,0.393700787401575);
#296=VECTOR('',#1256,0.393700787401575);
#297=VECTOR('',#1257,0.393700787401575);
#298=VECTOR('',#1258,0.393700787401575);
#299=VECTOR('',#1263,0.393700787401575);
#300=VECTOR('',#1266,0.393700787401575);
#301=VECTOR('',#1269,0.393700787401575);
#302=VECTOR('',#1270,0.393700787401575);
#303=VECTOR('',#1275,0.393700787401575);
#304=VECTOR('',#1280,0.393700787401575);
#305=VECTOR('',#1281,0.393700787401575);
#306=VECTOR('',#1282,0.393700787401575);
#307=VECTOR('',#1287,0.393700787401575);
#308=VECTOR('',#1290,0.393700787401575);
#309=VECTOR('',#1293,0.393700787401575);
#310=VECTOR('',#1294,0.393700787401575);
#311=VECTOR('',#1295,0.393700787401575);
#312=VECTOR('',#1300,0.393700787401575);
#313=VECTOR('',#1303,0.393700787401575);
#314=VECTOR('',#1306,0.393700787401575);
#315=VECTOR('',#1307,0.393700787401575);
#316=VECTOR('',#1308,0.393700787401575);
#317=VECTOR('',#1313,0.393700787401575);
#318=VECTOR('',#1318,0.393700787401575);
#319=VECTOR('',#1319,0.393700787401575);
#320=VECTOR('',#1320,0.393700787401575);
#321=VECTOR('',#1325,0.393700787401575);
#322=VECTOR('',#1328,0.393700787401575);
#323=VECTOR('',#1331,0.393700787401575);
#324=VECTOR('',#1332,0.393700787401575);
#325=VECTOR('',#1337,0.393700787401575);
#326=VECTOR('',#1340,0.393700787401575);
#327=VECTOR('',#1343,0.393700787401575);
#328=VECTOR('',#1344,0.393700787401575);
#329=VECTOR('',#1345,0.393700787401575);
#330=VECTOR('',#1350,0.393700787401575);
#331=VECTOR('',#1353,0.393700787401575);
#332=VECTOR('',#1356,0.393700787401575);
#333=VECTOR('',#1357,0.393700787401575);
#334=VECTOR('',#1358,0.393700787401575);
#335=VECTOR('',#1363,0.393700787401575);
#336=VECTOR('',#1368,0.393700787401575);
#337=VECTOR('',#1369,0.393700787401575);
#338=VECTOR('',#1370,0.393700787401575);
#339=VECTOR('',#1375,0.393700787401575);
#340=VECTOR('',#1378,0.393700787401575);
#341=VECTOR('',#1381,0.393700787401575);
#342=VECTOR('',#1382,0.393700787401575);
#343=VECTOR('',#1387,0.393700787401575);
#344=VECTOR('',#1392,0.393700787401575);
#345=VECTOR('',#1393,0.393700787401575);
#346=VECTOR('',#1398,0.393700787401575);
#347=VECTOR('',#1403,0.393700787401575);
#348=VECTOR('',#1404,0.393700787401575);
#349=VECTOR('',#1409,0.393700787401575);
#350=VECTOR('',#1414,0.393700787401575);
#351=VECTOR('',#1415,0.393700787401575);
#352=VECTOR('',#1420,0.393700787401575);
#353=VECTOR('',#1425,0.393700787401575);
#354=VECTOR('',#1426,0.393700787401575);
#355=VECTOR('',#1431,0.393700787401575);
#356=VECTOR('',#1436,0.393700787401575);
#357=VECTOR('',#1437,0.393700787401575);
#358=VECTOR('',#1442,0.393700787401575);
#359=VECTOR('',#1447,0.393700787401575);
#360=VECTOR('',#1448,0.393700787401575);
#361=VECTOR('',#1453,0.393700787401575);
#362=VECTOR('',#1456,0.393700787401575);
#363=VECTOR('',#1459,0.393700787401575);
#364=VECTOR('',#1460,0.393700787401575);
#365=VECTOR('',#1461,0.393700787401575);
#366=VECTOR('',#1464,0.393700787401575);
#367=VECTOR('',#1467,0.393700787401575);
#368=VECTOR('',#1470,0.393700787401575);
#369=VECTOR('',#1473,0.393700787401575);
#370=VECTOR('',#1476,0.393700787401575);
#371=VECTOR('',#1491,0.393700787401575);
#372=VECTOR('',#1492,0.393700787401575);
#373=VECTOR('',#1495,0.393700787401575);
#374=VECTOR('',#1496,0.393700787401575);
#375=VECTOR('',#1501,0.393700787401575);
#376=VECTOR('',#1506,0.393700787401575);
#377=VECTOR('',#1507,0.393700787401575);
#378=VECTOR('',#1510,0.393700787401575);
#379=VECTOR('',#1511,0.393700787401575);
#380=VECTOR('',#1516,0.393700787401575);
#381=VECTOR('',#1521,0.393700787401575);
#382=VECTOR('',#1526,0.086);
#383=VECTOR('',#1531,0.086);
#384=VECTOR('',#1536,0.0860000000000001);
#385=VECTOR('',#1541,0.0860000000000001);
#386=VECTOR('',#1544,0.393700787401575);
#387=VECTOR('',#1547,0.393700787401575);
#388=VECTOR('',#1550,0.393700787401575);
#389=CIRCLE('',#1122,0.078740157480315);
#390=CIRCLE('',#1123,0.078740157480315);
#391=CIRCLE('',#1126,0.078740157480315);
#392=CIRCLE('',#1127,0.078740157480315);
#393=CIRCLE('',#1130,0.078740157480315);
#394=CIRCLE('',#1131,0.078740157480315);
#395=CIRCLE('',#1134,0.078740157480315);
#396=CIRCLE('',#1135,0.078740157480315);
#397=CIRCLE('',#1138,0.0787401574803149);
#398=CIRCLE('',#1139,0.0787401574803149);
#399=CIRCLE('',#1142,0.078740157480315);
#400=CIRCLE('',#1143,0.078740157480315);
#401=CIRCLE('',#1146,0.078740157480315);
#402=CIRCLE('',#1147,0.078740157480315);
#403=CIRCLE('',#1150,0.0787401574803149);
#404=CIRCLE('',#1151,0.0787401574803149);
#405=CIRCLE('',#1154,0.078740157480315);
#406=CIRCLE('',#1155,0.078740157480315);
#407=CIRCLE('',#1158,0.078740157480315);
#408=CIRCLE('',#1159,0.078740157480315);
#409=CIRCLE('',#1162,0.0787401574803149);
#410=CIRCLE('',#1163,0.0787401574803149);
#411=CIRCLE('',#1166,0.078740157480315);
#412=CIRCLE('',#1167,0.078740157480315);
#413=CIRCLE('',#1170,0.078740157480315);
#414=CIRCLE('',#1171,0.078740157480315);
#415=CIRCLE('',#1174,0.078740157480315);
#416=CIRCLE('',#1175,0.078740157480315);
#417=CIRCLE('',#1178,0.078740157480315);
#418=CIRCLE('',#1179,0.078740157480315);
#419=CIRCLE('',#1182,0.078740157480315);
#420=CIRCLE('',#1183,0.078740157480315);
#421=CIRCLE('',#1186,0.078740157480315);
#422=CIRCLE('',#1187,0.078740157480315);
#423=CIRCLE('',#1190,0.078740157480315);
#424=CIRCLE('',#1191,0.078740157480315);
#425=CIRCLE('',#1194,0.25);
#426=CIRCLE('',#1195,0.25);
#427=CIRCLE('',#1198,0.25);
#428=CIRCLE('',#1199,0.25);
#429=CIRCLE('',#1200,0.25);
#430=CIRCLE('',#1201,0.25);
#431=CIRCLE('',#1202,0.25);
#432=CIRCLE('',#1203,0.0860000000000001);
#433=CIRCLE('',#1204,0.0860000000000001);
#434=CIRCLE('',#1205,0.086);
#435=CIRCLE('',#1206,0.086);
#436=CIRCLE('',#1208,0.25);
#437=CIRCLE('',#1211,0.25);
#438=CIRCLE('',#1213,0.25);
#439=CIRCLE('',#1216,0.25);
#440=CIRCLE('',#1218,0.25);
#441=CIRCLE('',#1220,0.086);
#442=CIRCLE('',#1222,0.086);
#443=CIRCLE('',#1224,0.0860000000000001);
#444=CIRCLE('',#1226,0.0860000000000001);
#445=VERTEX_POINT('',#1555);
#446=VERTEX_POINT('',#1556);
#447=VERTEX_POINT('',#1558);
#448=VERTEX_POINT('',#1560);
#449=VERTEX_POINT('',#1564);
#450=VERTEX_POINT('',#1566);
#451=VERTEX_POINT('',#1570);
#452=VERTEX_POINT('',#1571);
#453=VERTEX_POINT('',#1573);
#454=VERTEX_POINT('',#1575);
#455=VERTEX_POINT('',#1579);
#456=VERTEX_POINT('',#1581);
#457=VERTEX_POINT('',#1585);
#458=VERTEX_POINT('',#1586);
#459=VERTEX_POINT('',#1588);
#460=VERTEX_POINT('',#1590);
#461=VERTEX_POINT('',#1597);
#462=VERTEX_POINT('',#1599);
#463=VERTEX_POINT('',#1603);
#464=VERTEX_POINT('',#1605);
#465=VERTEX_POINT('',#1609);
#466=VERTEX_POINT('',#1610);
#467=VERTEX_POINT('',#1612);
#468=VERTEX_POINT('',#1614);
#469=VERTEX_POINT('',#1618);
#470=VERTEX_POINT('',#1620);
#471=VERTEX_POINT('',#1624);
#472=VERTEX_POINT('',#1625);
#473=VERTEX_POINT('',#1627);
#474=VERTEX_POINT('',#1629);
#475=VERTEX_POINT('',#1633);
#476=VERTEX_POINT('',#1635);
#477=VERTEX_POINT('',#1639);
#478=VERTEX_POINT('',#1641);
#479=VERTEX_POINT('',#1645);
#480=VERTEX_POINT('',#1647);
#481=VERTEX_POINT('',#1651);
#482=VERTEX_POINT('',#1652);
#483=VERTEX_POINT('',#1654);
#484=VERTEX_POINT('',#1656);
#485=VERTEX_POINT('',#1663);
#486=VERTEX_POINT('',#1664);
#487=VERTEX_POINT('',#1666);
#488=VERTEX_POINT('',#1668);
#489=VERTEX_POINT('',#1672);
#490=VERTEX_POINT('',#1674);
#491=VERTEX_POINT('',#1678);
#492=VERTEX_POINT('',#1679);
#493=VERTEX_POINT('',#1681);
#494=VERTEX_POINT('',#1683);
#495=VERTEX_POINT('',#1687);
#496=VERTEX_POINT('',#1689);
#497=VERTEX_POINT('',#1693);
#498=VERTEX_POINT('',#1695);
#499=VERTEX_POINT('',#1699);
#500=VERTEX_POINT('',#1701);
#501=VERTEX_POINT('',#1705);
#502=VERTEX_POINT('',#1706);
#503=VERTEX_POINT('',#1708);
#504=VERTEX_POINT('',#1710);
#505=VERTEX_POINT('',#1717);
#506=VERTEX_POINT('',#1719);
#507=VERTEX_POINT('',#1726);
#508=VERTEX_POINT('',#1728);
#509=VERTEX_POINT('',#1735);
#510=VERTEX_POINT('',#1737);
#511=VERTEX_POINT('',#1744);
#512=VERTEX_POINT('',#1746);
#513=VERTEX_POINT('',#1753);
#514=VERTEX_POINT('',#1755);
#515=VERTEX_POINT('',#1762);
#516=VERTEX_POINT('',#1764);
#517=VERTEX_POINT('',#1771);
#518=VERTEX_POINT('',#1772);
#519=VERTEX_POINT('',#1774);
#520=VERTEX_POINT('',#1776);
#521=VERTEX_POINT('',#1780);
#522=VERTEX_POINT('',#1782);
#523=VERTEX_POINT('',#1786);
#524=VERTEX_POINT('',#1788);
#525=VERTEX_POINT('',#1790);
#526=VERTEX_POINT('',#1792);
#527=VERTEX_POINT('',#1794);
#528=VERTEX_POINT('',#1796);
#529=VERTEX_POINT('',#1798);
#530=VERTEX_POINT('',#1800);
#531=VERTEX_POINT('',#1802);
#532=VERTEX_POINT('',#1805);
#533=VERTEX_POINT('',#1807);
#534=VERTEX_POINT('',#1809);
#535=VERTEX_POINT('',#1811);
#536=VERTEX_POINT('',#1814);
#537=VERTEX_POINT('',#1815);
#538=VERTEX_POINT('',#1820);
#539=VERTEX_POINT('',#1824);
#540=VERTEX_POINT('',#1828);
#541=VERTEX_POINT('',#1829);
#542=VERTEX_POINT('',#1834);
#543=VERTEX_POINT('',#1838);
#544=VERTEX_POINT('',#1842);
#545=VERTEX_POINT('',#1846);
#546=VERTEX_POINT('',#1850);
#547=VERTEX_POINT('',#1854);
#548=VERTEX_POINT('',#1858);
#549=EDGE_CURVE('',#445,#446,#389,.T.);
#550=EDGE_CURVE('',#446,#447,#189,.T.);
#551=EDGE_CURVE('',#447,#448,#390,.T.);
#552=EDGE_CURVE('',#448,#445,#190,.T.);
#553=EDGE_CURVE('',#449,#446,#191,.T.);
#554=EDGE_CURVE('',#450,#449,#192,.T.);
#555=EDGE_CURVE('',#447,#450,#193,.T.);
#556=EDGE_CURVE('',#451,#452,#391,.T.);
#557=EDGE_CURVE('',#452,#453,#194,.T.);
#558=EDGE_CURVE('',#453,#454,#392,.T.);
#559=EDGE_CURVE('',#454,#451,#195,.T.);
#560=EDGE_CURVE('',#455,#452,#196,.T.);
#561=EDGE_CURVE('',#456,#455,#197,.T.);
#562=EDGE_CURVE('',#453,#456,#198,.T.);
#563=EDGE_CURVE('',#457,#458,#393,.T.);
#564=EDGE_CURVE('',#458,#459,#199,.T.);
#565=EDGE_CURVE('',#459,#460,#394,.T.);
#566=EDGE_CURVE('',#460,#457,#200,.T.);
#567=EDGE_CURVE('',#459,#454,#201,.T.);
#568=EDGE_CURVE('',#451,#458,#202,.T.);
#569=EDGE_CURVE('',#449,#461,#395,.T.);
#570=EDGE_CURVE('',#461,#462,#203,.T.);
#571=EDGE_CURVE('',#462,#450,#396,.T.);
#572=EDGE_CURVE('',#463,#461,#204,.T.);
#573=EDGE_CURVE('',#464,#463,#205,.T.);
#574=EDGE_CURVE('',#462,#464,#206,.T.);
#575=EDGE_CURVE('',#465,#466,#397,.T.);
#576=EDGE_CURVE('',#466,#467,#207,.T.);
#577=EDGE_CURVE('',#467,#468,#398,.T.);
#578=EDGE_CURVE('',#468,#465,#208,.T.);
#579=EDGE_CURVE('',#469,#466,#209,.T.);
#580=EDGE_CURVE('',#470,#469,#210,.T.);
#581=EDGE_CURVE('',#467,#470,#211,.T.);
#582=EDGE_CURVE('',#471,#472,#399,.T.);
#583=EDGE_CURVE('',#472,#473,#212,.T.);
#584=EDGE_CURVE('',#473,#474,#400,.T.);
#585=EDGE_CURVE('',#474,#471,#213,.T.);
#586=EDGE_CURVE('',#475,#472,#214,.T.);
#587=EDGE_CURVE('',#476,#475,#215,.T.);
#588=EDGE_CURVE('',#473,#476,#216,.T.);
#589=EDGE_CURVE('',#469,#477,#401,.T.);
#590=EDGE_CURVE('',#477,#478,#217,.T.);
#591=EDGE_CURVE('',#478,#470,#402,.T.);
#592=EDGE_CURVE('',#479,#477,#218,.T.);
#593=EDGE_CURVE('',#480,#479,#219,.T.);
#594=EDGE_CURVE('',#478,#480,#220,.T.);
#595=EDGE_CURVE('',#481,#482,#403,.T.);
#596=EDGE_CURVE('',#482,#483,#221,.T.);
#597=EDGE_CURVE('',#483,#484,#404,.T.);
#598=EDGE_CURVE('',#484,#481,#222,.T.);
#599=EDGE_CURVE('',#483,#474,#223,.T.);
#600=EDGE_CURVE('',#471,#482,#224,.T.);
#601=EDGE_CURVE('',#485,#486,#405,.T.);
#602=EDGE_CURVE('',#486,#487,#225,.T.);
#603=EDGE_CURVE('',#487,#488,#406,.T.);
#604=EDGE_CURVE('',#488,#485,#226,.T.);
#605=EDGE_CURVE('',#489,#486,#227,.T.);
#606=EDGE_CURVE('',#490,#489,#228,.T.);
#607=EDGE_CURVE('',#487,#490,#229,.T.);
#608=EDGE_CURVE('',#491,#492,#407,.T.);
#609=EDGE_CURVE('',#492,#493,#230,.T.);
#610=EDGE_CURVE('',#493,#494,#408,.T.);
#611=EDGE_CURVE('',#494,#491,#231,.T.);
#612=EDGE_CURVE('',#495,#492,#232,.T.);
#613=EDGE_CURVE('',#496,#495,#233,.T.);
#614=EDGE_CURVE('',#493,#496,#234,.T.);
#615=EDGE_CURVE('',#489,#497,#409,.T.);
#616=EDGE_CURVE('',#497,#498,#235,.T.);
#617=EDGE_CURVE('',#498,#490,#410,.T.);
#618=EDGE_CURVE('',#499,#497,#236,.T.);
#619=EDGE_CURVE('',#500,#499,#237,.T.);
#620=EDGE_CURVE('',#498,#500,#238,.T.);
#621=EDGE_CURVE('',#501,#502,#411,.T.);
#622=EDGE_CURVE('',#502,#503,#239,.T.);
#623=EDGE_CURVE('',#503,#504,#412,.T.);
#624=EDGE_CURVE('',#504,#501,#240,.T.);
#625=EDGE_CURVE('',#503,#494,#241,.T.);
#626=EDGE_CURVE('',#491,#502,#242,.T.);
#627=EDGE_CURVE('',#455,#505,#413,.T.);
#628=EDGE_CURVE('',#505,#506,#243,.T.);
#629=EDGE_CURVE('',#506,#456,#414,.T.);
#630=EDGE_CURVE('',#506,#460,#244,.T.);
#631=EDGE_CURVE('',#457,#505,#245,.T.);
#632=EDGE_CURVE('',#499,#507,#415,.T.);
#633=EDGE_CURVE('',#507,#508,#246,.T.);
#634=EDGE_CURVE('',#508,#500,#416,.T.);
#635=EDGE_CURVE('',#508,#488,#247,.T.);
#636=EDGE_CURVE('',#485,#507,#248,.T.);
#637=EDGE_CURVE('',#495,#509,#417,.T.);
#638=EDGE_CURVE('',#509,#510,#249,.T.);
#639=EDGE_CURVE('',#510,#496,#418,.T.);
#640=EDGE_CURVE('',#510,#504,#250,.T.);
#641=EDGE_CURVE('',#501,#509,#251,.T.);
#642=EDGE_CURVE('',#475,#511,#419,.T.);
#643=EDGE_CURVE('',#511,#512,#252,.T.);
#644=EDGE_CURVE('',#512,#476,#420,.T.);
#645=EDGE_CURVE('',#512,#484,#253,.T.);
#646=EDGE_CURVE('',#481,#511,#254,.T.);
#647=EDGE_CURVE('',#479,#513,#421,.T.);
#648=EDGE_CURVE('',#513,#514,#255,.T.);
#649=EDGE_CURVE('',#514,#480,#422,.T.);
#650=EDGE_CURVE('',#514,#468,#256,.T.);
#651=EDGE_CURVE('',#465,#513,#257,.T.);
#652=EDGE_CURVE('',#463,#515,#423,.T.);
#653=EDGE_CURVE('',#515,#516,#258,.T.);
#654=EDGE_CURVE('',#516,#464,#424,.T.);
#655=EDGE_CURVE('',#516,#448,#259,.T.);
#656=EDGE_CURVE('',#445,#515,#260,.T.);
#657=EDGE_CURVE('',#517,#518,#425,.T.);
#658=EDGE_CURVE('',#518,#519,#261,.T.);
#659=EDGE_CURVE('',#519,#520,#426,.T.);
#660=EDGE_CURVE('',#520,#517,#262,.T.);
#661=EDGE_CURVE('',#520,#521,#263,.T.);
#662=EDGE_CURVE('',#522,#521,#264,.T.);
#663=EDGE_CURVE('',#517,#522,#265,.T.);
#664=EDGE_CURVE('',#523,#519,#266,.T.);
#665=EDGE_CURVE('',#524,#523,#427,.T.);
#666=EDGE_CURVE('',#525,#524,#267,.T.);
#667=EDGE_CURVE('',#526,#525,#428,.T.);
#668=EDGE_CURVE('',#527,#526,#268,.T.);
#669=EDGE_CURVE('',#528,#527,#429,.T.);
#670=EDGE_CURVE('',#529,#528,#269,.T.);
#671=EDGE_CURVE('',#530,#529,#430,.T.);
#672=EDGE_CURVE('',#531,#530,#270,.T.);
#673=EDGE_CURVE('',#521,#531,#431,.T.);
#674=EDGE_CURVE('',#532,#532,#432,.T.);
#675=EDGE_CURVE('',#533,#533,#433,.T.);
#676=EDGE_CURVE('',#534,#534,#434,.T.);
#677=EDGE_CURVE('',#535,#535,#435,.T.);
#678=EDGE_CURVE('',#536,#537,#436,.T.);
#679=EDGE_CURVE('',#537,#524,#271,.T.);
#680=EDGE_CURVE('',#523,#536,#272,.T.);
#681=EDGE_CURVE('',#538,#537,#273,.T.);
#682=EDGE_CURVE('',#525,#538,#274,.T.);
#683=EDGE_CURVE('',#538,#539,#437,.T.);
#684=EDGE_CURVE('',#539,#526,#275,.T.);
#685=EDGE_CURVE('',#540,#541,#438,.T.);
#686=EDGE_CURVE('',#541,#528,#276,.T.);
#687=EDGE_CURVE('',#527,#540,#277,.T.);
#688=EDGE_CURVE('',#542,#541,#278,.T.);
#689=EDGE_CURVE('',#529,#542,#279,.T.);
#690=EDGE_CURVE('',#542,#543,#439,.T.);
#691=EDGE_CURVE('',#543,#530,#280,.T.);
#692=EDGE_CURVE('',#544,#522,#440,.T.);
#693=EDGE_CURVE('',#531,#544,#281,.T.);
#694=EDGE_CURVE('',#545,#545,#441,.T.);
#695=EDGE_CURVE('',#545,#535,#282,.T.);
#696=EDGE_CURVE('',#546,#546,#442,.T.);
#697=EDGE_CURVE('',#546,#534,#283,.T.);
#698=EDGE_CURVE('',#547,#547,#443,.T.);
#699=EDGE_CURVE('',#547,#533,#284,.T.);
#700=EDGE_CURVE('',#548,#548,#444,.T.);
#701=EDGE_CURVE('',#548,#532,#285,.T.);
#702=EDGE_CURVE('',#536,#518,#286,.T.);
#703=EDGE_CURVE('',#540,#539,#287,.T.);
#704=EDGE_CURVE('',#544,#543,#288,.T.);
#705=ORIENTED_EDGE('',*,*,#549,.T.);
#706=ORIENTED_EDGE('',*,*,#550,.T.);
#707=ORIENTED_EDGE('',*,*,#551,.T.);
#708=ORIENTED_EDGE('',*,*,#552,.T.);
#709=ORIENTED_EDGE('',*,*,#550,.F.);
#710=ORIENTED_EDGE('',*,*,#553,.F.);
#711=ORIENTED_EDGE('',*,*,#554,.F.);
#712=ORIENTED_EDGE('',*,*,#555,.F.);
#713=ORIENTED_EDGE('',*,*,#556,.T.);
#714=ORIENTED_EDGE('',*,*,#557,.T.);
#715=ORIENTED_EDGE('',*,*,#558,.T.);
#716=ORIENTED_EDGE('',*,*,#559,.T.);
#717=ORIENTED_EDGE('',*,*,#557,.F.);
#718=ORIENTED_EDGE('',*,*,#560,.F.);
#719=ORIENTED_EDGE('',*,*,#561,.F.);
#720=ORIENTED_EDGE('',*,*,#562,.F.);
#721=ORIENTED_EDGE('',*,*,#563,.T.);
#722=ORIENTED_EDGE('',*,*,#564,.T.);
#723=ORIENTED_EDGE('',*,*,#565,.T.);
#724=ORIENTED_EDGE('',*,*,#566,.T.);
#725=ORIENTED_EDGE('',*,*,#559,.F.);
#726=ORIENTED_EDGE('',*,*,#567,.F.);
#727=ORIENTED_EDGE('',*,*,#564,.F.);
#728=ORIENTED_EDGE('',*,*,#568,.F.);
#729=ORIENTED_EDGE('',*,*,#569,.T.);
#730=ORIENTED_EDGE('',*,*,#570,.T.);
#731=ORIENTED_EDGE('',*,*,#571,.T.);
#732=ORIENTED_EDGE('',*,*,#554,.T.);
#733=ORIENTED_EDGE('',*,*,#570,.F.);
#734=ORIENTED_EDGE('',*,*,#572,.F.);
#735=ORIENTED_EDGE('',*,*,#573,.F.);
#736=ORIENTED_EDGE('',*,*,#574,.F.);
#737=ORIENTED_EDGE('',*,*,#575,.T.);
#738=ORIENTED_EDGE('',*,*,#576,.T.);
#739=ORIENTED_EDGE('',*,*,#577,.T.);
#740=ORIENTED_EDGE('',*,*,#578,.T.);
#741=ORIENTED_EDGE('',*,*,#576,.F.);
#742=ORIENTED_EDGE('',*,*,#579,.F.);
#743=ORIENTED_EDGE('',*,*,#580,.F.);
#744=ORIENTED_EDGE('',*,*,#581,.F.);
#745=ORIENTED_EDGE('',*,*,#582,.T.);
#746=ORIENTED_EDGE('',*,*,#583,.T.);
#747=ORIENTED_EDGE('',*,*,#584,.T.);
#748=ORIENTED_EDGE('',*,*,#585,.T.);
#749=ORIENTED_EDGE('',*,*,#583,.F.);
#750=ORIENTED_EDGE('',*,*,#586,.F.);
#751=ORIENTED_EDGE('',*,*,#587,.F.);
#752=ORIENTED_EDGE('',*,*,#588,.F.);
#753=ORIENTED_EDGE('',*,*,#589,.T.);
#754=ORIENTED_EDGE('',*,*,#590,.T.);
#755=ORIENTED_EDGE('',*,*,#591,.T.);
#756=ORIENTED_EDGE('',*,*,#580,.T.);
#757=ORIENTED_EDGE('',*,*,#590,.F.);
#758=ORIENTED_EDGE('',*,*,#592,.F.);
#759=ORIENTED_EDGE('',*,*,#593,.F.);
#760=ORIENTED_EDGE('',*,*,#594,.F.);
#761=ORIENTED_EDGE('',*,*,#595,.T.);
#762=ORIENTED_EDGE('',*,*,#596,.T.);
#763=ORIENTED_EDGE('',*,*,#597,.T.);
#764=ORIENTED_EDGE('',*,*,#598,.T.);
#765=ORIENTED_EDGE('',*,*,#585,.F.);
#766=ORIENTED_EDGE('',*,*,#599,.F.);
#767=ORIENTED_EDGE('',*,*,#596,.F.);
#768=ORIENTED_EDGE('',*,*,#600,.F.);
#769=ORIENTED_EDGE('',*,*,#601,.T.);
#770=ORIENTED_EDGE('',*,*,#602,.T.);
#771=ORIENTED_EDGE('',*,*,#603,.T.);
#772=ORIENTED_EDGE('',*,*,#604,.T.);
#773=ORIENTED_EDGE('',*,*,#602,.F.);
#774=ORIENTED_EDGE('',*,*,#605,.F.);
#775=ORIENTED_EDGE('',*,*,#606,.F.);
#776=ORIENTED_EDGE('',*,*,#607,.F.);
#777=ORIENTED_EDGE('',*,*,#608,.T.);
#778=ORIENTED_EDGE('',*,*,#609,.T.);
#779=ORIENTED_EDGE('',*,*,#610,.T.);
#780=ORIENTED_EDGE('',*,*,#611,.T.);
#781=ORIENTED_EDGE('',*,*,#609,.F.);
#782=ORIENTED_EDGE('',*,*,#612,.F.);
#783=ORIENTED_EDGE('',*,*,#613,.F.);
#784=ORIENTED_EDGE('',*,*,#614,.F.);
#785=ORIENTED_EDGE('',*,*,#615,.T.);
#786=ORIENTED_EDGE('',*,*,#616,.T.);
#787=ORIENTED_EDGE('',*,*,#617,.T.);
#788=ORIENTED_EDGE('',*,*,#606,.T.);
#789=ORIENTED_EDGE('',*,*,#616,.F.);
#790=ORIENTED_EDGE('',*,*,#618,.F.);
#791=ORIENTED_EDGE('',*,*,#619,.F.);
#792=ORIENTED_EDGE('',*,*,#620,.F.);
#793=ORIENTED_EDGE('',*,*,#621,.T.);
#794=ORIENTED_EDGE('',*,*,#622,.T.);
#795=ORIENTED_EDGE('',*,*,#623,.T.);
#796=ORIENTED_EDGE('',*,*,#624,.T.);
#797=ORIENTED_EDGE('',*,*,#611,.F.);
#798=ORIENTED_EDGE('',*,*,#625,.F.);
#799=ORIENTED_EDGE('',*,*,#622,.F.);
#800=ORIENTED_EDGE('',*,*,#626,.F.);
#801=ORIENTED_EDGE('',*,*,#627,.T.);
#802=ORIENTED_EDGE('',*,*,#628,.T.);
#803=ORIENTED_EDGE('',*,*,#629,.T.);
#804=ORIENTED_EDGE('',*,*,#561,.T.);
#805=ORIENTED_EDGE('',*,*,#566,.F.);
#806=ORIENTED_EDGE('',*,*,#630,.F.);
#807=ORIENTED_EDGE('',*,*,#628,.F.);
#808=ORIENTED_EDGE('',*,*,#631,.F.);
#809=ORIENTED_EDGE('',*,*,#632,.T.);
#810=ORIENTED_EDGE('',*,*,#633,.T.);
#811=ORIENTED_EDGE('',*,*,#634,.T.);
#812=ORIENTED_EDGE('',*,*,#619,.T.);
#813=ORIENTED_EDGE('',*,*,#604,.F.);
#814=ORIENTED_EDGE('',*,*,#635,.F.);
#815=ORIENTED_EDGE('',*,*,#633,.F.);
#816=ORIENTED_EDGE('',*,*,#636,.F.);
#817=ORIENTED_EDGE('',*,*,#637,.T.);
#818=ORIENTED_EDGE('',*,*,#638,.T.);
#819=ORIENTED_EDGE('',*,*,#639,.T.);
#820=ORIENTED_EDGE('',*,*,#613,.T.);
#821=ORIENTED_EDGE('',*,*,#624,.F.);
#822=ORIENTED_EDGE('',*,*,#640,.F.);
#823=ORIENTED_EDGE('',*,*,#638,.F.);
#824=ORIENTED_EDGE('',*,*,#641,.F.);
#825=ORIENTED_EDGE('',*,*,#642,.T.);
#826=ORIENTED_EDGE('',*,*,#643,.T.);
#827=ORIENTED_EDGE('',*,*,#644,.T.);
#828=ORIENTED_EDGE('',*,*,#587,.T.);
#829=ORIENTED_EDGE('',*,*,#598,.F.);
#830=ORIENTED_EDGE('',*,*,#645,.F.);
#831=ORIENTED_EDGE('',*,*,#643,.F.);
#832=ORIENTED_EDGE('',*,*,#646,.F.);
#833=ORIENTED_EDGE('',*,*,#647,.T.);
#834=ORIENTED_EDGE('',*,*,#648,.T.);
#835=ORIENTED_EDGE('',*,*,#649,.T.);
#836=ORIENTED_EDGE('',*,*,#593,.T.);
#837=ORIENTED_EDGE('',*,*,#578,.F.);
#838=ORIENTED_EDGE('',*,*,#650,.F.);
#839=ORIENTED_EDGE('',*,*,#648,.F.);
#840=ORIENTED_EDGE('',*,*,#651,.F.);
#841=ORIENTED_EDGE('',*,*,#652,.T.);
#842=ORIENTED_EDGE('',*,*,#653,.T.);
#843=ORIENTED_EDGE('',*,*,#654,.T.);
#844=ORIENTED_EDGE('',*,*,#573,.T.);
#845=ORIENTED_EDGE('',*,*,#552,.F.);
#846=ORIENTED_EDGE('',*,*,#655,.F.);
#847=ORIENTED_EDGE('',*,*,#653,.F.);
#848=ORIENTED_EDGE('',*,*,#656,.F.);
#849=ORIENTED_EDGE('',*,*,#657,.T.);
#850=ORIENTED_EDGE('',*,*,#658,.T.);
#851=ORIENTED_EDGE('',*,*,#659,.T.);
#852=ORIENTED_EDGE('',*,*,#660,.T.);
#853=ORIENTED_EDGE('',*,*,#660,.F.);
#854=ORIENTED_EDGE('',*,*,#661,.T.);
#855=ORIENTED_EDGE('',*,*,#662,.F.);
#856=ORIENTED_EDGE('',*,*,#663,.F.);
#857=ORIENTED_EDGE('',*,*,#659,.F.);
#858=ORIENTED_EDGE('',*,*,#664,.F.);
#859=ORIENTED_EDGE('',*,*,#665,.F.);
#860=ORIENTED_EDGE('',*,*,#666,.F.);
#861=ORIENTED_EDGE('',*,*,#667,.F.);
#862=ORIENTED_EDGE('',*,*,#668,.F.);
#863=ORIENTED_EDGE('',*,*,#669,.F.);
#864=ORIENTED_EDGE('',*,*,#670,.F.);
#865=ORIENTED_EDGE('',*,*,#671,.F.);
#866=ORIENTED_EDGE('',*,*,#672,.F.);
#867=ORIENTED_EDGE('',*,*,#673,.F.);
#868=ORIENTED_EDGE('',*,*,#661,.F.);
#869=ORIENTED_EDGE('',*,*,#555,.T.);
#870=ORIENTED_EDGE('',*,*,#571,.F.);
#871=ORIENTED_EDGE('',*,*,#574,.T.);
#872=ORIENTED_EDGE('',*,*,#654,.F.);
#873=ORIENTED_EDGE('',*,*,#655,.T.);
#874=ORIENTED_EDGE('',*,*,#551,.F.);
#875=ORIENTED_EDGE('',*,*,#645,.T.);
#876=ORIENTED_EDGE('',*,*,#597,.F.);
#877=ORIENTED_EDGE('',*,*,#599,.T.);
#878=ORIENTED_EDGE('',*,*,#584,.F.);
#879=ORIENTED_EDGE('',*,*,#588,.T.);
#880=ORIENTED_EDGE('',*,*,#644,.F.);
#881=ORIENTED_EDGE('',*,*,#567,.T.);
#882=ORIENTED_EDGE('',*,*,#558,.F.);
#883=ORIENTED_EDGE('',*,*,#562,.T.);
#884=ORIENTED_EDGE('',*,*,#629,.F.);
#885=ORIENTED_EDGE('',*,*,#630,.T.);
#886=ORIENTED_EDGE('',*,*,#565,.F.);
#887=ORIENTED_EDGE('',*,*,#614,.T.);
#888=ORIENTED_EDGE('',*,*,#639,.F.);
#889=ORIENTED_EDGE('',*,*,#640,.T.);
#890=ORIENTED_EDGE('',*,*,#623,.F.);
#891=ORIENTED_EDGE('',*,*,#625,.T.);
#892=ORIENTED_EDGE('',*,*,#610,.F.);
#893=ORIENTED_EDGE('',*,*,#581,.T.);
#894=ORIENTED_EDGE('',*,*,#591,.F.);
#895=ORIENTED_EDGE('',*,*,#594,.T.);
#896=ORIENTED_EDGE('',*,*,#649,.F.);
#897=ORIENTED_EDGE('',*,*,#650,.T.);
#898=ORIENTED_EDGE('',*,*,#577,.F.);
#899=ORIENTED_EDGE('',*,*,#635,.T.);
#900=ORIENTED_EDGE('',*,*,#603,.F.);
#901=ORIENTED_EDGE('',*,*,#607,.T.);
#902=ORIENTED_EDGE('',*,*,#617,.F.);
#903=ORIENTED_EDGE('',*,*,#620,.T.);
#904=ORIENTED_EDGE('',*,*,#634,.F.);
#905=ORIENTED_EDGE('',*,*,#674,.F.);
#906=ORIENTED_EDGE('',*,*,#675,.F.);
#907=ORIENTED_EDGE('',*,*,#676,.F.);
#908=ORIENTED_EDGE('',*,*,#677,.F.);
#909=ORIENTED_EDGE('',*,*,#678,.T.);
#910=ORIENTED_EDGE('',*,*,#679,.T.);
#911=ORIENTED_EDGE('',*,*,#665,.T.);
#912=ORIENTED_EDGE('',*,*,#680,.T.);
#913=ORIENTED_EDGE('',*,*,#679,.F.);
#914=ORIENTED_EDGE('',*,*,#681,.F.);
#915=ORIENTED_EDGE('',*,*,#682,.F.);
#916=ORIENTED_EDGE('',*,*,#666,.T.);
#917=ORIENTED_EDGE('',*,*,#683,.T.);
#918=ORIENTED_EDGE('',*,*,#684,.T.);
#919=ORIENTED_EDGE('',*,*,#667,.T.);
#920=ORIENTED_EDGE('',*,*,#682,.T.);
#921=ORIENTED_EDGE('',*,*,#685,.T.);
#922=ORIENTED_EDGE('',*,*,#686,.T.);
#923=ORIENTED_EDGE('',*,*,#669,.T.);
#924=ORIENTED_EDGE('',*,*,#687,.T.);
#925=ORIENTED_EDGE('',*,*,#686,.F.);
#926=ORIENTED_EDGE('',*,*,#688,.F.);
#927=ORIENTED_EDGE('',*,*,#689,.F.);
#928=ORIENTED_EDGE('',*,*,#670,.T.);
#929=ORIENTED_EDGE('',*,*,#690,.T.);
#930=ORIENTED_EDGE('',*,*,#691,.T.);
#931=ORIENTED_EDGE('',*,*,#671,.T.);
#932=ORIENTED_EDGE('',*,*,#689,.T.);
#933=ORIENTED_EDGE('',*,*,#692,.T.);
#934=ORIENTED_EDGE('',*,*,#662,.T.);
#935=ORIENTED_EDGE('',*,*,#673,.T.);
#936=ORIENTED_EDGE('',*,*,#693,.T.);
#937=ORIENTED_EDGE('',*,*,#694,.F.);
#938=ORIENTED_EDGE('',*,*,#695,.T.);
#939=ORIENTED_EDGE('',*,*,#677,.T.);
#940=ORIENTED_EDGE('',*,*,#695,.F.);
#941=ORIENTED_EDGE('',*,*,#696,.F.);
#942=ORIENTED_EDGE('',*,*,#697,.T.);
#943=ORIENTED_EDGE('',*,*,#676,.T.);
#944=ORIENTED_EDGE('',*,*,#697,.F.);
#945=ORIENTED_EDGE('',*,*,#698,.F.);
#946=ORIENTED_EDGE('',*,*,#699,.T.);
#947=ORIENTED_EDGE('',*,*,#675,.T.);
#948=ORIENTED_EDGE('',*,*,#699,.F.);
#949=ORIENTED_EDGE('',*,*,#700,.F.);
#950=ORIENTED_EDGE('',*,*,#701,.T.);
#951=ORIENTED_EDGE('',*,*,#674,.T.);
#952=ORIENTED_EDGE('',*,*,#701,.F.);
#953=ORIENTED_EDGE('',*,*,#658,.F.);
#954=ORIENTED_EDGE('',*,*,#702,.F.);
#955=ORIENTED_EDGE('',*,*,#680,.F.);
#956=ORIENTED_EDGE('',*,*,#664,.T.);
#957=ORIENTED_EDGE('',*,*,#684,.F.);
#958=ORIENTED_EDGE('',*,*,#703,.F.);
#959=ORIENTED_EDGE('',*,*,#687,.F.);
#960=ORIENTED_EDGE('',*,*,#668,.T.);
#961=ORIENTED_EDGE('',*,*,#691,.F.);
#962=ORIENTED_EDGE('',*,*,#704,.F.);
#963=ORIENTED_EDGE('',*,*,#693,.F.);
#964=ORIENTED_EDGE('',*,*,#672,.T.);
#965=ORIENTED_EDGE('',*,*,#657,.F.);
#966=ORIENTED_EDGE('',*,*,#663,.T.);
#967=ORIENTED_EDGE('',*,*,#692,.F.);
#968=ORIENTED_EDGE('',*,*,#704,.T.);
#969=ORIENTED_EDGE('',*,*,#690,.F.);
#970=ORIENTED_EDGE('',*,*,#688,.T.);
#971=ORIENTED_EDGE('',*,*,#685,.F.);
#972=ORIENTED_EDGE('',*,*,#703,.T.);
#973=ORIENTED_EDGE('',*,*,#683,.F.);
#974=ORIENTED_EDGE('',*,*,#681,.T.);
#975=ORIENTED_EDGE('',*,*,#678,.F.);
#976=ORIENTED_EDGE('',*,*,#702,.T.);
#977=ORIENTED_EDGE('',*,*,#553,.T.);
#978=ORIENTED_EDGE('',*,*,#549,.F.);
#979=ORIENTED_EDGE('',*,*,#656,.T.);
#980=ORIENTED_EDGE('',*,*,#652,.F.);
#981=ORIENTED_EDGE('',*,*,#572,.T.);
#982=ORIENTED_EDGE('',*,*,#569,.F.);
#983=ORIENTED_EDGE('',*,*,#646,.T.);
#984=ORIENTED_EDGE('',*,*,#642,.F.);
#985=ORIENTED_EDGE('',*,*,#586,.T.);
#986=ORIENTED_EDGE('',*,*,#582,.F.);
#987=ORIENTED_EDGE('',*,*,#600,.T.);
#988=ORIENTED_EDGE('',*,*,#595,.F.);
#989=ORIENTED_EDGE('',*,*,#568,.T.);
#990=ORIENTED_EDGE('',*,*,#563,.F.);
#991=ORIENTED_EDGE('',*,*,#631,.T.);
#992=ORIENTED_EDGE('',*,*,#627,.F.);
#993=ORIENTED_EDGE('',*,*,#560,.T.);
#994=ORIENTED_EDGE('',*,*,#556,.F.);
#995=ORIENTED_EDGE('',*,*,#612,.T.);
#996=ORIENTED_EDGE('',*,*,#608,.F.);
#997=ORIENTED_EDGE('',*,*,#626,.T.);
#998=ORIENTED_EDGE('',*,*,#621,.F.);
#999=ORIENTED_EDGE('',*,*,#641,.T.);
#1000=ORIENTED_EDGE('',*,*,#637,.F.);
#1001=ORIENTED_EDGE('',*,*,#579,.T.);
#1002=ORIENTED_EDGE('',*,*,#575,.F.);
#1003=ORIENTED_EDGE('',*,*,#651,.T.);
#1004=ORIENTED_EDGE('',*,*,#647,.F.);
#1005=ORIENTED_EDGE('',*,*,#592,.T.);
#1006=ORIENTED_EDGE('',*,*,#589,.F.);
#1007=ORIENTED_EDGE('',*,*,#636,.T.);
#1008=ORIENTED_EDGE('',*,*,#632,.F.);
#1009=ORIENTED_EDGE('',*,*,#618,.T.);
#1010=ORIENTED_EDGE('',*,*,#615,.F.);
#1011=ORIENTED_EDGE('',*,*,#605,.T.);
#1012=ORIENTED_EDGE('',*,*,#601,.F.);
#1013=ORIENTED_EDGE('',*,*,#700,.T.);
#1014=ORIENTED_EDGE('',*,*,#698,.T.);
#1015=ORIENTED_EDGE('',*,*,#696,.T.);
#1016=ORIENTED_EDGE('',*,*,#694,.T.);
#1017=CYLINDRICAL_SURFACE('',#1121,0.078740157480315);
#1018=CYLINDRICAL_SURFACE('',#1125,0.078740157480315);
#1019=CYLINDRICAL_SURFACE('',#1129,0.078740157480315);
#1020=CYLINDRICAL_SURFACE('',#1133,0.078740157480315);
#1021=CYLINDRICAL_SURFACE('',#1137,0.0787401574803149);
#1022=CYLINDRICAL_SURFACE('',#1141,0.078740157480315);
#1023=CYLINDRICAL_SURFACE('',#1145,0.078740157480315);
#1024=CYLINDRICAL_SURFACE('',#1149,0.0787401574803149);
#1025=CYLINDRICAL_SURFACE('',#1153,0.078740157480315);
#1026=CYLINDRICAL_SURFACE('',#1157,0.078740157480315);
#1027=CYLINDRICAL_SURFACE('',#1161,0.0787401574803149);
#1028=CYLINDRICAL_SURFACE('',#1165,0.078740157480315);
#1029=CYLINDRICAL_SURFACE('',#1169,0.078740157480315);
#1030=CYLINDRICAL_SURFACE('',#1173,0.078740157480315);
#1031=CYLINDRICAL_SURFACE('',#1177,0.078740157480315);
#1032=CYLINDRICAL_SURFACE('',#1181,0.078740157480315);
#1033=CYLINDRICAL_SURFACE('',#1185,0.078740157480315);
#1034=CYLINDRICAL_SURFACE('',#1189,0.078740157480315);
#1035=CYLINDRICAL_SURFACE('',#1193,0.25);
#1036=CYLINDRICAL_SURFACE('',#1207,0.25);
#1037=CYLINDRICAL_SURFACE('',#1210,0.25);
#1038=CYLINDRICAL_SURFACE('',#1212,0.25);
#1039=CYLINDRICAL_SURFACE('',#1215,0.25);
#1040=CYLINDRICAL_SURFACE('',#1217,0.25);
#1041=CYLINDRICAL_SURFACE('',#1219,0.086);
#1042=CYLINDRICAL_SURFACE('',#1221,0.086);
#1043=CYLINDRICAL_SURFACE('',#1223,0.0860000000000001);
#1044=CYLINDRICAL_SURFACE('',#1225,0.0860000000000001);
#1045=ADVANCED_FACE('',(#61),#1017,.F.);
#1046=ADVANCED_FACE('',(#62),#35,.F.);
#1047=ADVANCED_FACE('',(#63),#1018,.F.);
#1048=ADVANCED_FACE('',(#64),#36,.F.);
#1049=ADVANCED_FACE('',(#65),#1019,.F.);
#1050=ADVANCED_FACE('',(#66),#37,.F.);
#1051=ADVANCED_FACE('',(#67),#1020,.F.);
#1052=ADVANCED_FACE('',(#68),#38,.F.);
#1053=ADVANCED_FACE('',(#69),#1021,.F.);
#1054=ADVANCED_FACE('',(#70),#39,.F.);
#1055=ADVANCED_FACE('',(#71),#1022,.F.);
#1056=ADVANCED_FACE('',(#72),#40,.F.);
#1057=ADVANCED_FACE('',(#73),#1023,.F.);
#1058=ADVANCED_FACE('',(#74),#41,.F.);
#1059=ADVANCED_FACE('',(#75),#1024,.F.);
#1060=ADVANCED_FACE('',(#76),#42,.F.);
#1061=ADVANCED_FACE('',(#77),#1025,.F.);
#1062=ADVANCED_FACE('',(#78),#43,.F.);
#1063=ADVANCED_FACE('',(#79),#1026,.F.);
#1064=ADVANCED_FACE('',(#80),#44,.F.);
#1065=ADVANCED_FACE('',(#81),#1027,.F.);
#1066=ADVANCED_FACE('',(#82),#45,.F.);
#1067=ADVANCED_FACE('',(#83),#1028,.F.);
#1068=ADVANCED_FACE('',(#84),#46,.F.);
#1069=ADVANCED_FACE('',(#85),#1029,.F.);
#1070=ADVANCED_FACE('',(#86),#47,.F.);
#1071=ADVANCED_FACE('',(#87),#1030,.F.);
#1072=ADVANCED_FACE('',(#88),#48,.F.);
#1073=ADVANCED_FACE('',(#89),#1031,.F.);
#1074=ADVANCED_FACE('',(#90),#49,.F.);
#1075=ADVANCED_FACE('',(#91),#1032,.F.);
#1076=ADVANCED_FACE('',(#92),#50,.F.);
#1077=ADVANCED_FACE('',(#93),#1033,.F.);
#1078=ADVANCED_FACE('',(#94),#51,.F.);
#1079=ADVANCED_FACE('',(#95),#1034,.F.);
#1080=ADVANCED_FACE('',(#96),#52,.F.);
#1081=ADVANCED_FACE('',(#97),#1035,.T.);
#1082=ADVANCED_FACE('',(#98),#53,.T.);
#1083=ADVANCED_FACE('',(#99,#15,#16,#17,#18,#19,#20,#21,#22,#23,#24),#54,
 .F.);
#1084=ADVANCED_FACE('',(#100),#1036,.T.);
#1085=ADVANCED_FACE('',(#101),#55,.T.);
#1086=ADVANCED_FACE('',(#102),#1037,.T.);
#1087=ADVANCED_FACE('',(#103),#1038,.T.);
#1088=ADVANCED_FACE('',(#104),#56,.T.);
#1089=ADVANCED_FACE('',(#105),#1039,.T.);
#1090=ADVANCED_FACE('',(#106),#1040,.T.);
#1091=ADVANCED_FACE('',(#107),#1041,.F.);
#1092=ADVANCED_FACE('',(#108),#1042,.F.);
#1093=ADVANCED_FACE('',(#109),#1043,.F.);
#1094=ADVANCED_FACE('',(#110),#1044,.F.);
#1095=ADVANCED_FACE('',(#111),#57,.T.);
#1096=ADVANCED_FACE('',(#112),#58,.T.);
#1097=ADVANCED_FACE('',(#113),#59,.T.);
#1098=ADVANCED_FACE('',(#114,#25,#26,#27,#28,#29,#30,#31,#32,#33,#34),#60,
 .T.);
#1099=CLOSED_SHELL('',(#1045,#1046,#1047,#1048,#1049,#1050,#1051,#1052,
#1053,#1054,#1055,#1056,#1057,#1058,#1059,#1060,#1061,#1062,#1063,#1064,
#1065,#1066,#1067,#1068,#1069,#1070,#1071,#1072,#1073,#1074,#1075,#1076,
#1077,#1078,#1079,#1080,#1081,#1082,#1083,#1084,#1085,#1086,#1087,#1088,
#1089,#1090,#1091,#1092,#1093,#1094,#1095,#1096,#1097,#1098));
#1100=DERIVED_UNIT_ELEMENT(#1102,1.);
#1101=DERIVED_UNIT_ELEMENT(#1876,-3.);
#1102=(
CONVERSION_BASED_UNIT('gram',#1104)
MASS_UNIT()
NAMED_UNIT(#1873)
);
#1103=(
MASS_UNIT()
NAMED_UNIT(*)
SI_UNIT(.KILO.,.GRAM.)
);
#1104=MASS_MEASURE_WITH_UNIT(MASS_MEASURE(0.001),#1103);
#1105=DERIVED_UNIT((#1100,#1101));
#1106=MEASURE_REPRESENTATION_ITEM('density measure',
POSITIVE_RATIO_MEASURE(1.),#1105);
#1107=PROPERTY_DEFINITION_REPRESENTATION(#1112,#1109);
#1108=PROPERTY_DEFINITION_REPRESENTATION(#1113,#1110);
#1109=REPRESENTATION('material name',(#1111),#1870);
#1110=REPRESENTATION('density',(#1106),#1870);
#1111=DESCRIPTIVE_REPRESENTATION_ITEM('Generic','Generic');
#1112=PROPERTY_DEFINITION('material property','material name',#1884);
#1113=PROPERTY_DEFINITION('material property','density of part',#1884);
#1114=DATE_TIME_ROLE('creation_date');
#1115=APPLIED_DATE_AND_TIME_ASSIGNMENT(#1116,#1114,(#1884));
#1116=DATE_AND_TIME(#1117,#1118);
#1117=CALENDAR_DATE(2025,9,12);
#1118=LOCAL_TIME(0,0,0.,#1119);
#1119=COORDINATED_UNIVERSAL_TIME_OFFSET(0,0,.BEHIND.);
#1120=AXIS2_PLACEMENT_3D('',#1553,#1231,#1232);
#1121=AXIS2_PLACEMENT_3D('',#1554,#1233,#1234);
#1122=AXIS2_PLACEMENT_3D('',#1557,#1235,#1236);
#1123=AXIS2_PLACEMENT_3D('',#1561,#1238,#1239);
#1124=AXIS2_PLACEMENT_3D('',#1563,#1241,#1242);
#1125=AXIS2_PLACEMENT_3D('',#1569,#1246,#1247);
#1126=AXIS2_PLACEMENT_3D('',#1572,#1248,#1249);
#1127=AXIS2_PLACEMENT_3D('',#1576,#1251,#1252);
#1128=AXIS2_PLACEMENT_3D('',#1578,#1254,#1255);
#1129=AXIS2_PLACEMENT_3D('',#1584,#1259,#1260);
#1130=AXIS2_PLACEMENT_3D('',#1587,#1261,#1262);
#1131=AXIS2_PLACEMENT_3D('',#1591,#1264,#1265);
#1132=AXIS2_PLACEMENT_3D('',#1593,#1267,#1268);
#1133=AXIS2_PLACEMENT_3D('',#1596,#1271,#1272);
#1134=AXIS2_PLACEMENT_3D('',#1598,#1273,#1274);
#1135=AXIS2_PLACEMENT_3D('',#1601,#1276,#1277);
#1136=AXIS2_PLACEMENT_3D('',#1602,#1278,#1279);
#1137=AXIS2_PLACEMENT_3D('',#1608,#1283,#1284);
#1138=AXIS2_PLACEMENT_3D('',#1611,#1285,#1286);
#1139=AXIS2_PLACEMENT_3D('',#1615,#1288,#1289);
#1140=AXIS2_PLACEMENT_3D('',#1617,#1291,#1292);
#1141=AXIS2_PLACEMENT_3D('',#1623,#1296,#1297);
#1142=AXIS2_PLACEMENT_3D('',#1626,#1298,#1299);
#1143=AXIS2_PLACEMENT_3D('',#1630,#1301,#1302);
#1144=AXIS2_PLACEMENT_3D('',#1632,#1304,#1305);
#1145=AXIS2_PLACEMENT_3D('',#1638,#1309,#1310);
#1146=AXIS2_PLACEMENT_3D('',#1640,#1311,#1312);
#1147=AXIS2_PLACEMENT_3D('',#1643,#1314,#1315);
#1148=AXIS2_PLACEMENT_3D('',#1644,#1316,#1317);
#1149=AXIS2_PLACEMENT_3D('',#1650,#1321,#1322);
#1150=AXIS2_PLACEMENT_3D('',#1653,#1323,#1324);
#1151=AXIS2_PLACEMENT_3D('',#1657,#1326,#1327);
#1152=AXIS2_PLACEMENT_3D('',#1659,#1329,#1330);
#1153=AXIS2_PLACEMENT_3D('',#1662,#1333,#1334);
#1154=AXIS2_PLACEMENT_3D('',#1665,#1335,#1336);
#1155=AXIS2_PLACEMENT_3D('',#1669,#1338,#1339);
#1156=AXIS2_PLACEMENT_3D('',#1671,#1341,#1342);
#1157=AXIS2_PLACEMENT_3D('',#1677,#1346,#1347);
#1158=AXIS2_PLACEMENT_3D('',#1680,#1348,#1349);
#1159=AXIS2_PLACEMENT_3D('',#1684,#1351,#1352);
#1160=AXIS2_PLACEMENT_3D('',#1686,#1354,#1355);
#1161=AXIS2_PLACEMENT_3D('',#1692,#1359,#1360);
#1162=AXIS2_PLACEMENT_3D('',#1694,#1361,#1362);
#1163=AXIS2_PLACEMENT_3D('',#1697,#1364,#1365);
#1164=AXIS2_PLACEMENT_3D('',#1698,#1366,#1367);
#1165=AXIS2_PLACEMENT_3D('',#1704,#1371,#1372);
#1166=AXIS2_PLACEMENT_3D('',#1707,#1373,#1374);
#1167=AXIS2_PLACEMENT_3D('',#1711,#1376,#1377);
#1168=AXIS2_PLACEMENT_3D('',#1713,#1379,#1380);
#1169=AXIS2_PLACEMENT_3D('',#1716,#1383,#1384);
#1170=AXIS2_PLACEMENT_3D('',#1718,#1385,#1386);
#1171=AXIS2_PLACEMENT_3D('',#1721,#1388,#1389);
#1172=AXIS2_PLACEMENT_3D('',#1722,#1390,#1391);
#1173=AXIS2_PLACEMENT_3D('',#1725,#1394,#1395);
#1174=AXIS2_PLACEMENT_3D('',#1727,#1396,#1397);
#1175=AXIS2_PLACEMENT_3D('',#1730,#1399,#1400);
#1176=AXIS2_PLACEMENT_3D('',#1731,#1401,#1402);
#1177=AXIS2_PLACEMENT_3D('',#1734,#1405,#1406);
#1178=AXIS2_PLACEMENT_3D('',#1736,#1407,#1408);
#1179=AXIS2_PLACEMENT_3D('',#1739,#1410,#1411);
#1180=AXIS2_PLACEMENT_3D('',#1740,#1412,#1413);
#1181=AXIS2_PLACEMENT_3D('',#1743,#1416,#1417);
#1182=AXIS2_PLACEMENT_3D('',#1745,#1418,#1419);
#1183=AXIS2_PLACEMENT_3D('',#1748,#1421,#1422);
#1184=AXIS2_PLACEMENT_3D('',#1749,#1423,#1424);
#1185=AXIS2_PLACEMENT_3D('',#1752,#1427,#1428);
#1186=AXIS2_PLACEMENT_3D('',#1754,#1429,#1430);
#1187=AXIS2_PLACEMENT_3D('',#1757,#1432,#1433);
#1188=AXIS2_PLACEMENT_3D('',#1758,#1434,#1435);
#1189=AXIS2_PLACEMENT_3D('',#1761,#1438,#1439);
#1190=AXIS2_PLACEMENT_3D('',#1763,#1440,#1441);
#1191=AXIS2_PLACEMENT_3D('',#1766,#1443,#1444);
#1192=AXIS2_PLACEMENT_3D('',#1767,#1445,#1446);
#1193=AXIS2_PLACEMENT_3D('',#1770,#1449,#1450);
#1194=AXIS2_PLACEMENT_3D('',#1773,#1451,#1452);
#1195=AXIS2_PLACEMENT_3D('',#1777,#1454,#1455);
#1196=AXIS2_PLACEMENT_3D('',#1779,#1457,#1458);
#1197=AXIS2_PLACEMENT_3D('',#1785,#1462,#1463);
#1198=AXIS2_PLACEMENT_3D('',#1789,#1465,#1466);
#1199=AXIS2_PLACEMENT_3D('',#1793,#1468,#1469);
#1200=AXIS2_PLACEMENT_3D('',#1797,#1471,#1472);
#1201=AXIS2_PLACEMENT_3D('',#1801,#1474,#1475);
#1202=AXIS2_PLACEMENT_3D('',#1804,#1477,#1478);
#1203=AXIS2_PLACEMENT_3D('',#1806,#1479,#1480);
#1204=AXIS2_PLACEMENT_3D('',#1808,#1481,#1482);
#1205=AXIS2_PLACEMENT_3D('',#1810,#1483,#1484);
#1206=AXIS2_PLACEMENT_3D('',#1812,#1485,#1486);
#1207=AXIS2_PLACEMENT_3D('',#1813,#1487,#1488);
#1208=AXIS2_PLACEMENT_3D('',#1816,#1489,#1490);
#1209=AXIS2_PLACEMENT_3D('',#1819,#1493,#1494);
#1210=AXIS2_PLACEMENT_3D('',#1823,#1497,#1498);
#1211=AXIS2_PLACEMENT_3D('',#1825,#1499,#1500);
#1212=AXIS2_PLACEMENT_3D('',#1827,#1502,#1503);
#1213=AXIS2_PLACEMENT_3D('',#1830,#1504,#1505);
#1214=AXIS2_PLACEMENT_3D('',#1833,#1508,#1509);
#1215=AXIS2_PLACEMENT_3D('',#1837,#1512,#1513);
#1216=AXIS2_PLACEMENT_3D('',#1839,#1514,#1515);
#1217=AXIS2_PLACEMENT_3D('',#1841,#1517,#1518);
#1218=AXIS2_PLACEMENT_3D('',#1843,#1519,#1520);
#1219=AXIS2_PLACEMENT_3D('',#1845,#1522,#1523);
#1220=AXIS2_PLACEMENT_3D('',#1847,#1524,#1525);
#1221=AXIS2_PLACEMENT_3D('',#1849,#1527,#1528);
#1222=AXIS2_PLACEMENT_3D('',#1851,#1529,#1530);
#1223=AXIS2_PLACEMENT_3D('',#1853,#1532,#1533);
#1224=AXIS2_PLACEMENT_3D('',#1855,#1534,#1535);
#1225=AXIS2_PLACEMENT_3D('',#1857,#1537,#1538);
#1226=AXIS2_PLACEMENT_3D('',#1859,#1539,#1540);
#1227=AXIS2_PLACEMENT_3D('',#1861,#1542,#1543);
#1228=AXIS2_PLACEMENT_3D('',#1863,#1545,#1546);
#1229=AXIS2_PLACEMENT_3D('',#1865,#1548,#1549);
#1230=AXIS2_PLACEMENT_3D('',#1867,#1551,#1552);
#1231=DIRECTION('axis',(0.,0.,1.));
#1232=DIRECTION('refdir',(1.,0.,0.));
#1233=DIRECTION('center_axis',(0.,0.,-1.));
#1234=DIRECTION('ref_axis',(-0.954506304428105,-0.298190735615649,0.));
#1235=DIRECTION('center_axis',(0.,0.,1.));
#1236=DIRECTION('ref_axis',(-0.954506304428105,-0.298190735615649,0.));
#1237=DIRECTION('',(0.,0.,-1.));
#1238=DIRECTION('center_axis',(0.,0.,-1.));
#1239=DIRECTION('ref_axis',(-0.954506304428105,-0.298190735615649,0.));
#1240=DIRECTION('',(0.,0.,1.));
#1241=DIRECTION('center_axis',(6.12466348540431E-17,-1.,0.));
#1242=DIRECTION('ref_axis',(-1.,-6.12466348540431E-17,0.));
#1243=DIRECTION('',(-1.,-6.12466348540431E-17,0.));
#1244=DIRECTION('',(0.,0.,1.));
#1245=DIRECTION('',(1.,6.12466348540431E-17,0.));
#1246=DIRECTION('center_axis',(0.,0.,-1.));
#1247=DIRECTION('ref_axis',(-0.464085189305587,-0.885790571787258,0.));
#1248=DIRECTION('center_axis',(0.,0.,1.));
#1249=DIRECTION('ref_axis',(-0.464085189305587,-0.885790571787258,0.));
#1250=DIRECTION('',(0.,0.,-1.));
#1251=DIRECTION('center_axis',(0.,0.,-1.));
#1252=DIRECTION('ref_axis',(-0.464085189305587,-0.885790571787258,0.));
#1253=DIRECTION('',(0.,0.,1.));
#1254=DIRECTION('center_axis',(0.569249874134382,-0.822164570385997,0.));
#1255=DIRECTION('ref_axis',(-0.822164570385997,-0.569249874134382,0.));
#1256=DIRECTION('',(-0.822164570385997,-0.569249874134382,0.));
#1257=DIRECTION('',(0.,0.,1.));
#1258=DIRECTION('',(0.822164570385997,0.569249874134382,0.));
#1259=DIRECTION('center_axis',(0.,0.,-1.));
#1260=DIRECTION('ref_axis',(-0.707106781186546,0.707106781186549,0.));
#1261=DIRECTION('center_axis',(0.,0.,1.));
#1262=DIRECTION('ref_axis',(-0.707106781186546,0.707106781186549,0.));
#1263=DIRECTION('',(0.,0.,-1.));
#1264=DIRECTION('center_axis',(0.,0.,-1.));
#1265=DIRECTION('ref_axis',(-0.707106781186546,0.707106781186549,0.));
#1266=DIRECTION('',(0.,0.,1.));
#1267=DIRECTION('center_axis',(-1.,0.,0.));
#1268=DIRECTION('ref_axis',(0.,1.,0.));
#1269=DIRECTION('',(0.,-1.,0.));
#1270=DIRECTION('',(0.,1.,0.));
#1271=DIRECTION('center_axis',(0.,0.,-1.));
#1272=DIRECTION('ref_axis',(0.707106781186549,-0.707106781186546,0.));
#1273=DIRECTION('center_axis',(0.,0.,1.));
#1274=DIRECTION('ref_axis',(0.707106781186549,-0.707106781186546,0.));
#1275=DIRECTION('',(0.,0.,-1.));
#1276=DIRECTION('center_axis',(0.,0.,-1.));
#1277=DIRECTION('ref_axis',(0.707106781186549,-0.707106781186546,0.));
#1278=DIRECTION('center_axis',(1.,0.,0.));
#1279=DIRECTION('ref_axis',(0.,-1.,0.));
#1280=DIRECTION('',(0.,-1.,0.));
#1281=DIRECTION('',(0.,0.,1.));
#1282=DIRECTION('',(0.,1.,0.));
#1283=DIRECTION('center_axis',(0.,0.,-1.));
#1284=DIRECTION('ref_axis',(-0.707106781186548,-0.707106781186547,0.));
#1285=DIRECTION('center_axis',(0.,0.,1.));
#1286=DIRECTION('ref_axis',(-0.707106781186548,-0.707106781186547,0.));
#1287=DIRECTION('',(0.,0.,-1.));
#1288=DIRECTION('center_axis',(0.,0.,-1.));
#1289=DIRECTION('ref_axis',(-0.707106781186548,-0.707106781186547,0.));
#1290=DIRECTION('',(0.,0.,1.));
#1291=DIRECTION('center_axis',(0.,-1.,0.));
#1292=DIRECTION('ref_axis',(-1.,0.,0.));
#1293=DIRECTION('',(-1.,0.,0.));
#1294=DIRECTION('',(0.,0.,1.));
#1295=DIRECTION('',(1.,0.,0.));
#1296=DIRECTION('center_axis',(0.,0.,-1.));
#1297=DIRECTION('ref_axis',(0.707106781186547,0.707106781186548,0.));
#1298=DIRECTION('center_axis',(0.,0.,1.));
#1299=DIRECTION('ref_axis',(0.707106781186547,0.707106781186548,0.));
#1300=DIRECTION('',(0.,0.,-1.));
#1301=DIRECTION('center_axis',(0.,0.,-1.));
#1302=DIRECTION('ref_axis',(0.707106781186547,0.707106781186548,0.));
#1303=DIRECTION('',(0.,0.,1.));
#1304=DIRECTION('center_axis',(-3.63841404094071E-16,1.,0.));
#1305=DIRECTION('ref_axis',(1.,3.63841404094071E-16,0.));
#1306=DIRECTION('',(1.,3.63841404094071E-16,0.));
#1307=DIRECTION('',(0.,0.,1.));
#1308=DIRECTION('',(-1.,-3.63841404094071E-16,0.));
#1309=DIRECTION('center_axis',(0.,0.,-1.));
#1310=DIRECTION('ref_axis',(0.954520771668866,-0.298144422139126,0.));
#1311=DIRECTION('center_axis',(0.,0.,1.));
#1312=DIRECTION('ref_axis',(0.954520771668866,-0.298144422139126,0.));
#1313=DIRECTION('',(0.,0.,-1.));
#1314=DIRECTION('center_axis',(0.,0.,-1.));
#1315=DIRECTION('ref_axis',(0.954520771668866,-0.298144422139126,0.));
#1316=DIRECTION('center_axis',(0.569170087778022,0.822219807094647,0.));
#1317=DIRECTION('ref_axis',(0.822219807094647,-0.569170087778022,0.));
#1318=DIRECTION('',(0.822219807094647,-0.569170087778022,0.));
#1319=DIRECTION('',(0.,0.,1.));
#1320=DIRECTION('',(-0.822219807094647,0.569170087778022,0.));
#1321=DIRECTION('center_axis',(0.,0.,-1.));
#1322=DIRECTION('ref_axis',(0.464128167762945,-0.885768053097994,0.));
#1323=DIRECTION('center_axis',(0.,0.,1.));
#1324=DIRECTION('ref_axis',(0.464128167762945,-0.885768053097994,0.));
#1325=DIRECTION('',(0.,0.,-1.));
#1326=DIRECTION('center_axis',(0.,0.,-1.));
#1327=DIRECTION('ref_axis',(0.464128167762945,-0.885768053097994,0.));
#1328=DIRECTION('',(0.,0.,1.));
#1329=DIRECTION('center_axis',(1.,1.3140079543496E-16,0.));
#1330=DIRECTION('ref_axis',(1.3140079543496E-16,-1.,0.));
#1331=DIRECTION('',(-1.3140079543496E-16,1.,0.));
#1332=DIRECTION('',(1.3140079543496E-16,-1.,0.));
#1333=DIRECTION('center_axis',(0.,0.,-1.));
#1334=DIRECTION('ref_axis',(0.992037631269436,-0.125941804597708,0.));
#1335=DIRECTION('center_axis',(0.,0.,1.));
#1336=DIRECTION('ref_axis',(0.992037631269436,-0.125941804597708,0.));
#1337=DIRECTION('',(0.,0.,-1.));
#1338=DIRECTION('center_axis',(0.,0.,-1.));
#1339=DIRECTION('ref_axis',(0.992037631269436,-0.125941804597708,0.));
#1340=DIRECTION('',(0.,0.,1.));
#1341=DIRECTION('center_axis',(0.249878019021769,0.968277323709358,0.));
#1342=DIRECTION('ref_axis',(0.968277323709358,-0.249878019021769,0.));
#1343=DIRECTION('',(0.968277323709358,-0.249878019021769,0.));
#1344=DIRECTION('',(0.,0.,1.));
#1345=DIRECTION('',(-0.968277323709358,0.249878019021769,0.));
#1346=DIRECTION('center_axis',(0.,0.,-1.));
#1347=DIRECTION('ref_axis',(-0.992037631269438,-0.125941804597691,0.));
#1348=DIRECTION('center_axis',(0.,0.,1.));
#1349=DIRECTION('ref_axis',(-0.992037631269438,-0.125941804597691,0.));
#1350=DIRECTION('',(0.,0.,-1.));
#1351=DIRECTION('center_axis',(0.,0.,-1.));
#1352=DIRECTION('ref_axis',(-0.992037631269438,-0.125941804597691,0.));
#1353=DIRECTION('',(0.,0.,1.));
#1354=DIRECTION('center_axis',(0.,-1.,0.));
#1355=DIRECTION('ref_axis',(-1.,0.,0.));
#1356=DIRECTION('',(-1.,0.,0.));
#1357=DIRECTION('',(0.,0.,1.));
#1358=DIRECTION('',(1.,0.,0.));
#1359=DIRECTION('center_axis',(0.,0.,-1.));
#1360=DIRECTION('ref_axis',(-0.612422232196967,0.790530840328753,0.));
#1361=DIRECTION('center_axis',(0.,0.,1.));
#1362=DIRECTION('ref_axis',(-0.612422232196967,0.790530840328753,0.));
#1363=DIRECTION('',(0.,0.,-1.));
#1364=DIRECTION('center_axis',(0.,0.,-1.));
#1365=DIRECTION('ref_axis',(-0.612422232196967,0.790530840328753,0.));
#1366=DIRECTION('center_axis',(-1.,0.,0.));
#1367=DIRECTION('ref_axis',(0.,1.,0.));
#1368=DIRECTION('',(0.,1.,0.));
#1369=DIRECTION('',(0.,0.,1.));
#1370=DIRECTION('',(0.,-1.,0.));
#1371=DIRECTION('center_axis',(0.,0.,-1.));
#1372=DIRECTION('ref_axis',(0.612422232196968,0.790530840328752,0.));
#1373=DIRECTION('center_axis',(0.,0.,1.));
#1374=DIRECTION('ref_axis',(0.612422232196968,0.790530840328752,0.));
#1375=DIRECTION('',(0.,0.,-1.));
#1376=DIRECTION('center_axis',(0.,0.,-1.));
#1377=DIRECTION('ref_axis',(0.612422232196968,0.790530840328752,0.));
#1378=DIRECTION('',(0.,0.,1.));
#1379=DIRECTION('center_axis',(-0.249878019021769,0.968277323709358,0.));
#1380=DIRECTION('ref_axis',(0.968277323709358,0.249878019021769,0.));
#1381=DIRECTION('',(-0.968277323709358,-0.249878019021769,0.));
#1382=DIRECTION('',(0.968277323709358,0.249878019021769,0.));
#1383=DIRECTION('center_axis',(0.,0.,-1.));
#1384=DIRECTION('ref_axis',(0.954506304428104,0.298190735615651,0.));
#1385=DIRECTION('center_axis',(0.,0.,1.));
#1386=DIRECTION('ref_axis',(0.954506304428104,0.298190735615651,0.));
#1387=DIRECTION('',(0.,0.,-1.));
#1388=DIRECTION('center_axis',(0.,0.,-1.));
#1389=DIRECTION('ref_axis',(0.954506304428104,0.298190735615651,0.));
#1390=DIRECTION('center_axis',(-6.06548310858699E-17,1.,0.));
#1391=DIRECTION('ref_axis',(1.,6.06548310858699E-17,0.));
#1392=DIRECTION('',(-1.,-6.06548310858699E-17,0.));
#1393=DIRECTION('',(1.,6.06548310858699E-17,0.));
#1394=DIRECTION('center_axis',(0.,0.,-1.));
#1395=DIRECTION('ref_axis',(-0.707106781186547,-0.707106781186547,0.));
#1396=DIRECTION('center_axis',(0.,0.,1.));
#1397=DIRECTION('ref_axis',(-0.707106781186547,-0.707106781186547,0.));
#1398=DIRECTION('',(0.,0.,-1.));
#1399=DIRECTION('center_axis',(0.,0.,-1.));
#1400=DIRECTION('ref_axis',(-0.707106781186547,-0.707106781186547,0.));
#1401=DIRECTION('center_axis',(0.,-1.,0.));
#1402=DIRECTION('ref_axis',(-1.,0.,0.));
#1403=DIRECTION('',(1.,0.,0.));
#1404=DIRECTION('',(-1.,0.,0.));
#1405=DIRECTION('center_axis',(0.,0.,-1.));
#1406=DIRECTION('ref_axis',(0.707106781186549,-0.707106781186546,0.));
#1407=DIRECTION('center_axis',(0.,0.,1.));
#1408=DIRECTION('ref_axis',(0.707106781186549,-0.707106781186546,0.));
#1409=DIRECTION('',(0.,0.,-1.));
#1410=DIRECTION('center_axis',(0.,0.,-1.));
#1411=DIRECTION('ref_axis',(0.707106781186549,-0.707106781186546,0.));
#1412=DIRECTION('center_axis',(1.,0.,0.));
#1413=DIRECTION('ref_axis',(0.,-1.,0.));
#1414=DIRECTION('',(0.,1.,0.));
#1415=DIRECTION('',(0.,-1.,0.));
#1416=DIRECTION('center_axis',(0.,0.,-1.));
#1417=DIRECTION('ref_axis',(-0.954520771668864,0.298144422139132,0.));
#1418=DIRECTION('center_axis',(0.,0.,1.));
#1419=DIRECTION('ref_axis',(-0.954520771668864,0.298144422139132,0.));
#1420=DIRECTION('',(0.,0.,-1.));
#1421=DIRECTION('center_axis',(0.,0.,-1.));
#1422=DIRECTION('ref_axis',(-0.954520771668864,0.298144422139132,0.));
#1423=DIRECTION('center_axis',(-0.569170087778022,-0.822219807094647,0.));
#1424=DIRECTION('ref_axis',(-0.822219807094647,0.569170087778022,0.));
#1425=DIRECTION('',(0.822219807094647,-0.569170087778022,0.));
#1426=DIRECTION('',(-0.822219807094647,0.569170087778022,0.));
#1427=DIRECTION('center_axis',(0.,0.,-1.));
#1428=DIRECTION('ref_axis',(-0.464128167762945,0.885768053097995,0.));
#1429=DIRECTION('center_axis',(0.,0.,1.));
#1430=DIRECTION('ref_axis',(-0.464128167762945,0.885768053097995,0.));
#1431=DIRECTION('',(0.,0.,-1.));
#1432=DIRECTION('center_axis',(0.,0.,-1.));
#1433=DIRECTION('ref_axis',(-0.464128167762945,0.885768053097995,0.));
#1434=DIRECTION('center_axis',(-1.,-1.76900788365833E-16,0.));
#1435=DIRECTION('ref_axis',(-1.76900788365833E-16,1.,0.));
#1436=DIRECTION('',(1.76900788365833E-16,-1.,0.));
#1437=DIRECTION('',(-1.76900788365833E-16,1.,0.));
#1438=DIRECTION('center_axis',(0.,0.,-1.));
#1439=DIRECTION('ref_axis',(0.464085189305588,0.885790571787258,0.));
#1440=DIRECTION('center_axis',(0.,0.,1.));
#1441=DIRECTION('ref_axis',(0.464085189305588,0.885790571787258,0.));
#1442=DIRECTION('',(0.,0.,-1.));
#1443=DIRECTION('center_axis',(0.,0.,-1.));
#1444=DIRECTION('ref_axis',(0.464085189305588,0.885790571787258,0.));
#1445=DIRECTION('center_axis',(-0.569249874134382,0.822164570385997,0.));
#1446=DIRECTION('ref_axis',(0.822164570385997,0.569249874134382,0.));
#1447=DIRECTION('',(-0.822164570385997,-0.569249874134382,0.));
#1448=DIRECTION('',(0.822164570385997,0.569249874134382,0.));
#1449=DIRECTION('center_axis',(0.,0.,1.));
#1450=DIRECTION('ref_axis',(-0.707106781186547,-0.707106781186549,0.));
#1451=DIRECTION('center_axis',(0.,0.,-1.));
#1452=DIRECTION('ref_axis',(-0.707106781186547,-0.707106781186549,0.));
#1453=DIRECTION('',(0.,0.,-1.));
#1454=DIRECTION('center_axis',(0.,0.,1.));
#1455=DIRECTION('ref_axis',(-0.707106781186547,-0.707106781186549,0.));
#1456=DIRECTION('',(0.,0.,1.));
#1457=DIRECTION('center_axis',(1.434570433596E-16,-1.,0.));
#1458=DIRECTION('ref_axis',(1.,1.434570433596E-16,0.));
#1459=DIRECTION('',(1.,1.434570433596E-16,0.));
#1460=DIRECTION('',(0.,0.,-1.));
#1461=DIRECTION('',(1.,1.434570433596E-16,0.));
#1462=DIRECTION('center_axis',(0.,0.,1.));
#1463=DIRECTION('ref_axis',(1.,0.,0.));
#1464=DIRECTION('',(6.99353086378051E-16,-1.,0.));
#1465=DIRECTION('center_axis',(0.,0.,1.));
#1466=DIRECTION('ref_axis',(-0.790530840328753,0.612422232196966,0.));
#1467=DIRECTION('',(-0.968277323709358,-0.24987801902177,0.));
#1468=DIRECTION('center_axis',(0.,0.,1.));
#1469=DIRECTION('ref_axis',(-0.125941804597684,0.992037631269439,0.));
#1470=DIRECTION('',(-1.,0.,0.));
#1471=DIRECTION('center_axis',(0.,0.,1.));
#1472=DIRECTION('ref_axis',(0.125941804597683,0.992037631269439,0.));
#1473=DIRECTION('',(-0.968277323709358,0.249878019021769,0.));
#1474=DIRECTION('center_axis',(0.,0.,1.));
#1475=DIRECTION('ref_axis',(0.790530840328753,0.612422232196967,0.));
#1476=DIRECTION('',(-2.62257407391769E-16,1.,0.));
#1477=DIRECTION('center_axis',(0.,0.,1.));
#1478=DIRECTION('ref_axis',(0.707106781186548,-0.707106781186547,0.));
#1479=DIRECTION('center_axis',(0.,0.,-1.));
#1480=DIRECTION('ref_axis',(-1.,0.,0.));
#1481=DIRECTION('center_axis',(0.,0.,-1.));
#1482=DIRECTION('ref_axis',(-1.,0.,0.));
#1483=DIRECTION('center_axis',(0.,0.,-1.));
#1484=DIRECTION('ref_axis',(-1.,0.,0.));
#1485=DIRECTION('center_axis',(0.,0.,-1.));
#1486=DIRECTION('ref_axis',(-1.,0.,0.));
#1487=DIRECTION('center_axis',(0.,0.,1.));
#1488=DIRECTION('ref_axis',(-0.790530840328753,0.612422232196966,0.));
#1489=DIRECTION('center_axis',(0.,0.,-1.));
#1490=DIRECTION('ref_axis',(-0.790530840328753,0.612422232196966,0.));
#1491=DIRECTION('',(0.,0.,-1.));
#1492=DIRECTION('',(0.,0.,1.));
#1493=DIRECTION('center_axis',(-0.24987801902177,0.968277323709358,0.));
#1494=DIRECTION('ref_axis',(-0.968277323709358,-0.24987801902177,0.));
#1495=DIRECTION('',(-0.968277323709358,-0.24987801902177,0.));
#1496=DIRECTION('',(0.,0.,1.));
#1497=DIRECTION('center_axis',(0.,0.,1.));
#1498=DIRECTION('ref_axis',(-0.125941804597684,0.992037631269439,0.));
#1499=DIRECTION('center_axis',(0.,0.,-1.));
#1500=DIRECTION('ref_axis',(-0.125941804597684,0.992037631269439,0.));
#1501=DIRECTION('',(0.,0.,-1.));
#1502=DIRECTION('center_axis',(0.,0.,1.));
#1503=DIRECTION('ref_axis',(0.125941804597683,0.992037631269439,0.));
#1504=DIRECTION('center_axis',(0.,0.,-1.));
#1505=DIRECTION('ref_axis',(0.125941804597683,0.992037631269439,0.));
#1506=DIRECTION('',(0.,0.,-1.));
#1507=DIRECTION('',(0.,0.,1.));
#1508=DIRECTION('center_axis',(0.249878019021769,0.968277323709358,0.));
#1509=DIRECTION('ref_axis',(-0.968277323709358,0.249878019021769,0.));
#1510=DIRECTION('',(-0.968277323709358,0.249878019021769,0.));
#1511=DIRECTION('',(0.,0.,1.));
#1512=DIRECTION('center_axis',(0.,0.,1.));
#1513=DIRECTION('ref_axis',(0.790530840328753,0.612422232196967,0.));
#1514=DIRECTION('center_axis',(0.,0.,-1.));
#1515=DIRECTION('ref_axis',(0.790530840328753,0.612422232196967,0.));
#1516=DIRECTION('',(0.,0.,-1.));
#1517=DIRECTION('center_axis',(0.,0.,1.));
#1518=DIRECTION('ref_axis',(0.707106781186548,-0.707106781186547,0.));
#1519=DIRECTION('center_axis',(0.,0.,-1.));
#1520=DIRECTION('ref_axis',(0.707106781186548,-0.707106781186547,0.));
#1521=DIRECTION('',(0.,0.,1.));
#1522=DIRECTION('center_axis',(0.,0.,1.));
#1523=DIRECTION('ref_axis',(-1.,0.,0.));
#1524=DIRECTION('center_axis',(0.,0.,-1.));
#1525=DIRECTION('ref_axis',(-1.,0.,0.));
#1526=DIRECTION('',(0.,0.,-1.));
#1527=DIRECTION('center_axis',(0.,0.,1.));
#1528=DIRECTION('ref_axis',(-1.,0.,0.));
#1529=DIRECTION('center_axis',(0.,0.,-1.));
#1530=DIRECTION('ref_axis',(-1.,0.,0.));
#1531=DIRECTION('',(0.,0.,-1.));
#1532=DIRECTION('center_axis',(0.,0.,1.));
#1533=DIRECTION('ref_axis',(-1.,0.,0.));
#1534=DIRECTION('center_axis',(0.,0.,-1.));
#1535=DIRECTION('ref_axis',(-1.,0.,0.));
#1536=DIRECTION('',(0.,0.,-1.));
#1537=DIRECTION('center_axis',(0.,0.,1.));
#1538=DIRECTION('ref_axis',(-1.,0.,0.));
#1539=DIRECTION('center_axis',(0.,0.,-1.));
#1540=DIRECTION('ref_axis',(-1.,0.,0.));
#1541=DIRECTION('',(0.,0.,-1.));
#1542=DIRECTION('center_axis',(-1.,-6.99353086378051E-16,0.));
#1543=DIRECTION('ref_axis',(6.99353086378051E-16,-1.,0.));
#1544=DIRECTION('',(6.99353086378051E-16,-1.,0.));
#1545=DIRECTION('center_axis',(0.,1.,0.));
#1546=DIRECTION('ref_axis',(-1.,0.,0.));
#1547=DIRECTION('',(-1.,0.,0.));
#1548=DIRECTION('center_axis',(1.,2.62257407391769E-16,0.));
#1549=DIRECTION('ref_axis',(-2.62257407391769E-16,1.,0.));
#1550=DIRECTION('',(-2.62257407391769E-16,1.,0.));
#1551=DIRECTION('center_axis',(0.,0.,1.));
#1552=DIRECTION('ref_axis',(1.,0.,0.));
#1553=CARTESIAN_POINT('',(0.,0.,0.));
#1554=CARTESIAN_POINT('Origin',(-3.11303567425454,-0.546259842519703,0.1));
#1555=CARTESIAN_POINT('',(-3.15785849898953,-0.481522474772774,0.1));
#1556=CARTESIAN_POINT('',(-3.11303567425454,-0.625000000000018,0.1));
#1557=CARTESIAN_POINT('Origin',(-3.11303567425454,-0.546259842519703,0.1));
#1558=CARTESIAN_POINT('',(-3.11303567425454,-0.625000000000018,0.));
#1559=CARTESIAN_POINT('',(-3.11303567425454,-0.625000000000018,0.1));
#1560=CARTESIAN_POINT('',(-3.15785849898953,-0.481522474772774,0.));
#1561=CARTESIAN_POINT('Origin',(-3.11303567425454,-0.546259842519703,0.));
#1562=CARTESIAN_POINT('',(-3.15785849898953,-0.481522474772774,0.1));
#1563=CARTESIAN_POINT('Origin',(-1.93775271094946,-0.625000000000018,0.1));
#1564=CARTESIAN_POINT('',(-2.01649286842978,-0.625000000000018,0.1));
#1565=CARTESIAN_POINT('',(-1.81262635547473,-0.625000000000018,0.1));
#1566=CARTESIAN_POINT('',(-2.01649286842978,-0.625000000000018,0.));
#1567=CARTESIAN_POINT('',(-2.01649286842978,-0.625000000000018,0.1));
#1568=CARTESIAN_POINT('',(-1.81262635547473,-0.625000000000018,0.));
#1569=CARTESIAN_POINT('Origin',(-3.67125984251969,-0.285106193760405,0.1));
#1570=CARTESIAN_POINT('',(-3.75,-0.285106193760405,0.1));
#1571=CARTESIAN_POINT('',(-3.6264370177847,-0.349843561507333,0.1));
#1572=CARTESIAN_POINT('Origin',(-3.67125984251969,-0.285106193760405,0.1));
#1573=CARTESIAN_POINT('',(-3.6264370177847,-0.349843561507333,0.));
#1574=CARTESIAN_POINT('',(-3.6264370177847,-0.349843561507334,0.1));
#1575=CARTESIAN_POINT('',(-3.75,-0.285106193760405,0.));
#1576=CARTESIAN_POINT('Origin',(-3.67125984251969,-0.285106193760405,0.));
#1577=CARTESIAN_POINT('',(-3.75,-0.285106193760405,0.1));
#1578=CARTESIAN_POINT('Origin',(-2.3087440566194,0.562499999999997,0.1));
#1579=CARTESIAN_POINT('',(-2.51596788441186,0.419022474772754,0.1));
#1580=CARTESIAN_POINT('',(-2.17190534215701,0.657244317366844,0.1));
#1581=CARTESIAN_POINT('',(-2.51596788441186,0.419022474772754,0.));
#1582=CARTESIAN_POINT('',(-2.51596788441186,0.419022474772753,0.1));
#1583=CARTESIAN_POINT('',(-2.17190534215701,0.657244317366844,0.));
#1584=CARTESIAN_POINT('Origin',(-3.67125984251969,0.483759842519682,0.1));
#1585=CARTESIAN_POINT('',(-3.67125984251969,0.562499999999997,0.1));
#1586=CARTESIAN_POINT('',(-3.75,0.483759842519682,0.1));
#1587=CARTESIAN_POINT('Origin',(-3.67125984251969,0.483759842519682,0.1));
#1588=CARTESIAN_POINT('',(-3.75,0.483759842519682,0.));
#1589=CARTESIAN_POINT('',(-3.75,0.483759842519682,0.1));
#1590=CARTESIAN_POINT('',(-3.67125984251969,0.562499999999997,0.));
#1591=CARTESIAN_POINT('Origin',(-3.67125984251969,0.483759842519682,0.));
#1592=CARTESIAN_POINT('',(-3.67125984251969,0.562499999999997,0.1));
#1593=CARTESIAN_POINT('Origin',(-3.75,-0.435396034342192,0.1));
#1594=CARTESIAN_POINT('',(-3.75,-0.0926980171711054,0.));
#1595=CARTESIAN_POINT('',(-3.75,-0.0926980171711054,0.1));
#1596=CARTESIAN_POINT('Origin',(-2.01649286842978,-0.546259842519703,0.1));
#1597=CARTESIAN_POINT('',(-1.93775271094946,-0.546259842519703,0.1));
#1598=CARTESIAN_POINT('Origin',(-2.01649286842978,-0.546259842519703,0.1));
#1599=CARTESIAN_POINT('',(-1.93775271094946,-0.546259842519703,0.));
#1600=CARTESIAN_POINT('',(-1.93775271094946,-0.546259842519703,0.1));
#1601=CARTESIAN_POINT('Origin',(-2.01649286842978,-0.546259842519703,0.));
#1602=CARTESIAN_POINT('Origin',(-1.93775271094946,0.363253730976834,0.1));
#1603=CARTESIAN_POINT('',(-1.93775271094946,0.212963890395046,0.1));
#1604=CARTESIAN_POINT('',(-1.93775271094946,0.306626865488408,0.1));
#1605=CARTESIAN_POINT('',(-1.93775271094946,0.212963890395046,0.));
#1606=CARTESIAN_POINT('',(-1.93775271094946,0.212963890395046,0.1));
#1607=CARTESIAN_POINT('',(-1.93775271094946,0.306626865488408,0.));
#1608=CARTESIAN_POINT('Origin',(-1.35901255346915,-0.546259842519703,0.1));
#1609=CARTESIAN_POINT('',(-1.43775271094946,-0.546259842519703,0.1));
#1610=CARTESIAN_POINT('',(-1.35901255346915,-0.625000000000018,0.1));
#1611=CARTESIAN_POINT('Origin',(-1.35901255346915,-0.546259842519703,0.1));
#1612=CARTESIAN_POINT('',(-1.35901255346915,-0.625000000000018,0.));
#1613=CARTESIAN_POINT('',(-1.35901255346915,-0.625000000000018,0.1));
#1614=CARTESIAN_POINT('',(-1.43775271094946,-0.546259842519703,0.));
#1615=CARTESIAN_POINT('Origin',(-1.35901255346915,-0.546259842519703,0.));
#1616=CARTESIAN_POINT('',(-1.43775271094946,-0.546259842519703,0.1));
#1617=CARTESIAN_POINT('Origin',(-0.0100012845369838,-0.625000000000018,
0.1));
#1618=CARTESIAN_POINT('',(-0.262090910565153,-0.625000000000018,0.1));
#1619=CARTESIAN_POINT('',(-0.848750642268493,-0.625000000000018,0.1));
#1620=CARTESIAN_POINT('',(-0.262090910565153,-0.625000000000018,0.));
#1621=CARTESIAN_POINT('',(-0.262090910565153,-0.625000000000018,0.1));
#1622=CARTESIAN_POINT('',(-0.848750642268493,-0.625000000000018,0.));
#1623=CARTESIAN_POINT('Origin',(0.296259842519685,0.483759842519683,0.1));
#1624=CARTESIAN_POINT('',(0.375,0.483759842519683,0.1));
#1625=CARTESIAN_POINT('',(0.296259842519685,0.562499999999997,0.1));
#1626=CARTESIAN_POINT('Origin',(0.296259842519685,0.483759842519683,0.1));
#1627=CARTESIAN_POINT('',(0.296259842519685,0.562499999999997,0.));
#1628=CARTESIAN_POINT('',(0.296259842519685,0.562499999999998,0.1));
#1629=CARTESIAN_POINT('',(0.375,0.483759842519683,0.));
#1630=CARTESIAN_POINT('Origin',(0.296259842519685,0.483759842519683,0.));
#1631=CARTESIAN_POINT('',(0.375,0.483759842519683,0.1));
#1632=CARTESIAN_POINT('Origin',(-1.06660287664217,0.562499999999997,0.1));
#1633=CARTESIAN_POINT('',(-0.814513250614,0.562499999999997,0.1));
#1634=CARTESIAN_POINT('',(-1.37705143832109,0.562499999999997,0.1));
#1635=CARTESIAN_POINT('',(-0.814513250614,0.562499999999997,0.));
#1636=CARTESIAN_POINT('',(-0.814513250614,0.562499999999997,0.1));
#1637=CARTESIAN_POINT('',(-1.37705143832109,0.562499999999997,0.));
#1638=CARTESIAN_POINT('Origin',(-0.262090910565153,-0.546259842519703,0.1));
#1639=CARTESIAN_POINT('',(-0.217274368220426,-0.481518125425636,0.1));
#1640=CARTESIAN_POINT('Origin',(-0.262090910565153,-0.546259842519703,0.1));
#1641=CARTESIAN_POINT('',(-0.217274368220426,-0.481518125425636,0.));
#1642=CARTESIAN_POINT('',(-0.217274368220427,-0.481518125425636,0.1));
#1643=CARTESIAN_POINT('Origin',(-0.262090910565153,-0.546259842519703,0.));
#1644=CARTESIAN_POINT('Origin',(-1.43775271094946,0.363340827701356,0.1));
#1645=CARTESIAN_POINT('',(-1.31419601112442,0.277810441449196,0.1));
#1646=CARTESIAN_POINT('',(-1.49565217956913,0.403420919852144,0.1));
#1647=CARTESIAN_POINT('',(-1.31419601112442,0.277810441449196,0.));
#1648=CARTESIAN_POINT('',(-1.31419601112442,0.277810441449196,0.1));
#1649=CARTESIAN_POINT('',(-1.49565217956913,0.403420919852144,0.));
#1650=CARTESIAN_POINT('Origin',(0.296259842519685,-0.285157195801664,0.1));
#1651=CARTESIAN_POINT('',(0.251443300174959,-0.349898912895731,0.1));
#1652=CARTESIAN_POINT('',(0.375,-0.285157195801664,0.1));
#1653=CARTESIAN_POINT('Origin',(0.296259842519685,-0.285157195801664,0.1));
#1654=CARTESIAN_POINT('',(0.375,-0.285157195801664,0.));
#1655=CARTESIAN_POINT('',(0.375,-0.285157195801664,0.1));
#1656=CARTESIAN_POINT('',(0.251443300174959,-0.349898912895731,0.));
#1657=CARTESIAN_POINT('Origin',(0.296259842519685,-0.285157195801664,0.));
#1658=CARTESIAN_POINT('',(0.251443300174959,-0.349898912895731,0.1));
#1659=CARTESIAN_POINT('Origin',(0.375,0.562499999999998,0.1));
#1660=CARTESIAN_POINT('',(0.375,0.40624999999999,0.));
#1661=CARTESIAN_POINT('',(0.375,0.40624999999999,0.1));
#1662=CARTESIAN_POINT('Origin',(-1.12877723514803,1.01624015748031,0.1));
#1663=CARTESIAN_POINT('',(-1.12877723514803,0.937499999999997,0.1));
#1664=CARTESIAN_POINT('',(-1.10910180057939,1.09248246643381,0.1));
#1665=CARTESIAN_POINT('Origin',(-1.12877723514803,1.01624015748031,0.1));
#1666=CARTESIAN_POINT('',(-1.10910180057939,1.09248246643381,-1.09273919746571E-17));
#1667=CARTESIAN_POINT('',(-1.10910180057939,1.09248246643381,0.1));
#1668=CARTESIAN_POINT('',(-1.12877723514803,0.937499999999997,0.));
#1669=CARTESIAN_POINT('Origin',(-1.12877723514803,1.01624015748031,0.));
#1670=CARTESIAN_POINT('',(-1.12877723514803,0.937499999999997,0.1));
#1671=CARTESIAN_POINT('Origin',(-1.43775271094946,1.17729560459382,0.1));
#1672=CARTESIAN_POINT('',(-1.33933711890051,1.15189803245216,0.1));
#1673=CARTESIAN_POINT('',(-1.44264921574863,1.17855921873554,0.1));
#1674=CARTESIAN_POINT('',(-1.33933711890051,1.15189803245216,-1.09273919746571E-17));
#1675=CARTESIAN_POINT('',(-1.33933711890051,1.15189803245216,0.1));
#1676=CARTESIAN_POINT('',(-1.44264921574863,1.17855921873554,-1.09273919746571E-17));
#1677=CARTESIAN_POINT('Origin',(-2.24622276485197,1.01624015748031,0.1));
#1678=CARTESIAN_POINT('',(-2.26589819942061,1.09248246643381,0.1));
#1679=CARTESIAN_POINT('',(-2.24622276485197,0.937499999999997,0.1));
#1680=CARTESIAN_POINT('Origin',(-2.24622276485197,1.01624015748031,0.1));
#1681=CARTESIAN_POINT('',(-2.24622276485197,0.937499999999997,0.));
#1682=CARTESIAN_POINT('',(-2.24622276485197,0.937499999999997,0.1));
#1683=CARTESIAN_POINT('',(-2.26589819942061,1.09248246643381,0.));
#1684=CARTESIAN_POINT('Origin',(-2.24622276485197,1.01624015748031,0.));
#1685=CARTESIAN_POINT('',(-2.26589819942061,1.09248246643381,0.1));
#1686=CARTESIAN_POINT('Origin',(-1.93775271094946,0.937499999999997,0.1));
#1687=CARTESIAN_POINT('',(-2.01649286842978,0.937499999999997,0.1));
#1688=CARTESIAN_POINT('',(-1.81262635547473,0.937499999999997,0.1));
#1689=CARTESIAN_POINT('',(-2.01649286842978,0.937499999999997,0.));
#1690=CARTESIAN_POINT('',(-2.01649286842978,0.937499999999997,0.1));
#1691=CARTESIAN_POINT('',(-1.81262635547473,0.937499999999997,0.));
#1692=CARTESIAN_POINT('Origin',(-1.35901255346915,1.07565572349866,0.1));
#1693=CARTESIAN_POINT('',(-1.43775271094946,1.07565572349866,0.1));
#1694=CARTESIAN_POINT('Origin',(-1.35901255346915,1.07565572349866,0.1));
#1695=CARTESIAN_POINT('',(-1.43775271094946,1.07565572349866,0.));
#1696=CARTESIAN_POINT('',(-1.43775271094946,1.07565572349866,0.1));
#1697=CARTESIAN_POINT('Origin',(-1.35901255346915,1.07565572349866,0.));
#1698=CARTESIAN_POINT('Origin',(-1.43775271094946,0.937499999999997,0.1));
#1699=CARTESIAN_POINT('',(-1.43775271094946,1.01624015748031,0.1));
#1700=CARTESIAN_POINT('',(-1.43775271094946,0.593749999999989,0.1));
#1701=CARTESIAN_POINT('',(-1.43775271094946,1.01624015748031,0.));
#1702=CARTESIAN_POINT('',(-1.43775271094946,1.01624015748031,0.1));
#1703=CARTESIAN_POINT('',(-1.43775271094946,0.593749999999989,0.));
#1704=CARTESIAN_POINT('Origin',(-2.01649286842978,1.07552529204088,0.1));
#1705=CARTESIAN_POINT('',(-1.93775271094946,1.07552529204088,0.1));
#1706=CARTESIAN_POINT('',(-2.03616830299842,1.15176760099437,0.1));
#1707=CARTESIAN_POINT('Origin',(-2.01649286842978,1.07552529204088,0.1));
#1708=CARTESIAN_POINT('',(-2.03616830299842,1.15176760099437,0.));
#1709=CARTESIAN_POINT('',(-2.03616830299842,1.15176760099437,0.1));
#1710=CARTESIAN_POINT('',(-1.93775271094946,1.07552529204088,0.));
#1711=CARTESIAN_POINT('Origin',(-2.01649286842978,1.07552529204088,0.));
#1712=CARTESIAN_POINT('',(-1.93775271094946,1.07552529204088,0.1));
#1713=CARTESIAN_POINT('Origin',(-2.86645525685162,0.937499999999997,0.1));
#1714=CARTESIAN_POINT('',(-2.39695476815191,1.05866141643863,0.));
#1715=CARTESIAN_POINT('',(-2.39695476815191,1.05866141643863,0.1));
#1716=CARTESIAN_POINT('Origin',(-2.56079070914685,0.483759842519682,0.1));
#1717=CARTESIAN_POINT('',(-2.56079070914685,0.562499999999997,0.1));
#1718=CARTESIAN_POINT('Origin',(-2.56079070914685,0.483759842519682,0.1));
#1719=CARTESIAN_POINT('',(-2.56079070914685,0.562499999999997,0.));
#1720=CARTESIAN_POINT('',(-2.56079070914685,0.562499999999997,0.1));
#1721=CARTESIAN_POINT('Origin',(-2.56079070914685,0.483759842519682,0.));
#1722=CARTESIAN_POINT('Origin',(-3.75,0.562499999999997,0.1));
#1723=CARTESIAN_POINT('',(-2.71875,0.562499999999997,0.));
#1724=CARTESIAN_POINT('',(-2.71875,0.562499999999997,0.1));
#1725=CARTESIAN_POINT('Origin',(-1.35901255346915,1.01624015748031,0.1));
#1726=CARTESIAN_POINT('',(-1.35901255346915,0.937499999999997,0.1));
#1727=CARTESIAN_POINT('Origin',(-1.35901255346915,1.01624015748031,0.1));
#1728=CARTESIAN_POINT('',(-1.35901255346915,0.937499999999997,0.));
#1729=CARTESIAN_POINT('',(-1.35901255346915,0.937499999999997,0.1));
#1730=CARTESIAN_POINT('Origin',(-1.35901255346915,1.01624015748031,0.));
#1731=CARTESIAN_POINT('Origin',(-0.508544743148383,0.937499999999997,0.1));
#1732=CARTESIAN_POINT('',(-1.09802237157419,0.937499999999997,0.));
#1733=CARTESIAN_POINT('',(-1.09802237157419,0.937499999999997,0.1));
#1734=CARTESIAN_POINT('Origin',(-2.01649286842978,1.01624015748031,0.1));
#1735=CARTESIAN_POINT('',(-1.93775271094946,1.01624015748031,0.1));
#1736=CARTESIAN_POINT('Origin',(-2.01649286842978,1.01624015748031,0.1));
#1737=CARTESIAN_POINT('',(-1.93775271094946,1.01624015748031,0.));
#1738=CARTESIAN_POINT('',(-1.93775271094946,1.01624015748031,0.1));
#1739=CARTESIAN_POINT('Origin',(-2.01649286842978,1.01624015748031,0.));
#1740=CARTESIAN_POINT('Origin',(-1.93775271094946,1.17716517313604,0.1));
#1741=CARTESIAN_POINT('',(-1.93775271094946,0.713582586568009,0.));
#1742=CARTESIAN_POINT('',(-1.93775271094946,0.713582586568009,0.1));
#1743=CARTESIAN_POINT('Origin',(-0.814513250614,0.483759842519682,0.1));
#1744=CARTESIAN_POINT('',(-0.859329792958726,0.419018125425616,0.1));
#1745=CARTESIAN_POINT('Origin',(-0.814513250614,0.483759842519682,0.1));
#1746=CARTESIAN_POINT('',(-0.859329792958726,0.419018125425616,0.));
#1747=CARTESIAN_POINT('',(-0.859329792958726,0.419018125425616,0.1));
#1748=CARTESIAN_POINT('Origin',(-0.814513250614,0.483759842519682,0.));
#1749=CARTESIAN_POINT('Origin',(0.375000000000001,-0.43542929914789,0.1));
#1750=CARTESIAN_POINT('',(-0.482556432636019,0.158202070257767,0.));
#1751=CARTESIAN_POINT('',(-0.482556432636019,0.158202070257767,0.1));
#1752=CARTESIAN_POINT('Origin',(-1.35901255346915,0.213068724355129,0.1));
#1753=CARTESIAN_POINT('',(-1.43775271094946,0.213068724355129,0.1));
#1754=CARTESIAN_POINT('Origin',(-1.35901255346915,0.213068724355129,0.1));
#1755=CARTESIAN_POINT('',(-1.43775271094946,0.213068724355129,0.));
#1756=CARTESIAN_POINT('',(-1.43775271094946,0.213068724355129,0.1));
#1757=CARTESIAN_POINT('Origin',(-1.35901255346915,0.213068724355129,0.));
#1758=CARTESIAN_POINT('Origin',(-1.43775271094946,-0.625000000000018,0.1));
#1759=CARTESIAN_POINT('',(-1.43775271094946,-0.187500000000018,0.));
#1760=CARTESIAN_POINT('',(-1.43775271094946,-0.187500000000018,0.1));
#1761=CARTESIAN_POINT('Origin',(-2.01649286842978,0.212963890395046,0.1));
#1762=CARTESIAN_POINT('',(-2.06131569316477,0.277701258141975,0.1));
#1763=CARTESIAN_POINT('Origin',(-2.01649286842978,0.212963890395046,0.1));
#1764=CARTESIAN_POINT('',(-2.06131569316477,0.277701258141975,0.));
#1765=CARTESIAN_POINT('',(-2.06131569316477,0.277701258141975,0.1));
#1766=CARTESIAN_POINT('Origin',(-2.01649286842978,0.212963890395046,0.));
#1767=CARTESIAN_POINT('Origin',(-3.36508232678199,-0.625000000000019,0.1));
#1768=CARTESIAN_POINT('',(-2.59334012583811,-0.0906615395805387,0.));
#1769=CARTESIAN_POINT('',(-2.59334012583811,-0.0906615395805387,0.1));
#1770=CARTESIAN_POINT('Origin',(-3.875,-0.750000000000019,0.));
#1771=CARTESIAN_POINT('',(-3.875,-1.00000000000002,0.1));
#1772=CARTESIAN_POINT('',(-4.125,-0.750000000000019,0.1));
#1773=CARTESIAN_POINT('Origin',(-3.875,-0.750000000000019,0.1));
#1774=CARTESIAN_POINT('',(-4.125,-0.750000000000019,0.));
#1775=CARTESIAN_POINT('',(-4.125,-0.750000000000019,0.));
#1776=CARTESIAN_POINT('',(-3.875,-1.00000000000002,0.));
#1777=CARTESIAN_POINT('Origin',(-3.875,-0.750000000000019,0.));
#1778=CARTESIAN_POINT('',(-3.875,-1.00000000000002,0.));
#1779=CARTESIAN_POINT('Origin',(-4.125,-1.00000000000002,0.));
#1780=CARTESIAN_POINT('',(0.5,-1.00000000000002,0.));
#1781=CARTESIAN_POINT('',(-4.125,-1.00000000000002,0.));
#1782=CARTESIAN_POINT('',(0.5,-1.00000000000002,0.1));
#1783=CARTESIAN_POINT('',(0.5,-1.00000000000002,0.));
#1784=CARTESIAN_POINT('',(-4.125,-1.00000000000002,0.1));
#1785=CARTESIAN_POINT('Origin',(-1.6875,0.249999999999982,0.));
#1786=CARTESIAN_POINT('',(-4.125,0.806325635587366,0.));
#1787=CARTESIAN_POINT('',(-4.125,0.999999999999981,0.));
#1788=CARTESIAN_POINT('',(-3.93746950475545,1.04839496651471,0.));
#1789=CARTESIAN_POINT('Origin',(-3.875,0.806325635587366,0.));
#1790=CARTESIAN_POINT('',(-2.21823134265656,1.49206933092732,0.));
#1791=CARTESIAN_POINT('',(-2.1875,1.49999999999998,0.));
#1792=CARTESIAN_POINT('',(-2.15576183790112,1.49999999999998,0.));
#1793=CARTESIAN_POINT('Origin',(-2.15576183790112,1.24999999999998,0.));
#1794=CARTESIAN_POINT('',(-1.21923816209888,1.49999999999998,0.));
#1795=CARTESIAN_POINT('',(-1.1875,1.49999999999998,0.));
#1796=CARTESIAN_POINT('',(-1.15676865734344,1.49206933092732,0.));
#1797=CARTESIAN_POINT('Origin',(-1.21923816209888,1.24999999999998,0.));
#1798=CARTESIAN_POINT('',(0.562469504755442,1.04839496651471,0.));
#1799=CARTESIAN_POINT('',(0.75,0.999999999999982,0.));
#1800=CARTESIAN_POINT('',(0.75,0.806325635587368,0.));
#1801=CARTESIAN_POINT('Origin',(0.5,0.806325635587368,0.));
#1802=CARTESIAN_POINT('',(0.75,-0.750000000000018,0.));
#1803=CARTESIAN_POINT('',(0.750000000000001,-1.00000000000002,0.));
#1804=CARTESIAN_POINT('Origin',(0.5,-0.750000000000018,0.));
#1805=CARTESIAN_POINT('',(-3.78900000000001,0.749999999999984,0.));
#1806=CARTESIAN_POINT('Origin',(-3.87500000000001,0.749999999999984,0.));
#1807=CARTESIAN_POINT('',(-3.789,-0.750000000000019,0.));
#1808=CARTESIAN_POINT('Origin',(-3.875,-0.750000000000019,0.));
#1809=CARTESIAN_POINT('',(0.585999999999997,0.749999999999997,0.));
#1810=CARTESIAN_POINT('Origin',(0.499999999999997,0.749999999999997,0.));
#1811=CARTESIAN_POINT('',(0.586000000000001,-0.750000000000004,0.));
#1812=CARTESIAN_POINT('Origin',(0.5,-0.750000000000004,0.));
#1813=CARTESIAN_POINT('Origin',(-3.875,0.806325635587366,0.));
#1814=CARTESIAN_POINT('',(-4.125,0.806325635587366,0.1));
#1815=CARTESIAN_POINT('',(-3.93746950475545,1.04839496651471,0.1));
#1816=CARTESIAN_POINT('Origin',(-3.875,0.806325635587366,0.1));
#1817=CARTESIAN_POINT('',(-3.93746950475545,1.04839496651471,0.));
#1818=CARTESIAN_POINT('',(-4.125,0.806325635587366,0.));
#1819=CARTESIAN_POINT('Origin',(-2.1875,1.49999999999998,0.));
#1820=CARTESIAN_POINT('',(-2.21823134265656,1.49206933092732,0.1));
#1821=CARTESIAN_POINT('',(-2.1875,1.49999999999998,0.1));
#1822=CARTESIAN_POINT('',(-2.21823134265656,1.49206933092732,0.));
#1823=CARTESIAN_POINT('Origin',(-2.15576183790112,1.24999999999998,0.));
#1824=CARTESIAN_POINT('',(-2.15576183790112,1.49999999999998,0.1));
#1825=CARTESIAN_POINT('Origin',(-2.15576183790112,1.24999999999998,0.1));
#1826=CARTESIAN_POINT('',(-2.15576183790112,1.49999999999998,0.));
#1827=CARTESIAN_POINT('Origin',(-1.21923816209888,1.24999999999998,0.));
#1828=CARTESIAN_POINT('',(-1.21923816209888,1.49999999999998,0.1));
#1829=CARTESIAN_POINT('',(-1.15676865734344,1.49206933092732,0.1));
#1830=CARTESIAN_POINT('Origin',(-1.21923816209888,1.24999999999998,0.1));
#1831=CARTESIAN_POINT('',(-1.15676865734344,1.49206933092732,0.));
#1832=CARTESIAN_POINT('',(-1.21923816209888,1.49999999999998,0.));
#1833=CARTESIAN_POINT('Origin',(0.75,0.999999999999982,0.));
#1834=CARTESIAN_POINT('',(0.562469504755442,1.04839496651471,0.1));
#1835=CARTESIAN_POINT('',(0.75,0.999999999999982,0.1));
#1836=CARTESIAN_POINT('',(0.562469504755442,1.04839496651471,0.));
#1837=CARTESIAN_POINT('Origin',(0.5,0.806325635587368,0.));
#1838=CARTESIAN_POINT('',(0.75,0.806325635587368,0.1));
#1839=CARTESIAN_POINT('Origin',(0.5,0.806325635587368,0.1));
#1840=CARTESIAN_POINT('',(0.75,0.806325635587368,0.));
#1841=CARTESIAN_POINT('Origin',(0.5,-0.750000000000018,0.));
#1842=CARTESIAN_POINT('',(0.75,-0.750000000000018,0.1));
#1843=CARTESIAN_POINT('Origin',(0.5,-0.750000000000018,0.1));
#1844=CARTESIAN_POINT('',(0.750000000000001,-0.750000000000018,0.));
#1845=CARTESIAN_POINT('Origin',(0.5,-0.750000000000004,0.));
#1846=CARTESIAN_POINT('',(0.586,-0.750000000000004,0.1));
#1847=CARTESIAN_POINT('Origin',(0.5,-0.750000000000004,0.1));
#1848=CARTESIAN_POINT('',(0.586000000000001,-0.750000000000004,0.));
#1849=CARTESIAN_POINT('Origin',(0.499999999999997,0.749999999999997,0.));
#1850=CARTESIAN_POINT('',(0.585999999999997,0.749999999999997,0.1));
#1851=CARTESIAN_POINT('Origin',(0.499999999999997,0.749999999999997,0.1));
#1852=CARTESIAN_POINT('',(0.585999999999997,0.749999999999997,0.));
#1853=CARTESIAN_POINT('Origin',(-3.875,-0.750000000000019,0.));
#1854=CARTESIAN_POINT('',(-3.789,-0.750000000000019,0.1));
#1855=CARTESIAN_POINT('Origin',(-3.875,-0.750000000000019,0.1));
#1856=CARTESIAN_POINT('',(-3.789,-0.750000000000019,0.));
#1857=CARTESIAN_POINT('Origin',(-3.87500000000001,0.749999999999984,0.));
#1858=CARTESIAN_POINT('',(-3.78900000000001,0.749999999999984,0.1));
#1859=CARTESIAN_POINT('Origin',(-3.87500000000001,0.749999999999984,0.1));
#1860=CARTESIAN_POINT('',(-3.78900000000001,0.749999999999984,0.));
#1861=CARTESIAN_POINT('Origin',(-4.125,0.999999999999981,0.));
#1862=CARTESIAN_POINT('',(-4.125,0.999999999999981,0.1));
#1863=CARTESIAN_POINT('Origin',(-1.1875,1.49999999999998,0.));
#1864=CARTESIAN_POINT('',(-1.1875,1.49999999999998,0.1));
#1865=CARTESIAN_POINT('Origin',(0.750000000000001,-1.00000000000002,0.));
#1866=CARTESIAN_POINT('',(0.750000000000001,-1.00000000000002,0.1));
#1867=CARTESIAN_POINT('Origin',(-1.6875,0.249999999999982,0.1));
#1868=UNCERTAINTY_MEASURE_WITH_UNIT(LENGTH_MEASURE(0.000393700787401575),
#1874,'DISTANCE_ACCURACY_VALUE',
'Maximum model space distance between geometric entities at asserted c
onnectivities');
#1869=UNCERTAINTY_MEASURE_WITH_UNIT(LENGTH_MEASURE(0.000393700787401575),
#1874,'DISTANCE_ACCURACY_VALUE',
'Maximum model space distance between geometric entities at asserted c
onnectivities');
#1870=(
GEOMETRIC_REPRESENTATION_CONTEXT(3)
GLOBAL_UNCERTAINTY_ASSIGNED_CONTEXT((#1868))
GLOBAL_UNIT_ASSIGNED_CONTEXT((#1874,#1878,#1879))
REPRESENTATION_CONTEXT('','3D')
);
#1871=(
GEOMETRIC_REPRESENTATION_CONTEXT(3)
GLOBAL_UNCERTAINTY_ASSIGNED_CONTEXT((#1869))
GLOBAL_UNIT_ASSIGNED_CONTEXT((#1874,#1878,#1879))
REPRESENTATION_CONTEXT('','3D')
);
#1872=DIMENSIONAL_EXPONENTS(1.,0.,0.,0.,0.,0.,0.);
#1873=DIMENSIONAL_EXPONENTS(0.,1.,0.,0.,0.,0.,0.);
#1874=(
CONVERSION_BASED_UNIT('inch',#1877)
LENGTH_UNIT()
NAMED_UNIT(#1872)
);
#1875=(
LENGTH_UNIT()
NAMED_UNIT(*)
SI_UNIT(.MILLI.,.METRE.)
);
#1876=(
LENGTH_UNIT()
NAMED_UNIT(*)
SI_UNIT(.CENTI.,.METRE.)
);
#1877=LENGTH_MEASURE_WITH_UNIT(LENGTH_MEASURE(25.4),#1875);
#1878=(
NAMED_UNIT(*)
PLANE_ANGLE_UNIT()
SI_UNIT($,.RADIAN.)
);
#1879=(
NAMED_UNIT(*)
SI_UNIT($,.STERADIAN.)
SOLID_ANGLE_UNIT()
);
#1880=SHAPE_DEFINITION_REPRESENTATION(#1881,#1882);
#1881=PRODUCT_DEFINITION_SHAPE('',$,#1884);
#1882=SHAPE_REPRESENTATION('',(#1120),#1870);
#1883=PRODUCT_DEFINITION_CONTEXT('part definition',#1888,'design');
#1884=PRODUCT_DEFINITION('rangoon','rangoon',#1885,#1883);
#1885=PRODUCT_DEFINITION_FORMATION('',$,#1890);
#1886=PRODUCT_RELATED_PRODUCT_CATEGORY('rangoon','rangoon',(#1890));
#1887=APPLICATION_PROTOCOL_DEFINITION('international standard',
'automotive_design',2009,#1888);
#1888=APPLICATION_CONTEXT(
'Core Data for Automotive Mechanical Design Process');
#1889=PRODUCT_CONTEXT('part definition',#1888,'mechanical');
#1890=PRODUCT('rangoon','rangoon',$,(#1889));
#1891=PRESENTATION_STYLE_ASSIGNMENT((#1892));
#1892=SURFACE_STYLE_USAGE(.BOTH.,#1895);
#1893=SURFACE_STYLE_RENDERING_WITH_PROPERTIES($,#1899,(#1894));
#1894=SURFACE_STYLE_TRANSPARENT(0.);
#1895=SURFACE_SIDE_STYLE('',(#1896,#1893));
#1896=SURFACE_STYLE_FILL_AREA(#1897);
#1897=FILL_AREA_STYLE('',(#1898));
#1898=FILL_AREA_STYLE_COLOUR('',#1899);
#1899=COLOUR_RGB('',0.749019607843137,0.749019607843137,0.749019607843137);
ENDSEC;
END-ISO-10303-21;
